<?xml version="1.0" encoding="UTF-8"?><svg xmlns="http://www.w3.org/2000/svg" xmlns:xlink="http://www.w3.org/1999/xlink" stroke-dasharray="none" shape-rendering="auto" font-family="'Dialog'" width="1054" text-rendering="auto" fill-opacity="1" contentScriptType="text/ecmascript" color-interpolation="auto" color-rendering="auto" preserveAspectRatio="xMidYMid meet" font-size="12px" viewBox="0 0 1054 1293" fill="black" stroke="black" image-rendering="auto" stroke-miterlimit="10" zoomAndPan="magnify" version="1.0" stroke-linecap="square" stroke-linejoin="miter" contentStyleType="text/css" font-style="normal" height="1293" stroke-width="1" stroke-dashoffset="0" font-weight="normal" stroke-opacity="1">
    <!--Generated by the Batik Graphics2D SVG Generator-->
    <defs id="genericDefs"/>
    <g>
        <defs id="defs1">
            <linearGradient x1="144" x2="144" y1="122" gradientUnits="userSpaceOnUse" y2="222" xlink:type="simple" xlink:actuate="onLoad" id="linearGradient1" xlink:show="other" spreadMethod="pad">
                <stop stop-opacity="1" stop-color="white" offset="0%"/>
                <stop stop-opacity="1" stop-color="rgb(131,135,205)" offset="100%"/>
            </linearGradient>
            <linearGradient x1="323" x2="323" y1="283" gradientUnits="userSpaceOnUse" y2="383" xlink:type="simple" xlink:actuate="onLoad" id="linearGradient2" xlink:show="other" spreadMethod="pad">
                <stop stop-opacity="1" stop-color="white" offset="0%"/>
                <stop stop-opacity="1" stop-color="rgb(195,167,173)" offset="100%"/>
            </linearGradient>
            <linearGradient x1="323" x2="323" y1="443" gradientUnits="userSpaceOnUse" y2="643" xlink:type="simple" xlink:actuate="onLoad" id="linearGradient3" xlink:show="other" spreadMethod="pad">
                <stop stop-opacity="1" stop-color="white" offset="0%"/>
                <stop stop-opacity="1" stop-color="rgb(195,167,173)" offset="100%"/>
            </linearGradient>
            <linearGradient x1="503" x2="503" y1="703" gradientUnits="userSpaceOnUse" y2="803" xlink:type="simple" xlink:actuate="onLoad" id="linearGradient4" xlink:show="other" spreadMethod="pad">
                <stop stop-opacity="1" stop-color="white" offset="0%"/>
                <stop stop-opacity="1" stop-color="rgb(195,167,173)" offset="100%"/>
            </linearGradient>
            <linearGradient x1="503" x2="503" y1="863" gradientUnits="userSpaceOnUse" y2="963" xlink:type="simple" xlink:actuate="onLoad" id="linearGradient5" xlink:show="other" spreadMethod="pad">
                <stop stop-opacity="1" stop-color="white" offset="0%"/>
                <stop stop-opacity="1" stop-color="rgb(195,167,173)" offset="100%"/>
            </linearGradient>
            <linearGradient x1="503" x2="503" y1="1023" gradientUnits="userSpaceOnUse" y2="1123" xlink:type="simple" xlink:actuate="onLoad" id="linearGradient6" xlink:show="other" spreadMethod="pad">
                <stop stop-opacity="1" stop-color="white" offset="0%"/>
                <stop stop-opacity="1" stop-color="rgb(195,167,173)" offset="100%"/>
            </linearGradient>
            <linearGradient x1="803" x2="803" y1="503" gradientUnits="userSpaceOnUse" y2="603" xlink:type="simple" xlink:actuate="onLoad" id="linearGradient7" xlink:show="other" spreadMethod="pad">
                <stop stop-opacity="1" stop-color="white" offset="0%"/>
                <stop stop-opacity="1" stop-color="rgb(195,167,173)" offset="100%"/>
            </linearGradient>
            <linearGradient x1="323" x2="323" y1="1183" gradientUnits="userSpaceOnUse" y2="1283" xlink:type="simple" xlink:actuate="onLoad" id="linearGradient8" xlink:show="other" spreadMethod="pad">
                <stop stop-opacity="1" stop-color="white" offset="0%"/>
                <stop stop-opacity="1" stop-color="rgb(195,167,173)" offset="100%"/>
            </linearGradient>
            <clipPath clipPathUnits="userSpaceOnUse" id="clipPath1">
                <path d="M144 122 L144 221 L383 221 L383 122 Z"/>
            </clipPath>
            <clipPath clipPathUnits="userSpaceOnUse" id="clipPath2">
                <path d="M234 124 L295 124 L295 141 L234 141 L234 124 Z"/>
            </clipPath>
            <clipPath clipPathUnits="userSpaceOnUse" id="clipPath3">
                <path d="M205 140 L324 140 L324 157 L205 157 L205 140 Z"/>
            </clipPath>
            <clipPath clipPathUnits="userSpaceOnUse" id="clipPath4">
                <path d="M149 159 L348 159 L348 176 L149 176 L149 159 Z"/>
            </clipPath>
            <clipPath clipPathUnits="userSpaceOnUse" id="clipPath5">
                <path d="M144 157 L385 157 L385 223 L144 223 L144 157 Z"/>
            </clipPath>
            <clipPath clipPathUnits="userSpaceOnUse" id="clipPath6">
                <path d="M143 121 L385 121 L385 223 L143 223 L143 121 Z"/>
            </clipPath>
            <clipPath clipPathUnits="userSpaceOnUse" id="clipPath7">
                <path d="M323 283 L323 382 L563 382 L563 283 Z"/>
            </clipPath>
            <clipPath clipPathUnits="userSpaceOnUse" id="clipPath8">
                <path d="M399 285 L490 285 L490 302 L399 302 L399 285 Z"/>
            </clipPath>
            <clipPath clipPathUnits="userSpaceOnUse" id="clipPath9">
                <path d="M412 301 L476 301 L476 318 L412 318 L412 301 Z"/>
            </clipPath>
            <clipPath clipPathUnits="userSpaceOnUse" id="clipPath10">
                <path d="M323 318 L565 318 L565 384 L323 384 L323 318 Z"/>
            </clipPath>
            <clipPath clipPathUnits="userSpaceOnUse" id="clipPath11">
                <path d="M322 282 L565 282 L565 384 L322 384 L322 282 Z"/>
            </clipPath>
            <clipPath clipPathUnits="userSpaceOnUse" id="clipPath12">
                <path d="M323 443 L323 642 L563 642 L563 443 Z"/>
            </clipPath>
            <clipPath clipPathUnits="userSpaceOnUse" id="clipPath13">
                <path d="M396 445 L492 445 L492 462 L396 462 L396 445 Z"/>
            </clipPath>
            <clipPath clipPathUnits="userSpaceOnUse" id="clipPath14">
                <path d="M424 461 L465 461 L465 478 L424 478 L424 461 Z"/>
            </clipPath>
            <clipPath clipPathUnits="userSpaceOnUse" id="clipPath15">
                <path d="M323 478 L565 478 L565 644 L323 644 L323 478 Z"/>
            </clipPath>
            <clipPath clipPathUnits="userSpaceOnUse" id="clipPath16">
                <path d="M322 442 L565 442 L565 644 L322 644 L322 442 Z"/>
            </clipPath>
            <clipPath clipPathUnits="userSpaceOnUse" id="clipPath17">
                <path d="M503 703 L503 802 L743 802 L743 703 Z"/>
            </clipPath>
            <clipPath clipPathUnits="userSpaceOnUse" id="clipPath18">
                <path d="M579 705 L670 705 L670 722 L579 722 L579 705 Z"/>
            </clipPath>
            <clipPath clipPathUnits="userSpaceOnUse" id="clipPath19">
                <path d="M585 721 L664 721 L664 738 L585 738 L585 721 Z"/>
            </clipPath>
            <clipPath clipPathUnits="userSpaceOnUse" id="clipPath20">
                <path d="M508 740 L658 740 L658 757 L508 757 L508 740 Z"/>
            </clipPath>
            <clipPath clipPathUnits="userSpaceOnUse" id="clipPath21">
                <path d="M503 738 L745 738 L745 804 L503 804 L503 738 Z"/>
            </clipPath>
            <clipPath clipPathUnits="userSpaceOnUse" id="clipPath22">
                <path d="M502 702 L745 702 L745 804 L502 804 L502 702 Z"/>
            </clipPath>
            <clipPath clipPathUnits="userSpaceOnUse" id="clipPath23">
                <path d="M503 863 L503 962 L743 962 L743 863 Z"/>
            </clipPath>
            <clipPath clipPathUnits="userSpaceOnUse" id="clipPath24">
                <path d="M579 865 L670 865 L670 882 L579 882 L579 865 Z"/>
            </clipPath>
            <clipPath clipPathUnits="userSpaceOnUse" id="clipPath25">
                <path d="M602 881 L647 881 L647 898 L602 898 L602 881 Z"/>
            </clipPath>
            <clipPath clipPathUnits="userSpaceOnUse" id="clipPath26">
                <path d="M508 900 L640 900 L640 917 L508 917 L508 900 Z"/>
            </clipPath>
            <clipPath clipPathUnits="userSpaceOnUse" id="clipPath27">
                <path d="M503 898 L745 898 L745 964 L503 964 L503 898 Z"/>
            </clipPath>
            <clipPath clipPathUnits="userSpaceOnUse" id="clipPath28">
                <path d="M502 862 L745 862 L745 964 L502 964 L502 862 Z"/>
            </clipPath>
            <clipPath clipPathUnits="userSpaceOnUse" id="clipPath29">
                <path d="M503 1023 L503 1122 L743 1122 L743 1023 Z"/>
            </clipPath>
            <clipPath clipPathUnits="userSpaceOnUse" id="clipPath30">
                <path d="M579 1025 L670 1025 L670 1042 L579 1042 L579 1025 Z"/>
            </clipPath>
            <clipPath clipPathUnits="userSpaceOnUse" id="clipPath31">
                <path d="M571 1041 L677 1041 L677 1058 L571 1058 L571 1041 Z"/>
            </clipPath>
            <clipPath clipPathUnits="userSpaceOnUse" id="clipPath32">
                <path d="M508 1060 L740 1060 L740 1077 L508 1077 L508 1060 Z"/>
            </clipPath>
            <clipPath clipPathUnits="userSpaceOnUse" id="clipPath33">
                <path d="M503 1058 L745 1058 L745 1124 L503 1124 L503 1058 Z"/>
            </clipPath>
            <clipPath clipPathUnits="userSpaceOnUse" id="clipPath34">
                <path d="M502 1022 L745 1022 L745 1124 L502 1124 L502 1022 Z"/>
            </clipPath>
            <clipPath clipPathUnits="userSpaceOnUse" id="clipPath35">
                <path d="M803 503 L803 602 L1043 602 L1043 503 Z"/>
            </clipPath>
            <clipPath clipPathUnits="userSpaceOnUse" id="clipPath36">
                <path d="M881 505 L967 505 L967 522 L881 522 L881 505 Z"/>
            </clipPath>
            <clipPath clipPathUnits="userSpaceOnUse" id="clipPath37">
                <path d="M803 522 L1045 522 L1045 604 L803 604 L803 522 Z"/>
            </clipPath>
            <clipPath clipPathUnits="userSpaceOnUse" id="clipPath38">
                <path d="M802 502 L1045 502 L1045 604 L802 604 L802 502 Z"/>
            </clipPath>
            <clipPath clipPathUnits="userSpaceOnUse" id="clipPath39">
                <path d="M323 1183 L323 1282 L563 1282 L563 1183 Z"/>
            </clipPath>
            <clipPath clipPathUnits="userSpaceOnUse" id="clipPath40">
                <path d="M399 1185 L490 1185 L490 1202 L399 1202 L399 1185 Z"/>
            </clipPath>
            <clipPath clipPathUnits="userSpaceOnUse" id="clipPath41">
                <path d="M413 1201 L475 1201 L475 1218 L413 1218 L413 1201 Z"/>
            </clipPath>
            <clipPath clipPathUnits="userSpaceOnUse" id="clipPath42">
                <path d="M328 1220 L430 1220 L430 1237 L328 1237 L328 1220 Z"/>
            </clipPath>
            <clipPath clipPathUnits="userSpaceOnUse" id="clipPath43">
                <path d="M323 1218 L565 1218 L565 1284 L323 1284 L323 1218 Z"/>
            </clipPath>
            <clipPath clipPathUnits="userSpaceOnUse" id="clipPath44">
                <path d="M322 1182 L565 1182 L565 1284 L322 1284 L322 1182 Z"/>
            </clipPath>
            <clipPath clipPathUnits="userSpaceOnUse" id="clipPath45">
                <path d="M-1 -1 L1055 -1 L1055 1294 L-1 1294 L-1 -1 Z"/>
            </clipPath>
            <clipPath clipPathUnits="userSpaceOnUse" id="clipPath46">
                <path d="M434 642 L453 642 L453 655 L434 655 L434 642 Z"/>
            </clipPath>
            <clipPath clipPathUnits="userSpaceOnUse" id="clipPath47">
                <path d="M257 221 L270 221 L270 239 L257 239 L257 221 Z"/>
            </clipPath>
        </defs>
        <g fill="url(#linearGradient1)" stroke-miterlimit="0" stroke-width="0" font-family="'Segoe UI'" stroke="url(#linearGradient1)" stroke-linejoin="round">
            <rect x="144" width="240" height="100" y="122" clip-path="url(#clipPath1)" stroke="none"/>
            <text fill="black" x="235" xml:space="preserve" y="138" clip-path="url(#clipPath2)" stroke="none">«Interface»</text>
            <text fill="black" x="206" xml:space="preserve" y="154" clip-path="url(#clipPath3)" stroke="none">IControlledVocabulary</text>
            <text fill="black" x="150" xml:space="preserve" y="173" clip-path="url(#clipPath4)" stroke="none">«ReferenceCode»   code: Identifier [1]</text>
        </g>
        <g stroke-linecap="butt" font-family="'Segoe UI'" stroke-width="1.1">
            <line y2="158" fill="none" x1="144" clip-path="url(#clipPath5)" x2="384" y1="158"/>
            <rect x="144" y="122" clip-path="url(#clipPath6)" fill="none" width="239" rx="0" ry="0" height="99"/>
            <rect x="323" y="283" clip-path="url(#clipPath7)" fill="url(#linearGradient2)" width="241" height="100" stroke="none"/>
            <text x="400" xml:space="preserve" y="299" clip-path="url(#clipPath8)" stroke="none">«ReferenceData»</text>
            <text x="413" xml:space="preserve" y="315" clip-path="url(#clipPath9)" stroke="none">RegionType</text>
            <line y2="319" fill="none" x1="323" clip-path="url(#clipPath10)" x2="564" y1="319"/>
            <rect x="323" y="283" clip-path="url(#clipPath11)" fill="none" width="240" rx="0" ry="0" height="99"/>
            <rect x="323" y="443" clip-path="url(#clipPath12)" fill="url(#linearGradient3)" width="241" height="200" stroke="none"/>
            <text x="397" y="459" clip-path="url(#clipPath13)" fill="rgb(169,169,169)" font-style="italic" stroke="none" xml:space="preserve">«ReferenceData»</text>
            <text x="425" y="475" clip-path="url(#clipPath14)" fill="rgb(169,169,169)" font-style="italic" stroke="none" xml:space="preserve">Region</text>
            <line y2="479" fill="none" x1="323" clip-path="url(#clipPath15)" x2="564" y1="479"/>
            <rect x="323" y="443" clip-path="url(#clipPath16)" fill="none" width="240" rx="0" ry="0" height="199"/>
            <rect x="503" y="703" clip-path="url(#clipPath17)" fill="url(#linearGradient4)" width="241" height="100" stroke="none"/>
            <text x="580" xml:space="preserve" y="719" clip-path="url(#clipPath18)" stroke="none">«ReferenceData»</text>
            <text x="586" xml:space="preserve" y="735" clip-path="url(#clipPath19)" stroke="none">GenericRegion</text>
            <text x="509" xml:space="preserve" y="754" clip-path="url(#clipPath20)" stroke="none">  regionType: RegionType [1]</text>
            <line y2="739" fill="none" x1="503" clip-path="url(#clipPath21)" x2="744" y1="739"/>
            <rect x="503" y="703" clip-path="url(#clipPath22)" fill="none" width="240" rx="0" ry="0" height="99"/>
            <rect x="503" y="863" clip-path="url(#clipPath23)" fill="url(#linearGradient5)" width="241" height="100" stroke="none"/>
            <text x="580" xml:space="preserve" y="879" clip-path="url(#clipPath24)" stroke="none">«ReferenceData»</text>
            <text x="603" xml:space="preserve" y="895" clip-path="url(#clipPath25)" stroke="none">Country</text>
            <text x="509" xml:space="preserve" y="914" clip-path="url(#clipPath26)" stroke="none">  isoCountry: Country [1]</text>
            <line y2="899" fill="none" x1="503" clip-path="url(#clipPath27)" x2="744" y1="899"/>
            <rect x="503" y="863" clip-path="url(#clipPath28)" fill="none" width="240" rx="0" ry="0" height="99"/>
            <rect x="503" y="1023" clip-path="url(#clipPath29)" fill="url(#linearGradient6)" width="241" height="100" stroke="none"/>
            <text x="580" xml:space="preserve" y="1039" clip-path="url(#clipPath30)" stroke="none">«ReferenceData»</text>
            <text x="572" xml:space="preserve" y="1055" clip-path="url(#clipPath31)" stroke="none">CountrySubdivision</text>
            <text x="509" xml:space="preserve" y="1074" clip-path="url(#clipPath32)" stroke="none">  isoCountrySubdivision: CountrySubdivisi...</text>
            <line y2="1059" fill="none" x1="503" clip-path="url(#clipPath33)" x2="744" y1="1059"/>
            <rect x="503" y="1023" clip-path="url(#clipPath34)" fill="none" width="240" rx="0" ry="0" height="99"/>
            <rect x="803" y="503" clip-path="url(#clipPath35)" fill="url(#linearGradient7)" width="241" height="100" stroke="none"/>
            <text x="882" xml:space="preserve" y="519" clip-path="url(#clipPath36)" stroke="none">RegionInRegion</text>
            <line y2="523" fill="none" x1="803" clip-path="url(#clipPath37)" x2="1044" y1="523"/>
            <rect x="803" y="503" clip-path="url(#clipPath38)" fill="none" width="240" rx="0" ry="0" height="99"/>
            <rect x="323" y="1183" clip-path="url(#clipPath39)" fill="url(#linearGradient8)" width="241" height="100" stroke="none"/>
            <text x="400" xml:space="preserve" y="1199" clip-path="url(#clipPath40)" stroke="none">«ReferenceData»</text>
            <text x="414" xml:space="preserve" y="1215" clip-path="url(#clipPath41)" stroke="none">Jurisdiction</text>
            <text x="329" xml:space="preserve" y="1234" clip-path="url(#clipPath42)" stroke="none">  region: Region [1]</text>
            <line y2="1219" fill="none" x1="323" clip-path="url(#clipPath43)" x2="564" y1="1219"/>
            <rect x="323" y="1183" clip-path="url(#clipPath44)" fill="none" width="240" rx="0" ry="0" height="99"/>
            <line clip-path="url(#clipPath45)" fill="none" text-rendering="optimizeLegibility" x1="503" x2="443" y1="743" y2="743"/>
            <line clip-path="url(#clipPath45)" fill="none" text-rendering="optimizeLegibility" x1="443" x2="443" y1="743" y2="643"/>
            <polygon fill="white" text-rendering="optimizeLegibility" clip-path="url(#clipPath46)" points=" 443 643 451 653 435 653" stroke="none"/>
            <polygon fill="none" text-rendering="optimizeLegibility" clip-path="url(#clipPath46)" points=" 443 643 451 653 435 653"/>
            <line clip-path="url(#clipPath45)" fill="none" text-rendering="optimizeLegibility" x1="503" x2="443" y1="903" y2="903"/>
            <line clip-path="url(#clipPath45)" fill="none" text-rendering="optimizeLegibility" x1="443" x2="443" y1="903" y2="643"/>
            <polygon fill="white" text-rendering="optimizeLegibility" clip-path="url(#clipPath46)" points=" 443 643 451 653 435 653" stroke="none"/>
            <polygon fill="none" text-rendering="optimizeLegibility" clip-path="url(#clipPath46)" points=" 443 643 451 653 435 653"/>
            <line clip-path="url(#clipPath45)" fill="none" text-rendering="optimizeLegibility" x1="503" x2="443" y1="1063" y2="1063"/>
            <line clip-path="url(#clipPath45)" fill="none" text-rendering="optimizeLegibility" x1="443" x2="443" y1="1063" y2="643"/>
            <polygon fill="white" text-rendering="optimizeLegibility" clip-path="url(#clipPath46)" points=" 443 643 451 653 435 653" stroke="none"/>
            <polygon fill="none" text-rendering="optimizeLegibility" clip-path="url(#clipPath46)" points=" 443 643 451 653 435 653"/>
            <line clip-path="url(#clipPath45)" fill="none" text-rendering="optimizeLegibility" x1="323" x2="263" y1="323" y2="323" stroke-dasharray="5,5,5,5,5,5,5,5,5,5"/>
            <line clip-path="url(#clipPath45)" fill="none" text-rendering="optimizeLegibility" x1="263" x2="263" y1="323" y2="222" stroke-dasharray="5,5,5,5,5,5,5,5,5,5"/>
        </g>
        <g stroke-linecap="butt" fill="white" text-rendering="optimizeLegibility" font-family="'Segoe UI'" stroke-dasharray="5,5,5,5,5,5,5,5,5,5" stroke="white" stroke-width="1.1">
            <polygon points=" 263 222 268 237 258 237" stroke="none" clip-path="url(#clipPath47)"/>
            <polygon fill="none" stroke-dasharray="none" clip-path="url(#clipPath47)" points=" 263 222 268 237 258 237" stroke="black"/>
            <line clip-path="url(#clipPath45)" fill="none" x1="323" x2="263" y1="583" y2="583" stroke="black"/>
            <line clip-path="url(#clipPath45)" fill="none" x1="263" x2="263" y1="583" y2="222" stroke="black"/>
            <polygon points=" 263 222 268 237 258 237" clip-path="url(#clipPath47)" stroke="none"/>
            <polygon fill="none" stroke-dasharray="none" clip-path="url(#clipPath47)" points=" 263 222 268 237 258 237" stroke="black"/>
            <line clip-path="url(#clipPath45)" fill="none" x1="564" x2="683" y1="483" y2="483" stroke-dasharray="none" stroke="black"/>
            <line clip-path="url(#clipPath45)" fill="none" x1="683" x2="683" y1="483" y2="603" stroke-dasharray="none" stroke="black"/>
            <line clip-path="url(#clipPath45)" fill="none" x1="683" x2="564" y1="603" y2="603" stroke-dasharray="none" stroke="black"/>
            <line clip-path="url(#clipPath45)" fill="none" x1="683" x2="803" y1="543" y2="543" stroke-dasharray="6.6,3.3" stroke="black"/>
            <line clip-path="url(#clipPath45)" fill="none" x1="323" x2="263" y1="1223" y2="1223" stroke="black"/>
            <line clip-path="url(#clipPath45)" fill="none" x1="263" x2="263" y1="1223" y2="222" stroke="black"/>
            <polygon points=" 263 222 268 237 258 237" clip-path="url(#clipPath47)" stroke="none"/>
            <polygon fill="none" stroke-dasharray="none" clip-path="url(#clipPath47)" points=" 263 222 268 237 258 237" stroke="black"/>
        </g>
    </g>
</svg>
