<?xml version="1.0" encoding="UTF-8"?><svg xmlns="http://www.w3.org/2000/svg" xmlns:xlink="http://www.w3.org/1999/xlink" stroke-dasharray="none" shape-rendering="auto" font-family="'Dialog'" width="621" text-rendering="auto" fill-opacity="1" contentScriptType="text/ecmascript" color-interpolation="auto" color-rendering="auto" preserveAspectRatio="xMidYMid meet" font-size="12px" viewBox="0 0 621 760" fill="black" stroke="black" image-rendering="auto" stroke-miterlimit="10" zoomAndPan="magnify" version="1.0" stroke-linecap="square" stroke-linejoin="miter" contentStyleType="text/css" font-style="normal" height="760" stroke-width="1" stroke-dashoffset="0" font-weight="normal" stroke-opacity="1">
    <!--Generated by the Batik Graphics2D SVG Generator-->
    <defs id="genericDefs"/>
    <g>
        <defs id="defs1">
            <linearGradient x1="190" x2="190" y1="170" gradientUnits="userSpaceOnUse" y2="270" xlink:type="simple" xlink:actuate="onLoad" id="linearGradient1" xlink:show="other" spreadMethod="pad">
                <stop stop-opacity="1" stop-color="white" offset="0%"/>
                <stop stop-opacity="1" stop-color="rgb(195,167,173)" offset="100%"/>
            </linearGradient>
            <linearGradient x1="10" x2="10" y1="10" gradientUnits="userSpaceOnUse" y2="110" xlink:type="simple" xlink:actuate="onLoad" id="linearGradient2" xlink:show="other" spreadMethod="pad">
                <stop stop-opacity="1" stop-color="white" offset="0%"/>
                <stop stop-opacity="1" stop-color="rgb(131,135,205)" offset="100%"/>
            </linearGradient>
            <linearGradient x1="370" x2="370" y1="330" gradientUnits="userSpaceOnUse" y2="430" xlink:type="simple" xlink:actuate="onLoad" id="linearGradient3" xlink:show="other" spreadMethod="pad">
                <stop stop-opacity="1" stop-color="white" offset="0%"/>
                <stop stop-opacity="1" stop-color="rgb(195,167,173)" offset="100%"/>
            </linearGradient>
            <linearGradient x1="370" x2="370" y1="490" gradientUnits="userSpaceOnUse" y2="603" xlink:type="simple" xlink:actuate="onLoad" id="linearGradient4" xlink:show="other" spreadMethod="pad">
                <stop stop-opacity="1" stop-color="white" offset="0%"/>
                <stop stop-opacity="1" stop-color="rgb(195,167,173)" offset="100%"/>
            </linearGradient>
            <linearGradient x1="370" x2="370" y1="650" gradientUnits="userSpaceOnUse" y2="750" xlink:type="simple" xlink:actuate="onLoad" id="linearGradient5" xlink:show="other" spreadMethod="pad">
                <stop stop-opacity="1" stop-color="white" offset="0%"/>
                <stop stop-opacity="1" stop-color="rgb(195,167,173)" offset="100%"/>
            </linearGradient>
            <clipPath clipPathUnits="userSpaceOnUse" id="clipPath1">
                <path d="M190 170 L190 269 L430 269 L430 170 Z"/>
            </clipPath>
            <clipPath clipPathUnits="userSpaceOnUse" id="clipPath2">
                <path d="M263 172 L359 172 L359 189 L263 189 L263 172 Z"/>
            </clipPath>
            <clipPath clipPathUnits="userSpaceOnUse" id="clipPath3">
                <path d="M265 188 L358 188 L358 205 L265 205 L265 188 Z"/>
            </clipPath>
            <clipPath clipPathUnits="userSpaceOnUse" id="clipPath4">
                <path d="M195 207 L345 207 L345 224 L195 224 L195 207 Z"/>
            </clipPath>
            <clipPath clipPathUnits="userSpaceOnUse" id="clipPath5">
                <path d="M190 205 L432 205 L432 271 L190 271 L190 205 Z"/>
            </clipPath>
            <clipPath clipPathUnits="userSpaceOnUse" id="clipPath6">
                <path d="M189 169 L432 169 L432 271 L189 271 L189 169 Z"/>
            </clipPath>
            <clipPath clipPathUnits="userSpaceOnUse" id="clipPath7">
                <path d="M10 10 L10 109 L250 109 L250 10 Z"/>
            </clipPath>
            <clipPath clipPathUnits="userSpaceOnUse" id="clipPath8">
                <path d="M101 12 L162 12 L162 29 L101 29 L101 12 Z"/>
            </clipPath>
            <clipPath clipPathUnits="userSpaceOnUse" id="clipPath9">
                <path d="M72 28 L191 28 L191 45 L72 45 L72 28 Z"/>
            </clipPath>
            <clipPath clipPathUnits="userSpaceOnUse" id="clipPath10">
                <path d="M15 47 L214 47 L214 64 L15 64 L15 47 Z"/>
            </clipPath>
            <clipPath clipPathUnits="userSpaceOnUse" id="clipPath11">
                <path d="M10 45 L252 45 L252 111 L10 111 L10 45 Z"/>
            </clipPath>
            <clipPath clipPathUnits="userSpaceOnUse" id="clipPath12">
                <path d="M9 9 L252 9 L252 111 L9 111 L9 9 Z"/>
            </clipPath>
            <clipPath clipPathUnits="userSpaceOnUse" id="clipPath13">
                <path d="M370 330 L370 429 L610 429 L610 330 Z"/>
            </clipPath>
            <clipPath clipPathUnits="userSpaceOnUse" id="clipPath14">
                <path d="M446 332 L537 332 L537 349 L446 349 L446 332 Z"/>
            </clipPath>
            <clipPath clipPathUnits="userSpaceOnUse" id="clipPath15">
                <path d="M452 348 L531 348 L531 365 L452 365 L452 348 Z"/>
            </clipPath>
            <clipPath clipPathUnits="userSpaceOnUse" id="clipPath16">
                <path d="M375 367 L517 367 L517 384 L375 384 L375 367 Z"/>
            </clipPath>
            <clipPath clipPathUnits="userSpaceOnUse" id="clipPath17">
                <path d="M370 365 L612 365 L612 431 L370 431 L370 365 Z"/>
            </clipPath>
            <clipPath clipPathUnits="userSpaceOnUse" id="clipPath18">
                <path d="M369 329 L612 329 L612 431 L369 431 L369 329 Z"/>
            </clipPath>
            <clipPath clipPathUnits="userSpaceOnUse" id="clipPath19">
                <path d="M370 490 L370 602 L610 602 L610 490 Z"/>
            </clipPath>
            <clipPath clipPathUnits="userSpaceOnUse" id="clipPath20">
                <path d="M446 492 L537 492 L537 509 L446 509 L446 492 Z"/>
            </clipPath>
            <clipPath clipPathUnits="userSpaceOnUse" id="clipPath21">
                <path d="M433 508 L550 508 L550 525 L433 525 L433 508 Z"/>
            </clipPath>
            <clipPath clipPathUnits="userSpaceOnUse" id="clipPath22">
                <path d="M375 527 L468 527 L468 544 L375 544 L375 527 Z"/>
            </clipPath>
            <clipPath clipPathUnits="userSpaceOnUse" id="clipPath23">
                <path d="M375 543 L478 543 L478 560 L375 560 L375 543 Z"/>
            </clipPath>
            <clipPath clipPathUnits="userSpaceOnUse" id="clipPath24">
                <path d="M370 525 L612 525 L612 604 L370 604 L370 525 Z"/>
            </clipPath>
            <clipPath clipPathUnits="userSpaceOnUse" id="clipPath25">
                <path d="M369 489 L612 489 L612 604 L369 604 L369 489 Z"/>
            </clipPath>
            <clipPath clipPathUnits="userSpaceOnUse" id="clipPath26">
                <path d="M370 650 L370 749 L610 749 L610 650 Z"/>
            </clipPath>
            <clipPath clipPathUnits="userSpaceOnUse" id="clipPath27">
                <path d="M446 652 L537 652 L537 669 L446 669 L446 652 Z"/>
            </clipPath>
            <clipPath clipPathUnits="userSpaceOnUse" id="clipPath28">
                <path d="M439 668 L543 668 L543 685 L439 685 L439 668 Z"/>
            </clipPath>
            <clipPath clipPathUnits="userSpaceOnUse" id="clipPath29">
                <path d="M375 687 L553 687 L553 704 L375 704 L375 687 Z"/>
            </clipPath>
            <clipPath clipPathUnits="userSpaceOnUse" id="clipPath30">
                <path d="M370 685 L612 685 L612 751 L370 751 L370 685 Z"/>
            </clipPath>
            <clipPath clipPathUnits="userSpaceOnUse" id="clipPath31">
                <path d="M369 649 L612 649 L612 751 L369 751 L369 649 Z"/>
            </clipPath>
            <clipPath clipPathUnits="userSpaceOnUse" id="clipPath32">
                <path d="M-1 -1 L622 -1 L622 761 L-1 761 L-1 -1 Z"/>
            </clipPath>
            <clipPath clipPathUnits="userSpaceOnUse" id="clipPath33">
                <path d="M124 109 L137 109 L137 127 L124 127 L124 109 Z"/>
            </clipPath>
            <clipPath clipPathUnits="userSpaceOnUse" id="clipPath34">
                <path d="M301 269 L320 269 L320 282 L301 282 L301 269 Z"/>
            </clipPath>
        </defs>
        <g fill="url(#linearGradient1)" stroke-miterlimit="0" stroke-width="0" font-family="'Segoe UI'" stroke="url(#linearGradient1)" stroke-linejoin="round">
            <rect x="190" width="241" height="100" y="170" clip-path="url(#clipPath1)" stroke="none"/>
            <text x="264" y="186" clip-path="url(#clipPath2)" fill="rgb(169,169,169)" font-style="italic" stroke="none" xml:space="preserve">«ReferenceData»</text>
            <text x="266" y="202" clip-path="url(#clipPath3)" fill="rgb(169,169,169)" font-style="italic" stroke="none" xml:space="preserve">SellingRestriction</text>
            <text fill="black" x="196" xml:space="preserve" y="221" clip-path="url(#clipPath4)" stroke="none">  jurisdiction: Jurisdiction [1]</text>
        </g>
        <g stroke-linecap="butt" font-family="'Segoe UI'" stroke-width="1.1">
            <line y2="206" fill="none" x1="190" clip-path="url(#clipPath5)" x2="431" y1="206"/>
            <rect x="190" y="170" clip-path="url(#clipPath6)" fill="none" width="240" rx="0" ry="0" height="99"/>
            <rect x="10" y="10" clip-path="url(#clipPath7)" fill="url(#linearGradient2)" width="241" height="100" stroke="none"/>
            <text x="102" xml:space="preserve" y="26" clip-path="url(#clipPath8)" stroke="none">«Interface»</text>
            <text x="73" xml:space="preserve" y="42" clip-path="url(#clipPath9)" stroke="none">IControlledVocabulary</text>
            <text x="16" xml:space="preserve" y="61" clip-path="url(#clipPath10)" stroke="none">«ReferenceCode»   code: Identifier [1]</text>
            <line y2="46" fill="none" x1="10" clip-path="url(#clipPath11)" x2="251" y1="46"/>
            <rect x="10" y="10" clip-path="url(#clipPath12)" fill="none" width="240" rx="0" ry="0" height="99"/>
            <rect x="370" y="330" clip-path="url(#clipPath13)" fill="url(#linearGradient3)" width="241" height="100" stroke="none"/>
            <text x="447" xml:space="preserve" y="346" clip-path="url(#clipPath14)" stroke="none">«ReferenceData»</text>
            <text x="453" xml:space="preserve" y="362" clip-path="url(#clipPath15)" stroke="none">AgeRestriction</text>
            <text x="376" xml:space="preserve" y="381" clip-path="url(#clipPath16)" stroke="none">  minimumAge: Integer [1]</text>
            <line y2="366" fill="none" x1="370" clip-path="url(#clipPath17)" x2="611" y1="366"/>
            <rect x="370" y="330" clip-path="url(#clipPath18)" fill="none" width="240" rx="0" ry="0" height="99"/>
            <rect x="370" y="490" clip-path="url(#clipPath19)" fill="url(#linearGradient4)" width="241" height="113" stroke="none"/>
            <text x="447" xml:space="preserve" y="506" clip-path="url(#clipPath20)" stroke="none">«ReferenceData»</text>
            <text x="434" xml:space="preserve" y="522" clip-path="url(#clipPath21)" stroke="none">TimeOfDayRestriction</text>
            <text x="376" xml:space="preserve" y="541" clip-path="url(#clipPath22)" stroke="none">  after: Time [0..1]</text>
            <text x="376" xml:space="preserve" y="557" clip-path="url(#clipPath23)" stroke="none">  before: Time [0..1]</text>
            <line y2="526" fill="none" x1="370" clip-path="url(#clipPath24)" x2="611" y1="526"/>
            <rect x="370" y="490" clip-path="url(#clipPath25)" fill="none" width="240" rx="0" ry="0" height="112"/>
            <rect x="370" y="650" clip-path="url(#clipPath26)" fill="url(#linearGradient5)" width="241" height="100" stroke="none"/>
            <text x="447" xml:space="preserve" y="666" clip-path="url(#clipPath27)" stroke="none">«ReferenceData»</text>
            <text x="440" xml:space="preserve" y="682" clip-path="url(#clipPath28)" stroke="none">QuantityRestriction</text>
            <text x="376" xml:space="preserve" y="701" clip-path="url(#clipPath29)" stroke="none">  maximumQuantity: Quantity [1]</text>
            <line y2="686" fill="none" x1="370" clip-path="url(#clipPath30)" x2="611" y1="686"/>
            <rect x="370" y="650" clip-path="url(#clipPath31)" fill="none" width="240" rx="0" ry="0" height="99"/>
            <line clip-path="url(#clipPath32)" fill="none" text-rendering="optimizeLegibility" x1="190" x2="130" y1="210" y2="210" stroke-dasharray="5,5,5,5,5,5,5,5,5,5"/>
            <line clip-path="url(#clipPath32)" fill="none" text-rendering="optimizeLegibility" x1="130" x2="130" y1="210" y2="110" stroke-dasharray="5,5,5,5,5,5,5,5,5,5"/>
        </g>
        <g stroke-linecap="butt" fill="white" text-rendering="optimizeLegibility" font-family="'Segoe UI'" stroke-dasharray="5,5,5,5,5,5,5,5,5,5" stroke="white" stroke-width="1.1">
            <polygon points=" 130 110 135 125 125 125" stroke="none" clip-path="url(#clipPath33)"/>
            <polygon fill="none" stroke-dasharray="none" clip-path="url(#clipPath33)" points=" 130 110 135 125 125 125" stroke="black"/>
            <line clip-path="url(#clipPath32)" fill="none" x1="370" x2="310" y1="690" y2="690" stroke-dasharray="none" stroke="black"/>
            <line clip-path="url(#clipPath32)" fill="none" x1="310" x2="310" y1="690" y2="270" stroke-dasharray="none" stroke="black"/>
            <polygon stroke-dasharray="none" clip-path="url(#clipPath34)" points=" 310 270 318 280 302 280" stroke="none"/>
            <polygon fill="none" stroke-dasharray="none" clip-path="url(#clipPath34)" points=" 310 270 318 280 302 280" stroke="black"/>
            <line clip-path="url(#clipPath32)" fill="none" x1="370" x2="310" y1="535" y2="535" stroke-dasharray="none" stroke="black"/>
            <line clip-path="url(#clipPath32)" fill="none" x1="310" x2="310" y1="535" y2="270" stroke-dasharray="none" stroke="black"/>
            <polygon stroke-dasharray="none" clip-path="url(#clipPath34)" points=" 310 270 318 280 302 280" stroke="none"/>
            <polygon fill="none" stroke-dasharray="none" clip-path="url(#clipPath34)" points=" 310 270 318 280 302 280" stroke="black"/>
            <line clip-path="url(#clipPath32)" fill="none" x1="370" x2="310" y1="370" y2="370" stroke-dasharray="none" stroke="black"/>
            <line clip-path="url(#clipPath32)" fill="none" x1="310" x2="310" y1="370" y2="270" stroke-dasharray="none" stroke="black"/>
            <polygon stroke-dasharray="none" clip-path="url(#clipPath34)" points=" 310 270 318 280 302 280" stroke="none"/>
            <polygon fill="none" stroke-dasharray="none" clip-path="url(#clipPath34)" points=" 310 270 318 280 302 280" stroke="black"/>
        </g>
    </g>
</svg>
