<?xml version="1.0" encoding="UTF-8"?><svg xmlns="http://www.w3.org/2000/svg" xmlns:xlink="http://www.w3.org/1999/xlink" stroke-dasharray="none" shape-rendering="auto" font-family="'Dialog'" width="898" text-rendering="auto" fill-opacity="1" contentScriptType="text/ecmascript" color-interpolation="auto" color-rendering="auto" preserveAspectRatio="xMidYMid meet" font-size="12px" viewBox="0 0 898 713" fill="black" stroke="black" image-rendering="auto" stroke-miterlimit="10" zoomAndPan="magnify" version="1.0" stroke-linecap="square" stroke-linejoin="miter" contentStyleType="text/css" font-style="normal" height="713" stroke-width="1" stroke-dashoffset="0" font-weight="normal" stroke-opacity="1">
    <!--Generated by the Batik Graphics2D SVG Generator-->
    <defs id="genericDefs"/>
    <g>
        <defs id="defs1">
            <linearGradient x1="383" x2="383" y1="283" gradientUnits="userSpaceOnUse" y2="383" xlink:type="simple" xlink:actuate="onLoad" id="linearGradient1" xlink:show="other" spreadMethod="pad">
                <stop stop-opacity="1" stop-color="white" offset="0%"/>
                <stop stop-opacity="1" stop-color="rgb(195,167,173)" offset="100%"/>
            </linearGradient>
            <linearGradient x1="563" x2="563" y1="443" gradientUnits="userSpaceOnUse" y2="543" xlink:type="simple" xlink:actuate="onLoad" id="linearGradient2" xlink:show="other" spreadMethod="pad">
                <stop stop-opacity="1" stop-color="white" offset="0%"/>
                <stop stop-opacity="1" stop-color="rgb(195,167,173)" offset="100%"/>
            </linearGradient>
            <linearGradient x1="203" x2="203" y1="123" gradientUnits="userSpaceOnUse" y2="223" xlink:type="simple" xlink:actuate="onLoad" id="linearGradient3" xlink:show="other" spreadMethod="pad">
                <stop stop-opacity="1" stop-color="white" offset="0%"/>
                <stop stop-opacity="1" stop-color="rgb(131,135,205)" offset="100%"/>
            </linearGradient>
            <linearGradient x1="563" x2="563" y1="603" gradientUnits="userSpaceOnUse" y2="703" xlink:type="simple" xlink:actuate="onLoad" id="linearGradient4" xlink:show="other" spreadMethod="pad">
                <stop stop-opacity="1" stop-color="white" offset="0%"/>
                <stop stop-opacity="1" stop-color="rgb(195,167,173)" offset="100%"/>
            </linearGradient>
            <clipPath clipPathUnits="userSpaceOnUse" id="clipPath1">
                <path d="M383 283 L383 382 L623 382 L623 283 Z"/>
            </clipPath>
            <clipPath clipPathUnits="userSpaceOnUse" id="clipPath2">
                <path d="M456 285 L552 285 L552 302 L456 302 L456 285 Z"/>
            </clipPath>
            <clipPath clipPathUnits="userSpaceOnUse" id="clipPath3">
                <path d="M446 301 L562 301 L562 318 L446 318 L446 301 Z"/>
            </clipPath>
            <clipPath clipPathUnits="userSpaceOnUse" id="clipPath4">
                <path d="M383 318 L625 318 L625 384 L383 384 L383 318 Z"/>
            </clipPath>
            <clipPath clipPathUnits="userSpaceOnUse" id="clipPath5">
                <path d="M382 282 L625 282 L625 384 L382 384 L382 282 Z"/>
            </clipPath>
            <clipPath clipPathUnits="userSpaceOnUse" id="clipPath6">
                <path d="M563 443 L563 542 L803 542 L803 443 Z"/>
            </clipPath>
            <clipPath clipPathUnits="userSpaceOnUse" id="clipPath7">
                <path d="M639 445 L730 445 L730 462 L639 462 L639 445 Z"/>
            </clipPath>
            <clipPath clipPathUnits="userSpaceOnUse" id="clipPath8">
                <path d="M649 461 L719 461 L719 478 L649 478 L649 461 Z"/>
            </clipPath>
            <clipPath clipPathUnits="userSpaceOnUse" id="clipPath9">
                <path d="M563 478 L805 478 L805 544 L563 544 L563 478 Z"/>
            </clipPath>
            <clipPath clipPathUnits="userSpaceOnUse" id="clipPath10">
                <path d="M562 442 L805 442 L805 544 L562 544 L562 442 Z"/>
            </clipPath>
            <clipPath clipPathUnits="userSpaceOnUse" id="clipPath11">
                <path d="M203 123 L203 222 L443 222 L443 123 Z"/>
            </clipPath>
            <clipPath clipPathUnits="userSpaceOnUse" id="clipPath12">
                <path d="M294 125 L355 125 L355 142 L294 142 L294 125 Z"/>
            </clipPath>
            <clipPath clipPathUnits="userSpaceOnUse" id="clipPath13">
                <path d="M265 141 L384 141 L384 158 L265 158 L265 141 Z"/>
            </clipPath>
            <clipPath clipPathUnits="userSpaceOnUse" id="clipPath14">
                <path d="M208 160 L407 160 L407 177 L208 177 L208 160 Z"/>
            </clipPath>
            <clipPath clipPathUnits="userSpaceOnUse" id="clipPath15">
                <path d="M203 158 L445 158 L445 224 L203 224 L203 158 Z"/>
            </clipPath>
            <clipPath clipPathUnits="userSpaceOnUse" id="clipPath16">
                <path d="M202 122 L445 122 L445 224 L202 224 L202 122 Z"/>
            </clipPath>
            <clipPath clipPathUnits="userSpaceOnUse" id="clipPath17">
                <path d="M563 603 L563 702 L803 702 L803 603 Z"/>
            </clipPath>
            <clipPath clipPathUnits="userSpaceOnUse" id="clipPath18">
                <path d="M639 605 L730 605 L730 622 L639 622 L639 605 Z"/>
            </clipPath>
            <clipPath clipPathUnits="userSpaceOnUse" id="clipPath19">
                <path d="M667 621 L701 621 L701 638 L667 638 L667 621 Z"/>
            </clipPath>
            <clipPath clipPathUnits="userSpaceOnUse" id="clipPath20">
                <path d="M568 640 L775 640 L775 657 L568 657 L568 640 Z"/>
            </clipPath>
            <clipPath clipPathUnits="userSpaceOnUse" id="clipPath21">
                <path d="M563 638 L805 638 L805 704 L563 704 L563 638 Z"/>
            </clipPath>
            <clipPath clipPathUnits="userSpaceOnUse" id="clipPath22">
                <path d="M562 602 L805 602 L805 704 L562 704 L562 602 Z"/>
            </clipPath>
            <clipPath clipPathUnits="userSpaceOnUse" id="clipPath23">
                <path d="M-1 -1 L899 -1 L899 714 L-1 714 L-1 -1 Z"/>
            </clipPath>
            <clipPath clipPathUnits="userSpaceOnUse" id="clipPath24">
                <path d="M494 382 L513 382 L513 395 L494 395 L494 382 Z"/>
            </clipPath>
            <clipPath clipPathUnits="userSpaceOnUse" id="clipPath25">
                <path d="M317 222 L330 222 L330 240 L317 240 L317 222 Z"/>
            </clipPath>
            <clipPath clipPathUnits="userSpaceOnUse" id="clipPath26">
                <path d="M800 453 L876 453 L876 470 L800 470 L800 453 Z"/>
            </clipPath>
            <clipPath clipPathUnits="userSpaceOnUse" id="clipPath27">
                <path d="M603 342 L615 342 L615 359 L603 359 L603 342 Z"/>
            </clipPath>
            <clipPath clipPathUnits="userSpaceOnUse" id="clipPath28">
                <path d="M700 562 L711 562 L711 579 L700 579 L700 562 Z"/>
            </clipPath>
        </defs>
        <g fill="url(#linearGradient1)" stroke-miterlimit="0" stroke-width="0" font-family="'Segoe UI'" stroke="url(#linearGradient1)" stroke-linejoin="round">
            <rect x="383" width="241" height="100" y="283" clip-path="url(#clipPath1)" stroke="none"/>
            <text x="457" y="299" clip-path="url(#clipPath2)" fill="rgb(169,169,169)" font-style="italic" stroke="none" xml:space="preserve">«ReferenceData»</text>
            <text x="447" y="315" clip-path="url(#clipPath3)" fill="rgb(169,169,169)" font-style="italic" stroke="none" xml:space="preserve">BrandHierarchyNode</text>
        </g>
        <g stroke-linecap="butt" font-family="'Segoe UI'" stroke-width="1.1">
            <line y2="319" fill="none" x1="383" clip-path="url(#clipPath4)" x2="624" y1="319"/>
            <rect x="383" y="283" clip-path="url(#clipPath5)" fill="none" width="240" rx="0" ry="0" height="99"/>
            <rect x="563" y="443" clip-path="url(#clipPath6)" fill="url(#linearGradient2)" width="241" height="100" stroke="none"/>
            <text x="640" xml:space="preserve" y="459" clip-path="url(#clipPath7)" stroke="none">«ReferenceData»</text>
            <text x="650" xml:space="preserve" y="475" clip-path="url(#clipPath8)" stroke="none">MasterBrand</text>
            <line y2="479" fill="none" x1="563" clip-path="url(#clipPath9)" x2="804" y1="479"/>
            <rect x="563" y="443" clip-path="url(#clipPath10)" fill="none" width="240" rx="0" ry="0" height="99"/>
            <rect x="203" y="123" clip-path="url(#clipPath11)" fill="url(#linearGradient3)" width="241" height="100" stroke="none"/>
            <text x="295" xml:space="preserve" y="139" clip-path="url(#clipPath12)" stroke="none">«Interface»</text>
            <text x="266" xml:space="preserve" y="155" clip-path="url(#clipPath13)" stroke="none">IControlledVocabulary</text>
            <text x="209" xml:space="preserve" y="174" clip-path="url(#clipPath14)" stroke="none">«ReferenceCode»   code: Identifier [1]</text>
            <line y2="159" fill="none" x1="203" clip-path="url(#clipPath15)" x2="444" y1="159"/>
            <rect x="203" y="123" clip-path="url(#clipPath16)" fill="none" width="240" rx="0" ry="0" height="99"/>
            <rect x="563" y="603" clip-path="url(#clipPath17)" fill="url(#linearGradient4)" width="241" height="100" stroke="none"/>
            <text x="640" xml:space="preserve" y="619" clip-path="url(#clipPath18)" stroke="none">«ReferenceData»</text>
            <text x="668" xml:space="preserve" y="635" clip-path="url(#clipPath19)" stroke="none">Brand</text>
            <text x="569" xml:space="preserve" y="654" clip-path="url(#clipPath20)" stroke="none">  parentBrand: BrandHierarchyNode [1]</text>
            <line y2="639" fill="none" x1="563" clip-path="url(#clipPath21)" x2="804" y1="639"/>
            <rect x="563" y="603" clip-path="url(#clipPath22)" fill="none" width="240" rx="0" ry="0" height="99"/>
            <line clip-path="url(#clipPath23)" fill="none" text-rendering="optimizeLegibility" x1="563" x2="503" y1="483" y2="483"/>
            <line clip-path="url(#clipPath23)" fill="none" text-rendering="optimizeLegibility" x1="503" x2="503" y1="483" y2="383"/>
            <polygon fill="white" text-rendering="optimizeLegibility" clip-path="url(#clipPath24)" points=" 503 383 511 393 495 393" stroke="none"/>
            <polygon fill="none" text-rendering="optimizeLegibility" clip-path="url(#clipPath24)" points=" 503 383 511 393 495 393"/>
            <line clip-path="url(#clipPath23)" fill="none" text-rendering="optimizeLegibility" x1="383" x2="323" y1="323" y2="323" stroke-dasharray="5,5,5,5,5,5,5,5,5,5"/>
            <line clip-path="url(#clipPath23)" fill="none" text-rendering="optimizeLegibility" x1="323" x2="323" y1="323" y2="223" stroke-dasharray="5,5,5,5,5,5,5,5,5,5"/>
        </g>
        <g stroke-linecap="butt" fill="white" text-rendering="optimizeLegibility" font-family="'Segoe UI'" stroke-dasharray="5,5,5,5,5,5,5,5,5,5" stroke="white" stroke-width="1.1">
            <polygon points=" 323 223 328 238 318 238" stroke="none" clip-path="url(#clipPath25)"/>
            <polygon fill="none" stroke-dasharray="none" clip-path="url(#clipPath25)" points=" 323 223 328 238 318 238" stroke="black"/>
            <line clip-path="url(#clipPath23)" fill="none" x1="563" x2="503" y1="643" y2="643" stroke-dasharray="none" stroke="black"/>
            <line clip-path="url(#clipPath23)" fill="none" x1="503" x2="503" y1="643" y2="383" stroke-dasharray="none" stroke="black"/>
            <polygon stroke-dasharray="none" clip-path="url(#clipPath24)" points=" 503 383 511 393 495 393" stroke="none"/>
            <polygon fill="none" stroke-dasharray="none" clip-path="url(#clipPath24)" points=" 503 383 511 393 495 393" stroke="black"/>
            <line clip-path="url(#clipPath23)" fill="none" x1="624" x2="781" y1="323" y2="323" stroke-dasharray="none" stroke="black"/>
            <line clip-path="url(#clipPath23)" fill="none" x1="781" x2="781" y1="323" y2="603" stroke-dasharray="none" stroke="black"/>
            <text x="801" y="467" clip-path="url(#clipPath26)" fill="black" stroke-dasharray="none" stroke="none" xml:space="preserve">«Conceptual»</text>
            <text x="604" y="356" clip-path="url(#clipPath27)" fill="black" stroke-dasharray="none" stroke="none" xml:space="preserve"> 1</text>
            <text x="701" y="576" clip-path="url(#clipPath28)" fill="black" stroke-dasharray="none" stroke="none" xml:space="preserve"> *</text>
        </g>
    </g>
</svg>
