<?xml version="1.0" encoding="UTF-8"?><svg xmlns="http://www.w3.org/2000/svg" xmlns:xlink="http://www.w3.org/1999/xlink" stroke-dasharray="none" shape-rendering="auto" font-family="'Dialog'" width="1414" text-rendering="auto" fill-opacity="1" contentScriptType="text/ecmascript" color-interpolation="auto" color-rendering="auto" preserveAspectRatio="xMidYMid meet" font-size="12px" viewBox="0 0 1414 1013" fill="black" stroke="black" image-rendering="auto" stroke-miterlimit="10" zoomAndPan="magnify" version="1.0" stroke-linecap="square" stroke-linejoin="miter" contentStyleType="text/css" font-style="normal" height="1013" stroke-width="1" stroke-dashoffset="0" font-weight="normal" stroke-opacity="1">
    <!--Generated by the Batik Graphics2D SVG Generator-->
    <defs id="genericDefs"/>
    <g>
        <defs id="defs1">
            <linearGradient x1="183" x2="183" y1="103" gradientUnits="userSpaceOnUse" y2="203" xlink:type="simple" xlink:actuate="onLoad" id="linearGradient1" xlink:show="other" spreadMethod="pad">
                <stop stop-opacity="1" stop-color="white" offset="0%"/>
                <stop stop-opacity="1" stop-color="rgb(131,135,205)" offset="100%"/>
            </linearGradient>
            <linearGradient x1="363" x2="363" y1="263" gradientUnits="userSpaceOnUse" y2="363" xlink:type="simple" xlink:actuate="onLoad" id="linearGradient2" xlink:show="other" spreadMethod="pad">
                <stop stop-opacity="1" stop-color="white" offset="0%"/>
                <stop stop-opacity="1" stop-color="rgb(195,167,173)" offset="100%"/>
            </linearGradient>
            <linearGradient x1="543" x2="543" y1="423" gradientUnits="userSpaceOnUse" y2="523" xlink:type="simple" xlink:actuate="onLoad" id="linearGradient3" xlink:show="other" spreadMethod="pad">
                <stop stop-opacity="1" stop-color="white" offset="0%"/>
                <stop stop-opacity="1" stop-color="rgb(195,167,173)" offset="100%"/>
            </linearGradient>
            <linearGradient x1="723" x2="723" y1="583" gradientUnits="userSpaceOnUse" y2="683" xlink:type="simple" xlink:actuate="onLoad" id="linearGradient4" xlink:show="other" spreadMethod="pad">
                <stop stop-opacity="1" stop-color="white" offset="0%"/>
                <stop stop-opacity="1" stop-color="rgb(195,167,173)" offset="100%"/>
            </linearGradient>
            <linearGradient x1="723" x2="723" y1="743" gradientUnits="userSpaceOnUse" y2="843" xlink:type="simple" xlink:actuate="onLoad" id="linearGradient5" xlink:show="other" spreadMethod="pad">
                <stop stop-opacity="1" stop-color="white" offset="0%"/>
                <stop stop-opacity="1" stop-color="rgb(195,167,173)" offset="100%"/>
            </linearGradient>
            <linearGradient x1="543" x2="543" y1="903" gradientUnits="userSpaceOnUse" y2="1003" xlink:type="simple" xlink:actuate="onLoad" id="linearGradient6" xlink:show="other" spreadMethod="pad">
                <stop stop-opacity="1" stop-color="white" offset="0%"/>
                <stop stop-opacity="1" stop-color="rgb(195,167,173)" offset="100%"/>
            </linearGradient>
            <linearGradient x1="1163" x2="1163" y1="423" gradientUnits="userSpaceOnUse" y2="523" xlink:type="simple" xlink:actuate="onLoad" id="linearGradient7" xlink:show="other" spreadMethod="pad">
                <stop stop-opacity="1" stop-color="white" offset="0%"/>
                <stop stop-opacity="1" stop-color="rgb(131,135,205)" offset="100%"/>
            </linearGradient>
            <clipPath clipPathUnits="userSpaceOnUse" id="clipPath1">
                <path d="M183 103 L183 202 L423 202 L423 103 Z"/>
            </clipPath>
            <clipPath clipPathUnits="userSpaceOnUse" id="clipPath2">
                <path d="M274 105 L335 105 L335 122 L274 122 L274 105 Z"/>
            </clipPath>
            <clipPath clipPathUnits="userSpaceOnUse" id="clipPath3">
                <path d="M245 121 L364 121 L364 138 L245 138 L245 121 Z"/>
            </clipPath>
            <clipPath clipPathUnits="userSpaceOnUse" id="clipPath4">
                <path d="M188 140 L387 140 L387 157 L188 157 L188 140 Z"/>
            </clipPath>
            <clipPath clipPathUnits="userSpaceOnUse" id="clipPath5">
                <path d="M183 138 L425 138 L425 204 L183 204 L183 138 Z"/>
            </clipPath>
            <clipPath clipPathUnits="userSpaceOnUse" id="clipPath6">
                <path d="M182 102 L425 102 L425 204 L182 204 L182 102 Z"/>
            </clipPath>
            <clipPath clipPathUnits="userSpaceOnUse" id="clipPath7">
                <path d="M363 263 L363 362 L603 362 L603 263 Z"/>
            </clipPath>
            <clipPath clipPathUnits="userSpaceOnUse" id="clipPath8">
                <path d="M436 265 L532 265 L532 282 L436 282 L436 265 Z"/>
            </clipPath>
            <clipPath clipPathUnits="userSpaceOnUse" id="clipPath9">
                <path d="M403 281 L565 281 L565 298 L403 298 L403 281 Z"/>
            </clipPath>
            <clipPath clipPathUnits="userSpaceOnUse" id="clipPath10">
                <path d="M363 298 L605 298 L605 364 L363 364 L363 298 Z"/>
            </clipPath>
            <clipPath clipPathUnits="userSpaceOnUse" id="clipPath11">
                <path d="M362 262 L605 262 L605 364 L362 364 L362 262 Z"/>
            </clipPath>
            <clipPath clipPathUnits="userSpaceOnUse" id="clipPath12">
                <path d="M543 423 L543 522 L783 522 L783 423 Z"/>
            </clipPath>
            <clipPath clipPathUnits="userSpaceOnUse" id="clipPath13">
                <path d="M616 425 L712 425 L712 442 L616 442 L616 425 Z"/>
            </clipPath>
            <clipPath clipPathUnits="userSpaceOnUse" id="clipPath14">
                <path d="M591 441 L737 441 L737 458 L591 458 L591 441 Z"/>
            </clipPath>
            <clipPath clipPathUnits="userSpaceOnUse" id="clipPath15">
                <path d="M543 458 L785 458 L785 524 L543 524 L543 458 Z"/>
            </clipPath>
            <clipPath clipPathUnits="userSpaceOnUse" id="clipPath16">
                <path d="M542 422 L785 422 L785 524 L542 524 L542 422 Z"/>
            </clipPath>
            <clipPath clipPathUnits="userSpaceOnUse" id="clipPath17">
                <path d="M723 583 L723 682 L963 682 L963 583 Z"/>
            </clipPath>
            <clipPath clipPathUnits="userSpaceOnUse" id="clipPath18">
                <path d="M799 585 L890 585 L890 602 L799 602 L799 585 Z"/>
            </clipPath>
            <clipPath clipPathUnits="userSpaceOnUse" id="clipPath19">
                <path d="M776 601 L912 601 L912 618 L776 618 L776 601 Z"/>
            </clipPath>
            <clipPath clipPathUnits="userSpaceOnUse" id="clipPath20">
                <path d="M723 618 L965 618 L965 684 L723 684 L723 618 Z"/>
            </clipPath>
            <clipPath clipPathUnits="userSpaceOnUse" id="clipPath21">
                <path d="M722 582 L965 582 L965 684 L722 684 L722 582 Z"/>
            </clipPath>
            <clipPath clipPathUnits="userSpaceOnUse" id="clipPath22">
                <path d="M723 743 L723 842 L963 842 L963 743 Z"/>
            </clipPath>
            <clipPath clipPathUnits="userSpaceOnUse" id="clipPath23">
                <path d="M799 745 L890 745 L890 762 L799 762 L799 745 Z"/>
            </clipPath>
            <clipPath clipPathUnits="userSpaceOnUse" id="clipPath24">
                <path d="M755 761 L933 761 L933 778 L755 778 L755 761 Z"/>
            </clipPath>
            <clipPath clipPathUnits="userSpaceOnUse" id="clipPath25">
                <path d="M723 778 L965 778 L965 844 L723 844 L723 778 Z"/>
            </clipPath>
            <clipPath clipPathUnits="userSpaceOnUse" id="clipPath26">
                <path d="M722 742 L965 742 L965 844 L722 844 L722 742 Z"/>
            </clipPath>
            <clipPath clipPathUnits="userSpaceOnUse" id="clipPath27">
                <path d="M543 903 L543 1002 L783 1002 L783 903 Z"/>
            </clipPath>
            <clipPath clipPathUnits="userSpaceOnUse" id="clipPath28">
                <path d="M619 905 L710 905 L710 922 L619 922 L619 905 Z"/>
            </clipPath>
            <clipPath clipPathUnits="userSpaceOnUse" id="clipPath29">
                <path d="M598 921 L731 921 L731 938 L598 938 L598 921 Z"/>
            </clipPath>
            <clipPath clipPathUnits="userSpaceOnUse" id="clipPath30">
                <path d="M543 938 L785 938 L785 1004 L543 1004 L543 938 Z"/>
            </clipPath>
            <clipPath clipPathUnits="userSpaceOnUse" id="clipPath31">
                <path d="M542 902 L785 902 L785 1004 L542 1004 L542 902 Z"/>
            </clipPath>
            <clipPath clipPathUnits="userSpaceOnUse" id="clipPath32">
                <path d="M1163 423 L1163 522 L1403 522 L1403 423 Z"/>
            </clipPath>
            <clipPath clipPathUnits="userSpaceOnUse" id="clipPath33">
                <path d="M1254 425 L1315 425 L1315 442 L1254 442 L1254 425 Z"/>
            </clipPath>
            <clipPath clipPathUnits="userSpaceOnUse" id="clipPath34">
                <path d="M1253 441 L1316 441 L1316 458 L1253 458 L1253 441 Z"/>
            </clipPath>
            <clipPath clipPathUnits="userSpaceOnUse" id="clipPath35">
                <path d="M1168 460 L1400 460 L1400 477 L1168 477 L1168 460 Z"/>
            </clipPath>
            <clipPath clipPathUnits="userSpaceOnUse" id="clipPath36">
                <path d="M1163 458 L1405 458 L1405 524 L1163 524 L1163 458 Z"/>
            </clipPath>
            <clipPath clipPathUnits="userSpaceOnUse" id="clipPath37">
                <path d="M1162 422 L1405 422 L1405 524 L1162 524 L1162 422 Z"/>
            </clipPath>
            <clipPath clipPathUnits="userSpaceOnUse" id="clipPath38">
                <path d="M-1 -1 L1415 -1 L1415 1014 L-1 1014 L-1 -1 Z"/>
            </clipPath>
            <clipPath clipPathUnits="userSpaceOnUse" id="clipPath39">
                <path d="M297 202 L310 202 L310 220 L297 220 L297 202 Z"/>
            </clipPath>
            <clipPath clipPathUnits="userSpaceOnUse" id="clipPath40">
                <path d="M654 522 L673 522 L673 535 L654 535 L654 522 Z"/>
            </clipPath>
            <clipPath clipPathUnits="userSpaceOnUse" id="clipPath41">
                <path d="M474 362 L493 362 L493 375 L474 375 L474 362 Z"/>
            </clipPath>
            <clipPath clipPathUnits="userSpaceOnUse" id="clipPath42">
                <path d="M1277 522 L1290 522 L1290 540 L1277 540 L1277 522 Z"/>
            </clipPath>
            <clipPath clipPathUnits="userSpaceOnUse" id="clipPath43">
                <path d="M935 435 L1011 435 L1011 452 L935 452 L935 435 Z"/>
            </clipPath>
            <clipPath clipPathUnits="userSpaceOnUse" id="clipPath44">
                <path d="M822 482 L834 482 L834 499 L822 499 L822 482 Z"/>
            </clipPath>
            <clipPath clipPathUnits="userSpaceOnUse" id="clipPath45">
                <path d="M1122 442 L1133 442 L1133 459 L1122 459 L1122 442 Z"/>
            </clipPath>
        </defs>
        <g fill="url(#linearGradient1)" stroke-miterlimit="0" stroke-width="0" font-family="'Segoe UI'" stroke="url(#linearGradient1)" stroke-linejoin="round">
            <rect x="183" width="241" height="100" y="103" clip-path="url(#clipPath1)" stroke="none"/>
            <text fill="black" x="275" xml:space="preserve" y="119" clip-path="url(#clipPath2)" stroke="none">«Interface»</text>
            <text fill="black" x="246" xml:space="preserve" y="135" clip-path="url(#clipPath3)" stroke="none">IControlledVocabulary</text>
            <text fill="black" x="189" xml:space="preserve" y="154" clip-path="url(#clipPath4)" stroke="none">«ReferenceCode»   code: Identifier [1]</text>
        </g>
        <g stroke-linecap="butt" font-family="'Segoe UI'" stroke-width="1.1">
            <line y2="139" fill="none" x1="183" clip-path="url(#clipPath5)" x2="424" y1="139"/>
            <rect x="183" y="103" clip-path="url(#clipPath6)" fill="none" width="240" rx="0" ry="0" height="99"/>
            <rect x="363" y="263" clip-path="url(#clipPath7)" fill="url(#linearGradient2)" width="241" height="100" stroke="none"/>
            <text x="437" y="279" clip-path="url(#clipPath8)" fill="rgb(169,169,169)" font-style="italic" stroke="none" xml:space="preserve">«ReferenceData»</text>
            <text x="404" y="295" clip-path="url(#clipPath9)" fill="rgb(169,169,169)" font-style="italic" stroke="none" xml:space="preserve">MerchandisingHierarchyNode</text>
            <line y2="299" fill="none" x1="363" clip-path="url(#clipPath10)" x2="604" y1="299"/>
            <rect x="363" y="263" clip-path="url(#clipPath11)" fill="none" width="240" rx="0" ry="0" height="99"/>
            <rect x="543" y="423" clip-path="url(#clipPath12)" fill="url(#linearGradient3)" width="241" height="100" stroke="none"/>
            <text x="617" y="439" clip-path="url(#clipPath13)" fill="rgb(169,169,169)" font-style="italic" stroke="none" xml:space="preserve">«ReferenceData»</text>
            <text x="592" y="455" clip-path="url(#clipPath14)" fill="rgb(169,169,169)" font-style="italic" stroke="none" xml:space="preserve">MerchandisingParentNode</text>
            <line y2="459" fill="none" x1="543" clip-path="url(#clipPath15)" x2="784" y1="459"/>
            <rect x="543" y="423" clip-path="url(#clipPath16)" fill="none" width="240" rx="0" ry="0" height="99"/>
            <rect x="723" y="583" clip-path="url(#clipPath17)" fill="url(#linearGradient4)" width="241" height="100" stroke="none"/>
            <text x="800" xml:space="preserve" y="599" clip-path="url(#clipPath18)" stroke="none">«ReferenceData»</text>
            <text x="777" xml:space="preserve" y="615" clip-path="url(#clipPath19)" stroke="none">MerchandisingRootNode</text>
            <line y2="619" fill="none" x1="723" clip-path="url(#clipPath20)" x2="964" y1="619"/>
            <rect x="723" y="583" clip-path="url(#clipPath21)" fill="none" width="240" rx="0" ry="0" height="99"/>
            <rect x="723" y="743" clip-path="url(#clipPath22)" fill="url(#linearGradient5)" width="241" height="100" stroke="none"/>
            <text x="800" xml:space="preserve" y="759" clip-path="url(#clipPath23)" stroke="none">«ReferenceData»</text>
            <text x="756" xml:space="preserve" y="775" clip-path="url(#clipPath24)" stroke="none">MerchandisingIntermediateNode</text>
            <line y2="779" fill="none" x1="723" clip-path="url(#clipPath25)" x2="964" y1="779"/>
            <rect x="723" y="743" clip-path="url(#clipPath26)" fill="none" width="240" rx="0" ry="0" height="99"/>
            <rect x="543" y="903" clip-path="url(#clipPath27)" fill="url(#linearGradient6)" width="241" height="100" stroke="none"/>
            <text x="620" xml:space="preserve" y="919" clip-path="url(#clipPath28)" stroke="none">«ReferenceData»</text>
            <text x="599" xml:space="preserve" y="935" clip-path="url(#clipPath29)" stroke="none">MerchandisingLeafNode</text>
            <line y2="939" fill="none" x1="543" clip-path="url(#clipPath30)" x2="784" y1="939"/>
            <rect x="543" y="903" clip-path="url(#clipPath31)" fill="none" width="240" rx="0" ry="0" height="99"/>
            <rect x="1163" y="423" clip-path="url(#clipPath32)" fill="url(#linearGradient7)" width="241" height="100" stroke="none"/>
            <text x="1255" xml:space="preserve" y="439" clip-path="url(#clipPath33)" stroke="none">«Interface»</text>
            <text x="1254" xml:space="preserve" y="455" clip-path="url(#clipPath34)" stroke="none">IChildNode</text>
            <text x="1169" xml:space="preserve" y="474" clip-path="url(#clipPath35)" stroke="none">  parentNode: MerchandisingParentNode ...</text>
            <line y2="459" fill="none" x1="1163" clip-path="url(#clipPath36)" x2="1404" y1="459"/>
            <rect x="1163" y="423" clip-path="url(#clipPath37)" fill="none" width="240" rx="0" ry="0" height="99"/>
            <line clip-path="url(#clipPath38)" fill="none" text-rendering="optimizeLegibility" x1="363" x2="303" y1="303" y2="303" stroke-dasharray="5,5,5,5,5,5,5,5,5,5"/>
            <line clip-path="url(#clipPath38)" fill="none" text-rendering="optimizeLegibility" x1="303" x2="303" y1="303" y2="203" stroke-dasharray="5,5,5,5,5,5,5,5,5,5"/>
        </g>
        <g stroke-linecap="butt" fill="white" text-rendering="optimizeLegibility" font-family="'Segoe UI'" stroke-dasharray="5,5,5,5,5,5,5,5,5,5" stroke="white" stroke-width="1.1">
            <polygon points=" 303 203 308 218 298 218" stroke="none" clip-path="url(#clipPath39)"/>
            <polygon fill="none" stroke-dasharray="none" clip-path="url(#clipPath39)" points=" 303 203 308 218 298 218" stroke="black"/>
            <line clip-path="url(#clipPath38)" fill="none" x1="723" x2="663" y1="623" y2="623" stroke-dasharray="none" stroke="black"/>
            <line clip-path="url(#clipPath38)" fill="none" x1="663" x2="663" y1="623" y2="523" stroke-dasharray="none" stroke="black"/>
            <polygon stroke-dasharray="none" clip-path="url(#clipPath40)" points=" 663 523 671 533 655 533" stroke="none"/>
            <polygon fill="none" stroke-dasharray="none" clip-path="url(#clipPath40)" points=" 663 523 671 533 655 533" stroke="black"/>
            <line clip-path="url(#clipPath38)" fill="none" x1="723" x2="663" y1="783" y2="783" stroke-dasharray="none" stroke="black"/>
            <line clip-path="url(#clipPath38)" fill="none" x1="663" x2="663" y1="783" y2="523" stroke-dasharray="none" stroke="black"/>
            <polygon stroke-dasharray="none" clip-path="url(#clipPath40)" points=" 663 523 671 533 655 533" stroke="none"/>
            <polygon fill="none" stroke-dasharray="none" clip-path="url(#clipPath40)" points=" 663 523 671 533 655 533" stroke="black"/>
            <line clip-path="url(#clipPath38)" fill="none" x1="543" x2="483" y1="463" y2="463" stroke-dasharray="none" stroke="black"/>
            <line clip-path="url(#clipPath38)" fill="none" x1="483" x2="483" y1="463" y2="363" stroke-dasharray="none" stroke="black"/>
            <polygon stroke-dasharray="none" clip-path="url(#clipPath41)" points=" 483 363 491 373 475 373" stroke="none"/>
            <polygon fill="none" stroke-dasharray="none" clip-path="url(#clipPath41)" points=" 483 363 491 373 475 373" stroke="black"/>
            <line clip-path="url(#clipPath38)" fill="none" x1="543" x2="483" y1="943" y2="943" stroke-dasharray="none" stroke="black"/>
            <line clip-path="url(#clipPath38)" fill="none" x1="483" x2="483" y1="943" y2="363" stroke-dasharray="none" stroke="black"/>
            <polygon stroke-dasharray="none" clip-path="url(#clipPath41)" points=" 483 363 491 373 475 373" stroke="none"/>
            <polygon fill="none" stroke-dasharray="none" clip-path="url(#clipPath41)" points=" 483 363 491 373 475 373" stroke="black"/>
            <line clip-path="url(#clipPath38)" fill="none" x1="784" x2="1283" y1="943" y2="943" stroke="black"/>
            <line clip-path="url(#clipPath38)" fill="none" x1="1283" x2="1283" y1="943" y2="523" stroke="black"/>
            <polygon points=" 1283 523 1288 538 1278 538" clip-path="url(#clipPath42)" stroke="none"/>
            <polygon fill="none" stroke-dasharray="none" clip-path="url(#clipPath42)" points=" 1283 523 1288 538 1278 538" stroke="black"/>
            <line clip-path="url(#clipPath38)" fill="none" x1="784" x2="1163" y1="463" y2="463" stroke-dasharray="none" stroke="black"/>
            <text x="936" y="449" clip-path="url(#clipPath43)" fill="black" stroke-dasharray="none" stroke="none" xml:space="preserve">«Conceptual»</text>
            <text x="823" y="496" clip-path="url(#clipPath44)" fill="black" stroke-dasharray="none" stroke="none" xml:space="preserve"> 1</text>
            <text x="1123" y="456" clip-path="url(#clipPath45)" fill="black" stroke-dasharray="none" stroke="none" xml:space="preserve"> *</text>
        </g>
    </g>
</svg>
