<?xml version="1.0" encoding="UTF-8"?><svg xmlns="http://www.w3.org/2000/svg" xmlns:xlink="http://www.w3.org/1999/xlink" stroke-dasharray="none" shape-rendering="auto" font-family="'Dialog'" width="943" text-rendering="auto" fill-opacity="1" contentScriptType="text/ecmascript" color-interpolation="auto" color-rendering="auto" preserveAspectRatio="xMidYMid meet" font-size="12px" viewBox="0 0 943 960" fill="black" stroke="black" image-rendering="auto" stroke-miterlimit="10" zoomAndPan="magnify" version="1.0" stroke-linecap="square" stroke-linejoin="miter" contentStyleType="text/css" font-style="normal" height="960" stroke-width="1" stroke-dashoffset="0" font-weight="normal" stroke-opacity="1">
    <!--Generated by the Batik Graphics2D SVG Generator-->
    <defs id="genericDefs"/>
    <g>
        <defs id="defs1">
            <linearGradient x1="10" x2="10" y1="10" gradientUnits="userSpaceOnUse" y2="110" xlink:type="simple" xlink:actuate="onLoad" id="linearGradient1" xlink:show="other" spreadMethod="pad">
                <stop stop-opacity="1" stop-color="white" offset="0%"/>
                <stop stop-opacity="1" stop-color="rgb(131,135,205)" offset="100%"/>
            </linearGradient>
            <linearGradient x1="192" x2="192" y1="490" gradientUnits="userSpaceOnUse" y2="603" xlink:type="simple" xlink:actuate="onLoad" id="linearGradient2" xlink:show="other" spreadMethod="pad">
                <stop stop-opacity="1" stop-color="white" offset="0%"/>
                <stop stop-opacity="1" stop-color="rgb(195,167,173)" offset="100%"/>
            </linearGradient>
            <linearGradient x1="192" x2="192" y1="170" gradientUnits="userSpaceOnUse" y2="270" xlink:type="simple" xlink:actuate="onLoad" id="linearGradient3" xlink:show="other" spreadMethod="pad">
                <stop stop-opacity="1" stop-color="white" offset="0%"/>
                <stop stop-opacity="1" stop-color="rgb(195,167,173)" offset="100%"/>
            </linearGradient>
            <linearGradient x1="192" x2="192" y1="330" gradientUnits="userSpaceOnUse" y2="430" xlink:type="simple" xlink:actuate="onLoad" id="linearGradient4" xlink:show="other" spreadMethod="pad">
                <stop stop-opacity="1" stop-color="white" offset="0%"/>
                <stop stop-opacity="1" stop-color="rgb(195,167,173)" offset="100%"/>
            </linearGradient>
            <linearGradient x1="372" x2="372" y1="670" gradientUnits="userSpaceOnUse" y2="783" xlink:type="simple" xlink:actuate="onLoad" id="linearGradient5" xlink:show="other" spreadMethod="pad">
                <stop stop-opacity="1" stop-color="white" offset="0%"/>
                <stop stop-opacity="1" stop-color="rgb(195,167,173)" offset="100%"/>
            </linearGradient>
            <linearGradient x1="372" x2="372" y1="850" gradientUnits="userSpaceOnUse" y2="950" xlink:type="simple" xlink:actuate="onLoad" id="linearGradient6" xlink:show="other" spreadMethod="pad">
                <stop stop-opacity="1" stop-color="white" offset="0%"/>
                <stop stop-opacity="1" stop-color="rgb(195,167,173)" offset="100%"/>
            </linearGradient>
            <linearGradient x1="692" x2="692" y1="10" gradientUnits="userSpaceOnUse" y2="110" xlink:type="simple" xlink:actuate="onLoad" id="linearGradient7" xlink:show="other" spreadMethod="pad">
                <stop stop-opacity="1" stop-color="white" offset="0%"/>
                <stop stop-opacity="1" stop-color="rgb(163,199,173)" offset="100%"/>
            </linearGradient>
            <clipPath clipPathUnits="userSpaceOnUse" id="clipPath1">
                <path d="M10 10 L10 109 L252 109 L252 10 Z"/>
            </clipPath>
            <clipPath clipPathUnits="userSpaceOnUse" id="clipPath2">
                <path d="M102 12 L163 12 L163 29 L102 29 L102 12 Z"/>
            </clipPath>
            <clipPath clipPathUnits="userSpaceOnUse" id="clipPath3">
                <path d="M73 28 L192 28 L192 45 L73 45 L73 28 Z"/>
            </clipPath>
            <clipPath clipPathUnits="userSpaceOnUse" id="clipPath4">
                <path d="M15 47 L214 47 L214 64 L15 64 L15 47 Z"/>
            </clipPath>
            <clipPath clipPathUnits="userSpaceOnUse" id="clipPath5">
                <path d="M10 45 L254 45 L254 111 L10 111 L10 45 Z"/>
            </clipPath>
            <clipPath clipPathUnits="userSpaceOnUse" id="clipPath6">
                <path d="M9 9 L254 9 L254 111 L9 111 L9 9 Z"/>
            </clipPath>
            <clipPath clipPathUnits="userSpaceOnUse" id="clipPath7">
                <path d="M192 490 L192 602 L432 602 L432 490 Z"/>
            </clipPath>
            <clipPath clipPathUnits="userSpaceOnUse" id="clipPath8">
                <path d="M265 492 L361 492 L361 509 L265 509 L265 492 Z"/>
            </clipPath>
            <clipPath clipPathUnits="userSpaceOnUse" id="clipPath9">
                <path d="M291 508 L335 508 L335 525 L291 525 L291 508 Z"/>
            </clipPath>
            <clipPath clipPathUnits="userSpaceOnUse" id="clipPath10">
                <path d="M197 527 L347 527 L347 544 L197 544 L197 527 Z"/>
            </clipPath>
            <clipPath clipPathUnits="userSpaceOnUse" id="clipPath11">
                <path d="M197 543 L319 543 L319 560 L197 560 L197 543 Z"/>
            </clipPath>
            <clipPath clipPathUnits="userSpaceOnUse" id="clipPath12">
                <path d="M192 525 L434 525 L434 604 L192 604 L192 525 Z"/>
            </clipPath>
            <clipPath clipPathUnits="userSpaceOnUse" id="clipPath13">
                <path d="M191 489 L434 489 L434 604 L191 604 L191 489 Z"/>
            </clipPath>
            <clipPath clipPathUnits="userSpaceOnUse" id="clipPath14">
                <path d="M192 170 L192 269 L432 269 L432 170 Z"/>
            </clipPath>
            <clipPath clipPathUnits="userSpaceOnUse" id="clipPath15">
                <path d="M268 172 L359 172 L359 189 L268 189 L268 172 Z"/>
            </clipPath>
            <clipPath clipPathUnits="userSpaceOnUse" id="clipPath16">
                <path d="M281 188 L346 188 L346 205 L281 205 L281 188 Z"/>
            </clipPath>
            <clipPath clipPathUnits="userSpaceOnUse" id="clipPath17">
                <path d="M192 205 L434 205 L434 271 L192 271 L192 205 Z"/>
            </clipPath>
            <clipPath clipPathUnits="userSpaceOnUse" id="clipPath18">
                <path d="M191 169 L434 169 L434 271 L191 271 L191 169 Z"/>
            </clipPath>
            <clipPath clipPathUnits="userSpaceOnUse" id="clipPath19">
                <path d="M192 330 L192 429 L432 429 L432 330 Z"/>
            </clipPath>
            <clipPath clipPathUnits="userSpaceOnUse" id="clipPath20">
                <path d="M268 332 L359 332 L359 349 L268 349 L268 332 Z"/>
            </clipPath>
            <clipPath clipPathUnits="userSpaceOnUse" id="clipPath21">
                <path d="M288 348 L338 348 L338 365 L288 365 L288 348 Z"/>
            </clipPath>
            <clipPath clipPathUnits="userSpaceOnUse" id="clipPath22">
                <path d="M197 367 L350 367 L350 384 L197 384 L197 367 Z"/>
            </clipPath>
            <clipPath clipPathUnits="userSpaceOnUse" id="clipPath23">
                <path d="M192 365 L434 365 L434 431 L192 431 L192 365 Z"/>
            </clipPath>
            <clipPath clipPathUnits="userSpaceOnUse" id="clipPath24">
                <path d="M191 329 L434 329 L434 431 L191 431 L191 329 Z"/>
            </clipPath>
            <clipPath clipPathUnits="userSpaceOnUse" id="clipPath25">
                <path d="M372 670 L372 782 L612 782 L612 670 Z"/>
            </clipPath>
            <clipPath clipPathUnits="userSpaceOnUse" id="clipPath26">
                <path d="M448 672 L539 672 L539 689 L448 689 L448 672 Z"/>
            </clipPath>
            <clipPath clipPathUnits="userSpaceOnUse" id="clipPath27">
                <path d="M459 688 L528 688 L528 705 L459 705 L459 688 Z"/>
            </clipPath>
            <clipPath clipPathUnits="userSpaceOnUse" id="clipPath28">
                <path d="M377 707 L542 707 L542 724 L377 724 L377 707 Z"/>
            </clipPath>
            <clipPath clipPathUnits="userSpaceOnUse" id="clipPath29">
                <path d="M377 723 L498 723 L498 740 L377 740 L377 723 Z"/>
            </clipPath>
            <clipPath clipPathUnits="userSpaceOnUse" id="clipPath30">
                <path d="M372 705 L614 705 L614 784 L372 784 L372 705 Z"/>
            </clipPath>
            <clipPath clipPathUnits="userSpaceOnUse" id="clipPath31">
                <path d="M371 669 L614 669 L614 784 L371 784 L371 669 Z"/>
            </clipPath>
            <clipPath clipPathUnits="userSpaceOnUse" id="clipPath32">
                <path d="M372 850 L372 949 L612 949 L612 850 Z"/>
            </clipPath>
            <clipPath clipPathUnits="userSpaceOnUse" id="clipPath33">
                <path d="M448 852 L539 852 L539 869 L448 869 L448 852 Z"/>
            </clipPath>
            <clipPath clipPathUnits="userSpaceOnUse" id="clipPath34">
                <path d="M443 868 L543 868 L543 885 L443 885 L443 868 Z"/>
            </clipPath>
            <clipPath clipPathUnits="userSpaceOnUse" id="clipPath35">
                <path d="M377 887 L450 887 L450 904 L377 904 L377 887 Z"/>
            </clipPath>
            <clipPath clipPathUnits="userSpaceOnUse" id="clipPath36">
                <path d="M372 885 L614 885 L614 951 L372 951 L372 885 Z"/>
            </clipPath>
            <clipPath clipPathUnits="userSpaceOnUse" id="clipPath37">
                <path d="M371 849 L614 849 L614 951 L371 951 L371 849 Z"/>
            </clipPath>
            <clipPath clipPathUnits="userSpaceOnUse" id="clipPath38">
                <path d="M692 10 L692 109 L932 109 L932 10 Z"/>
            </clipPath>
            <clipPath clipPathUnits="userSpaceOnUse" id="clipPath39">
                <path d="M782 12 L845 12 L845 29 L782 29 L782 12 Z"/>
            </clipPath>
            <clipPath clipPathUnits="userSpaceOnUse" id="clipPath40">
                <path d="M772 28 L854 28 L854 45 L772 45 L772 28 Z"/>
            </clipPath>
            <clipPath clipPathUnits="userSpaceOnUse" id="clipPath41">
                <path d="M697 47 L802 47 L802 64 L697 64 L697 47 Z"/>
            </clipPath>
            <clipPath clipPathUnits="userSpaceOnUse" id="clipPath42">
                <path d="M697 63 L879 63 L879 80 L697 80 L697 63 Z"/>
            </clipPath>
            <clipPath clipPathUnits="userSpaceOnUse" id="clipPath43">
                <path d="M692 45 L934 45 L934 111 L692 111 L692 45 Z"/>
            </clipPath>
            <clipPath clipPathUnits="userSpaceOnUse" id="clipPath44">
                <path d="M691 9 L934 9 L934 111 L691 111 L691 9 Z"/>
            </clipPath>
            <clipPath clipPathUnits="userSpaceOnUse" id="clipPath45">
                <path d="M-1 -1 L944 -1 L944 961 L-1 961 L-1 -1 Z"/>
            </clipPath>
            <clipPath clipPathUnits="userSpaceOnUse" id="clipPath46">
                <path d="M126 109 L139 109 L139 127 L126 127 L126 109 Z"/>
            </clipPath>
            <clipPath clipPathUnits="userSpaceOnUse" id="clipPath47">
                <path d="M303 602 L322 602 L322 615 L303 615 L303 602 Z"/>
            </clipPath>
        </defs>
        <g fill="url(#linearGradient1)" stroke-miterlimit="0" stroke-width="0" font-family="'Segoe UI'" stroke="url(#linearGradient1)" stroke-linejoin="round">
            <rect x="10" width="243" height="100" y="10" clip-path="url(#clipPath1)" stroke="none"/>
            <text fill="black" x="103" xml:space="preserve" y="26" clip-path="url(#clipPath2)" stroke="none">«Interface»</text>
            <text fill="black" x="74" xml:space="preserve" y="42" clip-path="url(#clipPath3)" stroke="none">IControlledVocabulary</text>
            <text fill="black" x="16" xml:space="preserve" y="61" clip-path="url(#clipPath4)" stroke="none">«ReferenceCode»   code: Identifier [1]</text>
        </g>
        <g stroke-linecap="butt" font-family="'Segoe UI'" stroke-width="1.1">
            <line y2="46" fill="none" x1="10" clip-path="url(#clipPath5)" x2="253" y1="46"/>
            <rect x="10" y="10" clip-path="url(#clipPath6)" fill="none" width="242" rx="0" ry="0" height="99"/>
            <rect x="192" y="490" clip-path="url(#clipPath7)" fill="url(#linearGradient2)" width="241" height="113" stroke="none"/>
            <text x="266" y="506" clip-path="url(#clipPath8)" fill="rgb(169,169,169)" font-style="italic" stroke="none" xml:space="preserve">«ReferenceData»</text>
            <text x="292" y="522" clip-path="url(#clipPath9)" fill="rgb(169,169,169)" font-style="italic" stroke="none" xml:space="preserve">Charge</text>
            <text x="198" xml:space="preserve" y="541" clip-path="url(#clipPath10)" stroke="none">  jurisdiction: Jurisdiction [1]</text>
            <text x="198" xml:space="preserve" y="557" clip-path="url(#clipPath11)" stroke="none">  rateType: RateType [1]</text>
            <line y2="526" fill="none" x1="192" clip-path="url(#clipPath12)" x2="433" y1="526"/>
            <rect x="192" y="490" clip-path="url(#clipPath13)" fill="none" width="240" rx="0" ry="0" height="112"/>
            <rect x="192" y="170" clip-path="url(#clipPath14)" fill="url(#linearGradient3)" width="241" height="100" stroke="none"/>
            <text x="269" xml:space="preserve" y="186" clip-path="url(#clipPath15)" stroke="none">«ReferenceData»</text>
            <text x="282" xml:space="preserve" y="202" clip-path="url(#clipPath16)" stroke="none">ChargeType</text>
            <line y2="206" fill="none" x1="192" clip-path="url(#clipPath17)" x2="433" y1="206"/>
            <rect x="192" y="170" clip-path="url(#clipPath18)" fill="none" width="240" rx="0" ry="0" height="99"/>
            <rect x="192" y="330" clip-path="url(#clipPath19)" fill="url(#linearGradient4)" width="241" height="100" stroke="none"/>
            <text x="269" xml:space="preserve" y="346" clip-path="url(#clipPath20)" stroke="none">«ReferenceData»</text>
            <text x="289" xml:space="preserve" y="362" clip-path="url(#clipPath21)" stroke="none">RateType</text>
            <text x="198" xml:space="preserve" y="381" clip-path="url(#clipPath22)" stroke="none">  chargeType: ChargeType [1]</text>
            <line y2="366" fill="none" x1="192" clip-path="url(#clipPath23)" x2="433" y1="366"/>
            <rect x="192" y="330" clip-path="url(#clipPath24)" fill="none" width="240" rx="0" ry="0" height="99"/>
            <rect x="372" y="670" clip-path="url(#clipPath25)" fill="url(#linearGradient5)" width="241" height="113" stroke="none"/>
            <text x="449" xml:space="preserve" y="686" clip-path="url(#clipPath26)" stroke="none">«ReferenceData»</text>
            <text x="460" xml:space="preserve" y="702" clip-path="url(#clipPath27)" stroke="none">FixedCharge</text>
            <text x="378" xml:space="preserve" y="721" clip-path="url(#clipPath28)" stroke="none">  amount: CurrencyAmount [1]</text>
            <text x="378" xml:space="preserve" y="737" clip-path="url(#clipPath29)" stroke="none">  quantity: Quantity [1]</text>
            <line y2="706" fill="none" x1="372" clip-path="url(#clipPath30)" x2="613" y1="706"/>
            <rect x="372" y="670" clip-path="url(#clipPath31)" fill="none" width="240" rx="0" ry="0" height="112"/>
            <rect x="372" y="850" clip-path="url(#clipPath32)" fill="url(#linearGradient6)" width="241" height="100" stroke="none"/>
            <text x="449" xml:space="preserve" y="866" clip-path="url(#clipPath33)" stroke="none">«ReferenceData»</text>
            <text x="444" xml:space="preserve" y="882" clip-path="url(#clipPath34)" stroke="none">PercentageCharge</text>
            <text x="378" xml:space="preserve" y="901" clip-path="url(#clipPath35)" stroke="none">  rate: Real [1]</text>
            <line y2="886" fill="none" x1="372" clip-path="url(#clipPath36)" x2="613" y1="886"/>
            <rect x="372" y="850" clip-path="url(#clipPath37)" fill="none" width="240" rx="0" ry="0" height="99"/>
            <rect x="692" y="10" clip-path="url(#clipPath38)" fill="url(#linearGradient7)" width="241" height="100" stroke="none"/>
            <text x="783" xml:space="preserve" y="26" clip-path="url(#clipPath39)" stroke="none">«DataType»</text>
            <text x="773" xml:space="preserve" y="42" clip-path="url(#clipPath40)" stroke="none">AppliedCharge</text>
            <text x="698" xml:space="preserve" y="61" clip-path="url(#clipPath41)" stroke="none">  charge: Charge [1]</text>
            <text x="698" xml:space="preserve" y="77" clip-path="url(#clipPath42)" stroke="none">  compositeChargeRate: Real [0..1]</text>
            <line y2="46" fill="none" x1="692" clip-path="url(#clipPath43)" x2="933" y1="46"/>
            <rect x="692" y="10" clip-path="url(#clipPath44)" fill="none" width="240" rx="0" ry="0" height="99"/>
            <line clip-path="url(#clipPath45)" fill="none" text-rendering="optimizeLegibility" x1="192" x2="132" y1="535" y2="535" stroke-dasharray="5,5,5,5,5,5,5,5,5,5"/>
            <line clip-path="url(#clipPath45)" fill="none" text-rendering="optimizeLegibility" x1="132" x2="132" y1="535" y2="110" stroke-dasharray="5,5,5,5,5,5,5,5,5,5"/>
        </g>
        <g stroke-linecap="butt" fill="white" text-rendering="optimizeLegibility" font-family="'Segoe UI'" stroke-dasharray="5,5,5,5,5,5,5,5,5,5" stroke="white" stroke-width="1.1">
            <polygon points=" 132 110 137 125 127 125" stroke="none" clip-path="url(#clipPath46)"/>
            <polygon fill="none" stroke-dasharray="none" clip-path="url(#clipPath46)" points=" 132 110 137 125 127 125" stroke="black"/>
            <line clip-path="url(#clipPath45)" fill="none" x1="192" x2="132" y1="210" y2="210" stroke="black"/>
            <line clip-path="url(#clipPath45)" fill="none" x1="132" x2="132" y1="210" y2="110" stroke="black"/>
            <polygon points=" 132 110 137 125 127 125" clip-path="url(#clipPath46)" stroke="none"/>
            <polygon fill="none" stroke-dasharray="none" clip-path="url(#clipPath46)" points=" 132 110 137 125 127 125" stroke="black"/>
            <line clip-path="url(#clipPath45)" fill="none" x1="192" x2="132" y1="370" y2="370" stroke="black"/>
            <line clip-path="url(#clipPath45)" fill="none" x1="132" x2="132" y1="370" y2="110" stroke="black"/>
            <polygon points=" 132 110 137 125 127 125" clip-path="url(#clipPath46)" stroke="none"/>
            <polygon fill="none" stroke-dasharray="none" clip-path="url(#clipPath46)" points=" 132 110 137 125 127 125" stroke="black"/>
            <line clip-path="url(#clipPath45)" fill="none" x1="372" x2="312" y1="710" y2="710" stroke-dasharray="none" stroke="black"/>
            <line clip-path="url(#clipPath45)" fill="none" x1="312" x2="312" y1="710" y2="603" stroke-dasharray="none" stroke="black"/>
            <polygon stroke-dasharray="none" clip-path="url(#clipPath47)" points=" 312 603 320 613 304 613" stroke="none"/>
            <polygon fill="none" stroke-dasharray="none" clip-path="url(#clipPath47)" points=" 312 603 320 613 304 613" stroke="black"/>
            <line clip-path="url(#clipPath45)" fill="none" x1="372" x2="312" y1="890" y2="890" stroke-dasharray="none" stroke="black"/>
            <line clip-path="url(#clipPath45)" fill="none" x1="312" x2="312" y1="890" y2="603" stroke-dasharray="none" stroke="black"/>
            <polygon stroke-dasharray="none" clip-path="url(#clipPath47)" points=" 312 603 320 613 304 613" stroke="none"/>
            <polygon fill="none" stroke-dasharray="none" clip-path="url(#clipPath47)" points=" 312 603 320 613 304 613" stroke="black"/>
        </g>
    </g>
</svg>
