<?xml version="1.0" encoding="UTF-8"?><svg xmlns="http://www.w3.org/2000/svg" xmlns:xlink="http://www.w3.org/1999/xlink" stroke-dasharray="none" shape-rendering="auto" font-family="'Dialog'" width="1281" text-rendering="auto" fill-opacity="1" contentScriptType="text/ecmascript" color-interpolation="auto" color-rendering="auto" preserveAspectRatio="xMidYMid meet" font-size="12px" viewBox="0 0 1281 1080" fill="black" stroke="black" image-rendering="auto" stroke-miterlimit="10" zoomAndPan="magnify" version="1.0" stroke-linecap="square" stroke-linejoin="miter" contentStyleType="text/css" font-style="normal" height="1080" stroke-width="1" stroke-dashoffset="0" font-weight="normal" stroke-opacity="1">
    <!--Generated by the Batik Graphics2D SVG Generator-->
    <defs id="genericDefs"/>
    <g>
        <defs id="defs1">
            <linearGradient x1="10" x2="10" y1="10" gradientUnits="userSpaceOnUse" y2="300" xlink:type="simple" xlink:actuate="onLoad" id="linearGradient1" xlink:show="other" spreadMethod="pad">
                <stop stop-opacity="1" stop-color="white" offset="0%"/>
                <stop stop-opacity="1" stop-color="rgb(195,215,221)" offset="100%"/>
            </linearGradient>
            <linearGradient x1="530" x2="530" y1="10" gradientUnits="userSpaceOnUse" y2="110" xlink:type="simple" xlink:actuate="onLoad" id="linearGradient2" xlink:show="other" spreadMethod="pad">
                <stop stop-opacity="1" stop-color="white" offset="0%"/>
                <stop stop-opacity="1" stop-color="rgb(131,135,205)" offset="100%"/>
            </linearGradient>
            <linearGradient x1="710" x2="710" y1="170" gradientUnits="userSpaceOnUse" y2="270" xlink:type="simple" xlink:actuate="onLoad" id="linearGradient3" xlink:show="other" spreadMethod="pad">
                <stop stop-opacity="1" stop-color="white" offset="0%"/>
                <stop stop-opacity="1" stop-color="rgb(195,167,173)" offset="100%"/>
            </linearGradient>
            <linearGradient x1="710" x2="710" y1="330" gradientUnits="userSpaceOnUse" y2="430" xlink:type="simple" xlink:actuate="onLoad" id="linearGradient4" xlink:show="other" spreadMethod="pad">
                <stop stop-opacity="1" stop-color="white" offset="0%"/>
                <stop stop-opacity="1" stop-color="rgb(195,167,173)" offset="100%"/>
            </linearGradient>
            <linearGradient x1="710" x2="710" y1="650" gradientUnits="userSpaceOnUse" y2="763" xlink:type="simple" xlink:actuate="onLoad" id="linearGradient5" xlink:show="other" spreadMethod="pad">
                <stop stop-opacity="1" stop-color="white" offset="0%"/>
                <stop stop-opacity="1" stop-color="rgb(195,167,173)" offset="100%"/>
            </linearGradient>
            <linearGradient x1="710" x2="710" y1="810" gradientUnits="userSpaceOnUse" y2="910" xlink:type="simple" xlink:actuate="onLoad" id="linearGradient6" xlink:show="other" spreadMethod="pad">
                <stop stop-opacity="1" stop-color="white" offset="0%"/>
                <stop stop-opacity="1" stop-color="rgb(195,167,173)" offset="100%"/>
            </linearGradient>
            <linearGradient x1="1030" x2="1030" y1="170" gradientUnits="userSpaceOnUse" y2="270" xlink:type="simple" xlink:actuate="onLoad" id="linearGradient7" xlink:show="other" spreadMethod="pad">
                <stop stop-opacity="1" stop-color="white" offset="0%"/>
                <stop stop-opacity="1" stop-color="rgb(163,199,173)" offset="100%"/>
            </linearGradient>
            <linearGradient x1="1030" x2="1030" y1="10" gradientUnits="userSpaceOnUse" y2="110" xlink:type="simple" xlink:actuate="onLoad" id="linearGradient8" xlink:show="other" spreadMethod="pad">
                <stop stop-opacity="1" stop-color="white" offset="0%"/>
                <stop stop-opacity="1" stop-color="rgb(163,199,173)" offset="100%"/>
            </linearGradient>
            <linearGradient x1="1030" x2="1030" y1="330" gradientUnits="userSpaceOnUse" y2="430" xlink:type="simple" xlink:actuate="onLoad" id="linearGradient9" xlink:show="other" spreadMethod="pad">
                <stop stop-opacity="1" stop-color="white" offset="0%"/>
                <stop stop-opacity="1" stop-color="rgb(163,199,173)" offset="100%"/>
            </linearGradient>
            <linearGradient x1="710" x2="710" y1="490" gradientUnits="userSpaceOnUse" y2="590" xlink:type="simple" xlink:actuate="onLoad" id="linearGradient10" xlink:show="other" spreadMethod="pad">
                <stop stop-opacity="1" stop-color="white" offset="0%"/>
                <stop stop-opacity="1" stop-color="rgb(195,167,173)" offset="100%"/>
            </linearGradient>
            <linearGradient x1="710" x2="710" y1="970" gradientUnits="userSpaceOnUse" y2="1070" xlink:type="simple" xlink:actuate="onLoad" id="linearGradient11" xlink:show="other" spreadMethod="pad">
                <stop stop-opacity="1" stop-color="white" offset="0%"/>
                <stop stop-opacity="1" stop-color="rgb(195,167,173)" offset="100%"/>
            </linearGradient>
            <linearGradient x1="1030" x2="1030" y1="490" gradientUnits="userSpaceOnUse" y2="590" xlink:type="simple" xlink:actuate="onLoad" id="linearGradient12" xlink:show="other" spreadMethod="pad">
                <stop stop-opacity="1" stop-color="white" offset="0%"/>
                <stop stop-opacity="1" stop-color="rgb(163,199,173)" offset="100%"/>
            </linearGradient>
            <clipPath clipPathUnits="userSpaceOnUse" id="clipPath1">
                <path d="M10 10 L10 299 L250 299 L250 10 Z"/>
            </clipPath>
            <clipPath clipPathUnits="userSpaceOnUse" id="clipPath2">
                <path d="M118 12 L144 12 L144 29 L118 29 L118 12 Z"/>
            </clipPath>
            <clipPath clipPathUnits="userSpaceOnUse" id="clipPath3">
                <path d="M15 31 L189 31 L189 48 L15 48 L15 31 Z"/>
            </clipPath>
            <clipPath clipPathUnits="userSpaceOnUse" id="clipPath4">
                <path d="M15 47 L108 47 L108 64 L15 64 L15 47 Z"/>
            </clipPath>
            <clipPath clipPathUnits="userSpaceOnUse" id="clipPath5">
                <path d="M15 63 L80 63 L80 80 L15 80 L15 63 Z"/>
            </clipPath>
            <clipPath clipPathUnits="userSpaceOnUse" id="clipPath6">
                <path d="M15 79 L153 79 L153 96 L15 96 L15 79 Z"/>
            </clipPath>
            <clipPath clipPathUnits="userSpaceOnUse" id="clipPath7">
                <path d="M15 95 L242 95 L242 112 L15 112 L15 95 Z"/>
            </clipPath>
            <clipPath clipPathUnits="userSpaceOnUse" id="clipPath8">
                <path d="M15 111 L176 111 L176 128 L15 128 L15 111 Z"/>
            </clipPath>
            <clipPath clipPathUnits="userSpaceOnUse" id="clipPath9">
                <path d="M15 127 L152 127 L152 144 L15 144 L15 127 Z"/>
            </clipPath>
            <clipPath clipPathUnits="userSpaceOnUse" id="clipPath10">
                <path d="M15 143 L191 143 L191 160 L15 160 L15 143 Z"/>
            </clipPath>
            <clipPath clipPathUnits="userSpaceOnUse" id="clipPath11">
                <path d="M15 159 L202 159 L202 176 L15 176 L15 159 Z"/>
            </clipPath>
            <clipPath clipPathUnits="userSpaceOnUse" id="clipPath12">
                <path d="M15 175 L233 175 L233 192 L15 192 L15 175 Z"/>
            </clipPath>
            <clipPath clipPathUnits="userSpaceOnUse" id="clipPath13">
                <path d="M15 191 L219 191 L219 208 L15 208 L15 191 Z"/>
            </clipPath>
            <clipPath clipPathUnits="userSpaceOnUse" id="clipPath14">
                <path d="M15 207 L246 207 L246 224 L15 224 L15 207 Z"/>
            </clipPath>
            <clipPath clipPathUnits="userSpaceOnUse" id="clipPath15">
                <path d="M15 223 L213 223 L213 240 L15 240 L15 223 Z"/>
            </clipPath>
            <clipPath clipPathUnits="userSpaceOnUse" id="clipPath16">
                <path d="M15 239 L247 239 L247 256 L15 256 L15 239 Z"/>
            </clipPath>
            <clipPath clipPathUnits="userSpaceOnUse" id="clipPath17">
                <path d="M10 29 L252 29 L252 301 L10 301 L10 29 Z"/>
            </clipPath>
            <clipPath clipPathUnits="userSpaceOnUse" id="clipPath18">
                <path d="M9 9 L252 9 L252 301 L9 301 L9 9 Z"/>
            </clipPath>
            <clipPath clipPathUnits="userSpaceOnUse" id="clipPath19">
                <path d="M530 10 L530 109 L770 109 L770 10 Z"/>
            </clipPath>
            <clipPath clipPathUnits="userSpaceOnUse" id="clipPath20">
                <path d="M621 12 L682 12 L682 29 L621 29 L621 12 Z"/>
            </clipPath>
            <clipPath clipPathUnits="userSpaceOnUse" id="clipPath21">
                <path d="M592 28 L711 28 L711 45 L592 45 L592 28 Z"/>
            </clipPath>
            <clipPath clipPathUnits="userSpaceOnUse" id="clipPath22">
                <path d="M535 47 L734 47 L734 64 L535 64 L535 47 Z"/>
            </clipPath>
            <clipPath clipPathUnits="userSpaceOnUse" id="clipPath23">
                <path d="M530 45 L772 45 L772 111 L530 111 L530 45 Z"/>
            </clipPath>
            <clipPath clipPathUnits="userSpaceOnUse" id="clipPath24">
                <path d="M529 9 L772 9 L772 111 L529 111 L529 9 Z"/>
            </clipPath>
            <clipPath clipPathUnits="userSpaceOnUse" id="clipPath25">
                <path d="M710 170 L710 269 L950 269 L950 170 Z"/>
            </clipPath>
            <clipPath clipPathUnits="userSpaceOnUse" id="clipPath26">
                <path d="M786 172 L877 172 L877 189 L786 189 L786 172 Z"/>
            </clipPath>
            <clipPath clipPathUnits="userSpaceOnUse" id="clipPath27">
                <path d="M808 188 L854 188 L854 205 L808 205 L808 188 Z"/>
            </clipPath>
            <clipPath clipPathUnits="userSpaceOnUse" id="clipPath28">
                <path d="M710 205 L952 205 L952 271 L710 271 L710 205 Z"/>
            </clipPath>
            <clipPath clipPathUnits="userSpaceOnUse" id="clipPath29">
                <path d="M709 169 L952 169 L952 271 L709 271 L709 169 Z"/>
            </clipPath>
            <clipPath clipPathUnits="userSpaceOnUse" id="clipPath30">
                <path d="M710 330 L710 429 L950 429 L950 330 Z"/>
            </clipPath>
            <clipPath clipPathUnits="userSpaceOnUse" id="clipPath31">
                <path d="M786 332 L877 332 L877 349 L786 349 L786 332 Z"/>
            </clipPath>
            <clipPath clipPathUnits="userSpaceOnUse" id="clipPath32">
                <path d="M790 348 L873 348 L873 365 L790 365 L790 348 Z"/>
            </clipPath>
            <clipPath clipPathUnits="userSpaceOnUse" id="clipPath33">
                <path d="M710 365 L952 365 L952 431 L710 431 L710 365 Z"/>
            </clipPath>
            <clipPath clipPathUnits="userSpaceOnUse" id="clipPath34">
                <path d="M709 329 L952 329 L952 431 L709 431 L709 329 Z"/>
            </clipPath>
            <clipPath clipPathUnits="userSpaceOnUse" id="clipPath35">
                <path d="M710 650 L710 762 L950 762 L950 650 Z"/>
            </clipPath>
            <clipPath clipPathUnits="userSpaceOnUse" id="clipPath36">
                <path d="M786 652 L877 652 L877 669 L786 669 L786 652 Z"/>
            </clipPath>
            <clipPath clipPathUnits="userSpaceOnUse" id="clipPath37">
                <path d="M798 668 L865 668 L865 685 L798 685 L798 668 Z"/>
            </clipPath>
            <clipPath clipPathUnits="userSpaceOnUse" id="clipPath38">
                <path d="M715 687 L945 687 L945 704 L715 704 L715 687 Z"/>
            </clipPath>
            <clipPath clipPathUnits="userSpaceOnUse" id="clipPath39">
                <path d="M715 703 L947 703 L947 720 L715 720 L715 703 Z"/>
            </clipPath>
            <clipPath clipPathUnits="userSpaceOnUse" id="clipPath40">
                <path d="M710 685 L952 685 L952 764 L710 764 L710 685 Z"/>
            </clipPath>
            <clipPath clipPathUnits="userSpaceOnUse" id="clipPath41">
                <path d="M709 649 L952 649 L952 764 L709 764 L709 649 Z"/>
            </clipPath>
            <clipPath clipPathUnits="userSpaceOnUse" id="clipPath42">
                <path d="M710 810 L710 909 L950 909 L950 810 Z"/>
            </clipPath>
            <clipPath clipPathUnits="userSpaceOnUse" id="clipPath43">
                <path d="M786 812 L877 812 L877 829 L786 829 L786 812 Z"/>
            </clipPath>
            <clipPath clipPathUnits="userSpaceOnUse" id="clipPath44">
                <path d="M787 828 L876 828 L876 845 L787 845 L787 828 Z"/>
            </clipPath>
            <clipPath clipPathUnits="userSpaceOnUse" id="clipPath45">
                <path d="M710 845 L952 845 L952 911 L710 911 L710 845 Z"/>
            </clipPath>
            <clipPath clipPathUnits="userSpaceOnUse" id="clipPath46">
                <path d="M709 809 L952 809 L952 911 L709 911 L709 809 Z"/>
            </clipPath>
            <clipPath clipPathUnits="userSpaceOnUse" id="clipPath47">
                <path d="M1030 170 L1030 269 L1270 269 L1270 170 Z"/>
            </clipPath>
            <clipPath clipPathUnits="userSpaceOnUse" id="clipPath48">
                <path d="M1120 172 L1183 172 L1183 189 L1120 189 L1120 172 Z"/>
            </clipPath>
            <clipPath clipPathUnits="userSpaceOnUse" id="clipPath49">
                <path d="M1113 188 L1190 188 L1190 205 L1113 205 L1113 188 Z"/>
            </clipPath>
            <clipPath clipPathUnits="userSpaceOnUse" id="clipPath50">
                <path d="M1035 207 L1189 207 L1189 224 L1035 224 L1035 207 Z"/>
            </clipPath>
            <clipPath clipPathUnits="userSpaceOnUse" id="clipPath51">
                <path d="M1035 223 L1137 223 L1137 240 L1035 240 L1035 223 Z"/>
            </clipPath>
            <clipPath clipPathUnits="userSpaceOnUse" id="clipPath52">
                <path d="M1030 205 L1272 205 L1272 271 L1030 271 L1030 205 Z"/>
            </clipPath>
            <clipPath clipPathUnits="userSpaceOnUse" id="clipPath53">
                <path d="M1029 169 L1272 169 L1272 271 L1029 271 L1029 169 Z"/>
            </clipPath>
            <clipPath clipPathUnits="userSpaceOnUse" id="clipPath54">
                <path d="M1030 10 L1030 109 L1270 109 L1270 10 Z"/>
            </clipPath>
            <clipPath clipPathUnits="userSpaceOnUse" id="clipPath55">
                <path d="M1120 12 L1183 12 L1183 29 L1120 29 L1120 12 Z"/>
            </clipPath>
            <clipPath clipPathUnits="userSpaceOnUse" id="clipPath56">
                <path d="M1140 28 L1162 28 L1162 45 L1140 45 L1140 28 Z"/>
            </clipPath>
            <clipPath clipPathUnits="userSpaceOnUse" id="clipPath57">
                <path d="M1035 47 L1149 47 L1149 64 L1035 64 L1035 47 Z"/>
            </clipPath>
            <clipPath clipPathUnits="userSpaceOnUse" id="clipPath58">
                <path d="M1035 63 L1185 63 L1185 80 L1035 80 L1035 63 Z"/>
            </clipPath>
            <clipPath clipPathUnits="userSpaceOnUse" id="clipPath59">
                <path d="M1030 45 L1272 45 L1272 111 L1030 111 L1030 45 Z"/>
            </clipPath>
            <clipPath clipPathUnits="userSpaceOnUse" id="clipPath60">
                <path d="M1029 9 L1272 9 L1272 111 L1029 111 L1029 9 Z"/>
            </clipPath>
            <clipPath clipPathUnits="userSpaceOnUse" id="clipPath61">
                <path d="M1030 330 L1030 429 L1270 429 L1270 330 Z"/>
            </clipPath>
            <clipPath clipPathUnits="userSpaceOnUse" id="clipPath62">
                <path d="M1120 332 L1183 332 L1183 349 L1120 349 L1120 332 Z"/>
            </clipPath>
            <clipPath clipPathUnits="userSpaceOnUse" id="clipPath63">
                <path d="M1088 348 L1214 348 L1214 365 L1088 365 L1088 348 Z"/>
            </clipPath>
            <clipPath clipPathUnits="userSpaceOnUse" id="clipPath64">
                <path d="M1035 367 L1209 367 L1209 384 L1035 384 L1035 367 Z"/>
            </clipPath>
            <clipPath clipPathUnits="userSpaceOnUse" id="clipPath65">
                <path d="M1035 383 L1200 383 L1200 400 L1035 400 L1035 383 Z"/>
            </clipPath>
            <clipPath clipPathUnits="userSpaceOnUse" id="clipPath66">
                <path d="M1030 365 L1272 365 L1272 431 L1030 431 L1030 365 Z"/>
            </clipPath>
            <clipPath clipPathUnits="userSpaceOnUse" id="clipPath67">
                <path d="M1029 329 L1272 329 L1272 431 L1029 431 L1029 329 Z"/>
            </clipPath>
            <clipPath clipPathUnits="userSpaceOnUse" id="clipPath68">
                <path d="M710 490 L710 589 L950 589 L950 490 Z"/>
            </clipPath>
            <clipPath clipPathUnits="userSpaceOnUse" id="clipPath69">
                <path d="M786 492 L877 492 L877 509 L786 509 L786 492 Z"/>
            </clipPath>
            <clipPath clipPathUnits="userSpaceOnUse" id="clipPath70">
                <path d="M780 508 L883 508 L883 525 L780 525 L780 508 Z"/>
            </clipPath>
            <clipPath clipPathUnits="userSpaceOnUse" id="clipPath71">
                <path d="M710 525 L952 525 L952 591 L710 591 L710 525 Z"/>
            </clipPath>
            <clipPath clipPathUnits="userSpaceOnUse" id="clipPath72">
                <path d="M709 489 L952 489 L952 591 L709 591 L709 489 Z"/>
            </clipPath>
            <clipPath clipPathUnits="userSpaceOnUse" id="clipPath73">
                <path d="M710 970 L710 1069 L950 1069 L950 970 Z"/>
            </clipPath>
            <clipPath clipPathUnits="userSpaceOnUse" id="clipPath74">
                <path d="M786 972 L877 972 L877 989 L786 989 L786 972 Z"/>
            </clipPath>
            <clipPath clipPathUnits="userSpaceOnUse" id="clipPath75">
                <path d="M802 988 L861 988 L861 1005 L802 1005 L802 988 Z"/>
            </clipPath>
            <clipPath clipPathUnits="userSpaceOnUse" id="clipPath76">
                <path d="M710 1005 L952 1005 L952 1071 L710 1071 L710 1005 Z"/>
            </clipPath>
            <clipPath clipPathUnits="userSpaceOnUse" id="clipPath77">
                <path d="M709 969 L952 969 L952 1071 L709 1071 L709 969 Z"/>
            </clipPath>
            <clipPath clipPathUnits="userSpaceOnUse" id="clipPath78">
                <path d="M1030 490 L1030 589 L1270 589 L1270 490 Z"/>
            </clipPath>
            <clipPath clipPathUnits="userSpaceOnUse" id="clipPath79">
                <path d="M1120 492 L1183 492 L1183 509 L1120 509 L1120 492 Z"/>
            </clipPath>
            <clipPath clipPathUnits="userSpaceOnUse" id="clipPath80">
                <path d="M1134 508 L1169 508 L1169 525 L1134 525 L1134 508 Z"/>
            </clipPath>
            <clipPath clipPathUnits="userSpaceOnUse" id="clipPath81">
                <path d="M1035 527 L1176 527 L1176 544 L1035 544 L1035 527 Z"/>
            </clipPath>
            <clipPath clipPathUnits="userSpaceOnUse" id="clipPath82">
                <path d="M1035 543 L1125 543 L1125 560 L1035 560 L1035 543 Z"/>
            </clipPath>
            <clipPath clipPathUnits="userSpaceOnUse" id="clipPath83">
                <path d="M1030 525 L1272 525 L1272 591 L1030 591 L1030 525 Z"/>
            </clipPath>
            <clipPath clipPathUnits="userSpaceOnUse" id="clipPath84">
                <path d="M1029 489 L1272 489 L1272 591 L1029 591 L1029 489 Z"/>
            </clipPath>
            <clipPath clipPathUnits="userSpaceOnUse" id="clipPath85">
                <path d="M-1 -1 L1282 -1 L1282 1081 L-1 1081 L-1 -1 Z"/>
            </clipPath>
            <clipPath clipPathUnits="userSpaceOnUse" id="clipPath86">
                <path d="M644 109 L657 109 L657 127 L644 127 L644 109 Z"/>
            </clipPath>
        </defs>
        <g fill="url(#linearGradient1)" stroke-miterlimit="0" stroke-width="0" font-family="'Segoe UI'" stroke="url(#linearGradient1)" stroke-linejoin="round">
            <rect x="10" width="241" height="290" y="10" clip-path="url(#clipPath1)" stroke="none"/>
            <text fill="black" x="119" xml:space="preserve" y="26" clip-path="url(#clipPath2)" stroke="none">Item</text>
            <text fill="black" x="16" xml:space="preserve" y="45" clip-path="url(#clipPath3)" stroke="none">«Identifier»   itemId: Identifier [1]</text>
            <text fill="black" x="16" xml:space="preserve" y="61" clip-path="url(#clipPath4)" stroke="none">  name: Name [1]</text>
            <text fill="black" x="16" xml:space="preserve" y="77" clip-path="url(#clipPath5)" stroke="none">  life: Life [*]</text>
            <text fill="black" x="16" xml:space="preserve" y="93" clip-path="url(#clipPath6)" stroke="none">  unNumber: Integer [0..1]</text>
            <text fill="black" x="16" xml:space="preserve" y="109" clip-path="url(#clipPath7)" stroke="none">  priceMarkedOnPackaging: CurrencyAm...</text>
            <text fill="black" x="16" xml:space="preserve" y="125" clip-path="url(#clipPath8)" stroke="none">  isVariableWeight: Boolean [1]</text>
            <text fill="black" x="16" xml:space="preserve" y="141" clip-path="url(#clipPath9)" stroke="none">  netContent: Quantity [1]</text>
            <text fill="black" x="16" xml:space="preserve" y="157" clip-path="url(#clipPath10)" stroke="none">  netWeight: MeasuredWeight [1]</text>
            <text fill="black" x="16" xml:space="preserve" y="173" clip-path="url(#clipPath11)" stroke="none">  grossWeight: MeasuredWeight [1]</text>
            <text fill="black" x="16" xml:space="preserve" y="189" clip-path="url(#clipPath12)" stroke="none">  unpackedDimensions: DimensionSet [1]</text>
            <text fill="black" x="16" xml:space="preserve" y="205" clip-path="url(#clipPath13)" stroke="none">  packedDimensions: DimensionSet [1]</text>
            <text fill="black" x="16" xml:space="preserve" y="221" clip-path="url(#clipPath14)" stroke="none">  additionalDimensions: PurposedDimensi...</text>
            <text fill="black" x="16" xml:space="preserve" y="237" clip-path="url(#clipPath15)" stroke="none">  dynamicAttribute: AttributeValue [*]</text>
            <text fill="black" x="16" xml:space="preserve" y="253" clip-path="url(#clipPath16)" stroke="none">  conusmerUnitCode: ConsumerUnitCode...</text>
        </g>
        <g stroke-linecap="butt" font-family="'Segoe UI'" stroke-width="1.1">
            <line y2="30" fill="none" x1="10" clip-path="url(#clipPath17)" x2="251" y1="30"/>
            <rect x="10" y="10" clip-path="url(#clipPath18)" fill="none" width="240" rx="0" ry="0" height="289"/>
            <rect x="530" y="10" clip-path="url(#clipPath19)" fill="url(#linearGradient2)" width="241" height="100" stroke="none"/>
            <text x="622" xml:space="preserve" y="26" clip-path="url(#clipPath20)" stroke="none">«Interface»</text>
            <text x="593" xml:space="preserve" y="42" clip-path="url(#clipPath21)" stroke="none">IControlledVocabulary</text>
            <text x="536" xml:space="preserve" y="61" clip-path="url(#clipPath22)" stroke="none">«ReferenceCode»   code: Identifier [1]</text>
            <line y2="46" fill="none" x1="530" clip-path="url(#clipPath23)" x2="771" y1="46"/>
            <rect x="530" y="10" clip-path="url(#clipPath24)" fill="none" width="240" rx="0" ry="0" height="99"/>
            <rect x="710" y="170" clip-path="url(#clipPath25)" fill="url(#linearGradient3)" width="241" height="100" stroke="none"/>
            <text x="787" xml:space="preserve" y="186" clip-path="url(#clipPath26)" stroke="none">«ReferenceData»</text>
            <text x="809" xml:space="preserve" y="202" clip-path="url(#clipPath27)" stroke="none">LifeType</text>
            <line y2="206" fill="none" x1="710" clip-path="url(#clipPath28)" x2="951" y1="206"/>
            <rect x="710" y="170" clip-path="url(#clipPath29)" fill="none" width="240" rx="0" ry="0" height="99"/>
            <rect x="710" y="330" clip-path="url(#clipPath30)" fill="url(#linearGradient4)" width="241" height="100" stroke="none"/>
            <text x="787" xml:space="preserve" y="346" clip-path="url(#clipPath31)" stroke="none">«ReferenceData»</text>
            <text x="791" xml:space="preserve" y="362" clip-path="url(#clipPath32)" stroke="none">RegionPurpose</text>
            <line y2="366" fill="none" x1="710" clip-path="url(#clipPath33)" x2="951" y1="366"/>
            <rect x="710" y="330" clip-path="url(#clipPath34)" fill="none" width="240" rx="0" ry="0" height="99"/>
            <rect x="710" y="650" clip-path="url(#clipPath35)" fill="url(#linearGradient5)" width="241" height="113" stroke="none"/>
            <text x="787" xml:space="preserve" y="666" clip-path="url(#clipPath36)" stroke="none">«ReferenceData»</text>
            <text x="799" xml:space="preserve" y="682" clip-path="url(#clipPath37)" stroke="none">StorageType</text>
            <text x="716" xml:space="preserve" y="701" clip-path="url(#clipPath38)" stroke="none">  minimumTemperature: MeasuredTempe...</text>
            <text x="716" xml:space="preserve" y="717" clip-path="url(#clipPath39)" stroke="none">  maximumTemperature: MeasuredTempe...</text>
            <line y2="686" fill="none" x1="710" clip-path="url(#clipPath40)" x2="951" y1="686"/>
            <rect x="710" y="650" clip-path="url(#clipPath41)" fill="none" width="240" rx="0" ry="0" height="112"/>
            <rect x="710" y="810" clip-path="url(#clipPath42)" fill="url(#linearGradient6)" width="241" height="100" stroke="none"/>
            <text x="787" xml:space="preserve" y="826" clip-path="url(#clipPath43)" stroke="none">«ReferenceData»</text>
            <text x="788" xml:space="preserve" y="842" clip-path="url(#clipPath44)" stroke="none">RecipeBuildType</text>
            <line y2="846" fill="none" x1="710" clip-path="url(#clipPath45)" x2="951" y1="846"/>
            <rect x="710" y="810" clip-path="url(#clipPath46)" fill="none" width="240" rx="0" ry="0" height="99"/>
            <rect x="1030" y="170" clip-path="url(#clipPath47)" fill="url(#linearGradient7)" width="241" height="100" stroke="none"/>
            <text x="1121" xml:space="preserve" y="186" clip-path="url(#clipPath48)" stroke="none">«DataType»</text>
            <text x="1114" xml:space="preserve" y="202" clip-path="url(#clipPath49)" stroke="none">RegionRecord</text>
            <text x="1036" xml:space="preserve" y="221" clip-path="url(#clipPath50)" stroke="none">  purpose: RegionPurpose [1]</text>
            <text x="1036" xml:space="preserve" y="237" clip-path="url(#clipPath51)" stroke="none">  region: Region [1]</text>
            <line y2="206" fill="none" x1="1030" clip-path="url(#clipPath52)" x2="1271" y1="206"/>
            <rect x="1030" y="170" clip-path="url(#clipPath53)" fill="none" width="240" rx="0" ry="0" height="99"/>
            <rect x="1030" y="10" clip-path="url(#clipPath54)" fill="url(#linearGradient8)" width="241" height="100" stroke="none"/>
            <text x="1121" xml:space="preserve" y="26" clip-path="url(#clipPath55)" stroke="none">«DataType»</text>
            <text x="1141" xml:space="preserve" y="42" clip-path="url(#clipPath56)" stroke="none">Life</text>
            <text x="1036" xml:space="preserve" y="61" clip-path="url(#clipPath57)" stroke="none">  lifeType: LifeType [1]</text>
            <text x="1036" xml:space="preserve" y="77" clip-path="url(#clipPath58)" stroke="none">  lifespan: MeasuredTime [1]</text>
            <line y2="46" fill="none" x1="1030" clip-path="url(#clipPath59)" x2="1271" y1="46"/>
            <rect x="1030" y="10" clip-path="url(#clipPath60)" fill="none" width="240" rx="0" ry="0" height="99"/>
            <rect x="1030" y="330" clip-path="url(#clipPath61)" fill="url(#linearGradient9)" width="241" height="100" stroke="none"/>
            <text x="1121" xml:space="preserve" y="346" clip-path="url(#clipPath62)" stroke="none">«DataType»</text>
            <text x="1089" xml:space="preserve" y="362" clip-path="url(#clipPath63)" stroke="none">PurposedDimensionSet</text>
            <text x="1036" xml:space="preserve" y="381" clip-path="url(#clipPath64)" stroke="none">  purpose: DimensionPurpose [1]</text>
            <text x="1036" xml:space="preserve" y="397" clip-path="url(#clipPath65)" stroke="none">  dimensions: DimensionSet [1]</text>
            <line y2="366" fill="none" x1="1030" clip-path="url(#clipPath66)" x2="1271" y1="366"/>
            <rect x="1030" y="330" clip-path="url(#clipPath67)" fill="none" width="240" rx="0" ry="0" height="99"/>
            <rect x="710" y="490" clip-path="url(#clipPath68)" fill="url(#linearGradient10)" width="241" height="100" stroke="none"/>
            <text x="787" xml:space="preserve" y="506" clip-path="url(#clipPath69)" stroke="none">«ReferenceData»</text>
            <text x="781" xml:space="preserve" y="522" clip-path="url(#clipPath70)" stroke="none">DimensionPurpose</text>
            <line y2="526" fill="none" x1="710" clip-path="url(#clipPath71)" x2="951" y1="526"/>
            <rect x="710" y="490" clip-path="url(#clipPath72)" fill="none" width="240" rx="0" ry="0" height="99"/>
            <rect x="710" y="970" clip-path="url(#clipPath73)" fill="url(#linearGradient11)" width="241" height="100" stroke="none"/>
            <text x="787" xml:space="preserve" y="986" clip-path="url(#clipPath74)" stroke="none">«ReferenceData»</text>
            <text x="803" xml:space="preserve" y="1002" clip-path="url(#clipPath75)" stroke="none">NameType</text>
            <line y2="1006" fill="none" x1="710" clip-path="url(#clipPath76)" x2="951" y1="1006"/>
            <rect x="710" y="970" clip-path="url(#clipPath77)" fill="none" width="240" rx="0" ry="0" height="99"/>
            <rect x="1030" y="490" clip-path="url(#clipPath78)" fill="url(#linearGradient12)" width="241" height="100" stroke="none"/>
            <text x="1121" xml:space="preserve" y="506" clip-path="url(#clipPath79)" stroke="none">«DataType»</text>
            <text x="1135" xml:space="preserve" y="522" clip-path="url(#clipPath80)" stroke="none">Name</text>
            <text x="1036" xml:space="preserve" y="541" clip-path="url(#clipPath81)" stroke="none">  nameType: NameType [1]</text>
            <text x="1036" xml:space="preserve" y="557" clip-path="url(#clipPath82)" stroke="none">  value: String [1]</text>
            <line y2="526" fill="none" x1="1030" clip-path="url(#clipPath83)" x2="1271" y1="526"/>
            <rect x="1030" y="490" clip-path="url(#clipPath84)" fill="none" width="240" rx="0" ry="0" height="99"/>
            <line clip-path="url(#clipPath85)" fill="none" text-rendering="optimizeLegibility" x1="710" x2="650" y1="210" y2="210" stroke-dasharray="5,5,5,5,5,5,5,5,5,5"/>
            <line clip-path="url(#clipPath85)" fill="none" text-rendering="optimizeLegibility" x1="650" x2="650" y1="210" y2="110" stroke-dasharray="5,5,5,5,5,5,5,5,5,5"/>
        </g>
        <g stroke-linecap="butt" fill="white" text-rendering="optimizeLegibility" font-family="'Segoe UI'" stroke-dasharray="5,5,5,5,5,5,5,5,5,5" stroke="white" stroke-width="1.1">
            <polygon points=" 650 110 655 125 645 125" stroke="none" clip-path="url(#clipPath86)"/>
            <polygon fill="none" stroke-dasharray="none" clip-path="url(#clipPath86)" points=" 650 110 655 125 645 125" stroke="black"/>
            <line clip-path="url(#clipPath85)" fill="none" x1="710" x2="650" y1="370" y2="370" stroke="black"/>
            <line clip-path="url(#clipPath85)" fill="none" x1="650" x2="650" y1="370" y2="110" stroke="black"/>
            <polygon points=" 650 110 655 125 645 125" clip-path="url(#clipPath86)" stroke="none"/>
            <polygon fill="none" stroke-dasharray="none" clip-path="url(#clipPath86)" points=" 650 110 655 125 645 125" stroke="black"/>
            <line clip-path="url(#clipPath85)" fill="none" x1="710" x2="650" y1="850" y2="850" stroke="black"/>
            <line clip-path="url(#clipPath85)" fill="none" x1="650" x2="650" y1="850" y2="110" stroke="black"/>
            <polygon points=" 650 110 655 125 645 125" clip-path="url(#clipPath86)" stroke="none"/>
            <polygon fill="none" stroke-dasharray="none" clip-path="url(#clipPath86)" points=" 650 110 655 125 645 125" stroke="black"/>
            <line clip-path="url(#clipPath85)" fill="none" x1="710" x2="650" y1="690" y2="690" stroke="black"/>
            <line clip-path="url(#clipPath85)" fill="none" x1="650" x2="650" y1="690" y2="110" stroke="black"/>
            <polygon points=" 650 110 655 125 645 125" clip-path="url(#clipPath86)" stroke="none"/>
            <polygon fill="none" stroke-dasharray="none" clip-path="url(#clipPath86)" points=" 650 110 655 125 645 125" stroke="black"/>
            <line clip-path="url(#clipPath85)" fill="none" x1="710" x2="650" y1="530" y2="530" stroke="black"/>
            <line clip-path="url(#clipPath85)" fill="none" x1="650" x2="650" y1="530" y2="110" stroke="black"/>
            <polygon points=" 650 110 655 125 645 125" clip-path="url(#clipPath86)" stroke="none"/>
            <polygon fill="none" stroke-dasharray="none" clip-path="url(#clipPath86)" points=" 650 110 655 125 645 125" stroke="black"/>
            <line clip-path="url(#clipPath85)" fill="none" x1="710" x2="650" y1="1010" y2="1010" stroke="black"/>
            <line clip-path="url(#clipPath85)" fill="none" x1="650" x2="650" y1="1010" y2="110" stroke="black"/>
            <polygon points=" 650 110 655 125 645 125" clip-path="url(#clipPath86)" stroke="none"/>
            <polygon fill="none" stroke-dasharray="none" clip-path="url(#clipPath86)" points=" 650 110 655 125 645 125" stroke="black"/>
        </g>
    </g>
</svg>
