<?xml version="1.0" encoding="UTF-8"?><svg xmlns="http://www.w3.org/2000/svg" xmlns:xlink="http://www.w3.org/1999/xlink" stroke-dasharray="none" shape-rendering="auto" font-family="'Dialog'" width="1180" text-rendering="auto" fill-opacity="1" contentScriptType="text/ecmascript" color-interpolation="auto" color-rendering="auto" preserveAspectRatio="xMidYMid meet" font-size="12px" viewBox="0 0 1180 1240" fill="black" stroke="black" image-rendering="auto" stroke-miterlimit="10" zoomAndPan="magnify" version="1.0" stroke-linecap="square" stroke-linejoin="miter" contentStyleType="text/css" font-style="normal" height="1240" stroke-width="1" stroke-dashoffset="0" font-weight="normal" stroke-opacity="1">
    <!--Generated by the Batik Graphics2D SVG Generator-->
    <defs id="genericDefs"/>
    <g>
        <defs id="defs1">
            <linearGradient x1="190" x2="190" y1="490" gradientUnits="userSpaceOnUse" y2="590" xlink:type="simple" xlink:actuate="onLoad" id="linearGradient1" xlink:show="other" spreadMethod="pad">
                <stop stop-opacity="1" stop-color="white" offset="0%"/>
                <stop stop-opacity="1" stop-color="rgb(195,167,173)" offset="100%"/>
            </linearGradient>
            <linearGradient x1="550" x2="550" y1="810" gradientUnits="userSpaceOnUse" y2="910" xlink:type="simple" xlink:actuate="onLoad" id="linearGradient2" xlink:show="other" spreadMethod="pad">
                <stop stop-opacity="1" stop-color="white" offset="0%"/>
                <stop stop-opacity="1" stop-color="rgb(195,167,173)" offset="100%"/>
            </linearGradient>
            <linearGradient x1="370" x2="370" y1="650" gradientUnits="userSpaceOnUse" y2="750" xlink:type="simple" xlink:actuate="onLoad" id="linearGradient3" xlink:show="other" spreadMethod="pad">
                <stop stop-opacity="1" stop-color="white" offset="0%"/>
                <stop stop-opacity="1" stop-color="rgb(195,167,173)" offset="100%"/>
            </linearGradient>
            <linearGradient x1="370" x2="370" y1="1130" gradientUnits="userSpaceOnUse" y2="1230" xlink:type="simple" xlink:actuate="onLoad" id="linearGradient4" xlink:show="other" spreadMethod="pad">
                <stop stop-opacity="1" stop-color="white" offset="0%"/>
                <stop stop-opacity="1" stop-color="rgb(195,167,173)" offset="100%"/>
            </linearGradient>
            <linearGradient x1="930" x2="930" y1="650" gradientUnits="userSpaceOnUse" y2="750" xlink:type="simple" xlink:actuate="onLoad" id="linearGradient5" xlink:show="other" spreadMethod="pad">
                <stop stop-opacity="1" stop-color="white" offset="0%"/>
                <stop stop-opacity="1" stop-color="rgb(131,135,205)" offset="100%"/>
            </linearGradient>
            <linearGradient x1="550" x2="550" y1="970" gradientUnits="userSpaceOnUse" y2="1070" xlink:type="simple" xlink:actuate="onLoad" id="linearGradient6" xlink:show="other" spreadMethod="pad">
                <stop stop-opacity="1" stop-color="white" offset="0%"/>
                <stop stop-opacity="1" stop-color="rgb(195,167,173)" offset="100%"/>
            </linearGradient>
            <linearGradient x1="10" x2="10" y1="10" gradientUnits="userSpaceOnUse" y2="110" xlink:type="simple" xlink:actuate="onLoad" id="linearGradient7" xlink:show="other" spreadMethod="pad">
                <stop stop-opacity="1" stop-color="white" offset="0%"/>
                <stop stop-opacity="1" stop-color="rgb(131,135,205)" offset="100%"/>
            </linearGradient>
            <linearGradient x1="190" x2="190" y1="170" gradientUnits="userSpaceOnUse" y2="270" xlink:type="simple" xlink:actuate="onLoad" id="linearGradient8" xlink:show="other" spreadMethod="pad">
                <stop stop-opacity="1" stop-color="white" offset="0%"/>
                <stop stop-opacity="1" stop-color="rgb(195,167,173)" offset="100%"/>
            </linearGradient>
            <linearGradient x1="190" x2="190" y1="330" gradientUnits="userSpaceOnUse" y2="430" xlink:type="simple" xlink:actuate="onLoad" id="linearGradient9" xlink:show="other" spreadMethod="pad">
                <stop stop-opacity="1" stop-color="white" offset="0%"/>
                <stop stop-opacity="1" stop-color="rgb(195,167,173)" offset="100%"/>
            </linearGradient>
            <clipPath clipPathUnits="userSpaceOnUse" id="clipPath1">
                <path d="M190 490 L190 589 L430 589 L430 490 Z"/>
            </clipPath>
            <clipPath clipPathUnits="userSpaceOnUse" id="clipPath2">
                <path d="M263 492 L359 492 L359 509 L263 509 L263 492 Z"/>
            </clipPath>
            <clipPath clipPathUnits="userSpaceOnUse" id="clipPath3">
                <path d="M246 508 L376 508 L376 525 L246 525 L246 508 Z"/>
            </clipPath>
            <clipPath clipPathUnits="userSpaceOnUse" id="clipPath4">
                <path d="M195 527 L330 527 L330 544 L195 544 L195 527 Z"/>
            </clipPath>
            <clipPath clipPathUnits="userSpaceOnUse" id="clipPath5">
                <path d="M190 525 L432 525 L432 591 L190 591 L190 525 Z"/>
            </clipPath>
            <clipPath clipPathUnits="userSpaceOnUse" id="clipPath6">
                <path d="M189 489 L432 489 L432 591 L189 591 L189 489 Z"/>
            </clipPath>
            <clipPath clipPathUnits="userSpaceOnUse" id="clipPath7">
                <path d="M550 810 L550 909 L790 909 L790 810 Z"/>
            </clipPath>
            <clipPath clipPathUnits="userSpaceOnUse" id="clipPath8">
                <path d="M626 812 L717 812 L717 829 L626 829 L626 812 Z"/>
            </clipPath>
            <clipPath clipPathUnits="userSpaceOnUse" id="clipPath9">
                <path d="M621 828 L721 828 L721 845 L621 845 L621 828 Z"/>
            </clipPath>
            <clipPath clipPathUnits="userSpaceOnUse" id="clipPath10">
                <path d="M555 847 L727 847 L727 864 L555 864 L555 847 Z"/>
            </clipPath>
            <clipPath clipPathUnits="userSpaceOnUse" id="clipPath11">
                <path d="M550 845 L792 845 L792 911 L550 911 L550 845 Z"/>
            </clipPath>
            <clipPath clipPathUnits="userSpaceOnUse" id="clipPath12">
                <path d="M549 809 L792 809 L792 911 L549 911 L549 809 Z"/>
            </clipPath>
            <clipPath clipPathUnits="userSpaceOnUse" id="clipPath13">
                <path d="M370 650 L370 749 L610 749 L610 650 Z"/>
            </clipPath>
            <clipPath clipPathUnits="userSpaceOnUse" id="clipPath14">
                <path d="M443 652 L539 652 L539 669 L443 669 L443 652 Z"/>
            </clipPath>
            <clipPath clipPathUnits="userSpaceOnUse" id="clipPath15">
                <path d="M434 668 L548 668 L548 685 L434 685 L434 668 Z"/>
            </clipPath>
            <clipPath clipPathUnits="userSpaceOnUse" id="clipPath16">
                <path d="M370 685 L612 685 L612 751 L370 751 L370 685 Z"/>
            </clipPath>
            <clipPath clipPathUnits="userSpaceOnUse" id="clipPath17">
                <path d="M369 649 L612 649 L612 751 L369 751 L369 649 Z"/>
            </clipPath>
            <clipPath clipPathUnits="userSpaceOnUse" id="clipPath18">
                <path d="M370 1130 L370 1229 L630 1229 L630 1130 Z"/>
            </clipPath>
            <clipPath clipPathUnits="userSpaceOnUse" id="clipPath19">
                <path d="M456 1132 L547 1132 L547 1149 L456 1149 L456 1132 Z"/>
            </clipPath>
            <clipPath clipPathUnits="userSpaceOnUse" id="clipPath20">
                <path d="M476 1148 L526 1148 L526 1165 L476 1165 L476 1148 Z"/>
            </clipPath>
            <clipPath clipPathUnits="userSpaceOnUse" id="clipPath21">
                <path d="M370 1165 L632 1165 L632 1231 L370 1231 L370 1165 Z"/>
            </clipPath>
            <clipPath clipPathUnits="userSpaceOnUse" id="clipPath22">
                <path d="M369 1129 L632 1129 L632 1231 L369 1231 L369 1129 Z"/>
            </clipPath>
            <clipPath clipPathUnits="userSpaceOnUse" id="clipPath23">
                <path d="M930 650 L930 749 L1169 749 L1169 650 Z"/>
            </clipPath>
            <clipPath clipPathUnits="userSpaceOnUse" id="clipPath24">
                <path d="M1020 652 L1081 652 L1081 669 L1020 669 L1020 652 Z"/>
            </clipPath>
            <clipPath clipPathUnits="userSpaceOnUse" id="clipPath25">
                <path d="M996 668 L1106 668 L1106 685 L996 685 L996 668 Z"/>
            </clipPath>
            <clipPath clipPathUnits="userSpaceOnUse" id="clipPath26">
                <path d="M930 685 L1171 685 L1171 751 L930 751 L930 685 Z"/>
            </clipPath>
            <clipPath clipPathUnits="userSpaceOnUse" id="clipPath27">
                <path d="M929 649 L1171 649 L1171 751 L929 751 L929 649 Z"/>
            </clipPath>
            <clipPath clipPathUnits="userSpaceOnUse" id="clipPath28">
                <path d="M550 970 L550 1069 L790 1069 L790 970 Z"/>
            </clipPath>
            <clipPath clipPathUnits="userSpaceOnUse" id="clipPath29">
                <path d="M626 972 L717 972 L717 989 L626 989 L626 972 Z"/>
            </clipPath>
            <clipPath clipPathUnits="userSpaceOnUse" id="clipPath30">
                <path d="M598 988 L744 988 L744 1005 L598 1005 L598 988 Z"/>
            </clipPath>
            <clipPath clipPathUnits="userSpaceOnUse" id="clipPath31">
                <path d="M550 1005 L792 1005 L792 1071 L550 1071 L550 1005 Z"/>
            </clipPath>
            <clipPath clipPathUnits="userSpaceOnUse" id="clipPath32">
                <path d="M549 969 L792 969 L792 1071 L549 1071 L549 969 Z"/>
            </clipPath>
            <clipPath clipPathUnits="userSpaceOnUse" id="clipPath33">
                <path d="M10 10 L10 109 L250 109 L250 10 Z"/>
            </clipPath>
            <clipPath clipPathUnits="userSpaceOnUse" id="clipPath34">
                <path d="M101 12 L162 12 L162 29 L101 29 L101 12 Z"/>
            </clipPath>
            <clipPath clipPathUnits="userSpaceOnUse" id="clipPath35">
                <path d="M72 28 L191 28 L191 45 L72 45 L72 28 Z"/>
            </clipPath>
            <clipPath clipPathUnits="userSpaceOnUse" id="clipPath36">
                <path d="M15 47 L214 47 L214 64 L15 64 L15 47 Z"/>
            </clipPath>
            <clipPath clipPathUnits="userSpaceOnUse" id="clipPath37">
                <path d="M10 45 L252 45 L252 111 L10 111 L10 45 Z"/>
            </clipPath>
            <clipPath clipPathUnits="userSpaceOnUse" id="clipPath38">
                <path d="M9 9 L252 9 L252 111 L9 111 L9 9 Z"/>
            </clipPath>
            <clipPath clipPathUnits="userSpaceOnUse" id="clipPath39">
                <path d="M190 170 L190 269 L430 269 L430 170 Z"/>
            </clipPath>
            <clipPath clipPathUnits="userSpaceOnUse" id="clipPath40">
                <path d="M266 172 L357 172 L357 189 L266 189 L266 172 Z"/>
            </clipPath>
            <clipPath clipPathUnits="userSpaceOnUse" id="clipPath41">
                <path d="M274 188 L348 188 L348 205 L274 205 L274 188 Z"/>
            </clipPath>
            <clipPath clipPathUnits="userSpaceOnUse" id="clipPath42">
                <path d="M190 205 L432 205 L432 271 L190 271 L190 205 Z"/>
            </clipPath>
            <clipPath clipPathUnits="userSpaceOnUse" id="clipPath43">
                <path d="M189 169 L432 169 L432 271 L189 271 L189 169 Z"/>
            </clipPath>
            <clipPath clipPathUnits="userSpaceOnUse" id="clipPath44">
                <path d="M190 330 L190 429 L430 429 L430 330 Z"/>
            </clipPath>
            <clipPath clipPathUnits="userSpaceOnUse" id="clipPath45">
                <path d="M266 332 L357 332 L357 349 L266 349 L266 332 Z"/>
            </clipPath>
            <clipPath clipPathUnits="userSpaceOnUse" id="clipPath46">
                <path d="M283 348 L339 348 L339 365 L283 365 L283 348 Z"/>
            </clipPath>
            <clipPath clipPathUnits="userSpaceOnUse" id="clipPath47">
                <path d="M195 367 L339 367 L339 384 L195 384 L195 367 Z"/>
            </clipPath>
            <clipPath clipPathUnits="userSpaceOnUse" id="clipPath48">
                <path d="M190 365 L432 365 L432 431 L190 431 L190 365 Z"/>
            </clipPath>
            <clipPath clipPathUnits="userSpaceOnUse" id="clipPath49">
                <path d="M189 329 L432 329 L432 431 L189 431 L189 329 Z"/>
            </clipPath>
            <clipPath clipPathUnits="userSpaceOnUse" id="clipPath50">
                <path d="M-1 -1 L1181 -1 L1181 1241 L-1 1241 L-1 -1 Z"/>
            </clipPath>
            <clipPath clipPathUnits="userSpaceOnUse" id="clipPath51">
                <path d="M481 749 L500 749 L500 762 L481 762 L481 749 Z"/>
            </clipPath>
            <clipPath clipPathUnits="userSpaceOnUse" id="clipPath52">
                <path d="M301 589 L320 589 L320 602 L301 602 L301 589 Z"/>
            </clipPath>
            <clipPath clipPathUnits="userSpaceOnUse" id="clipPath53">
                <path d="M1044 749 L1057 749 L1057 767 L1044 767 L1044 749 Z"/>
            </clipPath>
            <clipPath clipPathUnits="userSpaceOnUse" id="clipPath54">
                <path d="M886 662 L909 662 L909 679 L886 679 L886 662 Z"/>
            </clipPath>
            <clipPath clipPathUnits="userSpaceOnUse" id="clipPath55">
                <path d="M638 703 L650 703 L650 720 L638 720 L638 703 Z"/>
            </clipPath>
            <clipPath clipPathUnits="userSpaceOnUse" id="clipPath56">
                <path d="M124 109 L137 109 L137 127 L124 127 L124 109 Z"/>
            </clipPath>
        </defs>
        <g fill="url(#linearGradient1)" stroke-miterlimit="0" stroke-width="0" font-family="'Segoe UI'" stroke="url(#linearGradient1)" stroke-linejoin="round">
            <rect x="190" width="241" height="100" y="490" clip-path="url(#clipPath1)" stroke="none"/>
            <text x="264" y="506" clip-path="url(#clipPath2)" fill="rgb(169,169,169)" font-style="italic" stroke="none" xml:space="preserve">«ReferenceData»</text>
            <text x="247" y="522" clip-path="url(#clipPath3)" fill="rgb(169,169,169)" font-style="italic" stroke="none" xml:space="preserve">SegmentHierarchyNode</text>
            <text fill="black" x="196" xml:space="preserve" y="541" clip-path="url(#clipPath4)" stroke="none">  nodeType: NodeType [1]</text>
        </g>
        <g stroke-linecap="butt" font-family="'Segoe UI'" stroke-width="1.1">
            <line y2="526" fill="none" x1="190" clip-path="url(#clipPath5)" x2="431" y1="526"/>
            <rect x="190" y="490" clip-path="url(#clipPath6)" fill="none" width="240" rx="0" ry="0" height="99"/>
            <rect x="550" y="810" clip-path="url(#clipPath7)" fill="url(#linearGradient2)" width="241" height="100" stroke="none"/>
            <text x="627" xml:space="preserve" y="826" clip-path="url(#clipPath8)" stroke="none">«ReferenceData»</text>
            <text x="622" xml:space="preserve" y="842" clip-path="url(#clipPath9)" stroke="none">SegmentHierarchy</text>
            <text x="556" xml:space="preserve" y="861" clip-path="url(#clipPath10)" stroke="none">  segmentType: SegmentType [1]</text>
            <line y2="846" fill="none" x1="550" clip-path="url(#clipPath11)" x2="791" y1="846"/>
            <rect x="550" y="810" clip-path="url(#clipPath12)" fill="none" width="240" rx="0" ry="0" height="99"/>
            <rect x="370" y="650" clip-path="url(#clipPath13)" fill="url(#linearGradient3)" width="241" height="100" stroke="none"/>
            <text x="444" y="666" clip-path="url(#clipPath14)" fill="rgb(169,169,169)" font-style="italic" stroke="none" xml:space="preserve">«ReferenceData»</text>
            <text x="435" y="682" clip-path="url(#clipPath15)" fill="rgb(169,169,169)" font-style="italic" stroke="none" xml:space="preserve">ParentSegmentNode</text>
            <line y2="686" fill="none" x1="370" clip-path="url(#clipPath16)" x2="611" y1="686"/>
            <rect x="370" y="650" clip-path="url(#clipPath17)" fill="none" width="240" rx="0" ry="0" height="99"/>
            <rect x="370" y="1130" clip-path="url(#clipPath18)" fill="url(#linearGradient4)" width="261" height="100" stroke="none"/>
            <text x="457" xml:space="preserve" y="1146" clip-path="url(#clipPath19)" stroke="none">«ReferenceData»</text>
            <text x="477" xml:space="preserve" y="1162" clip-path="url(#clipPath20)" stroke="none">Segment</text>
            <line y2="1166" fill="none" x1="370" clip-path="url(#clipPath21)" x2="631" y1="1166"/>
            <rect x="370" y="1130" clip-path="url(#clipPath22)" fill="none" width="260" rx="0" ry="0" height="99"/>
            <rect x="930" y="650" clip-path="url(#clipPath23)" fill="url(#linearGradient5)" width="240" height="100" stroke="none"/>
            <text x="1021" xml:space="preserve" y="666" clip-path="url(#clipPath24)" stroke="none">«Interface»</text>
            <text x="997" xml:space="preserve" y="682" clip-path="url(#clipPath25)" stroke="none">IChildSegmentNode</text>
            <line y2="686" fill="none" x1="930" clip-path="url(#clipPath26)" x2="1170" y1="686"/>
            <rect x="930" y="650" clip-path="url(#clipPath27)" fill="none" width="239" rx="0" ry="0" height="99"/>
            <rect x="550" y="970" clip-path="url(#clipPath28)" fill="url(#linearGradient6)" width="241" height="100" stroke="none"/>
            <text x="627" xml:space="preserve" y="986" clip-path="url(#clipPath29)" stroke="none">«ReferenceData»</text>
            <text x="599" xml:space="preserve" y="1002" clip-path="url(#clipPath30)" stroke="none">IntermediateSegmentNode</text>
            <line y2="1006" fill="none" x1="550" clip-path="url(#clipPath31)" x2="791" y1="1006"/>
            <rect x="550" y="970" clip-path="url(#clipPath32)" fill="none" width="240" rx="0" ry="0" height="99"/>
            <rect x="10" y="10" clip-path="url(#clipPath33)" fill="url(#linearGradient7)" width="241" height="100" stroke="none"/>
            <text x="102" xml:space="preserve" y="26" clip-path="url(#clipPath34)" stroke="none">«Interface»</text>
            <text x="73" xml:space="preserve" y="42" clip-path="url(#clipPath35)" stroke="none">IControlledVocabulary</text>
            <text x="16" xml:space="preserve" y="61" clip-path="url(#clipPath36)" stroke="none">«ReferenceCode»   code: Identifier [1]</text>
            <line y2="46" fill="none" x1="10" clip-path="url(#clipPath37)" x2="251" y1="46"/>
            <rect x="10" y="10" clip-path="url(#clipPath38)" fill="none" width="240" rx="0" ry="0" height="99"/>
            <rect x="190" y="170" clip-path="url(#clipPath39)" fill="url(#linearGradient8)" width="241" height="100" stroke="none"/>
            <text x="267" xml:space="preserve" y="186" clip-path="url(#clipPath40)" stroke="none">«ReferenceData»</text>
            <text x="275" xml:space="preserve" y="202" clip-path="url(#clipPath41)" stroke="none">SegmentType</text>
            <line y2="206" fill="none" x1="190" clip-path="url(#clipPath42)" x2="431" y1="206"/>
            <rect x="190" y="170" clip-path="url(#clipPath43)" fill="none" width="240" rx="0" ry="0" height="99"/>
            <rect x="190" y="330" clip-path="url(#clipPath44)" fill="url(#linearGradient9)" width="241" height="100" stroke="none"/>
            <text x="267" xml:space="preserve" y="346" clip-path="url(#clipPath45)" stroke="none">«ReferenceData»</text>
            <text x="284" xml:space="preserve" y="362" clip-path="url(#clipPath46)" stroke="none">NodeType</text>
            <text x="196" xml:space="preserve" y="381" clip-path="url(#clipPath47)" stroke="none">  validFor: SegmentType [1]</text>
            <line y2="366" fill="none" x1="190" clip-path="url(#clipPath48)" x2="431" y1="366"/>
            <rect x="190" y="330" clip-path="url(#clipPath49)" fill="none" width="240" rx="0" ry="0" height="99"/>
            <line clip-path="url(#clipPath50)" fill="none" text-rendering="optimizeLegibility" x1="550" x2="490" y1="850" y2="850"/>
            <line clip-path="url(#clipPath50)" fill="none" text-rendering="optimizeLegibility" x1="490" x2="490" y1="850" y2="750"/>
            <polygon fill="white" text-rendering="optimizeLegibility" clip-path="url(#clipPath51)" points=" 490 750 498 760 482 760" stroke="none"/>
            <polygon fill="none" text-rendering="optimizeLegibility" clip-path="url(#clipPath51)" points=" 490 750 498 760 482 760"/>
            <line clip-path="url(#clipPath50)" fill="none" text-rendering="optimizeLegibility" x1="370" x2="310" y1="690" y2="690"/>
            <line clip-path="url(#clipPath50)" fill="none" text-rendering="optimizeLegibility" x1="310" x2="310" y1="690" y2="590"/>
            <polygon fill="white" text-rendering="optimizeLegibility" clip-path="url(#clipPath52)" points=" 310 590 318 600 302 600" stroke="none"/>
            <polygon fill="none" text-rendering="optimizeLegibility" clip-path="url(#clipPath52)" points=" 310 590 318 600 302 600"/>
            <line clip-path="url(#clipPath50)" fill="none" text-rendering="optimizeLegibility" x1="370" x2="310" y1="1170" y2="1170"/>
            <line clip-path="url(#clipPath50)" fill="none" text-rendering="optimizeLegibility" x1="310" x2="310" y1="1170" y2="590"/>
            <polygon fill="white" text-rendering="optimizeLegibility" clip-path="url(#clipPath52)" points=" 310 590 318 600 302 600" stroke="none"/>
            <polygon fill="none" text-rendering="optimizeLegibility" clip-path="url(#clipPath52)" points=" 310 590 318 600 302 600"/>
            <line clip-path="url(#clipPath50)" fill="none" text-rendering="optimizeLegibility" x1="631" x2="1050" y1="1170" y2="1170" stroke-dasharray="5,5,5,5,5,5,5,5,5,5"/>
            <line clip-path="url(#clipPath50)" fill="none" text-rendering="optimizeLegibility" x1="1050" x2="1050" y1="1170" y2="750" stroke-dasharray="5,5,5,5,5,5,5,5,5,5"/>
        </g>
        <g stroke-linecap="butt" fill="white" text-rendering="optimizeLegibility" font-family="'Segoe UI'" stroke-dasharray="5,5,5,5,5,5,5,5,5,5" stroke="white" stroke-width="1.1">
            <polygon points=" 1050 750 1055 765 1045 765" stroke="none" clip-path="url(#clipPath53)"/>
            <polygon fill="none" stroke-dasharray="none" clip-path="url(#clipPath53)" points=" 1050 750 1055 765 1045 765" stroke="black"/>
            <line clip-path="url(#clipPath50)" fill="none" x1="930" x2="611" y1="690" y2="690" stroke-dasharray="none" stroke="black"/>
            <text x="887" y="676" clip-path="url(#clipPath54)" fill="black" stroke-dasharray="none" stroke="none" xml:space="preserve"> 1..*</text>
            <text x="639" y="717" clip-path="url(#clipPath55)" fill="black" stroke-dasharray="none" stroke="none" xml:space="preserve"> 1</text>
            <line clip-path="url(#clipPath50)" fill="none" x1="791" x2="1050" y1="1010" y2="1010" stroke="black"/>
            <line clip-path="url(#clipPath50)" fill="none" x1="1050" x2="1050" y1="1010" y2="750" stroke="black"/>
            <polygon points=" 1050 750 1055 765 1045 765" clip-path="url(#clipPath53)" stroke="none"/>
            <polygon fill="none" stroke-dasharray="none" clip-path="url(#clipPath53)" points=" 1050 750 1055 765 1045 765" stroke="black"/>
            <line clip-path="url(#clipPath50)" fill="none" x1="550" x2="490" y1="1010" y2="1010" stroke-dasharray="none" stroke="black"/>
            <line clip-path="url(#clipPath50)" fill="none" x1="490" x2="490" y1="1010" y2="750" stroke-dasharray="none" stroke="black"/>
            <polygon stroke-dasharray="none" clip-path="url(#clipPath51)" points=" 490 750 498 760 482 760" stroke="none"/>
            <polygon fill="none" stroke-dasharray="none" clip-path="url(#clipPath51)" points=" 490 750 498 760 482 760" stroke="black"/>
            <line clip-path="url(#clipPath50)" fill="none" x1="190" x2="130" y1="530" y2="530" stroke="black"/>
            <line clip-path="url(#clipPath50)" fill="none" x1="130" x2="130" y1="530" y2="110" stroke="black"/>
            <polygon points=" 130 110 135 125 125 125" clip-path="url(#clipPath56)" stroke="none"/>
            <polygon fill="none" stroke-dasharray="none" clip-path="url(#clipPath56)" points=" 130 110 135 125 125 125" stroke="black"/>
            <line clip-path="url(#clipPath50)" fill="none" x1="190" x2="130" y1="210" y2="210" stroke="black"/>
            <line clip-path="url(#clipPath50)" fill="none" x1="130" x2="130" y1="210" y2="110" stroke="black"/>
            <polygon points=" 130 110 135 125 125 125" clip-path="url(#clipPath56)" stroke="none"/>
            <polygon fill="none" stroke-dasharray="none" clip-path="url(#clipPath56)" points=" 130 110 135 125 125 125" stroke="black"/>
            <line clip-path="url(#clipPath50)" fill="none" x1="190" x2="130" y1="370" y2="370" stroke="black"/>
            <line clip-path="url(#clipPath50)" fill="none" x1="130" x2="130" y1="370" y2="110" stroke="black"/>
            <polygon points=" 130 110 135 125 125 125" clip-path="url(#clipPath56)" stroke="none"/>
            <polygon fill="none" stroke-dasharray="none" clip-path="url(#clipPath56)" points=" 130 110 135 125 125 125" stroke="black"/>
        </g>
    </g>
</svg>
