<?xml version="1.0" encoding="UTF-8"?><svg xmlns="http://www.w3.org/2000/svg" xmlns:xlink="http://www.w3.org/1999/xlink" stroke-dasharray="none" shape-rendering="auto" font-family="'Dialog'" width="1180" text-rendering="auto" fill-opacity="1" contentScriptType="text/ecmascript" color-interpolation="auto" color-rendering="auto" preserveAspectRatio="xMidYMid meet" font-size="12px" viewBox="0 0 1180 940" fill="black" stroke="black" image-rendering="auto" stroke-miterlimit="10" zoomAndPan="magnify" version="1.0" stroke-linecap="square" stroke-linejoin="miter" contentStyleType="text/css" font-style="normal" height="940" stroke-width="1" stroke-dashoffset="0" font-weight="normal" stroke-opacity="1">
    <!--Generated by the Batik Graphics2D SVG Generator-->
    <defs id="genericDefs"/>
    <g>
        <defs id="defs1">
            <linearGradient x1="190" x2="190" y1="170" gradientUnits="userSpaceOnUse" y2="270" xlink:type="simple" xlink:actuate="onLoad" id="linearGradient1" xlink:show="other" spreadMethod="pad">
                <stop stop-opacity="1" stop-color="white" offset="0%"/>
                <stop stop-opacity="1" stop-color="rgb(195,167,173)" offset="100%"/>
            </linearGradient>
            <linearGradient x1="550" x2="550" y1="510" gradientUnits="userSpaceOnUse" y2="610" xlink:type="simple" xlink:actuate="onLoad" id="linearGradient2" xlink:show="other" spreadMethod="pad">
                <stop stop-opacity="1" stop-color="white" offset="0%"/>
                <stop stop-opacity="1" stop-color="rgb(195,167,173)" offset="100%"/>
            </linearGradient>
            <linearGradient x1="370" x2="370" y1="330" gradientUnits="userSpaceOnUse" y2="430" xlink:type="simple" xlink:actuate="onLoad" id="linearGradient3" xlink:show="other" spreadMethod="pad">
                <stop stop-opacity="1" stop-color="white" offset="0%"/>
                <stop stop-opacity="1" stop-color="rgb(195,167,173)" offset="100%"/>
            </linearGradient>
            <linearGradient x1="370" x2="370" y1="830" gradientUnits="userSpaceOnUse" y2="930" xlink:type="simple" xlink:actuate="onLoad" id="linearGradient4" xlink:show="other" spreadMethod="pad">
                <stop stop-opacity="1" stop-color="white" offset="0%"/>
                <stop stop-opacity="1" stop-color="rgb(195,167,173)" offset="100%"/>
            </linearGradient>
            <linearGradient x1="930" x2="930" y1="330" gradientUnits="userSpaceOnUse" y2="430" xlink:type="simple" xlink:actuate="onLoad" id="linearGradient5" xlink:show="other" spreadMethod="pad">
                <stop stop-opacity="1" stop-color="white" offset="0%"/>
                <stop stop-opacity="1" stop-color="rgb(131,135,205)" offset="100%"/>
            </linearGradient>
            <linearGradient x1="550" x2="550" y1="670" gradientUnits="userSpaceOnUse" y2="770" xlink:type="simple" xlink:actuate="onLoad" id="linearGradient6" xlink:show="other" spreadMethod="pad">
                <stop stop-opacity="1" stop-color="white" offset="0%"/>
                <stop stop-opacity="1" stop-color="rgb(195,167,173)" offset="100%"/>
            </linearGradient>
            <linearGradient x1="10" x2="10" y1="10" gradientUnits="userSpaceOnUse" y2="110" xlink:type="simple" xlink:actuate="onLoad" id="linearGradient7" xlink:show="other" spreadMethod="pad">
                <stop stop-opacity="1" stop-color="white" offset="0%"/>
                <stop stop-opacity="1" stop-color="rgb(131,135,205)" offset="100%"/>
            </linearGradient>
            <clipPath clipPathUnits="userSpaceOnUse" id="clipPath1">
                <path d="M190 170 L190 269 L430 269 L430 170 Z"/>
            </clipPath>
            <clipPath clipPathUnits="userSpaceOnUse" id="clipPath2">
                <path d="M263 172 L359 172 L359 189 L263 189 L263 172 Z"/>
            </clipPath>
            <clipPath clipPathUnits="userSpaceOnUse" id="clipPath3">
                <path d="M246 188 L376 188 L376 205 L246 205 L246 188 Z"/>
            </clipPath>
            <clipPath clipPathUnits="userSpaceOnUse" id="clipPath4">
                <path d="M190 205 L432 205 L432 271 L190 271 L190 205 Z"/>
            </clipPath>
            <clipPath clipPathUnits="userSpaceOnUse" id="clipPath5">
                <path d="M189 169 L432 169 L432 271 L189 271 L189 169 Z"/>
            </clipPath>
            <clipPath clipPathUnits="userSpaceOnUse" id="clipPath6">
                <path d="M550 510 L550 609 L790 609 L790 510 Z"/>
            </clipPath>
            <clipPath clipPathUnits="userSpaceOnUse" id="clipPath7">
                <path d="M626 512 L717 512 L717 529 L626 529 L626 512 Z"/>
            </clipPath>
            <clipPath clipPathUnits="userSpaceOnUse" id="clipPath8">
                <path d="M621 528 L721 528 L721 545 L621 545 L621 528 Z"/>
            </clipPath>
            <clipPath clipPathUnits="userSpaceOnUse" id="clipPath9">
                <path d="M550 545 L792 545 L792 611 L550 611 L550 545 Z"/>
            </clipPath>
            <clipPath clipPathUnits="userSpaceOnUse" id="clipPath10">
                <path d="M549 509 L792 509 L792 611 L549 611 L549 509 Z"/>
            </clipPath>
            <clipPath clipPathUnits="userSpaceOnUse" id="clipPath11">
                <path d="M370 330 L370 429 L610 429 L610 330 Z"/>
            </clipPath>
            <clipPath clipPathUnits="userSpaceOnUse" id="clipPath12">
                <path d="M443 332 L539 332 L539 349 L443 349 L443 332 Z"/>
            </clipPath>
            <clipPath clipPathUnits="userSpaceOnUse" id="clipPath13">
                <path d="M434 348 L548 348 L548 365 L434 365 L434 348 Z"/>
            </clipPath>
            <clipPath clipPathUnits="userSpaceOnUse" id="clipPath14">
                <path d="M370 365 L612 365 L612 431 L370 431 L370 365 Z"/>
            </clipPath>
            <clipPath clipPathUnits="userSpaceOnUse" id="clipPath15">
                <path d="M369 329 L612 329 L612 431 L369 431 L369 329 Z"/>
            </clipPath>
            <clipPath clipPathUnits="userSpaceOnUse" id="clipPath16">
                <path d="M370 830 L370 929 L630 929 L630 830 Z"/>
            </clipPath>
            <clipPath clipPathUnits="userSpaceOnUse" id="clipPath17">
                <path d="M456 832 L547 832 L547 849 L456 849 L456 832 Z"/>
            </clipPath>
            <clipPath clipPathUnits="userSpaceOnUse" id="clipPath18">
                <path d="M476 848 L526 848 L526 865 L476 865 L476 848 Z"/>
            </clipPath>
            <clipPath clipPathUnits="userSpaceOnUse" id="clipPath19">
                <path d="M370 865 L632 865 L632 931 L370 931 L370 865 Z"/>
            </clipPath>
            <clipPath clipPathUnits="userSpaceOnUse" id="clipPath20">
                <path d="M369 829 L632 829 L632 931 L369 931 L369 829 Z"/>
            </clipPath>
            <clipPath clipPathUnits="userSpaceOnUse" id="clipPath21">
                <path d="M930 330 L930 429 L1169 429 L1169 330 Z"/>
            </clipPath>
            <clipPath clipPathUnits="userSpaceOnUse" id="clipPath22">
                <path d="M1020 332 L1081 332 L1081 349 L1020 349 L1020 332 Z"/>
            </clipPath>
            <clipPath clipPathUnits="userSpaceOnUse" id="clipPath23">
                <path d="M996 348 L1106 348 L1106 365 L996 365 L996 348 Z"/>
            </clipPath>
            <clipPath clipPathUnits="userSpaceOnUse" id="clipPath24">
                <path d="M930 365 L1171 365 L1171 431 L930 431 L930 365 Z"/>
            </clipPath>
            <clipPath clipPathUnits="userSpaceOnUse" id="clipPath25">
                <path d="M929 329 L1171 329 L1171 431 L929 431 L929 329 Z"/>
            </clipPath>
            <clipPath clipPathUnits="userSpaceOnUse" id="clipPath26">
                <path d="M550 670 L550 769 L790 769 L790 670 Z"/>
            </clipPath>
            <clipPath clipPathUnits="userSpaceOnUse" id="clipPath27">
                <path d="M626 672 L717 672 L717 689 L626 689 L626 672 Z"/>
            </clipPath>
            <clipPath clipPathUnits="userSpaceOnUse" id="clipPath28">
                <path d="M598 688 L744 688 L744 705 L598 705 L598 688 Z"/>
            </clipPath>
            <clipPath clipPathUnits="userSpaceOnUse" id="clipPath29">
                <path d="M550 705 L792 705 L792 771 L550 771 L550 705 Z"/>
            </clipPath>
            <clipPath clipPathUnits="userSpaceOnUse" id="clipPath30">
                <path d="M549 669 L792 669 L792 771 L549 771 L549 669 Z"/>
            </clipPath>
            <clipPath clipPathUnits="userSpaceOnUse" id="clipPath31">
                <path d="M10 10 L10 109 L250 109 L250 10 Z"/>
            </clipPath>
            <clipPath clipPathUnits="userSpaceOnUse" id="clipPath32">
                <path d="M101 12 L162 12 L162 29 L101 29 L101 12 Z"/>
            </clipPath>
            <clipPath clipPathUnits="userSpaceOnUse" id="clipPath33">
                <path d="M72 28 L191 28 L191 45 L72 45 L72 28 Z"/>
            </clipPath>
            <clipPath clipPathUnits="userSpaceOnUse" id="clipPath34">
                <path d="M15 47 L214 47 L214 64 L15 64 L15 47 Z"/>
            </clipPath>
            <clipPath clipPathUnits="userSpaceOnUse" id="clipPath35">
                <path d="M10 45 L252 45 L252 111 L10 111 L10 45 Z"/>
            </clipPath>
            <clipPath clipPathUnits="userSpaceOnUse" id="clipPath36">
                <path d="M9 9 L252 9 L252 111 L9 111 L9 9 Z"/>
            </clipPath>
            <clipPath clipPathUnits="userSpaceOnUse" id="clipPath37">
                <path d="M-1 -1 L1181 -1 L1181 941 L-1 941 L-1 -1 Z"/>
            </clipPath>
            <clipPath clipPathUnits="userSpaceOnUse" id="clipPath38">
                <path d="M481 429 L500 429 L500 442 L481 442 L481 429 Z"/>
            </clipPath>
            <clipPath clipPathUnits="userSpaceOnUse" id="clipPath39">
                <path d="M301 269 L320 269 L320 282 L301 282 L301 269 Z"/>
            </clipPath>
            <clipPath clipPathUnits="userSpaceOnUse" id="clipPath40">
                <path d="M1044 429 L1057 429 L1057 447 L1044 447 L1044 429 Z"/>
            </clipPath>
            <clipPath clipPathUnits="userSpaceOnUse" id="clipPath41">
                <path d="M886 342 L909 342 L909 359 L886 359 L886 342 Z"/>
            </clipPath>
            <clipPath clipPathUnits="userSpaceOnUse" id="clipPath42">
                <path d="M638 383 L650 383 L650 400 L638 400 L638 383 Z"/>
            </clipPath>
            <clipPath clipPathUnits="userSpaceOnUse" id="clipPath43">
                <path d="M124 109 L137 109 L137 127 L124 127 L124 109 Z"/>
            </clipPath>
        </defs>
        <g fill="url(#linearGradient1)" stroke-miterlimit="0" stroke-width="0" font-family="'Segoe UI'" stroke="url(#linearGradient1)" stroke-linejoin="round">
            <rect x="190" width="241" height="100" y="170" clip-path="url(#clipPath1)" stroke="none"/>
            <text x="264" y="186" clip-path="url(#clipPath2)" fill="rgb(169,169,169)" font-style="italic" stroke="none" xml:space="preserve">«ReferenceData»</text>
            <text x="247" y="202" clip-path="url(#clipPath3)" fill="rgb(169,169,169)" font-style="italic" stroke="none" xml:space="preserve">SegmentHierarchyNode</text>
        </g>
        <g stroke-linecap="butt" font-family="'Segoe UI'" stroke-width="1.1">
            <line y2="206" fill="none" x1="190" clip-path="url(#clipPath4)" x2="431" y1="206"/>
            <rect x="190" y="170" clip-path="url(#clipPath5)" fill="none" width="240" rx="0" ry="0" height="99"/>
            <rect x="550" y="510" clip-path="url(#clipPath6)" fill="url(#linearGradient2)" width="241" height="100" stroke="none"/>
            <text x="627" xml:space="preserve" y="526" clip-path="url(#clipPath7)" stroke="none">«ReferenceData»</text>
            <text x="622" xml:space="preserve" y="542" clip-path="url(#clipPath8)" stroke="none">SegmentHierarchy</text>
            <line y2="546" fill="none" x1="550" clip-path="url(#clipPath9)" x2="791" y1="546"/>
            <rect x="550" y="510" clip-path="url(#clipPath10)" fill="none" width="240" rx="0" ry="0" height="99"/>
            <rect x="370" y="330" clip-path="url(#clipPath11)" fill="url(#linearGradient3)" width="241" height="100" stroke="none"/>
            <text x="444" y="346" clip-path="url(#clipPath12)" fill="rgb(169,169,169)" font-style="italic" stroke="none" xml:space="preserve">«ReferenceData»</text>
            <text x="435" y="362" clip-path="url(#clipPath13)" fill="rgb(169,169,169)" font-style="italic" stroke="none" xml:space="preserve">ParentSegmentNode</text>
            <line y2="366" fill="none" x1="370" clip-path="url(#clipPath14)" x2="611" y1="366"/>
            <rect x="370" y="330" clip-path="url(#clipPath15)" fill="none" width="240" rx="0" ry="0" height="99"/>
            <rect x="370" y="830" clip-path="url(#clipPath16)" fill="url(#linearGradient4)" width="261" height="100" stroke="none"/>
            <text x="457" xml:space="preserve" y="846" clip-path="url(#clipPath17)" stroke="none">«ReferenceData»</text>
            <text x="477" xml:space="preserve" y="862" clip-path="url(#clipPath18)" stroke="none">Segment</text>
            <line y2="866" fill="none" x1="370" clip-path="url(#clipPath19)" x2="631" y1="866"/>
            <rect x="370" y="830" clip-path="url(#clipPath20)" fill="none" width="260" rx="0" ry="0" height="99"/>
            <rect x="930" y="330" clip-path="url(#clipPath21)" fill="url(#linearGradient5)" width="240" height="100" stroke="none"/>
            <text x="1021" xml:space="preserve" y="346" clip-path="url(#clipPath22)" stroke="none">«Interface»</text>
            <text x="997" xml:space="preserve" y="362" clip-path="url(#clipPath23)" stroke="none">IChildSegmentNode</text>
            <line y2="366" fill="none" x1="930" clip-path="url(#clipPath24)" x2="1170" y1="366"/>
            <rect x="930" y="330" clip-path="url(#clipPath25)" fill="none" width="239" rx="0" ry="0" height="99"/>
            <rect x="550" y="670" clip-path="url(#clipPath26)" fill="url(#linearGradient6)" width="241" height="100" stroke="none"/>
            <text x="627" xml:space="preserve" y="686" clip-path="url(#clipPath27)" stroke="none">«ReferenceData»</text>
            <text x="599" xml:space="preserve" y="702" clip-path="url(#clipPath28)" stroke="none">IntermediateSegmentNode</text>
            <line y2="706" fill="none" x1="550" clip-path="url(#clipPath29)" x2="791" y1="706"/>
            <rect x="550" y="670" clip-path="url(#clipPath30)" fill="none" width="240" rx="0" ry="0" height="99"/>
            <rect x="10" y="10" clip-path="url(#clipPath31)" fill="url(#linearGradient7)" width="241" height="100" stroke="none"/>
            <text x="102" xml:space="preserve" y="26" clip-path="url(#clipPath32)" stroke="none">«Interface»</text>
            <text x="73" xml:space="preserve" y="42" clip-path="url(#clipPath33)" stroke="none">IControlledVocabulary</text>
            <text x="16" xml:space="preserve" y="61" clip-path="url(#clipPath34)" stroke="none">«ReferenceCode»   code: Identifier [1]</text>
            <line y2="46" fill="none" x1="10" clip-path="url(#clipPath35)" x2="251" y1="46"/>
            <rect x="10" y="10" clip-path="url(#clipPath36)" fill="none" width="240" rx="0" ry="0" height="99"/>
            <line clip-path="url(#clipPath37)" fill="none" text-rendering="optimizeLegibility" x1="550" x2="490" y1="550" y2="550"/>
            <line clip-path="url(#clipPath37)" fill="none" text-rendering="optimizeLegibility" x1="490" x2="490" y1="550" y2="430"/>
            <polygon fill="white" text-rendering="optimizeLegibility" clip-path="url(#clipPath38)" points=" 490 430 498 440 482 440" stroke="none"/>
            <polygon fill="none" text-rendering="optimizeLegibility" clip-path="url(#clipPath38)" points=" 490 430 498 440 482 440"/>
            <line clip-path="url(#clipPath37)" fill="none" text-rendering="optimizeLegibility" x1="370" x2="310" y1="370" y2="370"/>
            <line clip-path="url(#clipPath37)" fill="none" text-rendering="optimizeLegibility" x1="310" x2="310" y1="370" y2="270"/>
            <polygon fill="white" text-rendering="optimizeLegibility" clip-path="url(#clipPath39)" points=" 310 270 318 280 302 280" stroke="none"/>
            <polygon fill="none" text-rendering="optimizeLegibility" clip-path="url(#clipPath39)" points=" 310 270 318 280 302 280"/>
            <line clip-path="url(#clipPath37)" fill="none" text-rendering="optimizeLegibility" x1="370" x2="310" y1="865" y2="865"/>
            <line clip-path="url(#clipPath37)" fill="none" text-rendering="optimizeLegibility" x1="310" x2="310" y1="865" y2="270"/>
            <polygon fill="white" text-rendering="optimizeLegibility" clip-path="url(#clipPath39)" points=" 310 270 318 280 302 280" stroke="none"/>
            <polygon fill="none" text-rendering="optimizeLegibility" clip-path="url(#clipPath39)" points=" 310 270 318 280 302 280"/>
            <line clip-path="url(#clipPath37)" fill="none" text-rendering="optimizeLegibility" x1="631" x2="1050" y1="865" y2="865" stroke-dasharray="5,5,5,5,5,5,5,5,5,5"/>
            <line clip-path="url(#clipPath37)" fill="none" text-rendering="optimizeLegibility" x1="1050" x2="1050" y1="865" y2="430" stroke-dasharray="5,5,5,5,5,5,5,5,5,5"/>
        </g>
        <g stroke-linecap="butt" fill="white" text-rendering="optimizeLegibility" font-family="'Segoe UI'" stroke-dasharray="5,5,5,5,5,5,5,5,5,5" stroke="white" stroke-width="1.1">
            <polygon points=" 1050 430 1055 445 1045 445" stroke="none" clip-path="url(#clipPath40)"/>
            <polygon fill="none" stroke-dasharray="none" clip-path="url(#clipPath40)" points=" 1050 430 1055 445 1045 445" stroke="black"/>
            <line clip-path="url(#clipPath37)" fill="none" x1="930" x2="611" y1="370" y2="370" stroke-dasharray="none" stroke="black"/>
            <text x="887" y="356" clip-path="url(#clipPath41)" fill="black" stroke-dasharray="none" stroke="none" xml:space="preserve"> 1..*</text>
            <text x="639" y="397" clip-path="url(#clipPath42)" fill="black" stroke-dasharray="none" stroke="none" xml:space="preserve"> 1</text>
            <line clip-path="url(#clipPath37)" fill="none" x1="791" x2="1050" y1="710" y2="710" stroke="black"/>
            <line clip-path="url(#clipPath37)" fill="none" x1="1050" x2="1050" y1="710" y2="430" stroke="black"/>
            <polygon points=" 1050 430 1055 445 1045 445" clip-path="url(#clipPath40)" stroke="none"/>
            <polygon fill="none" stroke-dasharray="none" clip-path="url(#clipPath40)" points=" 1050 430 1055 445 1045 445" stroke="black"/>
            <line clip-path="url(#clipPath37)" fill="none" x1="550" x2="490" y1="710" y2="710" stroke-dasharray="none" stroke="black"/>
            <line clip-path="url(#clipPath37)" fill="none" x1="490" x2="490" y1="710" y2="430" stroke-dasharray="none" stroke="black"/>
            <polygon stroke-dasharray="none" clip-path="url(#clipPath38)" points=" 490 430 498 440 482 440" stroke="none"/>
            <polygon fill="none" stroke-dasharray="none" clip-path="url(#clipPath38)" points=" 490 430 498 440 482 440" stroke="black"/>
            <line clip-path="url(#clipPath37)" fill="none" x1="190" x2="130" y1="210" y2="210" stroke="black"/>
            <line clip-path="url(#clipPath37)" fill="none" x1="130" x2="130" y1="210" y2="110" stroke="black"/>
            <polygon points=" 130 110 135 125 125 125" clip-path="url(#clipPath43)" stroke="none"/>
            <polygon fill="none" stroke-dasharray="none" clip-path="url(#clipPath43)" points=" 130 110 135 125 125 125" stroke="black"/>
        </g>
    </g>
</svg>
