<?xml version="1.0" encoding="UTF-8"?><svg xmlns="http://www.w3.org/2000/svg" xmlns:xlink="http://www.w3.org/1999/xlink" stroke-dasharray="none" shape-rendering="auto" font-family="'Dialog'" width="921" text-rendering="auto" fill-opacity="1" contentScriptType="text/ecmascript" color-interpolation="auto" color-rendering="auto" preserveAspectRatio="xMidYMid meet" font-size="12px" viewBox="0 0 921 840" fill="black" stroke="black" image-rendering="auto" stroke-miterlimit="10" zoomAndPan="magnify" version="1.0" stroke-linecap="square" stroke-linejoin="miter" contentStyleType="text/css" font-style="normal" height="840" stroke-width="1" stroke-dashoffset="0" font-weight="normal" stroke-opacity="1">
    <!--Generated by the Batik Graphics2D SVG Generator-->
    <defs id="genericDefs"/>
    <g>
        <defs id="defs1">
            <linearGradient x1="10" x2="10" y1="10" gradientUnits="userSpaceOnUse" y2="123" xlink:type="simple" xlink:actuate="onLoad" id="linearGradient1" xlink:show="other" spreadMethod="pad">
                <stop stop-opacity="1" stop-color="white" offset="0%"/>
                <stop stop-opacity="1" stop-color="rgb(131,135,205)" offset="100%"/>
            </linearGradient>
            <linearGradient x1="190" x2="190" y1="550" gradientUnits="userSpaceOnUse" y2="663" xlink:type="simple" xlink:actuate="onLoad" id="linearGradient2" xlink:show="other" spreadMethod="pad">
                <stop stop-opacity="1" stop-color="white" offset="0%"/>
                <stop stop-opacity="1" stop-color="rgb(195,167,173)" offset="100%"/>
            </linearGradient>
            <linearGradient x1="190" x2="190" y1="730" gradientUnits="userSpaceOnUse" y2="830" xlink:type="simple" xlink:actuate="onLoad" id="linearGradient3" xlink:show="other" spreadMethod="pad">
                <stop stop-opacity="1" stop-color="white" offset="0%"/>
                <stop stop-opacity="1" stop-color="rgb(195,167,173)" offset="100%"/>
            </linearGradient>
            <linearGradient x1="190" x2="190" y1="190" gradientUnits="userSpaceOnUse" y2="303" xlink:type="simple" xlink:actuate="onLoad" id="linearGradient4" xlink:show="other" spreadMethod="pad">
                <stop stop-opacity="1" stop-color="white" offset="0%"/>
                <stop stop-opacity="1" stop-color="rgb(195,167,173)" offset="100%"/>
            </linearGradient>
            <linearGradient x1="670" x2="670" y1="550" gradientUnits="userSpaceOnUse" y2="650" xlink:type="simple" xlink:actuate="onLoad" id="linearGradient5" xlink:show="other" spreadMethod="pad">
                <stop stop-opacity="1" stop-color="white" offset="0%"/>
                <stop stop-opacity="1" stop-color="rgb(163,199,173)" offset="100%"/>
            </linearGradient>
            <linearGradient x1="670" x2="670" y1="730" gradientUnits="userSpaceOnUse" y2="830" xlink:type="simple" xlink:actuate="onLoad" id="linearGradient6" xlink:show="other" spreadMethod="pad">
                <stop stop-opacity="1" stop-color="white" offset="0%"/>
                <stop stop-opacity="1" stop-color="rgb(163,199,173)" offset="100%"/>
            </linearGradient>
            <linearGradient x1="190" x2="190" y1="370" gradientUnits="userSpaceOnUse" y2="483" xlink:type="simple" xlink:actuate="onLoad" id="linearGradient7" xlink:show="other" spreadMethod="pad">
                <stop stop-opacity="1" stop-color="white" offset="0%"/>
                <stop stop-opacity="1" stop-color="rgb(195,167,173)" offset="100%"/>
            </linearGradient>
            <clipPath clipPathUnits="userSpaceOnUse" id="clipPath1">
                <path d="M10 10 L10 122 L250 122 L250 10 Z"/>
            </clipPath>
            <clipPath clipPathUnits="userSpaceOnUse" id="clipPath2">
                <path d="M101 12 L162 12 L162 29 L101 29 L101 12 Z"/>
            </clipPath>
            <clipPath clipPathUnits="userSpaceOnUse" id="clipPath3">
                <path d="M88 28 L175 28 L175 45 L88 45 L88 28 Z"/>
            </clipPath>
            <clipPath clipPathUnits="userSpaceOnUse" id="clipPath4">
                <path d="M15 47 L202 47 L202 64 L15 64 L15 47 Z"/>
            </clipPath>
            <clipPath clipPathUnits="userSpaceOnUse" id="clipPath5">
                <path d="M15 63 L148 63 L148 80 L15 80 L15 63 Z"/>
            </clipPath>
            <clipPath clipPathUnits="userSpaceOnUse" id="clipPath6">
                <path d="M10 45 L252 45 L252 124 L10 124 L10 45 Z"/>
            </clipPath>
            <clipPath clipPathUnits="userSpaceOnUse" id="clipPath7">
                <path d="M9 9 L252 9 L252 124 L9 124 L9 9 Z"/>
            </clipPath>
            <clipPath clipPathUnits="userSpaceOnUse" id="clipPath8">
                <path d="M190 550 L190 662 L430 662 L430 550 Z"/>
            </clipPath>
            <clipPath clipPathUnits="userSpaceOnUse" id="clipPath9">
                <path d="M266 552 L357 552 L357 569 L266 569 L266 552 Z"/>
            </clipPath>
            <clipPath clipPathUnits="userSpaceOnUse" id="clipPath10">
                <path d="M284 568 L339 568 L339 585 L284 585 L284 568 Z"/>
            </clipPath>
            <clipPath clipPathUnits="userSpaceOnUse" id="clipPath11">
                <path d="M195 587 L396 587 L396 604 L195 604 L195 587 Z"/>
            </clipPath>
            <clipPath clipPathUnits="userSpaceOnUse" id="clipPath12">
                <path d="M195 603 L313 603 L313 620 L195 620 L195 603 Z"/>
            </clipPath>
            <clipPath clipPathUnits="userSpaceOnUse" id="clipPath13">
                <path d="M190 585 L432 585 L432 664 L190 664 L190 585 Z"/>
            </clipPath>
            <clipPath clipPathUnits="userSpaceOnUse" id="clipPath14">
                <path d="M189 549 L432 549 L432 664 L189 664 L189 549 Z"/>
            </clipPath>
            <clipPath clipPathUnits="userSpaceOnUse" id="clipPath15">
                <path d="M190 730 L190 829 L430 829 L430 730 Z"/>
            </clipPath>
            <clipPath clipPathUnits="userSpaceOnUse" id="clipPath16">
                <path d="M266 732 L357 732 L357 749 L266 749 L266 732 Z"/>
            </clipPath>
            <clipPath clipPathUnits="userSpaceOnUse" id="clipPath17">
                <path d="M286 748 L336 748 L336 765 L286 765 L286 748 Z"/>
            </clipPath>
            <clipPath clipPathUnits="userSpaceOnUse" id="clipPath18">
                <path d="M195 767 L391 767 L391 784 L195 784 L195 767 Z"/>
            </clipPath>
            <clipPath clipPathUnits="userSpaceOnUse" id="clipPath19">
                <path d="M190 765 L432 765 L432 831 L190 831 L190 765 Z"/>
            </clipPath>
            <clipPath clipPathUnits="userSpaceOnUse" id="clipPath20">
                <path d="M189 729 L432 729 L432 831 L189 831 L189 729 Z"/>
            </clipPath>
            <clipPath clipPathUnits="userSpaceOnUse" id="clipPath21">
                <path d="M190 190 L190 302 L430 302 L430 190 Z"/>
            </clipPath>
            <clipPath clipPathUnits="userSpaceOnUse" id="clipPath22">
                <path d="M266 192 L357 192 L357 209 L266 209 L266 192 Z"/>
            </clipPath>
            <clipPath clipPathUnits="userSpaceOnUse" id="clipPath23">
                <path d="M289 208 L334 208 L334 225 L289 225 L289 208 Z"/>
            </clipPath>
            <clipPath clipPathUnits="userSpaceOnUse" id="clipPath24">
                <path d="M195 227 L424 227 L424 244 L195 244 L195 227 Z"/>
            </clipPath>
            <clipPath clipPathUnits="userSpaceOnUse" id="clipPath25">
                <path d="M195 243 L356 243 L356 260 L195 260 L195 243 Z"/>
            </clipPath>
            <clipPath clipPathUnits="userSpaceOnUse" id="clipPath26">
                <path d="M190 225 L432 225 L432 304 L190 304 L190 225 Z"/>
            </clipPath>
            <clipPath clipPathUnits="userSpaceOnUse" id="clipPath27">
                <path d="M189 189 L432 189 L432 304 L189 304 L189 189 Z"/>
            </clipPath>
            <clipPath clipPathUnits="userSpaceOnUse" id="clipPath28">
                <path d="M670 550 L670 649 L910 649 L910 550 Z"/>
            </clipPath>
            <clipPath clipPathUnits="userSpaceOnUse" id="clipPath29">
                <path d="M760 552 L823 552 L823 569 L760 569 L760 552 Z"/>
            </clipPath>
            <clipPath clipPathUnits="userSpaceOnUse" id="clipPath30">
                <path d="M741 568 L842 568 L842 585 L741 585 L741 568 Z"/>
            </clipPath>
            <clipPath clipPathUnits="userSpaceOnUse" id="clipPath31">
                <path d="M675 587 L807 587 L807 604 L675 604 L675 587 Z"/>
            </clipPath>
            <clipPath clipPathUnits="userSpaceOnUse" id="clipPath32">
                <path d="M675 603 L765 603 L765 620 L675 620 L675 603 Z"/>
            </clipPath>
            <clipPath clipPathUnits="userSpaceOnUse" id="clipPath33">
                <path d="M670 585 L912 585 L912 651 L670 651 L670 585 Z"/>
            </clipPath>
            <clipPath clipPathUnits="userSpaceOnUse" id="clipPath34">
                <path d="M669 549 L912 549 L912 651 L669 651 L669 549 Z"/>
            </clipPath>
            <clipPath clipPathUnits="userSpaceOnUse" id="clipPath35">
                <path d="M670 730 L670 829 L910 829 L910 730 Z"/>
            </clipPath>
            <clipPath clipPathUnits="userSpaceOnUse" id="clipPath36">
                <path d="M760 732 L823 732 L823 749 L760 749 L760 732 Z"/>
            </clipPath>
            <clipPath clipPathUnits="userSpaceOnUse" id="clipPath37">
                <path d="M744 748 L839 748 L839 765 L744 765 L744 748 Z"/>
            </clipPath>
            <clipPath clipPathUnits="userSpaceOnUse" id="clipPath38">
                <path d="M675 767 L800 767 L800 784 L675 784 L675 767 Z"/>
            </clipPath>
            <clipPath clipPathUnits="userSpaceOnUse" id="clipPath39">
                <path d="M675 783 L756 783 L756 800 L675 800 L675 783 Z"/>
            </clipPath>
            <clipPath clipPathUnits="userSpaceOnUse" id="clipPath40">
                <path d="M670 765 L912 765 L912 831 L670 831 L670 765 Z"/>
            </clipPath>
            <clipPath clipPathUnits="userSpaceOnUse" id="clipPath41">
                <path d="M669 729 L912 729 L912 831 L669 831 L669 729 Z"/>
            </clipPath>
            <clipPath clipPathUnits="userSpaceOnUse" id="clipPath42">
                <path d="M190 370 L190 482 L430 482 L430 370 Z"/>
            </clipPath>
            <clipPath clipPathUnits="userSpaceOnUse" id="clipPath43">
                <path d="M266 372 L357 372 L357 389 L266 389 L266 372 Z"/>
            </clipPath>
            <clipPath clipPathUnits="userSpaceOnUse" id="clipPath44">
                <path d="M258 388 L364 388 L364 405 L258 405 L258 388 Z"/>
            </clipPath>
            <clipPath clipPathUnits="userSpaceOnUse" id="clipPath45">
                <path d="M195 407 L402 407 L402 424 L195 424 L195 407 Z"/>
            </clipPath>
            <clipPath clipPathUnits="userSpaceOnUse" id="clipPath46">
                <path d="M195 423 L310 423 L310 440 L195 440 L195 423 Z"/>
            </clipPath>
            <clipPath clipPathUnits="userSpaceOnUse" id="clipPath47">
                <path d="M190 405 L432 405 L432 484 L190 484 L190 405 Z"/>
            </clipPath>
            <clipPath clipPathUnits="userSpaceOnUse" id="clipPath48">
                <path d="M189 369 L432 369 L432 484 L189 484 L189 369 Z"/>
            </clipPath>
            <clipPath clipPathUnits="userSpaceOnUse" id="clipPath49">
                <path d="M-1 -1 L922 -1 L922 841 L-1 841 L-1 -1 Z"/>
            </clipPath>
            <clipPath clipPathUnits="userSpaceOnUse" id="clipPath50">
                <path d="M124 122 L137 122 L137 140 L124 140 L124 122 Z"/>
            </clipPath>
        </defs>
        <g fill="url(#linearGradient1)" stroke-miterlimit="0" stroke-width="0" font-family="'Segoe UI'" stroke="url(#linearGradient1)" stroke-linejoin="round">
            <rect x="10" width="241" height="113" y="10" clip-path="url(#clipPath1)" stroke="none"/>
            <text fill="black" x="102" xml:space="preserve" y="26" clip-path="url(#clipPath2)" stroke="none">«Interface»</text>
            <text fill="black" x="89" xml:space="preserve" y="42" clip-path="url(#clipPath3)" stroke="none">IReferenceEntity</text>
            <text fill="black" x="16" xml:space="preserve" y="61" clip-path="url(#clipPath4)" stroke="none">«ReferenceLabel»   name: String [1]</text>
            <text fill="black" x="16" xml:space="preserve" y="77" clip-path="url(#clipPath5)" stroke="none">  description: String [0..1]</text>
        </g>
        <g stroke-linecap="butt" font-family="'Segoe UI'" stroke-width="1.1">
            <line y2="46" fill="none" x1="10" clip-path="url(#clipPath6)" x2="251" y1="46"/>
            <rect x="10" y="10" clip-path="url(#clipPath7)" fill="none" width="240" rx="0" ry="0" height="112"/>
            <rect x="190" y="550" clip-path="url(#clipPath8)" fill="url(#linearGradient2)" width="241" height="113" stroke="none"/>
            <text x="267" xml:space="preserve" y="566" clip-path="url(#clipPath9)" stroke="none">«ReferenceData»</text>
            <text x="285" xml:space="preserve" y="582" clip-path="url(#clipPath10)" stroke="none">Language</text>
            <text x="196" xml:space="preserve" y="601" clip-path="url(#clipPath11)" stroke="none">«ReferenceCode»   iso639_2: String [1]</text>
            <text x="196" xml:space="preserve" y="617" clip-path="url(#clipPath12)" stroke="none">  iso639_1: String [0..1]</text>
            <line y2="586" fill="none" x1="190" clip-path="url(#clipPath13)" x2="431" y1="586"/>
            <rect x="190" y="550" clip-path="url(#clipPath14)" fill="none" width="240" rx="0" ry="0" height="112"/>
            <rect x="190" y="730" clip-path="url(#clipPath15)" fill="url(#linearGradient3)" width="241" height="100" stroke="none"/>
            <text x="267" xml:space="preserve" y="746" clip-path="url(#clipPath16)" stroke="none">«ReferenceData»</text>
            <text x="287" xml:space="preserve" y="762" clip-path="url(#clipPath17)" stroke="none">Currency</text>
            <text x="196" xml:space="preserve" y="781" clip-path="url(#clipPath18)" stroke="none">«ReferenceCode»   iso4217: String [1]</text>
            <line y2="766" fill="none" x1="190" clip-path="url(#clipPath19)" x2="431" y1="766"/>
            <rect x="190" y="730" clip-path="url(#clipPath20)" fill="none" width="240" rx="0" ry="0" height="99"/>
            <rect x="190" y="190" clip-path="url(#clipPath21)" fill="url(#linearGradient4)" width="241" height="113" stroke="none"/>
            <text x="267" xml:space="preserve" y="206" clip-path="url(#clipPath22)" stroke="none">«ReferenceData»</text>
            <text x="290" xml:space="preserve" y="222" clip-path="url(#clipPath23)" stroke="none">Country</text>
            <text x="196" xml:space="preserve" y="241" clip-path="url(#clipPath24)" stroke="none">«ReferenceCode»   iso3166_1Alpha3: Strin...</text>
            <text x="196" xml:space="preserve" y="257" clip-path="url(#clipPath25)" stroke="none">  iso3166_1Alpha2: String [0..1]</text>
            <line y2="226" fill="none" x1="190" clip-path="url(#clipPath26)" x2="431" y1="226"/>
            <rect x="190" y="190" clip-path="url(#clipPath27)" fill="none" width="240" rx="0" ry="0" height="112"/>
            <rect x="670" y="550" clip-path="url(#clipPath28)" fill="url(#linearGradient5)" width="241" height="100" stroke="none"/>
            <text x="761" xml:space="preserve" y="566" clip-path="url(#clipPath29)" stroke="none">«DataType»</text>
            <text x="742" xml:space="preserve" y="582" clip-path="url(#clipPath30)" stroke="none">InternationalString</text>
            <text x="676" xml:space="preserve" y="601" clip-path="url(#clipPath31)" stroke="none">  language: Language [1]</text>
            <text x="676" xml:space="preserve" y="617" clip-path="url(#clipPath32)" stroke="none">  value: String [1]</text>
            <line y2="586" fill="none" x1="670" clip-path="url(#clipPath33)" x2="911" y1="586"/>
            <rect x="670" y="550" clip-path="url(#clipPath34)" fill="none" width="240" rx="0" ry="0" height="99"/>
            <rect x="670" y="730" clip-path="url(#clipPath35)" fill="url(#linearGradient6)" width="241" height="100" stroke="none"/>
            <text x="761" xml:space="preserve" y="746" clip-path="url(#clipPath36)" stroke="none">«DataType»</text>
            <text x="745" xml:space="preserve" y="762" clip-path="url(#clipPath37)" stroke="none">CurrencyAmount</text>
            <text x="676" xml:space="preserve" y="781" clip-path="url(#clipPath38)" stroke="none">  currency: Currency [1]</text>
            <text x="676" xml:space="preserve" y="797" clip-path="url(#clipPath39)" stroke="none">  value: Real [1]</text>
            <line y2="766" fill="none" x1="670" clip-path="url(#clipPath40)" x2="911" y1="766"/>
            <rect x="670" y="730" clip-path="url(#clipPath41)" fill="none" width="240" rx="0" ry="0" height="99"/>
            <rect x="190" y="370" clip-path="url(#clipPath42)" fill="url(#linearGradient7)" width="241" height="113" stroke="none"/>
            <text x="267" xml:space="preserve" y="386" clip-path="url(#clipPath43)" stroke="none">«ReferenceData»</text>
            <text x="259" xml:space="preserve" y="402" clip-path="url(#clipPath44)" stroke="none">CountrySubdivision</text>
            <text x="196" xml:space="preserve" y="421" clip-path="url(#clipPath45)" stroke="none">«ReferenceCode»   iso3166_2: String [1]</text>
            <text x="196" xml:space="preserve" y="437" clip-path="url(#clipPath46)" stroke="none">  country: Country [1]</text>
            <line y2="406" fill="none" x1="190" clip-path="url(#clipPath47)" x2="431" y1="406"/>
            <rect x="190" y="370" clip-path="url(#clipPath48)" fill="none" width="240" rx="0" ry="0" height="112"/>
            <line clip-path="url(#clipPath49)" fill="none" text-rendering="optimizeLegibility" x1="190" x2="130" y1="235" y2="235" stroke-dasharray="5,5,5,5,5,5,5,5,5,5"/>
            <line clip-path="url(#clipPath49)" fill="none" text-rendering="optimizeLegibility" x1="130" x2="130" y1="235" y2="123" stroke-dasharray="5,5,5,5,5,5,5,5,5,5"/>
        </g>
        <g stroke-linecap="butt" fill="white" text-rendering="optimizeLegibility" font-family="'Segoe UI'" stroke-dasharray="5,5,5,5,5,5,5,5,5,5" stroke="white" stroke-width="1.1">
            <polygon points=" 130 123 135 138 125 138" stroke="none" clip-path="url(#clipPath50)"/>
            <polygon fill="none" stroke-dasharray="none" clip-path="url(#clipPath50)" points=" 130 123 135 138 125 138" stroke="black"/>
            <line clip-path="url(#clipPath49)" fill="none" x1="190" x2="130" y1="590" y2="590" stroke="black"/>
            <line clip-path="url(#clipPath49)" fill="none" x1="130" x2="130" y1="590" y2="123" stroke="black"/>
            <polygon points=" 130 123 135 138 125 138" clip-path="url(#clipPath50)" stroke="none"/>
            <polygon fill="none" stroke-dasharray="none" clip-path="url(#clipPath50)" points=" 130 123 135 138 125 138" stroke="black"/>
            <line clip-path="url(#clipPath49)" fill="none" x1="190" x2="130" y1="770" y2="770" stroke="black"/>
            <line clip-path="url(#clipPath49)" fill="none" x1="130" x2="130" y1="770" y2="123" stroke="black"/>
            <polygon points=" 130 123 135 138 125 138" clip-path="url(#clipPath50)" stroke="none"/>
            <polygon fill="none" stroke-dasharray="none" clip-path="url(#clipPath50)" points=" 130 123 135 138 125 138" stroke="black"/>
            <line clip-path="url(#clipPath49)" fill="none" x1="190" x2="130" y1="415" y2="415" stroke="black"/>
            <line clip-path="url(#clipPath49)" fill="none" x1="130" x2="130" y1="415" y2="123" stroke="black"/>
            <polygon points=" 130 123 135 138 125 138" clip-path="url(#clipPath50)" stroke="none"/>
            <polygon fill="none" stroke-dasharray="none" clip-path="url(#clipPath50)" points=" 130 123 135 138 125 138" stroke="black"/>
        </g>
    </g>
</svg>
