<?xml version="1.0" encoding="UTF-8"?><svg xmlns="http://www.w3.org/2000/svg" xmlns:xlink="http://www.w3.org/1999/xlink" stroke-dasharray="none" shape-rendering="auto" font-family="'Dialog'" width="1181" text-rendering="auto" fill-opacity="1" contentScriptType="text/ecmascript" color-interpolation="auto" color-rendering="auto" preserveAspectRatio="xMidYMid meet" font-size="12px" viewBox="0 0 1181 1640" fill="black" stroke="black" image-rendering="auto" stroke-miterlimit="10" zoomAndPan="magnify" version="1.0" stroke-linecap="square" stroke-linejoin="miter" contentStyleType="text/css" font-style="normal" height="1640" stroke-width="1" stroke-dashoffset="0" font-weight="normal" stroke-opacity="1">
    <!--Generated by the Batik Graphics2D SVG Generator-->
    <defs id="genericDefs"/>
    <g>
        <defs id="defs1">
            <linearGradient x1="490" x2="490" y1="10" gradientUnits="userSpaceOnUse" y2="110" xlink:type="simple" xlink:actuate="onLoad" id="linearGradient1" xlink:show="other" spreadMethod="pad">
                <stop stop-opacity="1" stop-color="white" offset="0%"/>
                <stop stop-opacity="1" stop-color="rgb(195,215,221)" offset="100%"/>
            </linearGradient>
            <linearGradient x1="490" x2="490" y1="430" gradientUnits="userSpaceOnUse" y2="530" xlink:type="simple" xlink:actuate="onLoad" id="linearGradient2" xlink:show="other" spreadMethod="pad">
                <stop stop-opacity="1" stop-color="white" offset="0%"/>
                <stop stop-opacity="1" stop-color="rgb(195,215,221)" offset="100%"/>
            </linearGradient>
            <linearGradient x1="970" x2="970" y1="430" gradientUnits="userSpaceOnUse" y2="530" xlink:type="simple" xlink:actuate="onLoad" id="linearGradient3" xlink:show="other" spreadMethod="pad">
                <stop stop-opacity="1" stop-color="white" offset="0%"/>
                <stop stop-opacity="1" stop-color="rgb(195,215,221)" offset="100%"/>
            </linearGradient>
            <linearGradient x1="970" x2="970" y1="10" gradientUnits="userSpaceOnUse" y2="110" xlink:type="simple" xlink:actuate="onLoad" id="linearGradient4" xlink:show="other" spreadMethod="pad">
                <stop stop-opacity="1" stop-color="white" offset="0%"/>
                <stop stop-opacity="1" stop-color="rgb(131,135,205)" offset="100%"/>
            </linearGradient>
            <linearGradient x1="870" x2="870" y1="890" gradientUnits="userSpaceOnUse" y2="990" xlink:type="simple" xlink:actuate="onLoad" id="linearGradient5" xlink:show="other" spreadMethod="pad">
                <stop stop-opacity="1" stop-color="white" offset="0%"/>
                <stop stop-opacity="1" stop-color="rgb(195,215,221)" offset="100%"/>
            </linearGradient>
            <linearGradient x1="730" x2="730" y1="730" gradientUnits="userSpaceOnUse" y2="830" xlink:type="simple" xlink:actuate="onLoad" id="linearGradient6" xlink:show="other" spreadMethod="pad">
                <stop stop-opacity="1" stop-color="white" offset="0%"/>
                <stop stop-opacity="1" stop-color="rgb(195,215,221)" offset="100%"/>
            </linearGradient>
            <linearGradient x1="870" x2="870" y1="1050" gradientUnits="userSpaceOnUse" y2="1150" xlink:type="simple" xlink:actuate="onLoad" id="linearGradient7" xlink:show="other" spreadMethod="pad">
                <stop stop-opacity="1" stop-color="white" offset="0%"/>
                <stop stop-opacity="1" stop-color="rgb(195,215,221)" offset="100%"/>
            </linearGradient>
            <linearGradient x1="870" x2="870" y1="1210" gradientUnits="userSpaceOnUse" y2="1310" xlink:type="simple" xlink:actuate="onLoad" id="linearGradient8" xlink:show="other" spreadMethod="pad">
                <stop stop-opacity="1" stop-color="white" offset="0%"/>
                <stop stop-opacity="1" stop-color="rgb(195,215,221)" offset="100%"/>
            </linearGradient>
            <linearGradient x1="10" x2="10" y1="430" gradientUnits="userSpaceOnUse" y2="530" xlink:type="simple" xlink:actuate="onLoad" id="linearGradient9" xlink:show="other" spreadMethod="pad">
                <stop stop-opacity="1" stop-color="white" offset="0%"/>
                <stop stop-opacity="1" stop-color="rgb(195,215,221)" offset="100%"/>
            </linearGradient>
            <linearGradient x1="250" x2="250" y1="730" gradientUnits="userSpaceOnUse" y2="830" xlink:type="simple" xlink:actuate="onLoad" id="linearGradient10" xlink:show="other" spreadMethod="pad">
                <stop stop-opacity="1" stop-color="white" offset="0%"/>
                <stop stop-opacity="1" stop-color="rgb(195,215,221)" offset="100%"/>
            </linearGradient>
            <linearGradient x1="390" x2="390" y1="890" gradientUnits="userSpaceOnUse" y2="990" xlink:type="simple" xlink:actuate="onLoad" id="linearGradient11" xlink:show="other" spreadMethod="pad">
                <stop stop-opacity="1" stop-color="white" offset="0%"/>
                <stop stop-opacity="1" stop-color="rgb(195,215,221)" offset="100%"/>
            </linearGradient>
            <linearGradient x1="390" x2="390" y1="1050" gradientUnits="userSpaceOnUse" y2="1150" xlink:type="simple" xlink:actuate="onLoad" id="linearGradient12" xlink:show="other" spreadMethod="pad">
                <stop stop-opacity="1" stop-color="white" offset="0%"/>
                <stop stop-opacity="1" stop-color="rgb(195,215,221)" offset="100%"/>
            </linearGradient>
            <linearGradient x1="870" x2="870" y1="1370" gradientUnits="userSpaceOnUse" y2="1470" xlink:type="simple" xlink:actuate="onLoad" id="linearGradient13" xlink:show="other" spreadMethod="pad">
                <stop stop-opacity="1" stop-color="white" offset="0%"/>
                <stop stop-opacity="1" stop-color="rgb(195,215,221)" offset="100%"/>
            </linearGradient>
            <linearGradient x1="390" x2="390" y1="1210" gradientUnits="userSpaceOnUse" y2="1310" xlink:type="simple" xlink:actuate="onLoad" id="linearGradient14" xlink:show="other" spreadMethod="pad">
                <stop stop-opacity="1" stop-color="white" offset="0%"/>
                <stop stop-opacity="1" stop-color="rgb(195,215,221)" offset="100%"/>
            </linearGradient>
            <linearGradient x1="390" x2="390" y1="1370" gradientUnits="userSpaceOnUse" y2="1470" xlink:type="simple" xlink:actuate="onLoad" id="linearGradient15" xlink:show="other" spreadMethod="pad">
                <stop stop-opacity="1" stop-color="white" offset="0%"/>
                <stop stop-opacity="1" stop-color="rgb(195,215,221)" offset="100%"/>
            </linearGradient>
            <linearGradient x1="390" x2="390" y1="1530" gradientUnits="userSpaceOnUse" y2="1630" xlink:type="simple" xlink:actuate="onLoad" id="linearGradient16" xlink:show="other" spreadMethod="pad">
                <stop stop-opacity="1" stop-color="white" offset="0%"/>
                <stop stop-opacity="1" stop-color="rgb(195,215,221)" offset="100%"/>
            </linearGradient>
            <clipPath clipPathUnits="userSpaceOnUse" id="clipPath1">
                <path d="M490 10 L490 109 L690 109 L690 10 Z"/>
            </clipPath>
            <clipPath clipPathUnits="userSpaceOnUse" id="clipPath2">
                <path d="M561 12 L622 12 L622 29 L561 29 L561 12 Z"/>
            </clipPath>
            <clipPath clipPathUnits="userSpaceOnUse" id="clipPath3">
                <path d="M490 29 L692 29 L692 111 L490 111 L490 29 Z"/>
            </clipPath>
            <clipPath clipPathUnits="userSpaceOnUse" id="clipPath4">
                <path d="M489 9 L692 9 L692 111 L489 111 L489 9 Z"/>
            </clipPath>
            <clipPath clipPathUnits="userSpaceOnUse" id="clipPath5">
                <path d="M490 430 L490 529 L690 529 L690 430 Z"/>
            </clipPath>
            <clipPath clipPathUnits="userSpaceOnUse" id="clipPath6">
                <path d="M532 432 L650 432 L650 449 L532 449 L532 432 Z"/>
            </clipPath>
            <clipPath clipPathUnits="userSpaceOnUse" id="clipPath7">
                <path d="M490 449 L692 449 L692 531 L490 531 L490 449 Z"/>
            </clipPath>
            <clipPath clipPathUnits="userSpaceOnUse" id="clipPath8">
                <path d="M489 429 L692 429 L692 531 L489 531 L489 429 Z"/>
            </clipPath>
            <clipPath clipPathUnits="userSpaceOnUse" id="clipPath9">
                <path d="M970 430 L970 529 L1170 529 L1170 430 Z"/>
            </clipPath>
            <clipPath clipPathUnits="userSpaceOnUse" id="clipPath10">
                <path d="M1027 432 L1116 432 L1116 449 L1027 449 L1027 432 Z"/>
            </clipPath>
            <clipPath clipPathUnits="userSpaceOnUse" id="clipPath11">
                <path d="M970 449 L1172 449 L1172 531 L970 531 L970 449 Z"/>
            </clipPath>
            <clipPath clipPathUnits="userSpaceOnUse" id="clipPath12">
                <path d="M969 429 L1172 429 L1172 531 L969 531 L969 429 Z"/>
            </clipPath>
            <clipPath clipPathUnits="userSpaceOnUse" id="clipPath13">
                <path d="M970 10 L970 109 L1170 109 L1170 10 Z"/>
            </clipPath>
            <clipPath clipPathUnits="userSpaceOnUse" id="clipPath14">
                <path d="M1041 12 L1102 12 L1102 29 L1041 29 L1041 12 Z"/>
            </clipPath>
            <clipPath clipPathUnits="userSpaceOnUse" id="clipPath15">
                <path d="M1053 28 L1090 28 L1090 45 L1053 45 L1053 28 Z"/>
            </clipPath>
            <clipPath clipPathUnits="userSpaceOnUse" id="clipPath16">
                <path d="M970 45 L1172 45 L1172 111 L970 111 L970 45 Z"/>
            </clipPath>
            <clipPath clipPathUnits="userSpaceOnUse" id="clipPath17">
                <path d="M969 9 L1172 9 L1172 111 L969 111 L969 9 Z"/>
            </clipPath>
            <clipPath clipPathUnits="userSpaceOnUse" id="clipPath18">
                <path d="M870 890 L870 989 L1070 989 L1070 890 Z"/>
            </clipPath>
            <clipPath clipPathUnits="userSpaceOnUse" id="clipPath19">
                <path d="M927 892 L1015 892 L1015 909 L927 909 L927 892 Z"/>
            </clipPath>
            <clipPath clipPathUnits="userSpaceOnUse" id="clipPath20">
                <path d="M870 909 L1072 909 L1072 991 L870 991 L870 909 Z"/>
            </clipPath>
            <clipPath clipPathUnits="userSpaceOnUse" id="clipPath21">
                <path d="M869 889 L1072 889 L1072 991 L869 991 L869 889 Z"/>
            </clipPath>
            <clipPath clipPathUnits="userSpaceOnUse" id="clipPath22">
                <path d="M730 730 L730 829 L930 829 L930 730 Z"/>
            </clipPath>
            <clipPath clipPathUnits="userSpaceOnUse" id="clipPath23">
                <path d="M778 732 L885 732 L885 749 L778 749 L778 732 Z"/>
            </clipPath>
            <clipPath clipPathUnits="userSpaceOnUse" id="clipPath24">
                <path d="M730 749 L932 749 L932 831 L730 831 L730 749 Z"/>
            </clipPath>
            <clipPath clipPathUnits="userSpaceOnUse" id="clipPath25">
                <path d="M729 729 L932 729 L932 831 L729 831 L729 729 Z"/>
            </clipPath>
            <clipPath clipPathUnits="userSpaceOnUse" id="clipPath26">
                <path d="M870 1050 L870 1149 L1070 1149 L1070 1050 Z"/>
            </clipPath>
            <clipPath clipPathUnits="userSpaceOnUse" id="clipPath27">
                <path d="M912 1052 L1030 1052 L1030 1069 L912 1069 L912 1052 Z"/>
            </clipPath>
            <clipPath clipPathUnits="userSpaceOnUse" id="clipPath28">
                <path d="M870 1069 L1072 1069 L1072 1151 L870 1151 L870 1069 Z"/>
            </clipPath>
            <clipPath clipPathUnits="userSpaceOnUse" id="clipPath29">
                <path d="M869 1049 L1072 1049 L1072 1151 L869 1151 L869 1049 Z"/>
            </clipPath>
            <clipPath clipPathUnits="userSpaceOnUse" id="clipPath30">
                <path d="M870 1210 L870 1309 L1070 1309 L1070 1210 Z"/>
            </clipPath>
            <clipPath clipPathUnits="userSpaceOnUse" id="clipPath31">
                <path d="M917 1212 L1026 1212 L1026 1229 L917 1229 L917 1212 Z"/>
            </clipPath>
            <clipPath clipPathUnits="userSpaceOnUse" id="clipPath32">
                <path d="M870 1229 L1072 1229 L1072 1311 L870 1311 L870 1229 Z"/>
            </clipPath>
            <clipPath clipPathUnits="userSpaceOnUse" id="clipPath33">
                <path d="M869 1209 L1072 1209 L1072 1311 L869 1311 L869 1209 Z"/>
            </clipPath>
            <clipPath clipPathUnits="userSpaceOnUse" id="clipPath34">
                <path d="M10 430 L10 529 L210 529 L210 430 Z"/>
            </clipPath>
            <clipPath clipPathUnits="userSpaceOnUse" id="clipPath35">
                <path d="M72 432 L151 432 L151 449 L72 449 L72 432 Z"/>
            </clipPath>
            <clipPath clipPathUnits="userSpaceOnUse" id="clipPath36">
                <path d="M10 449 L212 449 L212 531 L10 531 L10 449 Z"/>
            </clipPath>
            <clipPath clipPathUnits="userSpaceOnUse" id="clipPath37">
                <path d="M9 429 L212 429 L212 531 L9 531 L9 429 Z"/>
            </clipPath>
            <clipPath clipPathUnits="userSpaceOnUse" id="clipPath38">
                <path d="M250 730 L250 829 L450 829 L450 730 Z"/>
            </clipPath>
            <clipPath clipPathUnits="userSpaceOnUse" id="clipPath39">
                <path d="M297 732 L406 732 L406 749 L297 749 L297 732 Z"/>
            </clipPath>
            <clipPath clipPathUnits="userSpaceOnUse" id="clipPath40">
                <path d="M250 749 L452 749 L452 831 L250 831 L250 749 Z"/>
            </clipPath>
            <clipPath clipPathUnits="userSpaceOnUse" id="clipPath41">
                <path d="M249 729 L452 729 L452 831 L249 831 L249 729 Z"/>
            </clipPath>
            <clipPath clipPathUnits="userSpaceOnUse" id="clipPath42">
                <path d="M390 890 L390 989 L590 989 L590 890 Z"/>
            </clipPath>
            <clipPath clipPathUnits="userSpaceOnUse" id="clipPath43">
                <path d="M451 892 L531 892 L531 909 L451 909 L451 892 Z"/>
            </clipPath>
            <clipPath clipPathUnits="userSpaceOnUse" id="clipPath44">
                <path d="M390 909 L592 909 L592 991 L390 991 L390 909 Z"/>
            </clipPath>
            <clipPath clipPathUnits="userSpaceOnUse" id="clipPath45">
                <path d="M389 889 L592 889 L592 991 L389 991 L389 889 Z"/>
            </clipPath>
            <clipPath clipPathUnits="userSpaceOnUse" id="clipPath46">
                <path d="M390 1050 L390 1149 L590 1149 L590 1050 Z"/>
            </clipPath>
            <clipPath clipPathUnits="userSpaceOnUse" id="clipPath47">
                <path d="M433 1052 L550 1052 L550 1069 L433 1069 L433 1052 Z"/>
            </clipPath>
            <clipPath clipPathUnits="userSpaceOnUse" id="clipPath48">
                <path d="M390 1069 L592 1069 L592 1151 L390 1151 L390 1069 Z"/>
            </clipPath>
            <clipPath clipPathUnits="userSpaceOnUse" id="clipPath49">
                <path d="M389 1049 L592 1049 L592 1151 L389 1151 L389 1049 Z"/>
            </clipPath>
            <clipPath clipPathUnits="userSpaceOnUse" id="clipPath50">
                <path d="M870 1370 L870 1469 L1070 1469 L1070 1370 Z"/>
            </clipPath>
            <clipPath clipPathUnits="userSpaceOnUse" id="clipPath51">
                <path d="M909 1372 L1033 1372 L1033 1389 L909 1389 L909 1372 Z"/>
            </clipPath>
            <clipPath clipPathUnits="userSpaceOnUse" id="clipPath52">
                <path d="M870 1389 L1072 1389 L1072 1471 L870 1471 L870 1389 Z"/>
            </clipPath>
            <clipPath clipPathUnits="userSpaceOnUse" id="clipPath53">
                <path d="M869 1369 L1072 1369 L1072 1471 L869 1471 L869 1369 Z"/>
            </clipPath>
            <clipPath clipPathUnits="userSpaceOnUse" id="clipPath54">
                <path d="M390 1210 L390 1309 L590 1309 L590 1210 Z"/>
            </clipPath>
            <clipPath clipPathUnits="userSpaceOnUse" id="clipPath55">
                <path d="M464 1212 L519 1212 L519 1229 L464 1229 L464 1212 Z"/>
            </clipPath>
            <clipPath clipPathUnits="userSpaceOnUse" id="clipPath56">
                <path d="M390 1229 L592 1229 L592 1311 L390 1311 L390 1229 Z"/>
            </clipPath>
            <clipPath clipPathUnits="userSpaceOnUse" id="clipPath57">
                <path d="M389 1209 L592 1209 L592 1311 L389 1311 L389 1209 Z"/>
            </clipPath>
            <clipPath clipPathUnits="userSpaceOnUse" id="clipPath58">
                <path d="M390 1370 L390 1469 L590 1469 L590 1370 Z"/>
            </clipPath>
            <clipPath clipPathUnits="userSpaceOnUse" id="clipPath59">
                <path d="M425 1372 L558 1372 L558 1389 L425 1389 L425 1372 Z"/>
            </clipPath>
            <clipPath clipPathUnits="userSpaceOnUse" id="clipPath60">
                <path d="M390 1389 L592 1389 L592 1471 L390 1471 L390 1389 Z"/>
            </clipPath>
            <clipPath clipPathUnits="userSpaceOnUse" id="clipPath61">
                <path d="M389 1369 L592 1369 L592 1471 L389 1471 L389 1369 Z"/>
            </clipPath>
            <clipPath clipPathUnits="userSpaceOnUse" id="clipPath62">
                <path d="M390 1530 L390 1629 L590 1629 L590 1530 Z"/>
            </clipPath>
            <clipPath clipPathUnits="userSpaceOnUse" id="clipPath63">
                <path d="M432 1532 L551 1532 L551 1549 L432 1549 L432 1532 Z"/>
            </clipPath>
            <clipPath clipPathUnits="userSpaceOnUse" id="clipPath64">
                <path d="M390 1549 L592 1549 L592 1631 L390 1631 L390 1549 Z"/>
            </clipPath>
            <clipPath clipPathUnits="userSpaceOnUse" id="clipPath65">
                <path d="M389 1529 L592 1529 L592 1631 L389 1631 L389 1529 Z"/>
            </clipPath>
            <clipPath clipPathUnits="userSpaceOnUse" id="clipPath66">
                <path d="M-1 -1 L1182 -1 L1182 1641 L-1 1641 L-1 -1 Z"/>
            </clipPath>
            <clipPath clipPathUnits="userSpaceOnUse" id="clipPath67">
                <path d="M564 150 L576 150 L576 167 L564 167 L564 150 Z"/>
            </clipPath>
            <clipPath clipPathUnits="userSpaceOnUse" id="clipPath68">
                <path d="M605 374 L616 374 L616 391 L605 391 L605 374 Z"/>
            </clipPath>
            <clipPath clipPathUnits="userSpaceOnUse" id="clipPath69">
                <path d="M954 44 L972 44 L972 57 L954 57 L954 44 Z"/>
            </clipPath>
            <clipPath clipPathUnits="userSpaceOnUse" id="clipPath70">
                <path d="M1064 109 L1077 109 L1077 127 L1064 127 L1064 109 Z"/>
            </clipPath>
            <clipPath clipPathUnits="userSpaceOnUse" id="clipPath71">
                <path d="M729 482 L741 482 L741 499 L729 499 L729 482 Z"/>
            </clipPath>
            <clipPath clipPathUnits="userSpaceOnUse" id="clipPath72">
                <path d="M920 442 L931 442 L931 459 L920 459 L920 442 Z"/>
            </clipPath>
            <clipPath clipPathUnits="userSpaceOnUse" id="clipPath73">
                <path d="M821 829 L840 829 L840 842 L821 842 L821 829 Z"/>
            </clipPath>
            <clipPath clipPathUnits="userSpaceOnUse" id="clipPath74">
                <path d="M604 566 L616 566 L616 583 L604 583 L604 566 Z"/>
            </clipPath>
            <clipPath clipPathUnits="userSpaceOnUse" id="clipPath75">
                <path d="M849 689 L860 689 L860 706 L849 706 L849 689 Z"/>
            </clipPath>
            <clipPath clipPathUnits="userSpaceOnUse" id="clipPath76">
                <path d="M445 442 L457 442 L457 459 L445 459 L445 442 Z"/>
            </clipPath>
            <clipPath clipPathUnits="userSpaceOnUse" id="clipPath77">
                <path d="M239 482 L262 482 L262 499 L239 499 L239 482 Z"/>
            </clipPath>
            <clipPath clipPathUnits="userSpaceOnUse" id="clipPath78">
                <path d="M529 569 L541 569 L541 586 L529 586 L529 569 Z"/>
            </clipPath>
            <clipPath clipPathUnits="userSpaceOnUse" id="clipPath79">
                <path d="M369 689 L380 689 L380 706 L369 706 L369 689 Z"/>
            </clipPath>
            <clipPath clipPathUnits="userSpaceOnUse" id="clipPath80">
                <path d="M341 829 L360 829 L360 842 L341 842 L341 829 Z"/>
            </clipPath>
        </defs>
        <g fill="url(#linearGradient1)" stroke-miterlimit="0" stroke-width="0" font-family="'Segoe UI'" stroke="url(#linearGradient1)" stroke-linejoin="round">
            <rect x="490" width="201" height="100" y="10" clip-path="url(#clipPath1)" stroke="none"/>
            <text fill="black" x="562" xml:space="preserve" y="26" clip-path="url(#clipPath2)" stroke="none">MainDriver</text>
        </g>
        <g stroke-linecap="butt" font-family="'Segoe UI'" stroke-width="1.1">
            <line y2="30" fill="none" x1="490" clip-path="url(#clipPath3)" x2="691" y1="30"/>
            <rect x="490" y="10" clip-path="url(#clipPath4)" fill="none" width="200" rx="0" ry="0" height="99"/>
            <rect x="490" y="430" clip-path="url(#clipPath5)" fill="url(#linearGradient2)" width="201" height="100" stroke="none"/>
            <text x="533" xml:space="preserve" y="446" clip-path="url(#clipPath6)" stroke="none">MotorInsurancePolicy</text>
            <line y2="450" fill="none" x1="490" clip-path="url(#clipPath7)" x2="691" y1="450"/>
            <rect x="490" y="430" clip-path="url(#clipPath8)" fill="none" width="200" rx="0" ry="0" height="99"/>
            <rect x="970" y="430" clip-path="url(#clipPath9)" fill="url(#linearGradient3)" width="201" height="100" stroke="none"/>
            <text x="1028" xml:space="preserve" y="446" clip-path="url(#clipPath10)" stroke="none">AdditionalDriver</text>
            <line y2="450" fill="none" x1="970" clip-path="url(#clipPath11)" x2="1171" y1="450"/>
            <rect x="970" y="430" clip-path="url(#clipPath12)" fill="none" width="200" rx="0" ry="0" height="99"/>
            <rect x="970" y="10" clip-path="url(#clipPath13)" fill="url(#linearGradient4)" width="201" height="100" stroke="none"/>
            <text x="1042" xml:space="preserve" y="26" clip-path="url(#clipPath14)" stroke="none">«Interface»</text>
            <text x="1054" xml:space="preserve" y="42" clip-path="url(#clipPath15)" stroke="none">IDriver</text>
            <line y2="46" fill="none" x1="970" clip-path="url(#clipPath16)" x2="1171" y1="46"/>
            <rect x="970" y="10" clip-path="url(#clipPath17)" fill="none" width="200" rx="0" ry="0" height="99"/>
            <rect x="870" y="890" clip-path="url(#clipPath18)" fill="url(#linearGradient5)" width="201" height="100" stroke="none"/>
            <text x="928" xml:space="preserve" y="906" clip-path="url(#clipPath19)" stroke="none">ThirdPartyCover</text>
            <line y2="910" fill="none" x1="870" clip-path="url(#clipPath20)" x2="1071" y1="910"/>
            <rect x="870" y="890" clip-path="url(#clipPath21)" fill="none" width="200" rx="0" ry="0" height="99"/>
            <rect x="730" y="730" clip-path="url(#clipPath22)" fill="url(#linearGradient6)" width="201" height="100" stroke="none"/>
            <text x="779" y="746" clip-path="url(#clipPath23)" fill="rgb(169,169,169)" font-style="italic" stroke="none" xml:space="preserve">MotorLiabilityCover</text>
            <line y2="750" fill="none" x1="730" clip-path="url(#clipPath24)" x2="931" y1="750"/>
            <rect x="730" y="730" clip-path="url(#clipPath25)" fill="none" width="200" rx="0" ry="0" height="99"/>
            <rect x="870" y="1050" clip-path="url(#clipPath26)" fill="url(#linearGradient7)" width="201" height="100" stroke="none"/>
            <text x="913" xml:space="preserve" y="1066" clip-path="url(#clipPath27)" stroke="none">MotorLegalProtection</text>
            <line y2="1070" fill="none" x1="870" clip-path="url(#clipPath28)" x2="1071" y1="1070"/>
            <rect x="870" y="1050" clip-path="url(#clipPath29)" fill="none" width="200" rx="0" ry="0" height="99"/>
            <rect x="870" y="1210" clip-path="url(#clipPath30)" fill="url(#linearGradient8)" width="201" height="100" stroke="none"/>
            <text x="918" xml:space="preserve" y="1226" clip-path="url(#clipPath31)" stroke="none">PersonalInjuryCover</text>
            <line y2="1230" fill="none" x1="870" clip-path="url(#clipPath32)" x2="1071" y1="1230"/>
            <rect x="870" y="1210" clip-path="url(#clipPath33)" fill="none" width="200" rx="0" ry="0" height="99"/>
            <rect x="10" y="430" clip-path="url(#clipPath34)" fill="url(#linearGradient9)" width="201" height="100" stroke="none"/>
            <text x="73" xml:space="preserve" y="446" clip-path="url(#clipPath35)" stroke="none">InsuredVehicle</text>
            <line y2="450" fill="none" x1="10" clip-path="url(#clipPath36)" x2="211" y1="450"/>
            <rect x="10" y="430" clip-path="url(#clipPath37)" fill="none" width="200" rx="0" ry="0" height="99"/>
            <rect x="250" y="730" clip-path="url(#clipPath38)" fill="url(#linearGradient10)" width="201" height="100" stroke="none"/>
            <text x="298" y="746" clip-path="url(#clipPath39)" fill="rgb(169,169,169)" font-style="italic" stroke="none" xml:space="preserve">MotorPropertyCover</text>
            <line y2="750" fill="none" x1="250" clip-path="url(#clipPath40)" x2="451" y1="750"/>
            <rect x="250" y="730" clip-path="url(#clipPath41)" fill="none" width="200" rx="0" ry="0" height="99"/>
            <rect x="390" y="890" clip-path="url(#clipPath42)" fill="url(#linearGradient11)" width="201" height="100" stroke="none"/>
            <text x="452" xml:space="preserve" y="906" clip-path="url(#clipPath43)" stroke="none">CollisionCover</text>
            <line y2="910" fill="none" x1="390" clip-path="url(#clipPath44)" x2="591" y1="910"/>
            <rect x="390" y="890" clip-path="url(#clipPath45)" fill="none" width="200" rx="0" ry="0" height="99"/>
            <rect x="390" y="1050" clip-path="url(#clipPath46)" fill="url(#linearGradient12)" width="201" height="100" stroke="none"/>
            <text x="434" xml:space="preserve" y="1066" clip-path="url(#clipPath47)" stroke="none">ComprehensiveCover</text>
            <line y2="1070" fill="none" x1="390" clip-path="url(#clipPath48)" x2="591" y1="1070"/>
            <rect x="390" y="1050" clip-path="url(#clipPath49)" fill="none" width="200" rx="0" ry="0" height="99"/>
            <rect x="870" y="1370" clip-path="url(#clipPath50)" fill="url(#linearGradient13)" width="201" height="100" stroke="none"/>
            <text x="910" xml:space="preserve" y="1386" clip-path="url(#clipPath51)" stroke="none">MedicalExpensesCover</text>
            <line y2="1390" fill="none" x1="870" clip-path="url(#clipPath52)" x2="1071" y1="1390"/>
            <rect x="870" y="1370" clip-path="url(#clipPath53)" fill="none" width="200" rx="0" ry="0" height="99"/>
            <rect x="390" y="1210" clip-path="url(#clipPath54)" fill="url(#linearGradient14)" width="201" height="100" stroke="none"/>
            <text x="465" xml:space="preserve" y="1226" clip-path="url(#clipPath55)" stroke="none">GapCover</text>
            <line y2="1230" fill="none" x1="390" clip-path="url(#clipPath56)" x2="591" y1="1230"/>
            <rect x="390" y="1210" clip-path="url(#clipPath57)" fill="none" width="200" rx="0" ry="0" height="99"/>
            <rect x="390" y="1370" clip-path="url(#clipPath58)" fill="url(#linearGradient15)" width="201" height="100" stroke="none"/>
            <text x="426" xml:space="preserve" y="1386" clip-path="url(#clipPath59)" stroke="none">UninsuredMotoristCover</text>
            <line y2="1390" fill="none" x1="390" clip-path="url(#clipPath60)" x2="591" y1="1390"/>
            <rect x="390" y="1370" clip-path="url(#clipPath61)" fill="none" width="200" rx="0" ry="0" height="99"/>
            <rect x="390" y="1530" clip-path="url(#clipPath62)" fill="url(#linearGradient16)" width="201" height="100" stroke="none"/>
            <text x="433" xml:space="preserve" y="1546" clip-path="url(#clipPath63)" stroke="none">UnderInsuredMotorist</text>
            <line y2="1550" fill="none" x1="390" clip-path="url(#clipPath64)" x2="591" y1="1550"/>
            <rect x="390" y="1530" clip-path="url(#clipPath65)" fill="none" width="200" rx="0" ry="0" height="99"/>
            <line clip-path="url(#clipPath66)" fill="none" text-rendering="optimizeLegibility" x1="590" x2="590" y1="110" y2="430"/>
            <text text-rendering="optimizeLegibility" x="565" xml:space="preserve" y="164" clip-path="url(#clipPath67)" stroke="none"> 1</text>
            <text text-rendering="optimizeLegibility" x="606" xml:space="preserve" y="388" clip-path="url(#clipPath68)" stroke="none"> *</text>
            <line clip-path="url(#clipPath66)" fill="none" text-rendering="optimizeLegibility" x1="691" x2="970" y1="50" y2="50" stroke-dasharray="5,5,5,5,5,5,5,5,5,5"/>
        </g>
        <g stroke-linecap="butt" fill="white" text-rendering="optimizeLegibility" font-family="'Segoe UI'" stroke-dasharray="5,5,5,5,5,5,5,5,5,5" stroke="white" stroke-width="1.1">
            <polygon points=" 970 50 955 55 955 45" stroke="none" clip-path="url(#clipPath69)"/>
            <polygon fill="none" stroke-dasharray="none" clip-path="url(#clipPath69)" points=" 970 50 955 55 955 45" stroke="black"/>
            <line clip-path="url(#clipPath66)" fill="none" x1="1070" x2="1070" y1="430" y2="270" stroke="black"/>
            <line clip-path="url(#clipPath66)" fill="none" x1="1070" x2="1070" y1="270" y2="110" stroke="black"/>
            <polygon points=" 1070 110 1075 125 1065 125" clip-path="url(#clipPath70)" stroke="none"/>
            <polygon fill="none" stroke-dasharray="none" clip-path="url(#clipPath70)" points=" 1070 110 1075 125 1065 125" stroke="black"/>
            <line clip-path="url(#clipPath66)" fill="none" x1="691" x2="970" y1="470" y2="470" stroke-dasharray="none" stroke="black"/>
            <text x="730" y="496" clip-path="url(#clipPath71)" fill="black" stroke-dasharray="none" stroke="none" xml:space="preserve"> 1</text>
            <text x="921" y="456" clip-path="url(#clipPath72)" fill="black" stroke-dasharray="none" stroke="none" xml:space="preserve"> *</text>
            <line clip-path="url(#clipPath66)" fill="none" x1="870" x2="830" y1="930" y2="930" stroke-dasharray="none" stroke="black"/>
            <line clip-path="url(#clipPath66)" fill="none" x1="830" x2="830" y1="930" y2="830" stroke-dasharray="none" stroke="black"/>
            <polygon stroke-dasharray="none" clip-path="url(#clipPath73)" points=" 830 830 838 840 822 840" stroke="none"/>
            <polygon fill="none" stroke-dasharray="none" clip-path="url(#clipPath73)" points=" 830 830 838 840 822 840" stroke="black"/>
            <line clip-path="url(#clipPath66)" fill="none" x1="630" x2="630" y1="530" y2="630" stroke-dasharray="none" stroke="black"/>
            <line clip-path="url(#clipPath66)" fill="none" x1="630" x2="830" y1="630" y2="630" stroke-dasharray="none" stroke="black"/>
            <line clip-path="url(#clipPath66)" fill="none" x1="830" x2="830" y1="630" y2="730" stroke-dasharray="none" stroke="black"/>
            <text x="605" y="580" clip-path="url(#clipPath74)" fill="black" stroke-dasharray="none" stroke="none" xml:space="preserve"> 1</text>
            <text x="850" y="703" clip-path="url(#clipPath75)" fill="black" stroke-dasharray="none" stroke="none" xml:space="preserve"> *</text>
            <line clip-path="url(#clipPath66)" fill="none" x1="870" x2="830" y1="1090" y2="1090" stroke-dasharray="none" stroke="black"/>
            <line clip-path="url(#clipPath66)" fill="none" x1="830" x2="830" y1="1090" y2="830" stroke-dasharray="none" stroke="black"/>
            <polygon stroke-dasharray="none" clip-path="url(#clipPath73)" points=" 830 830 838 840 822 840" stroke="none"/>
            <polygon fill="none" stroke-dasharray="none" clip-path="url(#clipPath73)" points=" 830 830 838 840 822 840" stroke="black"/>
            <line clip-path="url(#clipPath66)" fill="none" x1="870" x2="830" y1="1250" y2="1250" stroke-dasharray="none" stroke="black"/>
            <line clip-path="url(#clipPath66)" fill="none" x1="830" x2="830" y1="1250" y2="830" stroke-dasharray="none" stroke="black"/>
            <polygon stroke-dasharray="none" clip-path="url(#clipPath73)" points=" 830 830 838 840 822 840" stroke="none"/>
            <polygon fill="none" stroke-dasharray="none" clip-path="url(#clipPath73)" points=" 830 830 838 840 822 840" stroke="black"/>
            <line clip-path="url(#clipPath66)" fill="none" x1="490" x2="211" y1="470" y2="470" stroke-dasharray="none" stroke="black"/>
            <text x="446" y="456" clip-path="url(#clipPath76)" fill="black" stroke-dasharray="none" stroke="none" xml:space="preserve"> 1</text>
            <text x="240" y="496" clip-path="url(#clipPath77)" fill="black" stroke-dasharray="none" stroke="none" xml:space="preserve"> 1..*</text>
            <line clip-path="url(#clipPath66)" fill="none" x1="550" x2="550" y1="530" y2="630" stroke-dasharray="none" stroke="black"/>
            <line clip-path="url(#clipPath66)" fill="none" x1="550" x2="350" y1="630" y2="630" stroke-dasharray="none" stroke="black"/>
            <line clip-path="url(#clipPath66)" fill="none" x1="350" x2="350" y1="630" y2="730" stroke-dasharray="none" stroke="black"/>
            <text x="530" y="583" clip-path="url(#clipPath78)" fill="black" stroke-dasharray="none" stroke="none" xml:space="preserve"> 1</text>
            <text x="370" y="703" clip-path="url(#clipPath79)" fill="black" stroke-dasharray="none" stroke="none" xml:space="preserve"> *</text>
            <line clip-path="url(#clipPath66)" fill="none" x1="870" x2="830" y1="1410" y2="1410" stroke-dasharray="none" stroke="black"/>
            <line clip-path="url(#clipPath66)" fill="none" x1="830" x2="830" y1="1410" y2="830" stroke-dasharray="none" stroke="black"/>
            <polygon stroke-dasharray="none" clip-path="url(#clipPath73)" points=" 830 830 838 840 822 840" stroke="none"/>
            <polygon fill="none" stroke-dasharray="none" clip-path="url(#clipPath73)" points=" 830 830 838 840 822 840" stroke="black"/>
            <line clip-path="url(#clipPath66)" fill="none" x1="390" x2="350" y1="930" y2="930" stroke-dasharray="none" stroke="black"/>
            <line clip-path="url(#clipPath66)" fill="none" x1="350" x2="350" y1="930" y2="830" stroke-dasharray="none" stroke="black"/>
            <polygon stroke-dasharray="none" clip-path="url(#clipPath80)" points=" 350 830 358 840 342 840" stroke="none"/>
            <polygon fill="none" stroke-dasharray="none" clip-path="url(#clipPath80)" points=" 350 830 358 840 342 840" stroke="black"/>
            <line clip-path="url(#clipPath66)" fill="none" x1="390" x2="350" y1="1090" y2="1090" stroke-dasharray="none" stroke="black"/>
            <line clip-path="url(#clipPath66)" fill="none" x1="350" x2="350" y1="1090" y2="830" stroke-dasharray="none" stroke="black"/>
            <polygon stroke-dasharray="none" clip-path="url(#clipPath80)" points=" 350 830 358 840 342 840" stroke="none"/>
            <polygon fill="none" stroke-dasharray="none" clip-path="url(#clipPath80)" points=" 350 830 358 840 342 840" stroke="black"/>
            <line clip-path="url(#clipPath66)" fill="none" x1="390" x2="350" y1="1250" y2="1250" stroke-dasharray="none" stroke="black"/>
            <line clip-path="url(#clipPath66)" fill="none" x1="350" x2="350" y1="1250" y2="830" stroke-dasharray="none" stroke="black"/>
            <polygon stroke-dasharray="none" clip-path="url(#clipPath80)" points=" 350 830 358 840 342 840" stroke="none"/>
            <polygon fill="none" stroke-dasharray="none" clip-path="url(#clipPath80)" points=" 350 830 358 840 342 840" stroke="black"/>
            <line clip-path="url(#clipPath66)" fill="none" x1="390" x2="350" y1="1410" y2="1410" stroke-dasharray="none" stroke="black"/>
            <line clip-path="url(#clipPath66)" fill="none" x1="350" x2="350" y1="1410" y2="830" stroke-dasharray="none" stroke="black"/>
            <polygon stroke-dasharray="none" clip-path="url(#clipPath80)" points=" 350 830 358 840 342 840" stroke="none"/>
            <polygon fill="none" stroke-dasharray="none" clip-path="url(#clipPath80)" points=" 350 830 358 840 342 840" stroke="black"/>
            <line clip-path="url(#clipPath66)" fill="none" x1="390" x2="350" y1="1570" y2="1570" stroke-dasharray="none" stroke="black"/>
            <line clip-path="url(#clipPath66)" fill="none" x1="350" x2="350" y1="1570" y2="830" stroke-dasharray="none" stroke="black"/>
            <polygon stroke-dasharray="none" clip-path="url(#clipPath80)" points=" 350 830 358 840 342 840" stroke="none"/>
            <polygon fill="none" stroke-dasharray="none" clip-path="url(#clipPath80)" points=" 350 830 358 840 342 840" stroke="black"/>
        </g>
    </g>
</svg>
