<?xml version="1.0" encoding="UTF-8"?><svg xmlns="http://www.w3.org/2000/svg" xmlns:xlink="http://www.w3.org/1999/xlink" stroke-dasharray="none" shape-rendering="auto" font-family="'Dialog'" width="621" text-rendering="auto" fill-opacity="1" contentScriptType="text/ecmascript" color-interpolation="auto" color-rendering="auto" preserveAspectRatio="xMidYMid meet" font-size="12px" viewBox="0 0 621 340" fill="black" stroke="black" image-rendering="auto" stroke-miterlimit="10" zoomAndPan="magnify" version="1.0" stroke-linecap="square" stroke-linejoin="miter" contentStyleType="text/css" font-style="normal" height="340" stroke-width="1" stroke-dashoffset="0" font-weight="normal" stroke-opacity="1">
    <!--Generated by the Batik Graphics2D SVG Generator-->
    <defs id="genericDefs"/>
    <g>
        <defs id="defs1">
            <linearGradient x1="190" x2="190" y1="10" gradientUnits="userSpaceOnUse" y2="110" xlink:type="simple" xlink:actuate="onLoad" id="linearGradient1" xlink:show="other" spreadMethod="pad">
                <stop stop-opacity="1" stop-color="white" offset="0%"/>
                <stop stop-opacity="1" stop-color="rgb(131,135,205)" offset="100%"/>
            </linearGradient>
            <linearGradient x1="370" x2="370" y1="230" gradientUnits="userSpaceOnUse" y2="330" xlink:type="simple" xlink:actuate="onLoad" id="linearGradient2" xlink:show="other" spreadMethod="pad">
                <stop stop-opacity="1" stop-color="white" offset="0%"/>
                <stop stop-opacity="1" stop-color="rgb(131,135,205)" offset="100%"/>
            </linearGradient>
            <linearGradient x1="10" x2="10" y1="230" gradientUnits="userSpaceOnUse" y2="330" xlink:type="simple" xlink:actuate="onLoad" id="linearGradient3" xlink:show="other" spreadMethod="pad">
                <stop stop-opacity="1" stop-color="white" offset="0%"/>
                <stop stop-opacity="1" stop-color="rgb(131,135,205)" offset="100%"/>
            </linearGradient>
            <clipPath clipPathUnits="userSpaceOnUse" id="clipPath1">
                <path d="M190 10 L190 109 L430 109 L430 10 Z"/>
            </clipPath>
            <clipPath clipPathUnits="userSpaceOnUse" id="clipPath2">
                <path d="M281 12 L342 12 L342 29 L281 29 L281 12 Z"/>
            </clipPath>
            <clipPath clipPathUnits="userSpaceOnUse" id="clipPath3">
                <path d="M295 28 L327 28 L327 45 L295 45 L295 28 Z"/>
            </clipPath>
            <clipPath clipPathUnits="userSpaceOnUse" id="clipPath4">
                <path d="M195 47 L363 47 L363 64 L195 64 L195 47 Z"/>
            </clipPath>
            <clipPath clipPathUnits="userSpaceOnUse" id="clipPath5">
                <path d="M190 45 L432 45 L432 111 L190 111 L190 45 Z"/>
            </clipPath>
            <clipPath clipPathUnits="userSpaceOnUse" id="clipPath6">
                <path d="M189 9 L432 9 L432 111 L189 111 L189 9 Z"/>
            </clipPath>
            <clipPath clipPathUnits="userSpaceOnUse" id="clipPath7">
                <path d="M370 230 L370 329 L610 329 L610 230 Z"/>
            </clipPath>
            <clipPath clipPathUnits="userSpaceOnUse" id="clipPath8">
                <path d="M461 232 L522 232 L522 249 L461 249 L461 232 Z"/>
            </clipPath>
            <clipPath clipPathUnits="userSpaceOnUse" id="clipPath9">
                <path d="M471 248 L512 248 L512 265 L471 265 L471 248 Z"/>
            </clipPath>
            <clipPath clipPathUnits="userSpaceOnUse" id="clipPath10">
                <path d="M370 265 L612 265 L612 331 L370 331 L370 265 Z"/>
            </clipPath>
            <clipPath clipPathUnits="userSpaceOnUse" id="clipPath11">
                <path d="M369 229 L612 229 L612 331 L369 331 L369 229 Z"/>
            </clipPath>
            <clipPath clipPathUnits="userSpaceOnUse" id="clipPath12">
                <path d="M10 230 L10 329 L250 329 L250 230 Z"/>
            </clipPath>
            <clipPath clipPathUnits="userSpaceOnUse" id="clipPath13">
                <path d="M101 232 L162 232 L162 249 L101 249 L101 232 Z"/>
            </clipPath>
            <clipPath clipPathUnits="userSpaceOnUse" id="clipPath14">
                <path d="M95 248 L168 248 L168 265 L95 265 L95 248 Z"/>
            </clipPath>
            <clipPath clipPathUnits="userSpaceOnUse" id="clipPath15">
                <path d="M10 265 L252 265 L252 331 L10 331 L10 265 Z"/>
            </clipPath>
            <clipPath clipPathUnits="userSpaceOnUse" id="clipPath16">
                <path d="M9 229 L252 229 L252 331 L9 331 L9 229 Z"/>
            </clipPath>
            <clipPath clipPathUnits="userSpaceOnUse" id="clipPath17">
                <path d="M-1 -1 L622 -1 L622 341 L-1 341 L-1 -1 Z"/>
            </clipPath>
            <clipPath clipPathUnits="userSpaceOnUse" id="clipPath18">
                <path d="M301 109 L320 109 L320 122 L301 122 L301 109 Z"/>
            </clipPath>
        </defs>
        <g fill="url(#linearGradient1)" stroke-miterlimit="0" stroke-width="0" font-family="'Segoe UI'" stroke="url(#linearGradient1)" stroke-linejoin="round">
            <rect x="190" width="241" height="100" y="10" clip-path="url(#clipPath1)" stroke="none"/>
            <text fill="black" x="282" xml:space="preserve" y="26" clip-path="url(#clipPath2)" stroke="none">«Interface»</text>
            <text fill="black" x="296" xml:space="preserve" y="42" clip-path="url(#clipPath3)" stroke="none">IParty</text>
            <text fill="black" x="196" xml:space="preserve" y="61" clip-path="url(#clipPath4)" stroke="none">  contactPoint: ContactPoint [*]</text>
        </g>
        <g stroke-linecap="butt" font-family="'Segoe UI'" stroke-width="1.1">
            <line y2="46" fill="none" x1="190" clip-path="url(#clipPath5)" x2="431" y1="46"/>
            <rect x="190" y="10" clip-path="url(#clipPath6)" fill="none" width="240" rx="0" ry="0" height="99"/>
            <rect x="370" y="230" clip-path="url(#clipPath7)" fill="url(#linearGradient2)" width="241" height="100" stroke="none"/>
            <text x="462" xml:space="preserve" y="246" clip-path="url(#clipPath8)" stroke="none">«Interface»</text>
            <text x="472" xml:space="preserve" y="262" clip-path="url(#clipPath9)" stroke="none">IPerson</text>
            <line y2="266" fill="none" x1="370" clip-path="url(#clipPath10)" x2="611" y1="266"/>
            <rect x="370" y="230" clip-path="url(#clipPath11)" fill="none" width="240" rx="0" ry="0" height="99"/>
            <rect x="10" y="230" clip-path="url(#clipPath12)" fill="url(#linearGradient3)" width="241" height="100" stroke="none"/>
            <text x="102" xml:space="preserve" y="246" clip-path="url(#clipPath13)" stroke="none">«Interface»</text>
            <text x="96" xml:space="preserve" y="262" clip-path="url(#clipPath14)" stroke="none">IOrganisation</text>
            <line y2="266" fill="none" x1="10" clip-path="url(#clipPath15)" x2="251" y1="266"/>
            <rect x="10" y="230" clip-path="url(#clipPath16)" fill="none" width="240" rx="0" ry="0" height="99"/>
            <line clip-path="url(#clipPath17)" fill="none" text-rendering="optimizeLegibility" x1="130" x2="130" y1="230" y2="170"/>
            <line clip-path="url(#clipPath17)" fill="none" text-rendering="optimizeLegibility" x1="130" x2="310" y1="170" y2="170"/>
            <line clip-path="url(#clipPath17)" fill="none" text-rendering="optimizeLegibility" x1="310" x2="310" y1="170" y2="110"/>
            <polygon fill="white" text-rendering="optimizeLegibility" clip-path="url(#clipPath18)" points=" 310 110 318 120 302 120" stroke="none"/>
            <polygon fill="none" text-rendering="optimizeLegibility" clip-path="url(#clipPath18)" points=" 310 110 318 120 302 120"/>
            <line clip-path="url(#clipPath17)" fill="none" text-rendering="optimizeLegibility" x1="490" x2="490" y1="230" y2="170"/>
            <line clip-path="url(#clipPath17)" fill="none" text-rendering="optimizeLegibility" x1="490" x2="310" y1="170" y2="170"/>
            <line clip-path="url(#clipPath17)" fill="none" text-rendering="optimizeLegibility" x1="310" x2="310" y1="170" y2="110"/>
            <polygon fill="white" text-rendering="optimizeLegibility" clip-path="url(#clipPath18)" points=" 310 110 318 120 302 120" stroke="none"/>
            <polygon fill="none" text-rendering="optimizeLegibility" clip-path="url(#clipPath18)" points=" 310 110 318 120 302 120"/>
        </g>
    </g>
</svg>
