<?xml version="1.0" encoding="UTF-8"?><svg xmlns="http://www.w3.org/2000/svg" xmlns:xlink="http://www.w3.org/1999/xlink" stroke-dasharray="none" shape-rendering="auto" font-family="'Dialog'" width="1541" text-rendering="auto" fill-opacity="1" contentScriptType="text/ecmascript" color-interpolation="auto" color-rendering="auto" preserveAspectRatio="xMidYMid meet" font-size="12px" viewBox="0 0 1541 980" fill="black" stroke="black" image-rendering="auto" stroke-miterlimit="10" zoomAndPan="magnify" version="1.0" stroke-linecap="square" stroke-linejoin="miter" contentStyleType="text/css" font-style="normal" height="980" stroke-width="1" stroke-dashoffset="0" font-weight="normal" stroke-opacity="1">
    <!--Generated by the Batik Graphics2D SVG Generator-->
    <defs id="genericDefs"/>
    <g>
        <defs id="defs1">
            <linearGradient x1="810" x2="810" y1="210" gradientUnits="userSpaceOnUse" y2="310" xlink:type="simple" xlink:actuate="onLoad" id="linearGradient1" xlink:show="other" spreadMethod="pad">
                <stop stop-opacity="1" stop-color="white" offset="0%"/>
                <stop stop-opacity="1" stop-color="rgb(179,215,189)" offset="100%"/>
            </linearGradient>
            <linearGradient x1="510" x2="510" y1="390" gradientUnits="userSpaceOnUse" y2="490" xlink:type="simple" xlink:actuate="onLoad" id="linearGradient2" xlink:show="other" spreadMethod="pad">
                <stop stop-opacity="1" stop-color="white" offset="0%"/>
                <stop stop-opacity="1" stop-color="rgb(179,215,189)" offset="100%"/>
            </linearGradient>
            <linearGradient x1="1110" x2="1110" y1="390" gradientUnits="userSpaceOnUse" y2="490" xlink:type="simple" xlink:actuate="onLoad" id="linearGradient3" xlink:show="other" spreadMethod="pad">
                <stop stop-opacity="1" stop-color="white" offset="0%"/>
                <stop stop-opacity="1" stop-color="rgb(179,215,189)" offset="100%"/>
            </linearGradient>
            <linearGradient x1="810" x2="810" y1="10" gradientUnits="userSpaceOnUse" y2="140" xlink:type="simple" xlink:actuate="onLoad" id="linearGradient4" xlink:show="other" spreadMethod="pad">
                <stop stop-opacity="1" stop-color="white" offset="0%"/>
                <stop stop-opacity="1" stop-color="rgb(163,199,173)" offset="100%"/>
            </linearGradient>
            <linearGradient x1="10" x2="10" y1="10" gradientUnits="userSpaceOnUse" y2="110" xlink:type="simple" xlink:actuate="onLoad" id="linearGradient5" xlink:show="other" spreadMethod="pad">
                <stop stop-opacity="1" stop-color="white" offset="0%"/>
                <stop stop-opacity="1" stop-color="rgb(131,135,205)" offset="100%"/>
            </linearGradient>
            <linearGradient x1="190" x2="190" y1="170" gradientUnits="userSpaceOnUse" y2="283" xlink:type="simple" xlink:actuate="onLoad" id="linearGradient6" xlink:show="other" spreadMethod="pad">
                <stop stop-opacity="1" stop-color="white" offset="0%"/>
                <stop stop-opacity="1" stop-color="rgb(195,167,173)" offset="100%"/>
            </linearGradient>
            <linearGradient x1="690" x2="690" y1="550" gradientUnits="userSpaceOnUse" y2="650" xlink:type="simple" xlink:actuate="onLoad" id="linearGradient7" xlink:show="other" spreadMethod="pad">
                <stop stop-opacity="1" stop-color="white" offset="0%"/>
                <stop stop-opacity="1" stop-color="rgb(163,199,173)" offset="100%"/>
            </linearGradient>
            <linearGradient x1="690" x2="690" y1="710" gradientUnits="userSpaceOnUse" y2="810" xlink:type="simple" xlink:actuate="onLoad" id="linearGradient8" xlink:show="other" spreadMethod="pad">
                <stop stop-opacity="1" stop-color="white" offset="0%"/>
                <stop stop-opacity="1" stop-color="rgb(163,199,173)" offset="100%"/>
            </linearGradient>
            <linearGradient x1="690" x2="690" y1="870" gradientUnits="userSpaceOnUse" y2="970" xlink:type="simple" xlink:actuate="onLoad" id="linearGradient9" xlink:show="other" spreadMethod="pad">
                <stop stop-opacity="1" stop-color="white" offset="0%"/>
                <stop stop-opacity="1" stop-color="rgb(163,199,173)" offset="100%"/>
            </linearGradient>
            <linearGradient x1="1290" x2="1290" y1="550" gradientUnits="userSpaceOnUse" y2="650" xlink:type="simple" xlink:actuate="onLoad" id="linearGradient10" xlink:show="other" spreadMethod="pad">
                <stop stop-opacity="1" stop-color="white" offset="0%"/>
                <stop stop-opacity="1" stop-color="rgb(163,199,173)" offset="100%"/>
            </linearGradient>
            <clipPath clipPathUnits="userSpaceOnUse" id="clipPath1">
                <path d="M810 210 L810 309 L1050 309 L1050 210 Z"/>
            </clipPath>
            <clipPath clipPathUnits="userSpaceOnUse" id="clipPath2">
                <path d="M896 212 L966 212 L966 229 L896 229 L896 212 Z"/>
            </clipPath>
            <clipPath clipPathUnits="userSpaceOnUse" id="clipPath3">
                <path d="M903 228 L960 228 L960 245 L903 245 L903 228 Z"/>
            </clipPath>
            <clipPath clipPathUnits="userSpaceOnUse" id="clipPath4">
                <path d="M810 245 L1052 245 L1052 311 L810 311 L810 245 Z"/>
            </clipPath>
            <clipPath clipPathUnits="userSpaceOnUse" id="clipPath5">
                <path d="M809 209 L1052 209 L1052 311 L809 311 L809 209 Z"/>
            </clipPath>
            <clipPath clipPathUnits="userSpaceOnUse" id="clipPath6">
                <path d="M510 390 L510 489 L750 489 L750 390 Z"/>
            </clipPath>
            <clipPath clipPathUnits="userSpaceOnUse" id="clipPath7">
                <path d="M596 392 L666 392 L666 409 L596 409 L596 392 Z"/>
            </clipPath>
            <clipPath clipPathUnits="userSpaceOnUse" id="clipPath8">
                <path d="M578 408 L685 408 L685 425 L578 425 L578 408 Z"/>
            </clipPath>
            <clipPath clipPathUnits="userSpaceOnUse" id="clipPath9">
                <path d="M510 425 L752 425 L752 491 L510 491 L510 425 Z"/>
            </clipPath>
            <clipPath clipPathUnits="userSpaceOnUse" id="clipPath10">
                <path d="M509 389 L752 389 L752 491 L509 491 L509 389 Z"/>
            </clipPath>
            <clipPath clipPathUnits="userSpaceOnUse" id="clipPath11">
                <path d="M1110 390 L1110 489 L1350 489 L1350 390 Z"/>
            </clipPath>
            <clipPath clipPathUnits="userSpaceOnUse" id="clipPath12">
                <path d="M1196 392 L1266 392 L1266 409 L1196 409 L1196 392 Z"/>
            </clipPath>
            <clipPath clipPathUnits="userSpaceOnUse" id="clipPath13">
                <path d="M1186 408 L1277 408 L1277 425 L1186 425 L1186 408 Z"/>
            </clipPath>
            <clipPath clipPathUnits="userSpaceOnUse" id="clipPath14">
                <path d="M1110 425 L1352 425 L1352 491 L1110 491 L1110 425 Z"/>
            </clipPath>
            <clipPath clipPathUnits="userSpaceOnUse" id="clipPath15">
                <path d="M1109 389 L1352 389 L1352 491 L1109 491 L1109 389 Z"/>
            </clipPath>
            <clipPath clipPathUnits="userSpaceOnUse" id="clipPath16">
                <path d="M810 10 L810 139 L1050 139 L1050 10 Z"/>
            </clipPath>
            <clipPath clipPathUnits="userSpaceOnUse" id="clipPath17">
                <path d="M900 12 L963 12 L963 29 L900 29 L900 12 Z"/>
            </clipPath>
            <clipPath clipPathUnits="userSpaceOnUse" id="clipPath18">
                <path d="M917 28 L945 28 L945 45 L917 45 L917 28 Z"/>
            </clipPath>
            <clipPath clipPathUnits="userSpaceOnUse" id="clipPath19">
                <path d="M815 47 L919 47 L919 64 L815 64 L815 47 Z"/>
            </clipPath>
            <clipPath clipPathUnits="userSpaceOnUse" id="clipPath20">
                <path d="M815 63 L996 63 L996 80 L815 80 L815 63 Z"/>
            </clipPath>
            <clipPath clipPathUnits="userSpaceOnUse" id="clipPath21">
                <path d="M815 79 L959 79 L959 96 L815 96 L815 79 Z"/>
            </clipPath>
            <clipPath clipPathUnits="userSpaceOnUse" id="clipPath22">
                <path d="M815 95 L939 95 L939 112 L815 112 L815 95 Z"/>
            </clipPath>
            <clipPath clipPathUnits="userSpaceOnUse" id="clipPath23">
                <path d="M810 45 L1052 45 L1052 141 L810 141 L810 45 Z"/>
            </clipPath>
            <clipPath clipPathUnits="userSpaceOnUse" id="clipPath24">
                <path d="M809 9 L1052 9 L1052 141 L809 141 L809 9 Z"/>
            </clipPath>
            <clipPath clipPathUnits="userSpaceOnUse" id="clipPath25">
                <path d="M10 10 L10 109 L250 109 L250 10 Z"/>
            </clipPath>
            <clipPath clipPathUnits="userSpaceOnUse" id="clipPath26">
                <path d="M101 12 L162 12 L162 29 L101 29 L101 12 Z"/>
            </clipPath>
            <clipPath clipPathUnits="userSpaceOnUse" id="clipPath27">
                <path d="M72 28 L191 28 L191 45 L72 45 L72 28 Z"/>
            </clipPath>
            <clipPath clipPathUnits="userSpaceOnUse" id="clipPath28">
                <path d="M15 47 L214 47 L214 64 L15 64 L15 47 Z"/>
            </clipPath>
            <clipPath clipPathUnits="userSpaceOnUse" id="clipPath29">
                <path d="M10 45 L252 45 L252 111 L10 111 L10 45 Z"/>
            </clipPath>
            <clipPath clipPathUnits="userSpaceOnUse" id="clipPath30">
                <path d="M9 9 L252 9 L252 111 L9 111 L9 9 Z"/>
            </clipPath>
            <clipPath clipPathUnits="userSpaceOnUse" id="clipPath31">
                <path d="M190 170 L190 282 L430 282 L430 170 Z"/>
            </clipPath>
            <clipPath clipPathUnits="userSpaceOnUse" id="clipPath32">
                <path d="M266 172 L357 172 L357 189 L266 189 L266 172 Z"/>
            </clipPath>
            <clipPath clipPathUnits="userSpaceOnUse" id="clipPath33">
                <path d="M285 188 L338 188 L338 205 L285 205 L285 188 Z"/>
            </clipPath>
            <clipPath clipPathUnits="userSpaceOnUse" id="clipPath34">
                <path d="M195 207 L332 207 L332 224 L195 224 L195 207 Z"/>
            </clipPath>
            <clipPath clipPathUnits="userSpaceOnUse" id="clipPath35">
                <path d="M195 223 L312 223 L312 240 L195 240 L195 223 Z"/>
            </clipPath>
            <clipPath clipPathUnits="userSpaceOnUse" id="clipPath36">
                <path d="M190 205 L432 205 L432 284 L190 284 L190 205 Z"/>
            </clipPath>
            <clipPath clipPathUnits="userSpaceOnUse" id="clipPath37">
                <path d="M189 169 L432 169 L432 284 L189 284 L189 169 Z"/>
            </clipPath>
            <clipPath clipPathUnits="userSpaceOnUse" id="clipPath38">
                <path d="M690 550 L690 649 L930 649 L930 550 Z"/>
            </clipPath>
            <clipPath clipPathUnits="userSpaceOnUse" id="clipPath39">
                <path d="M780 552 L843 552 L843 569 L780 569 L780 552 Z"/>
            </clipPath>
            <clipPath clipPathUnits="userSpaceOnUse" id="clipPath40">
                <path d="M763 568 L860 568 L860 585 L763 585 L763 568 Z"/>
            </clipPath>
            <clipPath clipPathUnits="userSpaceOnUse" id="clipPath41">
                <path d="M695 587 L783 587 L783 604 L695 604 L695 587 Z"/>
            </clipPath>
            <clipPath clipPathUnits="userSpaceOnUse" id="clipPath42">
                <path d="M690 585 L932 585 L932 651 L690 651 L690 585 Z"/>
            </clipPath>
            <clipPath clipPathUnits="userSpaceOnUse" id="clipPath43">
                <path d="M689 549 L932 549 L932 651 L689 651 L689 549 Z"/>
            </clipPath>
            <clipPath clipPathUnits="userSpaceOnUse" id="clipPath44">
                <path d="M690 710 L690 809 L930 809 L930 710 Z"/>
            </clipPath>
            <clipPath clipPathUnits="userSpaceOnUse" id="clipPath45">
                <path d="M780 712 L843 712 L843 729 L780 729 L780 712 Z"/>
            </clipPath>
            <clipPath clipPathUnits="userSpaceOnUse" id="clipPath46">
                <path d="M775 728 L847 728 L847 745 L775 745 L775 728 Z"/>
            </clipPath>
            <clipPath clipPathUnits="userSpaceOnUse" id="clipPath47">
                <path d="M695 747 L783 747 L783 764 L695 764 L695 747 Z"/>
            </clipPath>
            <clipPath clipPathUnits="userSpaceOnUse" id="clipPath48">
                <path d="M690 745 L932 745 L932 811 L690 811 L690 745 Z"/>
            </clipPath>
            <clipPath clipPathUnits="userSpaceOnUse" id="clipPath49">
                <path d="M689 709 L932 709 L932 811 L689 811 L689 709 Z"/>
            </clipPath>
            <clipPath clipPathUnits="userSpaceOnUse" id="clipPath50">
                <path d="M690 870 L690 969 L930 969 L930 870 Z"/>
            </clipPath>
            <clipPath clipPathUnits="userSpaceOnUse" id="clipPath51">
                <path d="M780 872 L843 872 L843 889 L780 889 L780 872 Z"/>
            </clipPath>
            <clipPath clipPathUnits="userSpaceOnUse" id="clipPath52">
                <path d="M755 888 L867 888 L867 905 L755 905 L755 888 Z"/>
            </clipPath>
            <clipPath clipPathUnits="userSpaceOnUse" id="clipPath53">
                <path d="M695 907 L778 907 L778 924 L695 924 L695 907 Z"/>
            </clipPath>
            <clipPath clipPathUnits="userSpaceOnUse" id="clipPath54">
                <path d="M690 905 L932 905 L932 971 L690 971 L690 905 Z"/>
            </clipPath>
            <clipPath clipPathUnits="userSpaceOnUse" id="clipPath55">
                <path d="M689 869 L932 869 L932 971 L689 971 L689 869 Z"/>
            </clipPath>
            <clipPath clipPathUnits="userSpaceOnUse" id="clipPath56">
                <path d="M1290 550 L1290 649 L1530 649 L1530 550 Z"/>
            </clipPath>
            <clipPath clipPathUnits="userSpaceOnUse" id="clipPath57">
                <path d="M1380 552 L1443 552 L1443 569 L1380 569 L1380 552 Z"/>
            </clipPath>
            <clipPath clipPathUnits="userSpaceOnUse" id="clipPath58">
                <path d="M1365 568 L1457 568 L1457 585 L1365 585 L1365 568 Z"/>
            </clipPath>
            <clipPath clipPathUnits="userSpaceOnUse" id="clipPath59">
                <path d="M1295 587 L1378 587 L1378 604 L1295 604 L1295 587 Z"/>
            </clipPath>
            <clipPath clipPathUnits="userSpaceOnUse" id="clipPath60">
                <path d="M1290 585 L1532 585 L1532 651 L1290 651 L1290 585 Z"/>
            </clipPath>
            <clipPath clipPathUnits="userSpaceOnUse" id="clipPath61">
                <path d="M1289 549 L1532 549 L1532 651 L1289 651 L1289 549 Z"/>
            </clipPath>
            <clipPath clipPathUnits="userSpaceOnUse" id="clipPath62">
                <path d="M-1 -1 L1542 -1 L1542 981 L-1 981 L-1 -1 Z"/>
            </clipPath>
            <clipPath clipPathUnits="userSpaceOnUse" id="clipPath63">
                <path d="M921 309 L940 309 L940 322 L921 322 L921 309 Z"/>
            </clipPath>
            <clipPath clipPathUnits="userSpaceOnUse" id="clipPath64">
                <path d="M124 109 L137 109 L137 127 L124 127 L124 109 Z"/>
            </clipPath>
            <clipPath clipPathUnits="userSpaceOnUse" id="clipPath65">
                <path d="M621 489 L640 489 L640 502 L621 502 L621 489 Z"/>
            </clipPath>
            <clipPath clipPathUnits="userSpaceOnUse" id="clipPath66">
                <path d="M1221 489 L1240 489 L1240 502 L1221 502 L1221 489 Z"/>
            </clipPath>
        </defs>
        <g fill="url(#linearGradient1)" stroke-miterlimit="0" stroke-width="0" font-family="'Segoe UI'" stroke="url(#linearGradient1)" stroke-linejoin="round">
            <rect x="810" width="241" height="100" y="210" clip-path="url(#clipPath1)" stroke="none"/>
            <text x="897" y="226" clip-path="url(#clipPath2)" fill="rgb(169,169,169)" font-style="italic" stroke="none" xml:space="preserve">«DataType»</text>
            <text x="904" y="242" clip-path="url(#clipPath3)" fill="rgb(169,169,169)" font-style="italic" stroke="none" xml:space="preserve">ScanCode</text>
        </g>
        <g stroke-linecap="butt" font-family="'Segoe UI'" stroke-width="1.1">
            <line y2="246" fill="none" x1="810" clip-path="url(#clipPath4)" x2="1051" y1="246"/>
            <rect x="810" y="210" clip-path="url(#clipPath5)" fill="none" width="240" rx="0" ry="0" height="99"/>
            <rect x="510" y="390" clip-path="url(#clipPath6)" fill="url(#linearGradient2)" width="241" height="100" stroke="none"/>
            <text x="597" y="406" clip-path="url(#clipPath7)" fill="rgb(169,169,169)" font-style="italic" stroke="none" xml:space="preserve">«DataType»</text>
            <text x="579" y="422" clip-path="url(#clipPath8)" fill="rgb(169,169,169)" font-style="italic" stroke="none" xml:space="preserve">ConsumerUnitCode</text>
            <line y2="426" fill="none" x1="510" clip-path="url(#clipPath9)" x2="751" y1="426"/>
            <rect x="510" y="390" clip-path="url(#clipPath10)" fill="none" width="240" rx="0" ry="0" height="99"/>
            <rect x="1110" y="390" clip-path="url(#clipPath11)" fill="url(#linearGradient3)" width="241" height="100" stroke="none"/>
            <text x="1197" y="406" clip-path="url(#clipPath12)" fill="rgb(169,169,169)" font-style="italic" stroke="none" xml:space="preserve">«DataType»</text>
            <text x="1187" y="422" clip-path="url(#clipPath13)" fill="rgb(169,169,169)" font-style="italic" stroke="none" xml:space="preserve">TradedUnitCode</text>
            <line y2="426" fill="none" x1="1110" clip-path="url(#clipPath14)" x2="1351" y1="426"/>
            <rect x="1110" y="390" clip-path="url(#clipPath15)" fill="none" width="240" rx="0" ry="0" height="99"/>
            <rect x="810" y="10" clip-path="url(#clipPath16)" fill="url(#linearGradient4)" width="241" height="130" stroke="none"/>
            <text x="901" xml:space="preserve" y="26" clip-path="url(#clipPath17)" stroke="none">«DataType»</text>
            <text x="918" xml:space="preserve" y="42" clip-path="url(#clipPath18)" stroke="none">GTIN</text>
            <text x="816" xml:space="preserve" y="61" clip-path="url(#clipPath19)" stroke="none">  type: GTINType [1]</text>
            <text x="816" xml:space="preserve" y="77" clip-path="url(#clipPath20)" stroke="none">  memberOrganisation: Integer [1]</text>
            <text x="816" xml:space="preserve" y="93" clip-path="url(#clipPath21)" stroke="none">  articleNumber: Integer [1]</text>
            <text x="816" xml:space="preserve" y="109" clip-path="url(#clipPath22)" stroke="none">  checkDigit: Integer [1]</text>
            <line y2="46" fill="none" x1="810" clip-path="url(#clipPath23)" x2="1051" y1="46"/>
            <rect x="810" y="10" clip-path="url(#clipPath24)" fill="none" width="240" rx="0" ry="0" height="129"/>
            <rect x="10" y="10" clip-path="url(#clipPath25)" fill="url(#linearGradient5)" width="241" height="100" stroke="none"/>
            <text x="102" xml:space="preserve" y="26" clip-path="url(#clipPath26)" stroke="none">«Interface»</text>
            <text x="73" xml:space="preserve" y="42" clip-path="url(#clipPath27)" stroke="none">IControlledVocabulary</text>
            <text x="16" xml:space="preserve" y="61" clip-path="url(#clipPath28)" stroke="none">«ReferenceCode»   code: Identifier [1]</text>
            <line y2="46" fill="none" x1="10" clip-path="url(#clipPath29)" x2="251" y1="46"/>
            <rect x="10" y="10" clip-path="url(#clipPath30)" fill="none" width="240" rx="0" ry="0" height="99"/>
            <rect x="190" y="170" clip-path="url(#clipPath31)" fill="url(#linearGradient6)" width="241" height="113" stroke="none"/>
            <text x="267" xml:space="preserve" y="186" clip-path="url(#clipPath32)" stroke="none">«ReferenceData»</text>
            <text x="286" xml:space="preserve" y="202" clip-path="url(#clipPath33)" stroke="none">GTINType</text>
            <text x="196" xml:space="preserve" y="221" clip-path="url(#clipPath34)" stroke="none">  isConsumer: Boolean [1]</text>
            <text x="196" xml:space="preserve" y="237" clip-path="url(#clipPath35)" stroke="none">  isTraded: Boolean [1]</text>
            <line y2="206" fill="none" x1="190" clip-path="url(#clipPath36)" x2="431" y1="206"/>
            <rect x="190" y="170" clip-path="url(#clipPath37)" fill="none" width="240" rx="0" ry="0" height="112"/>
            <rect x="690" y="550" clip-path="url(#clipPath38)" fill="url(#linearGradient7)" width="241" height="100" stroke="none"/>
            <text x="781" xml:space="preserve" y="566" clip-path="url(#clipPath39)" stroke="none">«DataType»</text>
            <text x="764" xml:space="preserve" y="582" clip-path="url(#clipPath40)" stroke="none">PriceLookupCode</text>
            <text x="696" xml:space="preserve" y="601" clip-path="url(#clipPath41)" stroke="none">  code: String [1]</text>
            <line y2="586" fill="none" x1="690" clip-path="url(#clipPath42)" x2="931" y1="586"/>
            <rect x="690" y="550" clip-path="url(#clipPath43)" fill="none" width="240" rx="0" ry="0" height="99"/>
            <rect x="690" y="710" clip-path="url(#clipPath44)" fill="url(#linearGradient8)" width="241" height="100" stroke="none"/>
            <text x="781" xml:space="preserve" y="726" clip-path="url(#clipPath45)" stroke="none">«DataType»</text>
            <text x="776" xml:space="preserve" y="742" clip-path="url(#clipPath46)" stroke="none">VelocityCode</text>
            <text x="696" xml:space="preserve" y="761" clip-path="url(#clipPath47)" stroke="none">  code: String [1]</text>
            <line y2="746" fill="none" x1="690" clip-path="url(#clipPath48)" x2="931" y1="746"/>
            <rect x="690" y="710" clip-path="url(#clipPath49)" fill="none" width="240" rx="0" ry="0" height="99"/>
            <rect x="690" y="870" clip-path="url(#clipPath50)" fill="url(#linearGradient9)" width="241" height="100" stroke="none"/>
            <text x="781" xml:space="preserve" y="886" clip-path="url(#clipPath51)" stroke="none">«DataType»</text>
            <text x="756" xml:space="preserve" y="902" clip-path="url(#clipPath52)" stroke="none">GTINConsumerCode</text>
            <text x="696" xml:space="preserve" y="921" clip-path="url(#clipPath53)" stroke="none">  code: GTIN [1]</text>
            <line y2="906" fill="none" x1="690" clip-path="url(#clipPath54)" x2="931" y1="906"/>
            <rect x="690" y="870" clip-path="url(#clipPath55)" fill="none" width="240" rx="0" ry="0" height="99"/>
            <rect x="1290" y="550" clip-path="url(#clipPath56)" fill="url(#linearGradient10)" width="241" height="100" stroke="none"/>
            <text x="1381" xml:space="preserve" y="566" clip-path="url(#clipPath57)" stroke="none">«DataType»</text>
            <text x="1366" xml:space="preserve" y="582" clip-path="url(#clipPath58)" stroke="none">GTINTradedCode</text>
            <text x="1296" xml:space="preserve" y="601" clip-path="url(#clipPath59)" stroke="none">  code: GTIN [1]</text>
            <line y2="586" fill="none" x1="1290" clip-path="url(#clipPath60)" x2="1531" y1="586"/>
            <rect x="1290" y="550" clip-path="url(#clipPath61)" fill="none" width="240" rx="0" ry="0" height="99"/>
            <line clip-path="url(#clipPath62)" fill="none" text-rendering="optimizeLegibility" x1="630" x2="630" y1="390" y2="350"/>
            <line clip-path="url(#clipPath62)" fill="none" text-rendering="optimizeLegibility" x1="630" x2="930" y1="350" y2="350"/>
            <line clip-path="url(#clipPath62)" fill="none" text-rendering="optimizeLegibility" x1="930" x2="930" y1="350" y2="310"/>
            <polygon fill="white" text-rendering="optimizeLegibility" clip-path="url(#clipPath63)" points=" 930 310 938 320 922 320" stroke="none"/>
            <polygon fill="none" text-rendering="optimizeLegibility" clip-path="url(#clipPath63)" points=" 930 310 938 320 922 320"/>
            <line clip-path="url(#clipPath62)" fill="none" text-rendering="optimizeLegibility" x1="1230" x2="1230" y1="390" y2="350"/>
            <line clip-path="url(#clipPath62)" fill="none" text-rendering="optimizeLegibility" x1="1230" x2="930" y1="350" y2="350"/>
            <line clip-path="url(#clipPath62)" fill="none" text-rendering="optimizeLegibility" x1="930" x2="930" y1="350" y2="310"/>
            <polygon fill="white" text-rendering="optimizeLegibility" clip-path="url(#clipPath63)" points=" 930 310 938 320 922 320" stroke="none"/>
            <polygon fill="none" text-rendering="optimizeLegibility" clip-path="url(#clipPath63)" points=" 930 310 938 320 922 320"/>
            <line clip-path="url(#clipPath62)" fill="none" text-rendering="optimizeLegibility" x1="190" x2="130" y1="215" y2="215" stroke-dasharray="5,5,5,5,5,5,5,5,5,5"/>
            <line clip-path="url(#clipPath62)" fill="none" text-rendering="optimizeLegibility" x1="130" x2="130" y1="215" y2="110" stroke-dasharray="5,5,5,5,5,5,5,5,5,5"/>
        </g>
        <g stroke-linecap="butt" fill="white" text-rendering="optimizeLegibility" font-family="'Segoe UI'" stroke-dasharray="5,5,5,5,5,5,5,5,5,5" stroke="white" stroke-width="1.1">
            <polygon points=" 130 110 135 125 125 125" stroke="none" clip-path="url(#clipPath64)"/>
            <polygon fill="none" stroke-dasharray="none" clip-path="url(#clipPath64)" points=" 130 110 135 125 125 125" stroke="black"/>
            <line clip-path="url(#clipPath62)" fill="none" x1="690" x2="630" y1="590" y2="590" stroke-dasharray="none" stroke="black"/>
            <line clip-path="url(#clipPath62)" fill="none" x1="630" x2="630" y1="590" y2="490" stroke-dasharray="none" stroke="black"/>
            <polygon stroke-dasharray="none" clip-path="url(#clipPath65)" points=" 630 490 638 500 622 500" stroke="none"/>
            <polygon fill="none" stroke-dasharray="none" clip-path="url(#clipPath65)" points=" 630 490 638 500 622 500" stroke="black"/>
            <line clip-path="url(#clipPath62)" fill="none" x1="690" x2="630" y1="750" y2="750" stroke-dasharray="none" stroke="black"/>
            <line clip-path="url(#clipPath62)" fill="none" x1="630" x2="630" y1="750" y2="490" stroke-dasharray="none" stroke="black"/>
            <polygon stroke-dasharray="none" clip-path="url(#clipPath65)" points=" 630 490 638 500 622 500" stroke="none"/>
            <polygon fill="none" stroke-dasharray="none" clip-path="url(#clipPath65)" points=" 630 490 638 500 622 500" stroke="black"/>
            <line clip-path="url(#clipPath62)" fill="none" x1="690" x2="630" y1="910" y2="910" stroke-dasharray="none" stroke="black"/>
            <line clip-path="url(#clipPath62)" fill="none" x1="630" x2="630" y1="910" y2="490" stroke-dasharray="none" stroke="black"/>
            <polygon stroke-dasharray="none" clip-path="url(#clipPath65)" points=" 630 490 638 500 622 500" stroke="none"/>
            <polygon fill="none" stroke-dasharray="none" clip-path="url(#clipPath65)" points=" 630 490 638 500 622 500" stroke="black"/>
            <line clip-path="url(#clipPath62)" fill="none" x1="1290" x2="1230" y1="590" y2="590" stroke-dasharray="none" stroke="black"/>
            <line clip-path="url(#clipPath62)" fill="none" x1="1230" x2="1230" y1="590" y2="490" stroke-dasharray="none" stroke="black"/>
            <polygon stroke-dasharray="none" clip-path="url(#clipPath66)" points=" 1230 490 1238 500 1222 500" stroke="none"/>
            <polygon fill="none" stroke-dasharray="none" clip-path="url(#clipPath66)" points=" 1230 490 1238 500 1222 500" stroke="black"/>
        </g>
    </g>
</svg>
