<?xml version="1.0" encoding="UTF-8"?><svg xmlns="http://www.w3.org/2000/svg" xmlns:xlink="http://www.w3.org/1999/xlink" stroke-dasharray="none" shape-rendering="auto" font-family="'Dialog'" width="621" text-rendering="auto" fill-opacity="1" contentScriptType="text/ecmascript" color-interpolation="auto" color-rendering="auto" preserveAspectRatio="xMidYMid meet" font-size="12px" viewBox="0 0 621 919" fill="black" stroke="black" image-rendering="auto" stroke-miterlimit="10" zoomAndPan="magnify" version="1.0" stroke-linecap="square" stroke-linejoin="miter" contentStyleType="text/css" font-style="normal" height="919" stroke-width="1" stroke-dashoffset="0" font-weight="normal" stroke-opacity="1">
    <!--Generated by the Batik Graphics2D SVG Generator-->
    <defs id="genericDefs"/>
    <g>
        <defs id="defs1">
            <linearGradient x1="10" x2="10" y1="10" gradientUnits="userSpaceOnUse" y2="110" xlink:type="simple" xlink:actuate="onLoad" id="linearGradient1" xlink:show="other" spreadMethod="pad">
                <stop stop-opacity="1" stop-color="white" offset="0%"/>
                <stop stop-opacity="1" stop-color="rgb(131,135,205)" offset="100%"/>
            </linearGradient>
            <linearGradient x1="190" x2="190" y1="329" gradientUnits="userSpaceOnUse" y2="442" xlink:type="simple" xlink:actuate="onLoad" id="linearGradient2" xlink:show="other" spreadMethod="pad">
                <stop stop-opacity="1" stop-color="white" offset="0%"/>
                <stop stop-opacity="1" stop-color="rgb(195,167,173)" offset="100%"/>
            </linearGradient>
            <linearGradient x1="190" x2="190" y1="169" gradientUnits="userSpaceOnUse" y2="269" xlink:type="simple" xlink:actuate="onLoad" id="linearGradient3" xlink:show="other" spreadMethod="pad">
                <stop stop-opacity="1" stop-color="white" offset="0%"/>
                <stop stop-opacity="1" stop-color="rgb(195,167,173)" offset="100%"/>
            </linearGradient>
            <linearGradient x1="190" x2="190" y1="489" gradientUnits="userSpaceOnUse" y2="589" xlink:type="simple" xlink:actuate="onLoad" id="linearGradient4" xlink:show="other" spreadMethod="pad">
                <stop stop-opacity="1" stop-color="white" offset="0%"/>
                <stop stop-opacity="1" stop-color="rgb(195,167,173)" offset="100%"/>
            </linearGradient>
            <linearGradient x1="370" x2="370" y1="649" gradientUnits="userSpaceOnUse" y2="749" xlink:type="simple" xlink:actuate="onLoad" id="linearGradient5" xlink:show="other" spreadMethod="pad">
                <stop stop-opacity="1" stop-color="white" offset="0%"/>
                <stop stop-opacity="1" stop-color="rgb(195,167,173)" offset="100%"/>
            </linearGradient>
            <linearGradient x1="370" x2="370" y1="809" gradientUnits="userSpaceOnUse" y2="909" xlink:type="simple" xlink:actuate="onLoad" id="linearGradient6" xlink:show="other" spreadMethod="pad">
                <stop stop-opacity="1" stop-color="white" offset="0%"/>
                <stop stop-opacity="1" stop-color="rgb(195,167,173)" offset="100%"/>
            </linearGradient>
            <clipPath clipPathUnits="userSpaceOnUse" id="clipPath1">
                <path d="M10 10 L10 109 L250 109 L250 10 Z"/>
            </clipPath>
            <clipPath clipPathUnits="userSpaceOnUse" id="clipPath2">
                <path d="M101 12 L162 12 L162 29 L101 29 L101 12 Z"/>
            </clipPath>
            <clipPath clipPathUnits="userSpaceOnUse" id="clipPath3">
                <path d="M72 28 L191 28 L191 45 L72 45 L72 28 Z"/>
            </clipPath>
            <clipPath clipPathUnits="userSpaceOnUse" id="clipPath4">
                <path d="M15 47 L214 47 L214 64 L15 64 L15 47 Z"/>
            </clipPath>
            <clipPath clipPathUnits="userSpaceOnUse" id="clipPath5">
                <path d="M10 45 L252 45 L252 111 L10 111 L10 45 Z"/>
            </clipPath>
            <clipPath clipPathUnits="userSpaceOnUse" id="clipPath6">
                <path d="M9 9 L252 9 L252 111 L9 111 L9 9 Z"/>
            </clipPath>
            <clipPath clipPathUnits="userSpaceOnUse" id="clipPath7">
                <path d="M190 329 L190 441 L430 441 L430 329 Z"/>
            </clipPath>
            <clipPath clipPathUnits="userSpaceOnUse" id="clipPath8">
                <path d="M266 331 L357 331 L357 348 L266 348 L266 331 Z"/>
            </clipPath>
            <clipPath clipPathUnits="userSpaceOnUse" id="clipPath9">
                <path d="M275 347 L348 347 L348 364 L275 364 L275 347 Z"/>
            </clipPath>
            <clipPath clipPathUnits="userSpaceOnUse" id="clipPath10">
                <path d="M195 366 L412 366 L412 383 L195 383 L195 366 Z"/>
            </clipPath>
            <clipPath clipPathUnits="userSpaceOnUse" id="clipPath11">
                <path d="M195 382 L334 382 L334 399 L195 399 L195 382 Z"/>
            </clipPath>
            <clipPath clipPathUnits="userSpaceOnUse" id="clipPath12">
                <path d="M190 364 L432 364 L432 443 L190 443 L190 364 Z"/>
            </clipPath>
            <clipPath clipPathUnits="userSpaceOnUse" id="clipPath13">
                <path d="M189 328 L432 328 L432 443 L189 443 L189 328 Z"/>
            </clipPath>
            <clipPath clipPathUnits="userSpaceOnUse" id="clipPath14">
                <path d="M190 169 L190 268 L430 268 L430 169 Z"/>
            </clipPath>
            <clipPath clipPathUnits="userSpaceOnUse" id="clipPath15">
                <path d="M266 171 L357 171 L357 188 L266 188 L266 171 Z"/>
            </clipPath>
            <clipPath clipPathUnits="userSpaceOnUse" id="clipPath16">
                <path d="M264 187 L359 187 L359 204 L264 204 L264 187 Z"/>
            </clipPath>
            <clipPath clipPathUnits="userSpaceOnUse" id="clipPath17">
                <path d="M190 204 L432 204 L432 270 L190 270 L190 204 Z"/>
            </clipPath>
            <clipPath clipPathUnits="userSpaceOnUse" id="clipPath18">
                <path d="M189 168 L432 168 L432 270 L189 270 L189 168 Z"/>
            </clipPath>
            <clipPath clipPathUnits="userSpaceOnUse" id="clipPath19">
                <path d="M190 489 L190 588 L430 588 L430 489 Z"/>
            </clipPath>
            <clipPath clipPathUnits="userSpaceOnUse" id="clipPath20">
                <path d="M266 491 L357 491 L357 508 L266 508 L266 491 Z"/>
            </clipPath>
            <clipPath clipPathUnits="userSpaceOnUse" id="clipPath21">
                <path d="M278 507 L345 507 L345 524 L278 524 L278 507 Z"/>
            </clipPath>
            <clipPath clipPathUnits="userSpaceOnUse" id="clipPath22">
                <path d="M195 526 L412 526 L412 543 L195 543 L195 526 Z"/>
            </clipPath>
            <clipPath clipPathUnits="userSpaceOnUse" id="clipPath23">
                <path d="M190 524 L432 524 L432 590 L190 590 L190 524 Z"/>
            </clipPath>
            <clipPath clipPathUnits="userSpaceOnUse" id="clipPath24">
                <path d="M189 488 L432 488 L432 590 L189 590 L189 488 Z"/>
            </clipPath>
            <clipPath clipPathUnits="userSpaceOnUse" id="clipPath25">
                <path d="M370 649 L370 748 L610 748 L610 649 Z"/>
            </clipPath>
            <clipPath clipPathUnits="userSpaceOnUse" id="clipPath26">
                <path d="M446 651 L537 651 L537 668 L446 668 L446 651 Z"/>
            </clipPath>
            <clipPath clipPathUnits="userSpaceOnUse" id="clipPath27">
                <path d="M442 667 L540 667 L540 684 L442 684 L442 667 Z"/>
            </clipPath>
            <clipPath clipPathUnits="userSpaceOnUse" id="clipPath28">
                <path d="M375 686 L465 686 L465 703 L375 703 L375 686 Z"/>
            </clipPath>
            <clipPath clipPathUnits="userSpaceOnUse" id="clipPath29">
                <path d="M370 684 L612 684 L612 750 L370 750 L370 684 Z"/>
            </clipPath>
            <clipPath clipPathUnits="userSpaceOnUse" id="clipPath30">
                <path d="M369 648 L612 648 L612 750 L369 750 L369 648 Z"/>
            </clipPath>
            <clipPath clipPathUnits="userSpaceOnUse" id="clipPath31">
                <path d="M370 809 L370 908 L610 908 L610 809 Z"/>
            </clipPath>
            <clipPath clipPathUnits="userSpaceOnUse" id="clipPath32">
                <path d="M446 811 L537 811 L537 828 L446 828 L446 811 Z"/>
            </clipPath>
            <clipPath clipPathUnits="userSpaceOnUse" id="clipPath33">
                <path d="M435 827 L548 827 L548 844 L435 844 L435 827 Z"/>
            </clipPath>
            <clipPath clipPathUnits="userSpaceOnUse" id="clipPath34">
                <path d="M375 846 L480 846 L480 863 L375 863 L375 846 Z"/>
            </clipPath>
            <clipPath clipPathUnits="userSpaceOnUse" id="clipPath35">
                <path d="M370 844 L612 844 L612 910 L370 910 L370 844 Z"/>
            </clipPath>
            <clipPath clipPathUnits="userSpaceOnUse" id="clipPath36">
                <path d="M369 808 L612 808 L612 910 L369 910 L369 808 Z"/>
            </clipPath>
            <clipPath clipPathUnits="userSpaceOnUse" id="clipPath37">
                <path d="M-1 -1 L622 -1 L622 920 L-1 920 L-1 -1 Z"/>
            </clipPath>
            <clipPath clipPathUnits="userSpaceOnUse" id="clipPath38">
                <path d="M124 109 L137 109 L137 127 L124 127 L124 109 Z"/>
            </clipPath>
            <clipPath clipPathUnits="userSpaceOnUse" id="clipPath39">
                <path d="M301 588 L320 588 L320 601 L301 601 L301 588 Z"/>
            </clipPath>
        </defs>
        <g fill="url(#linearGradient1)" stroke-miterlimit="0" stroke-width="0" font-family="'Segoe UI'" stroke="url(#linearGradient1)" stroke-linejoin="round">
            <rect x="10" width="241" height="100" y="10" clip-path="url(#clipPath1)" stroke="none"/>
            <text fill="black" x="102" xml:space="preserve" y="26" clip-path="url(#clipPath2)" stroke="none">«Interface»</text>
            <text fill="black" x="73" xml:space="preserve" y="42" clip-path="url(#clipPath3)" stroke="none">IControlledVocabulary</text>
            <text fill="black" x="16" xml:space="preserve" y="61" clip-path="url(#clipPath4)" stroke="none">«ReferenceCode»   code: Identifier [1]</text>
        </g>
        <g stroke-linecap="butt" font-family="'Segoe UI'" stroke-width="1.1">
            <line y2="46" fill="none" x1="10" clip-path="url(#clipPath5)" x2="251" y1="46"/>
            <rect x="10" y="10" clip-path="url(#clipPath6)" fill="none" width="240" rx="0" ry="0" height="99"/>
            <rect x="190" y="329" clip-path="url(#clipPath7)" fill="url(#linearGradient2)" width="241" height="113" stroke="none"/>
            <text x="267" xml:space="preserve" y="345" clip-path="url(#clipPath8)" stroke="none">«ReferenceData»</text>
            <text x="276" xml:space="preserve" y="361" clip-path="url(#clipPath9)" stroke="none">VariantFamily</text>
            <text x="196" xml:space="preserve" y="380" clip-path="url(#clipPath10)" stroke="none">  variantDimension: VariantDimension [1]</text>
            <text x="196" xml:space="preserve" y="396" clip-path="url(#clipPath11)" stroke="none">  values: VariantValue [1..*]</text>
            <line y2="365" fill="none" x1="190" clip-path="url(#clipPath12)" x2="431" y1="365"/>
            <rect x="190" y="329" clip-path="url(#clipPath13)" fill="none" width="240" rx="0" ry="0" height="112"/>
            <rect x="190" y="169" clip-path="url(#clipPath14)" fill="url(#linearGradient3)" width="241" height="100" stroke="none"/>
            <text x="267" xml:space="preserve" y="185" clip-path="url(#clipPath15)" stroke="none">«ReferenceData»</text>
            <text x="265" xml:space="preserve" y="201" clip-path="url(#clipPath16)" stroke="none">VariantDimension</text>
            <line y2="205" fill="none" x1="190" clip-path="url(#clipPath17)" x2="431" y1="205"/>
            <rect x="190" y="169" clip-path="url(#clipPath18)" fill="none" width="240" rx="0" ry="0" height="99"/>
            <rect x="190" y="489" clip-path="url(#clipPath19)" fill="url(#linearGradient4)" width="241" height="100" stroke="none"/>
            <text x="267" xml:space="preserve" y="505" clip-path="url(#clipPath20)" stroke="none">«ReferenceData»</text>
            <text x="279" xml:space="preserve" y="521" clip-path="url(#clipPath21)" stroke="none">VariantValue</text>
            <text x="196" xml:space="preserve" y="540" clip-path="url(#clipPath22)" stroke="none">  variantDimension: VariantDimension [1]</text>
            <line y2="525" fill="none" x1="190" clip-path="url(#clipPath23)" x2="431" y1="525"/>
            <rect x="190" y="489" clip-path="url(#clipPath24)" fill="none" width="240" rx="0" ry="0" height="99"/>
            <rect x="370" y="649" clip-path="url(#clipPath25)" fill="url(#linearGradient5)" width="241" height="100" stroke="none"/>
            <text x="447" xml:space="preserve" y="665" clip-path="url(#clipPath26)" stroke="none">«ReferenceData»</text>
            <text x="443" xml:space="preserve" y="681" clip-path="url(#clipPath27)" stroke="none">VariantStringValue</text>
            <text x="376" xml:space="preserve" y="700" clip-path="url(#clipPath28)" stroke="none">  value: String [1]</text>
            <line y2="685" fill="none" x1="370" clip-path="url(#clipPath29)" x2="611" y1="685"/>
            <rect x="370" y="649" clip-path="url(#clipPath30)" fill="none" width="240" rx="0" ry="0" height="99"/>
            <rect x="370" y="809" clip-path="url(#clipPath31)" fill="url(#linearGradient6)" width="241" height="100" stroke="none"/>
            <text x="447" xml:space="preserve" y="825" clip-path="url(#clipPath32)" stroke="none">«ReferenceData»</text>
            <text x="436" xml:space="preserve" y="841" clip-path="url(#clipPath33)" stroke="none">VariantQuantityValue</text>
            <text x="376" xml:space="preserve" y="860" clip-path="url(#clipPath34)" stroke="none">  value: Quantity [1]</text>
            <line y2="845" fill="none" x1="370" clip-path="url(#clipPath35)" x2="611" y1="845"/>
            <rect x="370" y="809" clip-path="url(#clipPath36)" fill="none" width="240" rx="0" ry="0" height="99"/>
            <line clip-path="url(#clipPath37)" fill="none" text-rendering="optimizeLegibility" x1="190" x2="130" y1="369" y2="369" stroke-dasharray="5,5,5,5,5,5,5,5,5,5"/>
            <line clip-path="url(#clipPath37)" fill="none" text-rendering="optimizeLegibility" x1="130" x2="130" y1="369" y2="110" stroke-dasharray="5,5,5,5,5,5,5,5,5,5"/>
        </g>
        <g stroke-linecap="butt" fill="white" text-rendering="optimizeLegibility" font-family="'Segoe UI'" stroke-dasharray="5,5,5,5,5,5,5,5,5,5" stroke="white" stroke-width="1.1">
            <polygon points=" 130 110 135 125 125 125" stroke="none" clip-path="url(#clipPath38)"/>
            <polygon fill="none" stroke-dasharray="none" clip-path="url(#clipPath38)" points=" 130 110 135 125 125 125" stroke="black"/>
            <line clip-path="url(#clipPath37)" fill="none" x1="190" x2="130" y1="209" y2="209" stroke="black"/>
            <line clip-path="url(#clipPath37)" fill="none" x1="130" x2="130" y1="209" y2="110" stroke="black"/>
            <polygon points=" 130 110 135 125 125 125" clip-path="url(#clipPath38)" stroke="none"/>
            <polygon fill="none" stroke-dasharray="none" clip-path="url(#clipPath38)" points=" 130 110 135 125 125 125" stroke="black"/>
            <line clip-path="url(#clipPath37)" fill="none" x1="190" x2="130" y1="529" y2="529" stroke="black"/>
            <line clip-path="url(#clipPath37)" fill="none" x1="130" x2="130" y1="529" y2="110" stroke="black"/>
            <polygon points=" 130 110 135 125 125 125" clip-path="url(#clipPath38)" stroke="none"/>
            <polygon fill="none" stroke-dasharray="none" clip-path="url(#clipPath38)" points=" 130 110 135 125 125 125" stroke="black"/>
            <line clip-path="url(#clipPath37)" fill="none" x1="370" x2="310" y1="689" y2="689" stroke-dasharray="none" stroke="black"/>
            <line clip-path="url(#clipPath37)" fill="none" x1="310" x2="310" y1="689" y2="589" stroke-dasharray="none" stroke="black"/>
            <polygon stroke-dasharray="none" clip-path="url(#clipPath39)" points=" 310 589 318 599 302 599" stroke="none"/>
            <polygon fill="none" stroke-dasharray="none" clip-path="url(#clipPath39)" points=" 310 589 318 599 302 599" stroke="black"/>
            <line clip-path="url(#clipPath37)" fill="none" x1="370" x2="310" y1="849" y2="849" stroke-dasharray="none" stroke="black"/>
            <line clip-path="url(#clipPath37)" fill="none" x1="310" x2="310" y1="849" y2="589" stroke-dasharray="none" stroke="black"/>
            <polygon stroke-dasharray="none" clip-path="url(#clipPath39)" points=" 310 589 318 599 302 599" stroke="none"/>
            <polygon fill="none" stroke-dasharray="none" clip-path="url(#clipPath39)" points=" 310 589 318 599 302 599" stroke="black"/>
        </g>
    </g>
</svg>
