<?xml version="1.0" encoding="UTF-8"?><svg xmlns="http://www.w3.org/2000/svg" xmlns:xlink="http://www.w3.org/1999/xlink" stroke-dasharray="none" shape-rendering="auto" font-family="'Dialog'" width="781" text-rendering="auto" fill-opacity="1" contentScriptType="text/ecmascript" color-interpolation="auto" color-rendering="auto" preserveAspectRatio="xMidYMid meet" font-size="12px" viewBox="0 0 781 400" fill="black" stroke="black" image-rendering="auto" stroke-miterlimit="10" zoomAndPan="magnify" version="1.0" stroke-linecap="square" stroke-linejoin="miter" contentStyleType="text/css" font-style="normal" height="400" stroke-width="1" stroke-dashoffset="0" font-weight="normal" stroke-opacity="1">
    <!--Generated by the Batik Graphics2D SVG Generator-->
    <defs id="genericDefs"/>
    <g>
        <defs id="defs1">
            <linearGradient x1="10" x2="10" y1="10" gradientUnits="userSpaceOnUse" y2="123" xlink:type="simple" xlink:actuate="onLoad" id="linearGradient1" xlink:show="other" spreadMethod="pad">
                <stop stop-opacity="1" stop-color="white" offset="0%"/>
                <stop stop-opacity="1" stop-color="rgb(131,135,205)" offset="100%"/>
            </linearGradient>
            <linearGradient x1="10" x2="10" y1="290" gradientUnits="userSpaceOnUse" y2="390" xlink:type="simple" xlink:actuate="onLoad" id="linearGradient2" xlink:show="other" spreadMethod="pad">
                <stop stop-opacity="1" stop-color="white" offset="0%"/>
                <stop stop-opacity="1" stop-color="rgb(131,135,205)" offset="100%"/>
            </linearGradient>
            <linearGradient x1="530" x2="530" y1="10" gradientUnits="userSpaceOnUse" y2="110" xlink:type="simple" xlink:actuate="onLoad" id="linearGradient3" xlink:show="other" spreadMethod="pad">
                <stop stop-opacity="1" stop-color="white" offset="0%"/>
                <stop stop-opacity="1" stop-color="rgb(163,199,173)" offset="100%"/>
            </linearGradient>
            <clipPath clipPathUnits="userSpaceOnUse" id="clipPath1">
                <path d="M10 10 L10 122 L250 122 L250 10 Z"/>
            </clipPath>
            <clipPath clipPathUnits="userSpaceOnUse" id="clipPath2">
                <path d="M101 12 L162 12 L162 29 L101 29 L101 12 Z"/>
            </clipPath>
            <clipPath clipPathUnits="userSpaceOnUse" id="clipPath3">
                <path d="M88 28 L175 28 L175 45 L88 45 L88 28 Z"/>
            </clipPath>
            <clipPath clipPathUnits="userSpaceOnUse" id="clipPath4">
                <path d="M15 47 L202 47 L202 64 L15 64 L15 47 Z"/>
            </clipPath>
            <clipPath clipPathUnits="userSpaceOnUse" id="clipPath5">
                <path d="M15 63 L148 63 L148 80 L15 80 L15 63 Z"/>
            </clipPath>
            <clipPath clipPathUnits="userSpaceOnUse" id="clipPath6">
                <path d="M10 45 L252 45 L252 124 L10 124 L10 45 Z"/>
            </clipPath>
            <clipPath clipPathUnits="userSpaceOnUse" id="clipPath7">
                <path d="M9 9 L252 9 L252 124 L9 124 L9 9 Z"/>
            </clipPath>
            <clipPath clipPathUnits="userSpaceOnUse" id="clipPath8">
                <path d="M10 290 L10 389 L250 389 L250 290 Z"/>
            </clipPath>
            <clipPath clipPathUnits="userSpaceOnUse" id="clipPath9">
                <path d="M101 292 L162 292 L162 309 L101 309 L101 292 Z"/>
            </clipPath>
            <clipPath clipPathUnits="userSpaceOnUse" id="clipPath10">
                <path d="M72 308 L191 308 L191 325 L72 325 L72 308 Z"/>
            </clipPath>
            <clipPath clipPathUnits="userSpaceOnUse" id="clipPath11">
                <path d="M15 327 L214 327 L214 344 L15 344 L15 327 Z"/>
            </clipPath>
            <clipPath clipPathUnits="userSpaceOnUse" id="clipPath12">
                <path d="M10 325 L252 325 L252 391 L10 391 L10 325 Z"/>
            </clipPath>
            <clipPath clipPathUnits="userSpaceOnUse" id="clipPath13">
                <path d="M9 289 L252 289 L252 391 L9 391 L9 289 Z"/>
            </clipPath>
            <clipPath clipPathUnits="userSpaceOnUse" id="clipPath14">
                <path d="M530 10 L530 109 L770 109 L770 10 Z"/>
            </clipPath>
            <clipPath clipPathUnits="userSpaceOnUse" id="clipPath15">
                <path d="M620 12 L683 12 L683 29 L620 29 L620 12 Z"/>
            </clipPath>
            <clipPath clipPathUnits="userSpaceOnUse" id="clipPath16">
                <path d="M610 28 L693 28 L693 45 L610 45 L610 28 Z"/>
            </clipPath>
            <clipPath clipPathUnits="userSpaceOnUse" id="clipPath17">
                <path d="M535 47 L639 47 L639 64 L535 64 L535 47 Z"/>
            </clipPath>
            <clipPath clipPathUnits="userSpaceOnUse" id="clipPath18">
                <path d="M535 63 L627 63 L627 80 L535 80 L535 63 Z"/>
            </clipPath>
            <clipPath clipPathUnits="userSpaceOnUse" id="clipPath19">
                <path d="M530 45 L772 45 L772 111 L530 111 L530 45 Z"/>
            </clipPath>
            <clipPath clipPathUnits="userSpaceOnUse" id="clipPath20">
                <path d="M529 9 L772 9 L772 111 L529 111 L529 9 Z"/>
            </clipPath>
            <clipPath clipPathUnits="userSpaceOnUse" id="clipPath21">
                <path d="M-1 -1 L782 -1 L782 401 L-1 401 L-1 -1 Z"/>
            </clipPath>
            <clipPath clipPathUnits="userSpaceOnUse" id="clipPath22">
                <path d="M121 122 L140 122 L140 135 L121 135 L121 122 Z"/>
            </clipPath>
        </defs>
        <g fill="url(#linearGradient1)" stroke-miterlimit="0" stroke-width="0" font-family="'Segoe UI'" stroke="url(#linearGradient1)" stroke-linejoin="round">
            <rect x="10" width="241" height="113" y="10" clip-path="url(#clipPath1)" stroke="none"/>
            <text fill="black" x="102" xml:space="preserve" y="26" clip-path="url(#clipPath2)" stroke="none">«Interface»</text>
            <text fill="black" x="89" xml:space="preserve" y="42" clip-path="url(#clipPath3)" stroke="none">IReferenceEntity</text>
            <text fill="black" x="16" xml:space="preserve" y="61" clip-path="url(#clipPath4)" stroke="none">«ReferenceLabel»   name: String [1]</text>
            <text fill="black" x="16" xml:space="preserve" y="77" clip-path="url(#clipPath5)" stroke="none">  description: String [0..1]</text>
        </g>
        <g stroke-linecap="butt" font-family="'Segoe UI'" stroke-width="1.1">
            <line y2="46" fill="none" x1="10" clip-path="url(#clipPath6)" x2="251" y1="46"/>
            <rect x="10" y="10" clip-path="url(#clipPath7)" fill="none" width="240" rx="0" ry="0" height="112"/>
            <rect x="10" y="290" clip-path="url(#clipPath8)" fill="url(#linearGradient2)" width="241" height="100" stroke="none"/>
            <text x="102" xml:space="preserve" y="306" clip-path="url(#clipPath9)" stroke="none">«Interface»</text>
            <text x="73" xml:space="preserve" y="322" clip-path="url(#clipPath10)" stroke="none">IControlledVocabulary</text>
            <text x="16" xml:space="preserve" y="341" clip-path="url(#clipPath11)" stroke="none">«ReferenceCode»   code: Identifier [1]</text>
            <line y2="326" fill="none" x1="10" clip-path="url(#clipPath12)" x2="251" y1="326"/>
            <rect x="10" y="290" clip-path="url(#clipPath13)" fill="none" width="240" rx="0" ry="0" height="99"/>
            <rect x="530" y="10" clip-path="url(#clipPath14)" fill="url(#linearGradient3)" width="241" height="100" stroke="none"/>
            <text x="621" xml:space="preserve" y="26" clip-path="url(#clipPath15)" stroke="none">«DataType»</text>
            <text x="611" xml:space="preserve" y="42" clip-path="url(#clipPath16)" stroke="none">ReferenceValue</text>
            <text x="536" xml:space="preserve" y="61" clip-path="url(#clipPath17)" stroke="none">  code: Identifier [1]</text>
            <text x="536" xml:space="preserve" y="77" clip-path="url(#clipPath18)" stroke="none">  name: String [1]</text>
            <line y2="46" fill="none" x1="530" clip-path="url(#clipPath19)" x2="771" y1="46"/>
            <rect x="530" y="10" clip-path="url(#clipPath20)" fill="none" width="240" rx="0" ry="0" height="99"/>
            <line clip-path="url(#clipPath21)" fill="none" text-rendering="optimizeLegibility" x1="130" x2="130" y1="290" y2="123"/>
            <polygon fill="white" text-rendering="optimizeLegibility" clip-path="url(#clipPath22)" points=" 130 123 138 133 122 133" stroke="none"/>
            <polygon fill="none" text-rendering="optimizeLegibility" clip-path="url(#clipPath22)" points=" 130 123 138 133 122 133"/>
        </g>
    </g>
</svg>
