<?xml version="1.0" encoding="UTF-8"?><svg xmlns="http://www.w3.org/2000/svg" xmlns:xlink="http://www.w3.org/1999/xlink" stroke-dasharray="none" shape-rendering="auto" font-family="'Dialog'" width="921" text-rendering="auto" fill-opacity="1" contentScriptType="text/ecmascript" color-interpolation="auto" color-rendering="auto" preserveAspectRatio="xMidYMid meet" font-size="12px" viewBox="0 0 921 280" fill="black" stroke="black" image-rendering="auto" stroke-miterlimit="10" zoomAndPan="magnify" version="1.0" stroke-linecap="square" stroke-linejoin="miter" contentStyleType="text/css" font-style="normal" height="280" stroke-width="1" stroke-dashoffset="0" font-weight="normal" stroke-opacity="1">
    <!--Generated by the Batik Graphics2D SVG Generator-->
    <defs id="genericDefs"/>
    <g>
        <defs id="defs1">
            <linearGradient x1="10" x2="10" y1="10" gradientUnits="userSpaceOnUse" y2="124" xlink:type="simple" xlink:actuate="onLoad" id="linearGradient1" xlink:show="other" spreadMethod="pad">
                <stop stop-opacity="1" stop-color="white" offset="0%"/>
                <stop stop-opacity="1" stop-color="rgb(163,199,173)" offset="100%"/>
            </linearGradient>
            <linearGradient x1="670" x2="670" y1="170" gradientUnits="userSpaceOnUse" y2="270" xlink:type="simple" xlink:actuate="onLoad" id="linearGradient2" xlink:show="other" spreadMethod="pad">
                <stop stop-opacity="1" stop-color="white" offset="0%"/>
                <stop stop-opacity="1" stop-color="rgb(195,167,173)" offset="100%"/>
            </linearGradient>
            <linearGradient x1="490" x2="490" y1="10" gradientUnits="userSpaceOnUse" y2="110" xlink:type="simple" xlink:actuate="onLoad" id="linearGradient3" xlink:show="other" spreadMethod="pad">
                <stop stop-opacity="1" stop-color="white" offset="0%"/>
                <stop stop-opacity="1" stop-color="rgb(131,135,205)" offset="100%"/>
            </linearGradient>
            <clipPath clipPathUnits="userSpaceOnUse" id="clipPath1">
                <path d="M10 10 L10 123 L250 123 L250 10 Z"/>
            </clipPath>
            <clipPath clipPathUnits="userSpaceOnUse" id="clipPath2">
                <path d="M100 12 L163 12 L163 29 L100 29 L100 12 Z"/>
            </clipPath>
            <clipPath clipPathUnits="userSpaceOnUse" id="clipPath3">
                <path d="M86 28 L177 28 L177 45 L86 45 L86 28 Z"/>
            </clipPath>
            <clipPath clipPathUnits="userSpaceOnUse" id="clipPath4">
                <path d="M15 47 L177 47 L177 64 L15 64 L15 47 Z"/>
            </clipPath>
            <clipPath clipPathUnits="userSpaceOnUse" id="clipPath5">
                <path d="M15 63 L180 63 L180 80 L15 80 L15 63 Z"/>
            </clipPath>
            <clipPath clipPathUnits="userSpaceOnUse" id="clipPath6">
                <path d="M15 79 L139 79 L139 96 L15 96 L15 79 Z"/>
            </clipPath>
            <clipPath clipPathUnits="userSpaceOnUse" id="clipPath7">
                <path d="M10 45 L252 45 L252 125 L10 125 L10 45 Z"/>
            </clipPath>
            <clipPath clipPathUnits="userSpaceOnUse" id="clipPath8">
                <path d="M9 9 L252 9 L252 125 L9 125 L9 9 Z"/>
            </clipPath>
            <clipPath clipPathUnits="userSpaceOnUse" id="clipPath9">
                <path d="M670 170 L670 269 L910 269 L910 170 Z"/>
            </clipPath>
            <clipPath clipPathUnits="userSpaceOnUse" id="clipPath10">
                <path d="M746 172 L837 172 L837 189 L746 189 L746 172 Z"/>
            </clipPath>
            <clipPath clipPathUnits="userSpaceOnUse" id="clipPath11">
                <path d="M747 188 L836 188 L836 205 L747 205 L747 188 Z"/>
            </clipPath>
            <clipPath clipPathUnits="userSpaceOnUse" id="clipPath12">
                <path d="M670 205 L912 205 L912 271 L670 271 L670 205 Z"/>
            </clipPath>
            <clipPath clipPathUnits="userSpaceOnUse" id="clipPath13">
                <path d="M669 169 L912 169 L912 271 L669 271 L669 169 Z"/>
            </clipPath>
            <clipPath clipPathUnits="userSpaceOnUse" id="clipPath14">
                <path d="M490 10 L490 109 L730 109 L730 10 Z"/>
            </clipPath>
            <clipPath clipPathUnits="userSpaceOnUse" id="clipPath15">
                <path d="M581 12 L642 12 L642 29 L581 29 L581 12 Z"/>
            </clipPath>
            <clipPath clipPathUnits="userSpaceOnUse" id="clipPath16">
                <path d="M552 28 L671 28 L671 45 L552 45 L552 28 Z"/>
            </clipPath>
            <clipPath clipPathUnits="userSpaceOnUse" id="clipPath17">
                <path d="M495 47 L694 47 L694 64 L495 64 L495 47 Z"/>
            </clipPath>
            <clipPath clipPathUnits="userSpaceOnUse" id="clipPath18">
                <path d="M490 45 L732 45 L732 111 L490 111 L490 45 Z"/>
            </clipPath>
            <clipPath clipPathUnits="userSpaceOnUse" id="clipPath19">
                <path d="M489 9 L732 9 L732 111 L489 111 L489 9 Z"/>
            </clipPath>
            <clipPath clipPathUnits="userSpaceOnUse" id="clipPath20">
                <path d="M-1 -1 L922 -1 L922 281 L-1 281 L-1 -1 Z"/>
            </clipPath>
            <clipPath clipPathUnits="userSpaceOnUse" id="clipPath21">
                <path d="M604 109 L617 109 L617 127 L604 127 L604 109 Z"/>
            </clipPath>
        </defs>
        <g fill="url(#linearGradient1)" stroke-miterlimit="0" stroke-width="0" font-family="'Segoe UI'" stroke="url(#linearGradient1)" stroke-linejoin="round">
            <rect x="10" width="241" height="114" y="10" clip-path="url(#clipPath1)" stroke="none"/>
            <text fill="black" x="101" xml:space="preserve" y="26" clip-path="url(#clipPath2)" stroke="none">«DataType»</text>
            <text fill="black" x="87" xml:space="preserve" y="42" clip-path="url(#clipPath3)" stroke="none">PriceAdjustment</text>
            <text fill="black" x="16" xml:space="preserve" y="61" clip-path="url(#clipPath4)" stroke="none">  adjustmentType: Identifier [1]</text>
            <text fill="black" x="16" xml:space="preserve" y="77" clip-path="url(#clipPath5)" stroke="none">  amount: CurrencyAmount [1]</text>
            <text fill="black" x="16" xml:space="preserve" y="93" clip-path="url(#clipPath6)" stroke="none">  percentage: Real [0..1]</text>
        </g>
        <g stroke-linecap="butt" font-family="'Segoe UI'" stroke-width="1.1">
            <line y2="46" fill="none" x1="10" clip-path="url(#clipPath7)" x2="251" y1="46"/>
            <rect x="10" y="10" clip-path="url(#clipPath8)" fill="none" width="240" rx="0" ry="0" height="113"/>
            <rect x="670" y="170" clip-path="url(#clipPath9)" fill="url(#linearGradient2)" width="241" height="100" stroke="none"/>
            <text x="747" xml:space="preserve" y="186" clip-path="url(#clipPath10)" stroke="none">«ReferenceData»</text>
            <text x="748" xml:space="preserve" y="202" clip-path="url(#clipPath11)" stroke="none">AdjustmentType</text>
            <line y2="206" fill="none" x1="670" clip-path="url(#clipPath12)" x2="911" y1="206"/>
            <rect x="670" y="170" clip-path="url(#clipPath13)" fill="none" width="240" rx="0" ry="0" height="99"/>
            <rect x="490" y="10" clip-path="url(#clipPath14)" fill="url(#linearGradient3)" width="241" height="100" stroke="none"/>
            <text x="582" xml:space="preserve" y="26" clip-path="url(#clipPath15)" stroke="none">«Interface»</text>
            <text x="553" xml:space="preserve" y="42" clip-path="url(#clipPath16)" stroke="none">IControlledVocabulary</text>
            <text x="496" xml:space="preserve" y="61" clip-path="url(#clipPath17)" stroke="none">«ReferenceCode»   code: Identifier [1]</text>
            <line y2="46" fill="none" x1="490" clip-path="url(#clipPath18)" x2="731" y1="46"/>
            <rect x="490" y="10" clip-path="url(#clipPath19)" fill="none" width="240" rx="0" ry="0" height="99"/>
            <line clip-path="url(#clipPath20)" fill="none" text-rendering="optimizeLegibility" x1="670" x2="610" y1="210" y2="210" stroke-dasharray="5,5,5,5,5,5,5,5,5,5"/>
            <line clip-path="url(#clipPath20)" fill="none" text-rendering="optimizeLegibility" x1="610" x2="610" y1="210" y2="110" stroke-dasharray="5,5,5,5,5,5,5,5,5,5"/>
        </g>
        <g stroke-linecap="butt" fill="white" text-rendering="optimizeLegibility" font-family="'Segoe UI'" stroke-dasharray="5,5,5,5,5,5,5,5,5,5" stroke="white" stroke-width="1.1">
            <polygon points=" 610 110 615 125 605 125" stroke="none" clip-path="url(#clipPath21)"/>
            <polygon fill="none" stroke-dasharray="none" clip-path="url(#clipPath21)" points=" 610 110 615 125 605 125" stroke="black"/>
        </g>
    </g>
</svg>
