<?xml version="1.0" encoding="UTF-8"?><svg xmlns="http://www.w3.org/2000/svg" xmlns:xlink="http://www.w3.org/1999/xlink" stroke-dasharray="none" shape-rendering="auto" font-family="'Dialog'" width="921" text-rendering="auto" fill-opacity="1" contentScriptType="text/ecmascript" color-interpolation="auto" color-rendering="auto" preserveAspectRatio="xMidYMid meet" font-size="12px" viewBox="0 0 921 800" fill="black" stroke="black" image-rendering="auto" stroke-miterlimit="10" zoomAndPan="magnify" version="1.0" stroke-linecap="square" stroke-linejoin="miter" contentStyleType="text/css" font-style="normal" height="800" stroke-width="1" stroke-dashoffset="0" font-weight="normal" stroke-opacity="1">
    <!--Generated by the Batik Graphics2D SVG Generator-->
    <defs id="genericDefs"/>
    <g>
        <defs id="defs1">
            <linearGradient x1="10" x2="10" y1="10" gradientUnits="userSpaceOnUse" y2="110" xlink:type="simple" xlink:actuate="onLoad" id="linearGradient1" xlink:show="other" spreadMethod="pad">
                <stop stop-opacity="1" stop-color="white" offset="0%"/>
                <stop stop-opacity="1" stop-color="rgb(131,135,205)" offset="100%"/>
            </linearGradient>
            <linearGradient x1="190" x2="190" y1="170" gradientUnits="userSpaceOnUse" y2="270" xlink:type="simple" xlink:actuate="onLoad" id="linearGradient2" xlink:show="other" spreadMethod="pad">
                <stop stop-opacity="1" stop-color="white" offset="0%"/>
                <stop stop-opacity="1" stop-color="rgb(195,167,173)" offset="100%"/>
            </linearGradient>
            <linearGradient x1="191" x2="191" y1="331" gradientUnits="userSpaceOnUse" y2="431" xlink:type="simple" xlink:actuate="onLoad" id="linearGradient3" xlink:show="other" spreadMethod="pad">
                <stop stop-opacity="1" stop-color="white" offset="0%"/>
                <stop stop-opacity="1" stop-color="rgb(195,167,173)" offset="100%"/>
            </linearGradient>
            <linearGradient x1="190" x2="190" y1="490" gradientUnits="userSpaceOnUse" y2="619" xlink:type="simple" xlink:actuate="onLoad" id="linearGradient4" xlink:show="other" spreadMethod="pad">
                <stop stop-opacity="1" stop-color="white" offset="0%"/>
                <stop stop-opacity="1" stop-color="rgb(195,167,173)" offset="100%"/>
            </linearGradient>
            <linearGradient x1="670" x2="670" y1="10" gradientUnits="userSpaceOnUse" y2="110" xlink:type="simple" xlink:actuate="onLoad" id="linearGradient5" xlink:show="other" spreadMethod="pad">
                <stop stop-opacity="1" stop-color="white" offset="0%"/>
                <stop stop-opacity="1" stop-color="rgb(163,199,173)" offset="100%"/>
            </linearGradient>
            <linearGradient x1="670" x2="670" y1="170" gradientUnits="userSpaceOnUse" y2="270" xlink:type="simple" xlink:actuate="onLoad" id="linearGradient6" xlink:show="other" spreadMethod="pad">
                <stop stop-opacity="1" stop-color="white" offset="0%"/>
                <stop stop-opacity="1" stop-color="rgb(163,199,173)" offset="100%"/>
            </linearGradient>
            <linearGradient x1="191" x2="191" y1="690" gradientUnits="userSpaceOnUse" y2="790" xlink:type="simple" xlink:actuate="onLoad" id="linearGradient7" xlink:show="other" spreadMethod="pad">
                <stop stop-opacity="1" stop-color="white" offset="0%"/>
                <stop stop-opacity="1" stop-color="rgb(195,167,173)" offset="100%"/>
            </linearGradient>
            <linearGradient x1="670" x2="670" y1="330" gradientUnits="userSpaceOnUse" y2="444" xlink:type="simple" xlink:actuate="onLoad" id="linearGradient8" xlink:show="other" spreadMethod="pad">
                <stop stop-opacity="1" stop-color="white" offset="0%"/>
                <stop stop-opacity="1" stop-color="rgb(163,199,173)" offset="100%"/>
            </linearGradient>
            <clipPath clipPathUnits="userSpaceOnUse" id="clipPath1">
                <path d="M10 10 L10 109 L250 109 L250 10 Z"/>
            </clipPath>
            <clipPath clipPathUnits="userSpaceOnUse" id="clipPath2">
                <path d="M101 12 L162 12 L162 29 L101 29 L101 12 Z"/>
            </clipPath>
            <clipPath clipPathUnits="userSpaceOnUse" id="clipPath3">
                <path d="M72 28 L191 28 L191 45 L72 45 L72 28 Z"/>
            </clipPath>
            <clipPath clipPathUnits="userSpaceOnUse" id="clipPath4">
                <path d="M15 47 L214 47 L214 64 L15 64 L15 47 Z"/>
            </clipPath>
            <clipPath clipPathUnits="userSpaceOnUse" id="clipPath5">
                <path d="M10 45 L252 45 L252 111 L10 111 L10 45 Z"/>
            </clipPath>
            <clipPath clipPathUnits="userSpaceOnUse" id="clipPath6">
                <path d="M9 9 L252 9 L252 111 L9 111 L9 9 Z"/>
            </clipPath>
            <clipPath clipPathUnits="userSpaceOnUse" id="clipPath7">
                <path d="M190 170 L190 269 L430 269 L430 170 Z"/>
            </clipPath>
            <clipPath clipPathUnits="userSpaceOnUse" id="clipPath8">
                <path d="M266 172 L357 172 L357 189 L266 189 L266 172 Z"/>
            </clipPath>
            <clipPath clipPathUnits="userSpaceOnUse" id="clipPath9">
                <path d="M282 188 L341 188 L341 205 L282 205 L282 188 Z"/>
            </clipPath>
            <clipPath clipPathUnits="userSpaceOnUse" id="clipPath10">
                <path d="M190 205 L432 205 L432 271 L190 271 L190 205 Z"/>
            </clipPath>
            <clipPath clipPathUnits="userSpaceOnUse" id="clipPath11">
                <path d="M189 169 L432 169 L432 271 L189 271 L189 169 Z"/>
            </clipPath>
            <clipPath clipPathUnits="userSpaceOnUse" id="clipPath12">
                <path d="M191 331 L191 430 L430 430 L430 331 Z"/>
            </clipPath>
            <clipPath clipPathUnits="userSpaceOnUse" id="clipPath13">
                <path d="M266 333 L357 333 L357 350 L266 350 L266 333 Z"/>
            </clipPath>
            <clipPath clipPathUnits="userSpaceOnUse" id="clipPath14">
                <path d="M268 349 L355 349 L355 366 L268 366 L268 349 Z"/>
            </clipPath>
            <clipPath clipPathUnits="userSpaceOnUse" id="clipPath15">
                <path d="M191 366 L432 366 L432 432 L191 432 L191 366 Z"/>
            </clipPath>
            <clipPath clipPathUnits="userSpaceOnUse" id="clipPath16">
                <path d="M190 330 L432 330 L432 432 L190 432 L190 330 Z"/>
            </clipPath>
            <clipPath clipPathUnits="userSpaceOnUse" id="clipPath17">
                <path d="M190 490 L190 618 L430 618 L430 490 Z"/>
            </clipPath>
            <clipPath clipPathUnits="userSpaceOnUse" id="clipPath18">
                <path d="M266 492 L357 492 L357 509 L266 509 L266 492 Z"/>
            </clipPath>
            <clipPath clipPathUnits="userSpaceOnUse" id="clipPath19">
                <path d="M261 508 L362 508 L362 525 L261 525 L261 508 Z"/>
            </clipPath>
            <clipPath clipPathUnits="userSpaceOnUse" id="clipPath20">
                <path d="M195 527 L297 527 L297 544 L195 544 L195 527 Z"/>
            </clipPath>
            <clipPath clipPathUnits="userSpaceOnUse" id="clipPath21">
                <path d="M195 543 L327 543 L327 560 L195 560 L195 543 Z"/>
            </clipPath>
            <clipPath clipPathUnits="userSpaceOnUse" id="clipPath22">
                <path d="M195 559 L320 559 L320 576 L195 576 L195 559 Z"/>
            </clipPath>
            <clipPath clipPathUnits="userSpaceOnUse" id="clipPath23">
                <path d="M190 525 L432 525 L432 620 L190 620 L190 525 Z"/>
            </clipPath>
            <clipPath clipPathUnits="userSpaceOnUse" id="clipPath24">
                <path d="M189 489 L432 489 L432 620 L189 620 L189 489 Z"/>
            </clipPath>
            <clipPath clipPathUnits="userSpaceOnUse" id="clipPath25">
                <path d="M670 10 L670 109 L910 109 L910 10 Z"/>
            </clipPath>
            <clipPath clipPathUnits="userSpaceOnUse" id="clipPath26">
                <path d="M760 12 L823 12 L823 29 L760 29 L760 12 Z"/>
            </clipPath>
            <clipPath clipPathUnits="userSpaceOnUse" id="clipPath27">
                <path d="M774 28 L809 28 L809 45 L774 45 L774 28 Z"/>
            </clipPath>
            <clipPath clipPathUnits="userSpaceOnUse" id="clipPath28">
                <path d="M675 47 L816 47 L816 64 L675 64 L675 47 Z"/>
            </clipPath>
            <clipPath clipPathUnits="userSpaceOnUse" id="clipPath29">
                <path d="M675 63 L832 63 L832 80 L675 80 L675 63 Z"/>
            </clipPath>
            <clipPath clipPathUnits="userSpaceOnUse" id="clipPath30">
                <path d="M670 45 L912 45 L912 111 L670 111 L670 45 Z"/>
            </clipPath>
            <clipPath clipPathUnits="userSpaceOnUse" id="clipPath31">
                <path d="M669 9 L912 9 L912 111 L669 111 L669 9 Z"/>
            </clipPath>
            <clipPath clipPathUnits="userSpaceOnUse" id="clipPath32">
                <path d="M670 170 L670 269 L910 269 L910 170 Z"/>
            </clipPath>
            <clipPath clipPathUnits="userSpaceOnUse" id="clipPath33">
                <path d="M760 172 L823 172 L823 189 L760 189 L760 172 Z"/>
            </clipPath>
            <clipPath clipPathUnits="userSpaceOnUse" id="clipPath34">
                <path d="M760 188 L822 188 L822 205 L760 205 L760 188 Z"/>
            </clipPath>
            <clipPath clipPathUnits="userSpaceOnUse" id="clipPath35">
                <path d="M675 207 L873 207 L873 224 L675 224 L675 207 Z"/>
            </clipPath>
            <clipPath clipPathUnits="userSpaceOnUse" id="clipPath36">
                <path d="M675 223 L832 223 L832 240 L675 240 L675 223 Z"/>
            </clipPath>
            <clipPath clipPathUnits="userSpaceOnUse" id="clipPath37">
                <path d="M670 205 L912 205 L912 271 L670 271 L670 205 Z"/>
            </clipPath>
            <clipPath clipPathUnits="userSpaceOnUse" id="clipPath38">
                <path d="M669 169 L912 169 L912 271 L669 271 L669 169 Z"/>
            </clipPath>
            <clipPath clipPathUnits="userSpaceOnUse" id="clipPath39">
                <path d="M191 690 L191 789 L430 789 L430 690 Z"/>
            </clipPath>
            <clipPath clipPathUnits="userSpaceOnUse" id="clipPath40">
                <path d="M266 692 L357 692 L357 709 L266 709 L266 692 Z"/>
            </clipPath>
            <clipPath clipPathUnits="userSpaceOnUse" id="clipPath41">
                <path d="M271 708 L353 708 L353 725 L271 725 L271 708 Z"/>
            </clipPath>
            <clipPath clipPathUnits="userSpaceOnUse" id="clipPath42">
                <path d="M191 725 L432 725 L432 791 L191 791 L191 725 Z"/>
            </clipPath>
            <clipPath clipPathUnits="userSpaceOnUse" id="clipPath43">
                <path d="M190 689 L432 689 L432 791 L190 791 L190 689 Z"/>
            </clipPath>
            <clipPath clipPathUnits="userSpaceOnUse" id="clipPath44">
                <path d="M670 330 L670 443 L910 443 L910 330 Z"/>
            </clipPath>
            <clipPath clipPathUnits="userSpaceOnUse" id="clipPath45">
                <path d="M760 332 L823 332 L823 349 L760 349 L760 332 Z"/>
            </clipPath>
            <clipPath clipPathUnits="userSpaceOnUse" id="clipPath46">
                <path d="M763 348 L820 348 L820 365 L763 365 L763 348 Z"/>
            </clipPath>
            <clipPath clipPathUnits="userSpaceOnUse" id="clipPath47">
                <path d="M675 367 L864 367 L864 384 L675 384 L675 367 Z"/>
            </clipPath>
            <clipPath clipPathUnits="userSpaceOnUse" id="clipPath48">
                <path d="M675 383 L777 383 L777 400 L675 400 L675 383 Z"/>
            </clipPath>
            <clipPath clipPathUnits="userSpaceOnUse" id="clipPath49">
                <path d="M675 399 L774 399 L774 416 L675 416 L675 399 Z"/>
            </clipPath>
            <clipPath clipPathUnits="userSpaceOnUse" id="clipPath50">
                <path d="M670 365 L912 365 L912 445 L670 445 L670 365 Z"/>
            </clipPath>
            <clipPath clipPathUnits="userSpaceOnUse" id="clipPath51">
                <path d="M669 329 L912 329 L912 445 L669 445 L669 329 Z"/>
            </clipPath>
            <clipPath clipPathUnits="userSpaceOnUse" id="clipPath52">
                <path d="M-1 -1 L922 -1 L922 801 L-1 801 L-1 -1 Z"/>
            </clipPath>
            <clipPath clipPathUnits="userSpaceOnUse" id="clipPath53">
                <path d="M124 109 L137 109 L137 127 L124 127 L124 109 Z"/>
            </clipPath>
        </defs>
        <g fill="url(#linearGradient1)" stroke-miterlimit="0" stroke-width="0" font-family="'Segoe UI'" stroke="url(#linearGradient1)" stroke-linejoin="round">
            <rect x="10" width="241" height="100" y="10" clip-path="url(#clipPath1)" stroke="none"/>
            <text fill="black" x="102" xml:space="preserve" y="26" clip-path="url(#clipPath2)" stroke="none">«Interface»</text>
            <text fill="black" x="73" xml:space="preserve" y="42" clip-path="url(#clipPath3)" stroke="none">IControlledVocabulary</text>
            <text fill="black" x="16" xml:space="preserve" y="61" clip-path="url(#clipPath4)" stroke="none">«ReferenceCode»   code: Identifier [1]</text>
        </g>
        <g stroke-linecap="butt" font-family="'Segoe UI'" stroke-width="1.1">
            <line y2="46" fill="none" x1="10" clip-path="url(#clipPath5)" x2="251" y1="46"/>
            <rect x="10" y="10" clip-path="url(#clipPath6)" fill="none" width="240" rx="0" ry="0" height="99"/>
            <rect x="190" y="170" clip-path="url(#clipPath7)" fill="url(#linearGradient2)" width="241" height="100" stroke="none"/>
            <text x="267" xml:space="preserve" y="186" clip-path="url(#clipPath8)" stroke="none">«ReferenceData»</text>
            <text x="283" xml:space="preserve" y="202" clip-path="url(#clipPath9)" stroke="none">NameType</text>
            <line y2="206" fill="none" x1="190" clip-path="url(#clipPath10)" x2="431" y1="206"/>
            <rect x="190" y="170" clip-path="url(#clipPath11)" fill="none" width="240" rx="0" ry="0" height="99"/>
            <rect x="191" y="331" clip-path="url(#clipPath12)" fill="url(#linearGradient3)" width="240" height="100" stroke="none"/>
            <text x="267" xml:space="preserve" y="347" clip-path="url(#clipPath13)" stroke="none">«ReferenceData»</text>
            <text x="269" xml:space="preserve" y="363" clip-path="url(#clipPath14)" stroke="none">DescriptionType</text>
            <line y2="367" fill="none" x1="191" clip-path="url(#clipPath15)" x2="431" y1="367"/>
            <rect x="191" y="331" clip-path="url(#clipPath16)" fill="none" width="239" rx="0" ry="0" height="99"/>
            <rect x="190" y="490" clip-path="url(#clipPath17)" fill="url(#linearGradient4)" width="241" height="129" stroke="none"/>
            <text x="267" xml:space="preserve" y="506" clip-path="url(#clipPath18)" stroke="none">«ReferenceData»</text>
            <text x="262" xml:space="preserve" y="522" clip-path="url(#clipPath19)" stroke="none">GeographicMarket</text>
            <text x="196" xml:space="preserve" y="541" clip-path="url(#clipPath20)" stroke="none">  region: Region [1]</text>
            <text x="196" xml:space="preserve" y="557" clip-path="url(#clipPath21)" stroke="none">  language: Language [1]</text>
            <text x="196" xml:space="preserve" y="573" clip-path="url(#clipPath22)" stroke="none">  currency: Currency [1]</text>
            <line y2="526" fill="none" x1="190" clip-path="url(#clipPath23)" x2="431" y1="526"/>
            <rect x="190" y="490" clip-path="url(#clipPath24)" fill="none" width="240" rx="0" ry="0" height="128"/>
            <rect x="670" y="10" clip-path="url(#clipPath25)" fill="url(#linearGradient5)" width="241" height="100" stroke="none"/>
            <text x="761" xml:space="preserve" y="26" clip-path="url(#clipPath26)" stroke="none">«DataType»</text>
            <text x="775" xml:space="preserve" y="42" clip-path="url(#clipPath27)" stroke="none">Name</text>
            <text x="676" xml:space="preserve" y="61" clip-path="url(#clipPath28)" stroke="none">  nameType: NameType [1]</text>
            <text x="676" xml:space="preserve" y="77" clip-path="url(#clipPath29)" stroke="none">  value: InternationalString [1]</text>
            <line y2="46" fill="none" x1="670" clip-path="url(#clipPath30)" x2="911" y1="46"/>
            <rect x="670" y="10" clip-path="url(#clipPath31)" fill="none" width="240" rx="0" ry="0" height="99"/>
            <rect x="670" y="170" clip-path="url(#clipPath32)" fill="url(#linearGradient6)" width="241" height="100" stroke="none"/>
            <text x="761" xml:space="preserve" y="186" clip-path="url(#clipPath33)" stroke="none">«DataType»</text>
            <text x="761" xml:space="preserve" y="202" clip-path="url(#clipPath34)" stroke="none">Description</text>
            <text x="676" xml:space="preserve" y="221" clip-path="url(#clipPath35)" stroke="none">  descriptionType: DescriptionType [1]</text>
            <text x="676" xml:space="preserve" y="237" clip-path="url(#clipPath36)" stroke="none">  value: InternationalString [1]</text>
            <line y2="206" fill="none" x1="670" clip-path="url(#clipPath37)" x2="911" y1="206"/>
            <rect x="670" y="170" clip-path="url(#clipPath38)" fill="none" width="240" rx="0" ry="0" height="99"/>
            <rect x="191" y="690" clip-path="url(#clipPath39)" fill="url(#linearGradient7)" width="240" height="100" stroke="none"/>
            <text x="267" xml:space="preserve" y="706" clip-path="url(#clipPath40)" stroke="none">«ReferenceData»</text>
            <text x="272" xml:space="preserve" y="722" clip-path="url(#clipPath41)" stroke="none">ExclusivityType</text>
            <line y2="726" fill="none" x1="191" clip-path="url(#clipPath42)" x2="431" y1="726"/>
            <rect x="191" y="690" clip-path="url(#clipPath43)" fill="none" width="239" rx="0" ry="0" height="99"/>
            <rect x="670" y="330" clip-path="url(#clipPath44)" fill="url(#linearGradient8)" width="241" height="114" stroke="none"/>
            <text x="761" xml:space="preserve" y="346" clip-path="url(#clipPath45)" stroke="none">«DataType»</text>
            <text x="764" xml:space="preserve" y="362" clip-path="url(#clipPath46)" stroke="none">Exclusivity</text>
            <text x="676" xml:space="preserve" y="381" clip-path="url(#clipPath47)" stroke="none">  exclusivityType: ExclusivityType [1]</text>
            <text x="676" xml:space="preserve" y="397" clip-path="url(#clipPath48)" stroke="none">  startDate: Date [1]</text>
            <text x="676" xml:space="preserve" y="413" clip-path="url(#clipPath49)" stroke="none">  endDate: Date [1]</text>
            <line y2="366" fill="none" x1="670" clip-path="url(#clipPath50)" x2="911" y1="366"/>
            <rect x="670" y="330" clip-path="url(#clipPath51)" fill="none" width="240" rx="0" ry="0" height="113"/>
            <line clip-path="url(#clipPath52)" fill="none" text-rendering="optimizeLegibility" x1="190" x2="130" y1="210" y2="210" stroke-dasharray="5,5,5,5,5,5,5,5,5,5"/>
            <line clip-path="url(#clipPath52)" fill="none" text-rendering="optimizeLegibility" x1="130" x2="130" y1="210" y2="110" stroke-dasharray="5,5,5,5,5,5,5,5,5,5"/>
        </g>
        <g stroke-linecap="butt" fill="white" text-rendering="optimizeLegibility" font-family="'Segoe UI'" stroke-dasharray="5,5,5,5,5,5,5,5,5,5" stroke="white" stroke-width="1.1">
            <polygon points=" 130 110 135 125 125 125" stroke="none" clip-path="url(#clipPath53)"/>
            <polygon fill="none" stroke-dasharray="none" clip-path="url(#clipPath53)" points=" 130 110 135 125 125 125" stroke="black"/>
            <line clip-path="url(#clipPath52)" fill="none" x1="191" x2="130" y1="370" y2="370" stroke="black"/>
            <line clip-path="url(#clipPath52)" fill="none" x1="130" x2="130" y1="370" y2="110" stroke="black"/>
            <polygon points=" 130 110 135 125 125 125" clip-path="url(#clipPath53)" stroke="none"/>
            <polygon fill="none" stroke-dasharray="none" clip-path="url(#clipPath53)" points=" 130 110 135 125 125 125" stroke="black"/>
            <line clip-path="url(#clipPath52)" fill="none" x1="190" x2="130" y1="541" y2="541" stroke="black"/>
            <line clip-path="url(#clipPath52)" fill="none" x1="130" x2="130" y1="541" y2="110" stroke="black"/>
            <polygon points=" 130 110 135 125 125 125" clip-path="url(#clipPath53)" stroke="none"/>
            <polygon fill="none" stroke-dasharray="none" clip-path="url(#clipPath53)" points=" 130 110 135 125 125 125" stroke="black"/>
            <line clip-path="url(#clipPath52)" fill="none" x1="191" x2="130" y1="730" y2="730" stroke="black"/>
            <line clip-path="url(#clipPath52)" fill="none" x1="130" x2="130" y1="730" y2="110" stroke="black"/>
            <polygon points=" 130 110 135 125 125 125" clip-path="url(#clipPath53)" stroke="none"/>
            <polygon fill="none" stroke-dasharray="none" clip-path="url(#clipPath53)" points=" 130 110 135 125 125 125" stroke="black"/>
        </g>
    </g>
</svg>
