<?xml version="1.0" encoding="UTF-8"?><svg xmlns="http://www.w3.org/2000/svg" xmlns:xlink="http://www.w3.org/1999/xlink" stroke-dasharray="none" shape-rendering="auto" font-family="'Dialog'" width="1781" text-rendering="auto" fill-opacity="1" contentScriptType="text/ecmascript" color-interpolation="auto" color-rendering="auto" preserveAspectRatio="xMidYMid meet" font-size="12px" viewBox="0 0 1781 1820" fill="black" stroke="black" image-rendering="auto" stroke-miterlimit="10" zoomAndPan="magnify" version="1.0" stroke-linecap="square" stroke-linejoin="miter" contentStyleType="text/css" font-style="normal" height="1820" stroke-width="1" stroke-dashoffset="0" font-weight="normal" stroke-opacity="1">
    <!--Generated by the Batik Graphics2D SVG Generator-->
    <defs id="genericDefs"/>
    <g>
        <defs id="defs1">
            <linearGradient x1="370" x2="370" y1="1410" gradientUnits="userSpaceOnUse" y2="1510" xlink:type="simple" xlink:actuate="onLoad" id="linearGradient1" xlink:show="other" spreadMethod="pad">
                <stop stop-opacity="1" stop-color="white" offset="0%"/>
                <stop stop-opacity="1" stop-color="rgb(195,215,221)" offset="100%"/>
            </linearGradient>
            <linearGradient x1="550" x2="550" y1="1090" gradientUnits="userSpaceOnUse" y2="1190" xlink:type="simple" xlink:actuate="onLoad" id="linearGradient2" xlink:show="other" spreadMethod="pad">
                <stop stop-opacity="1" stop-color="white" offset="0%"/>
                <stop stop-opacity="1" stop-color="rgb(195,215,221)" offset="100%"/>
            </linearGradient>
            <linearGradient x1="550" x2="550" y1="1250" gradientUnits="userSpaceOnUse" y2="1351" xlink:type="simple" xlink:actuate="onLoad" id="linearGradient3" xlink:show="other" spreadMethod="pad">
                <stop stop-opacity="1" stop-color="white" offset="0%"/>
                <stop stop-opacity="1" stop-color="rgb(195,215,221)" offset="100%"/>
            </linearGradient>
            <linearGradient x1="190" x2="190" y1="230" gradientUnits="userSpaceOnUse" y2="408" xlink:type="simple" xlink:actuate="onLoad" id="linearGradient4" xlink:show="other" spreadMethod="pad">
                <stop stop-opacity="1" stop-color="white" offset="0%"/>
                <stop stop-opacity="1" stop-color="rgb(195,215,221)" offset="100%"/>
            </linearGradient>
            <linearGradient x1="10" x2="10" y1="10" gradientUnits="userSpaceOnUse" y2="172" xlink:type="simple" xlink:actuate="onLoad" id="linearGradient5" xlink:show="other" spreadMethod="pad">
                <stop stop-opacity="1" stop-color="white" offset="0%"/>
                <stop stop-opacity="1" stop-color="rgb(195,215,221)" offset="100%"/>
            </linearGradient>
            <linearGradient x1="370" x2="370" y1="1710" gradientUnits="userSpaceOnUse" y2="1810" xlink:type="simple" xlink:actuate="onLoad" id="linearGradient6" xlink:show="other" spreadMethod="pad">
                <stop stop-opacity="1" stop-color="white" offset="0%"/>
                <stop stop-opacity="1" stop-color="rgb(195,215,221)" offset="100%"/>
            </linearGradient>
            <linearGradient x1="370" x2="370" y1="470" gradientUnits="userSpaceOnUse" y2="570" xlink:type="simple" xlink:actuate="onLoad" id="linearGradient7" xlink:show="other" spreadMethod="pad">
                <stop stop-opacity="1" stop-color="white" offset="0%"/>
                <stop stop-opacity="1" stop-color="rgb(195,215,221)" offset="100%"/>
            </linearGradient>
            <linearGradient x1="550" x2="550" y1="790" gradientUnits="userSpaceOnUse" y2="890" xlink:type="simple" xlink:actuate="onLoad" id="linearGradient8" xlink:show="other" spreadMethod="pad">
                <stop stop-opacity="1" stop-color="white" offset="0%"/>
                <stop stop-opacity="1" stop-color="rgb(195,215,221)" offset="100%"/>
            </linearGradient>
            <linearGradient x1="1030" x2="1030" y1="630" gradientUnits="userSpaceOnUse" y2="730" xlink:type="simple" xlink:actuate="onLoad" id="linearGradient9" xlink:show="other" spreadMethod="pad">
                <stop stop-opacity="1" stop-color="white" offset="0%"/>
                <stop stop-opacity="1" stop-color="rgb(131,135,205)" offset="100%"/>
            </linearGradient>
            <linearGradient x1="550" x2="550" y1="630" gradientUnits="userSpaceOnUse" y2="730" xlink:type="simple" xlink:actuate="onLoad" id="linearGradient10" xlink:show="other" spreadMethod="pad">
                <stop stop-opacity="1" stop-color="white" offset="0%"/>
                <stop stop-opacity="1" stop-color="rgb(195,215,221)" offset="100%"/>
            </linearGradient>
            <linearGradient x1="1530" x2="1530" y1="630" gradientUnits="userSpaceOnUse" y2="920" xlink:type="simple" xlink:actuate="onLoad" id="linearGradient11" xlink:show="other" spreadMethod="pad">
                <stop stop-opacity="1" stop-color="white" offset="0%"/>
                <stop stop-opacity="1" stop-color="rgb(195,215,221)" offset="100%"/>
            </linearGradient>
            <clipPath clipPathUnits="userSpaceOnUse" id="clipPath1">
                <path d="M370 1410 L370 1509 L610 1509 L610 1410 Z"/>
            </clipPath>
            <clipPath clipPathUnits="userSpaceOnUse" id="clipPath2">
                <path d="M461 1412 L522 1412 L522 1429 L461 1429 L461 1412 Z"/>
            </clipPath>
            <clipPath clipPathUnits="userSpaceOnUse" id="clipPath3">
                <path d="M375 1431 L559 1431 L559 1448 L375 1448 L375 1431 Z"/>
            </clipPath>
            <clipPath clipPathUnits="userSpaceOnUse" id="clipPath4">
                <path d="M370 1429 L612 1429 L612 1511 L370 1511 L370 1429 Z"/>
            </clipPath>
            <clipPath clipPathUnits="userSpaceOnUse" id="clipPath5">
                <path d="M369 1409 L612 1409 L612 1511 L369 1511 L369 1409 Z"/>
            </clipPath>
            <clipPath clipPathUnits="userSpaceOnUse" id="clipPath6">
                <path d="M550 1090 L550 1189 L789 1189 L789 1090 Z"/>
            </clipPath>
            <clipPath clipPathUnits="userSpaceOnUse" id="clipPath7">
                <path d="M626 1092 L715 1092 L715 1109 L626 1109 L626 1092 Z"/>
            </clipPath>
            <clipPath clipPathUnits="userSpaceOnUse" id="clipPath8">
                <path d="M555 1111 L781 1111 L781 1128 L555 1128 L555 1111 Z"/>
            </clipPath>
            <clipPath clipPathUnits="userSpaceOnUse" id="clipPath9">
                <path d="M550 1109 L791 1109 L791 1191 L550 1191 L550 1109 Z"/>
            </clipPath>
            <clipPath clipPathUnits="userSpaceOnUse" id="clipPath10">
                <path d="M549 1089 L791 1089 L791 1191 L549 1191 L549 1089 Z"/>
            </clipPath>
            <clipPath clipPathUnits="userSpaceOnUse" id="clipPath11">
                <path d="M550 1250 L550 1350 L790 1350 L790 1250 Z"/>
            </clipPath>
            <clipPath clipPathUnits="userSpaceOnUse" id="clipPath12">
                <path d="M641 1252 L701 1252 L701 1269 L641 1269 L641 1252 Z"/>
            </clipPath>
            <clipPath clipPathUnits="userSpaceOnUse" id="clipPath13">
                <path d="M555 1271 L787 1271 L787 1288 L555 1288 L555 1271 Z"/>
            </clipPath>
            <clipPath clipPathUnits="userSpaceOnUse" id="clipPath14">
                <path d="M550 1269 L792 1269 L792 1352 L550 1352 L550 1269 Z"/>
            </clipPath>
            <clipPath clipPathUnits="userSpaceOnUse" id="clipPath15">
                <path d="M549 1249 L792 1249 L792 1352 L549 1352 L549 1249 Z"/>
            </clipPath>
            <clipPath clipPathUnits="userSpaceOnUse" id="clipPath16">
                <path d="M190 230 L190 407 L430 407 L430 230 Z"/>
            </clipPath>
            <clipPath clipPathUnits="userSpaceOnUse" id="clipPath17">
                <path d="M286 232 L336 232 L336 249 L286 249 L286 232 Z"/>
            </clipPath>
            <clipPath clipPathUnits="userSpaceOnUse" id="clipPath18">
                <path d="M195 251 L420 251 L420 268 L195 268 L195 251 Z"/>
            </clipPath>
            <clipPath clipPathUnits="userSpaceOnUse" id="clipPath19">
                <path d="M195 267 L374 267 L374 284 L195 284 L195 267 Z"/>
            </clipPath>
            <clipPath clipPathUnits="userSpaceOnUse" id="clipPath20">
                <path d="M195 283 L393 283 L393 300 L195 300 L195 283 Z"/>
            </clipPath>
            <clipPath clipPathUnits="userSpaceOnUse" id="clipPath21">
                <path d="M195 299 L406 299 L406 316 L195 316 L195 299 Z"/>
            </clipPath>
            <clipPath clipPathUnits="userSpaceOnUse" id="clipPath22">
                <path d="M195 315 L416 315 L416 332 L195 332 L195 315 Z"/>
            </clipPath>
            <clipPath clipPathUnits="userSpaceOnUse" id="clipPath23">
                <path d="M195 331 L368 331 L368 348 L195 348 L195 331 Z"/>
            </clipPath>
            <clipPath clipPathUnits="userSpaceOnUse" id="clipPath24">
                <path d="M195 347 L419 347 L419 364 L195 364 L195 347 Z"/>
            </clipPath>
            <clipPath clipPathUnits="userSpaceOnUse" id="clipPath25">
                <path d="M190 249 L432 249 L432 409 L190 409 L190 249 Z"/>
            </clipPath>
            <clipPath clipPathUnits="userSpaceOnUse" id="clipPath26">
                <path d="M189 229 L432 229 L432 409 L189 409 L189 229 Z"/>
            </clipPath>
            <clipPath clipPathUnits="userSpaceOnUse" id="clipPath27">
                <path d="M10 10 L10 171 L250 171 L250 10 Z"/>
            </clipPath>
            <clipPath clipPathUnits="userSpaceOnUse" id="clipPath28">
                <path d="M118 12 L144 12 L144 29 L118 29 L118 12 Z"/>
            </clipPath>
            <clipPath clipPathUnits="userSpaceOnUse" id="clipPath29">
                <path d="M15 31 L184 31 L184 48 L15 48 L15 31 Z"/>
            </clipPath>
            <clipPath clipPathUnits="userSpaceOnUse" id="clipPath30">
                <path d="M15 47 L119 47 L119 64 L15 64 L15 47 Z"/>
            </clipPath>
            <clipPath clipPathUnits="userSpaceOnUse" id="clipPath31">
                <path d="M15 63 L164 63 L164 80 L15 80 L15 63 Z"/>
            </clipPath>
            <clipPath clipPathUnits="userSpaceOnUse" id="clipPath32">
                <path d="M15 79 L130 79 L130 96 L15 96 L15 79 Z"/>
            </clipPath>
            <clipPath clipPathUnits="userSpaceOnUse" id="clipPath33">
                <path d="M15 95 L149 95 L149 112 L15 112 L15 95 Z"/>
            </clipPath>
            <clipPath clipPathUnits="userSpaceOnUse" id="clipPath34">
                <path d="M15 111 L168 111 L168 128 L15 128 L15 111 Z"/>
            </clipPath>
            <clipPath clipPathUnits="userSpaceOnUse" id="clipPath35">
                <path d="M10 29 L252 29 L252 173 L10 173 L10 29 Z"/>
            </clipPath>
            <clipPath clipPathUnits="userSpaceOnUse" id="clipPath36">
                <path d="M9 9 L252 9 L252 173 L9 173 L9 9 Z"/>
            </clipPath>
            <clipPath clipPathUnits="userSpaceOnUse" id="clipPath37">
                <path d="M370 1710 L370 1809 L610 1809 L610 1710 Z"/>
            </clipPath>
            <clipPath clipPathUnits="userSpaceOnUse" id="clipPath38">
                <path d="M472 1712 L511 1712 L511 1729 L472 1729 L472 1712 Z"/>
            </clipPath>
            <clipPath clipPathUnits="userSpaceOnUse" id="clipPath39">
                <path d="M375 1731 L545 1731 L545 1748 L375 1748 L375 1731 Z"/>
            </clipPath>
            <clipPath clipPathUnits="userSpaceOnUse" id="clipPath40">
                <path d="M370 1729 L612 1729 L612 1811 L370 1811 L370 1729 Z"/>
            </clipPath>
            <clipPath clipPathUnits="userSpaceOnUse" id="clipPath41">
                <path d="M369 1709 L612 1709 L612 1811 L369 1811 L369 1709 Z"/>
            </clipPath>
            <clipPath clipPathUnits="userSpaceOnUse" id="clipPath42">
                <path d="M370 470 L370 569 L610 569 L610 470 Z"/>
            </clipPath>
            <clipPath clipPathUnits="userSpaceOnUse" id="clipPath43">
                <path d="M454 472 L528 472 L528 489 L454 489 L454 472 Z"/>
            </clipPath>
            <clipPath clipPathUnits="userSpaceOnUse" id="clipPath44">
                <path d="M370 489 L612 489 L612 571 L370 571 L370 489 Z"/>
            </clipPath>
            <clipPath clipPathUnits="userSpaceOnUse" id="clipPath45">
                <path d="M369 469 L612 469 L612 571 L369 571 L369 469 Z"/>
            </clipPath>
            <clipPath clipPathUnits="userSpaceOnUse" id="clipPath46">
                <path d="M550 790 L550 889 L789 889 L789 790 Z"/>
            </clipPath>
            <clipPath clipPathUnits="userSpaceOnUse" id="clipPath47">
                <path d="M615 792 L726 792 L726 809 L615 809 L615 792 Z"/>
            </clipPath>
            <clipPath clipPathUnits="userSpaceOnUse" id="clipPath48">
                <path d="M550 809 L791 809 L791 891 L550 891 L550 809 Z"/>
            </clipPath>
            <clipPath clipPathUnits="userSpaceOnUse" id="clipPath49">
                <path d="M549 789 L791 789 L791 891 L549 891 L549 789 Z"/>
            </clipPath>
            <clipPath clipPathUnits="userSpaceOnUse" id="clipPath50">
                <path d="M1030 630 L1030 729 L1269 729 L1269 630 Z"/>
            </clipPath>
            <clipPath clipPathUnits="userSpaceOnUse" id="clipPath51">
                <path d="M1120 632 L1181 632 L1181 649 L1120 649 L1120 632 Z"/>
            </clipPath>
            <clipPath clipPathUnits="userSpaceOnUse" id="clipPath52">
                <path d="M1109 648 L1192 648 L1192 665 L1109 665 L1109 648 Z"/>
            </clipPath>
            <clipPath clipPathUnits="userSpaceOnUse" id="clipPath53">
                <path d="M1030 665 L1271 665 L1271 731 L1030 731 L1030 665 Z"/>
            </clipPath>
            <clipPath clipPathUnits="userSpaceOnUse" id="clipPath54">
                <path d="M1029 629 L1271 629 L1271 731 L1029 731 L1029 629 Z"/>
            </clipPath>
            <clipPath clipPathUnits="userSpaceOnUse" id="clipPath55">
                <path d="M550 630 L550 729 L789 729 L789 630 Z"/>
            </clipPath>
            <clipPath clipPathUnits="userSpaceOnUse" id="clipPath56">
                <path d="M645 632 L697 632 L697 649 L645 649 L645 632 Z"/>
            </clipPath>
            <clipPath clipPathUnits="userSpaceOnUse" id="clipPath57">
                <path d="M550 649 L791 649 L791 731 L550 731 L550 649 Z"/>
            </clipPath>
            <clipPath clipPathUnits="userSpaceOnUse" id="clipPath58">
                <path d="M549 629 L791 629 L791 731 L549 731 L549 629 Z"/>
            </clipPath>
            <clipPath clipPathUnits="userSpaceOnUse" id="clipPath59">
                <path d="M1530 630 L1530 919 L1770 919 L1770 630 Z"/>
            </clipPath>
            <clipPath clipPathUnits="userSpaceOnUse" id="clipPath60">
                <path d="M1638 632 L1664 632 L1664 649 L1638 649 L1638 632 Z"/>
            </clipPath>
            <clipPath clipPathUnits="userSpaceOnUse" id="clipPath61">
                <path d="M1535 651 L1709 651 L1709 668 L1535 668 L1535 651 Z"/>
            </clipPath>
            <clipPath clipPathUnits="userSpaceOnUse" id="clipPath62">
                <path d="M1535 667 L1628 667 L1628 684 L1535 684 L1535 667 Z"/>
            </clipPath>
            <clipPath clipPathUnits="userSpaceOnUse" id="clipPath63">
                <path d="M1535 683 L1600 683 L1600 700 L1535 700 L1535 683 Z"/>
            </clipPath>
            <clipPath clipPathUnits="userSpaceOnUse" id="clipPath64">
                <path d="M1535 699 L1673 699 L1673 716 L1535 716 L1535 699 Z"/>
            </clipPath>
            <clipPath clipPathUnits="userSpaceOnUse" id="clipPath65">
                <path d="M1535 715 L1762 715 L1762 732 L1535 732 L1535 715 Z"/>
            </clipPath>
            <clipPath clipPathUnits="userSpaceOnUse" id="clipPath66">
                <path d="M1535 731 L1696 731 L1696 748 L1535 748 L1535 731 Z"/>
            </clipPath>
            <clipPath clipPathUnits="userSpaceOnUse" id="clipPath67">
                <path d="M1535 747 L1672 747 L1672 764 L1535 764 L1535 747 Z"/>
            </clipPath>
            <clipPath clipPathUnits="userSpaceOnUse" id="clipPath68">
                <path d="M1535 763 L1711 763 L1711 780 L1535 780 L1535 763 Z"/>
            </clipPath>
            <clipPath clipPathUnits="userSpaceOnUse" id="clipPath69">
                <path d="M1535 779 L1722 779 L1722 796 L1535 796 L1535 779 Z"/>
            </clipPath>
            <clipPath clipPathUnits="userSpaceOnUse" id="clipPath70">
                <path d="M1535 795 L1753 795 L1753 812 L1535 812 L1535 795 Z"/>
            </clipPath>
            <clipPath clipPathUnits="userSpaceOnUse" id="clipPath71">
                <path d="M1535 811 L1739 811 L1739 828 L1535 828 L1535 811 Z"/>
            </clipPath>
            <clipPath clipPathUnits="userSpaceOnUse" id="clipPath72">
                <path d="M1535 827 L1766 827 L1766 844 L1535 844 L1535 827 Z"/>
            </clipPath>
            <clipPath clipPathUnits="userSpaceOnUse" id="clipPath73">
                <path d="M1535 843 L1733 843 L1733 860 L1535 860 L1535 843 Z"/>
            </clipPath>
            <clipPath clipPathUnits="userSpaceOnUse" id="clipPath74">
                <path d="M1535 859 L1767 859 L1767 876 L1535 876 L1535 859 Z"/>
            </clipPath>
            <clipPath clipPathUnits="userSpaceOnUse" id="clipPath75">
                <path d="M1530 649 L1772 649 L1772 921 L1530 921 L1530 649 Z"/>
            </clipPath>
            <clipPath clipPathUnits="userSpaceOnUse" id="clipPath76">
                <path d="M1529 629 L1772 629 L1772 921 L1529 921 L1529 629 Z"/>
            </clipPath>
            <clipPath clipPathUnits="userSpaceOnUse" id="clipPath77">
                <path d="M-1 -1 L1782 -1 L1782 1821 L-1 1821 L-1 -1 Z"/>
            </clipPath>
            <clipPath clipPathUnits="userSpaceOnUse" id="clipPath78">
                <path d="M301 407 L320 407 L320 420 L301 420 L301 407 Z"/>
            </clipPath>
            <clipPath clipPathUnits="userSpaceOnUse" id="clipPath79">
                <path d="M481 569 L500 569 L500 582 L481 582 L481 569 Z"/>
            </clipPath>
            <clipPath clipPathUnits="userSpaceOnUse" id="clipPath80">
                <path d="M464 1529 L476 1529 L476 1546 L464 1546 L464 1529 Z"/>
            </clipPath>
            <clipPath clipPathUnits="userSpaceOnUse" id="clipPath81">
                <path d="M499 1675 L522 1675 L522 1692 L499 1692 L499 1675 Z"/>
            </clipPath>
            <clipPath clipPathUnits="userSpaceOnUse" id="clipPath82">
                <path d="M121 171 L140 171 L140 184 L121 184 L121 171 Z"/>
            </clipPath>
            <clipPath clipPathUnits="userSpaceOnUse" id="clipPath83">
                <path d="M638 934 L662 934 L662 951 L638 951 L638 934 Z"/>
            </clipPath>
            <clipPath clipPathUnits="userSpaceOnUse" id="clipPath84">
                <path d="M679 1030 L702 1030 L702 1047 L679 1047 L679 1030 Z"/>
            </clipPath>
            <clipPath clipPathUnits="userSpaceOnUse" id="clipPath85">
                <path d="M1014 664 L1032 664 L1032 677 L1014 677 L1014 664 Z"/>
            </clipPath>
            <clipPath clipPathUnits="userSpaceOnUse" id="clipPath86">
                <path d="M1308 689 L1320 689 L1320 706 L1308 706 L1308 689 Z"/>
            </clipPath>
            <clipPath clipPathUnits="userSpaceOnUse" id="clipPath87">
                <path d="M1489 649 L1512 649 L1512 666 L1489 666 L1489 649 Z"/>
            </clipPath>
        </defs>
        <g fill="url(#linearGradient1)" stroke-miterlimit="0" stroke-width="0" font-family="'Segoe UI'" stroke="url(#linearGradient1)" stroke-linejoin="round">
            <rect x="370" width="241" height="100" y="1410" clip-path="url(#clipPath1)" stroke="none"/>
            <text fill="black" x="462" xml:space="preserve" y="1426" clip-path="url(#clipPath2)" stroke="none">VariantLine</text>
            <text fill="black" x="376" xml:space="preserve" y="1445" clip-path="url(#clipPath3)" stroke="none">  variantFamily: VariantFamily [1..*]</text>
        </g>
        <g stroke-linecap="butt" font-family="'Segoe UI'" stroke-width="1.1">
            <line y2="1430" fill="none" x1="370" clip-path="url(#clipPath4)" x2="611" y1="1430"/>
            <rect x="370" y="1410" clip-path="url(#clipPath5)" fill="none" width="240" rx="0" ry="0" height="99"/>
            <rect x="550" y="1090" clip-path="url(#clipPath6)" fill="url(#linearGradient2)" width="240" height="100" stroke="none"/>
            <text x="627" xml:space="preserve" y="1106" clip-path="url(#clipPath7)" stroke="none">ComponentLine</text>
            <text x="556" xml:space="preserve" y="1125" clip-path="url(#clipPath8)" stroke="none">  conusmerUnitCode: ConsumerUnitCod...</text>
            <line y2="1110" fill="none" x1="550" clip-path="url(#clipPath9)" x2="790" y1="1110"/>
            <rect x="550" y="1090" clip-path="url(#clipPath10)" fill="none" width="239" rx="0" ry="0" height="99"/>
            <rect x="550" y="1250" clip-path="url(#clipPath11)" fill="url(#linearGradient3)" width="241" height="101" stroke="none"/>
            <text x="642" xml:space="preserve" y="1266" clip-path="url(#clipPath12)" stroke="none">RecipeLine</text>
            <text x="556" xml:space="preserve" y="1285" clip-path="url(#clipPath13)" stroke="none">  conusmerUnitCode: ConsumerUnitCode...</text>
            <line y2="1270" fill="none" x1="550" clip-path="url(#clipPath14)" x2="791" y1="1270"/>
            <rect x="550" y="1250" clip-path="url(#clipPath15)" fill="none" width="240" rx="0" ry="0" height="100"/>
            <rect x="190" y="230" clip-path="url(#clipPath16)" fill="url(#linearGradient4)" width="241" height="178" stroke="none"/>
            <text x="287" y="246" clip-path="url(#clipPath17)" fill="rgb(169,169,169)" font-style="italic" stroke="none" xml:space="preserve">CoreLine</text>
            <text x="196" xml:space="preserve" y="265" clip-path="url(#clipPath18)" stroke="none">  geographicMarket: GeographicMarket [*]</text>
            <text x="196" xml:space="preserve" y="281" clip-path="url(#clipPath19)" stroke="none">  classification: TaxonomyTerm [*]</text>
            <text x="196" xml:space="preserve" y="297" clip-path="url(#clipPath20)" stroke="none">  dynamicAttribute: AttributeValue [*]</text>
            <text x="196" xml:space="preserve" y="313" clip-path="url(#clipPath21)" stroke="none">  sellingRestriction: SellingRestriction [*]</text>
            <text x="196" xml:space="preserve" y="329" clip-path="url(#clipPath22)" stroke="none">  appliedSellingCharge: AppliedCharge [*]</text>
            <text x="196" xml:space="preserve" y="345" clip-path="url(#clipPath23)" stroke="none">  brand: BrandHierarchyNode [1]</text>
            <text x="196" xml:space="preserve" y="361" clip-path="url(#clipPath24)" stroke="none">  merchandisingHierarchyClassification: ...</text>
            <line y2="250" fill="none" x1="190" clip-path="url(#clipPath25)" x2="431" y1="250"/>
            <rect x="190" y="230" clip-path="url(#clipPath26)" fill="none" width="240" rx="0" ry="0" height="177"/>
            <rect x="10" y="10" clip-path="url(#clipPath27)" fill="url(#linearGradient5)" width="241" height="162" stroke="none"/>
            <text x="119" y="26" clip-path="url(#clipPath28)" fill="rgb(169,169,169)" font-style="italic" stroke="none" xml:space="preserve">Line</text>
            <text x="16" xml:space="preserve" y="45" clip-path="url(#clipPath29)" stroke="none">«Identifier»   lineId: Identifier [1]</text>
            <text x="16" xml:space="preserve" y="61" clip-path="url(#clipPath30)" stroke="none">  name: Name [1..*]</text>
            <text x="16" xml:space="preserve" y="77" clip-path="url(#clipPath31)" stroke="none">  description: Description [*]</text>
            <text x="16" xml:space="preserve" y="93" clip-path="url(#clipPath32)" stroke="none">  launchDate: Date [1]</text>
            <text x="16" xml:space="preserve" y="109" clip-path="url(#clipPath33)" stroke="none">  deletionDate: Date [0..1]</text>
            <text x="16" xml:space="preserve" y="125" clip-path="url(#clipPath34)" stroke="none">  exclusivity: Exclusivity [0..1]</text>
            <line y2="30" fill="none" x1="10" clip-path="url(#clipPath35)" x2="251" y1="30"/>
            <rect x="10" y="10" clip-path="url(#clipPath36)" fill="none" width="240" rx="0" ry="0" height="161"/>
            <rect x="370" y="1710" clip-path="url(#clipPath37)" fill="url(#linearGradient6)" width="241" height="100" stroke="none"/>
            <text x="473" xml:space="preserve" y="1726" clip-path="url(#clipPath38)" stroke="none">Variant</text>
            <text x="376" xml:space="preserve" y="1745" clip-path="url(#clipPath39)" stroke="none">  variantValue: VariantValue [1..*]</text>
            <line y2="1730" fill="none" x1="370" clip-path="url(#clipPath40)" x2="611" y1="1730"/>
            <rect x="370" y="1710" clip-path="url(#clipPath41)" fill="none" width="240" rx="0" ry="0" height="99"/>
            <rect x="370" y="470" clip-path="url(#clipPath42)" fill="url(#linearGradient7)" width="241" height="100" stroke="none"/>
            <text x="455" y="486" clip-path="url(#clipPath43)" fill="rgb(169,169,169)" font-style="italic" stroke="none" xml:space="preserve">InvariantLine</text>
            <line y2="490" fill="none" x1="370" clip-path="url(#clipPath44)" x2="611" y1="490"/>
            <rect x="370" y="470" clip-path="url(#clipPath45)" fill="none" width="240" rx="0" ry="0" height="99"/>
            <rect x="550" y="790" clip-path="url(#clipPath46)" fill="url(#linearGradient8)" width="240" height="100" stroke="none"/>
            <text x="616" xml:space="preserve" y="806" clip-path="url(#clipPath47)" stroke="none">DeconstructableLine</text>
            <line y2="810" fill="none" x1="550" clip-path="url(#clipPath48)" x2="790" y1="810"/>
            <rect x="550" y="790" clip-path="url(#clipPath49)" fill="none" width="239" rx="0" ry="0" height="99"/>
            <rect x="1030" y="630" clip-path="url(#clipPath50)" fill="url(#linearGradient9)" width="240" height="100" stroke="none"/>
            <text x="1121" xml:space="preserve" y="646" clip-path="url(#clipPath51)" stroke="none">«Interface»</text>
            <text x="1110" xml:space="preserve" y="662" clip-path="url(#clipPath52)" stroke="none">ISuppliableLine</text>
            <line y2="666" fill="none" x1="1030" clip-path="url(#clipPath53)" x2="1270" y1="666"/>
            <rect x="1030" y="630" clip-path="url(#clipPath54)" fill="none" width="239" rx="0" ry="0" height="99"/>
            <rect x="550" y="630" clip-path="url(#clipPath55)" fill="url(#linearGradient10)" width="240" height="100" stroke="none"/>
            <text x="646" xml:space="preserve" y="646" clip-path="url(#clipPath56)" stroke="none">BasicLine</text>
            <line y2="650" fill="none" x1="550" clip-path="url(#clipPath57)" x2="790" y1="650"/>
            <rect x="550" y="630" clip-path="url(#clipPath58)" fill="none" width="239" rx="0" ry="0" height="99"/>
            <rect x="1530" y="630" clip-path="url(#clipPath59)" fill="url(#linearGradient11)" width="241" height="290" stroke="none"/>
            <text x="1639" xml:space="preserve" y="646" clip-path="url(#clipPath60)" stroke="none">Item</text>
            <text x="1536" xml:space="preserve" y="665" clip-path="url(#clipPath61)" stroke="none">«Identifier»   itemId: Identifier [1]</text>
            <text x="1536" xml:space="preserve" y="681" clip-path="url(#clipPath62)" stroke="none">  name: Name [1]</text>
            <text x="1536" xml:space="preserve" y="697" clip-path="url(#clipPath63)" stroke="none">  life: Life [*]</text>
            <text x="1536" xml:space="preserve" y="713" clip-path="url(#clipPath64)" stroke="none">  unNumber: Integer [0..1]</text>
            <text x="1536" xml:space="preserve" y="729" clip-path="url(#clipPath65)" stroke="none">  priceMarkedOnPackaging: CurrencyAm...</text>
            <text x="1536" xml:space="preserve" y="745" clip-path="url(#clipPath66)" stroke="none">  isVariableWeight: Boolean [1]</text>
            <text x="1536" xml:space="preserve" y="761" clip-path="url(#clipPath67)" stroke="none">  netContent: Quantity [1]</text>
            <text x="1536" xml:space="preserve" y="777" clip-path="url(#clipPath68)" stroke="none">  netWeight: MeasuredWeight [1]</text>
            <text x="1536" xml:space="preserve" y="793" clip-path="url(#clipPath69)" stroke="none">  grossWeight: MeasuredWeight [1]</text>
            <text x="1536" xml:space="preserve" y="809" clip-path="url(#clipPath70)" stroke="none">  unpackedDimensions: DimensionSet [1]</text>
            <text x="1536" xml:space="preserve" y="825" clip-path="url(#clipPath71)" stroke="none">  packedDimensions: DimensionSet [1]</text>
            <text x="1536" xml:space="preserve" y="841" clip-path="url(#clipPath72)" stroke="none">  additionalDimensions: PurposedDimensi...</text>
            <text x="1536" xml:space="preserve" y="857" clip-path="url(#clipPath73)" stroke="none">  dynamicAttribute: AttributeValue [*]</text>
            <text x="1536" xml:space="preserve" y="873" clip-path="url(#clipPath74)" stroke="none">  conusmerUnitCode: ConsumerUnitCode...</text>
            <line y2="650" fill="none" x1="1530" clip-path="url(#clipPath75)" x2="1771" y1="650"/>
            <rect x="1530" y="630" clip-path="url(#clipPath76)" fill="none" width="240" rx="0" ry="0" height="289"/>
            <line clip-path="url(#clipPath77)" fill="none" text-rendering="optimizeLegibility" x1="370" x2="310" y1="1450" y2="1450"/>
            <line clip-path="url(#clipPath77)" fill="none" text-rendering="optimizeLegibility" x1="310" x2="310" y1="1450" y2="408"/>
            <polygon fill="white" text-rendering="optimizeLegibility" clip-path="url(#clipPath78)" points=" 310 408 318 418 302 418" stroke="none"/>
            <polygon fill="none" text-rendering="optimizeLegibility" clip-path="url(#clipPath78)" points=" 310 408 318 418 302 418"/>
            <line clip-path="url(#clipPath77)" fill="none" text-rendering="optimizeLegibility" x1="550" x2="490" y1="830" y2="830"/>
            <line clip-path="url(#clipPath77)" fill="none" text-rendering="optimizeLegibility" x1="490" x2="490" y1="830" y2="570"/>
            <polygon fill="white" text-rendering="optimizeLegibility" clip-path="url(#clipPath79)" points=" 490 570 498 580 482 580" stroke="none"/>
            <polygon fill="none" text-rendering="optimizeLegibility" clip-path="url(#clipPath79)" points=" 490 570 498 580 482 580"/>
            <line clip-path="url(#clipPath77)" fill="none" text-rendering="optimizeLegibility" x1="550" x2="490" y1="1290" y2="1290"/>
            <line clip-path="url(#clipPath77)" fill="none" text-rendering="optimizeLegibility" x1="490" x2="490" y1="1290" y2="570"/>
            <polygon fill="white" text-rendering="optimizeLegibility" clip-path="url(#clipPath79)" points=" 490 570 498 580 482 580" stroke="none"/>
            <polygon fill="none" text-rendering="optimizeLegibility" clip-path="url(#clipPath79)" points=" 490 570 498 580 482 580"/>
            <line clip-path="url(#clipPath77)" fill="none" text-rendering="optimizeLegibility" x1="490" x2="490" y1="1510" y2="1537"/>
            <line clip-path="url(#clipPath77)" fill="none" text-rendering="optimizeLegibility" x1="490" x2="490" y1="1537" y2="1710"/>
            <text text-rendering="optimizeLegibility" x="465" xml:space="preserve" y="1543" clip-path="url(#clipPath80)" stroke="none"> 1</text>
            <text text-rendering="optimizeLegibility" x="500" xml:space="preserve" y="1689" clip-path="url(#clipPath81)" stroke="none"> 1..*</text>
            <line clip-path="url(#clipPath77)" fill="none" text-rendering="optimizeLegibility" x1="370" x2="130" y1="1750" y2="1750"/>
            <line clip-path="url(#clipPath77)" fill="none" text-rendering="optimizeLegibility" x1="130" x2="130" y1="1750" y2="172"/>
            <polygon fill="white" text-rendering="optimizeLegibility" clip-path="url(#clipPath82)" points=" 130 172 138 182 122 182" stroke="none"/>
            <polygon fill="none" text-rendering="optimizeLegibility" clip-path="url(#clipPath82)" points=" 130 172 138 182 122 182"/>
            <line clip-path="url(#clipPath77)" fill="none" text-rendering="optimizeLegibility" x1="370" x2="310" y1="510" y2="510"/>
            <line clip-path="url(#clipPath77)" fill="none" text-rendering="optimizeLegibility" x1="310" x2="310" y1="510" y2="408"/>
            <polygon fill="white" text-rendering="optimizeLegibility" clip-path="url(#clipPath78)" points=" 310 408 318 418 302 418" stroke="none"/>
            <polygon fill="none" text-rendering="optimizeLegibility" clip-path="url(#clipPath78)" points=" 310 408 318 418 302 418"/>
            <line clip-path="url(#clipPath77)" fill="none" text-rendering="optimizeLegibility" x1="190" x2="130" y1="310" y2="310"/>
            <line clip-path="url(#clipPath77)" fill="none" text-rendering="optimizeLegibility" x1="130" x2="130" y1="310" y2="172"/>
            <polygon fill="white" text-rendering="optimizeLegibility" clip-path="url(#clipPath82)" points=" 130 172 138 182 122 182" stroke="none"/>
            <polygon fill="none" text-rendering="optimizeLegibility" clip-path="url(#clipPath82)" points=" 130 172 138 182 122 182"/>
            <line clip-path="url(#clipPath77)" fill="none" text-rendering="optimizeLegibility" x1="550" x2="490" y1="1130" y2="1130"/>
            <line clip-path="url(#clipPath77)" fill="none" text-rendering="optimizeLegibility" x1="490" x2="490" y1="1130" y2="570"/>
            <polygon fill="white" text-rendering="optimizeLegibility" clip-path="url(#clipPath79)" points=" 490 570 498 580 482 580" stroke="none"/>
            <polygon fill="none" text-rendering="optimizeLegibility" clip-path="url(#clipPath79)" points=" 490 570 498 580 482 580"/>
            <line clip-path="url(#clipPath77)" fill="none" text-rendering="optimizeLegibility" x1="670" x2="670" y1="890" y2="1090"/>
            <text text-rendering="optimizeLegibility" x="639" xml:space="preserve" y="948" clip-path="url(#clipPath83)" stroke="none"> 0..1</text>
            <text text-rendering="optimizeLegibility" x="680" xml:space="preserve" y="1044" clip-path="url(#clipPath84)" stroke="none"> 1..*</text>
            <line clip-path="url(#clipPath77)" fill="none" text-rendering="optimizeLegibility" x1="790" x2="910" y1="830" y2="830" stroke-dasharray="5,5,5,5,5,5,5,5,5,5"/>
            <line clip-path="url(#clipPath77)" fill="none" text-rendering="optimizeLegibility" x1="910" x2="910" y1="830" y2="670" stroke-dasharray="5,5,5,5,5,5,5,5,5,5"/>
            <line clip-path="url(#clipPath77)" fill="none" text-rendering="optimizeLegibility" x1="910" x2="1030" y1="670" y2="670" stroke-dasharray="5,5,5,5,5,5,5,5,5,5"/>
        </g>
        <g stroke-linecap="butt" fill="white" text-rendering="optimizeLegibility" font-family="'Segoe UI'" stroke-dasharray="5,5,5,5,5,5,5,5,5,5" stroke="white" stroke-width="1.1">
            <polygon points=" 1030 670 1015 675 1015 665" stroke="none" clip-path="url(#clipPath85)"/>
            <polygon fill="none" stroke-dasharray="none" clip-path="url(#clipPath85)" points=" 1030 670 1015 675 1015 665" stroke="black"/>
            <line clip-path="url(#clipPath77)" fill="none" x1="611" x2="910" y1="1750" y2="1750" stroke="black"/>
            <line clip-path="url(#clipPath77)" fill="none" x1="910" x2="910" y1="1750" y2="670" stroke="black"/>
            <line clip-path="url(#clipPath77)" fill="none" x1="910" x2="1030" y1="670" y2="670" stroke="black"/>
            <polygon points=" 1030 670 1015 675 1015 665" clip-path="url(#clipPath85)" stroke="none"/>
            <polygon fill="none" stroke-dasharray="none" clip-path="url(#clipPath85)" points=" 1030 670 1015 675 1015 665" stroke="black"/>
            <line clip-path="url(#clipPath77)" fill="none" x1="550" x2="490" y1="670" y2="670" stroke-dasharray="none" stroke="black"/>
            <line clip-path="url(#clipPath77)" fill="none" x1="490" x2="490" y1="670" y2="570" stroke-dasharray="none" stroke="black"/>
            <polygon stroke-dasharray="none" clip-path="url(#clipPath79)" points=" 490 570 498 580 482 580" stroke="none"/>
            <polygon fill="none" stroke-dasharray="none" clip-path="url(#clipPath79)" points=" 490 570 498 580 482 580" stroke="black"/>
            <line clip-path="url(#clipPath77)" fill="none" x1="790" x2="1030" y1="670" y2="670" stroke="black"/>
            <polygon points=" 1030 670 1015 675 1015 665" clip-path="url(#clipPath85)" stroke="none"/>
            <polygon fill="none" stroke-dasharray="none" clip-path="url(#clipPath85)" points=" 1030 670 1015 675 1015 665" stroke="black"/>
            <line clip-path="url(#clipPath77)" fill="none" x1="1270" x2="1490" y1="670" y2="670" stroke-dasharray="none" stroke="black"/>
            <line clip-path="url(#clipPath77)" fill="none" x1="1490" x2="1530" y1="670" y2="670" stroke-dasharray="none" stroke="black"/>
            <text x="1309" y="703" clip-path="url(#clipPath86)" fill="black" stroke-dasharray="none" stroke="none" xml:space="preserve"> 1</text>
            <text x="1490" y="663" clip-path="url(#clipPath87)" fill="black" stroke-dasharray="none" stroke="none" xml:space="preserve"> 1..*</text>
        </g>
    </g>
</svg>
