<?xml version="1.0" encoding="UTF-8"?><svg xmlns="http://www.w3.org/2000/svg" xmlns:xlink="http://www.w3.org/1999/xlink" stroke-dasharray="none" shape-rendering="auto" font-family="'Dialog'" width="1640" text-rendering="auto" fill-opacity="1" contentScriptType="text/ecmascript" color-interpolation="auto" color-rendering="auto" preserveAspectRatio="xMidYMid meet" font-size="12px" viewBox="0 0 1640 1820" fill="black" stroke="black" image-rendering="auto" stroke-miterlimit="10" zoomAndPan="magnify" version="1.0" stroke-linecap="square" stroke-linejoin="miter" contentStyleType="text/css" font-style="normal" height="1820" stroke-width="1" stroke-dashoffset="0" font-weight="normal" stroke-opacity="1">
    <!--Generated by the Batik Graphics2D SVG Generator-->
    <defs id="genericDefs"/>
    <g>
        <defs id="defs1">
            <linearGradient x1="1030" x2="1030" y1="630" gradientUnits="userSpaceOnUse" y2="730" xlink:type="simple" xlink:actuate="onLoad" id="linearGradient1" xlink:show="other" spreadMethod="pad">
                <stop stop-opacity="1" stop-color="white" offset="0%"/>
                <stop stop-opacity="1" stop-color="rgb(131,135,205)" offset="100%"/>
            </linearGradient>
            <linearGradient x1="370" x2="370" y1="1710" gradientUnits="userSpaceOnUse" y2="1810" xlink:type="simple" xlink:actuate="onLoad" id="linearGradient2" xlink:show="other" spreadMethod="pad">
                <stop stop-opacity="1" stop-color="white" offset="0%"/>
                <stop stop-opacity="1" stop-color="rgb(195,215,221)" offset="100%"/>
            </linearGradient>
            <linearGradient x1="550" x2="550" y1="1090" gradientUnits="userSpaceOnUse" y2="1190" xlink:type="simple" xlink:actuate="onLoad" id="linearGradient3" xlink:show="other" spreadMethod="pad">
                <stop stop-opacity="1" stop-color="white" offset="0%"/>
                <stop stop-opacity="1" stop-color="rgb(195,215,221)" offset="100%"/>
            </linearGradient>
            <linearGradient x1="550" x2="550" y1="1250" gradientUnits="userSpaceOnUse" y2="1351" xlink:type="simple" xlink:actuate="onLoad" id="linearGradient4" xlink:show="other" spreadMethod="pad">
                <stop stop-opacity="1" stop-color="white" offset="0%"/>
                <stop stop-opacity="1" stop-color="rgb(195,215,221)" offset="100%"/>
            </linearGradient>
            <linearGradient x1="10" x2="10" y1="10" gradientUnits="userSpaceOnUse" y2="172" xlink:type="simple" xlink:actuate="onLoad" id="linearGradient5" xlink:show="other" spreadMethod="pad">
                <stop stop-opacity="1" stop-color="white" offset="0%"/>
                <stop stop-opacity="1" stop-color="rgb(195,215,221)" offset="100%"/>
            </linearGradient>
            <linearGradient x1="550" x2="550" y1="790" gradientUnits="userSpaceOnUse" y2="890" xlink:type="simple" xlink:actuate="onLoad" id="linearGradient6" xlink:show="other" spreadMethod="pad">
                <stop stop-opacity="1" stop-color="white" offset="0%"/>
                <stop stop-opacity="1" stop-color="rgb(195,215,221)" offset="100%"/>
            </linearGradient>
            <linearGradient x1="190" x2="190" y1="230" gradientUnits="userSpaceOnUse" y2="408" xlink:type="simple" xlink:actuate="onLoad" id="linearGradient7" xlink:show="other" spreadMethod="pad">
                <stop stop-opacity="1" stop-color="white" offset="0%"/>
                <stop stop-opacity="1" stop-color="rgb(195,215,221)" offset="100%"/>
            </linearGradient>
            <linearGradient x1="370" x2="370" y1="470" gradientUnits="userSpaceOnUse" y2="570" xlink:type="simple" xlink:actuate="onLoad" id="linearGradient8" xlink:show="other" spreadMethod="pad">
                <stop stop-opacity="1" stop-color="white" offset="0%"/>
                <stop stop-opacity="1" stop-color="rgb(195,215,221)" offset="100%"/>
            </linearGradient>
            <linearGradient x1="370" x2="370" y1="1410" gradientUnits="userSpaceOnUse" y2="1510" xlink:type="simple" xlink:actuate="onLoad" id="linearGradient9" xlink:show="other" spreadMethod="pad">
                <stop stop-opacity="1" stop-color="white" offset="0%"/>
                <stop stop-opacity="1" stop-color="rgb(195,215,221)" offset="100%"/>
            </linearGradient>
            <linearGradient x1="1390" x2="1390" y1="950" gradientUnits="userSpaceOnUse" y2="1050" xlink:type="simple" xlink:actuate="onLoad" id="linearGradient10" xlink:show="other" spreadMethod="pad">
                <stop stop-opacity="1" stop-color="white" offset="0%"/>
                <stop stop-opacity="1" stop-color="rgb(131,135,205)" offset="100%"/>
            </linearGradient>
            <linearGradient x1="1210" x2="1210" y1="790" gradientUnits="userSpaceOnUse" y2="890" xlink:type="simple" xlink:actuate="onLoad" id="linearGradient11" xlink:show="other" spreadMethod="pad">
                <stop stop-opacity="1" stop-color="white" offset="0%"/>
                <stop stop-opacity="1" stop-color="rgb(131,135,205)" offset="100%"/>
            </linearGradient>
            <linearGradient x1="550" x2="550" y1="630" gradientUnits="userSpaceOnUse" y2="730" xlink:type="simple" xlink:actuate="onLoad" id="linearGradient12" xlink:show="other" spreadMethod="pad">
                <stop stop-opacity="1" stop-color="white" offset="0%"/>
                <stop stop-opacity="1" stop-color="rgb(195,215,221)" offset="100%"/>
            </linearGradient>
            <clipPath clipPathUnits="userSpaceOnUse" id="clipPath1">
                <path d="M1030 630 L1030 729 L1270 729 L1270 630 Z"/>
            </clipPath>
            <clipPath clipPathUnits="userSpaceOnUse" id="clipPath2">
                <path d="M1121 632 L1182 632 L1182 649 L1121 649 L1121 632 Z"/>
            </clipPath>
            <clipPath clipPathUnits="userSpaceOnUse" id="clipPath3">
                <path d="M1117 648 L1185 648 L1185 665 L1117 665 L1117 648 Z"/>
            </clipPath>
            <clipPath clipPathUnits="userSpaceOnUse" id="clipPath4">
                <path d="M1035 667 L1177 667 L1177 684 L1035 684 L1035 667 Z"/>
            </clipPath>
            <clipPath clipPathUnits="userSpaceOnUse" id="clipPath5">
                <path d="M1030 665 L1272 665 L1272 731 L1030 731 L1030 665 Z"/>
            </clipPath>
            <clipPath clipPathUnits="userSpaceOnUse" id="clipPath6">
                <path d="M1029 629 L1272 629 L1272 731 L1029 731 L1029 629 Z"/>
            </clipPath>
            <clipPath clipPathUnits="userSpaceOnUse" id="clipPath7">
                <path d="M370 1710 L370 1809 L610 1809 L610 1710 Z"/>
            </clipPath>
            <clipPath clipPathUnits="userSpaceOnUse" id="clipPath8">
                <path d="M472 1712 L511 1712 L511 1729 L472 1729 L472 1712 Z"/>
            </clipPath>
            <clipPath clipPathUnits="userSpaceOnUse" id="clipPath9">
                <path d="M375 1731 L545 1731 L545 1748 L375 1748 L375 1731 Z"/>
            </clipPath>
            <clipPath clipPathUnits="userSpaceOnUse" id="clipPath10">
                <path d="M370 1729 L612 1729 L612 1811 L370 1811 L370 1729 Z"/>
            </clipPath>
            <clipPath clipPathUnits="userSpaceOnUse" id="clipPath11">
                <path d="M369 1709 L612 1709 L612 1811 L369 1811 L369 1709 Z"/>
            </clipPath>
            <clipPath clipPathUnits="userSpaceOnUse" id="clipPath12">
                <path d="M550 1090 L550 1189 L789 1189 L789 1090 Z"/>
            </clipPath>
            <clipPath clipPathUnits="userSpaceOnUse" id="clipPath13">
                <path d="M626 1092 L715 1092 L715 1109 L626 1109 L626 1092 Z"/>
            </clipPath>
            <clipPath clipPathUnits="userSpaceOnUse" id="clipPath14">
                <path d="M555 1111 L781 1111 L781 1128 L555 1128 L555 1111 Z"/>
            </clipPath>
            <clipPath clipPathUnits="userSpaceOnUse" id="clipPath15">
                <path d="M550 1109 L791 1109 L791 1191 L550 1191 L550 1109 Z"/>
            </clipPath>
            <clipPath clipPathUnits="userSpaceOnUse" id="clipPath16">
                <path d="M549 1089 L791 1089 L791 1191 L549 1191 L549 1089 Z"/>
            </clipPath>
            <clipPath clipPathUnits="userSpaceOnUse" id="clipPath17">
                <path d="M550 1250 L550 1350 L790 1350 L790 1250 Z"/>
            </clipPath>
            <clipPath clipPathUnits="userSpaceOnUse" id="clipPath18">
                <path d="M641 1252 L701 1252 L701 1269 L641 1269 L641 1252 Z"/>
            </clipPath>
            <clipPath clipPathUnits="userSpaceOnUse" id="clipPath19">
                <path d="M555 1271 L787 1271 L787 1288 L555 1288 L555 1271 Z"/>
            </clipPath>
            <clipPath clipPathUnits="userSpaceOnUse" id="clipPath20">
                <path d="M550 1269 L792 1269 L792 1352 L550 1352 L550 1269 Z"/>
            </clipPath>
            <clipPath clipPathUnits="userSpaceOnUse" id="clipPath21">
                <path d="M549 1249 L792 1249 L792 1352 L549 1352 L549 1249 Z"/>
            </clipPath>
            <clipPath clipPathUnits="userSpaceOnUse" id="clipPath22">
                <path d="M10 10 L10 171 L250 171 L250 10 Z"/>
            </clipPath>
            <clipPath clipPathUnits="userSpaceOnUse" id="clipPath23">
                <path d="M118 12 L144 12 L144 29 L118 29 L118 12 Z"/>
            </clipPath>
            <clipPath clipPathUnits="userSpaceOnUse" id="clipPath24">
                <path d="M15 31 L184 31 L184 48 L15 48 L15 31 Z"/>
            </clipPath>
            <clipPath clipPathUnits="userSpaceOnUse" id="clipPath25">
                <path d="M15 47 L119 47 L119 64 L15 64 L15 47 Z"/>
            </clipPath>
            <clipPath clipPathUnits="userSpaceOnUse" id="clipPath26">
                <path d="M15 63 L164 63 L164 80 L15 80 L15 63 Z"/>
            </clipPath>
            <clipPath clipPathUnits="userSpaceOnUse" id="clipPath27">
                <path d="M15 79 L130 79 L130 96 L15 96 L15 79 Z"/>
            </clipPath>
            <clipPath clipPathUnits="userSpaceOnUse" id="clipPath28">
                <path d="M15 95 L149 95 L149 112 L15 112 L15 95 Z"/>
            </clipPath>
            <clipPath clipPathUnits="userSpaceOnUse" id="clipPath29">
                <path d="M15 111 L168 111 L168 128 L15 128 L15 111 Z"/>
            </clipPath>
            <clipPath clipPathUnits="userSpaceOnUse" id="clipPath30">
                <path d="M10 29 L252 29 L252 173 L10 173 L10 29 Z"/>
            </clipPath>
            <clipPath clipPathUnits="userSpaceOnUse" id="clipPath31">
                <path d="M9 9 L252 9 L252 173 L9 173 L9 9 Z"/>
            </clipPath>
            <clipPath clipPathUnits="userSpaceOnUse" id="clipPath32">
                <path d="M550 790 L550 889 L789 889 L789 790 Z"/>
            </clipPath>
            <clipPath clipPathUnits="userSpaceOnUse" id="clipPath33">
                <path d="M615 792 L726 792 L726 809 L615 809 L615 792 Z"/>
            </clipPath>
            <clipPath clipPathUnits="userSpaceOnUse" id="clipPath34">
                <path d="M550 809 L791 809 L791 891 L550 891 L550 809 Z"/>
            </clipPath>
            <clipPath clipPathUnits="userSpaceOnUse" id="clipPath35">
                <path d="M549 789 L791 789 L791 891 L549 891 L549 789 Z"/>
            </clipPath>
            <clipPath clipPathUnits="userSpaceOnUse" id="clipPath36">
                <path d="M190 230 L190 407 L430 407 L430 230 Z"/>
            </clipPath>
            <clipPath clipPathUnits="userSpaceOnUse" id="clipPath37">
                <path d="M286 232 L336 232 L336 249 L286 249 L286 232 Z"/>
            </clipPath>
            <clipPath clipPathUnits="userSpaceOnUse" id="clipPath38">
                <path d="M195 251 L420 251 L420 268 L195 268 L195 251 Z"/>
            </clipPath>
            <clipPath clipPathUnits="userSpaceOnUse" id="clipPath39">
                <path d="M195 267 L374 267 L374 284 L195 284 L195 267 Z"/>
            </clipPath>
            <clipPath clipPathUnits="userSpaceOnUse" id="clipPath40">
                <path d="M195 283 L393 283 L393 300 L195 300 L195 283 Z"/>
            </clipPath>
            <clipPath clipPathUnits="userSpaceOnUse" id="clipPath41">
                <path d="M195 299 L406 299 L406 316 L195 316 L195 299 Z"/>
            </clipPath>
            <clipPath clipPathUnits="userSpaceOnUse" id="clipPath42">
                <path d="M195 315 L416 315 L416 332 L195 332 L195 315 Z"/>
            </clipPath>
            <clipPath clipPathUnits="userSpaceOnUse" id="clipPath43">
                <path d="M195 331 L368 331 L368 348 L195 348 L195 331 Z"/>
            </clipPath>
            <clipPath clipPathUnits="userSpaceOnUse" id="clipPath44">
                <path d="M195 347 L419 347 L419 364 L195 364 L195 347 Z"/>
            </clipPath>
            <clipPath clipPathUnits="userSpaceOnUse" id="clipPath45">
                <path d="M190 249 L432 249 L432 409 L190 409 L190 249 Z"/>
            </clipPath>
            <clipPath clipPathUnits="userSpaceOnUse" id="clipPath46">
                <path d="M189 229 L432 229 L432 409 L189 409 L189 229 Z"/>
            </clipPath>
            <clipPath clipPathUnits="userSpaceOnUse" id="clipPath47">
                <path d="M370 470 L370 569 L610 569 L610 470 Z"/>
            </clipPath>
            <clipPath clipPathUnits="userSpaceOnUse" id="clipPath48">
                <path d="M454 472 L528 472 L528 489 L454 489 L454 472 Z"/>
            </clipPath>
            <clipPath clipPathUnits="userSpaceOnUse" id="clipPath49">
                <path d="M370 489 L612 489 L612 571 L370 571 L370 489 Z"/>
            </clipPath>
            <clipPath clipPathUnits="userSpaceOnUse" id="clipPath50">
                <path d="M369 469 L612 469 L612 571 L369 571 L369 469 Z"/>
            </clipPath>
            <clipPath clipPathUnits="userSpaceOnUse" id="clipPath51">
                <path d="M370 1410 L370 1509 L610 1509 L610 1410 Z"/>
            </clipPath>
            <clipPath clipPathUnits="userSpaceOnUse" id="clipPath52">
                <path d="M461 1412 L522 1412 L522 1429 L461 1429 L461 1412 Z"/>
            </clipPath>
            <clipPath clipPathUnits="userSpaceOnUse" id="clipPath53">
                <path d="M375 1431 L559 1431 L559 1448 L375 1448 L375 1431 Z"/>
            </clipPath>
            <clipPath clipPathUnits="userSpaceOnUse" id="clipPath54">
                <path d="M370 1429 L612 1429 L612 1511 L370 1511 L370 1429 Z"/>
            </clipPath>
            <clipPath clipPathUnits="userSpaceOnUse" id="clipPath55">
                <path d="M369 1409 L612 1409 L612 1511 L369 1511 L369 1409 Z"/>
            </clipPath>
            <clipPath clipPathUnits="userSpaceOnUse" id="clipPath56">
                <path d="M1390 950 L1390 1049 L1629 1049 L1629 950 Z"/>
            </clipPath>
            <clipPath clipPathUnits="userSpaceOnUse" id="clipPath57">
                <path d="M1480 952 L1541 952 L1541 969 L1480 969 L1480 952 Z"/>
            </clipPath>
            <clipPath clipPathUnits="userSpaceOnUse" id="clipPath58">
                <path d="M1485 968 L1536 968 L1536 985 L1485 985 L1485 968 Z"/>
            </clipPath>
            <clipPath clipPathUnits="userSpaceOnUse" id="clipPath59">
                <path d="M1395 987 L1541 987 L1541 1004 L1395 1004 L1395 987 Z"/>
            </clipPath>
            <clipPath clipPathUnits="userSpaceOnUse" id="clipPath60">
                <path d="M1390 985 L1631 985 L1631 1051 L1390 1051 L1390 985 Z"/>
            </clipPath>
            <clipPath clipPathUnits="userSpaceOnUse" id="clipPath61">
                <path d="M1389 949 L1631 949 L1631 1051 L1389 1051 L1389 949 Z"/>
            </clipPath>
            <clipPath clipPathUnits="userSpaceOnUse" id="clipPath62">
                <path d="M1210 790 L1210 889 L1450 889 L1450 790 Z"/>
            </clipPath>
            <clipPath clipPathUnits="userSpaceOnUse" id="clipPath63">
                <path d="M1301 792 L1362 792 L1362 809 L1301 809 L1301 792 Z"/>
            </clipPath>
            <clipPath clipPathUnits="userSpaceOnUse" id="clipPath64">
                <path d="M1274 808 L1389 808 L1389 825 L1274 825 L1274 808 Z"/>
            </clipPath>
            <clipPath clipPathUnits="userSpaceOnUse" id="clipPath65">
                <path d="M1215 827 L1365 827 L1365 844 L1215 844 L1215 827 Z"/>
            </clipPath>
            <clipPath clipPathUnits="userSpaceOnUse" id="clipPath66">
                <path d="M1210 825 L1452 825 L1452 891 L1210 891 L1210 825 Z"/>
            </clipPath>
            <clipPath clipPathUnits="userSpaceOnUse" id="clipPath67">
                <path d="M1209 789 L1452 789 L1452 891 L1209 891 L1209 789 Z"/>
            </clipPath>
            <clipPath clipPathUnits="userSpaceOnUse" id="clipPath68">
                <path d="M550 630 L550 729 L789 729 L789 630 Z"/>
            </clipPath>
            <clipPath clipPathUnits="userSpaceOnUse" id="clipPath69">
                <path d="M645 632 L697 632 L697 649 L645 649 L645 632 Z"/>
            </clipPath>
            <clipPath clipPathUnits="userSpaceOnUse" id="clipPath70">
                <path d="M555 651 L708 651 L708 668 L555 668 L555 651 Z"/>
            </clipPath>
            <clipPath clipPathUnits="userSpaceOnUse" id="clipPath71">
                <path d="M550 649 L791 649 L791 731 L550 731 L550 649 Z"/>
            </clipPath>
            <clipPath clipPathUnits="userSpaceOnUse" id="clipPath72">
                <path d="M549 629 L791 629 L791 731 L549 731 L549 629 Z"/>
            </clipPath>
            <clipPath clipPathUnits="userSpaceOnUse" id="clipPath73">
                <path d="M-1 -1 L1641 -1 L1641 1821 L-1 1821 L-1 -1 Z"/>
            </clipPath>
            <clipPath clipPathUnits="userSpaceOnUse" id="clipPath74">
                <path d="M469 1529 L481 1529 L481 1546 L469 1546 L469 1529 Z"/>
            </clipPath>
            <clipPath clipPathUnits="userSpaceOnUse" id="clipPath75">
                <path d="M499 1675 L522 1675 L522 1692 L499 1692 L499 1675 Z"/>
            </clipPath>
            <clipPath clipPathUnits="userSpaceOnUse" id="clipPath76">
                <path d="M301 407 L320 407 L320 420 L301 420 L301 407 Z"/>
            </clipPath>
            <clipPath clipPathUnits="userSpaceOnUse" id="clipPath77">
                <path d="M121 171 L140 171 L140 184 L121 184 L121 171 Z"/>
            </clipPath>
            <clipPath clipPathUnits="userSpaceOnUse" id="clipPath78">
                <path d="M481 569 L500 569 L500 582 L481 582 L481 569 Z"/>
            </clipPath>
            <clipPath clipPathUnits="userSpaceOnUse" id="clipPath79">
                <path d="M643 909 L667 909 L667 926 L643 926 L643 909 Z"/>
            </clipPath>
            <clipPath clipPathUnits="userSpaceOnUse" id="clipPath80">
                <path d="M689 1049 L712 1049 L712 1066 L689 1066 L689 1049 Z"/>
            </clipPath>
            <clipPath clipPathUnits="userSpaceOnUse" id="clipPath81">
                <path d="M1014 664 L1032 664 L1032 677 L1014 677 L1014 664 Z"/>
            </clipPath>
            <clipPath clipPathUnits="userSpaceOnUse" id="clipPath82">
                <path d="M1321 889 L1340 889 L1340 902 L1321 902 L1321 889 Z"/>
            </clipPath>
            <clipPath clipPathUnits="userSpaceOnUse" id="clipPath83">
                <path d="M1141 729 L1160 729 L1160 742 L1141 742 L1141 729 Z"/>
            </clipPath>
        </defs>
        <g fill="url(#linearGradient1)" stroke-miterlimit="0" stroke-width="0" font-family="'Segoe UI'" stroke="url(#linearGradient1)" stroke-linejoin="round">
            <rect x="1030" width="241" height="100" y="630" clip-path="url(#clipPath1)" stroke="none"/>
            <text fill="black" x="1122" xml:space="preserve" y="646" clip-path="url(#clipPath2)" stroke="none">«Interface»</text>
            <text fill="black" x="1118" xml:space="preserve" y="662" clip-path="url(#clipPath3)" stroke="none">ISellableLine</text>
            <text fill="black" x="1036" xml:space="preserve" y="681" clip-path="url(#clipPath4)" stroke="none">  baseSellingPrice: Price [1]</text>
        </g>
        <g stroke-linecap="butt" font-family="'Segoe UI'" stroke-width="1.1">
            <line y2="666" fill="none" x1="1030" clip-path="url(#clipPath5)" x2="1271" y1="666"/>
            <rect x="1030" y="630" clip-path="url(#clipPath6)" fill="none" width="240" rx="0" ry="0" height="99"/>
            <rect x="370" y="1710" clip-path="url(#clipPath7)" fill="url(#linearGradient2)" width="241" height="100" stroke="none"/>
            <text x="473" xml:space="preserve" y="1726" clip-path="url(#clipPath8)" stroke="none">Variant</text>
            <text x="376" xml:space="preserve" y="1745" clip-path="url(#clipPath9)" stroke="none">  variantValue: VariantValue [1..*]</text>
            <line y2="1730" fill="none" x1="370" clip-path="url(#clipPath10)" x2="611" y1="1730"/>
            <rect x="370" y="1710" clip-path="url(#clipPath11)" fill="none" width="240" rx="0" ry="0" height="99"/>
            <rect x="550" y="1090" clip-path="url(#clipPath12)" fill="url(#linearGradient3)" width="240" height="100" stroke="none"/>
            <text x="627" xml:space="preserve" y="1106" clip-path="url(#clipPath13)" stroke="none">ComponentLine</text>
            <text x="556" xml:space="preserve" y="1125" clip-path="url(#clipPath14)" stroke="none">  conusmerUnitCode: ConsumerUnitCod...</text>
            <line y2="1110" fill="none" x1="550" clip-path="url(#clipPath15)" x2="790" y1="1110"/>
            <rect x="550" y="1090" clip-path="url(#clipPath16)" fill="none" width="239" rx="0" ry="0" height="99"/>
            <rect x="550" y="1250" clip-path="url(#clipPath17)" fill="url(#linearGradient4)" width="241" height="101" stroke="none"/>
            <text x="642" xml:space="preserve" y="1266" clip-path="url(#clipPath18)" stroke="none">RecipeLine</text>
            <text x="556" xml:space="preserve" y="1285" clip-path="url(#clipPath19)" stroke="none">  conusmerUnitCode: ConsumerUnitCode...</text>
            <line y2="1270" fill="none" x1="550" clip-path="url(#clipPath20)" x2="791" y1="1270"/>
            <rect x="550" y="1250" clip-path="url(#clipPath21)" fill="none" width="240" rx="0" ry="0" height="100"/>
            <rect x="10" y="10" clip-path="url(#clipPath22)" fill="url(#linearGradient5)" width="241" height="162" stroke="none"/>
            <text x="119" y="26" clip-path="url(#clipPath23)" fill="rgb(169,169,169)" font-style="italic" stroke="none" xml:space="preserve">Line</text>
            <text x="16" xml:space="preserve" y="45" clip-path="url(#clipPath24)" stroke="none">«Identifier»   lineId: Identifier [1]</text>
            <text x="16" xml:space="preserve" y="61" clip-path="url(#clipPath25)" stroke="none">  name: Name [1..*]</text>
            <text x="16" xml:space="preserve" y="77" clip-path="url(#clipPath26)" stroke="none">  description: Description [*]</text>
            <text x="16" xml:space="preserve" y="93" clip-path="url(#clipPath27)" stroke="none">  launchDate: Date [1]</text>
            <text x="16" xml:space="preserve" y="109" clip-path="url(#clipPath28)" stroke="none">  deletionDate: Date [0..1]</text>
            <text x="16" xml:space="preserve" y="125" clip-path="url(#clipPath29)" stroke="none">  exclusivity: Exclusivity [0..1]</text>
            <line y2="30" fill="none" x1="10" clip-path="url(#clipPath30)" x2="251" y1="30"/>
            <rect x="10" y="10" clip-path="url(#clipPath31)" fill="none" width="240" rx="0" ry="0" height="161"/>
            <rect x="550" y="790" clip-path="url(#clipPath32)" fill="url(#linearGradient6)" width="240" height="100" stroke="none"/>
            <text x="616" xml:space="preserve" y="806" clip-path="url(#clipPath33)" stroke="none">DeconstructableLine</text>
            <line y2="810" fill="none" x1="550" clip-path="url(#clipPath34)" x2="790" y1="810"/>
            <rect x="550" y="790" clip-path="url(#clipPath35)" fill="none" width="239" rx="0" ry="0" height="99"/>
            <rect x="190" y="230" clip-path="url(#clipPath36)" fill="url(#linearGradient7)" width="241" height="178" stroke="none"/>
            <text x="287" y="246" clip-path="url(#clipPath37)" fill="rgb(169,169,169)" font-style="italic" stroke="none" xml:space="preserve">CoreLine</text>
            <text x="196" xml:space="preserve" y="265" clip-path="url(#clipPath38)" stroke="none">  geographicMarket: GeographicMarket [*]</text>
            <text x="196" xml:space="preserve" y="281" clip-path="url(#clipPath39)" stroke="none">  classification: TaxonomyTerm [*]</text>
            <text x="196" xml:space="preserve" y="297" clip-path="url(#clipPath40)" stroke="none">  dynamicAttribute: AttributeValue [*]</text>
            <text x="196" xml:space="preserve" y="313" clip-path="url(#clipPath41)" stroke="none">  sellingRestriction: SellingRestriction [*]</text>
            <text x="196" xml:space="preserve" y="329" clip-path="url(#clipPath42)" stroke="none">  appliedSellingCharge: AppliedCharge [*]</text>
            <text x="196" xml:space="preserve" y="345" clip-path="url(#clipPath43)" stroke="none">  brand: BrandHierarchyNode [1]</text>
            <text x="196" xml:space="preserve" y="361" clip-path="url(#clipPath44)" stroke="none">  merchandisingHierarchyClassification: ...</text>
            <line y2="250" fill="none" x1="190" clip-path="url(#clipPath45)" x2="431" y1="250"/>
            <rect x="190" y="230" clip-path="url(#clipPath46)" fill="none" width="240" rx="0" ry="0" height="177"/>
            <rect x="370" y="470" clip-path="url(#clipPath47)" fill="url(#linearGradient8)" width="241" height="100" stroke="none"/>
            <text x="455" y="486" clip-path="url(#clipPath48)" fill="rgb(169,169,169)" font-style="italic" stroke="none" xml:space="preserve">InvariantLine</text>
            <line y2="490" fill="none" x1="370" clip-path="url(#clipPath49)" x2="611" y1="490"/>
            <rect x="370" y="470" clip-path="url(#clipPath50)" fill="none" width="240" rx="0" ry="0" height="99"/>
            <rect x="370" y="1410" clip-path="url(#clipPath51)" fill="url(#linearGradient9)" width="241" height="100" stroke="none"/>
            <text x="462" xml:space="preserve" y="1426" clip-path="url(#clipPath52)" stroke="none">VariantLine</text>
            <text x="376" xml:space="preserve" y="1445" clip-path="url(#clipPath53)" stroke="none">  variantFamily: VariantFamily [1..*]</text>
            <line y2="1430" fill="none" x1="370" clip-path="url(#clipPath54)" x2="611" y1="1430"/>
            <rect x="370" y="1410" clip-path="url(#clipPath55)" fill="none" width="240" rx="0" ry="0" height="99"/>
            <rect x="1390" y="950" clip-path="url(#clipPath56)" fill="url(#linearGradient10)" width="240" height="100" stroke="none"/>
            <text x="1481" xml:space="preserve" y="966" clip-path="url(#clipPath57)" stroke="none">«Interface»</text>
            <text x="1486" xml:space="preserve" y="982" clip-path="url(#clipPath58)" stroke="none">IBulkLine</text>
            <text x="1396" xml:space="preserve" y="1001" clip-path="url(#clipPath59)" stroke="none">  cuttingAllowance: Real [1]</text>
            <line y2="986" fill="none" x1="1390" clip-path="url(#clipPath60)" x2="1630" y1="986"/>
            <rect x="1390" y="950" clip-path="url(#clipPath61)" fill="none" width="239" rx="0" ry="0" height="99"/>
            <rect x="1210" y="790" clip-path="url(#clipPath62)" fill="url(#linearGradient11)" width="241" height="100" stroke="none"/>
            <text x="1302" xml:space="preserve" y="806" clip-path="url(#clipPath63)" stroke="none">«Interface»</text>
            <text x="1275" xml:space="preserve" y="822" clip-path="url(#clipPath64)" stroke="none">IVariableQuantityLine</text>
            <text x="1216" xml:space="preserve" y="841" clip-path="url(#clipPath65)" stroke="none">  unit: MeasuredQuantity [1]</text>
            <line y2="826" fill="none" x1="1210" clip-path="url(#clipPath66)" x2="1451" y1="826"/>
            <rect x="1210" y="790" clip-path="url(#clipPath67)" fill="none" width="240" rx="0" ry="0" height="99"/>
            <rect x="550" y="630" clip-path="url(#clipPath68)" fill="url(#linearGradient12)" width="240" height="100" stroke="none"/>
            <text x="646" xml:space="preserve" y="646" clip-path="url(#clipPath69)" stroke="none">BasicLine</text>
            <text x="556" xml:space="preserve" y="665" clip-path="url(#clipPath70)" stroke="none">  Property4: &lt;Undefined&gt; [1]</text>
            <line y2="650" fill="none" x1="550" clip-path="url(#clipPath71)" x2="790" y1="650"/>
            <rect x="550" y="630" clip-path="url(#clipPath72)" fill="none" width="239" rx="0" ry="0" height="99"/>
            <line clip-path="url(#clipPath73)" fill="none" text-rendering="optimizeLegibility" x1="490" x2="490" y1="1510" y2="1710"/>
            <text text-rendering="optimizeLegibility" x="470" xml:space="preserve" y="1543" clip-path="url(#clipPath74)" stroke="none"> 1</text>
            <text text-rendering="optimizeLegibility" x="500" xml:space="preserve" y="1689" clip-path="url(#clipPath75)" stroke="none"> 1..*</text>
            <line clip-path="url(#clipPath73)" fill="none" text-rendering="optimizeLegibility" x1="370" x2="310" y1="1450" y2="1450"/>
            <line clip-path="url(#clipPath73)" fill="none" text-rendering="optimizeLegibility" x1="310" x2="310" y1="1450" y2="408"/>
            <polygon fill="white" text-rendering="optimizeLegibility" clip-path="url(#clipPath76)" points=" 310 408 318 418 302 418" stroke="none"/>
            <polygon fill="none" text-rendering="optimizeLegibility" clip-path="url(#clipPath76)" points=" 310 408 318 418 302 418"/>
            <line clip-path="url(#clipPath73)" fill="none" text-rendering="optimizeLegibility" x1="370" x2="130" y1="1750" y2="1750"/>
            <line clip-path="url(#clipPath73)" fill="none" text-rendering="optimizeLegibility" x1="130" x2="130" y1="1750" y2="172"/>
            <polygon fill="white" text-rendering="optimizeLegibility" clip-path="url(#clipPath77)" points=" 130 172 138 182 122 182" stroke="none"/>
            <polygon fill="none" text-rendering="optimizeLegibility" clip-path="url(#clipPath77)" points=" 130 172 138 182 122 182"/>
            <line clip-path="url(#clipPath73)" fill="none" text-rendering="optimizeLegibility" x1="550" x2="490" y1="1290" y2="1290"/>
            <line clip-path="url(#clipPath73)" fill="none" text-rendering="optimizeLegibility" x1="490" x2="490" y1="1290" y2="570"/>
            <polygon fill="white" text-rendering="optimizeLegibility" clip-path="url(#clipPath78)" points=" 490 570 498 580 482 580" stroke="none"/>
            <polygon fill="none" text-rendering="optimizeLegibility" clip-path="url(#clipPath78)" points=" 490 570 498 580 482 580"/>
            <line clip-path="url(#clipPath73)" fill="none" text-rendering="optimizeLegibility" x1="190" x2="130" y1="310" y2="310"/>
            <line clip-path="url(#clipPath73)" fill="none" text-rendering="optimizeLegibility" x1="130" x2="130" y1="310" y2="172"/>
            <polygon fill="white" text-rendering="optimizeLegibility" clip-path="url(#clipPath77)" points=" 130 172 138 182 122 182" stroke="none"/>
            <polygon fill="none" text-rendering="optimizeLegibility" clip-path="url(#clipPath77)" points=" 130 172 138 182 122 182"/>
            <line clip-path="url(#clipPath73)" fill="none" text-rendering="optimizeLegibility" x1="550" x2="490" y1="830" y2="830"/>
            <line clip-path="url(#clipPath73)" fill="none" text-rendering="optimizeLegibility" x1="490" x2="490" y1="830" y2="570"/>
            <polygon fill="white" text-rendering="optimizeLegibility" clip-path="url(#clipPath78)" points=" 490 570 498 580 482 580" stroke="none"/>
            <polygon fill="none" text-rendering="optimizeLegibility" clip-path="url(#clipPath78)" points=" 490 570 498 580 482 580"/>
            <line clip-path="url(#clipPath73)" fill="none" text-rendering="optimizeLegibility" x1="670" x2="670" y1="890" y2="1090"/>
            <text text-rendering="optimizeLegibility" x="644" xml:space="preserve" y="923" clip-path="url(#clipPath79)" stroke="none"> 0..1</text>
            <text text-rendering="optimizeLegibility" x="690" xml:space="preserve" y="1063" clip-path="url(#clipPath80)" stroke="none"> 1..*</text>
            <line clip-path="url(#clipPath73)" fill="none" text-rendering="optimizeLegibility" x1="370" x2="310" y1="510" y2="510"/>
            <line clip-path="url(#clipPath73)" fill="none" text-rendering="optimizeLegibility" x1="310" x2="310" y1="510" y2="408"/>
            <polygon fill="white" text-rendering="optimizeLegibility" clip-path="url(#clipPath76)" points=" 310 408 318 418 302 418" stroke="none"/>
            <polygon fill="none" text-rendering="optimizeLegibility" clip-path="url(#clipPath76)" points=" 310 408 318 418 302 418"/>
            <line clip-path="url(#clipPath73)" fill="none" text-rendering="optimizeLegibility" x1="550" x2="490" y1="1130" y2="1130"/>
            <line clip-path="url(#clipPath73)" fill="none" text-rendering="optimizeLegibility" x1="490" x2="490" y1="1130" y2="570"/>
            <polygon fill="white" text-rendering="optimizeLegibility" clip-path="url(#clipPath78)" points=" 490 570 498 580 482 580" stroke="none"/>
            <polygon fill="none" text-rendering="optimizeLegibility" clip-path="url(#clipPath78)" points=" 490 570 498 580 482 580"/>
            <line clip-path="url(#clipPath73)" fill="none" text-rendering="optimizeLegibility" x1="611" x2="910" y1="1750" y2="1750" stroke-dasharray="5,5,5,5,5,5,5,5,5,5"/>
            <line clip-path="url(#clipPath73)" fill="none" text-rendering="optimizeLegibility" x1="910" x2="910" y1="1750" y2="670" stroke-dasharray="5,5,5,5,5,5,5,5,5,5"/>
            <line clip-path="url(#clipPath73)" fill="none" text-rendering="optimizeLegibility" x1="910" x2="1030" y1="670" y2="670" stroke-dasharray="5,5,5,5,5,5,5,5,5,5"/>
        </g>
        <g stroke-linecap="butt" fill="white" text-rendering="optimizeLegibility" font-family="'Segoe UI'" stroke-dasharray="5,5,5,5,5,5,5,5,5,5" stroke="white" stroke-width="1.1">
            <polygon points=" 1030 670 1015 675 1015 665" stroke="none" clip-path="url(#clipPath81)"/>
            <polygon fill="none" stroke-dasharray="none" clip-path="url(#clipPath81)" points=" 1030 670 1015 675 1015 665" stroke="black"/>
            <line clip-path="url(#clipPath73)" fill="none" x1="790" x2="910" y1="1130" y2="1130" stroke="black"/>
            <line clip-path="url(#clipPath73)" fill="none" x1="910" x2="910" y1="1130" y2="670" stroke="black"/>
            <line clip-path="url(#clipPath73)" fill="none" x1="910" x2="1030" y1="670" y2="670" stroke="black"/>
            <polygon points=" 1030 670 1015 675 1015 665" clip-path="url(#clipPath81)" stroke="none"/>
            <polygon fill="none" stroke-dasharray="none" clip-path="url(#clipPath81)" points=" 1030 670 1015 675 1015 665" stroke="black"/>
            <line clip-path="url(#clipPath73)" fill="none" x1="791" x2="910" y1="1290" y2="1290" stroke="black"/>
            <line clip-path="url(#clipPath73)" fill="none" x1="910" x2="910" y1="1290" y2="670" stroke="black"/>
            <line clip-path="url(#clipPath73)" fill="none" x1="910" x2="1030" y1="670" y2="670" stroke="black"/>
            <polygon points=" 1030 670 1015 675 1015 665" clip-path="url(#clipPath81)" stroke="none"/>
            <polygon fill="none" stroke-dasharray="none" clip-path="url(#clipPath81)" points=" 1030 670 1015 675 1015 665" stroke="black"/>
            <line clip-path="url(#clipPath73)" fill="none" x1="1390" x2="1330" y1="985" y2="985" stroke-dasharray="none" stroke="black"/>
            <line clip-path="url(#clipPath73)" fill="none" x1="1330" x2="1330" y1="985" y2="890" stroke-dasharray="none" stroke="black"/>
            <polygon stroke-dasharray="none" clip-path="url(#clipPath82)" points=" 1330 890 1338 900 1322 900" stroke="none"/>
            <polygon fill="none" stroke-dasharray="none" clip-path="url(#clipPath82)" points=" 1330 890 1338 900 1322 900" stroke="black"/>
            <line clip-path="url(#clipPath73)" fill="none" x1="1210" x2="1150" y1="830" y2="830" stroke-dasharray="none" stroke="black"/>
            <line clip-path="url(#clipPath73)" fill="none" x1="1150" x2="1150" y1="830" y2="730" stroke-dasharray="none" stroke="black"/>
            <polygon stroke-dasharray="none" clip-path="url(#clipPath83)" points=" 1150 730 1158 740 1142 740" stroke="none"/>
            <polygon fill="none" stroke-dasharray="none" clip-path="url(#clipPath83)" points=" 1150 730 1158 740 1142 740" stroke="black"/>
            <line clip-path="url(#clipPath73)" fill="none" x1="550" x2="490" y1="670" y2="670" stroke-dasharray="none" stroke="black"/>
            <line clip-path="url(#clipPath73)" fill="none" x1="490" x2="490" y1="670" y2="570" stroke-dasharray="none" stroke="black"/>
            <polygon stroke-dasharray="none" clip-path="url(#clipPath78)" points=" 490 570 498 580 482 580" stroke="none"/>
            <polygon fill="none" stroke-dasharray="none" clip-path="url(#clipPath78)" points=" 490 570 498 580 482 580" stroke="black"/>
            <line clip-path="url(#clipPath73)" fill="none" x1="790" x2="1030" y1="670" y2="670" stroke="black"/>
            <polygon points=" 1030 670 1015 675 1015 665" clip-path="url(#clipPath81)" stroke="none"/>
            <polygon fill="none" stroke-dasharray="none" clip-path="url(#clipPath81)" points=" 1030 670 1015 675 1015 665" stroke="black"/>
        </g>
    </g>
</svg>
