<?xml version="1.0" encoding="UTF-8"?><svg xmlns="http://www.w3.org/2000/svg" xmlns:xlink="http://www.w3.org/1999/xlink" stroke-dasharray="none" shape-rendering="auto" font-family="'Dialog'" width="1240" text-rendering="auto" fill-opacity="1" contentScriptType="text/ecmascript" color-interpolation="auto" color-rendering="auto" preserveAspectRatio="xMidYMid meet" font-size="12px" viewBox="0 0 1240 1433" fill="black" stroke="black" image-rendering="auto" stroke-miterlimit="10" zoomAndPan="magnify" version="1.0" stroke-linecap="square" stroke-linejoin="miter" contentStyleType="text/css" font-style="normal" height="1433" stroke-width="1" stroke-dashoffset="0" font-weight="normal" stroke-opacity="1">
    <!--Generated by the Batik Graphics2D SVG Generator-->
    <defs id="genericDefs"/>
    <g>
        <defs id="defs1">
            <linearGradient x1="563" x2="563" y1="63" gradientUnits="userSpaceOnUse" y2="163" xlink:type="simple" xlink:actuate="onLoad" id="linearGradient1" xlink:show="other" spreadMethod="pad">
                <stop stop-opacity="1" stop-color="white" offset="0%"/>
                <stop stop-opacity="1" stop-color="rgb(195,215,221)" offset="100%"/>
            </linearGradient>
            <linearGradient x1="563" x2="563" y1="383" gradientUnits="userSpaceOnUse" y2="497" xlink:type="simple" xlink:actuate="onLoad" id="linearGradient2" xlink:show="other" spreadMethod="pad">
                <stop stop-opacity="1" stop-color="white" offset="0%"/>
                <stop stop-opacity="1" stop-color="rgb(195,215,221)" offset="100%"/>
            </linearGradient>
            <linearGradient x1="563" x2="563" y1="683" gradientUnits="userSpaceOnUse" y2="783" xlink:type="simple" xlink:actuate="onLoad" id="linearGradient3" xlink:show="other" spreadMethod="pad">
                <stop stop-opacity="1" stop-color="white" offset="0%"/>
                <stop stop-opacity="1" stop-color="rgb(195,215,221)" offset="100%"/>
            </linearGradient>
            <linearGradient x1="703" x2="703" y1="1006" gradientUnits="userSpaceOnUse" y2="1106" xlink:type="simple" xlink:actuate="onLoad" id="linearGradient4" xlink:show="other" spreadMethod="pad">
                <stop stop-opacity="1" stop-color="white" offset="0%"/>
                <stop stop-opacity="1" stop-color="rgb(195,215,221)" offset="100%"/>
            </linearGradient>
            <linearGradient x1="703" x2="703" y1="843" gradientUnits="userSpaceOnUse" y2="943" xlink:type="simple" xlink:actuate="onLoad" id="linearGradient5" xlink:show="other" spreadMethod="pad">
                <stop stop-opacity="1" stop-color="white" offset="0%"/>
                <stop stop-opacity="1" stop-color="rgb(195,215,221)" offset="100%"/>
            </linearGradient>
            <linearGradient x1="1023" x2="1023" y1="383" gradientUnits="userSpaceOnUse" y2="483" xlink:type="simple" xlink:actuate="onLoad" id="linearGradient6" xlink:show="other" spreadMethod="pad">
                <stop stop-opacity="1" stop-color="white" offset="0%"/>
                <stop stop-opacity="1" stop-color="rgb(195,215,221)" offset="100%"/>
            </linearGradient>
            <linearGradient x1="703" x2="703" y1="1163" gradientUnits="userSpaceOnUse" y2="1263" xlink:type="simple" xlink:actuate="onLoad" id="linearGradient7" xlink:show="other" spreadMethod="pad">
                <stop stop-opacity="1" stop-color="white" offset="0%"/>
                <stop stop-opacity="1" stop-color="rgb(195,215,221)" offset="100%"/>
            </linearGradient>
            <linearGradient x1="1023" x2="1023" y1="63" gradientUnits="userSpaceOnUse" y2="163" xlink:type="simple" xlink:actuate="onLoad" id="linearGradient8" xlink:show="other" spreadMethod="pad">
                <stop stop-opacity="1" stop-color="white" offset="0%"/>
                <stop stop-opacity="1" stop-color="rgb(147,151,221)" offset="100%"/>
            </linearGradient>
            <linearGradient x1="83" x2="83" y1="383" gradientUnits="userSpaceOnUse" y2="483" xlink:type="simple" xlink:actuate="onLoad" id="linearGradient9" xlink:show="other" spreadMethod="pad">
                <stop stop-opacity="1" stop-color="white" offset="0%"/>
                <stop stop-opacity="1" stop-color="rgb(195,215,221)" offset="100%"/>
            </linearGradient>
            <linearGradient x1="703" x2="703" y1="1323" gradientUnits="userSpaceOnUse" y2="1423" xlink:type="simple" xlink:actuate="onLoad" id="linearGradient10" xlink:show="other" spreadMethod="pad">
                <stop stop-opacity="1" stop-color="white" offset="0%"/>
                <stop stop-opacity="1" stop-color="rgb(195,215,221)" offset="100%"/>
            </linearGradient>
            <clipPath clipPathUnits="userSpaceOnUse" id="clipPath1">
                <path d="M563 63 L563 162 L763 162 L763 63 Z"/>
            </clipPath>
            <clipPath clipPathUnits="userSpaceOnUse" id="clipPath2">
                <path d="M629 65 L699 65 L699 82 L629 82 L629 65 Z"/>
            </clipPath>
            <clipPath clipPathUnits="userSpaceOnUse" id="clipPath3">
                <path d="M563 82 L765 82 L765 164 L563 164 L563 82 Z"/>
            </clipPath>
            <clipPath clipPathUnits="userSpaceOnUse" id="clipPath4">
                <path d="M562 62 L765 62 L765 164 L562 164 L562 62 Z"/>
            </clipPath>
            <clipPath clipPathUnits="userSpaceOnUse" id="clipPath5">
                <path d="M563 383 L563 496 L763 496 L763 383 Z"/>
            </clipPath>
            <clipPath clipPathUnits="userSpaceOnUse" id="clipPath6">
                <path d="M647 385 L681 385 L681 402 L647 402 L647 385 Z"/>
            </clipPath>
            <clipPath clipPathUnits="userSpaceOnUse" id="clipPath7">
                <path d="M568 404 L670 404 L670 421 L568 421 L568 404 Z"/>
            </clipPath>
            <clipPath clipPathUnits="userSpaceOnUse" id="clipPath8">
                <path d="M568 420 L667 420 L667 437 L568 437 L568 420 Z"/>
            </clipPath>
            <clipPath clipPathUnits="userSpaceOnUse" id="clipPath9">
                <path d="M568 436 L702 436 L702 453 L568 453 L568 436 Z"/>
            </clipPath>
            <clipPath clipPathUnits="userSpaceOnUse" id="clipPath10">
                <path d="M563 402 L765 402 L765 498 L563 498 L563 402 Z"/>
            </clipPath>
            <clipPath clipPathUnits="userSpaceOnUse" id="clipPath11">
                <path d="M562 382 L765 382 L765 498 L562 498 L562 382 Z"/>
            </clipPath>
            <clipPath clipPathUnits="userSpaceOnUse" id="clipPath12">
                <path d="M563 683 L563 782 L763 782 L763 683 Z"/>
            </clipPath>
            <clipPath clipPathUnits="userSpaceOnUse" id="clipPath13">
                <path d="M621 685 L707 685 L707 702 L621 702 L621 685 Z"/>
            </clipPath>
            <clipPath clipPathUnits="userSpaceOnUse" id="clipPath14">
                <path d="M563 702 L765 702 L765 784 L563 784 L563 702 Z"/>
            </clipPath>
            <clipPath clipPathUnits="userSpaceOnUse" id="clipPath15">
                <path d="M562 682 L765 682 L765 784 L562 784 L562 682 Z"/>
            </clipPath>
            <clipPath clipPathUnits="userSpaceOnUse" id="clipPath16">
                <path d="M703 1006 L703 1105 L903 1105 L903 1006 Z"/>
            </clipPath>
            <clipPath clipPathUnits="userSpaceOnUse" id="clipPath17">
                <path d="M765 1008 L844 1008 L844 1025 L765 1025 L765 1008 Z"/>
            </clipPath>
            <clipPath clipPathUnits="userSpaceOnUse" id="clipPath18">
                <path d="M703 1025 L905 1025 L905 1107 L703 1107 L703 1025 Z"/>
            </clipPath>
            <clipPath clipPathUnits="userSpaceOnUse" id="clipPath19">
                <path d="M702 1005 L905 1005 L905 1107 L702 1107 L702 1005 Z"/>
            </clipPath>
            <clipPath clipPathUnits="userSpaceOnUse" id="clipPath20">
                <path d="M703 843 L703 942 L903 942 L903 843 Z"/>
            </clipPath>
            <clipPath clipPathUnits="userSpaceOnUse" id="clipPath21">
                <path d="M766 845 L843 845 L843 862 L766 862 L766 845 Z"/>
            </clipPath>
            <clipPath clipPathUnits="userSpaceOnUse" id="clipPath22">
                <path d="M703 862 L905 862 L905 944 L703 944 L703 862 Z"/>
            </clipPath>
            <clipPath clipPathUnits="userSpaceOnUse" id="clipPath23">
                <path d="M702 842 L905 842 L905 944 L702 944 L702 842 Z"/>
            </clipPath>
            <clipPath clipPathUnits="userSpaceOnUse" id="clipPath24">
                <path d="M1023 383 L1023 482 L1223 482 L1223 383 Z"/>
            </clipPath>
            <clipPath clipPathUnits="userSpaceOnUse" id="clipPath25">
                <path d="M1075 385 L1173 385 L1173 402 L1075 402 L1075 385 Z"/>
            </clipPath>
            <clipPath clipPathUnits="userSpaceOnUse" id="clipPath26">
                <path d="M1023 402 L1225 402 L1225 484 L1023 484 L1023 402 Z"/>
            </clipPath>
            <clipPath clipPathUnits="userSpaceOnUse" id="clipPath27">
                <path d="M1022 382 L1225 382 L1225 484 L1022 484 L1022 382 Z"/>
            </clipPath>
            <clipPath clipPathUnits="userSpaceOnUse" id="clipPath28">
                <path d="M703 1163 L703 1262 L903 1262 L903 1163 Z"/>
            </clipPath>
            <clipPath clipPathUnits="userSpaceOnUse" id="clipPath29">
                <path d="M777 1165 L831 1165 L831 1182 L777 1182 L777 1165 Z"/>
            </clipPath>
            <clipPath clipPathUnits="userSpaceOnUse" id="clipPath30">
                <path d="M703 1182 L905 1182 L905 1264 L703 1264 L703 1182 Z"/>
            </clipPath>
            <clipPath clipPathUnits="userSpaceOnUse" id="clipPath31">
                <path d="M702 1162 L905 1162 L905 1264 L702 1264 L702 1162 Z"/>
            </clipPath>
            <clipPath clipPathUnits="userSpaceOnUse" id="clipPath32">
                <path d="M1023 63 L1023 162 L1223 162 L1223 63 Z"/>
            </clipPath>
            <clipPath clipPathUnits="userSpaceOnUse" id="clipPath33">
                <path d="M1093 65 L1156 65 L1156 82 L1093 82 L1093 65 Z"/>
            </clipPath>
            <clipPath clipPathUnits="userSpaceOnUse" id="clipPath34">
                <path d="M1087 81 L1161 81 L1161 98 L1087 98 L1087 81 Z"/>
            </clipPath>
            <clipPath clipPathUnits="userSpaceOnUse" id="clipPath35">
                <path d="M1023 98 L1225 98 L1225 164 L1023 164 L1023 98 Z"/>
            </clipPath>
            <clipPath clipPathUnits="userSpaceOnUse" id="clipPath36">
                <path d="M1022 62 L1225 62 L1225 164 L1022 164 L1022 62 Z"/>
            </clipPath>
            <clipPath clipPathUnits="userSpaceOnUse" id="clipPath37">
                <path d="M83 383 L83 482 L283 482 L283 383 Z"/>
            </clipPath>
            <clipPath clipPathUnits="userSpaceOnUse" id="clipPath38">
                <path d="M141 385 L228 385 L228 402 L141 402 L141 385 Z"/>
            </clipPath>
            <clipPath clipPathUnits="userSpaceOnUse" id="clipPath39">
                <path d="M83 402 L285 402 L285 484 L83 484 L83 402 Z"/>
            </clipPath>
            <clipPath clipPathUnits="userSpaceOnUse" id="clipPath40">
                <path d="M82 382 L285 382 L285 484 L82 484 L82 382 Z"/>
            </clipPath>
            <clipPath clipPathUnits="userSpaceOnUse" id="clipPath41">
                <path d="M703 1323 L703 1422 L903 1422 L903 1323 Z"/>
            </clipPath>
            <clipPath clipPathUnits="userSpaceOnUse" id="clipPath42">
                <path d="M772 1325 L837 1325 L837 1342 L772 1342 L772 1325 Z"/>
            </clipPath>
            <clipPath clipPathUnits="userSpaceOnUse" id="clipPath43">
                <path d="M703 1342 L905 1342 L905 1424 L703 1424 L703 1342 Z"/>
            </clipPath>
            <clipPath clipPathUnits="userSpaceOnUse" id="clipPath44">
                <path d="M702 1322 L905 1322 L905 1424 L702 1424 L702 1322 Z"/>
            </clipPath>
            <clipPath clipPathUnits="userSpaceOnUse" id="clipPath45">
                <path d="M-1 -1 L1241 -1 L1241 1434 L-1 1434 L-1 -1 Z"/>
            </clipPath>
            <clipPath clipPathUnits="userSpaceOnUse" id="clipPath46">
                <path d="M682 262 L758 262 L758 279 L682 279 L682 262 Z"/>
            </clipPath>
            <clipPath clipPathUnits="userSpaceOnUse" id="clipPath47">
                <path d="M637 188 L649 188 L649 205 L637 205 L637 188 Z"/>
            </clipPath>
            <clipPath clipPathUnits="userSpaceOnUse" id="clipPath48">
                <path d="M678 342 L689 342 L689 359 L678 359 L678 342 Z"/>
            </clipPath>
            <clipPath clipPathUnits="userSpaceOnUse" id="clipPath49">
                <path d="M682 569 L758 569 L758 586 L682 586 L682 569 Z"/>
            </clipPath>
            <clipPath clipPathUnits="userSpaceOnUse" id="clipPath50">
                <path d="M678 637 L689 637 L689 654 L678 654 L678 637 Z"/>
            </clipPath>
            <clipPath clipPathUnits="userSpaceOnUse" id="clipPath51">
                <path d="M637 528 L649 528 L649 545 L637 545 L637 528 Z"/>
            </clipPath>
            <clipPath clipPathUnits="userSpaceOnUse" id="clipPath52">
                <path d="M654 782 L673 782 L673 795 L654 795 L654 782 Z"/>
            </clipPath>
            <clipPath clipPathUnits="userSpaceOnUse" id="clipPath53">
                <path d="M835 417 L911 417 L911 434 L835 434 L835 417 Z"/>
            </clipPath>
            <clipPath clipPathUnits="userSpaceOnUse" id="clipPath54">
                <path d="M797 440 L809 440 L809 457 L797 457 L797 440 Z"/>
            </clipPath>
            <clipPath clipPathUnits="userSpaceOnUse" id="clipPath55">
                <path d="M978 395 L989 395 L989 412 L978 412 L978 395 Z"/>
            </clipPath>
            <clipPath clipPathUnits="userSpaceOnUse" id="clipPath56">
                <path d="M1142 262 L1218 262 L1218 279 L1142 279 L1142 262 Z"/>
            </clipPath>
            <clipPath clipPathUnits="userSpaceOnUse" id="clipPath57">
                <path d="M1117 162 L1130 162 L1130 180 L1117 180 L1117 162 Z"/>
            </clipPath>
            <clipPath clipPathUnits="userSpaceOnUse" id="clipPath58">
                <path d="M842 82 L918 82 L918 99 L842 99 L842 82 Z"/>
            </clipPath>
            <clipPath clipPathUnits="userSpaceOnUse" id="clipPath59">
                <path d="M1007 97 L1025 97 L1025 110 L1007 110 L1007 97 Z"/>
            </clipPath>
            <clipPath clipPathUnits="userSpaceOnUse" id="clipPath60">
                <path d="M365 418 L441 418 L441 435 L365 435 L365 418 Z"/>
            </clipPath>
            <clipPath clipPathUnits="userSpaceOnUse" id="clipPath61">
                <path d="M519 400 L531 400 L531 417 L519 417 L519 400 Z"/>
            </clipPath>
            <clipPath clipPathUnits="userSpaceOnUse" id="clipPath62">
                <path d="M318 435 L329 435 L329 452 L318 452 L318 435 Z"/>
            </clipPath>
        </defs>
        <g fill="url(#linearGradient1)" stroke-miterlimit="0" stroke-width="0" font-family="'Segoe UI'" stroke="url(#linearGradient1)" stroke-linejoin="round">
            <rect x="563" width="201" height="100" y="63" clip-path="url(#clipPath1)" stroke="none"/>
            <text x="630" y="79" clip-path="url(#clipPath2)" fill="rgb(169,169,169)" font-style="italic" stroke="none" xml:space="preserve">PolicyHolder</text>
        </g>
        <g stroke-linecap="butt" font-family="'Segoe UI'" stroke-width="1.1">
            <line y2="83" fill="none" x1="563" clip-path="url(#clipPath3)" x2="764" y1="83"/>
            <rect x="563" y="63" clip-path="url(#clipPath4)" fill="none" width="200" rx="0" ry="0" height="99"/>
            <rect x="563" y="383" clip-path="url(#clipPath5)" fill="url(#linearGradient2)" width="201" height="114" stroke="none"/>
            <text x="648" y="399" clip-path="url(#clipPath6)" fill="rgb(169,169,169)" font-style="italic" stroke="none" xml:space="preserve">Policy</text>
            <text x="569" xml:space="preserve" y="418" clip-path="url(#clipPath7)" stroke="none">  startDate: Date [1]</text>
            <text x="569" xml:space="preserve" y="434" clip-path="url(#clipPath8)" stroke="none">  endDate: Date [1]</text>
            <text x="569" xml:space="preserve" y="450" clip-path="url(#clipPath9)" stroke="none">  isCancelled: Boolean [1]</text>
            <line y2="403" fill="none" x1="563" clip-path="url(#clipPath10)" x2="764" y1="403"/>
            <rect x="563" y="383" clip-path="url(#clipPath11)" fill="none" width="200" rx="0" ry="0" height="113"/>
            <rect x="563" y="683" clip-path="url(#clipPath12)" fill="url(#linearGradient3)" width="201" height="100" stroke="none"/>
            <text x="622" y="699" clip-path="url(#clipPath13)" fill="rgb(169,169,169)" font-style="italic" stroke="none" xml:space="preserve">InsuranceCover</text>
            <line y2="703" fill="none" x1="563" clip-path="url(#clipPath14)" x2="764" y1="703"/>
            <rect x="563" y="683" clip-path="url(#clipPath15)" fill="none" width="200" rx="0" ry="0" height="99"/>
            <rect x="703" y="1006" clip-path="url(#clipPath16)" fill="url(#linearGradient4)" width="201" height="100" stroke="none"/>
            <text x="766" y="1022" clip-path="url(#clipPath17)" fill="rgb(169,169,169)" font-style="italic" stroke="none" xml:space="preserve">PropertyCover</text>
            <line y2="1026" fill="none" x1="703" clip-path="url(#clipPath18)" x2="904" y1="1026"/>
            <rect x="703" y="1006" clip-path="url(#clipPath19)" fill="none" width="200" rx="0" ry="0" height="99"/>
            <rect x="703" y="843" clip-path="url(#clipPath20)" fill="url(#linearGradient5)" width="201" height="100" stroke="none"/>
            <text x="767" y="859" clip-path="url(#clipPath21)" fill="rgb(169,169,169)" font-style="italic" stroke="none" xml:space="preserve">LiabilityCover</text>
            <line y2="863" fill="none" x1="703" clip-path="url(#clipPath22)" x2="904" y1="863"/>
            <rect x="703" y="843" clip-path="url(#clipPath23)" fill="none" width="200" rx="0" ry="0" height="99"/>
            <rect x="1023" y="383" clip-path="url(#clipPath24)" fill="url(#linearGradient6)" width="201" height="100" stroke="none"/>
            <text x="1076" y="399" clip-path="url(#clipPath25)" fill="rgb(169,169,169)" font-style="italic" stroke="none" xml:space="preserve">AdditionalInsured</text>
            <line y2="403" fill="none" x1="1023" clip-path="url(#clipPath26)" x2="1224" y1="403"/>
            <rect x="1023" y="383" clip-path="url(#clipPath27)" fill="none" width="200" rx="0" ry="0" height="99"/>
            <rect x="703" y="1163" clip-path="url(#clipPath28)" fill="url(#linearGradient7)" width="201" height="100" stroke="none"/>
            <text x="778" y="1179" clip-path="url(#clipPath29)" fill="rgb(169,169,169)" font-style="italic" stroke="none" xml:space="preserve">LifeCover</text>
            <line y2="1183" fill="none" x1="703" clip-path="url(#clipPath30)" x2="904" y1="1183"/>
            <rect x="703" y="1163" clip-path="url(#clipPath31)" fill="none" width="200" rx="0" ry="0" height="99"/>
            <rect x="1023" y="63" clip-path="url(#clipPath32)" fill="url(#linearGradient8)" width="201" height="100" stroke="none"/>
            <text x="1094" y="79" clip-path="url(#clipPath33)" fill="rgb(169,169,169)" font-style="italic" stroke="none" xml:space="preserve">«Interface»</text>
            <text x="1088" y="95" clip-path="url(#clipPath34)" fill="rgb(169,169,169)" font-style="italic" stroke="none" xml:space="preserve">IInsuredParty</text>
            <line y2="99" fill="none" x1="1023" clip-path="url(#clipPath35)" x2="1224" y1="99"/>
            <rect x="1023" y="63" clip-path="url(#clipPath36)" fill="none" width="200" rx="0" ry="0" height="99"/>
            <rect x="83" y="383" clip-path="url(#clipPath37)" fill="url(#linearGradient9)" width="201" height="100" stroke="none"/>
            <text x="142" y="399" clip-path="url(#clipPath38)" fill="rgb(169,169,169)" font-style="italic" stroke="none" xml:space="preserve">InsuredProperty</text>
            <line y2="403" fill="none" x1="83" clip-path="url(#clipPath39)" x2="284" y1="403"/>
            <rect x="83" y="383" clip-path="url(#clipPath40)" fill="none" width="200" rx="0" ry="0" height="99"/>
            <rect x="703" y="1323" clip-path="url(#clipPath41)" fill="url(#linearGradient10)" width="201" height="100" stroke="none"/>
            <text x="773" y="1339" clip-path="url(#clipPath42)" fill="rgb(169,169,169)" font-style="italic" stroke="none" xml:space="preserve">EventCover</text>
            <line y2="1343" fill="none" x1="703" clip-path="url(#clipPath43)" x2="904" y1="1343"/>
            <rect x="703" y="1323" clip-path="url(#clipPath44)" fill="none" width="200" rx="0" ry="0" height="99"/>
            <line clip-path="url(#clipPath45)" fill="none" text-rendering="optimizeLegibility" x1="663" x2="663" y1="163" y2="383"/>
            <text text-rendering="optimizeLegibility" x="683" xml:space="preserve" y="276" clip-path="url(#clipPath46)" stroke="none">«Conceptual»</text>
            <text text-rendering="optimizeLegibility" x="638" xml:space="preserve" y="202" clip-path="url(#clipPath47)" stroke="none"> 1</text>
            <text text-rendering="optimizeLegibility" x="679" xml:space="preserve" y="356" clip-path="url(#clipPath48)" stroke="none"> *</text>
            <line clip-path="url(#clipPath45)" fill="none" text-rendering="optimizeLegibility" x1="663" x2="663" y1="683" y2="497"/>
            <text text-rendering="optimizeLegibility" x="683" xml:space="preserve" y="583" clip-path="url(#clipPath49)" stroke="none">«Conceptual»</text>
            <text text-rendering="optimizeLegibility" x="679" xml:space="preserve" y="651" clip-path="url(#clipPath50)" stroke="none"> *</text>
            <text text-rendering="optimizeLegibility" x="638" xml:space="preserve" y="542" clip-path="url(#clipPath51)" stroke="none"> 1</text>
            <line clip-path="url(#clipPath45)" fill="none" text-rendering="optimizeLegibility" x1="703" x2="663" y1="1043" y2="1043"/>
            <line clip-path="url(#clipPath45)" fill="none" text-rendering="optimizeLegibility" x1="663" x2="663" y1="1043" y2="783"/>
            <polygon fill="white" text-rendering="optimizeLegibility" clip-path="url(#clipPath52)" points=" 663 783 671 793 655 793" stroke="none"/>
            <polygon fill="none" text-rendering="optimizeLegibility" clip-path="url(#clipPath52)" points=" 663 783 671 793 655 793"/>
            <line clip-path="url(#clipPath45)" fill="none" text-rendering="optimizeLegibility" x1="703" x2="663" y1="883" y2="883"/>
            <line clip-path="url(#clipPath45)" fill="none" text-rendering="optimizeLegibility" x1="663" x2="663" y1="883" y2="783"/>
            <polygon fill="white" text-rendering="optimizeLegibility" clip-path="url(#clipPath52)" points=" 663 783 671 793 655 793" stroke="none"/>
            <polygon fill="none" text-rendering="optimizeLegibility" clip-path="url(#clipPath52)" points=" 663 783 671 793 655 793"/>
            <line clip-path="url(#clipPath45)" fill="none" text-rendering="optimizeLegibility" x1="764" x2="893" y1="428" y2="428"/>
            <line clip-path="url(#clipPath45)" fill="none" text-rendering="optimizeLegibility" x1="893" x2="893" y1="428" y2="423"/>
            <line clip-path="url(#clipPath45)" fill="none" text-rendering="optimizeLegibility" x1="893" x2="1023" y1="423" y2="423"/>
            <text text-rendering="optimizeLegibility" x="836" xml:space="preserve" y="431" clip-path="url(#clipPath53)" stroke="none">«Conceptual»</text>
            <text text-rendering="optimizeLegibility" x="798" xml:space="preserve" y="454" clip-path="url(#clipPath54)" stroke="none"> 1</text>
            <text text-rendering="optimizeLegibility" x="979" xml:space="preserve" y="409" clip-path="url(#clipPath55)" stroke="none"> *</text>
            <line clip-path="url(#clipPath45)" fill="none" text-rendering="optimizeLegibility" x1="703" x2="663" y1="1203" y2="1203"/>
            <line clip-path="url(#clipPath45)" fill="none" text-rendering="optimizeLegibility" x1="663" x2="663" y1="1203" y2="783"/>
            <polygon fill="white" text-rendering="optimizeLegibility" clip-path="url(#clipPath52)" points=" 663 783 671 793 655 793" stroke="none"/>
            <polygon fill="none" text-rendering="optimizeLegibility" clip-path="url(#clipPath52)" points=" 663 783 671 793 655 793"/>
            <line clip-path="url(#clipPath45)" fill="none" text-rendering="optimizeLegibility" x1="1123" x2="1123" y1="383" y2="163" stroke-dasharray="5,5,5,5,5,5,5,5,5,5"/>
            <text x="1143" y="276" clip-path="url(#clipPath56)" text-rendering="optimizeLegibility" stroke-dasharray="5,5,5,5,5,5,5,5,5,5" stroke="none" xml:space="preserve">«Conceptual»</text>
        </g>
        <g stroke-linecap="butt" fill="white" text-rendering="optimizeLegibility" font-family="'Segoe UI'" stroke-dasharray="5,5,5,5,5,5,5,5,5,5" stroke="white" stroke-width="1.1">
            <polygon points=" 1123 163 1128 178 1118 178" stroke="none" clip-path="url(#clipPath57)"/>
            <polygon fill="none" stroke-dasharray="none" clip-path="url(#clipPath57)" points=" 1123 163 1128 178 1118 178" stroke="black"/>
            <line clip-path="url(#clipPath45)" fill="none" x1="764" x2="1023" y1="103" y2="103" stroke="black"/>
            <text fill="black" x="843" xml:space="preserve" y="96" clip-path="url(#clipPath58)" stroke="none">«Conceptual»</text>
            <polygon points=" 1023 103 1008 108 1008 98" clip-path="url(#clipPath59)" stroke="none"/>
            <polygon fill="none" stroke-dasharray="none" clip-path="url(#clipPath59)" points=" 1023 103 1008 108 1008 98" stroke="black"/>
            <line clip-path="url(#clipPath45)" fill="none" x1="563" x2="423" y1="428" y2="428" stroke-dasharray="none" stroke="black"/>
            <line clip-path="url(#clipPath45)" fill="none" x1="423" x2="423" y1="428" y2="423" stroke-dasharray="none" stroke="black"/>
            <line clip-path="url(#clipPath45)" fill="none" x1="423" x2="284" y1="423" y2="423" stroke-dasharray="none" stroke="black"/>
            <text x="366" y="432" clip-path="url(#clipPath60)" fill="black" stroke-dasharray="none" stroke="none" xml:space="preserve">«Conceptual»</text>
            <text x="520" y="414" clip-path="url(#clipPath61)" fill="black" stroke-dasharray="none" stroke="none" xml:space="preserve"> 1</text>
            <text x="319" y="449" clip-path="url(#clipPath62)" fill="black" stroke-dasharray="none" stroke="none" xml:space="preserve"> *</text>
            <line clip-path="url(#clipPath45)" fill="none" x1="703" x2="663" y1="1363" y2="1363" stroke-dasharray="none" stroke="black"/>
            <line clip-path="url(#clipPath45)" fill="none" x1="663" x2="663" y1="1363" y2="783" stroke-dasharray="none" stroke="black"/>
            <polygon stroke-dasharray="none" clip-path="url(#clipPath52)" points=" 663 783 671 793 655 793" stroke="none"/>
            <polygon fill="none" stroke-dasharray="none" clip-path="url(#clipPath52)" points=" 663 783 671 793 655 793" stroke="black"/>
        </g>
    </g>
</svg>
