<?xml version="1.0" encoding="UTF-8"?><svg xmlns="http://www.w3.org/2000/svg" xmlns:xlink="http://www.w3.org/1999/xlink" stroke-dasharray="none" shape-rendering="auto" font-family="'Dialog'" width="1234" text-rendering="auto" fill-opacity="1" contentScriptType="text/ecmascript" color-interpolation="auto" color-rendering="auto" preserveAspectRatio="xMidYMid meet" font-size="12px" viewBox="0 0 1234 1620" fill="black" stroke="black" image-rendering="auto" stroke-miterlimit="10" zoomAndPan="magnify" version="1.0" stroke-linecap="square" stroke-linejoin="miter" contentStyleType="text/css" font-style="normal" height="1620" stroke-width="1" stroke-dashoffset="0" font-weight="normal" stroke-opacity="1">
    <!--Generated by the Batik Graphics2D SVG Generator-->
    <defs id="genericDefs"/>
    <g>
        <defs id="defs1">
            <linearGradient x1="563" x2="563" y1="250" gradientUnits="userSpaceOnUse" y2="350" xlink:type="simple" xlink:actuate="onLoad" id="linearGradient1" xlink:show="other" spreadMethod="pad">
                <stop stop-opacity="1" stop-color="white" offset="0%"/>
                <stop stop-opacity="1" stop-color="rgb(195,215,221)" offset="100%"/>
            </linearGradient>
            <linearGradient x1="563" x2="563" y1="570" gradientUnits="userSpaceOnUse" y2="684" xlink:type="simple" xlink:actuate="onLoad" id="linearGradient2" xlink:show="other" spreadMethod="pad">
                <stop stop-opacity="1" stop-color="white" offset="0%"/>
                <stop stop-opacity="1" stop-color="rgb(195,215,221)" offset="100%"/>
            </linearGradient>
            <linearGradient x1="563" x2="563" y1="870" gradientUnits="userSpaceOnUse" y2="970" xlink:type="simple" xlink:actuate="onLoad" id="linearGradient3" xlink:show="other" spreadMethod="pad">
                <stop stop-opacity="1" stop-color="white" offset="0%"/>
                <stop stop-opacity="1" stop-color="rgb(195,215,221)" offset="100%"/>
            </linearGradient>
            <linearGradient x1="703" x2="703" y1="1193" gradientUnits="userSpaceOnUse" y2="1293" xlink:type="simple" xlink:actuate="onLoad" id="linearGradient4" xlink:show="other" spreadMethod="pad">
                <stop stop-opacity="1" stop-color="white" offset="0%"/>
                <stop stop-opacity="1" stop-color="rgb(195,215,221)" offset="100%"/>
            </linearGradient>
            <linearGradient x1="703" x2="703" y1="1030" gradientUnits="userSpaceOnUse" y2="1130" xlink:type="simple" xlink:actuate="onLoad" id="linearGradient5" xlink:show="other" spreadMethod="pad">
                <stop stop-opacity="1" stop-color="white" offset="0%"/>
                <stop stop-opacity="1" stop-color="rgb(195,215,221)" offset="100%"/>
            </linearGradient>
            <linearGradient x1="1023" x2="1023" y1="570" gradientUnits="userSpaceOnUse" y2="670" xlink:type="simple" xlink:actuate="onLoad" id="linearGradient6" xlink:show="other" spreadMethod="pad">
                <stop stop-opacity="1" stop-color="white" offset="0%"/>
                <stop stop-opacity="1" stop-color="rgb(195,215,221)" offset="100%"/>
            </linearGradient>
            <linearGradient x1="703" x2="703" y1="1350" gradientUnits="userSpaceOnUse" y2="1450" xlink:type="simple" xlink:actuate="onLoad" id="linearGradient7" xlink:show="other" spreadMethod="pad">
                <stop stop-opacity="1" stop-color="white" offset="0%"/>
                <stop stop-opacity="1" stop-color="rgb(195,215,221)" offset="100%"/>
            </linearGradient>
            <linearGradient x1="1023" x2="1023" y1="250" gradientUnits="userSpaceOnUse" y2="350" xlink:type="simple" xlink:actuate="onLoad" id="linearGradient8" xlink:show="other" spreadMethod="pad">
                <stop stop-opacity="1" stop-color="white" offset="0%"/>
                <stop stop-opacity="1" stop-color="rgb(147,151,221)" offset="100%"/>
            </linearGradient>
            <linearGradient x1="83" x2="83" y1="570" gradientUnits="userSpaceOnUse" y2="670" xlink:type="simple" xlink:actuate="onLoad" id="linearGradient9" xlink:show="other" spreadMethod="pad">
                <stop stop-opacity="1" stop-color="white" offset="0%"/>
                <stop stop-opacity="1" stop-color="rgb(195,215,221)" offset="100%"/>
            </linearGradient>
            <linearGradient x1="703" x2="703" y1="1510" gradientUnits="userSpaceOnUse" y2="1610" xlink:type="simple" xlink:actuate="onLoad" id="linearGradient10" xlink:show="other" spreadMethod="pad">
                <stop stop-opacity="1" stop-color="white" offset="0%"/>
                <stop stop-opacity="1" stop-color="rgb(195,215,221)" offset="100%"/>
            </linearGradient>
            <linearGradient x1="1023" x2="1023" y1="10" gradientUnits="userSpaceOnUse" y2="110" xlink:type="simple" xlink:actuate="onLoad" id="linearGradient11" xlink:show="other" spreadMethod="pad">
                <stop stop-opacity="1" stop-color="white" offset="0%"/>
                <stop stop-opacity="1" stop-color="rgb(131,135,205)" offset="100%"/>
            </linearGradient>
            <clipPath clipPathUnits="userSpaceOnUse" id="clipPath1">
                <path d="M563 250 L563 349 L763 349 L763 250 Z"/>
            </clipPath>
            <clipPath clipPathUnits="userSpaceOnUse" id="clipPath2">
                <path d="M629 252 L699 252 L699 269 L629 269 L629 252 Z"/>
            </clipPath>
            <clipPath clipPathUnits="userSpaceOnUse" id="clipPath3">
                <path d="M563 269 L765 269 L765 351 L563 351 L563 269 Z"/>
            </clipPath>
            <clipPath clipPathUnits="userSpaceOnUse" id="clipPath4">
                <path d="M562 249 L765 249 L765 351 L562 351 L562 249 Z"/>
            </clipPath>
            <clipPath clipPathUnits="userSpaceOnUse" id="clipPath5">
                <path d="M563 570 L563 683 L763 683 L763 570 Z"/>
            </clipPath>
            <clipPath clipPathUnits="userSpaceOnUse" id="clipPath6">
                <path d="M647 572 L681 572 L681 589 L647 589 L647 572 Z"/>
            </clipPath>
            <clipPath clipPathUnits="userSpaceOnUse" id="clipPath7">
                <path d="M568 591 L670 591 L670 608 L568 608 L568 591 Z"/>
            </clipPath>
            <clipPath clipPathUnits="userSpaceOnUse" id="clipPath8">
                <path d="M568 607 L667 607 L667 624 L568 624 L568 607 Z"/>
            </clipPath>
            <clipPath clipPathUnits="userSpaceOnUse" id="clipPath9">
                <path d="M568 623 L702 623 L702 640 L568 640 L568 623 Z"/>
            </clipPath>
            <clipPath clipPathUnits="userSpaceOnUse" id="clipPath10">
                <path d="M563 589 L765 589 L765 685 L563 685 L563 589 Z"/>
            </clipPath>
            <clipPath clipPathUnits="userSpaceOnUse" id="clipPath11">
                <path d="M562 569 L765 569 L765 685 L562 685 L562 569 Z"/>
            </clipPath>
            <clipPath clipPathUnits="userSpaceOnUse" id="clipPath12">
                <path d="M563 870 L563 969 L763 969 L763 870 Z"/>
            </clipPath>
            <clipPath clipPathUnits="userSpaceOnUse" id="clipPath13">
                <path d="M646 872 L682 872 L682 889 L646 889 L646 872 Z"/>
            </clipPath>
            <clipPath clipPathUnits="userSpaceOnUse" id="clipPath14">
                <path d="M563 889 L765 889 L765 971 L563 971 L563 889 Z"/>
            </clipPath>
            <clipPath clipPathUnits="userSpaceOnUse" id="clipPath15">
                <path d="M562 869 L765 869 L765 971 L562 971 L562 869 Z"/>
            </clipPath>
            <clipPath clipPathUnits="userSpaceOnUse" id="clipPath16">
                <path d="M703 1193 L703 1292 L903 1292 L903 1193 Z"/>
            </clipPath>
            <clipPath clipPathUnits="userSpaceOnUse" id="clipPath17">
                <path d="M765 1195 L844 1195 L844 1212 L765 1212 L765 1195 Z"/>
            </clipPath>
            <clipPath clipPathUnits="userSpaceOnUse" id="clipPath18">
                <path d="M703 1212 L905 1212 L905 1294 L703 1294 L703 1212 Z"/>
            </clipPath>
            <clipPath clipPathUnits="userSpaceOnUse" id="clipPath19">
                <path d="M702 1192 L905 1192 L905 1294 L702 1294 L702 1192 Z"/>
            </clipPath>
            <clipPath clipPathUnits="userSpaceOnUse" id="clipPath20">
                <path d="M703 1030 L703 1129 L903 1129 L903 1030 Z"/>
            </clipPath>
            <clipPath clipPathUnits="userSpaceOnUse" id="clipPath21">
                <path d="M766 1032 L843 1032 L843 1049 L766 1049 L766 1032 Z"/>
            </clipPath>
            <clipPath clipPathUnits="userSpaceOnUse" id="clipPath22">
                <path d="M703 1049 L905 1049 L905 1131 L703 1131 L703 1049 Z"/>
            </clipPath>
            <clipPath clipPathUnits="userSpaceOnUse" id="clipPath23">
                <path d="M702 1029 L905 1029 L905 1131 L702 1131 L702 1029 Z"/>
            </clipPath>
            <clipPath clipPathUnits="userSpaceOnUse" id="clipPath24">
                <path d="M1023 570 L1023 669 L1223 669 L1223 570 Z"/>
            </clipPath>
            <clipPath clipPathUnits="userSpaceOnUse" id="clipPath25">
                <path d="M1075 572 L1173 572 L1173 589 L1075 589 L1075 572 Z"/>
            </clipPath>
            <clipPath clipPathUnits="userSpaceOnUse" id="clipPath26">
                <path d="M1023 589 L1225 589 L1225 671 L1023 671 L1023 589 Z"/>
            </clipPath>
            <clipPath clipPathUnits="userSpaceOnUse" id="clipPath27">
                <path d="M1022 569 L1225 569 L1225 671 L1022 671 L1022 569 Z"/>
            </clipPath>
            <clipPath clipPathUnits="userSpaceOnUse" id="clipPath28">
                <path d="M703 1350 L703 1449 L903 1449 L903 1350 Z"/>
            </clipPath>
            <clipPath clipPathUnits="userSpaceOnUse" id="clipPath29">
                <path d="M777 1352 L831 1352 L831 1369 L777 1369 L777 1352 Z"/>
            </clipPath>
            <clipPath clipPathUnits="userSpaceOnUse" id="clipPath30">
                <path d="M703 1369 L905 1369 L905 1451 L703 1451 L703 1369 Z"/>
            </clipPath>
            <clipPath clipPathUnits="userSpaceOnUse" id="clipPath31">
                <path d="M702 1349 L905 1349 L905 1451 L702 1451 L702 1349 Z"/>
            </clipPath>
            <clipPath clipPathUnits="userSpaceOnUse" id="clipPath32">
                <path d="M1023 250 L1023 349 L1223 349 L1223 250 Z"/>
            </clipPath>
            <clipPath clipPathUnits="userSpaceOnUse" id="clipPath33">
                <path d="M1093 252 L1156 252 L1156 269 L1093 269 L1093 252 Z"/>
            </clipPath>
            <clipPath clipPathUnits="userSpaceOnUse" id="clipPath34">
                <path d="M1087 268 L1161 268 L1161 285 L1087 285 L1087 268 Z"/>
            </clipPath>
            <clipPath clipPathUnits="userSpaceOnUse" id="clipPath35">
                <path d="M1023 285 L1225 285 L1225 351 L1023 351 L1023 285 Z"/>
            </clipPath>
            <clipPath clipPathUnits="userSpaceOnUse" id="clipPath36">
                <path d="M1022 249 L1225 249 L1225 351 L1022 351 L1022 249 Z"/>
            </clipPath>
            <clipPath clipPathUnits="userSpaceOnUse" id="clipPath37">
                <path d="M83 570 L83 669 L283 669 L283 570 Z"/>
            </clipPath>
            <clipPath clipPathUnits="userSpaceOnUse" id="clipPath38">
                <path d="M141 572 L228 572 L228 589 L141 589 L141 572 Z"/>
            </clipPath>
            <clipPath clipPathUnits="userSpaceOnUse" id="clipPath39">
                <path d="M83 589 L285 589 L285 671 L83 671 L83 589 Z"/>
            </clipPath>
            <clipPath clipPathUnits="userSpaceOnUse" id="clipPath40">
                <path d="M82 569 L285 569 L285 671 L82 671 L82 569 Z"/>
            </clipPath>
            <clipPath clipPathUnits="userSpaceOnUse" id="clipPath41">
                <path d="M703 1510 L703 1609 L903 1609 L903 1510 Z"/>
            </clipPath>
            <clipPath clipPathUnits="userSpaceOnUse" id="clipPath42">
                <path d="M772 1512 L837 1512 L837 1529 L772 1529 L772 1512 Z"/>
            </clipPath>
            <clipPath clipPathUnits="userSpaceOnUse" id="clipPath43">
                <path d="M703 1529 L905 1529 L905 1611 L703 1611 L703 1529 Z"/>
            </clipPath>
            <clipPath clipPathUnits="userSpaceOnUse" id="clipPath44">
                <path d="M702 1509 L905 1509 L905 1611 L702 1611 L702 1509 Z"/>
            </clipPath>
            <clipPath clipPathUnits="userSpaceOnUse" id="clipPath45">
                <path d="M1023 10 L1023 109 L1223 109 L1223 10 Z"/>
            </clipPath>
            <clipPath clipPathUnits="userSpaceOnUse" id="clipPath46">
                <path d="M1094 12 L1155 12 L1155 29 L1094 29 L1094 12 Z"/>
            </clipPath>
            <clipPath clipPathUnits="userSpaceOnUse" id="clipPath47">
                <path d="M1108 28 L1140 28 L1140 45 L1108 45 L1108 28 Z"/>
            </clipPath>
            <clipPath clipPathUnits="userSpaceOnUse" id="clipPath48">
                <path d="M1028 47 L1196 47 L1196 64 L1028 64 L1028 47 Z"/>
            </clipPath>
            <clipPath clipPathUnits="userSpaceOnUse" id="clipPath49">
                <path d="M1023 45 L1225 45 L1225 111 L1023 111 L1023 45 Z"/>
            </clipPath>
            <clipPath clipPathUnits="userSpaceOnUse" id="clipPath50">
                <path d="M1022 9 L1225 9 L1225 111 L1022 111 L1022 9 Z"/>
            </clipPath>
            <clipPath clipPathUnits="userSpaceOnUse" id="clipPath51">
                <path d="M-1 -1 L1235 -1 L1235 1621 L-1 1621 L-1 -1 Z"/>
            </clipPath>
            <clipPath clipPathUnits="userSpaceOnUse" id="clipPath52">
                <path d="M682 449 L758 449 L758 466 L682 466 L682 449 Z"/>
            </clipPath>
            <clipPath clipPathUnits="userSpaceOnUse" id="clipPath53">
                <path d="M637 375 L649 375 L649 392 L637 392 L637 375 Z"/>
            </clipPath>
            <clipPath clipPathUnits="userSpaceOnUse" id="clipPath54">
                <path d="M678 529 L689 529 L689 546 L678 546 L678 529 Z"/>
            </clipPath>
            <clipPath clipPathUnits="userSpaceOnUse" id="clipPath55">
                <path d="M682 756 L758 756 L758 773 L682 773 L682 756 Z"/>
            </clipPath>
            <clipPath clipPathUnits="userSpaceOnUse" id="clipPath56">
                <path d="M678 824 L689 824 L689 841 L678 841 L678 824 Z"/>
            </clipPath>
            <clipPath clipPathUnits="userSpaceOnUse" id="clipPath57">
                <path d="M637 715 L649 715 L649 732 L637 732 L637 715 Z"/>
            </clipPath>
            <clipPath clipPathUnits="userSpaceOnUse" id="clipPath58">
                <path d="M654 969 L673 969 L673 982 L654 982 L654 969 Z"/>
            </clipPath>
            <clipPath clipPathUnits="userSpaceOnUse" id="clipPath59">
                <path d="M835 604 L911 604 L911 621 L835 621 L835 604 Z"/>
            </clipPath>
            <clipPath clipPathUnits="userSpaceOnUse" id="clipPath60">
                <path d="M797 627 L809 627 L809 644 L797 644 L797 627 Z"/>
            </clipPath>
            <clipPath clipPathUnits="userSpaceOnUse" id="clipPath61">
                <path d="M978 582 L989 582 L989 599 L978 599 L978 582 Z"/>
            </clipPath>
            <clipPath clipPathUnits="userSpaceOnUse" id="clipPath62">
                <path d="M1117 349 L1130 349 L1130 367 L1117 367 L1117 349 Z"/>
            </clipPath>
            <clipPath clipPathUnits="userSpaceOnUse" id="clipPath63">
                <path d="M1007 284 L1025 284 L1025 297 L1007 297 L1007 284 Z"/>
            </clipPath>
            <clipPath clipPathUnits="userSpaceOnUse" id="clipPath64">
                <path d="M365 605 L441 605 L441 622 L365 622 L365 605 Z"/>
            </clipPath>
            <clipPath clipPathUnits="userSpaceOnUse" id="clipPath65">
                <path d="M519 587 L531 587 L531 604 L519 604 L519 587 Z"/>
            </clipPath>
            <clipPath clipPathUnits="userSpaceOnUse" id="clipPath66">
                <path d="M318 622 L329 622 L329 639 L318 639 L318 622 Z"/>
            </clipPath>
            <clipPath clipPathUnits="userSpaceOnUse" id="clipPath67">
                <path d="M1114 109 L1133 109 L1133 122 L1114 122 L1114 109 Z"/>
            </clipPath>
        </defs>
        <g fill="url(#linearGradient1)" stroke-miterlimit="0" stroke-width="0" font-family="'Segoe UI'" stroke="url(#linearGradient1)" stroke-linejoin="round">
            <rect x="563" width="201" height="100" y="250" clip-path="url(#clipPath1)" stroke="none"/>
            <text x="630" y="266" clip-path="url(#clipPath2)" fill="rgb(169,169,169)" font-style="italic" stroke="none" xml:space="preserve">PolicyHolder</text>
        </g>
        <g stroke-linecap="butt" font-family="'Segoe UI'" stroke-width="1.1">
            <line y2="270" fill="none" x1="563" clip-path="url(#clipPath3)" x2="764" y1="270"/>
            <rect x="563" y="250" clip-path="url(#clipPath4)" fill="none" width="200" rx="0" ry="0" height="99"/>
            <rect x="563" y="570" clip-path="url(#clipPath5)" fill="url(#linearGradient2)" width="201" height="114" stroke="none"/>
            <text x="648" y="586" clip-path="url(#clipPath6)" fill="rgb(169,169,169)" font-style="italic" stroke="none" xml:space="preserve">Policy</text>
            <text x="569" xml:space="preserve" y="605" clip-path="url(#clipPath7)" stroke="none">  startDate: Date [1]</text>
            <text x="569" xml:space="preserve" y="621" clip-path="url(#clipPath8)" stroke="none">  endDate: Date [1]</text>
            <text x="569" xml:space="preserve" y="637" clip-path="url(#clipPath9)" stroke="none">  isCancelled: Boolean [1]</text>
            <line y2="590" fill="none" x1="563" clip-path="url(#clipPath10)" x2="764" y1="590"/>
            <rect x="563" y="570" clip-path="url(#clipPath11)" fill="none" width="200" rx="0" ry="0" height="113"/>
            <rect x="563" y="870" clip-path="url(#clipPath12)" fill="url(#linearGradient3)" width="201" height="100" stroke="none"/>
            <text x="647" y="886" clip-path="url(#clipPath13)" fill="rgb(169,169,169)" font-style="italic" stroke="none" xml:space="preserve">Cover</text>
            <line y2="890" fill="none" x1="563" clip-path="url(#clipPath14)" x2="764" y1="890"/>
            <rect x="563" y="870" clip-path="url(#clipPath15)" fill="none" width="200" rx="0" ry="0" height="99"/>
            <rect x="703" y="1193" clip-path="url(#clipPath16)" fill="url(#linearGradient4)" width="201" height="100" stroke="none"/>
            <text x="766" y="1209" clip-path="url(#clipPath17)" fill="rgb(169,169,169)" font-style="italic" stroke="none" xml:space="preserve">PropertyCover</text>
            <line y2="1213" fill="none" x1="703" clip-path="url(#clipPath18)" x2="904" y1="1213"/>
            <rect x="703" y="1193" clip-path="url(#clipPath19)" fill="none" width="200" rx="0" ry="0" height="99"/>
            <rect x="703" y="1030" clip-path="url(#clipPath20)" fill="url(#linearGradient5)" width="201" height="100" stroke="none"/>
            <text x="767" y="1046" clip-path="url(#clipPath21)" fill="rgb(169,169,169)" font-style="italic" stroke="none" xml:space="preserve">LiabilityCover</text>
            <line y2="1050" fill="none" x1="703" clip-path="url(#clipPath22)" x2="904" y1="1050"/>
            <rect x="703" y="1030" clip-path="url(#clipPath23)" fill="none" width="200" rx="0" ry="0" height="99"/>
            <rect x="1023" y="570" clip-path="url(#clipPath24)" fill="url(#linearGradient6)" width="201" height="100" stroke="none"/>
            <text x="1076" y="586" clip-path="url(#clipPath25)" fill="rgb(169,169,169)" font-style="italic" stroke="none" xml:space="preserve">AdditionalInsured</text>
            <line y2="590" fill="none" x1="1023" clip-path="url(#clipPath26)" x2="1224" y1="590"/>
            <rect x="1023" y="570" clip-path="url(#clipPath27)" fill="none" width="200" rx="0" ry="0" height="99"/>
            <rect x="703" y="1350" clip-path="url(#clipPath28)" fill="url(#linearGradient7)" width="201" height="100" stroke="none"/>
            <text x="778" y="1366" clip-path="url(#clipPath29)" fill="rgb(169,169,169)" font-style="italic" stroke="none" xml:space="preserve">LifeCover</text>
            <line y2="1370" fill="none" x1="703" clip-path="url(#clipPath30)" x2="904" y1="1370"/>
            <rect x="703" y="1350" clip-path="url(#clipPath31)" fill="none" width="200" rx="0" ry="0" height="99"/>
            <rect x="1023" y="250" clip-path="url(#clipPath32)" fill="url(#linearGradient8)" width="201" height="100" stroke="none"/>
            <text x="1094" y="266" clip-path="url(#clipPath33)" fill="rgb(169,169,169)" font-style="italic" stroke="none" xml:space="preserve">«Interface»</text>
            <text x="1088" y="282" clip-path="url(#clipPath34)" fill="rgb(169,169,169)" font-style="italic" stroke="none" xml:space="preserve">IInsuredParty</text>
            <line y2="286" fill="none" x1="1023" clip-path="url(#clipPath35)" x2="1224" y1="286"/>
            <rect x="1023" y="250" clip-path="url(#clipPath36)" fill="none" width="200" rx="0" ry="0" height="99"/>
            <rect x="83" y="570" clip-path="url(#clipPath37)" fill="url(#linearGradient9)" width="201" height="100" stroke="none"/>
            <text x="142" y="586" clip-path="url(#clipPath38)" fill="rgb(169,169,169)" font-style="italic" stroke="none" xml:space="preserve">InsurableObject</text>
            <line y2="590" fill="none" x1="83" clip-path="url(#clipPath39)" x2="284" y1="590"/>
            <rect x="83" y="570" clip-path="url(#clipPath40)" fill="none" width="200" rx="0" ry="0" height="99"/>
            <rect x="703" y="1510" clip-path="url(#clipPath41)" fill="url(#linearGradient10)" width="201" height="100" stroke="none"/>
            <text x="773" y="1526" clip-path="url(#clipPath42)" fill="rgb(169,169,169)" font-style="italic" stroke="none" xml:space="preserve">EventCover</text>
            <line y2="1530" fill="none" x1="703" clip-path="url(#clipPath43)" x2="904" y1="1530"/>
            <rect x="703" y="1510" clip-path="url(#clipPath44)" fill="none" width="200" rx="0" ry="0" height="99"/>
            <rect x="1023" y="10" clip-path="url(#clipPath45)" fill="url(#linearGradient11)" width="201" height="100" stroke="none"/>
            <text x="1095" xml:space="preserve" y="26" clip-path="url(#clipPath46)" stroke="none">«Interface»</text>
            <text x="1109" xml:space="preserve" y="42" clip-path="url(#clipPath47)" stroke="none">IParty</text>
            <text x="1029" xml:space="preserve" y="61" clip-path="url(#clipPath48)" stroke="none">  contactPoint: ContactPoint [*]</text>
            <line y2="46" fill="none" x1="1023" clip-path="url(#clipPath49)" x2="1224" y1="46"/>
            <rect x="1023" y="10" clip-path="url(#clipPath50)" fill="none" width="200" rx="0" ry="0" height="99"/>
            <line clip-path="url(#clipPath51)" fill="none" text-rendering="optimizeLegibility" x1="663" x2="663" y1="350" y2="570"/>
            <text text-rendering="optimizeLegibility" x="683" xml:space="preserve" y="463" clip-path="url(#clipPath52)" stroke="none">«Conceptual»</text>
            <text text-rendering="optimizeLegibility" x="638" xml:space="preserve" y="389" clip-path="url(#clipPath53)" stroke="none"> 1</text>
            <text text-rendering="optimizeLegibility" x="679" xml:space="preserve" y="543" clip-path="url(#clipPath54)" stroke="none"> *</text>
            <line clip-path="url(#clipPath51)" fill="none" text-rendering="optimizeLegibility" x1="663" x2="663" y1="870" y2="684"/>
            <text text-rendering="optimizeLegibility" x="683" xml:space="preserve" y="770" clip-path="url(#clipPath55)" stroke="none">«Conceptual»</text>
            <text text-rendering="optimizeLegibility" x="679" xml:space="preserve" y="838" clip-path="url(#clipPath56)" stroke="none"> *</text>
            <text text-rendering="optimizeLegibility" x="638" xml:space="preserve" y="729" clip-path="url(#clipPath57)" stroke="none"> 1</text>
            <line clip-path="url(#clipPath51)" fill="none" text-rendering="optimizeLegibility" x1="703" x2="663" y1="1230" y2="1230"/>
            <line clip-path="url(#clipPath51)" fill="none" text-rendering="optimizeLegibility" x1="663" x2="663" y1="1230" y2="970"/>
            <polygon fill="white" text-rendering="optimizeLegibility" clip-path="url(#clipPath58)" points=" 663 970 671 980 655 980" stroke="none"/>
            <polygon fill="none" text-rendering="optimizeLegibility" clip-path="url(#clipPath58)" points=" 663 970 671 980 655 980"/>
            <line clip-path="url(#clipPath51)" fill="none" text-rendering="optimizeLegibility" x1="703" x2="663" y1="1070" y2="1070"/>
            <line clip-path="url(#clipPath51)" fill="none" text-rendering="optimizeLegibility" x1="663" x2="663" y1="1070" y2="970"/>
            <polygon fill="white" text-rendering="optimizeLegibility" clip-path="url(#clipPath58)" points=" 663 970 671 980 655 980" stroke="none"/>
            <polygon fill="none" text-rendering="optimizeLegibility" clip-path="url(#clipPath58)" points=" 663 970 671 980 655 980"/>
            <line clip-path="url(#clipPath51)" fill="none" text-rendering="optimizeLegibility" x1="764" x2="893" y1="615" y2="615"/>
            <line clip-path="url(#clipPath51)" fill="none" text-rendering="optimizeLegibility" x1="893" x2="893" y1="615" y2="610"/>
            <line clip-path="url(#clipPath51)" fill="none" text-rendering="optimizeLegibility" x1="893" x2="1023" y1="610" y2="610"/>
            <text text-rendering="optimizeLegibility" x="836" xml:space="preserve" y="618" clip-path="url(#clipPath59)" stroke="none">«Conceptual»</text>
            <text text-rendering="optimizeLegibility" x="798" xml:space="preserve" y="641" clip-path="url(#clipPath60)" stroke="none"> 1</text>
            <text text-rendering="optimizeLegibility" x="979" xml:space="preserve" y="596" clip-path="url(#clipPath61)" stroke="none"> *</text>
            <line clip-path="url(#clipPath51)" fill="none" text-rendering="optimizeLegibility" x1="703" x2="663" y1="1390" y2="1390"/>
            <line clip-path="url(#clipPath51)" fill="none" text-rendering="optimizeLegibility" x1="663" x2="663" y1="1390" y2="970"/>
            <polygon fill="white" text-rendering="optimizeLegibility" clip-path="url(#clipPath58)" points=" 663 970 671 980 655 980" stroke="none"/>
            <polygon fill="none" text-rendering="optimizeLegibility" clip-path="url(#clipPath58)" points=" 663 970 671 980 655 980"/>
            <line clip-path="url(#clipPath51)" fill="none" text-rendering="optimizeLegibility" x1="1123" x2="1123" y1="570" y2="350" stroke-dasharray="5,5,5,5,5,5,5,5,5,5"/>
        </g>
        <g stroke-linecap="butt" fill="white" text-rendering="optimizeLegibility" font-family="'Segoe UI'" stroke-dasharray="5,5,5,5,5,5,5,5,5,5" stroke="white" stroke-width="1.1">
            <polygon points=" 1123 350 1128 365 1118 365" stroke="none" clip-path="url(#clipPath62)"/>
            <polygon fill="none" stroke-dasharray="none" clip-path="url(#clipPath62)" points=" 1123 350 1128 365 1118 365" stroke="black"/>
            <line clip-path="url(#clipPath51)" fill="none" x1="764" x2="1023" y1="290" y2="290" stroke="black"/>
            <polygon points=" 1023 290 1008 295 1008 285" clip-path="url(#clipPath63)" stroke="none"/>
            <polygon fill="none" stroke-dasharray="none" clip-path="url(#clipPath63)" points=" 1023 290 1008 295 1008 285" stroke="black"/>
            <line clip-path="url(#clipPath51)" fill="none" x1="563" x2="423" y1="615" y2="615" stroke-dasharray="none" stroke="black"/>
            <line clip-path="url(#clipPath51)" fill="none" x1="423" x2="423" y1="615" y2="610" stroke-dasharray="none" stroke="black"/>
            <line clip-path="url(#clipPath51)" fill="none" x1="423" x2="284" y1="610" y2="610" stroke-dasharray="none" stroke="black"/>
            <text x="366" y="619" clip-path="url(#clipPath64)" fill="black" stroke-dasharray="none" stroke="none" xml:space="preserve">«Conceptual»</text>
            <text x="520" y="601" clip-path="url(#clipPath65)" fill="black" stroke-dasharray="none" stroke="none" xml:space="preserve"> 1</text>
            <text x="319" y="636" clip-path="url(#clipPath66)" fill="black" stroke-dasharray="none" stroke="none" xml:space="preserve"> *</text>
            <line clip-path="url(#clipPath51)" fill="none" x1="703" x2="663" y1="1550" y2="1550" stroke-dasharray="none" stroke="black"/>
            <line clip-path="url(#clipPath51)" fill="none" x1="663" x2="663" y1="1550" y2="970" stroke-dasharray="none" stroke="black"/>
            <polygon stroke-dasharray="none" clip-path="url(#clipPath58)" points=" 663 970 671 980 655 980" stroke="none"/>
            <polygon fill="none" stroke-dasharray="none" clip-path="url(#clipPath58)" points=" 663 970 671 980 655 980" stroke="black"/>
            <line clip-path="url(#clipPath51)" fill="none" x1="1123" x2="1123" y1="250" y2="110" stroke-dasharray="none" stroke="black"/>
            <polygon stroke-dasharray="none" clip-path="url(#clipPath67)" points=" 1123 110 1131 120 1115 120" stroke="none"/>
            <polygon fill="none" stroke-dasharray="none" clip-path="url(#clipPath67)" points=" 1123 110 1131 120 1115 120" stroke="black"/>
        </g>
    </g>
</svg>
