<?xml version="1.0" encoding="UTF-8"?><svg xmlns="http://www.w3.org/2000/svg" xmlns:xlink="http://www.w3.org/1999/xlink" stroke-dasharray="none" shape-rendering="auto" font-family="'Dialog'" width="1201" text-rendering="auto" fill-opacity="1" contentScriptType="text/ecmascript" color-interpolation="auto" color-rendering="auto" preserveAspectRatio="xMidYMid meet" font-size="12px" viewBox="0 0 1201 920" fill="black" stroke="black" image-rendering="auto" stroke-miterlimit="10" zoomAndPan="magnify" version="1.0" stroke-linecap="square" stroke-linejoin="miter" contentStyleType="text/css" font-style="normal" height="920" stroke-width="1" stroke-dashoffset="0" font-weight="normal" stroke-opacity="1">
    <!--Generated by the Batik Graphics2D SVG Generator-->
    <defs id="genericDefs"/>
    <g>
        <defs id="defs1">
            <linearGradient x1="10" x2="10" y1="10" gradientUnits="userSpaceOnUse" y2="110" xlink:type="simple" xlink:actuate="onLoad" id="linearGradient1" xlink:show="other" spreadMethod="pad">
                <stop stop-opacity="1" stop-color="white" offset="0%"/>
                <stop stop-opacity="1" stop-color="rgb(131,135,205)" offset="100%"/>
            </linearGradient>
            <linearGradient x1="550" x2="550" y1="490" gradientUnits="userSpaceOnUse" y2="590" xlink:type="simple" xlink:actuate="onLoad" id="linearGradient2" xlink:show="other" spreadMethod="pad">
                <stop stop-opacity="1" stop-color="white" offset="0%"/>
                <stop stop-opacity="1" stop-color="rgb(195,167,173)" offset="100%"/>
            </linearGradient>
            <linearGradient x1="390" x2="390" y1="810" gradientUnits="userSpaceOnUse" y2="910" xlink:type="simple" xlink:actuate="onLoad" id="linearGradient3" xlink:show="other" spreadMethod="pad">
                <stop stop-opacity="1" stop-color="white" offset="0%"/>
                <stop stop-opacity="1" stop-color="rgb(195,167,173)" offset="100%"/>
            </linearGradient>
            <linearGradient x1="190" x2="190" y1="170" gradientUnits="userSpaceOnUse" y2="270" xlink:type="simple" xlink:actuate="onLoad" id="linearGradient4" xlink:show="other" spreadMethod="pad">
                <stop stop-opacity="1" stop-color="white" offset="0%"/>
                <stop stop-opacity="1" stop-color="rgb(195,167,173)" offset="100%"/>
            </linearGradient>
            <linearGradient x1="370" x2="370" y1="330" gradientUnits="userSpaceOnUse" y2="430" xlink:type="simple" xlink:actuate="onLoad" id="linearGradient5" xlink:show="other" spreadMethod="pad">
                <stop stop-opacity="1" stop-color="white" offset="0%"/>
                <stop stop-opacity="1" stop-color="rgb(195,167,173)" offset="100%"/>
            </linearGradient>
            <linearGradient x1="550" x2="550" y1="650" gradientUnits="userSpaceOnUse" y2="750" xlink:type="simple" xlink:actuate="onLoad" id="linearGradient6" xlink:show="other" spreadMethod="pad">
                <stop stop-opacity="1" stop-color="white" offset="0%"/>
                <stop stop-opacity="1" stop-color="rgb(195,167,173)" offset="100%"/>
            </linearGradient>
            <linearGradient x1="950" x2="950" y1="330" gradientUnits="userSpaceOnUse" y2="430" xlink:type="simple" xlink:actuate="onLoad" id="linearGradient7" xlink:show="other" spreadMethod="pad">
                <stop stop-opacity="1" stop-color="white" offset="0%"/>
                <stop stop-opacity="1" stop-color="rgb(131,135,205)" offset="100%"/>
            </linearGradient>
            <clipPath clipPathUnits="userSpaceOnUse" id="clipPath1">
                <path d="M10 10 L10 109 L250 109 L250 10 Z"/>
            </clipPath>
            <clipPath clipPathUnits="userSpaceOnUse" id="clipPath2">
                <path d="M101 12 L162 12 L162 29 L101 29 L101 12 Z"/>
            </clipPath>
            <clipPath clipPathUnits="userSpaceOnUse" id="clipPath3">
                <path d="M72 28 L191 28 L191 45 L72 45 L72 28 Z"/>
            </clipPath>
            <clipPath clipPathUnits="userSpaceOnUse" id="clipPath4">
                <path d="M15 47 L214 47 L214 64 L15 64 L15 47 Z"/>
            </clipPath>
            <clipPath clipPathUnits="userSpaceOnUse" id="clipPath5">
                <path d="M10 45 L252 45 L252 111 L10 111 L10 45 Z"/>
            </clipPath>
            <clipPath clipPathUnits="userSpaceOnUse" id="clipPath6">
                <path d="M9 9 L252 9 L252 111 L9 111 L9 9 Z"/>
            </clipPath>
            <clipPath clipPathUnits="userSpaceOnUse" id="clipPath7">
                <path d="M550 490 L550 589 L790 589 L790 490 Z"/>
            </clipPath>
            <clipPath clipPathUnits="userSpaceOnUse" id="clipPath8">
                <path d="M626 492 L717 492 L717 509 L626 509 L626 492 Z"/>
            </clipPath>
            <clipPath clipPathUnits="userSpaceOnUse" id="clipPath9">
                <path d="M644 508 L698 508 L698 525 L644 525 L644 508 Z"/>
            </clipPath>
            <clipPath clipPathUnits="userSpaceOnUse" id="clipPath10">
                <path d="M550 525 L792 525 L792 591 L550 591 L550 525 Z"/>
            </clipPath>
            <clipPath clipPathUnits="userSpaceOnUse" id="clipPath11">
                <path d="M549 489 L792 489 L792 591 L549 591 L549 489 Z"/>
            </clipPath>
            <clipPath clipPathUnits="userSpaceOnUse" id="clipPath12">
                <path d="M390 810 L390 909 L630 909 L630 810 Z"/>
            </clipPath>
            <clipPath clipPathUnits="userSpaceOnUse" id="clipPath13">
                <path d="M466 812 L557 812 L557 829 L466 829 L466 812 Z"/>
            </clipPath>
            <clipPath clipPathUnits="userSpaceOnUse" id="clipPath14">
                <path d="M462 828 L561 828 L561 845 L462 845 L462 828 Z"/>
            </clipPath>
            <clipPath clipPathUnits="userSpaceOnUse" id="clipPath15">
                <path d="M390 845 L632 845 L632 911 L390 911 L390 845 Z"/>
            </clipPath>
            <clipPath clipPathUnits="userSpaceOnUse" id="clipPath16">
                <path d="M389 809 L632 809 L632 911 L389 911 L389 809 Z"/>
            </clipPath>
            <clipPath clipPathUnits="userSpaceOnUse" id="clipPath17">
                <path d="M190 170 L190 269 L430 269 L430 170 Z"/>
            </clipPath>
            <clipPath clipPathUnits="userSpaceOnUse" id="clipPath18">
                <path d="M263 172 L359 172 L359 189 L263 189 L263 172 Z"/>
            </clipPath>
            <clipPath clipPathUnits="userSpaceOnUse" id="clipPath19">
                <path d="M224 188 L399 188 L399 205 L224 205 L224 188 Z"/>
            </clipPath>
            <clipPath clipPathUnits="userSpaceOnUse" id="clipPath20">
                <path d="M190 205 L432 205 L432 271 L190 271 L190 205 Z"/>
            </clipPath>
            <clipPath clipPathUnits="userSpaceOnUse" id="clipPath21">
                <path d="M189 169 L432 169 L432 271 L189 271 L189 169 Z"/>
            </clipPath>
            <clipPath clipPathUnits="userSpaceOnUse" id="clipPath22">
                <path d="M370 330 L370 429 L610 429 L610 330 Z"/>
            </clipPath>
            <clipPath clipPathUnits="userSpaceOnUse" id="clipPath23">
                <path d="M443 332 L539 332 L539 349 L443 349 L443 332 Z"/>
            </clipPath>
            <clipPath clipPathUnits="userSpaceOnUse" id="clipPath24">
                <path d="M412 348 L571 348 L571 365 L412 365 L412 348 Z"/>
            </clipPath>
            <clipPath clipPathUnits="userSpaceOnUse" id="clipPath25">
                <path d="M370 365 L612 365 L612 431 L370 431 L370 365 Z"/>
            </clipPath>
            <clipPath clipPathUnits="userSpaceOnUse" id="clipPath26">
                <path d="M369 329 L612 329 L612 431 L369 431 L369 329 Z"/>
            </clipPath>
            <clipPath clipPathUnits="userSpaceOnUse" id="clipPath27">
                <path d="M550 650 L550 749 L790 749 L790 650 Z"/>
            </clipPath>
            <clipPath clipPathUnits="userSpaceOnUse" id="clipPath28">
                <path d="M626 652 L717 652 L717 669 L626 669 L626 652 Z"/>
            </clipPath>
            <clipPath clipPathUnits="userSpaceOnUse" id="clipPath29">
                <path d="M574 668 L769 668 L769 685 L574 685 L574 668 Z"/>
            </clipPath>
            <clipPath clipPathUnits="userSpaceOnUse" id="clipPath30">
                <path d="M550 685 L792 685 L792 751 L550 751 L550 685 Z"/>
            </clipPath>
            <clipPath clipPathUnits="userSpaceOnUse" id="clipPath31">
                <path d="M549 649 L792 649 L792 751 L549 751 L549 649 Z"/>
            </clipPath>
            <clipPath clipPathUnits="userSpaceOnUse" id="clipPath32">
                <path d="M950 330 L950 429 L1190 429 L1190 330 Z"/>
            </clipPath>
            <clipPath clipPathUnits="userSpaceOnUse" id="clipPath33">
                <path d="M1041 332 L1102 332 L1102 349 L1041 349 L1041 332 Z"/>
            </clipPath>
            <clipPath clipPathUnits="userSpaceOnUse" id="clipPath34">
                <path d="M992 348 L1151 348 L1151 365 L992 365 L992 348 Z"/>
            </clipPath>
            <clipPath clipPathUnits="userSpaceOnUse" id="clipPath35">
                <path d="M950 365 L1192 365 L1192 431 L950 431 L950 365 Z"/>
            </clipPath>
            <clipPath clipPathUnits="userSpaceOnUse" id="clipPath36">
                <path d="M949 329 L1192 329 L1192 431 L949 431 L949 329 Z"/>
            </clipPath>
            <clipPath clipPathUnits="userSpaceOnUse" id="clipPath37">
                <path d="M-1 -1 L1202 -1 L1202 921 L-1 921 L-1 -1 Z"/>
            </clipPath>
            <clipPath clipPathUnits="userSpaceOnUse" id="clipPath38">
                <path d="M301 269 L320 269 L320 282 L301 282 L301 269 Z"/>
            </clipPath>
            <clipPath clipPathUnits="userSpaceOnUse" id="clipPath39">
                <path d="M124 109 L137 109 L137 127 L124 127 L124 109 Z"/>
            </clipPath>
            <clipPath clipPathUnits="userSpaceOnUse" id="clipPath40">
                <path d="M481 429 L500 429 L500 442 L481 442 L481 429 Z"/>
            </clipPath>
            <clipPath clipPathUnits="userSpaceOnUse" id="clipPath41">
                <path d="M889 342 L912 342 L912 359 L889 359 L889 342 Z"/>
            </clipPath>
            <clipPath clipPathUnits="userSpaceOnUse" id="clipPath42">
                <path d="M656 382 L668 382 L668 399 L656 399 L656 382 Z"/>
            </clipPath>
            <clipPath clipPathUnits="userSpaceOnUse" id="clipPath43">
                <path d="M1064 429 L1077 429 L1077 447 L1064 447 L1064 429 Z"/>
            </clipPath>
        </defs>
        <g fill="url(#linearGradient1)" stroke-miterlimit="0" stroke-width="0" font-family="'Segoe UI'" stroke="url(#linearGradient1)" stroke-linejoin="round">
            <rect x="10" width="241" height="100" y="10" clip-path="url(#clipPath1)" stroke="none"/>
            <text fill="black" x="102" xml:space="preserve" y="26" clip-path="url(#clipPath2)" stroke="none">«Interface»</text>
            <text fill="black" x="73" xml:space="preserve" y="42" clip-path="url(#clipPath3)" stroke="none">IControlledVocabulary</text>
            <text fill="black" x="16" xml:space="preserve" y="61" clip-path="url(#clipPath4)" stroke="none">«ReferenceCode»   code: Identifier [1]</text>
        </g>
        <g stroke-linecap="butt" font-family="'Segoe UI'" stroke-width="1.1">
            <line y2="46" fill="none" x1="10" clip-path="url(#clipPath5)" x2="251" y1="46"/>
            <rect x="10" y="10" clip-path="url(#clipPath6)" fill="none" width="240" rx="0" ry="0" height="99"/>
            <rect x="550" y="490" clip-path="url(#clipPath7)" fill="url(#linearGradient2)" width="241" height="100" stroke="none"/>
            <text x="627" xml:space="preserve" y="506" clip-path="url(#clipPath8)" stroke="none">«ReferenceData»</text>
            <text x="645" xml:space="preserve" y="522" clip-path="url(#clipPath9)" stroke="none">FiscalYear</text>
            <line y2="526" fill="none" x1="550" clip-path="url(#clipPath10)" x2="791" y1="526"/>
            <rect x="550" y="490" clip-path="url(#clipPath11)" fill="none" width="240" rx="0" ry="0" height="99"/>
            <rect x="390" y="810" clip-path="url(#clipPath12)" fill="url(#linearGradient3)" width="241" height="100" stroke="none"/>
            <text x="467" xml:space="preserve" y="826" clip-path="url(#clipPath13)" stroke="none">«ReferenceData»</text>
            <text x="463" xml:space="preserve" y="842" clip-path="url(#clipPath14)" stroke="none">AccountingPeriod</text>
            <line y2="846" fill="none" x1="390" clip-path="url(#clipPath15)" x2="631" y1="846"/>
            <rect x="390" y="810" clip-path="url(#clipPath16)" fill="none" width="240" rx="0" ry="0" height="99"/>
            <rect x="190" y="170" clip-path="url(#clipPath17)" fill="url(#linearGradient4)" width="241" height="100" stroke="none"/>
            <text x="264" y="186" clip-path="url(#clipPath18)" fill="rgb(169,169,169)" font-style="italic" stroke="none" xml:space="preserve">«ReferenceData»</text>
            <text x="225" y="202" clip-path="url(#clipPath19)" fill="rgb(169,169,169)" font-style="italic" stroke="none" xml:space="preserve">AccountingPeriodHierarchyNode</text>
            <line y2="206" fill="none" x1="190" clip-path="url(#clipPath20)" x2="431" y1="206"/>
            <rect x="190" y="170" clip-path="url(#clipPath21)" fill="none" width="240" rx="0" ry="0" height="99"/>
            <rect x="370" y="330" clip-path="url(#clipPath22)" fill="url(#linearGradient5)" width="241" height="100" stroke="none"/>
            <text x="444" y="346" clip-path="url(#clipPath23)" fill="rgb(169,169,169)" font-style="italic" stroke="none" xml:space="preserve">«ReferenceData»</text>
            <text x="413" y="362" clip-path="url(#clipPath24)" fill="rgb(169,169,169)" font-style="italic" stroke="none" xml:space="preserve">AccountingPeriodParentNode</text>
            <line y2="366" fill="none" x1="370" clip-path="url(#clipPath25)" x2="611" y1="366"/>
            <rect x="370" y="330" clip-path="url(#clipPath26)" fill="none" width="240" rx="0" ry="0" height="99"/>
            <rect x="550" y="650" clip-path="url(#clipPath27)" fill="url(#linearGradient6)" width="241" height="100" stroke="none"/>
            <text x="627" xml:space="preserve" y="666" clip-path="url(#clipPath28)" stroke="none">«ReferenceData»</text>
            <text x="575" xml:space="preserve" y="682" clip-path="url(#clipPath29)" stroke="none">AccountingPeriodIntermediateNode</text>
            <line y2="686" fill="none" x1="550" clip-path="url(#clipPath30)" x2="791" y1="686"/>
            <rect x="550" y="650" clip-path="url(#clipPath31)" fill="none" width="240" rx="0" ry="0" height="99"/>
            <rect x="950" y="330" clip-path="url(#clipPath32)" fill="url(#linearGradient7)" width="241" height="100" stroke="none"/>
            <text x="1042" xml:space="preserve" y="346" clip-path="url(#clipPath33)" stroke="none">«Interface»</text>
            <text x="993" xml:space="preserve" y="362" clip-path="url(#clipPath34)" stroke="none">IAccountingPeriodChildNode</text>
            <line y2="366" fill="none" x1="950" clip-path="url(#clipPath35)" x2="1191" y1="366"/>
            <rect x="950" y="330" clip-path="url(#clipPath36)" fill="none" width="240" rx="0" ry="0" height="99"/>
            <line clip-path="url(#clipPath37)" fill="none" text-rendering="optimizeLegibility" x1="370" x2="310" y1="370" y2="370"/>
            <line clip-path="url(#clipPath37)" fill="none" text-rendering="optimizeLegibility" x1="310" x2="310" y1="370" y2="270"/>
            <polygon fill="white" text-rendering="optimizeLegibility" clip-path="url(#clipPath38)" points=" 310 270 318 280 302 280" stroke="none"/>
            <polygon fill="none" text-rendering="optimizeLegibility" clip-path="url(#clipPath38)" points=" 310 270 318 280 302 280"/>
            <line clip-path="url(#clipPath37)" fill="none" text-rendering="optimizeLegibility" x1="190" x2="130" y1="210" y2="210" stroke-dasharray="5,5,5,5,5,5,5,5,5,5"/>
            <line clip-path="url(#clipPath37)" fill="none" text-rendering="optimizeLegibility" x1="130" x2="130" y1="210" y2="110" stroke-dasharray="5,5,5,5,5,5,5,5,5,5"/>
        </g>
        <g stroke-linecap="butt" fill="white" text-rendering="optimizeLegibility" font-family="'Segoe UI'" stroke-dasharray="5,5,5,5,5,5,5,5,5,5" stroke="white" stroke-width="1.1">
            <polygon points=" 130 110 135 125 125 125" stroke="none" clip-path="url(#clipPath39)"/>
            <polygon fill="none" stroke-dasharray="none" clip-path="url(#clipPath39)" points=" 130 110 135 125 125 125" stroke="black"/>
            <line clip-path="url(#clipPath37)" fill="none" x1="550" x2="490" y1="530" y2="530" stroke-dasharray="none" stroke="black"/>
            <line clip-path="url(#clipPath37)" fill="none" x1="490" x2="490" y1="530" y2="430" stroke-dasharray="none" stroke="black"/>
            <polygon stroke-dasharray="none" clip-path="url(#clipPath40)" points=" 490 430 498 440 482 440" stroke="none"/>
            <polygon fill="none" stroke-dasharray="none" clip-path="url(#clipPath40)" points=" 490 430 498 440 482 440" stroke="black"/>
            <line clip-path="url(#clipPath37)" fill="none" x1="950" x2="611" y1="370" y2="370" stroke-dasharray="none" stroke="black"/>
            <text x="890" y="356" clip-path="url(#clipPath41)" fill="black" stroke-dasharray="none" stroke="none" xml:space="preserve"> 1..*</text>
            <text x="657" y="396" clip-path="url(#clipPath42)" fill="black" stroke-dasharray="none" stroke="none" xml:space="preserve"> 1</text>
            <line clip-path="url(#clipPath37)" fill="none" x1="791" x2="1070" y1="690" y2="690" stroke="black"/>
            <line clip-path="url(#clipPath37)" fill="none" x1="1070" x2="1070" y1="690" y2="430" stroke="black"/>
            <polygon points=" 1070 430 1075 445 1065 445" clip-path="url(#clipPath43)" stroke="none"/>
            <polygon fill="none" stroke-dasharray="none" clip-path="url(#clipPath43)" points=" 1070 430 1075 445 1065 445" stroke="black"/>
            <line clip-path="url(#clipPath37)" fill="none" x1="631" x2="1070" y1="850" y2="850" stroke="black"/>
            <line clip-path="url(#clipPath37)" fill="none" x1="1070" x2="1070" y1="850" y2="430" stroke="black"/>
            <polygon points=" 1070 430 1075 445 1065 445" clip-path="url(#clipPath43)" stroke="none"/>
            <polygon fill="none" stroke-dasharray="none" clip-path="url(#clipPath43)" points=" 1070 430 1075 445 1065 445" stroke="black"/>
            <line clip-path="url(#clipPath37)" fill="none" x1="390" x2="310" y1="850" y2="850" stroke-dasharray="none" stroke="black"/>
            <line clip-path="url(#clipPath37)" fill="none" x1="310" x2="310" y1="850" y2="270" stroke-dasharray="none" stroke="black"/>
            <polygon stroke-dasharray="none" clip-path="url(#clipPath38)" points=" 310 270 318 280 302 280" stroke="none"/>
            <polygon fill="none" stroke-dasharray="none" clip-path="url(#clipPath38)" points=" 310 270 318 280 302 280" stroke="black"/>
            <line clip-path="url(#clipPath37)" fill="none" x1="550" x2="490" y1="690" y2="690" stroke-dasharray="none" stroke="black"/>
            <line clip-path="url(#clipPath37)" fill="none" x1="490" x2="490" y1="690" y2="430" stroke-dasharray="none" stroke="black"/>
            <polygon stroke-dasharray="none" clip-path="url(#clipPath40)" points=" 490 430 498 440 482 440" stroke="none"/>
            <polygon fill="none" stroke-dasharray="none" clip-path="url(#clipPath40)" points=" 490 430 498 440 482 440" stroke="black"/>
        </g>
    </g>
</svg>
