<?xml version="1.0" encoding="UTF-8"?><svg xmlns="http://www.w3.org/2000/svg" xmlns:xlink="http://www.w3.org/1999/xlink" stroke-dasharray="none" shape-rendering="auto" font-family="'Dialog'" width="2561" text-rendering="auto" fill-opacity="1" contentScriptType="text/ecmascript" color-interpolation="auto" color-rendering="auto" preserveAspectRatio="xMidYMid meet" font-size="12px" viewBox="0 0 2561 1441" fill="black" stroke="black" image-rendering="auto" stroke-miterlimit="10" zoomAndPan="magnify" version="1.0" stroke-linecap="square" stroke-linejoin="miter" contentStyleType="text/css" font-style="normal" height="1441" stroke-width="1" stroke-dashoffset="0" font-weight="normal" stroke-opacity="1">
    <!--Generated by the Batik Graphics2D SVG Generator-->
    <defs id="genericDefs"/>
    <g>
        <defs id="defs1">
            <linearGradient x1="1550" x2="1550" y1="11" gradientUnits="userSpaceOnUse" y2="111" xlink:type="simple" xlink:actuate="onLoad" id="linearGradient1" xlink:show="other" spreadMethod="pad">
                <stop stop-opacity="1" stop-color="white" offset="0%"/>
                <stop stop-opacity="1" stop-color="rgb(131,135,205)" offset="100%"/>
            </linearGradient>
            <linearGradient x1="1729" x2="1729" y1="531" gradientUnits="userSpaceOnUse" y2="631" xlink:type="simple" xlink:actuate="onLoad" id="linearGradient2" xlink:show="other" spreadMethod="pad">
                <stop stop-opacity="1" stop-color="white" offset="0%"/>
                <stop stop-opacity="1" stop-color="rgb(195,167,173)" offset="100%"/>
            </linearGradient>
            <linearGradient x1="1729" x2="1729" y1="851" gradientUnits="userSpaceOnUse" y2="951" xlink:type="simple" xlink:actuate="onLoad" id="linearGradient3" xlink:show="other" spreadMethod="pad">
                <stop stop-opacity="1" stop-color="white" offset="0%"/>
                <stop stop-opacity="1" stop-color="rgb(195,167,173)" offset="100%"/>
            </linearGradient>
            <linearGradient x1="1729" x2="1729" y1="1011" gradientUnits="userSpaceOnUse" y2="1111" xlink:type="simple" xlink:actuate="onLoad" id="linearGradient4" xlink:show="other" spreadMethod="pad">
                <stop stop-opacity="1" stop-color="white" offset="0%"/>
                <stop stop-opacity="1" stop-color="rgb(195,167,173)" offset="100%"/>
            </linearGradient>
            <linearGradient x1="1729" x2="1729" y1="1331" gradientUnits="userSpaceOnUse" y2="1431" xlink:type="simple" xlink:actuate="onLoad" id="linearGradient5" xlink:show="other" spreadMethod="pad">
                <stop stop-opacity="1" stop-color="white" offset="0%"/>
                <stop stop-opacity="1" stop-color="rgb(195,167,173)" offset="100%"/>
            </linearGradient>
            <linearGradient x1="2310" x2="2310" y1="10" gradientUnits="userSpaceOnUse" y2="110" xlink:type="simple" xlink:actuate="onLoad" id="linearGradient6" xlink:show="other" spreadMethod="pad">
                <stop stop-opacity="1" stop-color="white" offset="0%"/>
                <stop stop-opacity="1" stop-color="rgb(163,199,173)" offset="100%"/>
            </linearGradient>
            <linearGradient x1="550" x2="550" y1="10" gradientUnits="userSpaceOnUse" y2="140" xlink:type="simple" xlink:actuate="onLoad" id="linearGradient7" xlink:show="other" spreadMethod="pad">
                <stop stop-opacity="1" stop-color="white" offset="0%"/>
                <stop stop-opacity="1" stop-color="rgb(195,215,221)" offset="100%"/>
            </linearGradient>
            <linearGradient x1="730" x2="730" y1="270" gradientUnits="userSpaceOnUse" y2="370" xlink:type="simple" xlink:actuate="onLoad" id="linearGradient8" xlink:show="other" spreadMethod="pad">
                <stop stop-opacity="1" stop-color="white" offset="0%"/>
                <stop stop-opacity="1" stop-color="rgb(195,215,221)" offset="100%"/>
            </linearGradient>
            <linearGradient x1="370" x2="370" y1="270" gradientUnits="userSpaceOnUse" y2="370" xlink:type="simple" xlink:actuate="onLoad" id="linearGradient9" xlink:show="other" spreadMethod="pad">
                <stop stop-opacity="1" stop-color="white" offset="0%"/>
                <stop stop-opacity="1" stop-color="rgb(195,215,221)" offset="100%"/>
            </linearGradient>
            <linearGradient x1="550" x2="550" y1="570" gradientUnits="userSpaceOnUse" y2="748" xlink:type="simple" xlink:actuate="onLoad" id="linearGradient10" xlink:show="other" spreadMethod="pad">
                <stop stop-opacity="1" stop-color="white" offset="0%"/>
                <stop stop-opacity="1" stop-color="rgb(195,215,221)" offset="100%"/>
            </linearGradient>
            <linearGradient x1="1050" x2="1050" y1="10" gradientUnits="userSpaceOnUse" y2="171" xlink:type="simple" xlink:actuate="onLoad" id="linearGradient11" xlink:show="other" spreadMethod="pad">
                <stop stop-opacity="1" stop-color="white" offset="0%"/>
                <stop stop-opacity="1" stop-color="rgb(195,215,221)" offset="100%"/>
            </linearGradient>
            <linearGradient x1="1730" x2="1730" y1="171" gradientUnits="userSpaceOnUse" y2="284" xlink:type="simple" xlink:actuate="onLoad" id="linearGradient12" xlink:show="other" spreadMethod="pad">
                <stop stop-opacity="1" stop-color="white" offset="0%"/>
                <stop stop-opacity="1" stop-color="rgb(195,167,173)" offset="100%"/>
            </linearGradient>
            <linearGradient x1="1910" x2="1910" y1="371" gradientUnits="userSpaceOnUse" y2="471" xlink:type="simple" xlink:actuate="onLoad" id="linearGradient13" xlink:show="other" spreadMethod="pad">
                <stop stop-opacity="1" stop-color="white" offset="0%"/>
                <stop stop-opacity="1" stop-color="rgb(195,167,173)" offset="100%"/>
            </linearGradient>
            <linearGradient x1="1908" x2="1908" y1="691" gradientUnits="userSpaceOnUse" y2="791" xlink:type="simple" xlink:actuate="onLoad" id="linearGradient14" xlink:show="other" spreadMethod="pad">
                <stop stop-opacity="1" stop-color="white" offset="0%"/>
                <stop stop-opacity="1" stop-color="rgb(195,167,173)" offset="100%"/>
            </linearGradient>
            <linearGradient x1="10" x2="10" y1="570" gradientUnits="userSpaceOnUse" y2="670" xlink:type="simple" xlink:actuate="onLoad" id="linearGradient15" xlink:show="other" spreadMethod="pad">
                <stop stop-opacity="1" stop-color="white" offset="0%"/>
                <stop stop-opacity="1" stop-color="rgb(131,135,205)" offset="100%"/>
            </linearGradient>
            <linearGradient x1="2310" x2="2310" y1="171" gradientUnits="userSpaceOnUse" y2="271" xlink:type="simple" xlink:actuate="onLoad" id="linearGradient16" xlink:show="other" spreadMethod="pad">
                <stop stop-opacity="1" stop-color="white" offset="0%"/>
                <stop stop-opacity="1" stop-color="rgb(163,199,173)" offset="100%"/>
            </linearGradient>
            <clipPath clipPathUnits="userSpaceOnUse" id="clipPath1">
                <path d="M1550 11 L1550 110 L1790 110 L1790 11 Z"/>
            </clipPath>
            <clipPath clipPathUnits="userSpaceOnUse" id="clipPath2">
                <path d="M1641 13 L1702 13 L1702 30 L1641 30 L1641 13 Z"/>
            </clipPath>
            <clipPath clipPathUnits="userSpaceOnUse" id="clipPath3">
                <path d="M1612 29 L1731 29 L1731 46 L1612 46 L1612 29 Z"/>
            </clipPath>
            <clipPath clipPathUnits="userSpaceOnUse" id="clipPath4">
                <path d="M1555 48 L1754 48 L1754 65 L1555 65 L1555 48 Z"/>
            </clipPath>
            <clipPath clipPathUnits="userSpaceOnUse" id="clipPath5">
                <path d="M1550 46 L1792 46 L1792 112 L1550 112 L1550 46 Z"/>
            </clipPath>
            <clipPath clipPathUnits="userSpaceOnUse" id="clipPath6">
                <path d="M1549 10 L1792 10 L1792 112 L1549 112 L1549 10 Z"/>
            </clipPath>
            <clipPath clipPathUnits="userSpaceOnUse" id="clipPath7">
                <path d="M1729 531 L1729 630 L1969 630 L1969 531 Z"/>
            </clipPath>
            <clipPath clipPathUnits="userSpaceOnUse" id="clipPath8">
                <path d="M1805 533 L1896 533 L1896 550 L1805 550 L1805 533 Z"/>
            </clipPath>
            <clipPath clipPathUnits="userSpaceOnUse" id="clipPath9">
                <path d="M1831 549 L1870 549 L1870 566 L1831 566 L1831 549 Z"/>
            </clipPath>
            <clipPath clipPathUnits="userSpaceOnUse" id="clipPath10">
                <path d="M1729 566 L1971 566 L1971 632 L1729 632 L1729 566 Z"/>
            </clipPath>
            <clipPath clipPathUnits="userSpaceOnUse" id="clipPath11">
                <path d="M1728 530 L1971 530 L1971 632 L1728 632 L1728 530 Z"/>
            </clipPath>
            <clipPath clipPathUnits="userSpaceOnUse" id="clipPath12">
                <path d="M1729 851 L1729 950 L1969 950 L1969 851 Z"/>
            </clipPath>
            <clipPath clipPathUnits="userSpaceOnUse" id="clipPath13">
                <path d="M1805 853 L1896 853 L1896 870 L1805 870 L1805 853 Z"/>
            </clipPath>
            <clipPath clipPathUnits="userSpaceOnUse" id="clipPath14">
                <path d="M1830 869 L1870 869 L1870 886 L1830 886 L1830 869 Z"/>
            </clipPath>
            <clipPath clipPathUnits="userSpaceOnUse" id="clipPath15">
                <path d="M1729 886 L1971 886 L1971 952 L1729 952 L1729 886 Z"/>
            </clipPath>
            <clipPath clipPathUnits="userSpaceOnUse" id="clipPath16">
                <path d="M1728 850 L1971 850 L1971 952 L1728 952 L1728 850 Z"/>
            </clipPath>
            <clipPath clipPathUnits="userSpaceOnUse" id="clipPath17">
                <path d="M1729 1011 L1729 1110 L1969 1110 L1969 1011 Z"/>
            </clipPath>
            <clipPath clipPathUnits="userSpaceOnUse" id="clipPath18">
                <path d="M1805 1013 L1896 1013 L1896 1030 L1805 1030 L1805 1013 Z"/>
            </clipPath>
            <clipPath clipPathUnits="userSpaceOnUse" id="clipPath19">
                <path d="M1823 1029 L1877 1029 L1877 1046 L1823 1046 L1823 1029 Z"/>
            </clipPath>
            <clipPath clipPathUnits="userSpaceOnUse" id="clipPath20">
                <path d="M1729 1046 L1971 1046 L1971 1112 L1729 1112 L1729 1046 Z"/>
            </clipPath>
            <clipPath clipPathUnits="userSpaceOnUse" id="clipPath21">
                <path d="M1728 1010 L1971 1010 L1971 1112 L1728 1112 L1728 1010 Z"/>
            </clipPath>
            <clipPath clipPathUnits="userSpaceOnUse" id="clipPath22">
                <path d="M1729 1331 L1729 1430 L1969 1430 L1969 1331 Z"/>
            </clipPath>
            <clipPath clipPathUnits="userSpaceOnUse" id="clipPath23">
                <path d="M1805 1333 L1896 1333 L1896 1350 L1805 1350 L1805 1333 Z"/>
            </clipPath>
            <clipPath clipPathUnits="userSpaceOnUse" id="clipPath24">
                <path d="M1801 1349 L1900 1349 L1900 1366 L1801 1366 L1801 1349 Z"/>
            </clipPath>
            <clipPath clipPathUnits="userSpaceOnUse" id="clipPath25">
                <path d="M1729 1366 L1971 1366 L1971 1432 L1729 1432 L1729 1366 Z"/>
            </clipPath>
            <clipPath clipPathUnits="userSpaceOnUse" id="clipPath26">
                <path d="M1728 1330 L1971 1330 L1971 1432 L1728 1432 L1728 1330 Z"/>
            </clipPath>
            <clipPath clipPathUnits="userSpaceOnUse" id="clipPath27">
                <path d="M2310 10 L2310 109 L2550 109 L2550 10 Z"/>
            </clipPath>
            <clipPath clipPathUnits="userSpaceOnUse" id="clipPath28">
                <path d="M2400 12 L2463 12 L2463 29 L2400 29 L2400 12 Z"/>
            </clipPath>
            <clipPath clipPathUnits="userSpaceOnUse" id="clipPath29">
                <path d="M2373 28 L2489 28 L2489 45 L2373 45 L2373 28 Z"/>
            </clipPath>
            <clipPath clipPathUnits="userSpaceOnUse" id="clipPath30">
                <path d="M2315 47 L2485 47 L2485 64 L2315 64 L2315 47 Z"/>
            </clipPath>
            <clipPath clipPathUnits="userSpaceOnUse" id="clipPath31">
                <path d="M2315 63 L2462 63 L2462 80 L2315 80 L2315 63 Z"/>
            </clipPath>
            <clipPath clipPathUnits="userSpaceOnUse" id="clipPath32">
                <path d="M2310 45 L2552 45 L2552 111 L2310 111 L2310 45 Z"/>
            </clipPath>
            <clipPath clipPathUnits="userSpaceOnUse" id="clipPath33">
                <path d="M2309 9 L2552 9 L2552 111 L2309 111 L2309 9 Z"/>
            </clipPath>
            <clipPath clipPathUnits="userSpaceOnUse" id="clipPath34">
                <path d="M550 10 L550 139 L790 139 L790 10 Z"/>
            </clipPath>
            <clipPath clipPathUnits="userSpaceOnUse" id="clipPath35">
                <path d="M638 12 L705 12 L705 29 L638 29 L638 12 Z"/>
            </clipPath>
            <clipPath clipPathUnits="userSpaceOnUse" id="clipPath36">
                <path d="M555 31 L674 31 L674 48 L555 48 L555 31 Z"/>
            </clipPath>
            <clipPath clipPathUnits="userSpaceOnUse" id="clipPath37">
                <path d="M555 47 L706 47 L706 64 L555 64 L555 47 Z"/>
            </clipPath>
            <clipPath clipPathUnits="userSpaceOnUse" id="clipPath38">
                <path d="M555 63 L674 63 L674 80 L555 80 L555 63 Z"/>
            </clipPath>
            <clipPath clipPathUnits="userSpaceOnUse" id="clipPath39">
                <path d="M555 79 L776 79 L776 96 L555 96 L555 79 Z"/>
            </clipPath>
            <clipPath clipPathUnits="userSpaceOnUse" id="clipPath40">
                <path d="M550 29 L792 29 L792 141 L550 141 L550 29 Z"/>
            </clipPath>
            <clipPath clipPathUnits="userSpaceOnUse" id="clipPath41">
                <path d="M549 9 L792 9 L792 141 L549 141 L549 9 Z"/>
            </clipPath>
            <clipPath clipPathUnits="userSpaceOnUse" id="clipPath42">
                <path d="M730 270 L730 369 L970 369 L970 270 Z"/>
            </clipPath>
            <clipPath clipPathUnits="userSpaceOnUse" id="clipPath43">
                <path d="M816 272 L887 272 L887 289 L816 289 L816 272 Z"/>
            </clipPath>
            <clipPath clipPathUnits="userSpaceOnUse" id="clipPath44">
                <path d="M730 289 L972 289 L972 371 L730 371 L730 289 Z"/>
            </clipPath>
            <clipPath clipPathUnits="userSpaceOnUse" id="clipPath45">
                <path d="M729 269 L972 269 L972 371 L729 371 L729 269 Z"/>
            </clipPath>
            <clipPath clipPathUnits="userSpaceOnUse" id="clipPath46">
                <path d="M370 270 L370 369 L610 369 L610 270 Z"/>
            </clipPath>
            <clipPath clipPathUnits="userSpaceOnUse" id="clipPath47">
                <path d="M454 272 L529 272 L529 289 L454 289 L454 272 Z"/>
            </clipPath>
            <clipPath clipPathUnits="userSpaceOnUse" id="clipPath48">
                <path d="M370 289 L612 289 L612 371 L370 371 L370 289 Z"/>
            </clipPath>
            <clipPath clipPathUnits="userSpaceOnUse" id="clipPath49">
                <path d="M369 269 L612 269 L612 371 L369 371 L369 269 Z"/>
            </clipPath>
            <clipPath clipPathUnits="userSpaceOnUse" id="clipPath50">
                <path d="M550 570 L550 747 L790 747 L790 570 Z"/>
            </clipPath>
            <clipPath clipPathUnits="userSpaceOnUse" id="clipPath51">
                <path d="M638 572 L705 572 L705 589 L638 589 L638 572 Z"/>
            </clipPath>
            <clipPath clipPathUnits="userSpaceOnUse" id="clipPath52">
                <path d="M555 591 L702 591 L702 608 L555 608 L555 591 Z"/>
            </clipPath>
            <clipPath clipPathUnits="userSpaceOnUse" id="clipPath53">
                <path d="M555 607 L693 607 L693 624 L555 624 L555 607 Z"/>
            </clipPath>
            <clipPath clipPathUnits="userSpaceOnUse" id="clipPath54">
                <path d="M555 623 L674 623 L674 640 L555 640 L555 623 Z"/>
            </clipPath>
            <clipPath clipPathUnits="userSpaceOnUse" id="clipPath55">
                <path d="M555 639 L776 639 L776 656 L555 656 L555 639 Z"/>
            </clipPath>
            <clipPath clipPathUnits="userSpaceOnUse" id="clipPath56">
                <path d="M555 655 L661 655 L661 672 L555 672 L555 655 Z"/>
            </clipPath>
            <clipPath clipPathUnits="userSpaceOnUse" id="clipPath57">
                <path d="M555 671 L688 671 L688 688 L555 688 L555 671 Z"/>
            </clipPath>
            <clipPath clipPathUnits="userSpaceOnUse" id="clipPath58">
                <path d="M555 687 L784 687 L784 704 L555 704 L555 687 Z"/>
            </clipPath>
            <clipPath clipPathUnits="userSpaceOnUse" id="clipPath59">
                <path d="M550 589 L792 589 L792 749 L550 749 L550 589 Z"/>
            </clipPath>
            <clipPath clipPathUnits="userSpaceOnUse" id="clipPath60">
                <path d="M549 569 L792 569 L792 749 L549 749 L549 569 Z"/>
            </clipPath>
            <clipPath clipPathUnits="userSpaceOnUse" id="clipPath61">
                <path d="M1050 10 L1050 170 L1290 170 L1290 10 Z"/>
            </clipPath>
            <clipPath clipPathUnits="userSpaceOnUse" id="clipPath62">
                <path d="M1144 12 L1199 12 L1199 29 L1144 29 L1144 12 Z"/>
            </clipPath>
            <clipPath clipPathUnits="userSpaceOnUse" id="clipPath63">
                <path d="M1127 28 L1216 28 L1216 45 L1127 45 L1127 28 Z"/>
            </clipPath>
            <clipPath clipPathUnits="userSpaceOnUse" id="clipPath64">
                <path d="M1055 47 L1174 47 L1174 64 L1055 64 L1055 47 Z"/>
            </clipPath>
            <clipPath clipPathUnits="userSpaceOnUse" id="clipPath65">
                <path d="M1055 63 L1276 63 L1276 80 L1055 80 L1055 63 Z"/>
            </clipPath>
            <clipPath clipPathUnits="userSpaceOnUse" id="clipPath66">
                <path d="M1055 79 L1263 79 L1263 96 L1055 96 L1055 79 Z"/>
            </clipPath>
            <clipPath clipPathUnits="userSpaceOnUse" id="clipPath67">
                <path d="M1055 95 L1257 95 L1257 112 L1055 112 L1055 95 Z"/>
            </clipPath>
            <clipPath clipPathUnits="userSpaceOnUse" id="clipPath68">
                <path d="M1055 111 L1269 111 L1269 128 L1055 128 L1055 111 Z"/>
            </clipPath>
            <clipPath clipPathUnits="userSpaceOnUse" id="clipPath69">
                <path d="M1050 45 L1292 45 L1292 172 L1050 172 L1050 45 Z"/>
            </clipPath>
            <clipPath clipPathUnits="userSpaceOnUse" id="clipPath70">
                <path d="M1049 9 L1292 9 L1292 172 L1049 172 L1049 9 Z"/>
            </clipPath>
            <clipPath clipPathUnits="userSpaceOnUse" id="clipPath71">
                <path d="M1730 171 L1730 283 L1969 283 L1969 171 Z"/>
            </clipPath>
            <clipPath clipPathUnits="userSpaceOnUse" id="clipPath72">
                <path d="M1805 173 L1896 173 L1896 190 L1805 190 L1805 173 Z"/>
            </clipPath>
            <clipPath clipPathUnits="userSpaceOnUse" id="clipPath73">
                <path d="M1827 189 L1875 189 L1875 206 L1827 206 L1827 189 Z"/>
            </clipPath>
            <clipPath clipPathUnits="userSpaceOnUse" id="clipPath74">
                <path d="M1735 208 L1965 208 L1965 225 L1735 225 L1735 208 Z"/>
            </clipPath>
            <clipPath clipPathUnits="userSpaceOnUse" id="clipPath75">
                <path d="M1735 224 L1835 224 L1835 241 L1735 241 L1735 224 Z"/>
            </clipPath>
            <clipPath clipPathUnits="userSpaceOnUse" id="clipPath76">
                <path d="M1730 206 L1971 206 L1971 285 L1730 285 L1730 206 Z"/>
            </clipPath>
            <clipPath clipPathUnits="userSpaceOnUse" id="clipPath77">
                <path d="M1729 170 L1971 170 L1971 285 L1729 285 L1729 170 Z"/>
            </clipPath>
            <clipPath clipPathUnits="userSpaceOnUse" id="clipPath78">
                <path d="M1910 371 L1910 470 L2149 470 L2149 371 Z"/>
            </clipPath>
            <clipPath clipPathUnits="userSpaceOnUse" id="clipPath79">
                <path d="M1985 373 L2076 373 L2076 390 L1985 390 L1985 373 Z"/>
            </clipPath>
            <clipPath clipPathUnits="userSpaceOnUse" id="clipPath80">
                <path d="M1987 389 L2075 389 L2075 406 L1987 406 L1987 389 Z"/>
            </clipPath>
            <clipPath clipPathUnits="userSpaceOnUse" id="clipPath81">
                <path d="M1915 408 L2122 408 L2122 425 L1915 425 L1915 408 Z"/>
            </clipPath>
            <clipPath clipPathUnits="userSpaceOnUse" id="clipPath82">
                <path d="M1910 406 L2151 406 L2151 472 L1910 472 L1910 406 Z"/>
            </clipPath>
            <clipPath clipPathUnits="userSpaceOnUse" id="clipPath83">
                <path d="M1909 370 L2151 370 L2151 472 L1909 472 L1909 370 Z"/>
            </clipPath>
            <clipPath clipPathUnits="userSpaceOnUse" id="clipPath84">
                <path d="M1908 691 L1908 790 L2148 790 L2148 691 Z"/>
            </clipPath>
            <clipPath clipPathUnits="userSpaceOnUse" id="clipPath85">
                <path d="M1984 693 L2075 693 L2075 710 L1984 710 L1984 693 Z"/>
            </clipPath>
            <clipPath clipPathUnits="userSpaceOnUse" id="clipPath86">
                <path d="M1983 709 L2076 709 L2076 726 L1983 726 L1983 709 Z"/>
            </clipPath>
            <clipPath clipPathUnits="userSpaceOnUse" id="clipPath87">
                <path d="M1913 728 L2141 728 L2141 745 L1913 745 L1913 728 Z"/>
            </clipPath>
            <clipPath clipPathUnits="userSpaceOnUse" id="clipPath88">
                <path d="M1908 726 L2150 726 L2150 792 L1908 792 L1908 726 Z"/>
            </clipPath>
            <clipPath clipPathUnits="userSpaceOnUse" id="clipPath89">
                <path d="M1907 690 L2150 690 L2150 792 L1907 792 L1907 690 Z"/>
            </clipPath>
            <clipPath clipPathUnits="userSpaceOnUse" id="clipPath90">
                <path d="M10 570 L10 669 L250 669 L250 570 Z"/>
            </clipPath>
            <clipPath clipPathUnits="userSpaceOnUse" id="clipPath91">
                <path d="M101 572 L162 572 L162 589 L101 589 L101 572 Z"/>
            </clipPath>
            <clipPath clipPathUnits="userSpaceOnUse" id="clipPath92">
                <path d="M76 588 L186 588 L186 605 L76 605 L76 588 Z"/>
            </clipPath>
            <clipPath clipPathUnits="userSpaceOnUse" id="clipPath93">
                <path d="M10 605 L252 605 L252 671 L10 671 L10 605 Z"/>
            </clipPath>
            <clipPath clipPathUnits="userSpaceOnUse" id="clipPath94">
                <path d="M9 569 L252 569 L252 671 L9 671 L9 569 Z"/>
            </clipPath>
            <clipPath clipPathUnits="userSpaceOnUse" id="clipPath95">
                <path d="M2310 171 L2310 270 L2549 270 L2549 171 Z"/>
            </clipPath>
            <clipPath clipPathUnits="userSpaceOnUse" id="clipPath96">
                <path d="M2399 173 L2462 173 L2462 190 L2399 190 L2399 173 Z"/>
            </clipPath>
            <clipPath clipPathUnits="userSpaceOnUse" id="clipPath97">
                <path d="M2372 189 L2489 189 L2489 206 L2372 206 L2372 189 Z"/>
            </clipPath>
            <clipPath clipPathUnits="userSpaceOnUse" id="clipPath98">
                <path d="M2315 208 L2460 208 L2460 225 L2315 225 L2315 208 Z"/>
            </clipPath>
            <clipPath clipPathUnits="userSpaceOnUse" id="clipPath99">
                <path d="M2315 224 L2450 224 L2450 241 L2315 241 L2315 224 Z"/>
            </clipPath>
            <clipPath clipPathUnits="userSpaceOnUse" id="clipPath100">
                <path d="M2310 206 L2551 206 L2551 272 L2310 272 L2310 206 Z"/>
            </clipPath>
            <clipPath clipPathUnits="userSpaceOnUse" id="clipPath101">
                <path d="M2309 170 L2551 170 L2551 272 L2309 272 L2309 170 Z"/>
            </clipPath>
            <clipPath clipPathUnits="userSpaceOnUse" id="clipPath102">
                <path d="M-1 -1 L2562 -1 L2562 1442 L-1 1442 L-1 -1 Z"/>
            </clipPath>
            <clipPath clipPathUnits="userSpaceOnUse" id="clipPath103">
                <path d="M1664 110 L1677 110 L1677 128 L1664 128 L1664 110 Z"/>
            </clipPath>
            <clipPath clipPathUnits="userSpaceOnUse" id="clipPath104">
                <path d="M1829 1150 L1841 1150 L1841 1167 L1829 1167 L1829 1150 Z"/>
            </clipPath>
            <clipPath clipPathUnits="userSpaceOnUse" id="clipPath105">
                <path d="M1869 1290 L1880 1290 L1880 1307 L1869 1307 L1869 1290 Z"/>
            </clipPath>
            <clipPath clipPathUnits="userSpaceOnUse" id="clipPath106">
                <path d="M661 139 L680 139 L680 152 L661 152 L661 139 Z"/>
            </clipPath>
            <clipPath clipPathUnits="userSpaceOnUse" id="clipPath107">
                <path d="M809 414 L832 414 L832 431 L809 431 L809 414 Z"/>
            </clipPath>
            <clipPath clipPathUnits="userSpaceOnUse" id="clipPath108">
                <path d="M755 531 L767 531 L767 548 L755 548 L755 531 Z"/>
            </clipPath>
            <clipPath clipPathUnits="userSpaceOnUse" id="clipPath109">
                <path d="M449 414 L472 414 L472 431 L449 431 L449 414 Z"/>
            </clipPath>
            <clipPath clipPathUnits="userSpaceOnUse" id="clipPath110">
                <path d="M635 529 L647 529 L647 546 L635 546 L635 529 Z"/>
            </clipPath>
            <clipPath clipPathUnits="userSpaceOnUse" id="clipPath111">
                <path d="M1841 283 L1860 283 L1860 296 L1841 296 L1841 283 Z"/>
            </clipPath>
            <clipPath clipPathUnits="userSpaceOnUse" id="clipPath112">
                <path d="M1841 630 L1860 630 L1860 643 L1841 643 L1841 630 Z"/>
            </clipPath>
            <clipPath clipPathUnits="userSpaceOnUse" id="clipPath113">
                <path d="M359 630 L433 630 L433 647 L359 647 L359 630 Z"/>
            </clipPath>
            <clipPath clipPathUnits="userSpaceOnUse" id="clipPath114">
                <path d="M534 605 L552 605 L552 618 L534 618 L534 605 Z"/>
            </clipPath>
        </defs>
        <g fill="url(#linearGradient1)" stroke-miterlimit="0" stroke-width="0" font-family="'Segoe UI'" stroke="url(#linearGradient1)" stroke-linejoin="round">
            <rect x="1550" width="241" height="100" y="11" clip-path="url(#clipPath1)" stroke="none"/>
            <text fill="black" x="1642" xml:space="preserve" y="27" clip-path="url(#clipPath2)" stroke="none">«Interface»</text>
            <text fill="black" x="1613" xml:space="preserve" y="43" clip-path="url(#clipPath3)" stroke="none">IControlledVocabulary</text>
            <text fill="black" x="1556" xml:space="preserve" y="62" clip-path="url(#clipPath4)" stroke="none">«ReferenceCode»   code: Identifier [1]</text>
        </g>
        <g stroke-linecap="butt" font-family="'Segoe UI'" stroke-width="1.1">
            <line y2="47" fill="none" x1="1550" clip-path="url(#clipPath5)" x2="1791" y1="47"/>
            <rect x="1550" y="11" clip-path="url(#clipPath6)" fill="none" width="240" rx="0" ry="0" height="99"/>
            <rect x="1729" y="531" clip-path="url(#clipPath7)" fill="url(#linearGradient2)" width="241" height="100" stroke="none"/>
            <text x="1806" xml:space="preserve" y="547" clip-path="url(#clipPath8)" stroke="none">«ReferenceData»</text>
            <text x="1832" xml:space="preserve" y="563" clip-path="url(#clipPath9)" stroke="none">Ledger</text>
            <line y2="567" fill="none" x1="1729" clip-path="url(#clipPath10)" x2="1970" y1="567"/>
            <rect x="1729" y="531" clip-path="url(#clipPath11)" fill="none" width="240" rx="0" ry="0" height="99"/>
            <rect x="1729" y="851" clip-path="url(#clipPath12)" fill="url(#linearGradient3)" width="241" height="100" stroke="none"/>
            <text x="1806" xml:space="preserve" y="867" clip-path="url(#clipPath13)" stroke="none">«ReferenceData»</text>
            <text x="1831" xml:space="preserve" y="883" clip-path="url(#clipPath14)" stroke="none">Journal</text>
            <line y2="887" fill="none" x1="1729" clip-path="url(#clipPath15)" x2="1970" y1="887"/>
            <rect x="1729" y="851" clip-path="url(#clipPath16)" fill="none" width="240" rx="0" ry="0" height="99"/>
            <rect x="1729" y="1011" clip-path="url(#clipPath17)" fill="url(#linearGradient4)" width="241" height="100" stroke="none"/>
            <text x="1806" xml:space="preserve" y="1027" clip-path="url(#clipPath18)" stroke="none">«ReferenceData»</text>
            <text x="1824" xml:space="preserve" y="1043" clip-path="url(#clipPath19)" stroke="none">FiscalYear</text>
            <line y2="1047" fill="none" x1="1729" clip-path="url(#clipPath20)" x2="1970" y1="1047"/>
            <rect x="1729" y="1011" clip-path="url(#clipPath21)" fill="none" width="240" rx="0" ry="0" height="99"/>
            <rect x="1729" y="1331" clip-path="url(#clipPath22)" fill="url(#linearGradient5)" width="241" height="100" stroke="none"/>
            <text x="1806" xml:space="preserve" y="1347" clip-path="url(#clipPath23)" stroke="none">«ReferenceData»</text>
            <text x="1802" xml:space="preserve" y="1363" clip-path="url(#clipPath24)" stroke="none">AccountingPeriod</text>
            <line y2="1367" fill="none" x1="1729" clip-path="url(#clipPath25)" x2="1970" y1="1367"/>
            <rect x="1729" y="1331" clip-path="url(#clipPath26)" fill="none" width="240" rx="0" ry="0" height="99"/>
            <rect x="2310" y="10" clip-path="url(#clipPath27)" fill="url(#linearGradient6)" width="241" height="100" stroke="none"/>
            <text x="2401" xml:space="preserve" y="26" clip-path="url(#clipPath28)" stroke="none">«DataType»</text>
            <text x="2374" xml:space="preserve" y="42" clip-path="url(#clipPath29)" stroke="none">OriginatingTransation</text>
            <text x="2316" xml:space="preserve" y="61" clip-path="url(#clipPath30)" stroke="none">  transactionOrigin: Identifier [1]</text>
            <text x="2316" xml:space="preserve" y="77" clip-path="url(#clipPath31)" stroke="none">  transactionId: Identifier [1]</text>
            <line y2="46" fill="none" x1="2310" clip-path="url(#clipPath32)" x2="2551" y1="46"/>
            <rect x="2310" y="10" clip-path="url(#clipPath33)" fill="none" width="240" rx="0" ry="0" height="99"/>
            <rect x="550" y="10" clip-path="url(#clipPath34)" fill="url(#linearGradient7)" width="241" height="130" stroke="none"/>
            <text x="639" y="26" clip-path="url(#clipPath35)" fill="rgb(169,169,169)" font-style="italic" stroke="none" xml:space="preserve">LedgerEntry</text>
            <text x="556" xml:space="preserve" y="45" clip-path="url(#clipPath36)" stroke="none">  account: Account [1]</text>
            <text x="556" xml:space="preserve" y="61" clip-path="url(#clipPath37)" stroke="none">  value: CurrencyAmount [1]</text>
            <text x="556" xml:space="preserve" y="77" clip-path="url(#clipPath38)" stroke="none">  postingDate: Date [1]</text>
            <text x="556" xml:space="preserve" y="93" clip-path="url(#clipPath39)" stroke="none">  accountingPeriod: AccountingPeriod [1]</text>
            <line y2="30" fill="none" x1="550" clip-path="url(#clipPath40)" x2="791" y1="30"/>
            <rect x="550" y="10" clip-path="url(#clipPath41)" fill="none" width="240" rx="0" ry="0" height="129"/>
            <rect x="730" y="270" clip-path="url(#clipPath42)" fill="url(#linearGradient8)" width="241" height="100" stroke="none"/>
            <text x="817" xml:space="preserve" y="286" clip-path="url(#clipPath43)" stroke="none">DebitPosting</text>
            <line y2="290" fill="none" x1="730" clip-path="url(#clipPath44)" x2="971" y1="290"/>
            <rect x="730" y="270" clip-path="url(#clipPath45)" fill="none" width="240" rx="0" ry="0" height="99"/>
            <rect x="370" y="270" clip-path="url(#clipPath46)" fill="url(#linearGradient9)" width="241" height="100" stroke="none"/>
            <text x="455" xml:space="preserve" y="286" clip-path="url(#clipPath47)" stroke="none">CreditPosting</text>
            <line y2="290" fill="none" x1="370" clip-path="url(#clipPath48)" x2="611" y1="290"/>
            <rect x="370" y="270" clip-path="url(#clipPath49)" fill="none" width="240" rx="0" ry="0" height="99"/>
            <rect x="550" y="570" clip-path="url(#clipPath50)" fill="url(#linearGradient10)" width="241" height="178" stroke="none"/>
            <text x="639" xml:space="preserve" y="586" clip-path="url(#clipPath51)" stroke="none">JournalEntry</text>
            <text x="556" xml:space="preserve" y="605" clip-path="url(#clipPath52)" stroke="none">  transactionId: Identifier [1]</text>
            <text x="556" xml:space="preserve" y="621" clip-path="url(#clipPath53)" stroke="none">  transactionDate: Date [1]</text>
            <text x="556" xml:space="preserve" y="637" clip-path="url(#clipPath54)" stroke="none">  postingDate: Date [1]</text>
            <text x="556" xml:space="preserve" y="653" clip-path="url(#clipPath55)" stroke="none">  accountingPeriod: AccountingPeriod [1]</text>
            <text x="556" xml:space="preserve" y="669" clip-path="url(#clipPath56)" stroke="none">  journal: Journal [1]</text>
            <text x="556" xml:space="preserve" y="685" clip-path="url(#clipPath57)" stroke="none">  description: String [0..1]</text>
            <text x="556" xml:space="preserve" y="701" clip-path="url(#clipPath58)" stroke="none">  originatingTransaction: OriginatingTrans...</text>
            <line y2="590" fill="none" x1="550" clip-path="url(#clipPath59)" x2="791" y1="590"/>
            <rect x="550" y="570" clip-path="url(#clipPath60)" fill="none" width="240" rx="0" ry="0" height="177"/>
            <rect x="1050" y="10" clip-path="url(#clipPath61)" fill="url(#linearGradient11)" width="241" height="161" stroke="none"/>
            <text x="1145" xml:space="preserve" y="26" clip-path="url(#clipPath62)" stroke="none">«Derived»</text>
            <text x="1128" xml:space="preserve" y="42" clip-path="url(#clipPath63)" stroke="none">AccountBalance</text>
            <text x="1056" xml:space="preserve" y="61" clip-path="url(#clipPath64)" stroke="none">  account: Account [1]</text>
            <text x="1056" xml:space="preserve" y="77" clip-path="url(#clipPath65)" stroke="none">  accountingPeriod: AccountingPeriod [1]</text>
            <text x="1056" xml:space="preserve" y="93" clip-path="url(#clipPath66)" stroke="none">  openingBalance: CurrencyAmount [1]</text>
            <text x="1056" xml:space="preserve" y="109" clip-path="url(#clipPath67)" stroke="none">  currentBalance: CurrencyAmount [1]</text>
            <text x="1056" xml:space="preserve" y="125" clip-path="url(#clipPath68)" stroke="none">  closingBalance: CurrencyAmount [0..1]</text>
            <line y2="46" fill="none" x1="1050" clip-path="url(#clipPath69)" x2="1291" y1="46"/>
            <rect x="1050" y="10" clip-path="url(#clipPath70)" fill="none" width="240" rx="0" ry="0" height="160"/>
            <rect x="1730" y="171" clip-path="url(#clipPath71)" fill="url(#linearGradient12)" width="240" height="113" stroke="none"/>
            <text x="1806" xml:space="preserve" y="187" clip-path="url(#clipPath72)" stroke="none">«ReferenceData»</text>
            <text x="1828" xml:space="preserve" y="203" clip-path="url(#clipPath73)" stroke="none">Account</text>
            <text x="1736" xml:space="preserve" y="222" clip-path="url(#clipPath74)" stroke="none">«Unique»   accountCombination: Accoun...</text>
            <text x="1736" xml:space="preserve" y="238" clip-path="url(#clipPath75)" stroke="none">  ledger: Ledger [1]</text>
            <line y2="207" fill="none" x1="1730" clip-path="url(#clipPath76)" x2="1970" y1="207"/>
            <rect x="1730" y="171" clip-path="url(#clipPath77)" fill="none" width="239" rx="0" ry="0" height="112"/>
            <rect x="1910" y="371" clip-path="url(#clipPath78)" fill="url(#linearGradient13)" width="240" height="100" stroke="none"/>
            <text x="1986" xml:space="preserve" y="387" clip-path="url(#clipPath79)" stroke="none">«ReferenceData»</text>
            <text x="1988" xml:space="preserve" y="403" clip-path="url(#clipPath80)" stroke="none">ControlAccount</text>
            <text x="1916" xml:space="preserve" y="422" clip-path="url(#clipPath81)" stroke="none">  subsidaryLedger: SubsidiaryLedger [1]</text>
            <line y2="407" fill="none" x1="1910" clip-path="url(#clipPath82)" x2="2150" y1="407"/>
            <rect x="1910" y="371" clip-path="url(#clipPath83)" fill="none" width="239" rx="0" ry="0" height="99"/>
            <rect x="1908" y="691" clip-path="url(#clipPath84)" fill="url(#linearGradient14)" width="241" height="100" stroke="none"/>
            <text x="1985" xml:space="preserve" y="707" clip-path="url(#clipPath85)" stroke="none">«ReferenceData»</text>
            <text x="1984" xml:space="preserve" y="723" clip-path="url(#clipPath86)" stroke="none">SubsidiaryLedger</text>
            <text x="1914" xml:space="preserve" y="742" clip-path="url(#clipPath87)" stroke="none">  ledgerAdjustmentAccount: Account [0..1]</text>
            <line y2="727" fill="none" x1="1908" clip-path="url(#clipPath88)" x2="2149" y1="727"/>
            <rect x="1908" y="691" clip-path="url(#clipPath89)" fill="none" width="240" rx="0" ry="0" height="99"/>
            <rect x="10" y="570" clip-path="url(#clipPath90)" fill="url(#linearGradient15)" width="241" height="100" stroke="none"/>
            <text x="102" xml:space="preserve" y="586" clip-path="url(#clipPath91)" stroke="none">«Interface»</text>
            <text x="77" xml:space="preserve" y="602" clip-path="url(#clipPath92)" stroke="none">IBusinessTransaction</text>
            <line y2="606" fill="none" x1="10" clip-path="url(#clipPath93)" x2="251" y1="606"/>
            <rect x="10" y="570" clip-path="url(#clipPath94)" fill="none" width="240" rx="0" ry="0" height="99"/>
            <rect x="2310" y="171" clip-path="url(#clipPath95)" fill="url(#linearGradient16)" width="240" height="100" stroke="none"/>
            <text x="2400" xml:space="preserve" y="187" clip-path="url(#clipPath96)" stroke="none">«DataType»</text>
            <text x="2373" xml:space="preserve" y="203" clip-path="url(#clipPath97)" stroke="none">AccountCombination</text>
            <text x="2316" xml:space="preserve" y="222" clip-path="url(#clipPath98)" stroke="none">  glAccount: GLAccount [1]</text>
            <text x="2316" xml:space="preserve" y="238" clip-path="url(#clipPath99)" stroke="none">  segment: Segment [1..*]</text>
            <line y2="207" fill="none" x1="2310" clip-path="url(#clipPath100)" x2="2550" y1="207"/>
            <rect x="2310" y="171" clip-path="url(#clipPath101)" fill="none" width="239" rx="0" ry="0" height="99"/>
            <line clip-path="url(#clipPath102)" fill="none" text-rendering="optimizeLegibility" x1="1729" x2="1670" y1="571" y2="571" stroke-dasharray="5,5,5,5,5,5,5,5,5,5"/>
            <line clip-path="url(#clipPath102)" fill="none" text-rendering="optimizeLegibility" x1="1670" x2="1670" y1="571" y2="111" stroke-dasharray="5,5,5,5,5,5,5,5,5,5"/>
        </g>
        <g stroke-linecap="butt" fill="white" text-rendering="optimizeLegibility" font-family="'Segoe UI'" stroke-dasharray="5,5,5,5,5,5,5,5,5,5" stroke="white" stroke-width="1.1">
            <polygon points=" 1670 111 1675 126 1665 126" stroke="none" clip-path="url(#clipPath103)"/>
            <polygon fill="none" stroke-dasharray="none" clip-path="url(#clipPath103)" points=" 1670 111 1675 126 1665 126" stroke="black"/>
            <line clip-path="url(#clipPath102)" fill="none" x1="1729" x2="1670" y1="891" y2="891" stroke="black"/>
            <line clip-path="url(#clipPath102)" fill="none" x1="1670" x2="1670" y1="891" y2="111" stroke="black"/>
            <polygon points=" 1670 111 1675 126 1665 126" clip-path="url(#clipPath103)" stroke="none"/>
            <polygon fill="none" stroke-dasharray="none" clip-path="url(#clipPath103)" points=" 1670 111 1675 126 1665 126" stroke="black"/>
            <line clip-path="url(#clipPath102)" fill="none" x1="1729" x2="1670" y1="1051" y2="1051" stroke="black"/>
            <line clip-path="url(#clipPath102)" fill="none" x1="1670" x2="1670" y1="1051" y2="111" stroke="black"/>
            <polygon points=" 1670 111 1675 126 1665 126" clip-path="url(#clipPath103)" stroke="none"/>
            <polygon fill="none" stroke-dasharray="none" clip-path="url(#clipPath103)" points=" 1670 111 1675 126 1665 126" stroke="black"/>
            <line clip-path="url(#clipPath102)" fill="none" x1="1729" x2="1670" y1="1371" y2="1371" stroke="black"/>
            <line clip-path="url(#clipPath102)" fill="none" x1="1670" x2="1670" y1="1371" y2="111" stroke="black"/>
            <polygon points=" 1670 111 1675 126 1665 126" clip-path="url(#clipPath103)" stroke="none"/>
            <polygon fill="none" stroke-dasharray="none" clip-path="url(#clipPath103)" points=" 1670 111 1675 126 1665 126" stroke="black"/>
            <line clip-path="url(#clipPath102)" fill="none" x1="1850" x2="1850" y1="1111" y2="1221" stroke-dasharray="none" stroke="black"/>
            <line clip-path="url(#clipPath102)" fill="none" x1="1850" x2="1850" y1="1221" y2="1331" stroke-dasharray="none" stroke="black"/>
            <text x="1830" y="1164" clip-path="url(#clipPath104)" fill="black" stroke-dasharray="none" stroke="none" xml:space="preserve"> 1</text>
            <text x="1870" y="1304" clip-path="url(#clipPath105)" fill="black" stroke-dasharray="none" stroke="none" xml:space="preserve"> *</text>
            <line clip-path="url(#clipPath102)" fill="none" x1="850" x2="850" y1="270" y2="211" stroke-dasharray="none" stroke="black"/>
            <line clip-path="url(#clipPath102)" fill="none" x1="850" x2="670" y1="211" y2="211" stroke-dasharray="none" stroke="black"/>
            <line clip-path="url(#clipPath102)" fill="none" x1="670" x2="670" y1="211" y2="140" stroke-dasharray="none" stroke="black"/>
            <polygon stroke-dasharray="none" clip-path="url(#clipPath106)" points=" 670 140 678 150 662 150" stroke="none"/>
            <polygon fill="none" stroke-dasharray="none" clip-path="url(#clipPath106)" points=" 670 140 678 150 662 150" stroke="black"/>
            <line clip-path="url(#clipPath102)" fill="none" x1="490" x2="490" y1="270" y2="211" stroke-dasharray="none" stroke="black"/>
            <line clip-path="url(#clipPath102)" fill="none" x1="490" x2="670" y1="211" y2="211" stroke-dasharray="none" stroke="black"/>
            <line clip-path="url(#clipPath102)" fill="none" x1="670" x2="670" y1="211" y2="140" stroke-dasharray="none" stroke="black"/>
            <polygon stroke-dasharray="none" clip-path="url(#clipPath106)" points=" 670 140 678 150 662 150" stroke="none"/>
            <polygon fill="none" stroke-dasharray="none" clip-path="url(#clipPath106)" points=" 670 140 678 150 662 150" stroke="black"/>
            <line clip-path="url(#clipPath102)" fill="none" x1="850" x2="850" y1="370" y2="470" stroke-dasharray="none" stroke="black"/>
            <line clip-path="url(#clipPath102)" fill="none" x1="850" x2="730" y1="470" y2="470" stroke-dasharray="none" stroke="black"/>
            <line clip-path="url(#clipPath102)" fill="none" x1="730" x2="730" y1="470" y2="570" stroke-dasharray="none" stroke="black"/>
            <text x="810" y="428" clip-path="url(#clipPath107)" fill="black" stroke-dasharray="none" stroke="none" xml:space="preserve"> 1..*</text>
            <text x="756" y="545" clip-path="url(#clipPath108)" fill="black" stroke-dasharray="none" stroke="none" xml:space="preserve"> 1</text>
            <line clip-path="url(#clipPath102)" fill="none" x1="490" x2="490" y1="370" y2="470" stroke-dasharray="none" stroke="black"/>
            <line clip-path="url(#clipPath102)" fill="none" x1="490" x2="610" y1="470" y2="470" stroke-dasharray="none" stroke="black"/>
            <line clip-path="url(#clipPath102)" fill="none" x1="610" x2="610" y1="470" y2="570" stroke-dasharray="none" stroke="black"/>
            <text x="450" y="428" clip-path="url(#clipPath109)" fill="black" stroke-dasharray="none" stroke="none" xml:space="preserve"> 1..*</text>
            <text x="636" y="543" clip-path="url(#clipPath110)" fill="black" stroke-dasharray="none" stroke="none" xml:space="preserve"> 1</text>
            <line clip-path="url(#clipPath102)" fill="none" x1="1910" x2="1850" y1="411" y2="411" stroke-dasharray="none" stroke="black"/>
            <line clip-path="url(#clipPath102)" fill="none" x1="1850" x2="1850" y1="411" y2="284" stroke-dasharray="none" stroke="black"/>
            <polygon stroke-dasharray="none" clip-path="url(#clipPath111)" points=" 1850 284 1858 294 1842 294" stroke="none"/>
            <polygon fill="none" stroke-dasharray="none" clip-path="url(#clipPath111)" points=" 1850 284 1858 294 1842 294" stroke="black"/>
            <line clip-path="url(#clipPath102)" fill="none" x1="1908" x2="1850" y1="731" y2="731" stroke-dasharray="none" stroke="black"/>
            <line clip-path="url(#clipPath102)" fill="none" x1="1850" x2="1850" y1="731" y2="631" stroke-dasharray="none" stroke="black"/>
            <polygon stroke-dasharray="none" clip-path="url(#clipPath112)" points=" 1850 631 1858 641 1842 641" stroke="none"/>
            <polygon fill="none" stroke-dasharray="none" clip-path="url(#clipPath112)" points=" 1850 631 1858 641 1842 641" stroke="black"/>
            <line clip-path="url(#clipPath102)" fill="none" x1="251" x2="550" y1="611" y2="611" stroke="black"/>
            <text fill="black" x="360" xml:space="preserve" y="644" clip-path="url(#clipPath113)" stroke="none">«abstraction»</text>
            <line clip-path="url(#clipPath114)" fill="none" x1="535" x2="550" y1="616" y2="611" stroke-dasharray="none" stroke="black"/>
            <line clip-path="url(#clipPath114)" fill="none" x1="550" x2="535" y1="611" y2="606" stroke-dasharray="none" stroke="black"/>
            <line clip-path="url(#clipPath102)" fill="none" x1="1730" x2="1670" y1="211" y2="211" stroke="black"/>
            <line clip-path="url(#clipPath102)" fill="none" x1="1670" x2="1670" y1="211" y2="111" stroke="black"/>
            <polygon points=" 1670 111 1675 126 1665 126" clip-path="url(#clipPath103)" stroke="none"/>
            <polygon fill="none" stroke-dasharray="none" clip-path="url(#clipPath103)" points=" 1670 111 1675 126 1665 126" stroke="black"/>
        </g>
    </g>
</svg>
