<?xml version="1.0" encoding="UTF-8"?><svg xmlns="http://www.w3.org/2000/svg" xmlns:xlink="http://www.w3.org/1999/xlink" stroke-dasharray="none" shape-rendering="auto" font-family="'Dialog'" width="1301" text-rendering="auto" fill-opacity="1" contentScriptType="text/ecmascript" color-interpolation="auto" color-rendering="auto" preserveAspectRatio="xMidYMid meet" font-size="12px" viewBox="0 0 1301 758" fill="black" stroke="black" image-rendering="auto" stroke-miterlimit="10" zoomAndPan="magnify" version="1.0" stroke-linecap="square" stroke-linejoin="miter" contentStyleType="text/css" font-style="normal" height="758" stroke-width="1" stroke-dashoffset="0" font-weight="normal" stroke-opacity="1">
    <!--Generated by the Batik Graphics2D SVG Generator-->
    <defs id="genericDefs"/>
    <g>
        <defs id="defs1">
            <linearGradient x1="1050" x2="1050" y1="571" gradientUnits="userSpaceOnUse" y2="671" xlink:type="simple" xlink:actuate="onLoad" id="linearGradient1" xlink:show="other" spreadMethod="pad">
                <stop stop-opacity="1" stop-color="white" offset="0%"/>
                <stop stop-opacity="1" stop-color="rgb(163,199,173)" offset="100%"/>
            </linearGradient>
            <linearGradient x1="550" x2="550" y1="10" gradientUnits="userSpaceOnUse" y2="140" xlink:type="simple" xlink:actuate="onLoad" id="linearGradient2" xlink:show="other" spreadMethod="pad">
                <stop stop-opacity="1" stop-color="white" offset="0%"/>
                <stop stop-opacity="1" stop-color="rgb(195,215,221)" offset="100%"/>
            </linearGradient>
            <linearGradient x1="730" x2="730" y1="270" gradientUnits="userSpaceOnUse" y2="370" xlink:type="simple" xlink:actuate="onLoad" id="linearGradient3" xlink:show="other" spreadMethod="pad">
                <stop stop-opacity="1" stop-color="white" offset="0%"/>
                <stop stop-opacity="1" stop-color="rgb(195,215,221)" offset="100%"/>
            </linearGradient>
            <linearGradient x1="370" x2="370" y1="270" gradientUnits="userSpaceOnUse" y2="370" xlink:type="simple" xlink:actuate="onLoad" id="linearGradient4" xlink:show="other" spreadMethod="pad">
                <stop stop-opacity="1" stop-color="white" offset="0%"/>
                <stop stop-opacity="1" stop-color="rgb(195,215,221)" offset="100%"/>
            </linearGradient>
            <linearGradient x1="550" x2="550" y1="570" gradientUnits="userSpaceOnUse" y2="748" xlink:type="simple" xlink:actuate="onLoad" id="linearGradient5" xlink:show="other" spreadMethod="pad">
                <stop stop-opacity="1" stop-color="white" offset="0%"/>
                <stop stop-opacity="1" stop-color="rgb(195,215,221)" offset="100%"/>
            </linearGradient>
            <linearGradient x1="1050" x2="1050" y1="10" gradientUnits="userSpaceOnUse" y2="171" xlink:type="simple" xlink:actuate="onLoad" id="linearGradient6" xlink:show="other" spreadMethod="pad">
                <stop stop-opacity="1" stop-color="white" offset="0%"/>
                <stop stop-opacity="1" stop-color="rgb(195,215,221)" offset="100%"/>
            </linearGradient>
            <linearGradient x1="10" x2="10" y1="570" gradientUnits="userSpaceOnUse" y2="670" xlink:type="simple" xlink:actuate="onLoad" id="linearGradient7" xlink:show="other" spreadMethod="pad">
                <stop stop-opacity="1" stop-color="white" offset="0%"/>
                <stop stop-opacity="1" stop-color="rgb(131,135,205)" offset="100%"/>
            </linearGradient>
            <clipPath clipPathUnits="userSpaceOnUse" id="clipPath1">
                <path d="M1050 571 L1050 670 L1290 670 L1290 571 Z"/>
            </clipPath>
            <clipPath clipPathUnits="userSpaceOnUse" id="clipPath2">
                <path d="M1140 573 L1203 573 L1203 590 L1140 590 L1140 573 Z"/>
            </clipPath>
            <clipPath clipPathUnits="userSpaceOnUse" id="clipPath3">
                <path d="M1113 589 L1229 589 L1229 606 L1113 606 L1113 589 Z"/>
            </clipPath>
            <clipPath clipPathUnits="userSpaceOnUse" id="clipPath4">
                <path d="M1055 608 L1225 608 L1225 625 L1055 625 L1055 608 Z"/>
            </clipPath>
            <clipPath clipPathUnits="userSpaceOnUse" id="clipPath5">
                <path d="M1055 624 L1202 624 L1202 641 L1055 641 L1055 624 Z"/>
            </clipPath>
            <clipPath clipPathUnits="userSpaceOnUse" id="clipPath6">
                <path d="M1050 606 L1292 606 L1292 672 L1050 672 L1050 606 Z"/>
            </clipPath>
            <clipPath clipPathUnits="userSpaceOnUse" id="clipPath7">
                <path d="M1049 570 L1292 570 L1292 672 L1049 672 L1049 570 Z"/>
            </clipPath>
            <clipPath clipPathUnits="userSpaceOnUse" id="clipPath8">
                <path d="M550 10 L550 139 L790 139 L790 10 Z"/>
            </clipPath>
            <clipPath clipPathUnits="userSpaceOnUse" id="clipPath9">
                <path d="M638 12 L705 12 L705 29 L638 29 L638 12 Z"/>
            </clipPath>
            <clipPath clipPathUnits="userSpaceOnUse" id="clipPath10">
                <path d="M555 31 L674 31 L674 48 L555 48 L555 31 Z"/>
            </clipPath>
            <clipPath clipPathUnits="userSpaceOnUse" id="clipPath11">
                <path d="M555 47 L706 47 L706 64 L555 64 L555 47 Z"/>
            </clipPath>
            <clipPath clipPathUnits="userSpaceOnUse" id="clipPath12">
                <path d="M555 63 L674 63 L674 80 L555 80 L555 63 Z"/>
            </clipPath>
            <clipPath clipPathUnits="userSpaceOnUse" id="clipPath13">
                <path d="M555 79 L776 79 L776 96 L555 96 L555 79 Z"/>
            </clipPath>
            <clipPath clipPathUnits="userSpaceOnUse" id="clipPath14">
                <path d="M550 29 L792 29 L792 141 L550 141 L550 29 Z"/>
            </clipPath>
            <clipPath clipPathUnits="userSpaceOnUse" id="clipPath15">
                <path d="M549 9 L792 9 L792 141 L549 141 L549 9 Z"/>
            </clipPath>
            <clipPath clipPathUnits="userSpaceOnUse" id="clipPath16">
                <path d="M730 270 L730 369 L970 369 L970 270 Z"/>
            </clipPath>
            <clipPath clipPathUnits="userSpaceOnUse" id="clipPath17">
                <path d="M816 272 L887 272 L887 289 L816 289 L816 272 Z"/>
            </clipPath>
            <clipPath clipPathUnits="userSpaceOnUse" id="clipPath18">
                <path d="M730 289 L972 289 L972 371 L730 371 L730 289 Z"/>
            </clipPath>
            <clipPath clipPathUnits="userSpaceOnUse" id="clipPath19">
                <path d="M729 269 L972 269 L972 371 L729 371 L729 269 Z"/>
            </clipPath>
            <clipPath clipPathUnits="userSpaceOnUse" id="clipPath20">
                <path d="M370 270 L370 369 L610 369 L610 270 Z"/>
            </clipPath>
            <clipPath clipPathUnits="userSpaceOnUse" id="clipPath21">
                <path d="M454 272 L529 272 L529 289 L454 289 L454 272 Z"/>
            </clipPath>
            <clipPath clipPathUnits="userSpaceOnUse" id="clipPath22">
                <path d="M370 289 L612 289 L612 371 L370 371 L370 289 Z"/>
            </clipPath>
            <clipPath clipPathUnits="userSpaceOnUse" id="clipPath23">
                <path d="M369 269 L612 269 L612 371 L369 371 L369 269 Z"/>
            </clipPath>
            <clipPath clipPathUnits="userSpaceOnUse" id="clipPath24">
                <path d="M550 570 L550 747 L790 747 L790 570 Z"/>
            </clipPath>
            <clipPath clipPathUnits="userSpaceOnUse" id="clipPath25">
                <path d="M638 572 L705 572 L705 589 L638 589 L638 572 Z"/>
            </clipPath>
            <clipPath clipPathUnits="userSpaceOnUse" id="clipPath26">
                <path d="M555 591 L702 591 L702 608 L555 608 L555 591 Z"/>
            </clipPath>
            <clipPath clipPathUnits="userSpaceOnUse" id="clipPath27">
                <path d="M555 607 L693 607 L693 624 L555 624 L555 607 Z"/>
            </clipPath>
            <clipPath clipPathUnits="userSpaceOnUse" id="clipPath28">
                <path d="M555 623 L674 623 L674 640 L555 640 L555 623 Z"/>
            </clipPath>
            <clipPath clipPathUnits="userSpaceOnUse" id="clipPath29">
                <path d="M555 639 L776 639 L776 656 L555 656 L555 639 Z"/>
            </clipPath>
            <clipPath clipPathUnits="userSpaceOnUse" id="clipPath30">
                <path d="M555 655 L661 655 L661 672 L555 672 L555 655 Z"/>
            </clipPath>
            <clipPath clipPathUnits="userSpaceOnUse" id="clipPath31">
                <path d="M555 671 L688 671 L688 688 L555 688 L555 671 Z"/>
            </clipPath>
            <clipPath clipPathUnits="userSpaceOnUse" id="clipPath32">
                <path d="M555 687 L784 687 L784 704 L555 704 L555 687 Z"/>
            </clipPath>
            <clipPath clipPathUnits="userSpaceOnUse" id="clipPath33">
                <path d="M550 589 L792 589 L792 749 L550 749 L550 589 Z"/>
            </clipPath>
            <clipPath clipPathUnits="userSpaceOnUse" id="clipPath34">
                <path d="M549 569 L792 569 L792 749 L549 749 L549 569 Z"/>
            </clipPath>
            <clipPath clipPathUnits="userSpaceOnUse" id="clipPath35">
                <path d="M1050 10 L1050 170 L1290 170 L1290 10 Z"/>
            </clipPath>
            <clipPath clipPathUnits="userSpaceOnUse" id="clipPath36">
                <path d="M1144 12 L1199 12 L1199 29 L1144 29 L1144 12 Z"/>
            </clipPath>
            <clipPath clipPathUnits="userSpaceOnUse" id="clipPath37">
                <path d="M1127 28 L1216 28 L1216 45 L1127 45 L1127 28 Z"/>
            </clipPath>
            <clipPath clipPathUnits="userSpaceOnUse" id="clipPath38">
                <path d="M1055 47 L1174 47 L1174 64 L1055 64 L1055 47 Z"/>
            </clipPath>
            <clipPath clipPathUnits="userSpaceOnUse" id="clipPath39">
                <path d="M1055 63 L1276 63 L1276 80 L1055 80 L1055 63 Z"/>
            </clipPath>
            <clipPath clipPathUnits="userSpaceOnUse" id="clipPath40">
                <path d="M1055 79 L1263 79 L1263 96 L1055 96 L1055 79 Z"/>
            </clipPath>
            <clipPath clipPathUnits="userSpaceOnUse" id="clipPath41">
                <path d="M1055 95 L1257 95 L1257 112 L1055 112 L1055 95 Z"/>
            </clipPath>
            <clipPath clipPathUnits="userSpaceOnUse" id="clipPath42">
                <path d="M1055 111 L1269 111 L1269 128 L1055 128 L1055 111 Z"/>
            </clipPath>
            <clipPath clipPathUnits="userSpaceOnUse" id="clipPath43">
                <path d="M1050 45 L1292 45 L1292 172 L1050 172 L1050 45 Z"/>
            </clipPath>
            <clipPath clipPathUnits="userSpaceOnUse" id="clipPath44">
                <path d="M1049 9 L1292 9 L1292 172 L1049 172 L1049 9 Z"/>
            </clipPath>
            <clipPath clipPathUnits="userSpaceOnUse" id="clipPath45">
                <path d="M10 570 L10 669 L250 669 L250 570 Z"/>
            </clipPath>
            <clipPath clipPathUnits="userSpaceOnUse" id="clipPath46">
                <path d="M101 572 L162 572 L162 589 L101 589 L101 572 Z"/>
            </clipPath>
            <clipPath clipPathUnits="userSpaceOnUse" id="clipPath47">
                <path d="M76 588 L186 588 L186 605 L76 605 L76 588 Z"/>
            </clipPath>
            <clipPath clipPathUnits="userSpaceOnUse" id="clipPath48">
                <path d="M10 605 L252 605 L252 671 L10 671 L10 605 Z"/>
            </clipPath>
            <clipPath clipPathUnits="userSpaceOnUse" id="clipPath49">
                <path d="M9 569 L252 569 L252 671 L9 671 L9 569 Z"/>
            </clipPath>
            <clipPath clipPathUnits="userSpaceOnUse" id="clipPath50">
                <path d="M-1 -1 L1302 -1 L1302 759 L-1 759 L-1 -1 Z"/>
            </clipPath>
            <clipPath clipPathUnits="userSpaceOnUse" id="clipPath51">
                <path d="M661 139 L680 139 L680 152 L661 152 L661 139 Z"/>
            </clipPath>
            <clipPath clipPathUnits="userSpaceOnUse" id="clipPath52">
                <path d="M809 414 L832 414 L832 431 L809 431 L809 414 Z"/>
            </clipPath>
            <clipPath clipPathUnits="userSpaceOnUse" id="clipPath53">
                <path d="M755 531 L767 531 L767 548 L755 548 L755 531 Z"/>
            </clipPath>
            <clipPath clipPathUnits="userSpaceOnUse" id="clipPath54">
                <path d="M449 414 L472 414 L472 431 L449 431 L449 414 Z"/>
            </clipPath>
            <clipPath clipPathUnits="userSpaceOnUse" id="clipPath55">
                <path d="M635 529 L647 529 L647 546 L635 546 L635 529 Z"/>
            </clipPath>
            <clipPath clipPathUnits="userSpaceOnUse" id="clipPath56">
                <path d="M359 630 L433 630 L433 647 L359 647 L359 630 Z"/>
            </clipPath>
            <clipPath clipPathUnits="userSpaceOnUse" id="clipPath57">
                <path d="M534 605 L552 605 L552 618 L534 618 L534 605 Z"/>
            </clipPath>
        </defs>
        <g fill="url(#linearGradient1)" stroke-miterlimit="0" stroke-width="0" font-family="'Segoe UI'" stroke="url(#linearGradient1)" stroke-linejoin="round">
            <rect x="1050" width="241" height="100" y="571" clip-path="url(#clipPath1)" stroke="none"/>
            <text fill="black" x="1141" xml:space="preserve" y="587" clip-path="url(#clipPath2)" stroke="none">«DataType»</text>
            <text fill="black" x="1114" xml:space="preserve" y="603" clip-path="url(#clipPath3)" stroke="none">OriginatingTransation</text>
            <text fill="black" x="1056" xml:space="preserve" y="622" clip-path="url(#clipPath4)" stroke="none">  transactionOrigin: Identifier [1]</text>
            <text fill="black" x="1056" xml:space="preserve" y="638" clip-path="url(#clipPath5)" stroke="none">  transactionId: Identifier [1]</text>
        </g>
        <g stroke-linecap="butt" font-family="'Segoe UI'" stroke-width="1.1">
            <line y2="607" fill="none" x1="1050" clip-path="url(#clipPath6)" x2="1291" y1="607"/>
            <rect x="1050" y="571" clip-path="url(#clipPath7)" fill="none" width="240" rx="0" ry="0" height="99"/>
            <rect x="550" y="10" clip-path="url(#clipPath8)" fill="url(#linearGradient2)" width="241" height="130" stroke="none"/>
            <text x="639" y="26" clip-path="url(#clipPath9)" fill="rgb(169,169,169)" font-style="italic" stroke="none" xml:space="preserve">LedgerEntry</text>
            <text x="556" xml:space="preserve" y="45" clip-path="url(#clipPath10)" stroke="none">  account: Account [1]</text>
            <text x="556" xml:space="preserve" y="61" clip-path="url(#clipPath11)" stroke="none">  value: CurrencyAmount [1]</text>
            <text x="556" xml:space="preserve" y="77" clip-path="url(#clipPath12)" stroke="none">  postingDate: Date [1]</text>
            <text x="556" xml:space="preserve" y="93" clip-path="url(#clipPath13)" stroke="none">  accountingPeriod: AccountingPeriod [1]</text>
            <line y2="30" fill="none" x1="550" clip-path="url(#clipPath14)" x2="791" y1="30"/>
            <rect x="550" y="10" clip-path="url(#clipPath15)" fill="none" width="240" rx="0" ry="0" height="129"/>
            <rect x="730" y="270" clip-path="url(#clipPath16)" fill="url(#linearGradient3)" width="241" height="100" stroke="none"/>
            <text x="817" xml:space="preserve" y="286" clip-path="url(#clipPath17)" stroke="none">DebitPosting</text>
            <line y2="290" fill="none" x1="730" clip-path="url(#clipPath18)" x2="971" y1="290"/>
            <rect x="730" y="270" clip-path="url(#clipPath19)" fill="none" width="240" rx="0" ry="0" height="99"/>
            <rect x="370" y="270" clip-path="url(#clipPath20)" fill="url(#linearGradient4)" width="241" height="100" stroke="none"/>
            <text x="455" xml:space="preserve" y="286" clip-path="url(#clipPath21)" stroke="none">CreditPosting</text>
            <line y2="290" fill="none" x1="370" clip-path="url(#clipPath22)" x2="611" y1="290"/>
            <rect x="370" y="270" clip-path="url(#clipPath23)" fill="none" width="240" rx="0" ry="0" height="99"/>
            <rect x="550" y="570" clip-path="url(#clipPath24)" fill="url(#linearGradient5)" width="241" height="178" stroke="none"/>
            <text x="639" xml:space="preserve" y="586" clip-path="url(#clipPath25)" stroke="none">JournalEntry</text>
            <text x="556" xml:space="preserve" y="605" clip-path="url(#clipPath26)" stroke="none">  transactionId: Identifier [1]</text>
            <text x="556" xml:space="preserve" y="621" clip-path="url(#clipPath27)" stroke="none">  transactionDate: Date [1]</text>
            <text x="556" xml:space="preserve" y="637" clip-path="url(#clipPath28)" stroke="none">  postingDate: Date [1]</text>
            <text x="556" xml:space="preserve" y="653" clip-path="url(#clipPath29)" stroke="none">  accountingPeriod: AccountingPeriod [1]</text>
            <text x="556" xml:space="preserve" y="669" clip-path="url(#clipPath30)" stroke="none">  journal: Journal [1]</text>
            <text x="556" xml:space="preserve" y="685" clip-path="url(#clipPath31)" stroke="none">  description: String [0..1]</text>
            <text x="556" xml:space="preserve" y="701" clip-path="url(#clipPath32)" stroke="none">  originatingTransaction: OriginatingTrans...</text>
            <line y2="590" fill="none" x1="550" clip-path="url(#clipPath33)" x2="791" y1="590"/>
            <rect x="550" y="570" clip-path="url(#clipPath34)" fill="none" width="240" rx="0" ry="0" height="177"/>
            <rect x="1050" y="10" clip-path="url(#clipPath35)" fill="url(#linearGradient6)" width="241" height="161" stroke="none"/>
            <text x="1145" xml:space="preserve" y="26" clip-path="url(#clipPath36)" stroke="none">«Derived»</text>
            <text x="1128" xml:space="preserve" y="42" clip-path="url(#clipPath37)" stroke="none">AccountBalance</text>
            <text x="1056" xml:space="preserve" y="61" clip-path="url(#clipPath38)" stroke="none">  account: Account [1]</text>
            <text x="1056" xml:space="preserve" y="77" clip-path="url(#clipPath39)" stroke="none">  accountingPeriod: AccountingPeriod [1]</text>
            <text x="1056" xml:space="preserve" y="93" clip-path="url(#clipPath40)" stroke="none">  openingBalance: CurrencyAmount [1]</text>
            <text x="1056" xml:space="preserve" y="109" clip-path="url(#clipPath41)" stroke="none">  currentBalance: CurrencyAmount [1]</text>
            <text x="1056" xml:space="preserve" y="125" clip-path="url(#clipPath42)" stroke="none">  closingBalance: CurrencyAmount [0..1]</text>
            <line y2="46" fill="none" x1="1050" clip-path="url(#clipPath43)" x2="1291" y1="46"/>
            <rect x="1050" y="10" clip-path="url(#clipPath44)" fill="none" width="240" rx="0" ry="0" height="160"/>
            <rect x="10" y="570" clip-path="url(#clipPath45)" fill="url(#linearGradient7)" width="241" height="100" stroke="none"/>
            <text x="102" xml:space="preserve" y="586" clip-path="url(#clipPath46)" stroke="none">«Interface»</text>
            <text x="77" xml:space="preserve" y="602" clip-path="url(#clipPath47)" stroke="none">IBusinessTransaction</text>
            <line y2="606" fill="none" x1="10" clip-path="url(#clipPath48)" x2="251" y1="606"/>
            <rect x="10" y="570" clip-path="url(#clipPath49)" fill="none" width="240" rx="0" ry="0" height="99"/>
            <line clip-path="url(#clipPath50)" fill="none" text-rendering="optimizeLegibility" x1="850" x2="850" y1="270" y2="211"/>
            <line clip-path="url(#clipPath50)" fill="none" text-rendering="optimizeLegibility" x1="850" x2="670" y1="211" y2="211"/>
            <line clip-path="url(#clipPath50)" fill="none" text-rendering="optimizeLegibility" x1="670" x2="670" y1="211" y2="140"/>
            <polygon fill="white" text-rendering="optimizeLegibility" clip-path="url(#clipPath51)" points=" 670 140 678 150 662 150" stroke="none"/>
            <polygon fill="none" text-rendering="optimizeLegibility" clip-path="url(#clipPath51)" points=" 670 140 678 150 662 150"/>
            <line clip-path="url(#clipPath50)" fill="none" text-rendering="optimizeLegibility" x1="490" x2="490" y1="270" y2="211"/>
            <line clip-path="url(#clipPath50)" fill="none" text-rendering="optimizeLegibility" x1="490" x2="670" y1="211" y2="211"/>
            <line clip-path="url(#clipPath50)" fill="none" text-rendering="optimizeLegibility" x1="670" x2="670" y1="211" y2="140"/>
            <polygon fill="white" text-rendering="optimizeLegibility" clip-path="url(#clipPath51)" points=" 670 140 678 150 662 150" stroke="none"/>
            <polygon fill="none" text-rendering="optimizeLegibility" clip-path="url(#clipPath51)" points=" 670 140 678 150 662 150"/>
            <line clip-path="url(#clipPath50)" fill="none" text-rendering="optimizeLegibility" x1="850" x2="850" y1="370" y2="470"/>
            <line clip-path="url(#clipPath50)" fill="none" text-rendering="optimizeLegibility" x1="850" x2="730" y1="470" y2="470"/>
            <line clip-path="url(#clipPath50)" fill="none" text-rendering="optimizeLegibility" x1="730" x2="730" y1="470" y2="570"/>
            <text text-rendering="optimizeLegibility" x="810" xml:space="preserve" y="428" clip-path="url(#clipPath52)" stroke="none"> 1..*</text>
            <text text-rendering="optimizeLegibility" x="756" xml:space="preserve" y="545" clip-path="url(#clipPath53)" stroke="none"> 1</text>
            <line clip-path="url(#clipPath50)" fill="none" text-rendering="optimizeLegibility" x1="490" x2="490" y1="370" y2="470"/>
            <line clip-path="url(#clipPath50)" fill="none" text-rendering="optimizeLegibility" x1="490" x2="610" y1="470" y2="470"/>
            <line clip-path="url(#clipPath50)" fill="none" text-rendering="optimizeLegibility" x1="610" x2="610" y1="470" y2="570"/>
            <text text-rendering="optimizeLegibility" x="450" xml:space="preserve" y="428" clip-path="url(#clipPath54)" stroke="none"> 1..*</text>
            <text text-rendering="optimizeLegibility" x="636" xml:space="preserve" y="543" clip-path="url(#clipPath55)" stroke="none"> 1</text>
            <line clip-path="url(#clipPath50)" fill="none" text-rendering="optimizeLegibility" x1="251" x2="550" y1="611" y2="611" stroke-dasharray="5,5,5,5,5,5,5,5,5,5"/>
            <text x="360" y="644" clip-path="url(#clipPath56)" text-rendering="optimizeLegibility" stroke-dasharray="5,5,5,5,5,5,5,5,5,5" stroke="none" xml:space="preserve">«abstraction»</text>
            <line clip-path="url(#clipPath57)" fill="none" text-rendering="optimizeLegibility" x1="535" x2="550" y1="616" y2="611"/>
            <line clip-path="url(#clipPath57)" fill="none" text-rendering="optimizeLegibility" x1="550" x2="535" y1="611" y2="606"/>
        </g>
    </g>
</svg>
