<?xml version="1.0" encoding="UTF-8"?><svg xmlns="http://www.w3.org/2000/svg" xmlns:xlink="http://www.w3.org/1999/xlink" stroke-dasharray="none" shape-rendering="auto" font-family="'Dialog'" width="1180" text-rendering="auto" fill-opacity="1" contentScriptType="text/ecmascript" color-interpolation="auto" color-rendering="auto" preserveAspectRatio="xMidYMid meet" font-size="12px" viewBox="0 0 1180 1100" fill="black" stroke="black" image-rendering="auto" stroke-miterlimit="10" zoomAndPan="magnify" version="1.0" stroke-linecap="square" stroke-linejoin="miter" contentStyleType="text/css" font-style="normal" height="1100" stroke-width="1" stroke-dashoffset="0" font-weight="normal" stroke-opacity="1">
    <!--Generated by the Batik Graphics2D SVG Generator-->
    <defs id="genericDefs"/>
    <g>
        <defs id="defs1">
            <linearGradient x1="190" x2="190" y1="330" gradientUnits="userSpaceOnUse" y2="430" xlink:type="simple" xlink:actuate="onLoad" id="linearGradient1" xlink:show="other" spreadMethod="pad">
                <stop stop-opacity="1" stop-color="white" offset="0%"/>
                <stop stop-opacity="1" stop-color="rgb(195,167,173)" offset="100%"/>
            </linearGradient>
            <linearGradient x1="550" x2="550" y1="670" gradientUnits="userSpaceOnUse" y2="770" xlink:type="simple" xlink:actuate="onLoad" id="linearGradient2" xlink:show="other" spreadMethod="pad">
                <stop stop-opacity="1" stop-color="white" offset="0%"/>
                <stop stop-opacity="1" stop-color="rgb(195,167,173)" offset="100%"/>
            </linearGradient>
            <linearGradient x1="370" x2="370" y1="490" gradientUnits="userSpaceOnUse" y2="590" xlink:type="simple" xlink:actuate="onLoad" id="linearGradient3" xlink:show="other" spreadMethod="pad">
                <stop stop-opacity="1" stop-color="white" offset="0%"/>
                <stop stop-opacity="1" stop-color="rgb(195,167,173)" offset="100%"/>
            </linearGradient>
            <linearGradient x1="370" x2="370" y1="990" gradientUnits="userSpaceOnUse" y2="1090" xlink:type="simple" xlink:actuate="onLoad" id="linearGradient4" xlink:show="other" spreadMethod="pad">
                <stop stop-opacity="1" stop-color="white" offset="0%"/>
                <stop stop-opacity="1" stop-color="rgb(195,167,173)" offset="100%"/>
            </linearGradient>
            <linearGradient x1="930" x2="930" y1="490" gradientUnits="userSpaceOnUse" y2="590" xlink:type="simple" xlink:actuate="onLoad" id="linearGradient5" xlink:show="other" spreadMethod="pad">
                <stop stop-opacity="1" stop-color="white" offset="0%"/>
                <stop stop-opacity="1" stop-color="rgb(131,135,205)" offset="100%"/>
            </linearGradient>
            <linearGradient x1="550" x2="550" y1="830" gradientUnits="userSpaceOnUse" y2="930" xlink:type="simple" xlink:actuate="onLoad" id="linearGradient6" xlink:show="other" spreadMethod="pad">
                <stop stop-opacity="1" stop-color="white" offset="0%"/>
                <stop stop-opacity="1" stop-color="rgb(195,167,173)" offset="100%"/>
            </linearGradient>
            <linearGradient x1="10" x2="10" y1="10" gradientUnits="userSpaceOnUse" y2="110" xlink:type="simple" xlink:actuate="onLoad" id="linearGradient7" xlink:show="other" spreadMethod="pad">
                <stop stop-opacity="1" stop-color="white" offset="0%"/>
                <stop stop-opacity="1" stop-color="rgb(131,135,205)" offset="100%"/>
            </linearGradient>
            <linearGradient x1="190" x2="190" y1="170" gradientUnits="userSpaceOnUse" y2="270" xlink:type="simple" xlink:actuate="onLoad" id="linearGradient8" xlink:show="other" spreadMethod="pad">
                <stop stop-opacity="1" stop-color="white" offset="0%"/>
                <stop stop-opacity="1" stop-color="rgb(195,167,173)" offset="100%"/>
            </linearGradient>
            <clipPath clipPathUnits="userSpaceOnUse" id="clipPath1">
                <path d="M190 330 L190 429 L430 429 L430 330 Z"/>
            </clipPath>
            <clipPath clipPathUnits="userSpaceOnUse" id="clipPath2">
                <path d="M263 332 L359 332 L359 349 L263 349 L263 332 Z"/>
            </clipPath>
            <clipPath clipPathUnits="userSpaceOnUse" id="clipPath3">
                <path d="M246 348 L376 348 L376 365 L246 365 L246 348 Z"/>
            </clipPath>
            <clipPath clipPathUnits="userSpaceOnUse" id="clipPath4">
                <path d="M190 365 L432 365 L432 431 L190 431 L190 365 Z"/>
            </clipPath>
            <clipPath clipPathUnits="userSpaceOnUse" id="clipPath5">
                <path d="M189 329 L432 329 L432 431 L189 431 L189 329 Z"/>
            </clipPath>
            <clipPath clipPathUnits="userSpaceOnUse" id="clipPath6">
                <path d="M550 670 L550 769 L790 769 L790 670 Z"/>
            </clipPath>
            <clipPath clipPathUnits="userSpaceOnUse" id="clipPath7">
                <path d="M626 672 L717 672 L717 689 L626 689 L626 672 Z"/>
            </clipPath>
            <clipPath clipPathUnits="userSpaceOnUse" id="clipPath8">
                <path d="M621 688 L721 688 L721 705 L621 705 L621 688 Z"/>
            </clipPath>
            <clipPath clipPathUnits="userSpaceOnUse" id="clipPath9">
                <path d="M555 707 L733 707 L733 724 L555 724 L555 707 Z"/>
            </clipPath>
            <clipPath clipPathUnits="userSpaceOnUse" id="clipPath10">
                <path d="M550 705 L792 705 L792 771 L550 771 L550 705 Z"/>
            </clipPath>
            <clipPath clipPathUnits="userSpaceOnUse" id="clipPath11">
                <path d="M549 669 L792 669 L792 771 L549 771 L549 669 Z"/>
            </clipPath>
            <clipPath clipPathUnits="userSpaceOnUse" id="clipPath12">
                <path d="M370 490 L370 589 L610 589 L610 490 Z"/>
            </clipPath>
            <clipPath clipPathUnits="userSpaceOnUse" id="clipPath13">
                <path d="M443 492 L539 492 L539 509 L443 509 L443 492 Z"/>
            </clipPath>
            <clipPath clipPathUnits="userSpaceOnUse" id="clipPath14">
                <path d="M432 508 L551 508 L551 525 L432 525 L432 508 Z"/>
            </clipPath>
            <clipPath clipPathUnits="userSpaceOnUse" id="clipPath15">
                <path d="M370 525 L612 525 L612 591 L370 591 L370 525 Z"/>
            </clipPath>
            <clipPath clipPathUnits="userSpaceOnUse" id="clipPath16">
                <path d="M369 489 L612 489 L612 591 L369 591 L369 489 Z"/>
            </clipPath>
            <clipPath clipPathUnits="userSpaceOnUse" id="clipPath17">
                <path d="M370 990 L370 1089 L630 1089 L630 990 Z"/>
            </clipPath>
            <clipPath clipPathUnits="userSpaceOnUse" id="clipPath18">
                <path d="M456 992 L547 992 L547 1009 L456 1009 L456 992 Z"/>
            </clipPath>
            <clipPath clipPathUnits="userSpaceOnUse" id="clipPath19">
                <path d="M476 1008 L526 1008 L526 1025 L476 1025 L476 1008 Z"/>
            </clipPath>
            <clipPath clipPathUnits="userSpaceOnUse" id="clipPath20">
                <path d="M375 1027 L494 1027 L494 1044 L375 1044 L375 1027 Z"/>
            </clipPath>
            <clipPath clipPathUnits="userSpaceOnUse" id="clipPath21">
                <path d="M370 1025 L632 1025 L632 1091 L370 1091 L370 1025 Z"/>
            </clipPath>
            <clipPath clipPathUnits="userSpaceOnUse" id="clipPath22">
                <path d="M369 989 L632 989 L632 1091 L369 1091 L369 989 Z"/>
            </clipPath>
            <clipPath clipPathUnits="userSpaceOnUse" id="clipPath23">
                <path d="M930 490 L930 589 L1169 589 L1169 490 Z"/>
            </clipPath>
            <clipPath clipPathUnits="userSpaceOnUse" id="clipPath24">
                <path d="M1020 492 L1081 492 L1081 509 L1020 509 L1020 492 Z"/>
            </clipPath>
            <clipPath clipPathUnits="userSpaceOnUse" id="clipPath25">
                <path d="M994 508 L1108 508 L1108 525 L994 525 L994 508 Z"/>
            </clipPath>
            <clipPath clipPathUnits="userSpaceOnUse" id="clipPath26">
                <path d="M930 525 L1171 525 L1171 591 L930 591 L930 525 Z"/>
            </clipPath>
            <clipPath clipPathUnits="userSpaceOnUse" id="clipPath27">
                <path d="M929 489 L1171 489 L1171 591 L929 591 L929 489 Z"/>
            </clipPath>
            <clipPath clipPathUnits="userSpaceOnUse" id="clipPath28">
                <path d="M550 830 L550 929 L790 929 L790 830 Z"/>
            </clipPath>
            <clipPath clipPathUnits="userSpaceOnUse" id="clipPath29">
                <path d="M626 832 L717 832 L717 849 L626 849 L626 832 Z"/>
            </clipPath>
            <clipPath clipPathUnits="userSpaceOnUse" id="clipPath30">
                <path d="M596 848 L746 848 L746 865 L596 865 L596 848 Z"/>
            </clipPath>
            <clipPath clipPathUnits="userSpaceOnUse" id="clipPath31">
                <path d="M550 865 L792 865 L792 931 L550 931 L550 865 Z"/>
            </clipPath>
            <clipPath clipPathUnits="userSpaceOnUse" id="clipPath32">
                <path d="M549 829 L792 829 L792 931 L549 931 L549 829 Z"/>
            </clipPath>
            <clipPath clipPathUnits="userSpaceOnUse" id="clipPath33">
                <path d="M10 10 L10 109 L250 109 L250 10 Z"/>
            </clipPath>
            <clipPath clipPathUnits="userSpaceOnUse" id="clipPath34">
                <path d="M101 12 L162 12 L162 29 L101 29 L101 12 Z"/>
            </clipPath>
            <clipPath clipPathUnits="userSpaceOnUse" id="clipPath35">
                <path d="M72 28 L191 28 L191 45 L72 45 L72 28 Z"/>
            </clipPath>
            <clipPath clipPathUnits="userSpaceOnUse" id="clipPath36">
                <path d="M15 47 L214 47 L214 64 L15 64 L15 47 Z"/>
            </clipPath>
            <clipPath clipPathUnits="userSpaceOnUse" id="clipPath37">
                <path d="M10 45 L252 45 L252 111 L10 111 L10 45 Z"/>
            </clipPath>
            <clipPath clipPathUnits="userSpaceOnUse" id="clipPath38">
                <path d="M9 9 L252 9 L252 111 L9 111 L9 9 Z"/>
            </clipPath>
            <clipPath clipPathUnits="userSpaceOnUse" id="clipPath39">
                <path d="M190 170 L190 269 L430 269 L430 170 Z"/>
            </clipPath>
            <clipPath clipPathUnits="userSpaceOnUse" id="clipPath40">
                <path d="M266 172 L357 172 L357 189 L266 189 L266 172 Z"/>
            </clipPath>
            <clipPath clipPathUnits="userSpaceOnUse" id="clipPath41">
                <path d="M273 188 L350 188 L350 205 L273 205 L273 188 Z"/>
            </clipPath>
            <clipPath clipPathUnits="userSpaceOnUse" id="clipPath42">
                <path d="M190 205 L432 205 L432 271 L190 271 L190 205 Z"/>
            </clipPath>
            <clipPath clipPathUnits="userSpaceOnUse" id="clipPath43">
                <path d="M189 169 L432 169 L432 271 L189 271 L189 169 Z"/>
            </clipPath>
            <clipPath clipPathUnits="userSpaceOnUse" id="clipPath44">
                <path d="M-1 -1 L1181 -1 L1181 1101 L-1 1101 L-1 -1 Z"/>
            </clipPath>
            <clipPath clipPathUnits="userSpaceOnUse" id="clipPath45">
                <path d="M481 589 L500 589 L500 602 L481 602 L481 589 Z"/>
            </clipPath>
            <clipPath clipPathUnits="userSpaceOnUse" id="clipPath46">
                <path d="M301 429 L320 429 L320 442 L301 442 L301 429 Z"/>
            </clipPath>
            <clipPath clipPathUnits="userSpaceOnUse" id="clipPath47">
                <path d="M1044 589 L1057 589 L1057 607 L1044 607 L1044 589 Z"/>
            </clipPath>
            <clipPath clipPathUnits="userSpaceOnUse" id="clipPath48">
                <path d="M886 502 L909 502 L909 519 L886 519 L886 502 Z"/>
            </clipPath>
            <clipPath clipPathUnits="userSpaceOnUse" id="clipPath49">
                <path d="M638 543 L650 543 L650 560 L638 560 L638 543 Z"/>
            </clipPath>
            <clipPath clipPathUnits="userSpaceOnUse" id="clipPath50">
                <path d="M124 109 L137 109 L137 127 L124 127 L124 109 Z"/>
            </clipPath>
        </defs>
        <g fill="url(#linearGradient1)" stroke-miterlimit="0" stroke-width="0" font-family="'Segoe UI'" stroke="url(#linearGradient1)" stroke-linejoin="round">
            <rect x="190" width="241" height="100" y="330" clip-path="url(#clipPath1)" stroke="none"/>
            <text x="264" y="346" clip-path="url(#clipPath2)" fill="rgb(169,169,169)" font-style="italic" stroke="none" xml:space="preserve">«ReferenceData»</text>
            <text x="247" y="362" clip-path="url(#clipPath3)" fill="rgb(169,169,169)" font-style="italic" stroke="none" xml:space="preserve">SegmentHierarchyNode</text>
        </g>
        <g stroke-linecap="butt" font-family="'Segoe UI'" stroke-width="1.1">
            <line y2="366" fill="none" x1="190" clip-path="url(#clipPath4)" x2="431" y1="366"/>
            <rect x="190" y="330" clip-path="url(#clipPath5)" fill="none" width="240" rx="0" ry="0" height="99"/>
            <rect x="550" y="670" clip-path="url(#clipPath6)" fill="url(#linearGradient2)" width="241" height="100" stroke="none"/>
            <text x="627" xml:space="preserve" y="686" clip-path="url(#clipPath7)" stroke="none">«ReferenceData»</text>
            <text x="622" xml:space="preserve" y="702" clip-path="url(#clipPath8)" stroke="none">SegmentHierarchy</text>
            <text x="556" xml:space="preserve" y="721" clip-path="url(#clipPath9)" stroke="none">  segmentClass: SegmentClass [1]</text>
            <line y2="706" fill="none" x1="550" clip-path="url(#clipPath10)" x2="791" y1="706"/>
            <rect x="550" y="670" clip-path="url(#clipPath11)" fill="none" width="240" rx="0" ry="0" height="99"/>
            <rect x="370" y="490" clip-path="url(#clipPath12)" fill="url(#linearGradient3)" width="241" height="100" stroke="none"/>
            <text x="444" y="506" clip-path="url(#clipPath13)" fill="rgb(169,169,169)" font-style="italic" stroke="none" xml:space="preserve">«ReferenceData»</text>
            <text x="433" y="522" clip-path="url(#clipPath14)" fill="rgb(169,169,169)" font-style="italic" stroke="none" xml:space="preserve">ParentHierarchyNode</text>
            <line y2="526" fill="none" x1="370" clip-path="url(#clipPath15)" x2="611" y1="526"/>
            <rect x="370" y="490" clip-path="url(#clipPath16)" fill="none" width="240" rx="0" ry="0" height="99"/>
            <rect x="370" y="990" clip-path="url(#clipPath17)" fill="url(#linearGradient4)" width="261" height="100" stroke="none"/>
            <text x="457" xml:space="preserve" y="1006" clip-path="url(#clipPath18)" stroke="none">«ReferenceData»</text>
            <text x="477" xml:space="preserve" y="1022" clip-path="url(#clipPath19)" stroke="none">Segment</text>
            <text x="376" xml:space="preserve" y="1041" clip-path="url(#clipPath20)" stroke="none">  account: Account [1]</text>
            <line y2="1026" fill="none" x1="370" clip-path="url(#clipPath21)" x2="631" y1="1026"/>
            <rect x="370" y="990" clip-path="url(#clipPath22)" fill="none" width="260" rx="0" ry="0" height="99"/>
            <rect x="930" y="490" clip-path="url(#clipPath23)" fill="url(#linearGradient5)" width="240" height="100" stroke="none"/>
            <text x="1021" xml:space="preserve" y="506" clip-path="url(#clipPath24)" stroke="none">«Interface»</text>
            <text x="995" xml:space="preserve" y="522" clip-path="url(#clipPath25)" stroke="none">IChildHierarchyNode</text>
            <line y2="526" fill="none" x1="930" clip-path="url(#clipPath26)" x2="1170" y1="526"/>
            <rect x="930" y="490" clip-path="url(#clipPath27)" fill="none" width="239" rx="0" ry="0" height="99"/>
            <rect x="550" y="830" clip-path="url(#clipPath28)" fill="url(#linearGradient6)" width="241" height="100" stroke="none"/>
            <text x="627" xml:space="preserve" y="846" clip-path="url(#clipPath29)" stroke="none">«ReferenceData»</text>
            <text x="597" xml:space="preserve" y="862" clip-path="url(#clipPath30)" stroke="none">IntermediateHierarchyNode</text>
            <line y2="866" fill="none" x1="550" clip-path="url(#clipPath31)" x2="791" y1="866"/>
            <rect x="550" y="830" clip-path="url(#clipPath32)" fill="none" width="240" rx="0" ry="0" height="99"/>
            <rect x="10" y="10" clip-path="url(#clipPath33)" fill="url(#linearGradient7)" width="241" height="100" stroke="none"/>
            <text x="102" xml:space="preserve" y="26" clip-path="url(#clipPath34)" stroke="none">«Interface»</text>
            <text x="73" xml:space="preserve" y="42" clip-path="url(#clipPath35)" stroke="none">IControlledVocabulary</text>
            <text x="16" xml:space="preserve" y="61" clip-path="url(#clipPath36)" stroke="none">«ReferenceCode»   code: Identifier [1]</text>
            <line y2="46" fill="none" x1="10" clip-path="url(#clipPath37)" x2="251" y1="46"/>
            <rect x="10" y="10" clip-path="url(#clipPath38)" fill="none" width="240" rx="0" ry="0" height="99"/>
            <rect x="190" y="170" clip-path="url(#clipPath39)" fill="url(#linearGradient8)" width="241" height="100" stroke="none"/>
            <text x="267" xml:space="preserve" y="186" clip-path="url(#clipPath40)" stroke="none">«ReferenceData»</text>
            <text x="274" xml:space="preserve" y="202" clip-path="url(#clipPath41)" stroke="none">SegmentClass</text>
            <line y2="206" fill="none" x1="190" clip-path="url(#clipPath42)" x2="431" y1="206"/>
            <rect x="190" y="170" clip-path="url(#clipPath43)" fill="none" width="240" rx="0" ry="0" height="99"/>
            <line clip-path="url(#clipPath44)" fill="none" text-rendering="optimizeLegibility" x1="550" x2="490" y1="710" y2="710"/>
            <line clip-path="url(#clipPath44)" fill="none" text-rendering="optimizeLegibility" x1="490" x2="490" y1="710" y2="590"/>
            <polygon fill="white" text-rendering="optimizeLegibility" clip-path="url(#clipPath45)" points=" 490 590 498 600 482 600" stroke="none"/>
            <polygon fill="none" text-rendering="optimizeLegibility" clip-path="url(#clipPath45)" points=" 490 590 498 600 482 600"/>
            <line clip-path="url(#clipPath44)" fill="none" text-rendering="optimizeLegibility" x1="370" x2="310" y1="530" y2="530"/>
            <line clip-path="url(#clipPath44)" fill="none" text-rendering="optimizeLegibility" x1="310" x2="310" y1="530" y2="430"/>
            <polygon fill="white" text-rendering="optimizeLegibility" clip-path="url(#clipPath46)" points=" 310 430 318 440 302 440" stroke="none"/>
            <polygon fill="none" text-rendering="optimizeLegibility" clip-path="url(#clipPath46)" points=" 310 430 318 440 302 440"/>
            <line clip-path="url(#clipPath44)" fill="none" text-rendering="optimizeLegibility" x1="370" x2="310" y1="1025" y2="1025"/>
            <line clip-path="url(#clipPath44)" fill="none" text-rendering="optimizeLegibility" x1="310" x2="310" y1="1025" y2="430"/>
            <polygon fill="white" text-rendering="optimizeLegibility" clip-path="url(#clipPath46)" points=" 310 430 318 440 302 440" stroke="none"/>
            <polygon fill="none" text-rendering="optimizeLegibility" clip-path="url(#clipPath46)" points=" 310 430 318 440 302 440"/>
            <line clip-path="url(#clipPath44)" fill="none" text-rendering="optimizeLegibility" x1="631" x2="1050" y1="1025" y2="1025" stroke-dasharray="5,5,5,5,5,5,5,5,5,5"/>
            <line clip-path="url(#clipPath44)" fill="none" text-rendering="optimizeLegibility" x1="1050" x2="1050" y1="1025" y2="590" stroke-dasharray="5,5,5,5,5,5,5,5,5,5"/>
        </g>
        <g stroke-linecap="butt" fill="white" text-rendering="optimizeLegibility" font-family="'Segoe UI'" stroke-dasharray="5,5,5,5,5,5,5,5,5,5" stroke="white" stroke-width="1.1">
            <polygon points=" 1050 590 1055 605 1045 605" stroke="none" clip-path="url(#clipPath47)"/>
            <polygon fill="none" stroke-dasharray="none" clip-path="url(#clipPath47)" points=" 1050 590 1055 605 1045 605" stroke="black"/>
            <line clip-path="url(#clipPath44)" fill="none" x1="930" x2="611" y1="530" y2="530" stroke-dasharray="none" stroke="black"/>
            <text x="887" y="516" clip-path="url(#clipPath48)" fill="black" stroke-dasharray="none" stroke="none" xml:space="preserve"> 1..*</text>
            <text x="639" y="557" clip-path="url(#clipPath49)" fill="black" stroke-dasharray="none" stroke="none" xml:space="preserve"> 1</text>
            <line clip-path="url(#clipPath44)" fill="none" x1="791" x2="1050" y1="870" y2="870" stroke="black"/>
            <line clip-path="url(#clipPath44)" fill="none" x1="1050" x2="1050" y1="870" y2="590" stroke="black"/>
            <polygon points=" 1050 590 1055 605 1045 605" clip-path="url(#clipPath47)" stroke="none"/>
            <polygon fill="none" stroke-dasharray="none" clip-path="url(#clipPath47)" points=" 1050 590 1055 605 1045 605" stroke="black"/>
            <line clip-path="url(#clipPath44)" fill="none" x1="550" x2="490" y1="870" y2="870" stroke-dasharray="none" stroke="black"/>
            <line clip-path="url(#clipPath44)" fill="none" x1="490" x2="490" y1="870" y2="590" stroke-dasharray="none" stroke="black"/>
            <polygon stroke-dasharray="none" clip-path="url(#clipPath45)" points=" 490 590 498 600 482 600" stroke="none"/>
            <polygon fill="none" stroke-dasharray="none" clip-path="url(#clipPath45)" points=" 490 590 498 600 482 600" stroke="black"/>
            <line clip-path="url(#clipPath44)" fill="none" x1="190" x2="130" y1="370" y2="370" stroke="black"/>
            <line clip-path="url(#clipPath44)" fill="none" x1="130" x2="130" y1="370" y2="110" stroke="black"/>
            <polygon points=" 130 110 135 125 125 125" clip-path="url(#clipPath50)" stroke="none"/>
            <polygon fill="none" stroke-dasharray="none" clip-path="url(#clipPath50)" points=" 130 110 135 125 125 125" stroke="black"/>
            <line clip-path="url(#clipPath44)" fill="none" x1="190" x2="130" y1="210" y2="210" stroke="black"/>
            <line clip-path="url(#clipPath44)" fill="none" x1="130" x2="130" y1="210" y2="110" stroke="black"/>
            <polygon points=" 130 110 135 125 125 125" clip-path="url(#clipPath50)" stroke="none"/>
            <polygon fill="none" stroke-dasharray="none" clip-path="url(#clipPath50)" points=" 130 110 135 125 125 125" stroke="black"/>
        </g>
    </g>
</svg>
