<?xml version="1.0" encoding="UTF-8"?><svg xmlns="http://www.w3.org/2000/svg" xmlns:xlink="http://www.w3.org/1999/xlink" stroke-dasharray="none" shape-rendering="auto" font-family="'Dialog'" width="620" text-rendering="auto" fill-opacity="1" contentScriptType="text/ecmascript" color-interpolation="auto" color-rendering="auto" preserveAspectRatio="xMidYMid meet" font-size="12px" viewBox="0 0 620 781" fill="black" stroke="black" image-rendering="auto" stroke-miterlimit="10" zoomAndPan="magnify" version="1.0" stroke-linecap="square" stroke-linejoin="miter" contentStyleType="text/css" font-style="normal" height="781" stroke-width="1" stroke-dashoffset="0" font-weight="normal" stroke-opacity="1">
    <!--Generated by the Batik Graphics2D SVG Generator-->
    <defs id="genericDefs"/>
    <g>
        <defs id="defs1">
            <linearGradient x1="10" x2="10" y1="10" gradientUnits="userSpaceOnUse" y2="110" xlink:type="simple" xlink:actuate="onLoad" id="linearGradient1" xlink:show="other" spreadMethod="pad">
                <stop stop-opacity="1" stop-color="white" offset="0%"/>
                <stop stop-opacity="1" stop-color="rgb(131,135,205)" offset="100%"/>
            </linearGradient>
            <linearGradient x1="189" x2="189" y1="171" gradientUnits="userSpaceOnUse" y2="284" xlink:type="simple" xlink:actuate="onLoad" id="linearGradient2" xlink:show="other" spreadMethod="pad">
                <stop stop-opacity="1" stop-color="white" offset="0%"/>
                <stop stop-opacity="1" stop-color="rgb(195,167,173)" offset="100%"/>
            </linearGradient>
            <linearGradient x1="369" x2="369" y1="351" gradientUnits="userSpaceOnUse" y2="451" xlink:type="simple" xlink:actuate="onLoad" id="linearGradient3" xlink:show="other" spreadMethod="pad">
                <stop stop-opacity="1" stop-color="white" offset="0%"/>
                <stop stop-opacity="1" stop-color="rgb(195,167,173)" offset="100%"/>
            </linearGradient>
            <linearGradient x1="189" x2="189" y1="511" gradientUnits="userSpaceOnUse" y2="611" xlink:type="simple" xlink:actuate="onLoad" id="linearGradient4" xlink:show="other" spreadMethod="pad">
                <stop stop-opacity="1" stop-color="white" offset="0%"/>
                <stop stop-opacity="1" stop-color="rgb(195,167,173)" offset="100%"/>
            </linearGradient>
            <linearGradient x1="369" x2="369" y1="671" gradientUnits="userSpaceOnUse" y2="771" xlink:type="simple" xlink:actuate="onLoad" id="linearGradient5" xlink:show="other" spreadMethod="pad">
                <stop stop-opacity="1" stop-color="white" offset="0%"/>
                <stop stop-opacity="1" stop-color="rgb(195,167,173)" offset="100%"/>
            </linearGradient>
            <clipPath clipPathUnits="userSpaceOnUse" id="clipPath1">
                <path d="M10 10 L10 109 L249 109 L249 10 Z"/>
            </clipPath>
            <clipPath clipPathUnits="userSpaceOnUse" id="clipPath2">
                <path d="M100 12 L161 12 L161 29 L100 29 L100 12 Z"/>
            </clipPath>
            <clipPath clipPathUnits="userSpaceOnUse" id="clipPath3">
                <path d="M71 28 L190 28 L190 45 L71 45 L71 28 Z"/>
            </clipPath>
            <clipPath clipPathUnits="userSpaceOnUse" id="clipPath4">
                <path d="M15 47 L214 47 L214 64 L15 64 L15 47 Z"/>
            </clipPath>
            <clipPath clipPathUnits="userSpaceOnUse" id="clipPath5">
                <path d="M10 45 L251 45 L251 111 L10 111 L10 45 Z"/>
            </clipPath>
            <clipPath clipPathUnits="userSpaceOnUse" id="clipPath6">
                <path d="M9 9 L251 9 L251 111 L9 111 L9 9 Z"/>
            </clipPath>
            <clipPath clipPathUnits="userSpaceOnUse" id="clipPath7">
                <path d="M189 171 L189 283 L429 283 L429 171 Z"/>
            </clipPath>
            <clipPath clipPathUnits="userSpaceOnUse" id="clipPath8">
                <path d="M265 173 L356 173 L356 190 L265 190 L265 173 Z"/>
            </clipPath>
            <clipPath clipPathUnits="userSpaceOnUse" id="clipPath9">
                <path d="M286 189 L334 189 L334 206 L286 206 L286 189 Z"/>
            </clipPath>
            <clipPath clipPathUnits="userSpaceOnUse" id="clipPath10">
                <path d="M194 208 L424 208 L424 225 L194 225 L194 208 Z"/>
            </clipPath>
            <clipPath clipPathUnits="userSpaceOnUse" id="clipPath11">
                <path d="M194 224 L294 224 L294 241 L194 241 L194 224 Z"/>
            </clipPath>
            <clipPath clipPathUnits="userSpaceOnUse" id="clipPath12">
                <path d="M189 206 L431 206 L431 285 L189 285 L189 206 Z"/>
            </clipPath>
            <clipPath clipPathUnits="userSpaceOnUse" id="clipPath13">
                <path d="M188 170 L431 170 L431 285 L188 285 L188 170 Z"/>
            </clipPath>
            <clipPath clipPathUnits="userSpaceOnUse" id="clipPath14">
                <path d="M369 351 L369 450 L609 450 L609 351 Z"/>
            </clipPath>
            <clipPath clipPathUnits="userSpaceOnUse" id="clipPath15">
                <path d="M445 353 L536 353 L536 370 L445 370 L445 353 Z"/>
            </clipPath>
            <clipPath clipPathUnits="userSpaceOnUse" id="clipPath16">
                <path d="M446 369 L534 369 L534 386 L446 386 L446 369 Z"/>
            </clipPath>
            <clipPath clipPathUnits="userSpaceOnUse" id="clipPath17">
                <path d="M374 388 L581 388 L581 405 L374 405 L374 388 Z"/>
            </clipPath>
            <clipPath clipPathUnits="userSpaceOnUse" id="clipPath18">
                <path d="M369 386 L611 386 L611 452 L369 452 L369 386 Z"/>
            </clipPath>
            <clipPath clipPathUnits="userSpaceOnUse" id="clipPath19">
                <path d="M368 350 L611 350 L611 452 L368 452 L368 350 Z"/>
            </clipPath>
            <clipPath clipPathUnits="userSpaceOnUse" id="clipPath20">
                <path d="M189 511 L189 610 L429 610 L429 511 Z"/>
            </clipPath>
            <clipPath clipPathUnits="userSpaceOnUse" id="clipPath21">
                <path d="M265 513 L356 513 L356 530 L265 530 L265 513 Z"/>
            </clipPath>
            <clipPath clipPathUnits="userSpaceOnUse" id="clipPath22">
                <path d="M291 529 L330 529 L330 546 L291 546 L291 529 Z"/>
            </clipPath>
            <clipPath clipPathUnits="userSpaceOnUse" id="clipPath23">
                <path d="M189 546 L431 546 L431 612 L189 612 L189 546 Z"/>
            </clipPath>
            <clipPath clipPathUnits="userSpaceOnUse" id="clipPath24">
                <path d="M188 510 L431 510 L431 612 L188 612 L188 510 Z"/>
            </clipPath>
            <clipPath clipPathUnits="userSpaceOnUse" id="clipPath25">
                <path d="M369 671 L369 770 L604 770 L604 671 Z"/>
            </clipPath>
            <clipPath clipPathUnits="userSpaceOnUse" id="clipPath26">
                <path d="M442 673 L533 673 L533 690 L442 690 L442 673 Z"/>
            </clipPath>
            <clipPath clipPathUnits="userSpaceOnUse" id="clipPath27">
                <path d="M441 689 L534 689 L534 706 L441 706 L441 689 Z"/>
            </clipPath>
            <clipPath clipPathUnits="userSpaceOnUse" id="clipPath28">
                <path d="M374 708 L602 708 L602 725 L374 725 L374 708 Z"/>
            </clipPath>
            <clipPath clipPathUnits="userSpaceOnUse" id="clipPath29">
                <path d="M369 706 L606 706 L606 772 L369 772 L369 706 Z"/>
            </clipPath>
            <clipPath clipPathUnits="userSpaceOnUse" id="clipPath30">
                <path d="M368 670 L606 670 L606 772 L368 772 L368 670 Z"/>
            </clipPath>
            <clipPath clipPathUnits="userSpaceOnUse" id="clipPath31">
                <path d="M-1 -1 L621 -1 L621 782 L-1 782 L-1 -1 Z"/>
            </clipPath>
            <clipPath clipPathUnits="userSpaceOnUse" id="clipPath32">
                <path d="M123 109 L136 109 L136 127 L123 127 L123 109 Z"/>
            </clipPath>
            <clipPath clipPathUnits="userSpaceOnUse" id="clipPath33">
                <path d="M300 283 L319 283 L319 296 L300 296 L300 283 Z"/>
            </clipPath>
            <clipPath clipPathUnits="userSpaceOnUse" id="clipPath34">
                <path d="M300 610 L319 610 L319 623 L300 623 L300 610 Z"/>
            </clipPath>
        </defs>
        <g fill="url(#linearGradient1)" stroke-miterlimit="0" stroke-width="0" font-family="'Segoe UI'" stroke="url(#linearGradient1)" stroke-linejoin="round">
            <rect x="10" width="240" height="100" y="10" clip-path="url(#clipPath1)" stroke="none"/>
            <text fill="black" x="101" xml:space="preserve" y="26" clip-path="url(#clipPath2)" stroke="none">«Interface»</text>
            <text fill="black" x="72" xml:space="preserve" y="42" clip-path="url(#clipPath3)" stroke="none">IControlledVocabulary</text>
            <text fill="black" x="16" xml:space="preserve" y="61" clip-path="url(#clipPath4)" stroke="none">«ReferenceCode»   code: Identifier [1]</text>
        </g>
        <g stroke-linecap="butt" font-family="'Segoe UI'" stroke-width="1.1">
            <line y2="46" fill="none" x1="10" clip-path="url(#clipPath5)" x2="250" y1="46"/>
            <rect x="10" y="10" clip-path="url(#clipPath6)" fill="none" width="239" rx="0" ry="0" height="99"/>
            <rect x="189" y="171" clip-path="url(#clipPath7)" fill="url(#linearGradient2)" width="241" height="113" stroke="none"/>
            <text x="266" xml:space="preserve" y="187" clip-path="url(#clipPath8)" stroke="none">«ReferenceData»</text>
            <text x="287" xml:space="preserve" y="203" clip-path="url(#clipPath9)" stroke="none">Account</text>
            <text x="195" xml:space="preserve" y="222" clip-path="url(#clipPath10)" stroke="none">«Unique»   accountCombination: Accoun...</text>
            <text x="195" xml:space="preserve" y="238" clip-path="url(#clipPath11)" stroke="none">  ledger: Ledger [1]</text>
            <line y2="207" fill="none" x1="189" clip-path="url(#clipPath12)" x2="430" y1="207"/>
            <rect x="189" y="171" clip-path="url(#clipPath13)" fill="none" width="240" rx="0" ry="0" height="112"/>
            <rect x="369" y="351" clip-path="url(#clipPath14)" fill="url(#linearGradient3)" width="241" height="100" stroke="none"/>
            <text x="446" xml:space="preserve" y="367" clip-path="url(#clipPath15)" stroke="none">«ReferenceData»</text>
            <text x="447" xml:space="preserve" y="383" clip-path="url(#clipPath16)" stroke="none">ControlAccount</text>
            <text x="375" xml:space="preserve" y="402" clip-path="url(#clipPath17)" stroke="none">  subsidaryLedger: SubsidiaryLedger [1]</text>
            <line y2="387" fill="none" x1="369" clip-path="url(#clipPath18)" x2="610" y1="387"/>
            <rect x="369" y="351" clip-path="url(#clipPath19)" fill="none" width="240" rx="0" ry="0" height="99"/>
            <rect x="189" y="511" clip-path="url(#clipPath20)" fill="url(#linearGradient4)" width="241" height="100" stroke="none"/>
            <text x="266" xml:space="preserve" y="527" clip-path="url(#clipPath21)" stroke="none">«ReferenceData»</text>
            <text x="292" xml:space="preserve" y="543" clip-path="url(#clipPath22)" stroke="none">Ledger</text>
            <line y2="547" fill="none" x1="189" clip-path="url(#clipPath23)" x2="430" y1="547"/>
            <rect x="189" y="511" clip-path="url(#clipPath24)" fill="none" width="240" rx="0" ry="0" height="99"/>
            <rect x="369" y="671" clip-path="url(#clipPath25)" fill="url(#linearGradient5)" width="236" height="100" stroke="none"/>
            <text x="443" xml:space="preserve" y="687" clip-path="url(#clipPath26)" stroke="none">«ReferenceData»</text>
            <text x="442" xml:space="preserve" y="703" clip-path="url(#clipPath27)" stroke="none">SubsidiaryLedger</text>
            <text x="375" xml:space="preserve" y="722" clip-path="url(#clipPath28)" stroke="none">  ledgerAdjustmentAccount: Account [0..1]</text>
            <line y2="707" fill="none" x1="369" clip-path="url(#clipPath29)" x2="605" y1="707"/>
            <rect x="369" y="671" clip-path="url(#clipPath30)" fill="none" width="235" rx="0" ry="0" height="99"/>
            <line clip-path="url(#clipPath31)" fill="none" text-rendering="optimizeLegibility" x1="189" x2="129" y1="211" y2="211" stroke-dasharray="5,5,5,5,5,5,5,5,5,5"/>
            <line clip-path="url(#clipPath31)" fill="none" text-rendering="optimizeLegibility" x1="129" x2="129" y1="211" y2="110" stroke-dasharray="5,5,5,5,5,5,5,5,5,5"/>
        </g>
        <g stroke-linecap="butt" fill="white" text-rendering="optimizeLegibility" font-family="'Segoe UI'" stroke-dasharray="5,5,5,5,5,5,5,5,5,5" stroke="white" stroke-width="1.1">
            <polygon points=" 129 110 134 125 124 125" stroke="none" clip-path="url(#clipPath32)"/>
            <polygon fill="none" stroke-dasharray="none" clip-path="url(#clipPath32)" points=" 129 110 134 125 124 125" stroke="black"/>
            <line clip-path="url(#clipPath31)" fill="none" x1="369" x2="309" y1="391" y2="391" stroke-dasharray="none" stroke="black"/>
            <line clip-path="url(#clipPath31)" fill="none" x1="309" x2="309" y1="391" y2="284" stroke-dasharray="none" stroke="black"/>
            <polygon stroke-dasharray="none" clip-path="url(#clipPath33)" points=" 309 284 317 294 301 294" stroke="none"/>
            <polygon fill="none" stroke-dasharray="none" clip-path="url(#clipPath33)" points=" 309 284 317 294 301 294" stroke="black"/>
            <line clip-path="url(#clipPath31)" fill="none" x1="189" x2="129" y1="551" y2="551" stroke="black"/>
            <line clip-path="url(#clipPath31)" fill="none" x1="129" x2="129" y1="551" y2="110" stroke="black"/>
            <polygon points=" 129 110 134 125 124 125" clip-path="url(#clipPath32)" stroke="none"/>
            <polygon fill="none" stroke-dasharray="none" clip-path="url(#clipPath32)" points=" 129 110 134 125 124 125" stroke="black"/>
            <line clip-path="url(#clipPath31)" fill="none" x1="369" x2="309" y1="711" y2="711" stroke-dasharray="none" stroke="black"/>
            <line clip-path="url(#clipPath31)" fill="none" x1="309" x2="309" y1="711" y2="611" stroke-dasharray="none" stroke="black"/>
            <polygon stroke-dasharray="none" clip-path="url(#clipPath34)" points=" 309 611 317 621 301 621" stroke="none"/>
            <polygon fill="none" stroke-dasharray="none" clip-path="url(#clipPath34)" points=" 309 611 317 621 301 621" stroke="black"/>
        </g>
    </g>
</svg>
