<?xml version="1.0" encoding="UTF-8"?><svg xmlns="http://www.w3.org/2000/svg" xmlns:xlink="http://www.w3.org/1999/xlink" stroke-dasharray="none" shape-rendering="auto" font-family="'Dialog'" width="960" text-rendering="auto" fill-opacity="1" contentScriptType="text/ecmascript" color-interpolation="auto" color-rendering="auto" preserveAspectRatio="xMidYMid meet" font-size="12px" viewBox="0 0 960 940" fill="black" stroke="black" image-rendering="auto" stroke-miterlimit="10" zoomAndPan="magnify" version="1.0" stroke-linecap="square" stroke-linejoin="miter" contentStyleType="text/css" font-style="normal" height="940" stroke-width="1" stroke-dashoffset="0" font-weight="normal" stroke-opacity="1">
    <!--Generated by the Batik Graphics2D SVG Generator-->
    <defs id="genericDefs"/>
    <g>
        <defs id="defs1">
            <linearGradient x1="10" x2="10" y1="10" gradientUnits="userSpaceOnUse" y2="110" xlink:type="simple" xlink:actuate="onLoad" id="linearGradient1" xlink:show="other" spreadMethod="pad">
                <stop stop-opacity="1" stop-color="white" offset="0%"/>
                <stop stop-opacity="1" stop-color="rgb(131,135,205)" offset="100%"/>
            </linearGradient>
            <linearGradient x1="190" x2="190" y1="170" gradientUnits="userSpaceOnUse" y2="283" xlink:type="simple" xlink:actuate="onLoad" id="linearGradient2" xlink:show="other" spreadMethod="pad">
                <stop stop-opacity="1" stop-color="white" offset="0%"/>
                <stop stop-opacity="1" stop-color="rgb(195,167,173)" offset="100%"/>
            </linearGradient>
            <linearGradient x1="190" x2="190" y1="830" gradientUnits="userSpaceOnUse" y2="930" xlink:type="simple" xlink:actuate="onLoad" id="linearGradient3" xlink:show="other" spreadMethod="pad">
                <stop stop-opacity="1" stop-color="white" offset="0%"/>
                <stop stop-opacity="1" stop-color="rgb(195,167,173)" offset="100%"/>
            </linearGradient>
            <linearGradient x1="190" x2="190" y1="510" gradientUnits="userSpaceOnUse" y2="610" xlink:type="simple" xlink:actuate="onLoad" id="linearGradient4" xlink:show="other" spreadMethod="pad">
                <stop stop-opacity="1" stop-color="white" offset="0%"/>
                <stop stop-opacity="1" stop-color="rgb(195,167,173)" offset="100%"/>
            </linearGradient>
            <linearGradient x1="710" x2="710" y1="10" gradientUnits="userSpaceOnUse" y2="110" xlink:type="simple" xlink:actuate="onLoad" id="linearGradient5" xlink:show="other" spreadMethod="pad">
                <stop stop-opacity="1" stop-color="white" offset="0%"/>
                <stop stop-opacity="1" stop-color="rgb(163,199,173)" offset="100%"/>
            </linearGradient>
            <linearGradient x1="370" x2="370" y1="350" gradientUnits="userSpaceOnUse" y2="450" xlink:type="simple" xlink:actuate="onLoad" id="linearGradient6" xlink:show="other" spreadMethod="pad">
                <stop stop-opacity="1" stop-color="white" offset="0%"/>
                <stop stop-opacity="1" stop-color="rgb(195,167,173)" offset="100%"/>
            </linearGradient>
            <linearGradient x1="370" x2="370" y1="670" gradientUnits="userSpaceOnUse" y2="770" xlink:type="simple" xlink:actuate="onLoad" id="linearGradient7" xlink:show="other" spreadMethod="pad">
                <stop stop-opacity="1" stop-color="white" offset="0%"/>
                <stop stop-opacity="1" stop-color="rgb(195,167,173)" offset="100%"/>
            </linearGradient>
            <clipPath clipPathUnits="userSpaceOnUse" id="clipPath1">
                <path d="M10 10 L10 109 L250 109 L250 10 Z"/>
            </clipPath>
            <clipPath clipPathUnits="userSpaceOnUse" id="clipPath2">
                <path d="M101 12 L162 12 L162 29 L101 29 L101 12 Z"/>
            </clipPath>
            <clipPath clipPathUnits="userSpaceOnUse" id="clipPath3">
                <path d="M72 28 L191 28 L191 45 L72 45 L72 28 Z"/>
            </clipPath>
            <clipPath clipPathUnits="userSpaceOnUse" id="clipPath4">
                <path d="M15 47 L214 47 L214 64 L15 64 L15 47 Z"/>
            </clipPath>
            <clipPath clipPathUnits="userSpaceOnUse" id="clipPath5">
                <path d="M10 45 L252 45 L252 111 L10 111 L10 45 Z"/>
            </clipPath>
            <clipPath clipPathUnits="userSpaceOnUse" id="clipPath6">
                <path d="M9 9 L252 9 L252 111 L9 111 L9 9 Z"/>
            </clipPath>
            <clipPath clipPathUnits="userSpaceOnUse" id="clipPath7">
                <path d="M190 170 L190 282 L429 282 L429 170 Z"/>
            </clipPath>
            <clipPath clipPathUnits="userSpaceOnUse" id="clipPath8">
                <path d="M265 172 L356 172 L356 189 L265 189 L265 172 Z"/>
            </clipPath>
            <clipPath clipPathUnits="userSpaceOnUse" id="clipPath9">
                <path d="M287 188 L335 188 L335 205 L287 205 L287 188 Z"/>
            </clipPath>
            <clipPath clipPathUnits="userSpaceOnUse" id="clipPath10">
                <path d="M195 207 L425 207 L425 224 L195 224 L195 207 Z"/>
            </clipPath>
            <clipPath clipPathUnits="userSpaceOnUse" id="clipPath11">
                <path d="M195 223 L295 223 L295 240 L195 240 L195 223 Z"/>
            </clipPath>
            <clipPath clipPathUnits="userSpaceOnUse" id="clipPath12">
                <path d="M190 205 L431 205 L431 284 L190 284 L190 205 Z"/>
            </clipPath>
            <clipPath clipPathUnits="userSpaceOnUse" id="clipPath13">
                <path d="M189 169 L431 169 L431 284 L189 284 L189 169 Z"/>
            </clipPath>
            <clipPath clipPathUnits="userSpaceOnUse" id="clipPath14">
                <path d="M190 830 L190 929 L430 929 L430 830 Z"/>
            </clipPath>
            <clipPath clipPathUnits="userSpaceOnUse" id="clipPath15">
                <path d="M266 832 L357 832 L357 849 L266 849 L266 832 Z"/>
            </clipPath>
            <clipPath clipPathUnits="userSpaceOnUse" id="clipPath16">
                <path d="M291 848 L331 848 L331 865 L291 865 L291 848 Z"/>
            </clipPath>
            <clipPath clipPathUnits="userSpaceOnUse" id="clipPath17">
                <path d="M190 865 L432 865 L432 931 L190 931 L190 865 Z"/>
            </clipPath>
            <clipPath clipPathUnits="userSpaceOnUse" id="clipPath18">
                <path d="M189 829 L432 829 L432 931 L189 931 L189 829 Z"/>
            </clipPath>
            <clipPath clipPathUnits="userSpaceOnUse" id="clipPath19">
                <path d="M190 510 L190 609 L430 609 L430 510 Z"/>
            </clipPath>
            <clipPath clipPathUnits="userSpaceOnUse" id="clipPath20">
                <path d="M266 512 L357 512 L357 529 L266 529 L266 512 Z"/>
            </clipPath>
            <clipPath clipPathUnits="userSpaceOnUse" id="clipPath21">
                <path d="M292 528 L331 528 L331 545 L292 545 L292 528 Z"/>
            </clipPath>
            <clipPath clipPathUnits="userSpaceOnUse" id="clipPath22">
                <path d="M190 545 L432 545 L432 611 L190 611 L190 545 Z"/>
            </clipPath>
            <clipPath clipPathUnits="userSpaceOnUse" id="clipPath23">
                <path d="M189 509 L432 509 L432 611 L189 611 L189 509 Z"/>
            </clipPath>
            <clipPath clipPathUnits="userSpaceOnUse" id="clipPath24">
                <path d="M710 10 L710 109 L949 109 L949 10 Z"/>
            </clipPath>
            <clipPath clipPathUnits="userSpaceOnUse" id="clipPath25">
                <path d="M799 12 L862 12 L862 29 L799 29 L799 12 Z"/>
            </clipPath>
            <clipPath clipPathUnits="userSpaceOnUse" id="clipPath26">
                <path d="M772 28 L889 28 L889 45 L772 45 L772 28 Z"/>
            </clipPath>
            <clipPath clipPathUnits="userSpaceOnUse" id="clipPath27">
                <path d="M715 47 L860 47 L860 64 L715 64 L715 47 Z"/>
            </clipPath>
            <clipPath clipPathUnits="userSpaceOnUse" id="clipPath28">
                <path d="M715 63 L850 63 L850 80 L715 80 L715 63 Z"/>
            </clipPath>
            <clipPath clipPathUnits="userSpaceOnUse" id="clipPath29">
                <path d="M710 45 L951 45 L951 111 L710 111 L710 45 Z"/>
            </clipPath>
            <clipPath clipPathUnits="userSpaceOnUse" id="clipPath30">
                <path d="M709 9 L951 9 L951 111 L709 111 L709 9 Z"/>
            </clipPath>
            <clipPath clipPathUnits="userSpaceOnUse" id="clipPath31">
                <path d="M370 350 L370 449 L609 449 L609 350 Z"/>
            </clipPath>
            <clipPath clipPathUnits="userSpaceOnUse" id="clipPath32">
                <path d="M445 352 L536 352 L536 369 L445 369 L445 352 Z"/>
            </clipPath>
            <clipPath clipPathUnits="userSpaceOnUse" id="clipPath33">
                <path d="M447 368 L535 368 L535 385 L447 385 L447 368 Z"/>
            </clipPath>
            <clipPath clipPathUnits="userSpaceOnUse" id="clipPath34">
                <path d="M375 387 L582 387 L582 404 L375 404 L375 387 Z"/>
            </clipPath>
            <clipPath clipPathUnits="userSpaceOnUse" id="clipPath35">
                <path d="M370 385 L611 385 L611 451 L370 451 L370 385 Z"/>
            </clipPath>
            <clipPath clipPathUnits="userSpaceOnUse" id="clipPath36">
                <path d="M369 349 L611 349 L611 451 L369 451 L369 349 Z"/>
            </clipPath>
            <clipPath clipPathUnits="userSpaceOnUse" id="clipPath37">
                <path d="M370 670 L370 769 L610 769 L610 670 Z"/>
            </clipPath>
            <clipPath clipPathUnits="userSpaceOnUse" id="clipPath38">
                <path d="M446 672 L537 672 L537 689 L446 689 L446 672 Z"/>
            </clipPath>
            <clipPath clipPathUnits="userSpaceOnUse" id="clipPath39">
                <path d="M445 688 L538 688 L538 705 L445 705 L445 688 Z"/>
            </clipPath>
            <clipPath clipPathUnits="userSpaceOnUse" id="clipPath40">
                <path d="M375 707 L603 707 L603 724 L375 724 L375 707 Z"/>
            </clipPath>
            <clipPath clipPathUnits="userSpaceOnUse" id="clipPath41">
                <path d="M370 705 L612 705 L612 771 L370 771 L370 705 Z"/>
            </clipPath>
            <clipPath clipPathUnits="userSpaceOnUse" id="clipPath42">
                <path d="M369 669 L612 669 L612 771 L369 771 L369 669 Z"/>
            </clipPath>
            <clipPath clipPathUnits="userSpaceOnUse" id="clipPath43">
                <path d="M-1 -1 L961 -1 L961 941 L-1 941 L-1 -1 Z"/>
            </clipPath>
            <clipPath clipPathUnits="userSpaceOnUse" id="clipPath44">
                <path d="M124 109 L137 109 L137 127 L124 127 L124 109 Z"/>
            </clipPath>
            <clipPath clipPathUnits="userSpaceOnUse" id="clipPath45">
                <path d="M301 282 L320 282 L320 295 L301 295 L301 282 Z"/>
            </clipPath>
            <clipPath clipPathUnits="userSpaceOnUse" id="clipPath46">
                <path d="M301 609 L320 609 L320 622 L301 622 L301 609 Z"/>
            </clipPath>
        </defs>
        <g fill="url(#linearGradient1)" stroke-miterlimit="0" stroke-width="0" font-family="'Segoe UI'" stroke="url(#linearGradient1)" stroke-linejoin="round">
            <rect x="10" width="241" height="100" y="10" clip-path="url(#clipPath1)" stroke="none"/>
            <text fill="black" x="102" xml:space="preserve" y="26" clip-path="url(#clipPath2)" stroke="none">«Interface»</text>
            <text fill="black" x="73" xml:space="preserve" y="42" clip-path="url(#clipPath3)" stroke="none">IControlledVocabulary</text>
            <text fill="black" x="16" xml:space="preserve" y="61" clip-path="url(#clipPath4)" stroke="none">«ReferenceCode»   code: Identifier [1]</text>
        </g>
        <g stroke-linecap="butt" font-family="'Segoe UI'" stroke-width="1.1">
            <line y2="46" fill="none" x1="10" clip-path="url(#clipPath5)" x2="251" y1="46"/>
            <rect x="10" y="10" clip-path="url(#clipPath6)" fill="none" width="240" rx="0" ry="0" height="99"/>
            <rect x="190" y="170" clip-path="url(#clipPath7)" fill="url(#linearGradient2)" width="240" height="113" stroke="none"/>
            <text x="266" xml:space="preserve" y="186" clip-path="url(#clipPath8)" stroke="none">«ReferenceData»</text>
            <text x="288" xml:space="preserve" y="202" clip-path="url(#clipPath9)" stroke="none">Account</text>
            <text x="196" xml:space="preserve" y="221" clip-path="url(#clipPath10)" stroke="none">«Unique»   accountCombination: Accoun...</text>
            <text x="196" xml:space="preserve" y="237" clip-path="url(#clipPath11)" stroke="none">  ledger: Ledger [1]</text>
            <line y2="206" fill="none" x1="190" clip-path="url(#clipPath12)" x2="430" y1="206"/>
            <rect x="190" y="170" clip-path="url(#clipPath13)" fill="none" width="239" rx="0" ry="0" height="112"/>
            <rect x="190" y="830" clip-path="url(#clipPath14)" fill="url(#linearGradient3)" width="241" height="100" stroke="none"/>
            <text x="267" xml:space="preserve" y="846" clip-path="url(#clipPath15)" stroke="none">«ReferenceData»</text>
            <text x="292" xml:space="preserve" y="862" clip-path="url(#clipPath16)" stroke="none">Journal</text>
            <line y2="866" fill="none" x1="190" clip-path="url(#clipPath17)" x2="431" y1="866"/>
            <rect x="190" y="830" clip-path="url(#clipPath18)" fill="none" width="240" rx="0" ry="0" height="99"/>
            <rect x="190" y="510" clip-path="url(#clipPath19)" fill="url(#linearGradient4)" width="241" height="100" stroke="none"/>
            <text x="267" xml:space="preserve" y="526" clip-path="url(#clipPath20)" stroke="none">«ReferenceData»</text>
            <text x="293" xml:space="preserve" y="542" clip-path="url(#clipPath21)" stroke="none">Ledger</text>
            <line y2="546" fill="none" x1="190" clip-path="url(#clipPath22)" x2="431" y1="546"/>
            <rect x="190" y="510" clip-path="url(#clipPath23)" fill="none" width="240" rx="0" ry="0" height="99"/>
            <rect x="710" y="10" clip-path="url(#clipPath24)" fill="url(#linearGradient5)" width="240" height="100" stroke="none"/>
            <text x="800" xml:space="preserve" y="26" clip-path="url(#clipPath25)" stroke="none">«DataType»</text>
            <text x="773" xml:space="preserve" y="42" clip-path="url(#clipPath26)" stroke="none">AccountCombination</text>
            <text x="716" xml:space="preserve" y="61" clip-path="url(#clipPath27)" stroke="none">  glAccount: GLAccount [1]</text>
            <text x="716" xml:space="preserve" y="77" clip-path="url(#clipPath28)" stroke="none">  segment: Segment [1..*]</text>
            <line y2="46" fill="none" x1="710" clip-path="url(#clipPath29)" x2="950" y1="46"/>
            <rect x="710" y="10" clip-path="url(#clipPath30)" fill="none" width="239" rx="0" ry="0" height="99"/>
            <rect x="370" y="350" clip-path="url(#clipPath31)" fill="url(#linearGradient6)" width="240" height="100" stroke="none"/>
            <text x="446" xml:space="preserve" y="366" clip-path="url(#clipPath32)" stroke="none">«ReferenceData»</text>
            <text x="448" xml:space="preserve" y="382" clip-path="url(#clipPath33)" stroke="none">ControlAccount</text>
            <text x="376" xml:space="preserve" y="401" clip-path="url(#clipPath34)" stroke="none">  subsidaryLedger: SubsidiaryLedger [1]</text>
            <line y2="386" fill="none" x1="370" clip-path="url(#clipPath35)" x2="610" y1="386"/>
            <rect x="370" y="350" clip-path="url(#clipPath36)" fill="none" width="239" rx="0" ry="0" height="99"/>
            <rect x="370" y="670" clip-path="url(#clipPath37)" fill="url(#linearGradient7)" width="241" height="100" stroke="none"/>
            <text x="447" xml:space="preserve" y="686" clip-path="url(#clipPath38)" stroke="none">«ReferenceData»</text>
            <text x="446" xml:space="preserve" y="702" clip-path="url(#clipPath39)" stroke="none">SubsidiaryLedger</text>
            <text x="376" xml:space="preserve" y="721" clip-path="url(#clipPath40)" stroke="none">  ledgerAdjustmentAccount: Account [0..1]</text>
            <line y2="706" fill="none" x1="370" clip-path="url(#clipPath41)" x2="611" y1="706"/>
            <rect x="370" y="670" clip-path="url(#clipPath42)" fill="none" width="240" rx="0" ry="0" height="99"/>
            <line clip-path="url(#clipPath43)" fill="none" text-rendering="optimizeLegibility" x1="190" x2="130" y1="870" y2="870" stroke-dasharray="5,5,5,5,5,5,5,5,5,5"/>
            <line clip-path="url(#clipPath43)" fill="none" text-rendering="optimizeLegibility" x1="130" x2="130" y1="870" y2="110" stroke-dasharray="5,5,5,5,5,5,5,5,5,5"/>
        </g>
        <g stroke-linecap="butt" fill="white" text-rendering="optimizeLegibility" font-family="'Segoe UI'" stroke-dasharray="5,5,5,5,5,5,5,5,5,5" stroke="white" stroke-width="1.1">
            <polygon points=" 130 110 135 125 125 125" stroke="none" clip-path="url(#clipPath44)"/>
            <polygon fill="none" stroke-dasharray="none" clip-path="url(#clipPath44)" points=" 130 110 135 125 125 125" stroke="black"/>
            <line clip-path="url(#clipPath43)" fill="none" x1="190" x2="130" y1="210" y2="210" stroke="black"/>
            <line clip-path="url(#clipPath43)" fill="none" x1="130" x2="130" y1="210" y2="110" stroke="black"/>
            <polygon points=" 130 110 135 125 125 125" clip-path="url(#clipPath44)" stroke="none"/>
            <polygon fill="none" stroke-dasharray="none" clip-path="url(#clipPath44)" points=" 130 110 135 125 125 125" stroke="black"/>
            <line clip-path="url(#clipPath43)" fill="none" x1="190" x2="130" y1="550" y2="550" stroke="black"/>
            <line clip-path="url(#clipPath43)" fill="none" x1="130" x2="130" y1="550" y2="110" stroke="black"/>
            <polygon points=" 130 110 135 125 125 125" clip-path="url(#clipPath44)" stroke="none"/>
            <polygon fill="none" stroke-dasharray="none" clip-path="url(#clipPath44)" points=" 130 110 135 125 125 125" stroke="black"/>
            <line clip-path="url(#clipPath43)" fill="none" x1="370" x2="310" y1="390" y2="390" stroke-dasharray="none" stroke="black"/>
            <line clip-path="url(#clipPath43)" fill="none" x1="310" x2="310" y1="390" y2="283" stroke-dasharray="none" stroke="black"/>
            <polygon stroke-dasharray="none" clip-path="url(#clipPath45)" points=" 310 283 318 293 302 293" stroke="none"/>
            <polygon fill="none" stroke-dasharray="none" clip-path="url(#clipPath45)" points=" 310 283 318 293 302 293" stroke="black"/>
            <line clip-path="url(#clipPath43)" fill="none" x1="370" x2="310" y1="710" y2="710" stroke-dasharray="none" stroke="black"/>
            <line clip-path="url(#clipPath43)" fill="none" x1="310" x2="310" y1="710" y2="610" stroke-dasharray="none" stroke="black"/>
            <polygon stroke-dasharray="none" clip-path="url(#clipPath46)" points=" 310 610 318 620 302 620" stroke="none"/>
            <polygon fill="none" stroke-dasharray="none" clip-path="url(#clipPath46)" points=" 310 610 318 620 302 620" stroke="black"/>
        </g>
    </g>
</svg>
