<?xml version="1.0" encoding="UTF-8"?><svg xmlns="http://www.w3.org/2000/svg" xmlns:xlink="http://www.w3.org/1999/xlink" stroke-dasharray="none" shape-rendering="auto" font-family="'Dialog'" width="860" text-rendering="auto" fill-opacity="1" contentScriptType="text/ecmascript" color-interpolation="auto" color-rendering="auto" preserveAspectRatio="xMidYMid meet" font-size="12px" viewBox="0 0 860 620" fill="black" stroke="black" image-rendering="auto" stroke-miterlimit="10" zoomAndPan="magnify" version="1.0" stroke-linecap="square" stroke-linejoin="miter" contentStyleType="text/css" font-style="normal" height="620" stroke-width="1" stroke-dashoffset="0" font-weight="normal" stroke-opacity="1">
    <!--Generated by the Batik Graphics2D SVG Generator-->
    <defs id="genericDefs"/>
    <g>
        <defs id="defs1">
            <linearGradient x1="10" x2="10" y1="10" gradientUnits="userSpaceOnUse" y2="110" xlink:type="simple" xlink:actuate="onLoad" id="linearGradient1" xlink:show="other" spreadMethod="pad">
                <stop stop-opacity="1" stop-color="white" offset="0%"/>
                <stop stop-opacity="1" stop-color="rgb(131,135,205)" offset="100%"/>
            </linearGradient>
            <linearGradient x1="190" x2="190" y1="170" gradientUnits="userSpaceOnUse" y2="283" xlink:type="simple" xlink:actuate="onLoad" id="linearGradient2" xlink:show="other" spreadMethod="pad">
                <stop stop-opacity="1" stop-color="white" offset="0%"/>
                <stop stop-opacity="1" stop-color="rgb(195,167,173)" offset="100%"/>
            </linearGradient>
            <linearGradient x1="189" x2="189" y1="510" gradientUnits="userSpaceOnUse" y2="610" xlink:type="simple" xlink:actuate="onLoad" id="linearGradient3" xlink:show="other" spreadMethod="pad">
                <stop stop-opacity="1" stop-color="white" offset="0%"/>
                <stop stop-opacity="1" stop-color="rgb(195,167,173)" offset="100%"/>
            </linearGradient>
            <linearGradient x1="190" x2="190" y1="350" gradientUnits="userSpaceOnUse" y2="450" xlink:type="simple" xlink:actuate="onLoad" id="linearGradient4" xlink:show="other" spreadMethod="pad">
                <stop stop-opacity="1" stop-color="white" offset="0%"/>
                <stop stop-opacity="1" stop-color="rgb(195,167,173)" offset="100%"/>
            </linearGradient>
            <linearGradient x1="610" x2="610" y1="170" gradientUnits="userSpaceOnUse" y2="270" xlink:type="simple" xlink:actuate="onLoad" id="linearGradient5" xlink:show="other" spreadMethod="pad">
                <stop stop-opacity="1" stop-color="white" offset="0%"/>
                <stop stop-opacity="1" stop-color="rgb(163,199,173)" offset="100%"/>
            </linearGradient>
            <clipPath clipPathUnits="userSpaceOnUse" id="clipPath1">
                <path d="M10 10 L10 109 L250 109 L250 10 Z"/>
            </clipPath>
            <clipPath clipPathUnits="userSpaceOnUse" id="clipPath2">
                <path d="M101 12 L162 12 L162 29 L101 29 L101 12 Z"/>
            </clipPath>
            <clipPath clipPathUnits="userSpaceOnUse" id="clipPath3">
                <path d="M72 28 L191 28 L191 45 L72 45 L72 28 Z"/>
            </clipPath>
            <clipPath clipPathUnits="userSpaceOnUse" id="clipPath4">
                <path d="M15 47 L214 47 L214 64 L15 64 L15 47 Z"/>
            </clipPath>
            <clipPath clipPathUnits="userSpaceOnUse" id="clipPath5">
                <path d="M10 45 L252 45 L252 111 L10 111 L10 45 Z"/>
            </clipPath>
            <clipPath clipPathUnits="userSpaceOnUse" id="clipPath6">
                <path d="M9 9 L252 9 L252 111 L9 111 L9 9 Z"/>
            </clipPath>
            <clipPath clipPathUnits="userSpaceOnUse" id="clipPath7">
                <path d="M190 170 L190 282 L429 282 L429 170 Z"/>
            </clipPath>
            <clipPath clipPathUnits="userSpaceOnUse" id="clipPath8">
                <path d="M265 172 L356 172 L356 189 L265 189 L265 172 Z"/>
            </clipPath>
            <clipPath clipPathUnits="userSpaceOnUse" id="clipPath9">
                <path d="M287 188 L335 188 L335 205 L287 205 L287 188 Z"/>
            </clipPath>
            <clipPath clipPathUnits="userSpaceOnUse" id="clipPath10">
                <path d="M195 207 L425 207 L425 224 L195 224 L195 207 Z"/>
            </clipPath>
            <clipPath clipPathUnits="userSpaceOnUse" id="clipPath11">
                <path d="M195 223 L295 223 L295 240 L195 240 L195 223 Z"/>
            </clipPath>
            <clipPath clipPathUnits="userSpaceOnUse" id="clipPath12">
                <path d="M190 205 L431 205 L431 284 L190 284 L190 205 Z"/>
            </clipPath>
            <clipPath clipPathUnits="userSpaceOnUse" id="clipPath13">
                <path d="M189 169 L431 169 L431 284 L189 284 L189 169 Z"/>
            </clipPath>
            <clipPath clipPathUnits="userSpaceOnUse" id="clipPath14">
                <path d="M189 510 L189 609 L429 609 L429 510 Z"/>
            </clipPath>
            <clipPath clipPathUnits="userSpaceOnUse" id="clipPath15">
                <path d="M265 512 L356 512 L356 529 L265 529 L265 512 Z"/>
            </clipPath>
            <clipPath clipPathUnits="userSpaceOnUse" id="clipPath16">
                <path d="M290 528 L330 528 L330 545 L290 545 L290 528 Z"/>
            </clipPath>
            <clipPath clipPathUnits="userSpaceOnUse" id="clipPath17">
                <path d="M189 545 L431 545 L431 611 L189 611 L189 545 Z"/>
            </clipPath>
            <clipPath clipPathUnits="userSpaceOnUse" id="clipPath18">
                <path d="M188 509 L431 509 L431 611 L188 611 L188 509 Z"/>
            </clipPath>
            <clipPath clipPathUnits="userSpaceOnUse" id="clipPath19">
                <path d="M190 350 L190 449 L430 449 L430 350 Z"/>
            </clipPath>
            <clipPath clipPathUnits="userSpaceOnUse" id="clipPath20">
                <path d="M266 352 L357 352 L357 369 L266 369 L266 352 Z"/>
            </clipPath>
            <clipPath clipPathUnits="userSpaceOnUse" id="clipPath21">
                <path d="M292 368 L331 368 L331 385 L292 385 L292 368 Z"/>
            </clipPath>
            <clipPath clipPathUnits="userSpaceOnUse" id="clipPath22">
                <path d="M190 385 L432 385 L432 451 L190 451 L190 385 Z"/>
            </clipPath>
            <clipPath clipPathUnits="userSpaceOnUse" id="clipPath23">
                <path d="M189 349 L432 349 L432 451 L189 451 L189 349 Z"/>
            </clipPath>
            <clipPath clipPathUnits="userSpaceOnUse" id="clipPath24">
                <path d="M610 170 L610 269 L849 269 L849 170 Z"/>
            </clipPath>
            <clipPath clipPathUnits="userSpaceOnUse" id="clipPath25">
                <path d="M699 172 L762 172 L762 189 L699 189 L699 172 Z"/>
            </clipPath>
            <clipPath clipPathUnits="userSpaceOnUse" id="clipPath26">
                <path d="M672 188 L789 188 L789 205 L672 205 L672 188 Z"/>
            </clipPath>
            <clipPath clipPathUnits="userSpaceOnUse" id="clipPath27">
                <path d="M615 207 L760 207 L760 224 L615 224 L615 207 Z"/>
            </clipPath>
            <clipPath clipPathUnits="userSpaceOnUse" id="clipPath28">
                <path d="M615 223 L750 223 L750 240 L615 240 L615 223 Z"/>
            </clipPath>
            <clipPath clipPathUnits="userSpaceOnUse" id="clipPath29">
                <path d="M610 205 L851 205 L851 271 L610 271 L610 205 Z"/>
            </clipPath>
            <clipPath clipPathUnits="userSpaceOnUse" id="clipPath30">
                <path d="M609 169 L851 169 L851 271 L609 271 L609 169 Z"/>
            </clipPath>
            <clipPath clipPathUnits="userSpaceOnUse" id="clipPath31">
                <path d="M-1 -1 L861 -1 L861 621 L-1 621 L-1 -1 Z"/>
            </clipPath>
            <clipPath clipPathUnits="userSpaceOnUse" id="clipPath32">
                <path d="M124 109 L137 109 L137 127 L124 127 L124 109 Z"/>
            </clipPath>
        </defs>
        <g fill="url(#linearGradient1)" stroke-miterlimit="0" stroke-width="0" font-family="'Segoe UI'" stroke="url(#linearGradient1)" stroke-linejoin="round">
            <rect x="10" width="241" height="100" y="10" clip-path="url(#clipPath1)" stroke="none"/>
            <text fill="black" x="102" xml:space="preserve" y="26" clip-path="url(#clipPath2)" stroke="none">«Interface»</text>
            <text fill="black" x="73" xml:space="preserve" y="42" clip-path="url(#clipPath3)" stroke="none">IControlledVocabulary</text>
            <text fill="black" x="16" xml:space="preserve" y="61" clip-path="url(#clipPath4)" stroke="none">«ReferenceCode»   code: Identifier [1]</text>
        </g>
        <g stroke-linecap="butt" font-family="'Segoe UI'" stroke-width="1.1">
            <line y2="46" fill="none" x1="10" clip-path="url(#clipPath5)" x2="251" y1="46"/>
            <rect x="10" y="10" clip-path="url(#clipPath6)" fill="none" width="240" rx="0" ry="0" height="99"/>
            <rect x="190" y="170" clip-path="url(#clipPath7)" fill="url(#linearGradient2)" width="240" height="113" stroke="none"/>
            <text x="266" xml:space="preserve" y="186" clip-path="url(#clipPath8)" stroke="none">«ReferenceData»</text>
            <text x="288" xml:space="preserve" y="202" clip-path="url(#clipPath9)" stroke="none">Account</text>
            <text x="196" xml:space="preserve" y="221" clip-path="url(#clipPath10)" stroke="none">«Unique»   accountCombination: Accoun...</text>
            <text x="196" xml:space="preserve" y="237" clip-path="url(#clipPath11)" stroke="none">  ledger: Ledger [1]</text>
            <line y2="206" fill="none" x1="190" clip-path="url(#clipPath12)" x2="430" y1="206"/>
            <rect x="190" y="170" clip-path="url(#clipPath13)" fill="none" width="239" rx="0" ry="0" height="112"/>
            <rect x="189" y="510" clip-path="url(#clipPath14)" fill="url(#linearGradient3)" width="241" height="100" stroke="none"/>
            <text x="266" xml:space="preserve" y="526" clip-path="url(#clipPath15)" stroke="none">«ReferenceData»</text>
            <text x="291" xml:space="preserve" y="542" clip-path="url(#clipPath16)" stroke="none">Journal</text>
            <line y2="546" fill="none" x1="189" clip-path="url(#clipPath17)" x2="430" y1="546"/>
            <rect x="189" y="510" clip-path="url(#clipPath18)" fill="none" width="240" rx="0" ry="0" height="99"/>
            <rect x="190" y="350" clip-path="url(#clipPath19)" fill="url(#linearGradient4)" width="241" height="100" stroke="none"/>
            <text x="267" xml:space="preserve" y="366" clip-path="url(#clipPath20)" stroke="none">«ReferenceData»</text>
            <text x="293" xml:space="preserve" y="382" clip-path="url(#clipPath21)" stroke="none">Ledger</text>
            <line y2="386" fill="none" x1="190" clip-path="url(#clipPath22)" x2="431" y1="386"/>
            <rect x="190" y="350" clip-path="url(#clipPath23)" fill="none" width="240" rx="0" ry="0" height="99"/>
            <rect x="610" y="170" clip-path="url(#clipPath24)" fill="url(#linearGradient5)" width="240" height="100" stroke="none"/>
            <text x="700" xml:space="preserve" y="186" clip-path="url(#clipPath25)" stroke="none">«DataType»</text>
            <text x="673" xml:space="preserve" y="202" clip-path="url(#clipPath26)" stroke="none">AccountCombination</text>
            <text x="616" xml:space="preserve" y="221" clip-path="url(#clipPath27)" stroke="none">  glAccount: GLAccount [1]</text>
            <text x="616" xml:space="preserve" y="237" clip-path="url(#clipPath28)" stroke="none">  segment: Segment [1..*]</text>
            <line y2="206" fill="none" x1="610" clip-path="url(#clipPath29)" x2="850" y1="206"/>
            <rect x="610" y="170" clip-path="url(#clipPath30)" fill="none" width="239" rx="0" ry="0" height="99"/>
            <line clip-path="url(#clipPath31)" fill="none" text-rendering="optimizeLegibility" x1="189" x2="130" y1="550" y2="550" stroke-dasharray="5,5,5,5,5,5,5,5,5,5"/>
            <line clip-path="url(#clipPath31)" fill="none" text-rendering="optimizeLegibility" x1="130" x2="130" y1="550" y2="110" stroke-dasharray="5,5,5,5,5,5,5,5,5,5"/>
        </g>
        <g stroke-linecap="butt" fill="white" text-rendering="optimizeLegibility" font-family="'Segoe UI'" stroke-dasharray="5,5,5,5,5,5,5,5,5,5" stroke="white" stroke-width="1.1">
            <polygon points=" 130 110 135 125 125 125" stroke="none" clip-path="url(#clipPath32)"/>
            <polygon fill="none" stroke-dasharray="none" clip-path="url(#clipPath32)" points=" 130 110 135 125 125 125" stroke="black"/>
            <line clip-path="url(#clipPath31)" fill="none" x1="190" x2="130" y1="210" y2="210" stroke="black"/>
            <line clip-path="url(#clipPath31)" fill="none" x1="130" x2="130" y1="210" y2="110" stroke="black"/>
            <polygon points=" 130 110 135 125 125 125" clip-path="url(#clipPath32)" stroke="none"/>
            <polygon fill="none" stroke-dasharray="none" clip-path="url(#clipPath32)" points=" 130 110 135 125 125 125" stroke="black"/>
            <line clip-path="url(#clipPath31)" fill="none" x1="190" x2="130" y1="390" y2="390" stroke="black"/>
            <line clip-path="url(#clipPath31)" fill="none" x1="130" x2="130" y1="390" y2="110" stroke="black"/>
            <polygon points=" 130 110 135 125 125 125" clip-path="url(#clipPath32)" stroke="none"/>
            <polygon fill="none" stroke-dasharray="none" clip-path="url(#clipPath32)" points=" 130 110 135 125 125 125" stroke="black"/>
        </g>
    </g>
</svg>
