<?xml version="1.0" encoding="UTF-8"?><svg xmlns="http://www.w3.org/2000/svg" xmlns:xlink="http://www.w3.org/1999/xlink" stroke-dasharray="none" shape-rendering="auto" font-family="'Dialog'" width="1261" text-rendering="auto" fill-opacity="1" contentScriptType="text/ecmascript" color-interpolation="auto" color-rendering="auto" preserveAspectRatio="xMidYMid meet" font-size="12px" viewBox="0 0 1261 646" fill="black" stroke="black" image-rendering="auto" stroke-miterlimit="10" zoomAndPan="magnify" version="1.0" stroke-linecap="square" stroke-linejoin="miter" contentStyleType="text/css" font-style="normal" height="646" stroke-width="1" stroke-dashoffset="0" font-weight="normal" stroke-opacity="1">
    <!--Generated by the Batik Graphics2D SVG Generator-->
    <defs id="genericDefs"/>
    <g>
        <defs id="defs1">
            <linearGradient x1="250" x2="250" y1="10" gradientUnits="userSpaceOnUse" y2="156" xlink:type="simple" xlink:actuate="onLoad" id="linearGradient1" xlink:show="other" spreadMethod="pad">
                <stop stop-opacity="1" stop-color="white" offset="0%"/>
                <stop stop-opacity="1" stop-color="rgb(195,215,221)" offset="100%"/>
            </linearGradient>
            <linearGradient x1="250" x2="250" y1="270" gradientUnits="userSpaceOnUse" y2="370" xlink:type="simple" xlink:actuate="onLoad" id="linearGradient2" xlink:show="other" spreadMethod="pad">
                <stop stop-opacity="1" stop-color="white" offset="0%"/>
                <stop stop-opacity="1" stop-color="rgb(195,215,221)" offset="100%"/>
            </linearGradient>
            <linearGradient x1="10" x2="10" y1="490" gradientUnits="userSpaceOnUse" y2="590" xlink:type="simple" xlink:actuate="onLoad" id="linearGradient3" xlink:show="other" spreadMethod="pad">
                <stop stop-opacity="1" stop-color="white" offset="0%"/>
                <stop stop-opacity="1" stop-color="rgb(195,215,221)" offset="100%"/>
            </linearGradient>
            <linearGradient x1="490" x2="490" y1="490" gradientUnits="userSpaceOnUse" y2="636" xlink:type="simple" xlink:actuate="onLoad" id="linearGradient4" xlink:show="other" spreadMethod="pad">
                <stop stop-opacity="1" stop-color="white" offset="0%"/>
                <stop stop-opacity="1" stop-color="rgb(195,215,221)" offset="100%"/>
            </linearGradient>
            <linearGradient x1="1010" x2="1010" y1="330" gradientUnits="userSpaceOnUse" y2="430" xlink:type="simple" xlink:actuate="onLoad" id="linearGradient5" xlink:show="other" spreadMethod="pad">
                <stop stop-opacity="1" stop-color="white" offset="0%"/>
                <stop stop-opacity="1" stop-color="rgb(195,167,173)" offset="100%"/>
            </linearGradient>
            <linearGradient x1="830" x2="830" y1="10" gradientUnits="userSpaceOnUse" y2="110" xlink:type="simple" xlink:actuate="onLoad" id="linearGradient6" xlink:show="other" spreadMethod="pad">
                <stop stop-opacity="1" stop-color="white" offset="0%"/>
                <stop stop-opacity="1" stop-color="rgb(131,135,205)" offset="100%"/>
            </linearGradient>
            <linearGradient x1="1010" x2="1010" y1="490" gradientUnits="userSpaceOnUse" y2="590" xlink:type="simple" xlink:actuate="onLoad" id="linearGradient7" xlink:show="other" spreadMethod="pad">
                <stop stop-opacity="1" stop-color="white" offset="0%"/>
                <stop stop-opacity="1" stop-color="rgb(195,167,173)" offset="100%"/>
            </linearGradient>
            <linearGradient x1="1010" x2="1010" y1="170" gradientUnits="userSpaceOnUse" y2="270" xlink:type="simple" xlink:actuate="onLoad" id="linearGradient8" xlink:show="other" spreadMethod="pad">
                <stop stop-opacity="1" stop-color="white" offset="0%"/>
                <stop stop-opacity="1" stop-color="rgb(195,167,173)" offset="100%"/>
            </linearGradient>
            <clipPath clipPathUnits="userSpaceOnUse" id="clipPath1">
                <path d="M250 10 L250 155 L490 155 L490 10 Z"/>
            </clipPath>
            <clipPath clipPathUnits="userSpaceOnUse" id="clipPath2">
                <path d="M327 12 L415 12 L415 29 L327 29 L327 12 Z"/>
            </clipPath>
            <clipPath clipPathUnits="userSpaceOnUse" id="clipPath3">
                <path d="M255 31 L402 31 L402 48 L255 48 L255 31 Z"/>
            </clipPath>
            <clipPath clipPathUnits="userSpaceOnUse" id="clipPath4">
                <path d="M255 47 L471 47 L471 64 L255 64 L255 47 Z"/>
            </clipPath>
            <clipPath clipPathUnits="userSpaceOnUse" id="clipPath5">
                <path d="M255 63 L461 63 L461 80 L255 80 L255 63 Z"/>
            </clipPath>
            <clipPath clipPathUnits="userSpaceOnUse" id="clipPath6">
                <path d="M255 79 L333 79 L333 96 L255 96 L255 79 Z"/>
            </clipPath>
            <clipPath clipPathUnits="userSpaceOnUse" id="clipPath7">
                <path d="M255 95 L348 95 L348 112 L255 112 L255 95 Z"/>
            </clipPath>
            <clipPath clipPathUnits="userSpaceOnUse" id="clipPath8">
                <path d="M250 29 L492 29 L492 156 L250 156 L250 29 Z"/>
            </clipPath>
            <clipPath clipPathUnits="userSpaceOnUse" id="clipPath9">
                <path d="M249 9 L492 9 L492 157 L249 157 L249 9 Z"/>
            </clipPath>
            <clipPath clipPathUnits="userSpaceOnUse" id="clipPath10">
                <path d="M250 270 L250 369 L490 369 L490 270 Z"/>
            </clipPath>
            <clipPath clipPathUnits="userSpaceOnUse" id="clipPath11">
                <path d="M328 272 L415 272 L415 289 L328 289 L328 272 Z"/>
            </clipPath>
            <clipPath clipPathUnits="userSpaceOnUse" id="clipPath12">
                <path d="M250 289 L492 289 L492 371 L250 371 L250 289 Z"/>
            </clipPath>
            <clipPath clipPathUnits="userSpaceOnUse" id="clipPath13">
                <path d="M249 269 L492 269 L492 371 L249 371 L249 269 Z"/>
            </clipPath>
            <clipPath clipPathUnits="userSpaceOnUse" id="clipPath14">
                <path d="M10 490 L10 589 L250 589 L250 490 Z"/>
            </clipPath>
            <clipPath clipPathUnits="userSpaceOnUse" id="clipPath15">
                <path d="M88 492 L175 492 L175 509 L88 509 L88 492 Z"/>
            </clipPath>
            <clipPath clipPathUnits="userSpaceOnUse" id="clipPath16">
                <path d="M15 511 L228 511 L228 528 L15 528 L15 511 Z"/>
            </clipPath>
            <clipPath clipPathUnits="userSpaceOnUse" id="clipPath17">
                <path d="M15 527 L180 527 L180 544 L15 544 L15 527 Z"/>
            </clipPath>
            <clipPath clipPathUnits="userSpaceOnUse" id="clipPath18">
                <path d="M10 509 L252 509 L252 591 L10 591 L10 509 Z"/>
            </clipPath>
            <clipPath clipPathUnits="userSpaceOnUse" id="clipPath19">
                <path d="M9 489 L252 489 L252 591 L9 591 L9 489 Z"/>
            </clipPath>
            <clipPath clipPathUnits="userSpaceOnUse" id="clipPath20">
                <path d="M490 490 L490 635 L730 635 L730 490 Z"/>
            </clipPath>
            <clipPath clipPathUnits="userSpaceOnUse" id="clipPath21">
                <path d="M563 492 L659 492 L659 509 L563 509 L563 492 Z"/>
            </clipPath>
            <clipPath clipPathUnits="userSpaceOnUse" id="clipPath22">
                <path d="M495 511 L718 511 L718 528 L495 528 L495 511 Z"/>
            </clipPath>
            <clipPath clipPathUnits="userSpaceOnUse" id="clipPath23">
                <path d="M495 527 L616 527 L616 544 L495 544 L495 527 Z"/>
            </clipPath>
            <clipPath clipPathUnits="userSpaceOnUse" id="clipPath24">
                <path d="M495 543 L667 543 L667 560 L495 560 L495 543 Z"/>
            </clipPath>
            <clipPath clipPathUnits="userSpaceOnUse" id="clipPath25">
                <path d="M495 559 L701 559 L701 576 L495 576 L495 559 Z"/>
            </clipPath>
            <clipPath clipPathUnits="userSpaceOnUse" id="clipPath26">
                <path d="M495 575 L681 575 L681 592 L495 592 L495 575 Z"/>
            </clipPath>
            <clipPath clipPathUnits="userSpaceOnUse" id="clipPath27">
                <path d="M490 509 L732 509 L732 636 L490 636 L490 509 Z"/>
            </clipPath>
            <clipPath clipPathUnits="userSpaceOnUse" id="clipPath28">
                <path d="M489 489 L732 489 L732 637 L489 637 L489 489 Z"/>
            </clipPath>
            <clipPath clipPathUnits="userSpaceOnUse" id="clipPath29">
                <path d="M1010 330 L1010 429 L1250 429 L1250 330 Z"/>
            </clipPath>
            <clipPath clipPathUnits="userSpaceOnUse" id="clipPath30">
                <path d="M1086 332 L1177 332 L1177 349 L1086 349 L1086 332 Z"/>
            </clipPath>
            <clipPath clipPathUnits="userSpaceOnUse" id="clipPath31">
                <path d="M1076 348 L1186 348 L1186 365 L1076 365 L1076 348 Z"/>
            </clipPath>
            <clipPath clipPathUnits="userSpaceOnUse" id="clipPath32">
                <path d="M1010 365 L1252 365 L1252 431 L1010 431 L1010 365 Z"/>
            </clipPath>
            <clipPath clipPathUnits="userSpaceOnUse" id="clipPath33">
                <path d="M1009 329 L1252 329 L1252 431 L1009 431 L1009 329 Z"/>
            </clipPath>
            <clipPath clipPathUnits="userSpaceOnUse" id="clipPath34">
                <path d="M830 10 L830 109 L1070 109 L1070 10 Z"/>
            </clipPath>
            <clipPath clipPathUnits="userSpaceOnUse" id="clipPath35">
                <path d="M921 12 L982 12 L982 29 L921 29 L921 12 Z"/>
            </clipPath>
            <clipPath clipPathUnits="userSpaceOnUse" id="clipPath36">
                <path d="M892 28 L1011 28 L1011 45 L892 45 L892 28 Z"/>
            </clipPath>
            <clipPath clipPathUnits="userSpaceOnUse" id="clipPath37">
                <path d="M835 47 L1034 47 L1034 64 L835 64 L835 47 Z"/>
            </clipPath>
            <clipPath clipPathUnits="userSpaceOnUse" id="clipPath38">
                <path d="M830 45 L1072 45 L1072 111 L830 111 L830 45 Z"/>
            </clipPath>
            <clipPath clipPathUnits="userSpaceOnUse" id="clipPath39">
                <path d="M829 9 L1072 9 L1072 111 L829 111 L829 9 Z"/>
            </clipPath>
            <clipPath clipPathUnits="userSpaceOnUse" id="clipPath40">
                <path d="M1010 490 L1010 589 L1250 589 L1250 490 Z"/>
            </clipPath>
            <clipPath clipPathUnits="userSpaceOnUse" id="clipPath41">
                <path d="M1086 492 L1177 492 L1177 509 L1086 509 L1086 492 Z"/>
            </clipPath>
            <clipPath clipPathUnits="userSpaceOnUse" id="clipPath42">
                <path d="M1071 508 L1191 508 L1191 525 L1071 525 L1071 508 Z"/>
            </clipPath>
            <clipPath clipPathUnits="userSpaceOnUse" id="clipPath43">
                <path d="M1010 525 L1252 525 L1252 591 L1010 591 L1010 525 Z"/>
            </clipPath>
            <clipPath clipPathUnits="userSpaceOnUse" id="clipPath44">
                <path d="M1009 489 L1252 489 L1252 591 L1009 591 L1009 489 Z"/>
            </clipPath>
            <clipPath clipPathUnits="userSpaceOnUse" id="clipPath45">
                <path d="M1010 170 L1010 269 L1250 269 L1250 170 Z"/>
            </clipPath>
            <clipPath clipPathUnits="userSpaceOnUse" id="clipPath46">
                <path d="M1086 172 L1177 172 L1177 189 L1086 189 L1086 172 Z"/>
            </clipPath>
            <clipPath clipPathUnits="userSpaceOnUse" id="clipPath47">
                <path d="M1084 188 L1179 188 L1179 205 L1084 205 L1084 188 Z"/>
            </clipPath>
            <clipPath clipPathUnits="userSpaceOnUse" id="clipPath48">
                <path d="M1010 205 L1252 205 L1252 271 L1010 271 L1010 205 Z"/>
            </clipPath>
            <clipPath clipPathUnits="userSpaceOnUse" id="clipPath49">
                <path d="M1009 169 L1252 169 L1252 271 L1009 271 L1009 169 Z"/>
            </clipPath>
            <clipPath clipPathUnits="userSpaceOnUse" id="clipPath50">
                <path d="M-1 -1 L1262 -1 L1262 647 L-1 647 L-1 -1 Z"/>
            </clipPath>
            <clipPath clipPathUnits="userSpaceOnUse" id="clipPath51">
                <path d="M344 164 L356 164 L356 181 L344 181 L344 164 Z"/>
            </clipPath>
            <clipPath clipPathUnits="userSpaceOnUse" id="clipPath52">
                <path d="M379 245 L402 245 L402 262 L379 262 L379 245 Z"/>
            </clipPath>
            <clipPath clipPathUnits="userSpaceOnUse" id="clipPath53">
                <path d="M361 369 L380 369 L380 382 L361 382 L361 369 Z"/>
            </clipPath>
            <clipPath clipPathUnits="userSpaceOnUse" id="clipPath54">
                <path d="M944 109 L957 109 L957 127 L944 127 L944 109 Z"/>
            </clipPath>
        </defs>
        <g fill="url(#linearGradient1)" stroke-miterlimit="0" stroke-width="0" font-family="'Segoe UI'" stroke="url(#linearGradient1)" stroke-linejoin="round">
            <rect x="250" width="241" height="146" y="10" clip-path="url(#clipPath1)" stroke="none"/>
            <text fill="black" x="328" xml:space="preserve" y="26" clip-path="url(#clipPath2)" stroke="none">SalesTransaction</text>
            <text fill="black" x="256" xml:space="preserve" y="45" clip-path="url(#clipPath3)" stroke="none">  transactionId: Identifier [1]</text>
            <text fill="black" x="256" xml:space="preserve" y="61" clip-path="url(#clipPath4)" stroke="none">  transactionOrigin: TransactionOrigin [1]</text>
            <text fill="black" x="256" xml:space="preserve" y="77" clip-path="url(#clipPath5)" stroke="none">  originatingTransactionId: Identifier [1]</text>
            <text fill="black" x="256" xml:space="preserve" y="93" clip-path="url(#clipPath6)" stroke="none">  date: Date [1]</text>
            <text fill="black" x="256" xml:space="preserve" y="109" clip-path="url(#clipPath7)" stroke="none">  time: Time [0..1]</text>
        </g>
        <g stroke-linecap="butt" font-family="'Segoe UI'" stroke-width="1.1">
            <line y2="30" fill="none" x1="250" clip-path="url(#clipPath8)" x2="491" y1="30"/>
            <rect x="250" y="10" clip-path="url(#clipPath9)" fill="none" width="240" rx="0" ry="0" height="145"/>
            <rect x="250" y="270" clip-path="url(#clipPath10)" fill="url(#linearGradient2)" width="241" height="100" stroke="none"/>
            <text x="329" y="286" clip-path="url(#clipPath11)" fill="rgb(169,169,169)" font-style="italic" stroke="none" xml:space="preserve">TransactionLine</text>
            <line y2="290" fill="none" x1="250" clip-path="url(#clipPath12)" x2="491" y1="290"/>
            <rect x="250" y="270" clip-path="url(#clipPath13)" fill="none" width="240" rx="0" ry="0" height="99"/>
            <rect x="10" y="490" clip-path="url(#clipPath14)" fill="url(#linearGradient3)" width="241" height="100" stroke="none"/>
            <text x="89" y="506" clip-path="url(#clipPath15)" fill="rgb(169,169,169)" font-style="italic" stroke="none" xml:space="preserve">FundsExchange</text>
            <text x="16" xml:space="preserve" y="525" clip-path="url(#clipPath16)" stroke="none">  exchangeType: FundsExchangeType [1]</text>
            <text x="16" xml:space="preserve" y="541" clip-path="url(#clipPath17)" stroke="none">  amount: CurrencyAmount [1]</text>
            <line y2="510" fill="none" x1="10" clip-path="url(#clipPath18)" x2="251" y1="510"/>
            <rect x="10" y="490" clip-path="url(#clipPath19)" fill="none" width="240" rx="0" ry="0" height="99"/>
            <rect x="490" y="490" clip-path="url(#clipPath20)" fill="url(#linearGradient4)" width="241" height="146" stroke="none"/>
            <text x="564" xml:space="preserve" y="506" clip-path="url(#clipPath21)" stroke="none">ProductExchange</text>
            <text x="496" xml:space="preserve" y="525" clip-path="url(#clipPath22)" stroke="none">  exchangeType: ProductExchangeType [1]</text>
            <text x="496" xml:space="preserve" y="541" clip-path="url(#clipPath23)" stroke="none">  quantity: Quantity [1]</text>
            <text x="496" xml:space="preserve" y="557" clip-path="url(#clipPath24)" stroke="none">  pricePaid: CurrencyAmount [1]</text>
            <text x="496" xml:space="preserve" y="573" clip-path="url(#clipPath25)" stroke="none">  priceAdjustment: PriceAdjustment [*]</text>
            <text x="496" xml:space="preserve" y="589" clip-path="url(#clipPath26)" stroke="none">  appliedCharge: AppliedCharge [*]</text>
            <line y2="510" fill="none" x1="490" clip-path="url(#clipPath27)" x2="731" y1="510"/>
            <rect x="490" y="490" clip-path="url(#clipPath28)" fill="none" width="240" rx="0" ry="0" height="145"/>
            <rect x="1010" y="330" clip-path="url(#clipPath29)" fill="url(#linearGradient5)" width="241" height="100" stroke="none"/>
            <text x="1087" xml:space="preserve" y="346" clip-path="url(#clipPath30)" stroke="none">«ReferenceData»</text>
            <text x="1077" xml:space="preserve" y="362" clip-path="url(#clipPath31)" stroke="none">FundsExchangeType</text>
            <line y2="366" fill="none" x1="1010" clip-path="url(#clipPath32)" x2="1251" y1="366"/>
            <rect x="1010" y="330" clip-path="url(#clipPath33)" fill="none" width="240" rx="0" ry="0" height="99"/>
            <rect x="830" y="10" clip-path="url(#clipPath34)" fill="url(#linearGradient6)" width="241" height="100" stroke="none"/>
            <text x="922" xml:space="preserve" y="26" clip-path="url(#clipPath35)" stroke="none">«Interface»</text>
            <text x="893" xml:space="preserve" y="42" clip-path="url(#clipPath36)" stroke="none">IControlledVocabulary</text>
            <text x="836" xml:space="preserve" y="61" clip-path="url(#clipPath37)" stroke="none">«ReferenceCode»   code: Identifier [1]</text>
            <line y2="46" fill="none" x1="830" clip-path="url(#clipPath38)" x2="1071" y1="46"/>
            <rect x="830" y="10" clip-path="url(#clipPath39)" fill="none" width="240" rx="0" ry="0" height="99"/>
            <rect x="1010" y="490" clip-path="url(#clipPath40)" fill="url(#linearGradient7)" width="241" height="100" stroke="none"/>
            <text x="1087" xml:space="preserve" y="506" clip-path="url(#clipPath41)" stroke="none">«ReferenceData»</text>
            <text x="1072" xml:space="preserve" y="522" clip-path="url(#clipPath42)" stroke="none">ProductExchangeType</text>
            <line y2="526" fill="none" x1="1010" clip-path="url(#clipPath43)" x2="1251" y1="526"/>
            <rect x="1010" y="490" clip-path="url(#clipPath44)" fill="none" width="240" rx="0" ry="0" height="99"/>
            <rect x="1010" y="170" clip-path="url(#clipPath45)" fill="url(#linearGradient8)" width="241" height="100" stroke="none"/>
            <text x="1087" xml:space="preserve" y="186" clip-path="url(#clipPath46)" stroke="none">«ReferenceData»</text>
            <text x="1085" xml:space="preserve" y="202" clip-path="url(#clipPath47)" stroke="none">TransactionOrigin</text>
            <line y2="206" fill="none" x1="1010" clip-path="url(#clipPath48)" x2="1251" y1="206"/>
            <rect x="1010" y="170" clip-path="url(#clipPath49)" fill="none" width="240" rx="0" ry="0" height="99"/>
            <line clip-path="url(#clipPath50)" fill="none" text-rendering="optimizeLegibility" x1="370" x2="370" y1="156" y2="270"/>
            <text text-rendering="optimizeLegibility" x="345" xml:space="preserve" y="178" clip-path="url(#clipPath51)" stroke="none"> 1</text>
            <text text-rendering="optimizeLegibility" x="380" xml:space="preserve" y="259" clip-path="url(#clipPath52)" stroke="none"> 1..*</text>
            <line clip-path="url(#clipPath50)" fill="none" text-rendering="optimizeLegibility" x1="130" x2="130" y1="490" y2="430"/>
            <line clip-path="url(#clipPath50)" fill="none" text-rendering="optimizeLegibility" x1="130" x2="370" y1="430" y2="430"/>
            <line clip-path="url(#clipPath50)" fill="none" text-rendering="optimizeLegibility" x1="370" x2="370" y1="430" y2="370"/>
            <polygon fill="white" text-rendering="optimizeLegibility" clip-path="url(#clipPath53)" points=" 370 370 378 380 362 380" stroke="none"/>
            <polygon fill="none" text-rendering="optimizeLegibility" clip-path="url(#clipPath53)" points=" 370 370 378 380 362 380"/>
            <line clip-path="url(#clipPath50)" fill="none" text-rendering="optimizeLegibility" x1="610" x2="610" y1="490" y2="430"/>
            <line clip-path="url(#clipPath50)" fill="none" text-rendering="optimizeLegibility" x1="610" x2="370" y1="430" y2="430"/>
            <line clip-path="url(#clipPath50)" fill="none" text-rendering="optimizeLegibility" x1="370" x2="370" y1="430" y2="370"/>
            <polygon fill="white" text-rendering="optimizeLegibility" clip-path="url(#clipPath53)" points=" 370 370 378 380 362 380" stroke="none"/>
            <polygon fill="none" text-rendering="optimizeLegibility" clip-path="url(#clipPath53)" points=" 370 370 378 380 362 380"/>
            <line clip-path="url(#clipPath50)" fill="none" text-rendering="optimizeLegibility" x1="1010" x2="950" y1="370" y2="370" stroke-dasharray="5,5,5,5,5,5,5,5,5,5"/>
            <line clip-path="url(#clipPath50)" fill="none" text-rendering="optimizeLegibility" x1="950" x2="950" y1="370" y2="110" stroke-dasharray="5,5,5,5,5,5,5,5,5,5"/>
        </g>
        <g stroke-linecap="butt" fill="white" text-rendering="optimizeLegibility" font-family="'Segoe UI'" stroke-dasharray="5,5,5,5,5,5,5,5,5,5" stroke="white" stroke-width="1.1">
            <polygon points=" 950 110 955 125 945 125" stroke="none" clip-path="url(#clipPath54)"/>
            <polygon fill="none" stroke-dasharray="none" clip-path="url(#clipPath54)" points=" 950 110 955 125 945 125" stroke="black"/>
            <line clip-path="url(#clipPath50)" fill="none" x1="1010" x2="950" y1="530" y2="530" stroke="black"/>
            <line clip-path="url(#clipPath50)" fill="none" x1="950" x2="950" y1="530" y2="110" stroke="black"/>
            <polygon points=" 950 110 955 125 945 125" clip-path="url(#clipPath54)" stroke="none"/>
            <polygon fill="none" stroke-dasharray="none" clip-path="url(#clipPath54)" points=" 950 110 955 125 945 125" stroke="black"/>
            <line clip-path="url(#clipPath50)" fill="none" x1="1010" x2="950" y1="210" y2="210" stroke="black"/>
            <line clip-path="url(#clipPath50)" fill="none" x1="950" x2="950" y1="210" y2="110" stroke="black"/>
            <polygon points=" 950 110 955 125 945 125" clip-path="url(#clipPath54)" stroke="none"/>
            <polygon fill="none" stroke-dasharray="none" clip-path="url(#clipPath54)" points=" 950 110 955 125 945 125" stroke="black"/>
        </g>
    </g>
</svg>
