<?xml version="1.0" encoding="UTF-8"?><svg xmlns="http://www.w3.org/2000/svg" xmlns:xlink="http://www.w3.org/1999/xlink" stroke-dasharray="none" shape-rendering="auto" font-family="'Dialog'" width="1121" text-rendering="auto" fill-opacity="1" contentScriptType="text/ecmascript" color-interpolation="auto" color-rendering="auto" preserveAspectRatio="xMidYMid meet" font-size="12px" viewBox="0 0 1121 840" fill="black" stroke="black" image-rendering="auto" stroke-miterlimit="10" zoomAndPan="magnify" version="1.0" stroke-linecap="square" stroke-linejoin="miter" contentStyleType="text/css" font-style="normal" height="840" stroke-width="1" stroke-dashoffset="0" font-weight="normal" stroke-opacity="1">
    <!--Generated by the Batik Graphics2D SVG Generator-->
    <defs id="genericDefs"/>
    <g>
        <defs id="defs1">
            <linearGradient x1="10" x2="10" y1="12" gradientUnits="userSpaceOnUse" y2="125" xlink:type="simple" xlink:actuate="onLoad" id="linearGradient1" xlink:show="other" spreadMethod="pad">
                <stop stop-opacity="1" stop-color="white" offset="0%"/>
                <stop stop-opacity="1" stop-color="rgb(131,135,205)" offset="100%"/>
            </linearGradient>
            <linearGradient x1="190" x2="190" y1="190" gradientUnits="userSpaceOnUse" y2="303" xlink:type="simple" xlink:actuate="onLoad" id="linearGradient2" xlink:show="other" spreadMethod="pad">
                <stop stop-opacity="1" stop-color="white" offset="0%"/>
                <stop stop-opacity="1" stop-color="rgb(195,167,173)" offset="100%"/>
            </linearGradient>
            <linearGradient x1="690" x2="690" y1="10" gradientUnits="userSpaceOnUse" y2="110" xlink:type="simple" xlink:actuate="onLoad" id="linearGradient3" xlink:show="other" spreadMethod="pad">
                <stop stop-opacity="1" stop-color="white" offset="0%"/>
                <stop stop-opacity="1" stop-color="rgb(179,215,189)" offset="100%"/>
            </linearGradient>
            <linearGradient x1="870" x2="870" y1="170" gradientUnits="userSpaceOnUse" y2="316" xlink:type="simple" xlink:actuate="onLoad" id="linearGradient4" xlink:show="other" spreadMethod="pad">
                <stop stop-opacity="1" stop-color="white" offset="0%"/>
                <stop stop-opacity="1" stop-color="rgb(163,199,173)" offset="100%"/>
            </linearGradient>
            <linearGradient x1="870" x2="870" y1="370" gradientUnits="userSpaceOnUse" y2="516" xlink:type="simple" xlink:actuate="onLoad" id="linearGradient5" xlink:show="other" spreadMethod="pad">
                <stop stop-opacity="1" stop-color="white" offset="0%"/>
                <stop stop-opacity="1" stop-color="rgb(163,199,173)" offset="100%"/>
            </linearGradient>
            <linearGradient x1="10" x2="10" y1="370" gradientUnits="userSpaceOnUse" y2="470" xlink:type="simple" xlink:actuate="onLoad" id="linearGradient6" xlink:show="other" spreadMethod="pad">
                <stop stop-opacity="1" stop-color="white" offset="0%"/>
                <stop stop-opacity="1" stop-color="rgb(131,135,205)" offset="100%"/>
            </linearGradient>
            <linearGradient x1="190" x2="190" y1="530" gradientUnits="userSpaceOnUse" y2="630" xlink:type="simple" xlink:actuate="onLoad" id="linearGradient7" xlink:show="other" spreadMethod="pad">
                <stop stop-opacity="1" stop-color="white" offset="0%"/>
                <stop stop-opacity="1" stop-color="rgb(195,167,173)" offset="100%"/>
            </linearGradient>
            <linearGradient x1="870" x2="870" y1="570" gradientUnits="userSpaceOnUse" y2="670" xlink:type="simple" xlink:actuate="onLoad" id="linearGradient8" xlink:show="other" spreadMethod="pad">
                <stop stop-opacity="1" stop-color="white" offset="0%"/>
                <stop stop-opacity="1" stop-color="rgb(163,199,173)" offset="100%"/>
            </linearGradient>
            <linearGradient x1="870" x2="870" y1="730" gradientUnits="userSpaceOnUse" y2="830" xlink:type="simple" xlink:actuate="onLoad" id="linearGradient9" xlink:show="other" spreadMethod="pad">
                <stop stop-opacity="1" stop-color="white" offset="0%"/>
                <stop stop-opacity="1" stop-color="rgb(163,199,173)" offset="100%"/>
            </linearGradient>
            <linearGradient x1="190" x2="190" y1="690" gradientUnits="userSpaceOnUse" y2="790" xlink:type="simple" xlink:actuate="onLoad" id="linearGradient10" xlink:show="other" spreadMethod="pad">
                <stop stop-opacity="1" stop-color="white" offset="0%"/>
                <stop stop-opacity="1" stop-color="rgb(195,167,173)" offset="100%"/>
            </linearGradient>
            <clipPath clipPathUnits="userSpaceOnUse" id="clipPath1">
                <path d="M10 12 L10 124 L250 124 L250 12 Z"/>
            </clipPath>
            <clipPath clipPathUnits="userSpaceOnUse" id="clipPath2">
                <path d="M101 14 L162 14 L162 31 L101 31 L101 14 Z"/>
            </clipPath>
            <clipPath clipPathUnits="userSpaceOnUse" id="clipPath3">
                <path d="M88 30 L175 30 L175 47 L88 47 L88 30 Z"/>
            </clipPath>
            <clipPath clipPathUnits="userSpaceOnUse" id="clipPath4">
                <path d="M15 49 L202 49 L202 66 L15 66 L15 49 Z"/>
            </clipPath>
            <clipPath clipPathUnits="userSpaceOnUse" id="clipPath5">
                <path d="M15 65 L148 65 L148 82 L15 82 L15 65 Z"/>
            </clipPath>
            <clipPath clipPathUnits="userSpaceOnUse" id="clipPath6">
                <path d="M10 47 L252 47 L252 126 L10 126 L10 47 Z"/>
            </clipPath>
            <clipPath clipPathUnits="userSpaceOnUse" id="clipPath7">
                <path d="M9 11 L252 11 L252 126 L9 126 L9 11 Z"/>
            </clipPath>
            <clipPath clipPathUnits="userSpaceOnUse" id="clipPath8">
                <path d="M190 190 L190 302 L430 302 L430 190 Z"/>
            </clipPath>
            <clipPath clipPathUnits="userSpaceOnUse" id="clipPath9">
                <path d="M266 192 L357 192 L357 209 L266 209 L266 192 Z"/>
            </clipPath>
            <clipPath clipPathUnits="userSpaceOnUse" id="clipPath10">
                <path d="M266 208 L357 208 L357 225 L266 225 L266 208 Z"/>
            </clipPath>
            <clipPath clipPathUnits="userSpaceOnUse" id="clipPath11">
                <path d="M195 227 L314 227 L314 244 L195 244 L195 227 Z"/>
            </clipPath>
            <clipPath clipPathUnits="userSpaceOnUse" id="clipPath12">
                <path d="M195 243 L384 243 L384 260 L195 260 L195 243 Z"/>
            </clipPath>
            <clipPath clipPathUnits="userSpaceOnUse" id="clipPath13">
                <path d="M190 225 L432 225 L432 304 L190 304 L190 225 Z"/>
            </clipPath>
            <clipPath clipPathUnits="userSpaceOnUse" id="clipPath14">
                <path d="M189 189 L432 189 L432 304 L189 304 L189 189 Z"/>
            </clipPath>
            <clipPath clipPathUnits="userSpaceOnUse" id="clipPath15">
                <path d="M690 10 L690 109 L930 109 L930 10 Z"/>
            </clipPath>
            <clipPath clipPathUnits="userSpaceOnUse" id="clipPath16">
                <path d="M776 12 L846 12 L846 29 L776 29 L776 12 Z"/>
            </clipPath>
            <clipPath clipPathUnits="userSpaceOnUse" id="clipPath17">
                <path d="M775 28 L847 28 L847 45 L775 45 L775 28 Z"/>
            </clipPath>
            <clipPath clipPathUnits="userSpaceOnUse" id="clipPath18">
                <path d="M690 45 L932 45 L932 111 L690 111 L690 45 Z"/>
            </clipPath>
            <clipPath clipPathUnits="userSpaceOnUse" id="clipPath19">
                <path d="M689 9 L932 9 L932 111 L689 111 L689 9 Z"/>
            </clipPath>
            <clipPath clipPathUnits="userSpaceOnUse" id="clipPath20">
                <path d="M870 170 L870 315 L1110 315 L1110 170 Z"/>
            </clipPath>
            <clipPath clipPathUnits="userSpaceOnUse" id="clipPath21">
                <path d="M960 172 L1023 172 L1023 189 L960 189 L960 172 Z"/>
            </clipPath>
            <clipPath clipPathUnits="userSpaceOnUse" id="clipPath22">
                <path d="M969 188 L1014 188 L1014 205 L969 205 L969 188 Z"/>
            </clipPath>
            <clipPath clipPathUnits="userSpaceOnUse" id="clipPath23">
                <path d="M875 207 L1014 207 L1014 224 L875 224 L875 207 Z"/>
            </clipPath>
            <clipPath clipPathUnits="userSpaceOnUse" id="clipPath24">
                <path d="M875 223 L988 223 L988 240 L875 240 L875 223 Z"/>
            </clipPath>
            <clipPath clipPathUnits="userSpaceOnUse" id="clipPath25">
                <path d="M875 239 L971 239 L971 256 L875 256 L875 239 Z"/>
            </clipPath>
            <clipPath clipPathUnits="userSpaceOnUse" id="clipPath26">
                <path d="M875 255 L988 255 L988 272 L875 272 L875 255 Z"/>
            </clipPath>
            <clipPath clipPathUnits="userSpaceOnUse" id="clipPath27">
                <path d="M875 271 L990 271 L990 288 L875 288 L875 271 Z"/>
            </clipPath>
            <clipPath clipPathUnits="userSpaceOnUse" id="clipPath28">
                <path d="M870 205 L1112 205 L1112 317 L870 317 L870 205 Z"/>
            </clipPath>
            <clipPath clipPathUnits="userSpaceOnUse" id="clipPath29">
                <path d="M869 169 L1112 169 L1112 317 L869 317 L869 169 Z"/>
            </clipPath>
            <clipPath clipPathUnits="userSpaceOnUse" id="clipPath30">
                <path d="M870 370 L870 515 L1110 515 L1110 370 Z"/>
            </clipPath>
            <clipPath clipPathUnits="userSpaceOnUse" id="clipPath31">
                <path d="M960 372 L1023 372 L1023 389 L960 389 L960 372 Z"/>
            </clipPath>
            <clipPath clipPathUnits="userSpaceOnUse" id="clipPath32">
                <path d="M941 388 L1042 388 L1042 405 L941 405 L941 388 Z"/>
            </clipPath>
            <clipPath clipPathUnits="userSpaceOnUse" id="clipPath33">
                <path d="M875 407 L1063 407 L1063 424 L875 424 L875 407 Z"/>
            </clipPath>
            <clipPath clipPathUnits="userSpaceOnUse" id="clipPath34">
                <path d="M875 423 L1033 423 L1033 440 L875 440 L875 423 Z"/>
            </clipPath>
            <clipPath clipPathUnits="userSpaceOnUse" id="clipPath35">
                <path d="M875 439 L1002 439 L1002 456 L875 456 L875 439 Z"/>
            </clipPath>
            <clipPath clipPathUnits="userSpaceOnUse" id="clipPath36">
                <path d="M875 455 L1046 455 L1046 472 L875 472 L875 455 Z"/>
            </clipPath>
            <clipPath clipPathUnits="userSpaceOnUse" id="clipPath37">
                <path d="M875 471 L1063 471 L1063 488 L875 488 L875 471 Z"/>
            </clipPath>
            <clipPath clipPathUnits="userSpaceOnUse" id="clipPath38">
                <path d="M870 405 L1112 405 L1112 517 L870 517 L870 405 Z"/>
            </clipPath>
            <clipPath clipPathUnits="userSpaceOnUse" id="clipPath39">
                <path d="M869 369 L1112 369 L1112 517 L869 517 L869 369 Z"/>
            </clipPath>
            <clipPath clipPathUnits="userSpaceOnUse" id="clipPath40">
                <path d="M10 370 L10 469 L250 469 L250 370 Z"/>
            </clipPath>
            <clipPath clipPathUnits="userSpaceOnUse" id="clipPath41">
                <path d="M101 372 L162 372 L162 389 L101 389 L101 372 Z"/>
            </clipPath>
            <clipPath clipPathUnits="userSpaceOnUse" id="clipPath42">
                <path d="M72 388 L191 388 L191 405 L72 405 L72 388 Z"/>
            </clipPath>
            <clipPath clipPathUnits="userSpaceOnUse" id="clipPath43">
                <path d="M15 407 L214 407 L214 424 L15 424 L15 407 Z"/>
            </clipPath>
            <clipPath clipPathUnits="userSpaceOnUse" id="clipPath44">
                <path d="M10 405 L252 405 L252 471 L10 471 L10 405 Z"/>
            </clipPath>
            <clipPath clipPathUnits="userSpaceOnUse" id="clipPath45">
                <path d="M9 369 L252 369 L252 471 L9 471 L9 369 Z"/>
            </clipPath>
            <clipPath clipPathUnits="userSpaceOnUse" id="clipPath46">
                <path d="M190 530 L190 629 L430 629 L430 530 Z"/>
            </clipPath>
            <clipPath clipPathUnits="userSpaceOnUse" id="clipPath47">
                <path d="M266 532 L357 532 L357 549 L266 549 L266 532 Z"/>
            </clipPath>
            <clipPath clipPathUnits="userSpaceOnUse" id="clipPath48">
                <path d="M249 548 L374 548 L374 565 L249 565 L249 548 Z"/>
            </clipPath>
            <clipPath clipPathUnits="userSpaceOnUse" id="clipPath49">
                <path d="M190 565 L432 565 L432 631 L190 631 L190 565 Z"/>
            </clipPath>
            <clipPath clipPathUnits="userSpaceOnUse" id="clipPath50">
                <path d="M189 529 L432 529 L432 631 L189 631 L189 529 Z"/>
            </clipPath>
            <clipPath clipPathUnits="userSpaceOnUse" id="clipPath51">
                <path d="M870 570 L870 669 L1110 669 L1110 570 Z"/>
            </clipPath>
            <clipPath clipPathUnits="userSpaceOnUse" id="clipPath52">
                <path d="M960 572 L1023 572 L1023 589 L960 589 L960 572 Z"/>
            </clipPath>
            <clipPath clipPathUnits="userSpaceOnUse" id="clipPath53">
                <path d="M954 588 L1028 588 L1028 605 L954 605 L954 588 Z"/>
            </clipPath>
            <clipPath clipPathUnits="userSpaceOnUse" id="clipPath54">
                <path d="M875 607 L967 607 L967 624 L875 624 L875 607 Z"/>
            </clipPath>
            <clipPath clipPathUnits="userSpaceOnUse" id="clipPath55">
                <path d="M875 623 L978 623 L978 640 L875 640 L875 623 Z"/>
            </clipPath>
            <clipPath clipPathUnits="userSpaceOnUse" id="clipPath56">
                <path d="M870 605 L1112 605 L1112 671 L870 671 L870 605 Z"/>
            </clipPath>
            <clipPath clipPathUnits="userSpaceOnUse" id="clipPath57">
                <path d="M869 569 L1112 569 L1112 671 L869 671 L869 569 Z"/>
            </clipPath>
            <clipPath clipPathUnits="userSpaceOnUse" id="clipPath58">
                <path d="M870 730 L870 829 L1110 829 L1110 730 Z"/>
            </clipPath>
            <clipPath clipPathUnits="userSpaceOnUse" id="clipPath59">
                <path d="M960 732 L1023 732 L1023 749 L960 749 L960 732 Z"/>
            </clipPath>
            <clipPath clipPathUnits="userSpaceOnUse" id="clipPath60">
                <path d="M933 748 L1050 748 L1050 765 L933 765 L933 748 Z"/>
            </clipPath>
            <clipPath clipPathUnits="userSpaceOnUse" id="clipPath61">
                <path d="M875 767 L973 767 L973 784 L875 784 L875 767 Z"/>
            </clipPath>
            <clipPath clipPathUnits="userSpaceOnUse" id="clipPath62">
                <path d="M875 783 L1025 783 L1025 800 L875 800 L875 783 Z"/>
            </clipPath>
            <clipPath clipPathUnits="userSpaceOnUse" id="clipPath63">
                <path d="M870 765 L1112 765 L1112 831 L870 831 L870 765 Z"/>
            </clipPath>
            <clipPath clipPathUnits="userSpaceOnUse" id="clipPath64">
                <path d="M869 729 L1112 729 L1112 831 L869 831 L869 729 Z"/>
            </clipPath>
            <clipPath clipPathUnits="userSpaceOnUse" id="clipPath65">
                <path d="M190 690 L190 789 L430 789 L430 690 Z"/>
            </clipPath>
            <clipPath clipPathUnits="userSpaceOnUse" id="clipPath66">
                <path d="M266 692 L357 692 L357 709 L266 709 L266 692 Z"/>
            </clipPath>
            <clipPath clipPathUnits="userSpaceOnUse" id="clipPath67">
                <path d="M272 708 L350 708 L350 725 L272 725 L272 708 Z"/>
            </clipPath>
            <clipPath clipPathUnits="userSpaceOnUse" id="clipPath68">
                <path d="M190 725 L432 725 L432 791 L190 791 L190 725 Z"/>
            </clipPath>
            <clipPath clipPathUnits="userSpaceOnUse" id="clipPath69">
                <path d="M189 689 L432 689 L432 791 L189 791 L189 689 Z"/>
            </clipPath>
            <clipPath clipPathUnits="userSpaceOnUse" id="clipPath70">
                <path d="M-1 -1 L1122 -1 L1122 841 L-1 841 L-1 -1 Z"/>
            </clipPath>
            <clipPath clipPathUnits="userSpaceOnUse" id="clipPath71">
                <path d="M124 124 L137 124 L137 142 L124 142 L124 124 Z"/>
            </clipPath>
            <clipPath clipPathUnits="userSpaceOnUse" id="clipPath72">
                <path d="M41 124 L60 124 L60 137 L41 137 L41 124 Z"/>
            </clipPath>
            <clipPath clipPathUnits="userSpaceOnUse" id="clipPath73">
                <path d="M124 469 L137 469 L137 487 L124 487 L124 469 Z"/>
            </clipPath>
            <clipPath clipPathUnits="userSpaceOnUse" id="clipPath74">
                <path d="M801 109 L820 109 L820 122 L801 122 L801 109 Z"/>
            </clipPath>
        </defs>
        <g fill="url(#linearGradient1)" stroke-miterlimit="0" stroke-width="0" font-family="'Segoe UI'" stroke="url(#linearGradient1)" stroke-linejoin="round">
            <rect x="10" width="241" height="113" y="12" clip-path="url(#clipPath1)" stroke="none"/>
            <text fill="black" x="102" xml:space="preserve" y="28" clip-path="url(#clipPath2)" stroke="none">«Interface»</text>
            <text fill="black" x="89" xml:space="preserve" y="44" clip-path="url(#clipPath3)" stroke="none">IReferenceEntity</text>
            <text fill="black" x="16" xml:space="preserve" y="63" clip-path="url(#clipPath4)" stroke="none">«ReferenceLabel»   name: String [1]</text>
            <text fill="black" x="16" xml:space="preserve" y="79" clip-path="url(#clipPath5)" stroke="none">  description: String [0..1]</text>
        </g>
        <g stroke-linecap="butt" font-family="'Segoe UI'" stroke-width="1.1">
            <line y2="48" fill="none" x1="10" clip-path="url(#clipPath6)" x2="251" y1="48"/>
            <rect x="10" y="12" clip-path="url(#clipPath7)" fill="none" width="240" rx="0" ry="0" height="112"/>
            <rect x="190" y="190" clip-path="url(#clipPath8)" fill="url(#linearGradient2)" width="241" height="113" stroke="none"/>
            <text x="267" xml:space="preserve" y="206" clip-path="url(#clipPath9)" stroke="none">«ReferenceData»</text>
            <text x="267" xml:space="preserve" y="222" clip-path="url(#clipPath10)" stroke="none">ITUCountryCode</text>
            <text x="196" xml:space="preserve" y="241" clip-path="url(#clipPath11)" stroke="none">  ituTerritory: String [1]</text>
            <text x="196" xml:space="preserve" y="257" clip-path="url(#clipPath12)" stroke="none">«ReferenceCode»   code: Integer [1]</text>
            <line y2="226" fill="none" x1="190" clip-path="url(#clipPath13)" x2="431" y1="226"/>
            <rect x="190" y="190" clip-path="url(#clipPath14)" fill="none" width="240" rx="0" ry="0" height="112"/>
            <rect x="690" y="10" clip-path="url(#clipPath15)" fill="url(#linearGradient3)" width="241" height="100" stroke="none"/>
            <text x="777" y="26" clip-path="url(#clipPath16)" fill="rgb(169,169,169)" font-style="italic" stroke="none" xml:space="preserve">«DataType»</text>
            <text x="776" y="42" clip-path="url(#clipPath17)" fill="rgb(169,169,169)" font-style="italic" stroke="none" xml:space="preserve">ContactPoint</text>
            <line y2="46" fill="none" x1="690" clip-path="url(#clipPath18)" x2="931" y1="46"/>
            <rect x="690" y="10" clip-path="url(#clipPath19)" fill="none" width="240" rx="0" ry="0" height="99"/>
            <rect x="870" y="170" clip-path="url(#clipPath20)" fill="url(#linearGradient4)" width="241" height="146" stroke="none"/>
            <text x="961" xml:space="preserve" y="186" clip-path="url(#clipPath21)" stroke="none">«DataType»</text>
            <text x="970" xml:space="preserve" y="202" clip-path="url(#clipPath22)" stroke="none">Address</text>
            <text x="876" xml:space="preserve" y="221" clip-path="url(#clipPath23)" stroke="none">  addressLilne: String [0..3]</text>
            <text x="876" xml:space="preserve" y="237" clip-path="url(#clipPath24)" stroke="none">  postTown: String [1]</text>
            <text x="876" xml:space="preserve" y="253" clip-path="url(#clipPath25)" stroke="none">  region: String [1]</text>
            <text x="876" xml:space="preserve" y="269" clip-path="url(#clipPath26)" stroke="none">  postCode: String [1]</text>
            <text x="876" xml:space="preserve" y="285" clip-path="url(#clipPath27)" stroke="none">  country: Country [1]</text>
            <line y2="206" fill="none" x1="870" clip-path="url(#clipPath28)" x2="1111" y1="206"/>
            <rect x="870" y="170" clip-path="url(#clipPath29)" fill="none" width="240" rx="0" ry="0" height="145"/>
            <rect x="870" y="370" clip-path="url(#clipPath30)" fill="url(#linearGradient5)" width="241" height="146" stroke="none"/>
            <text x="961" xml:space="preserve" y="386" clip-path="url(#clipPath31)" stroke="none">«DataType»</text>
            <text x="942" xml:space="preserve" y="402" clip-path="url(#clipPath32)" stroke="none">TelephoneNumber</text>
            <text x="876" xml:space="preserve" y="421" clip-path="url(#clipPath33)" stroke="none">  countryCode: ITUCountryCode [1]</text>
            <text x="876" xml:space="preserve" y="437" clip-path="url(#clipPath34)" stroke="none">  areaCode: NumericString [1]</text>
            <text x="876" xml:space="preserve" y="453" clip-path="url(#clipPath35)" stroke="none">  line: NumericString [1]</text>
            <text x="876" xml:space="preserve" y="469" clip-path="url(#clipPath36)" stroke="none">  extension: NumericString [0..1]</text>
            <text x="876" xml:space="preserve" y="485" clip-path="url(#clipPath37)" stroke="none">  type: TelephoneNumberType [0..1]</text>
            <line y2="406" fill="none" x1="870" clip-path="url(#clipPath38)" x2="1111" y1="406"/>
            <rect x="870" y="370" clip-path="url(#clipPath39)" fill="none" width="240" rx="0" ry="0" height="145"/>
            <rect x="10" y="370" clip-path="url(#clipPath40)" fill="url(#linearGradient6)" width="241" height="100" stroke="none"/>
            <text x="102" xml:space="preserve" y="386" clip-path="url(#clipPath41)" stroke="none">«Interface»</text>
            <text x="73" xml:space="preserve" y="402" clip-path="url(#clipPath42)" stroke="none">IControlledVocabulary</text>
            <text x="16" xml:space="preserve" y="421" clip-path="url(#clipPath43)" stroke="none">«ReferenceCode»   code: Identifier [1]</text>
            <line y2="406" fill="none" x1="10" clip-path="url(#clipPath44)" x2="251" y1="406"/>
            <rect x="10" y="370" clip-path="url(#clipPath45)" fill="none" width="240" rx="0" ry="0" height="99"/>
            <rect x="190" y="530" clip-path="url(#clipPath46)" fill="url(#linearGradient7)" width="241" height="100" stroke="none"/>
            <text x="267" xml:space="preserve" y="546" clip-path="url(#clipPath47)" stroke="none">«ReferenceData»</text>
            <text x="250" xml:space="preserve" y="562" clip-path="url(#clipPath48)" stroke="none">TelephoneNumberType</text>
            <line y2="566" fill="none" x1="190" clip-path="url(#clipPath49)" x2="431" y1="566"/>
            <rect x="190" y="530" clip-path="url(#clipPath50)" fill="none" width="240" rx="0" ry="0" height="99"/>
            <rect x="870" y="570" clip-path="url(#clipPath51)" fill="url(#linearGradient8)" width="241" height="100" stroke="none"/>
            <text x="961" xml:space="preserve" y="586" clip-path="url(#clipPath52)" stroke="none">«DataType»</text>
            <text x="955" xml:space="preserve" y="602" clip-path="url(#clipPath53)" stroke="none">EmailAddress</text>
            <text x="876" xml:space="preserve" y="621" clip-path="url(#clipPath54)" stroke="none">  name: String [1]</text>
            <text x="876" xml:space="preserve" y="637" clip-path="url(#clipPath55)" stroke="none">  domain: String [1]</text>
            <line y2="606" fill="none" x1="870" clip-path="url(#clipPath56)" x2="1111" y1="606"/>
            <rect x="870" y="570" clip-path="url(#clipPath57)" fill="none" width="240" rx="0" ry="0" height="99"/>
            <rect x="870" y="730" clip-path="url(#clipPath58)" fill="url(#linearGradient9)" width="241" height="100" stroke="none"/>
            <text x="961" xml:space="preserve" y="746" clip-path="url(#clipPath59)" stroke="none">«DataType»</text>
            <text x="934" xml:space="preserve" y="762" clip-path="url(#clipPath60)" stroke="none">SocialNetworkHandle</text>
            <text x="876" xml:space="preserve" y="781" clip-path="url(#clipPath61)" stroke="none">  handle: String [1]</text>
            <text x="876" xml:space="preserve" y="797" clip-path="url(#clipPath62)" stroke="none">  network: SocialNetwork [1]</text>
            <line y2="766" fill="none" x1="870" clip-path="url(#clipPath63)" x2="1111" y1="766"/>
            <rect x="870" y="730" clip-path="url(#clipPath64)" fill="none" width="240" rx="0" ry="0" height="99"/>
            <rect x="190" y="690" clip-path="url(#clipPath65)" fill="url(#linearGradient10)" width="241" height="100" stroke="none"/>
            <text x="267" xml:space="preserve" y="706" clip-path="url(#clipPath66)" stroke="none">«ReferenceData»</text>
            <text x="273" xml:space="preserve" y="722" clip-path="url(#clipPath67)" stroke="none">SocialNetwork</text>
            <line y2="726" fill="none" x1="190" clip-path="url(#clipPath68)" x2="431" y1="726"/>
            <rect x="190" y="690" clip-path="url(#clipPath69)" fill="none" width="240" rx="0" ry="0" height="99"/>
            <line clip-path="url(#clipPath70)" fill="none" text-rendering="optimizeLegibility" x1="190" x2="130" y1="235" y2="235" stroke-dasharray="5,5,5,5,5,5,5,5,5,5"/>
            <line clip-path="url(#clipPath70)" fill="none" text-rendering="optimizeLegibility" x1="130" x2="130" y1="235" y2="125" stroke-dasharray="5,5,5,5,5,5,5,5,5,5"/>
        </g>
        <g stroke-linecap="butt" fill="white" text-rendering="optimizeLegibility" font-family="'Segoe UI'" stroke-dasharray="5,5,5,5,5,5,5,5,5,5" stroke="white" stroke-width="1.1">
            <polygon points=" 130 125 135 140 125 140" stroke="none" clip-path="url(#clipPath71)"/>
            <polygon fill="none" stroke-dasharray="none" clip-path="url(#clipPath71)" points=" 130 125 135 140 125 140" stroke="black"/>
            <line clip-path="url(#clipPath70)" fill="none" x1="50" x2="50" y1="370" y2="125" stroke-dasharray="none" stroke="black"/>
            <polygon stroke-dasharray="none" clip-path="url(#clipPath72)" points=" 50 125 58 135 42 135" stroke="none"/>
            <polygon fill="none" stroke-dasharray="none" clip-path="url(#clipPath72)" points=" 50 125 58 135 42 135" stroke="black"/>
            <line clip-path="url(#clipPath70)" fill="none" x1="190" x2="130" y1="570" y2="570" stroke="black"/>
            <line clip-path="url(#clipPath70)" fill="none" x1="130" x2="130" y1="570" y2="470" stroke="black"/>
            <polygon points=" 130 470 135 485 125 485" clip-path="url(#clipPath73)" stroke="none"/>
            <polygon fill="none" stroke-dasharray="none" clip-path="url(#clipPath73)" points=" 130 470 135 485 125 485" stroke="black"/>
            <line clip-path="url(#clipPath70)" fill="none" x1="190" x2="130" y1="730" y2="730" stroke="black"/>
            <line clip-path="url(#clipPath70)" fill="none" x1="130" x2="130" y1="730" y2="470" stroke="black"/>
            <polygon points=" 130 470 135 485 125 485" clip-path="url(#clipPath73)" stroke="none"/>
            <polygon fill="none" stroke-dasharray="none" clip-path="url(#clipPath73)" points=" 130 470 135 485 125 485" stroke="black"/>
            <line clip-path="url(#clipPath70)" fill="none" x1="870" x2="810" y1="770" y2="770" stroke-dasharray="none" stroke="black"/>
            <line clip-path="url(#clipPath70)" fill="none" x1="810" x2="810" y1="770" y2="110" stroke-dasharray="none" stroke="black"/>
            <polygon stroke-dasharray="none" clip-path="url(#clipPath74)" points=" 810 110 818 120 802 120" stroke="none"/>
            <polygon fill="none" stroke-dasharray="none" clip-path="url(#clipPath74)" points=" 810 110 818 120 802 120" stroke="black"/>
            <line clip-path="url(#clipPath70)" fill="none" x1="870" x2="810" y1="610" y2="610" stroke-dasharray="none" stroke="black"/>
            <line clip-path="url(#clipPath70)" fill="none" x1="810" x2="810" y1="610" y2="110" stroke-dasharray="none" stroke="black"/>
            <polygon stroke-dasharray="none" clip-path="url(#clipPath74)" points=" 810 110 818 120 802 120" stroke="none"/>
            <polygon fill="none" stroke-dasharray="none" clip-path="url(#clipPath74)" points=" 810 110 818 120 802 120" stroke="black"/>
            <line clip-path="url(#clipPath70)" fill="none" x1="870" x2="810" y1="410" y2="410" stroke-dasharray="none" stroke="black"/>
            <line clip-path="url(#clipPath70)" fill="none" x1="810" x2="810" y1="410" y2="110" stroke-dasharray="none" stroke="black"/>
            <polygon stroke-dasharray="none" clip-path="url(#clipPath74)" points=" 810 110 818 120 802 120" stroke="none"/>
            <polygon fill="none" stroke-dasharray="none" clip-path="url(#clipPath74)" points=" 810 110 818 120 802 120" stroke="black"/>
            <line clip-path="url(#clipPath70)" fill="none" x1="870" x2="810" y1="210" y2="210" stroke-dasharray="none" stroke="black"/>
            <line clip-path="url(#clipPath70)" fill="none" x1="810" x2="810" y1="210" y2="110" stroke-dasharray="none" stroke="black"/>
            <polygon stroke-dasharray="none" clip-path="url(#clipPath74)" points=" 810 110 818 120 802 120" stroke="none"/>
            <polygon fill="none" stroke-dasharray="none" clip-path="url(#clipPath74)" points=" 810 110 818 120 802 120" stroke="black"/>
        </g>
    </g>
</svg>
