<?xml version="1.0" encoding="UTF-8"?><svg xmlns="http://www.w3.org/2000/svg" xmlns:xlink="http://www.w3.org/1999/xlink" stroke-dasharray="none" shape-rendering="auto" font-family="'Dialog'" width="1800" text-rendering="auto" fill-opacity="1" contentScriptType="text/ecmascript" color-interpolation="auto" color-rendering="auto" preserveAspectRatio="xMidYMid meet" font-size="12px" viewBox="0 0 1800 1080" fill="black" stroke="black" image-rendering="auto" stroke-miterlimit="10" zoomAndPan="magnify" version="1.0" stroke-linecap="square" stroke-linejoin="miter" contentStyleType="text/css" font-style="normal" height="1080" stroke-width="1" stroke-dashoffset="0" font-weight="normal" stroke-opacity="1">
    <!--Generated by the Batik Graphics2D SVG Generator-->
    <defs id="genericDefs"/>
    <g>
        <defs id="defs1">
            <linearGradient x1="10" x2="10" y1="10" gradientUnits="userSpaceOnUse" y2="110" xlink:type="simple" xlink:actuate="onLoad" id="linearGradient1" xlink:show="other" spreadMethod="pad">
                <stop stop-opacity="1" stop-color="white" offset="0%"/>
                <stop stop-opacity="1" stop-color="rgb(131,135,205)" offset="100%"/>
            </linearGradient>
            <linearGradient x1="189" x2="189" y1="170" gradientUnits="userSpaceOnUse" y2="270" xlink:type="simple" xlink:actuate="onLoad" id="linearGradient2" xlink:show="other" spreadMethod="pad">
                <stop stop-opacity="1" stop-color="white" offset="0%"/>
                <stop stop-opacity="1" stop-color="rgb(195,167,173)" offset="100%"/>
            </linearGradient>
            <linearGradient x1="369" x2="369" y1="330" gradientUnits="userSpaceOnUse" y2="430" xlink:type="simple" xlink:actuate="onLoad" id="linearGradient3" xlink:show="other" spreadMethod="pad">
                <stop stop-opacity="1" stop-color="white" offset="0%"/>
                <stop stop-opacity="1" stop-color="rgb(195,167,173)" offset="100%"/>
            </linearGradient>
            <linearGradient x1="369" x2="369" y1="490" gradientUnits="userSpaceOnUse" y2="590" xlink:type="simple" xlink:actuate="onLoad" id="linearGradient4" xlink:show="other" spreadMethod="pad">
                <stop stop-opacity="1" stop-color="white" offset="0%"/>
                <stop stop-opacity="1" stop-color="rgb(195,167,173)" offset="100%"/>
            </linearGradient>
            <linearGradient x1="369" x2="369" y1="650" gradientUnits="userSpaceOnUse" y2="750" xlink:type="simple" xlink:actuate="onLoad" id="linearGradient5" xlink:show="other" spreadMethod="pad">
                <stop stop-opacity="1" stop-color="white" offset="0%"/>
                <stop stop-opacity="1" stop-color="rgb(195,167,173)" offset="100%"/>
            </linearGradient>
            <linearGradient x1="369" x2="369" y1="810" gradientUnits="userSpaceOnUse" y2="910" xlink:type="simple" xlink:actuate="onLoad" id="linearGradient6" xlink:show="other" spreadMethod="pad">
                <stop stop-opacity="1" stop-color="white" offset="0%"/>
                <stop stop-opacity="1" stop-color="rgb(195,167,173)" offset="100%"/>
            </linearGradient>
            <linearGradient x1="689" x2="689" y1="10" gradientUnits="userSpaceOnUse" y2="110" xlink:type="simple" xlink:actuate="onLoad" id="linearGradient7" xlink:show="other" spreadMethod="pad">
                <stop stop-opacity="1" stop-color="white" offset="0%"/>
                <stop stop-opacity="1" stop-color="rgb(179,215,189)" offset="100%"/>
            </linearGradient>
            <linearGradient x1="869" x2="869" y1="170" gradientUnits="userSpaceOnUse" y2="270" xlink:type="simple" xlink:actuate="onLoad" id="linearGradient8" xlink:show="other" spreadMethod="pad">
                <stop stop-opacity="1" stop-color="white" offset="0%"/>
                <stop stop-opacity="1" stop-color="rgb(163,199,173)" offset="100%"/>
            </linearGradient>
            <linearGradient x1="869" x2="869" y1="330" gradientUnits="userSpaceOnUse" y2="430" xlink:type="simple" xlink:actuate="onLoad" id="linearGradient9" xlink:show="other" spreadMethod="pad">
                <stop stop-opacity="1" stop-color="white" offset="0%"/>
                <stop stop-opacity="1" stop-color="rgb(163,199,173)" offset="100%"/>
            </linearGradient>
            <linearGradient x1="1049" x2="1049" y1="490" gradientUnits="userSpaceOnUse" y2="590" xlink:type="simple" xlink:actuate="onLoad" id="linearGradient10" xlink:show="other" spreadMethod="pad">
                <stop stop-opacity="1" stop-color="white" offset="0%"/>
                <stop stop-opacity="1" stop-color="rgb(163,199,173)" offset="100%"/>
            </linearGradient>
            <linearGradient x1="1049" x2="1049" y1="650" gradientUnits="userSpaceOnUse" y2="750" xlink:type="simple" xlink:actuate="onLoad" id="linearGradient11" xlink:show="other" spreadMethod="pad">
                <stop stop-opacity="1" stop-color="white" offset="0%"/>
                <stop stop-opacity="1" stop-color="rgb(163,199,173)" offset="100%"/>
            </linearGradient>
            <linearGradient x1="1049" x2="1049" y1="810" gradientUnits="userSpaceOnUse" y2="910" xlink:type="simple" xlink:actuate="onLoad" id="linearGradient12" xlink:show="other" spreadMethod="pad">
                <stop stop-opacity="1" stop-color="white" offset="0%"/>
                <stop stop-opacity="1" stop-color="rgb(163,199,173)" offset="100%"/>
            </linearGradient>
            <linearGradient x1="1049" x2="1049" y1="970" gradientUnits="userSpaceOnUse" y2="1070" xlink:type="simple" xlink:actuate="onLoad" id="linearGradient13" xlink:show="other" spreadMethod="pad">
                <stop stop-opacity="1" stop-color="white" offset="0%"/>
                <stop stop-opacity="1" stop-color="rgb(163,199,173)" offset="100%"/>
            </linearGradient>
            <linearGradient x1="1369" x2="1369" y1="10" gradientUnits="userSpaceOnUse" y2="110" xlink:type="simple" xlink:actuate="onLoad" id="linearGradient14" xlink:show="other" spreadMethod="pad">
                <stop stop-opacity="1" stop-color="white" offset="0%"/>
                <stop stop-opacity="1" stop-color="rgb(179,215,189)" offset="100%"/>
            </linearGradient>
            <linearGradient x1="1549" x2="1549" y1="170" gradientUnits="userSpaceOnUse" y2="270" xlink:type="simple" xlink:actuate="onLoad" id="linearGradient15" xlink:show="other" spreadMethod="pad">
                <stop stop-opacity="1" stop-color="white" offset="0%"/>
                <stop stop-opacity="1" stop-color="rgb(163,199,173)" offset="100%"/>
            </linearGradient>
            <linearGradient x1="1549" x2="1549" y1="330" gradientUnits="userSpaceOnUse" y2="444" xlink:type="simple" xlink:actuate="onLoad" id="linearGradient16" xlink:show="other" spreadMethod="pad">
                <stop stop-opacity="1" stop-color="white" offset="0%"/>
                <stop stop-opacity="1" stop-color="rgb(163,199,173)" offset="100%"/>
            </linearGradient>
            <linearGradient x1="1549" x2="1549" y1="490" gradientUnits="userSpaceOnUse" y2="590" xlink:type="simple" xlink:actuate="onLoad" id="linearGradient17" xlink:show="other" spreadMethod="pad">
                <stop stop-opacity="1" stop-color="white" offset="0%"/>
                <stop stop-opacity="1" stop-color="rgb(163,199,173)" offset="100%"/>
            </linearGradient>
            <clipPath clipPathUnits="userSpaceOnUse" id="clipPath1">
                <path d="M10 10 L10 109 L249 109 L249 10 Z"/>
            </clipPath>
            <clipPath clipPathUnits="userSpaceOnUse" id="clipPath2">
                <path d="M100 12 L161 12 L161 29 L100 29 L100 12 Z"/>
            </clipPath>
            <clipPath clipPathUnits="userSpaceOnUse" id="clipPath3">
                <path d="M71 28 L190 28 L190 45 L71 45 L71 28 Z"/>
            </clipPath>
            <clipPath clipPathUnits="userSpaceOnUse" id="clipPath4">
                <path d="M15 47 L214 47 L214 64 L15 64 L15 47 Z"/>
            </clipPath>
            <clipPath clipPathUnits="userSpaceOnUse" id="clipPath5">
                <path d="M10 45 L251 45 L251 111 L10 111 L10 45 Z"/>
            </clipPath>
            <clipPath clipPathUnits="userSpaceOnUse" id="clipPath6">
                <path d="M9 9 L251 9 L251 111 L9 111 L9 9 Z"/>
            </clipPath>
            <clipPath clipPathUnits="userSpaceOnUse" id="clipPath7">
                <path d="M189 170 L189 269 L429 269 L429 170 Z"/>
            </clipPath>
            <clipPath clipPathUnits="userSpaceOnUse" id="clipPath8">
                <path d="M262 172 L358 172 L358 189 L262 189 L262 172 Z"/>
            </clipPath>
            <clipPath clipPathUnits="userSpaceOnUse" id="clipPath9">
                <path d="M268 188 L353 188 L353 205 L268 205 L268 188 Z"/>
            </clipPath>
            <clipPath clipPathUnits="userSpaceOnUse" id="clipPath10">
                <path d="M194 207 L295 207 L295 224 L194 224 L194 207 Z"/>
            </clipPath>
            <clipPath clipPathUnits="userSpaceOnUse" id="clipPath11">
                <path d="M189 205 L431 205 L431 271 L189 271 L189 205 Z"/>
            </clipPath>
            <clipPath clipPathUnits="userSpaceOnUse" id="clipPath12">
                <path d="M188 169 L431 169 L431 271 L188 271 L188 169 Z"/>
            </clipPath>
            <clipPath clipPathUnits="userSpaceOnUse" id="clipPath13">
                <path d="M369 330 L369 429 L609 429 L609 330 Z"/>
            </clipPath>
            <clipPath clipPathUnits="userSpaceOnUse" id="clipPath14">
                <path d="M445 332 L536 332 L536 349 L445 349 L445 332 Z"/>
            </clipPath>
            <clipPath clipPathUnits="userSpaceOnUse" id="clipPath15">
                <path d="M459 348 L522 348 L522 365 L459 365 L459 348 Z"/>
            </clipPath>
            <clipPath clipPathUnits="userSpaceOnUse" id="clipPath16">
                <path d="M369 365 L611 365 L611 431 L369 431 L369 365 Z"/>
            </clipPath>
            <clipPath clipPathUnits="userSpaceOnUse" id="clipPath17">
                <path d="M368 329 L611 329 L611 431 L368 431 L368 329 Z"/>
            </clipPath>
            <clipPath clipPathUnits="userSpaceOnUse" id="clipPath18">
                <path d="M369 490 L369 589 L609 589 L609 490 Z"/>
            </clipPath>
            <clipPath clipPathUnits="userSpaceOnUse" id="clipPath19">
                <path d="M445 492 L536 492 L536 509 L445 509 L445 492 Z"/>
            </clipPath>
            <clipPath clipPathUnits="userSpaceOnUse" id="clipPath20">
                <path d="M455 508 L525 508 L525 525 L455 525 L455 508 Z"/>
            </clipPath>
            <clipPath clipPathUnits="userSpaceOnUse" id="clipPath21">
                <path d="M369 525 L611 525 L611 591 L369 591 L369 525 Z"/>
            </clipPath>
            <clipPath clipPathUnits="userSpaceOnUse" id="clipPath22">
                <path d="M368 489 L611 489 L611 591 L368 591 L368 489 Z"/>
            </clipPath>
            <clipPath clipPathUnits="userSpaceOnUse" id="clipPath23">
                <path d="M369 650 L369 749 L609 749 L609 650 Z"/>
            </clipPath>
            <clipPath clipPathUnits="userSpaceOnUse" id="clipPath24">
                <path d="M445 652 L536 652 L536 669 L445 669 L445 652 Z"/>
            </clipPath>
            <clipPath clipPathUnits="userSpaceOnUse" id="clipPath25">
                <path d="M465 668 L516 668 L516 685 L465 685 L465 668 Z"/>
            </clipPath>
            <clipPath clipPathUnits="userSpaceOnUse" id="clipPath26">
                <path d="M369 685 L611 685 L611 751 L369 751 L369 685 Z"/>
            </clipPath>
            <clipPath clipPathUnits="userSpaceOnUse" id="clipPath27">
                <path d="M368 649 L611 649 L611 751 L368 751 L368 649 Z"/>
            </clipPath>
            <clipPath clipPathUnits="userSpaceOnUse" id="clipPath28">
                <path d="M369 810 L369 909 L609 909 L609 810 Z"/>
            </clipPath>
            <clipPath clipPathUnits="userSpaceOnUse" id="clipPath29">
                <path d="M445 812 L536 812 L536 829 L445 829 L445 812 Z"/>
            </clipPath>
            <clipPath clipPathUnits="userSpaceOnUse" id="clipPath30">
                <path d="M445 828 L536 828 L536 845 L445 845 L445 828 Z"/>
            </clipPath>
            <clipPath clipPathUnits="userSpaceOnUse" id="clipPath31">
                <path d="M369 845 L611 845 L611 911 L369 911 L369 845 Z"/>
            </clipPath>
            <clipPath clipPathUnits="userSpaceOnUse" id="clipPath32">
                <path d="M368 809 L611 809 L611 911 L368 911 L368 809 Z"/>
            </clipPath>
            <clipPath clipPathUnits="userSpaceOnUse" id="clipPath33">
                <path d="M689 10 L689 109 L929 109 L929 10 Z"/>
            </clipPath>
            <clipPath clipPathUnits="userSpaceOnUse" id="clipPath34">
                <path d="M775 12 L845 12 L845 29 L775 29 L775 12 Z"/>
            </clipPath>
            <clipPath clipPathUnits="userSpaceOnUse" id="clipPath35">
                <path d="M785 28 L836 28 L836 45 L785 45 L785 28 Z"/>
            </clipPath>
            <clipPath clipPathUnits="userSpaceOnUse" id="clipPath36">
                <path d="M689 45 L931 45 L931 111 L689 111 L689 45 Z"/>
            </clipPath>
            <clipPath clipPathUnits="userSpaceOnUse" id="clipPath37">
                <path d="M688 9 L931 9 L931 111 L688 111 L688 9 Z"/>
            </clipPath>
            <clipPath clipPathUnits="userSpaceOnUse" id="clipPath38">
                <path d="M869 170 L869 269 L1109 269 L1109 170 Z"/>
            </clipPath>
            <clipPath clipPathUnits="userSpaceOnUse" id="clipPath39">
                <path d="M959 172 L1022 172 L1022 189 L959 189 L959 172 Z"/>
            </clipPath>
            <clipPath clipPathUnits="userSpaceOnUse" id="clipPath40">
                <path d="M945 188 L1035 188 L1035 205 L945 205 L945 188 Z"/>
            </clipPath>
            <clipPath clipPathUnits="userSpaceOnUse" id="clipPath41">
                <path d="M874 207 L973 207 L973 224 L874 224 L874 207 Z"/>
            </clipPath>
            <clipPath clipPathUnits="userSpaceOnUse" id="clipPath42">
                <path d="M869 205 L1111 205 L1111 271 L869 271 L869 205 Z"/>
            </clipPath>
            <clipPath clipPathUnits="userSpaceOnUse" id="clipPath43">
                <path d="M868 169 L1111 169 L1111 271 L868 271 L868 169 Z"/>
            </clipPath>
            <clipPath clipPathUnits="userSpaceOnUse" id="clipPath44">
                <path d="M869 330 L869 429 L1109 429 L1109 330 Z"/>
            </clipPath>
            <clipPath clipPathUnits="userSpaceOnUse" id="clipPath45">
                <path d="M959 332 L1022 332 L1022 349 L959 349 L959 332 Z"/>
            </clipPath>
            <clipPath clipPathUnits="userSpaceOnUse" id="clipPath46">
                <path d="M940 348 L1040 348 L1040 365 L940 365 L940 348 Z"/>
            </clipPath>
            <clipPath clipPathUnits="userSpaceOnUse" id="clipPath47">
                <path d="M874 367 L969 367 L969 384 L874 384 L874 367 Z"/>
            </clipPath>
            <clipPath clipPathUnits="userSpaceOnUse" id="clipPath48">
                <path d="M869 365 L1111 365 L1111 431 L869 431 L869 365 Z"/>
            </clipPath>
            <clipPath clipPathUnits="userSpaceOnUse" id="clipPath49">
                <path d="M868 329 L1111 329 L1111 431 L868 431 L868 329 Z"/>
            </clipPath>
            <clipPath clipPathUnits="userSpaceOnUse" id="clipPath50">
                <path d="M1049 490 L1049 589 L1289 589 L1289 490 Z"/>
            </clipPath>
            <clipPath clipPathUnits="userSpaceOnUse" id="clipPath51">
                <path d="M1139 492 L1202 492 L1202 509 L1139 509 L1139 492 Z"/>
            </clipPath>
            <clipPath clipPathUnits="userSpaceOnUse" id="clipPath52">
                <path d="M1124 508 L1217 508 L1217 525 L1124 525 L1124 508 Z"/>
            </clipPath>
            <clipPath clipPathUnits="userSpaceOnUse" id="clipPath53">
                <path d="M1054 527 L1224 527 L1224 544 L1054 544 L1054 527 Z"/>
            </clipPath>
            <clipPath clipPathUnits="userSpaceOnUse" id="clipPath54">
                <path d="M1049 525 L1291 525 L1291 591 L1049 591 L1049 525 Z"/>
            </clipPath>
            <clipPath clipPathUnits="userSpaceOnUse" id="clipPath55">
                <path d="M1048 489 L1291 489 L1291 591 L1048 591 L1048 489 Z"/>
            </clipPath>
            <clipPath clipPathUnits="userSpaceOnUse" id="clipPath56">
                <path d="M1049 650 L1049 749 L1289 749 L1289 650 Z"/>
            </clipPath>
            <clipPath clipPathUnits="userSpaceOnUse" id="clipPath57">
                <path d="M1139 652 L1202 652 L1202 669 L1139 669 L1139 652 Z"/>
            </clipPath>
            <clipPath clipPathUnits="userSpaceOnUse" id="clipPath58">
                <path d="M1120 668 L1220 668 L1220 685 L1120 685 L1120 668 Z"/>
            </clipPath>
            <clipPath clipPathUnits="userSpaceOnUse" id="clipPath59">
                <path d="M1054 687 L1231 687 L1231 704 L1054 704 L1054 687 Z"/>
            </clipPath>
            <clipPath clipPathUnits="userSpaceOnUse" id="clipPath60">
                <path d="M1049 685 L1291 685 L1291 751 L1049 751 L1049 685 Z"/>
            </clipPath>
            <clipPath clipPathUnits="userSpaceOnUse" id="clipPath61">
                <path d="M1048 649 L1291 649 L1291 751 L1048 751 L1048 649 Z"/>
            </clipPath>
            <clipPath clipPathUnits="userSpaceOnUse" id="clipPath62">
                <path d="M1049 810 L1049 909 L1289 909 L1289 810 Z"/>
            </clipPath>
            <clipPath clipPathUnits="userSpaceOnUse" id="clipPath63">
                <path d="M1139 812 L1202 812 L1202 829 L1139 829 L1139 812 Z"/>
            </clipPath>
            <clipPath clipPathUnits="userSpaceOnUse" id="clipPath64">
                <path d="M1130 828 L1211 828 L1211 845 L1130 845 L1130 828 Z"/>
            </clipPath>
            <clipPath clipPathUnits="userSpaceOnUse" id="clipPath65">
                <path d="M1054 847 L1212 847 L1212 864 L1054 864 L1054 847 Z"/>
            </clipPath>
            <clipPath clipPathUnits="userSpaceOnUse" id="clipPath66">
                <path d="M1049 845 L1291 845 L1291 911 L1049 911 L1049 845 Z"/>
            </clipPath>
            <clipPath clipPathUnits="userSpaceOnUse" id="clipPath67">
                <path d="M1048 809 L1291 809 L1291 911 L1048 911 L1048 809 Z"/>
            </clipPath>
            <clipPath clipPathUnits="userSpaceOnUse" id="clipPath68">
                <path d="M1049 970 L1049 1069 L1289 1069 L1289 970 Z"/>
            </clipPath>
            <clipPath clipPathUnits="userSpaceOnUse" id="clipPath69">
                <path d="M1139 972 L1202 972 L1202 989 L1139 989 L1139 972 Z"/>
            </clipPath>
            <clipPath clipPathUnits="userSpaceOnUse" id="clipPath70">
                <path d="M1110 988 L1231 988 L1231 1005 L1110 1005 L1110 988 Z"/>
            </clipPath>
            <clipPath clipPathUnits="userSpaceOnUse" id="clipPath71">
                <path d="M1054 1007 L1252 1007 L1252 1024 L1054 1024 L1054 1007 Z"/>
            </clipPath>
            <clipPath clipPathUnits="userSpaceOnUse" id="clipPath72">
                <path d="M1049 1005 L1291 1005 L1291 1071 L1049 1071 L1049 1005 Z"/>
            </clipPath>
            <clipPath clipPathUnits="userSpaceOnUse" id="clipPath73">
                <path d="M1048 969 L1291 969 L1291 1071 L1048 1071 L1048 969 Z"/>
            </clipPath>
            <clipPath clipPathUnits="userSpaceOnUse" id="clipPath74">
                <path d="M1369 10 L1369 109 L1609 109 L1609 10 Z"/>
            </clipPath>
            <clipPath clipPathUnits="userSpaceOnUse" id="clipPath75">
                <path d="M1455 12 L1525 12 L1525 29 L1455 29 L1455 12 Z"/>
            </clipPath>
            <clipPath clipPathUnits="userSpaceOnUse" id="clipPath76">
                <path d="M1452 28 L1529 28 L1529 45 L1452 45 L1452 28 Z"/>
            </clipPath>
            <clipPath clipPathUnits="userSpaceOnUse" id="clipPath77">
                <path d="M1369 45 L1611 45 L1611 111 L1369 111 L1369 45 Z"/>
            </clipPath>
            <clipPath clipPathUnits="userSpaceOnUse" id="clipPath78">
                <path d="M1368 9 L1611 9 L1611 111 L1368 111 L1368 9 Z"/>
            </clipPath>
            <clipPath clipPathUnits="userSpaceOnUse" id="clipPath79">
                <path d="M1549 170 L1549 269 L1789 269 L1789 170 Z"/>
            </clipPath>
            <clipPath clipPathUnits="userSpaceOnUse" id="clipPath80">
                <path d="M1639 172 L1702 172 L1702 189 L1639 189 L1639 172 Z"/>
            </clipPath>
            <clipPath clipPathUnits="userSpaceOnUse" id="clipPath81">
                <path d="M1601 188 L1740 188 L1740 205 L1601 205 L1601 188 Z"/>
            </clipPath>
            <clipPath clipPathUnits="userSpaceOnUse" id="clipPath82">
                <path d="M1554 207 L1716 207 L1716 224 L1554 224 L1554 207 Z"/>
            </clipPath>
            <clipPath clipPathUnits="userSpaceOnUse" id="clipPath83">
                <path d="M1554 223 L1712 223 L1712 240 L1554 240 L1554 223 Z"/>
            </clipPath>
            <clipPath clipPathUnits="userSpaceOnUse" id="clipPath84">
                <path d="M1549 205 L1791 205 L1791 271 L1549 271 L1549 205 Z"/>
            </clipPath>
            <clipPath clipPathUnits="userSpaceOnUse" id="clipPath85">
                <path d="M1548 169 L1791 169 L1791 271 L1548 271 L1548 169 Z"/>
            </clipPath>
            <clipPath clipPathUnits="userSpaceOnUse" id="clipPath86">
                <path d="M1549 330 L1549 443 L1789 443 L1789 330 Z"/>
            </clipPath>
            <clipPath clipPathUnits="userSpaceOnUse" id="clipPath87">
                <path d="M1639 332 L1702 332 L1702 349 L1639 349 L1639 332 Z"/>
            </clipPath>
            <clipPath clipPathUnits="userSpaceOnUse" id="clipPath88">
                <path d="M1613 348 L1728 348 L1728 365 L1613 365 L1613 348 Z"/>
            </clipPath>
            <clipPath clipPathUnits="userSpaceOnUse" id="clipPath89">
                <path d="M1554 367 L1716 367 L1716 384 L1554 384 L1554 367 Z"/>
            </clipPath>
            <clipPath clipPathUnits="userSpaceOnUse" id="clipPath90">
                <path d="M1554 383 L1712 383 L1712 400 L1554 400 L1554 383 Z"/>
            </clipPath>
            <clipPath clipPathUnits="userSpaceOnUse" id="clipPath91">
                <path d="M1554 399 L1713 399 L1713 416 L1554 416 L1554 399 Z"/>
            </clipPath>
            <clipPath clipPathUnits="userSpaceOnUse" id="clipPath92">
                <path d="M1549 365 L1791 365 L1791 445 L1549 445 L1549 365 Z"/>
            </clipPath>
            <clipPath clipPathUnits="userSpaceOnUse" id="clipPath93">
                <path d="M1548 329 L1791 329 L1791 445 L1548 445 L1548 329 Z"/>
            </clipPath>
            <clipPath clipPathUnits="userSpaceOnUse" id="clipPath94">
                <path d="M1549 490 L1549 589 L1789 589 L1789 490 Z"/>
            </clipPath>
            <clipPath clipPathUnits="userSpaceOnUse" id="clipPath95">
                <path d="M1639 492 L1702 492 L1702 509 L1639 509 L1639 492 Z"/>
            </clipPath>
            <clipPath clipPathUnits="userSpaceOnUse" id="clipPath96">
                <path d="M1604 508 L1736 508 L1736 525 L1604 525 L1604 508 Z"/>
            </clipPath>
            <clipPath clipPathUnits="userSpaceOnUse" id="clipPath97">
                <path d="M1554 527 L1729 527 L1729 544 L1554 544 L1554 527 Z"/>
            </clipPath>
            <clipPath clipPathUnits="userSpaceOnUse" id="clipPath98">
                <path d="M1554 543 L1713 543 L1713 560 L1554 560 L1554 543 Z"/>
            </clipPath>
            <clipPath clipPathUnits="userSpaceOnUse" id="clipPath99">
                <path d="M1549 525 L1791 525 L1791 591 L1549 591 L1549 525 Z"/>
            </clipPath>
            <clipPath clipPathUnits="userSpaceOnUse" id="clipPath100">
                <path d="M1548 489 L1791 489 L1791 591 L1548 591 L1548 489 Z"/>
            </clipPath>
            <clipPath clipPathUnits="userSpaceOnUse" id="clipPath101">
                <path d="M-1 -1 L1801 -1 L1801 1081 L-1 1081 L-1 -1 Z"/>
            </clipPath>
            <clipPath clipPathUnits="userSpaceOnUse" id="clipPath102">
                <path d="M123 109 L136 109 L136 127 L123 127 L123 109 Z"/>
            </clipPath>
            <clipPath clipPathUnits="userSpaceOnUse" id="clipPath103">
                <path d="M300 269 L319 269 L319 282 L300 282 L300 269 Z"/>
            </clipPath>
            <clipPath clipPathUnits="userSpaceOnUse" id="clipPath104">
                <path d="M800 109 L819 109 L819 122 L800 122 L800 109 Z"/>
            </clipPath>
            <clipPath clipPathUnits="userSpaceOnUse" id="clipPath105">
                <path d="M980 429 L999 429 L999 442 L980 442 L980 429 Z"/>
            </clipPath>
            <clipPath clipPathUnits="userSpaceOnUse" id="clipPath106">
                <path d="M1480 109 L1499 109 L1499 122 L1480 122 L1480 109 Z"/>
            </clipPath>
        </defs>
        <g fill="url(#linearGradient1)" stroke-miterlimit="0" stroke-width="0" font-family="'Segoe UI'" stroke="url(#linearGradient1)" stroke-linejoin="round">
            <rect x="10" width="240" height="100" y="10" clip-path="url(#clipPath1)" stroke="none"/>
            <text fill="black" x="101" xml:space="preserve" y="26" clip-path="url(#clipPath2)" stroke="none">«Interface»</text>
            <text fill="black" x="72" xml:space="preserve" y="42" clip-path="url(#clipPath3)" stroke="none">IControlledVocabulary</text>
            <text fill="black" x="16" xml:space="preserve" y="61" clip-path="url(#clipPath4)" stroke="none">«ReferenceCode»   code: Identifier [1]</text>
        </g>
        <g stroke-linecap="butt" font-family="'Segoe UI'" stroke-width="1.1">
            <line y2="46" fill="none" x1="10" clip-path="url(#clipPath5)" x2="250" y1="46"/>
            <rect x="10" y="10" clip-path="url(#clipPath6)" fill="none" width="239" rx="0" ry="0" height="99"/>
            <rect x="189" y="170" clip-path="url(#clipPath7)" fill="url(#linearGradient2)" width="241" height="100" stroke="none"/>
            <text x="263" y="186" clip-path="url(#clipPath8)" fill="rgb(169,169,169)" font-style="italic" stroke="none" xml:space="preserve">«ReferenceData»</text>
            <text x="269" y="202" clip-path="url(#clipPath9)" fill="rgb(169,169,169)" font-style="italic" stroke="none" xml:space="preserve">UnitOfMeasure</text>
            <text x="195" xml:space="preserve" y="221" clip-path="url(#clipPath10)" stroke="none">  symbol: String [1]</text>
            <line y2="206" fill="none" x1="189" clip-path="url(#clipPath11)" x2="430" y1="206"/>
            <rect x="189" y="170" clip-path="url(#clipPath12)" fill="none" width="240" rx="0" ry="0" height="99"/>
            <rect x="369" y="330" clip-path="url(#clipPath13)" fill="url(#linearGradient3)" width="241" height="100" stroke="none"/>
            <text x="446" xml:space="preserve" y="346" clip-path="url(#clipPath14)" stroke="none">«ReferenceData»</text>
            <text x="460" xml:space="preserve" y="362" clip-path="url(#clipPath15)" stroke="none">WeightUnit</text>
            <line y2="366" fill="none" x1="369" clip-path="url(#clipPath16)" x2="610" y1="366"/>
            <rect x="369" y="330" clip-path="url(#clipPath17)" fill="none" width="240" rx="0" ry="0" height="99"/>
            <rect x="369" y="490" clip-path="url(#clipPath18)" fill="url(#linearGradient4)" width="241" height="100" stroke="none"/>
            <text x="446" xml:space="preserve" y="506" clip-path="url(#clipPath19)" stroke="none">«ReferenceData»</text>
            <text x="456" xml:space="preserve" y="522" clip-path="url(#clipPath20)" stroke="none">DistanceUnit</text>
            <line y2="526" fill="none" x1="369" clip-path="url(#clipPath21)" x2="610" y1="526"/>
            <rect x="369" y="490" clip-path="url(#clipPath22)" fill="none" width="240" rx="0" ry="0" height="99"/>
            <rect x="369" y="650" clip-path="url(#clipPath23)" fill="url(#linearGradient5)" width="241" height="100" stroke="none"/>
            <text x="446" xml:space="preserve" y="666" clip-path="url(#clipPath24)" stroke="none">«ReferenceData»</text>
            <text x="466" xml:space="preserve" y="682" clip-path="url(#clipPath25)" stroke="none">TimeUnit</text>
            <line y2="686" fill="none" x1="369" clip-path="url(#clipPath26)" x2="610" y1="686"/>
            <rect x="369" y="650" clip-path="url(#clipPath27)" fill="none" width="240" rx="0" ry="0" height="99"/>
            <rect x="369" y="810" clip-path="url(#clipPath28)" fill="url(#linearGradient6)" width="241" height="100" stroke="none"/>
            <text x="446" xml:space="preserve" y="826" clip-path="url(#clipPath29)" stroke="none">«ReferenceData»</text>
            <text x="446" xml:space="preserve" y="842" clip-path="url(#clipPath30)" stroke="none">TemperatureUnit</text>
            <line y2="846" fill="none" x1="369" clip-path="url(#clipPath31)" x2="610" y1="846"/>
            <rect x="369" y="810" clip-path="url(#clipPath32)" fill="none" width="240" rx="0" ry="0" height="99"/>
            <rect x="689" y="10" clip-path="url(#clipPath33)" fill="url(#linearGradient7)" width="241" height="100" stroke="none"/>
            <text x="776" y="26" clip-path="url(#clipPath34)" fill="rgb(169,169,169)" font-style="italic" stroke="none" xml:space="preserve">«DataType»</text>
            <text x="786" y="42" clip-path="url(#clipPath35)" fill="rgb(169,169,169)" font-style="italic" stroke="none" xml:space="preserve">Quantity</text>
            <line y2="46" fill="none" x1="689" clip-path="url(#clipPath36)" x2="930" y1="46"/>
            <rect x="689" y="10" clip-path="url(#clipPath37)" fill="none" width="240" rx="0" ry="0" height="99"/>
            <rect x="869" y="170" clip-path="url(#clipPath38)" fill="url(#linearGradient8)" width="241" height="100" stroke="none"/>
            <text x="960" xml:space="preserve" y="186" clip-path="url(#clipPath39)" stroke="none">«DataType»</text>
            <text x="946" xml:space="preserve" y="202" clip-path="url(#clipPath40)" stroke="none">DiscreteQuantity</text>
            <text x="875" xml:space="preserve" y="221" clip-path="url(#clipPath41)" stroke="none">  count: Integer [1]</text>
            <line y2="206" fill="none" x1="869" clip-path="url(#clipPath42)" x2="1110" y1="206"/>
            <rect x="869" y="170" clip-path="url(#clipPath43)" fill="none" width="240" rx="0" ry="0" height="99"/>
            <rect x="869" y="330" clip-path="url(#clipPath44)" fill="url(#linearGradient9)" width="241" height="100" stroke="none"/>
            <text x="960" xml:space="preserve" y="346" clip-path="url(#clipPath45)" stroke="none">«DataType»</text>
            <text x="941" xml:space="preserve" y="362" clip-path="url(#clipPath46)" stroke="none">MeasuredQuantity</text>
            <text x="875" xml:space="preserve" y="381" clip-path="url(#clipPath47)" stroke="none">  amount: Real [1]</text>
            <line y2="366" fill="none" x1="869" clip-path="url(#clipPath48)" x2="1110" y1="366"/>
            <rect x="869" y="330" clip-path="url(#clipPath49)" fill="none" width="240" rx="0" ry="0" height="99"/>
            <rect x="1049" y="490" clip-path="url(#clipPath50)" fill="url(#linearGradient10)" width="241" height="100" stroke="none"/>
            <text x="1140" xml:space="preserve" y="506" clip-path="url(#clipPath51)" stroke="none">«DataType»</text>
            <text x="1125" xml:space="preserve" y="522" clip-path="url(#clipPath52)" stroke="none">MeasuredWeight</text>
            <text x="1055" xml:space="preserve" y="541" clip-path="url(#clipPath53)" stroke="none">  unitOfMeasure: WeightUnit [1]</text>
            <line y2="526" fill="none" x1="1049" clip-path="url(#clipPath54)" x2="1290" y1="526"/>
            <rect x="1049" y="490" clip-path="url(#clipPath55)" fill="none" width="240" rx="0" ry="0" height="99"/>
            <rect x="1049" y="650" clip-path="url(#clipPath56)" fill="url(#linearGradient11)" width="241" height="100" stroke="none"/>
            <text x="1140" xml:space="preserve" y="666" clip-path="url(#clipPath57)" stroke="none">«DataType»</text>
            <text x="1121" xml:space="preserve" y="682" clip-path="url(#clipPath58)" stroke="none">MeasuredDistance</text>
            <text x="1055" xml:space="preserve" y="701" clip-path="url(#clipPath59)" stroke="none">  unitOfMeasure: DistanceUnit [1]</text>
            <line y2="686" fill="none" x1="1049" clip-path="url(#clipPath60)" x2="1290" y1="686"/>
            <rect x="1049" y="650" clip-path="url(#clipPath61)" fill="none" width="240" rx="0" ry="0" height="99"/>
            <rect x="1049" y="810" clip-path="url(#clipPath62)" fill="url(#linearGradient12)" width="241" height="100" stroke="none"/>
            <text x="1140" xml:space="preserve" y="826" clip-path="url(#clipPath63)" stroke="none">«DataType»</text>
            <text x="1131" xml:space="preserve" y="842" clip-path="url(#clipPath64)" stroke="none">MeasuredTime</text>
            <text x="1055" xml:space="preserve" y="861" clip-path="url(#clipPath65)" stroke="none">  unitOfMeasure: TimeUnit [1]</text>
            <line y2="846" fill="none" x1="1049" clip-path="url(#clipPath66)" x2="1290" y1="846"/>
            <rect x="1049" y="810" clip-path="url(#clipPath67)" fill="none" width="240" rx="0" ry="0" height="99"/>
            <rect x="1049" y="970" clip-path="url(#clipPath68)" fill="url(#linearGradient13)" width="241" height="100" stroke="none"/>
            <text x="1140" xml:space="preserve" y="986" clip-path="url(#clipPath69)" stroke="none">«DataType»</text>
            <text x="1111" xml:space="preserve" y="1002" clip-path="url(#clipPath70)" stroke="none">MeasuredTemperature</text>
            <text x="1055" xml:space="preserve" y="1021" clip-path="url(#clipPath71)" stroke="none">  unitOfMeasure: TemperatureUnit [1]</text>
            <line y2="1006" fill="none" x1="1049" clip-path="url(#clipPath72)" x2="1290" y1="1006"/>
            <rect x="1049" y="970" clip-path="url(#clipPath73)" fill="none" width="240" rx="0" ry="0" height="99"/>
            <rect x="1369" y="10" clip-path="url(#clipPath74)" fill="url(#linearGradient14)" width="241" height="100" stroke="none"/>
            <text x="1456" y="26" clip-path="url(#clipPath75)" fill="rgb(169,169,169)" font-style="italic" stroke="none" xml:space="preserve">«DataType»</text>
            <text x="1453" y="42" clip-path="url(#clipPath76)" fill="rgb(169,169,169)" font-style="italic" stroke="none" xml:space="preserve">DimensionSet</text>
            <line y2="46" fill="none" x1="1369" clip-path="url(#clipPath77)" x2="1610" y1="46"/>
            <rect x="1369" y="10" clip-path="url(#clipPath78)" fill="none" width="240" rx="0" ry="0" height="99"/>
            <rect x="1549" y="170" clip-path="url(#clipPath79)" fill="url(#linearGradient15)" width="241" height="100" stroke="none"/>
            <text x="1640" xml:space="preserve" y="186" clip-path="url(#clipPath80)" stroke="none">«DataType»</text>
            <text x="1602" xml:space="preserve" y="202" clip-path="url(#clipPath81)" stroke="none">RectangularDimensionSet</text>
            <text x="1555" xml:space="preserve" y="221" clip-path="url(#clipPath82)" stroke="none">  height: MeasuredDistance [1]</text>
            <text x="1555" xml:space="preserve" y="237" clip-path="url(#clipPath83)" stroke="none">  width: MeasuredDistance [1]</text>
            <line y2="206" fill="none" x1="1549" clip-path="url(#clipPath84)" x2="1790" y1="206"/>
            <rect x="1549" y="170" clip-path="url(#clipPath85)" fill="none" width="240" rx="0" ry="0" height="99"/>
            <rect x="1549" y="330" clip-path="url(#clipPath86)" fill="url(#linearGradient16)" width="241" height="114" stroke="none"/>
            <text x="1640" xml:space="preserve" y="346" clip-path="url(#clipPath87)" stroke="none">«DataType»</text>
            <text x="1614" xml:space="preserve" y="362" clip-path="url(#clipPath88)" stroke="none">CuboidDimensionSet</text>
            <text x="1555" xml:space="preserve" y="381" clip-path="url(#clipPath89)" stroke="none">  height: MeasuredDistance [1]</text>
            <text x="1555" xml:space="preserve" y="397" clip-path="url(#clipPath90)" stroke="none">  width: MeasuredDistance [1]</text>
            <text x="1555" xml:space="preserve" y="413" clip-path="url(#clipPath91)" stroke="none">  depth: MeasuredDistance [1]</text>
            <line y2="366" fill="none" x1="1549" clip-path="url(#clipPath92)" x2="1790" y1="366"/>
            <rect x="1549" y="330" clip-path="url(#clipPath93)" fill="none" width="240" rx="0" ry="0" height="113"/>
            <rect x="1549" y="490" clip-path="url(#clipPath94)" fill="url(#linearGradient17)" width="241" height="100" stroke="none"/>
            <text x="1640" xml:space="preserve" y="506" clip-path="url(#clipPath95)" stroke="none">«DataType»</text>
            <text x="1605" xml:space="preserve" y="522" clip-path="url(#clipPath96)" stroke="none">CylindricalDimensionSet</text>
            <text x="1555" xml:space="preserve" y="541" clip-path="url(#clipPath97)" stroke="none">  diameter: MeasuredDistance [1]</text>
            <text x="1555" xml:space="preserve" y="557" clip-path="url(#clipPath98)" stroke="none">  depth: MeasuredDistance [1]</text>
            <line y2="526" fill="none" x1="1549" clip-path="url(#clipPath99)" x2="1790" y1="526"/>
            <rect x="1549" y="490" clip-path="url(#clipPath100)" fill="none" width="240" rx="0" ry="0" height="99"/>
            <line clip-path="url(#clipPath101)" fill="none" text-rendering="optimizeLegibility" x1="189" x2="129" y1="210" y2="210" stroke-dasharray="5,5,5,5,5,5,5,5,5,5"/>
            <line clip-path="url(#clipPath101)" fill="none" text-rendering="optimizeLegibility" x1="129" x2="129" y1="210" y2="110" stroke-dasharray="5,5,5,5,5,5,5,5,5,5"/>
        </g>
        <g stroke-linecap="butt" fill="white" text-rendering="optimizeLegibility" font-family="'Segoe UI'" stroke-dasharray="5,5,5,5,5,5,5,5,5,5" stroke="white" stroke-width="1.1">
            <polygon points=" 129 110 134 125 124 125" stroke="none" clip-path="url(#clipPath102)"/>
            <polygon fill="none" stroke-dasharray="none" clip-path="url(#clipPath102)" points=" 129 110 134 125 124 125" stroke="black"/>
            <line clip-path="url(#clipPath101)" fill="none" x1="369" x2="309" y1="370" y2="370" stroke-dasharray="none" stroke="black"/>
            <line clip-path="url(#clipPath101)" fill="none" x1="309" x2="309" y1="370" y2="270" stroke-dasharray="none" stroke="black"/>
            <polygon stroke-dasharray="none" clip-path="url(#clipPath103)" points=" 309 270 317 280 301 280" stroke="none"/>
            <polygon fill="none" stroke-dasharray="none" clip-path="url(#clipPath103)" points=" 309 270 317 280 301 280" stroke="black"/>
            <line clip-path="url(#clipPath101)" fill="none" x1="369" x2="309" y1="850" y2="850" stroke-dasharray="none" stroke="black"/>
            <line clip-path="url(#clipPath101)" fill="none" x1="309" x2="309" y1="850" y2="270" stroke-dasharray="none" stroke="black"/>
            <polygon stroke-dasharray="none" clip-path="url(#clipPath103)" points=" 309 270 317 280 301 280" stroke="none"/>
            <polygon fill="none" stroke-dasharray="none" clip-path="url(#clipPath103)" points=" 309 270 317 280 301 280" stroke="black"/>
            <line clip-path="url(#clipPath101)" fill="none" x1="369" x2="309" y1="690" y2="690" stroke-dasharray="none" stroke="black"/>
            <line clip-path="url(#clipPath101)" fill="none" x1="309" x2="309" y1="690" y2="270" stroke-dasharray="none" stroke="black"/>
            <polygon stroke-dasharray="none" clip-path="url(#clipPath103)" points=" 309 270 317 280 301 280" stroke="none"/>
            <polygon fill="none" stroke-dasharray="none" clip-path="url(#clipPath103)" points=" 309 270 317 280 301 280" stroke="black"/>
            <line clip-path="url(#clipPath101)" fill="none" x1="369" x2="309" y1="530" y2="530" stroke-dasharray="none" stroke="black"/>
            <line clip-path="url(#clipPath101)" fill="none" x1="309" x2="309" y1="530" y2="270" stroke-dasharray="none" stroke="black"/>
            <polygon stroke-dasharray="none" clip-path="url(#clipPath103)" points=" 309 270 317 280 301 280" stroke="none"/>
            <polygon fill="none" stroke-dasharray="none" clip-path="url(#clipPath103)" points=" 309 270 317 280 301 280" stroke="black"/>
            <line clip-path="url(#clipPath101)" fill="none" x1="869" x2="809" y1="210" y2="210" stroke-dasharray="none" stroke="black"/>
            <line clip-path="url(#clipPath101)" fill="none" x1="809" x2="809" y1="210" y2="110" stroke-dasharray="none" stroke="black"/>
            <polygon stroke-dasharray="none" clip-path="url(#clipPath104)" points=" 809 110 817 120 801 120" stroke="none"/>
            <polygon fill="none" stroke-dasharray="none" clip-path="url(#clipPath104)" points=" 809 110 817 120 801 120" stroke="black"/>
            <line clip-path="url(#clipPath101)" fill="none" x1="869" x2="809" y1="370" y2="370" stroke-dasharray="none" stroke="black"/>
            <line clip-path="url(#clipPath101)" fill="none" x1="809" x2="809" y1="370" y2="110" stroke-dasharray="none" stroke="black"/>
            <polygon stroke-dasharray="none" clip-path="url(#clipPath104)" points=" 809 110 817 120 801 120" stroke="none"/>
            <polygon fill="none" stroke-dasharray="none" clip-path="url(#clipPath104)" points=" 809 110 817 120 801 120" stroke="black"/>
            <line clip-path="url(#clipPath101)" fill="none" x1="1049" x2="989" y1="530" y2="530" stroke-dasharray="none" stroke="black"/>
            <line clip-path="url(#clipPath101)" fill="none" x1="989" x2="989" y1="530" y2="430" stroke-dasharray="none" stroke="black"/>
            <polygon stroke-dasharray="none" clip-path="url(#clipPath105)" points=" 989 430 997 440 981 440" stroke="none"/>
            <polygon fill="none" stroke-dasharray="none" clip-path="url(#clipPath105)" points=" 989 430 997 440 981 440" stroke="black"/>
            <line clip-path="url(#clipPath101)" fill="none" x1="1049" x2="989" y1="690" y2="690" stroke-dasharray="none" stroke="black"/>
            <line clip-path="url(#clipPath101)" fill="none" x1="989" x2="989" y1="690" y2="430" stroke-dasharray="none" stroke="black"/>
            <polygon stroke-dasharray="none" clip-path="url(#clipPath105)" points=" 989 430 997 440 981 440" stroke="none"/>
            <polygon fill="none" stroke-dasharray="none" clip-path="url(#clipPath105)" points=" 989 430 997 440 981 440" stroke="black"/>
            <line clip-path="url(#clipPath101)" fill="none" x1="1049" x2="989" y1="850" y2="850" stroke-dasharray="none" stroke="black"/>
            <line clip-path="url(#clipPath101)" fill="none" x1="989" x2="989" y1="850" y2="430" stroke-dasharray="none" stroke="black"/>
            <polygon stroke-dasharray="none" clip-path="url(#clipPath105)" points=" 989 430 997 440 981 440" stroke="none"/>
            <polygon fill="none" stroke-dasharray="none" clip-path="url(#clipPath105)" points=" 989 430 997 440 981 440" stroke="black"/>
            <line clip-path="url(#clipPath101)" fill="none" x1="1049" x2="989" y1="1010" y2="1010" stroke-dasharray="none" stroke="black"/>
            <line clip-path="url(#clipPath101)" fill="none" x1="989" x2="989" y1="1010" y2="430" stroke-dasharray="none" stroke="black"/>
            <polygon stroke-dasharray="none" clip-path="url(#clipPath105)" points=" 989 430 997 440 981 440" stroke="none"/>
            <polygon fill="none" stroke-dasharray="none" clip-path="url(#clipPath105)" points=" 989 430 997 440 981 440" stroke="black"/>
            <line clip-path="url(#clipPath101)" fill="none" x1="1549" x2="1489" y1="210" y2="210" stroke-dasharray="none" stroke="black"/>
            <line clip-path="url(#clipPath101)" fill="none" x1="1489" x2="1489" y1="210" y2="110" stroke-dasharray="none" stroke="black"/>
            <polygon stroke-dasharray="none" clip-path="url(#clipPath106)" points=" 1489 110 1497 120 1481 120" stroke="none"/>
            <polygon fill="none" stroke-dasharray="none" clip-path="url(#clipPath106)" points=" 1489 110 1497 120 1481 120" stroke="black"/>
            <line clip-path="url(#clipPath101)" fill="none" x1="1549" x2="1489" y1="375" y2="375" stroke-dasharray="none" stroke="black"/>
            <line clip-path="url(#clipPath101)" fill="none" x1="1489" x2="1489" y1="375" y2="110" stroke-dasharray="none" stroke="black"/>
            <polygon stroke-dasharray="none" clip-path="url(#clipPath106)" points=" 1489 110 1497 120 1481 120" stroke="none"/>
            <polygon fill="none" stroke-dasharray="none" clip-path="url(#clipPath106)" points=" 1489 110 1497 120 1481 120" stroke="black"/>
            <line clip-path="url(#clipPath101)" fill="none" x1="1549" x2="1489" y1="530" y2="530" stroke-dasharray="none" stroke="black"/>
            <line clip-path="url(#clipPath101)" fill="none" x1="1489" x2="1489" y1="530" y2="110" stroke-dasharray="none" stroke="black"/>
            <polygon stroke-dasharray="none" clip-path="url(#clipPath106)" points=" 1489 110 1497 120 1481 120" stroke="none"/>
            <polygon fill="none" stroke-dasharray="none" clip-path="url(#clipPath106)" points=" 1489 110 1497 120 1481 120" stroke="black"/>
        </g>
    </g>
</svg>
