<?xml version="1.0" encoding="UTF-8"?><svg xmlns="http://www.w3.org/2000/svg" xmlns:xlink="http://www.w3.org/1999/xlink" stroke-dasharray="none" shape-rendering="auto" font-family="'Dialog'" width="934" text-rendering="auto" fill-opacity="1" contentScriptType="text/ecmascript" color-interpolation="auto" color-rendering="auto" preserveAspectRatio="xMidYMid meet" font-size="12px" viewBox="0 0 934 1180" fill="black" stroke="black" image-rendering="auto" stroke-miterlimit="10" zoomAndPan="magnify" version="1.0" stroke-linecap="square" stroke-linejoin="miter" contentStyleType="text/css" font-style="normal" height="1180" stroke-width="1" stroke-dashoffset="0" font-weight="normal" stroke-opacity="1">
    <!--Generated by the Batik Graphics2D SVG Generator-->
    <defs id="genericDefs"/>
    <g>
        <defs id="defs1">
            <linearGradient x1="10" x2="10" y1="10" gradientUnits="userSpaceOnUse" y2="110" xlink:type="simple" xlink:actuate="onLoad" id="linearGradient1" xlink:show="other" spreadMethod="pad">
                <stop stop-opacity="1" stop-color="white" offset="0%"/>
                <stop stop-opacity="1" stop-color="rgb(131,135,205)" offset="100%"/>
            </linearGradient>
            <linearGradient x1="190" x2="190" y1="330" gradientUnits="userSpaceOnUse" y2="430" xlink:type="simple" xlink:actuate="onLoad" id="linearGradient2" xlink:show="other" spreadMethod="pad">
                <stop stop-opacity="1" stop-color="white" offset="0%"/>
                <stop stop-opacity="1" stop-color="rgb(195,167,173)" offset="100%"/>
            </linearGradient>
            <linearGradient x1="550" x2="550" y1="649" gradientUnits="userSpaceOnUse" y2="749" xlink:type="simple" xlink:actuate="onLoad" id="linearGradient3" xlink:show="other" spreadMethod="pad">
                <stop stop-opacity="1" stop-color="white" offset="0%"/>
                <stop stop-opacity="1" stop-color="rgb(195,167,173)" offset="100%"/>
            </linearGradient>
            <linearGradient x1="550" x2="550" y1="908" gradientUnits="userSpaceOnUse" y2="1008" xlink:type="simple" xlink:actuate="onLoad" id="linearGradient4" xlink:show="other" spreadMethod="pad">
                <stop stop-opacity="1" stop-color="white" offset="0%"/>
                <stop stop-opacity="1" stop-color="rgb(195,167,173)" offset="100%"/>
            </linearGradient>
            <linearGradient x1="370" x2="370" y1="488" gradientUnits="userSpaceOnUse" y2="588" xlink:type="simple" xlink:actuate="onLoad" id="linearGradient5" xlink:show="other" spreadMethod="pad">
                <stop stop-opacity="1" stop-color="white" offset="0%"/>
                <stop stop-opacity="1" stop-color="rgb(195,167,173)" offset="100%"/>
            </linearGradient>
            <linearGradient x1="190" x2="190" y1="170" gradientUnits="userSpaceOnUse" y2="270" xlink:type="simple" xlink:actuate="onLoad" id="linearGradient6" xlink:show="other" spreadMethod="pad">
                <stop stop-opacity="1" stop-color="white" offset="0%"/>
                <stop stop-opacity="1" stop-color="rgb(195,167,173)" offset="100%"/>
            </linearGradient>
            <linearGradient x1="370" x2="370" y1="1070" gradientUnits="userSpaceOnUse" y2="1170" xlink:type="simple" xlink:actuate="onLoad" id="linearGradient7" xlink:show="other" spreadMethod="pad">
                <stop stop-opacity="1" stop-color="white" offset="0%"/>
                <stop stop-opacity="1" stop-color="rgb(195,167,173)" offset="100%"/>
            </linearGradient>
            <clipPath clipPathUnits="userSpaceOnUse" id="clipPath1">
                <path d="M10 10 L10 109 L250 109 L250 10 Z"/>
            </clipPath>
            <clipPath clipPathUnits="userSpaceOnUse" id="clipPath2">
                <path d="M101 12 L162 12 L162 29 L101 29 L101 12 Z"/>
            </clipPath>
            <clipPath clipPathUnits="userSpaceOnUse" id="clipPath3">
                <path d="M72 28 L191 28 L191 45 L72 45 L72 28 Z"/>
            </clipPath>
            <clipPath clipPathUnits="userSpaceOnUse" id="clipPath4">
                <path d="M15 47 L214 47 L214 64 L15 64 L15 47 Z"/>
            </clipPath>
            <clipPath clipPathUnits="userSpaceOnUse" id="clipPath5">
                <path d="M10 45 L252 45 L252 111 L10 111 L10 45 Z"/>
            </clipPath>
            <clipPath clipPathUnits="userSpaceOnUse" id="clipPath6">
                <path d="M9 9 L252 9 L252 111 L9 111 L9 9 Z"/>
            </clipPath>
            <clipPath clipPathUnits="userSpaceOnUse" id="clipPath7">
                <path d="M190 330 L190 429 L430 429 L430 330 Z"/>
            </clipPath>
            <clipPath clipPathUnits="userSpaceOnUse" id="clipPath8">
                <path d="M263 332 L359 332 L359 349 L263 349 L263 332 Z"/>
            </clipPath>
            <clipPath clipPathUnits="userSpaceOnUse" id="clipPath9">
                <path d="M281 348 L342 348 L342 365 L281 365 L281 348 Z"/>
            </clipPath>
            <clipPath clipPathUnits="userSpaceOnUse" id="clipPath10">
                <path d="M190 365 L432 365 L432 431 L190 431 L190 365 Z"/>
            </clipPath>
            <clipPath clipPathUnits="userSpaceOnUse" id="clipPath11">
                <path d="M189 329 L432 329 L432 431 L189 431 L189 329 Z"/>
            </clipPath>
            <clipPath clipPathUnits="userSpaceOnUse" id="clipPath12">
                <path d="M550 649 L550 748 L790 748 L790 649 Z"/>
            </clipPath>
            <clipPath clipPathUnits="userSpaceOnUse" id="clipPath13">
                <path d="M626 651 L717 651 L717 668 L626 668 L626 651 Z"/>
            </clipPath>
            <clipPath clipPathUnits="userSpaceOnUse" id="clipPath14">
                <path d="M636 667 L706 667 L706 684 L636 684 L636 667 Z"/>
            </clipPath>
            <clipPath clipPathUnits="userSpaceOnUse" id="clipPath15">
                <path d="M550 684 L792 684 L792 750 L550 750 L550 684 Z"/>
            </clipPath>
            <clipPath clipPathUnits="userSpaceOnUse" id="clipPath16">
                <path d="M549 648 L792 648 L792 750 L549 750 L549 648 Z"/>
            </clipPath>
            <clipPath clipPathUnits="userSpaceOnUse" id="clipPath17">
                <path d="M550 908 L550 1007 L790 1007 L790 908 Z"/>
            </clipPath>
            <clipPath clipPathUnits="userSpaceOnUse" id="clipPath18">
                <path d="M626 910 L717 910 L717 927 L626 927 L626 910 Z"/>
            </clipPath>
            <clipPath clipPathUnits="userSpaceOnUse" id="clipPath19">
                <path d="M640 926 L702 926 L702 943 L640 943 L640 926 Z"/>
            </clipPath>
            <clipPath clipPathUnits="userSpaceOnUse" id="clipPath20">
                <path d="M555 945 L777 945 L777 962 L555 962 L555 945 Z"/>
            </clipPath>
            <clipPath clipPathUnits="userSpaceOnUse" id="clipPath21">
                <path d="M550 943 L792 943 L792 1009 L550 1009 L550 943 Z"/>
            </clipPath>
            <clipPath clipPathUnits="userSpaceOnUse" id="clipPath22">
                <path d="M549 907 L792 907 L792 1009 L549 1009 L549 907 Z"/>
            </clipPath>
            <clipPath clipPathUnits="userSpaceOnUse" id="clipPath23">
                <path d="M370 488 L370 587 L609 587 L609 488 Z"/>
            </clipPath>
            <clipPath clipPathUnits="userSpaceOnUse" id="clipPath24">
                <path d="M443 490 L539 490 L539 507 L443 507 L443 490 Z"/>
            </clipPath>
            <clipPath clipPathUnits="userSpaceOnUse" id="clipPath25">
                <path d="M443 506 L538 506 L538 523 L443 523 L443 506 Z"/>
            </clipPath>
            <clipPath clipPathUnits="userSpaceOnUse" id="clipPath26">
                <path d="M370 523 L611 523 L611 589 L370 589 L370 523 Z"/>
            </clipPath>
            <clipPath clipPathUnits="userSpaceOnUse" id="clipPath27">
                <path d="M369 487 L611 487 L611 589 L369 589 L369 487 Z"/>
            </clipPath>
            <clipPath clipPathUnits="userSpaceOnUse" id="clipPath28">
                <path d="M190 170 L190 269 L429 269 L429 170 Z"/>
            </clipPath>
            <clipPath clipPathUnits="userSpaceOnUse" id="clipPath29">
                <path d="M265 172 L356 172 L356 189 L265 189 L265 172 Z"/>
            </clipPath>
            <clipPath clipPathUnits="userSpaceOnUse" id="clipPath30">
                <path d="M261 188 L361 188 L361 205 L261 205 L261 188 Z"/>
            </clipPath>
            <clipPath clipPathUnits="userSpaceOnUse" id="clipPath31">
                <path d="M190 205 L431 205 L431 271 L190 271 L190 205 Z"/>
            </clipPath>
            <clipPath clipPathUnits="userSpaceOnUse" id="clipPath32">
                <path d="M189 169 L431 169 L431 271 L189 271 L189 169 Z"/>
            </clipPath>
            <clipPath clipPathUnits="userSpaceOnUse" id="clipPath33">
                <path d="M370 1070 L370 1169 L609 1169 L609 1070 Z"/>
            </clipPath>
            <clipPath clipPathUnits="userSpaceOnUse" id="clipPath34">
                <path d="M445 1072 L536 1072 L536 1089 L445 1089 L445 1072 Z"/>
            </clipPath>
            <clipPath clipPathUnits="userSpaceOnUse" id="clipPath35">
                <path d="M471 1088 L511 1088 L511 1105 L471 1105 L471 1088 Z"/>
            </clipPath>
            <clipPath clipPathUnits="userSpaceOnUse" id="clipPath36">
                <path d="M370 1105 L611 1105 L611 1171 L370 1171 L370 1105 Z"/>
            </clipPath>
            <clipPath clipPathUnits="userSpaceOnUse" id="clipPath37">
                <path d="M369 1069 L611 1069 L611 1171 L369 1171 L369 1069 Z"/>
            </clipPath>
            <clipPath clipPathUnits="userSpaceOnUse" id="clipPath38">
                <path d="M-1 -1 L935 -1 L935 1181 L-1 1181 L-1 -1 Z"/>
            </clipPath>
            <clipPath clipPathUnits="userSpaceOnUse" id="clipPath39">
                <path d="M124 109 L137 109 L137 127 L124 127 L124 109 Z"/>
            </clipPath>
            <clipPath clipPathUnits="userSpaceOnUse" id="clipPath40">
                <path d="M481 587 L500 587 L500 600 L481 600 L481 587 Z"/>
            </clipPath>
            <clipPath clipPathUnits="userSpaceOnUse" id="clipPath41">
                <path d="M301 429 L320 429 L320 442 L301 442 L301 429 Z"/>
            </clipPath>
            <clipPath clipPathUnits="userSpaceOnUse" id="clipPath42">
                <path d="M810 969 L821 969 L821 986 L810 986 L810 969 Z"/>
            </clipPath>
            <clipPath clipPathUnits="userSpaceOnUse" id="clipPath43">
                <path d="M629 549 L641 549 L641 566 L629 566 L629 549 Z"/>
            </clipPath>
        </defs>
        <g fill="url(#linearGradient1)" stroke-miterlimit="0" stroke-width="0" font-family="'Segoe UI'" stroke="url(#linearGradient1)" stroke-linejoin="round">
            <rect x="10" width="241" height="100" y="10" clip-path="url(#clipPath1)" stroke="none"/>
            <text fill="black" x="102" xml:space="preserve" y="26" clip-path="url(#clipPath2)" stroke="none">«Interface»</text>
            <text fill="black" x="73" xml:space="preserve" y="42" clip-path="url(#clipPath3)" stroke="none">IControlledVocabulary</text>
            <text fill="black" x="16" xml:space="preserve" y="61" clip-path="url(#clipPath4)" stroke="none">«ReferenceCode»   code: Identifier [1]</text>
        </g>
        <g stroke-linecap="butt" font-family="'Segoe UI'" stroke-width="1.1">
            <line y2="46" fill="none" x1="10" clip-path="url(#clipPath5)" x2="251" y1="46"/>
            <rect x="10" y="10" clip-path="url(#clipPath6)" fill="none" width="240" rx="0" ry="0" height="99"/>
            <rect x="190" y="330" clip-path="url(#clipPath7)" fill="url(#linearGradient2)" width="241" height="100" stroke="none"/>
            <text x="264" y="346" clip-path="url(#clipPath8)" fill="rgb(169,169,169)" font-style="italic" stroke="none" xml:space="preserve">«ReferenceData»</text>
            <text x="282" y="362" clip-path="url(#clipPath9)" fill="rgb(169,169,169)" font-style="italic" stroke="none" xml:space="preserve">CostObject</text>
            <line y2="366" fill="none" x1="190" clip-path="url(#clipPath10)" x2="431" y1="366"/>
            <rect x="190" y="330" clip-path="url(#clipPath11)" fill="none" width="240" rx="0" ry="0" height="99"/>
            <rect x="550" y="649" clip-path="url(#clipPath12)" fill="url(#linearGradient3)" width="241" height="100" stroke="none"/>
            <text x="627" xml:space="preserve" y="665" clip-path="url(#clipPath13)" stroke="none">«ReferenceData»</text>
            <text x="637" xml:space="preserve" y="681" clip-path="url(#clipPath14)" stroke="none">Organisation</text>
            <line y2="685" fill="none" x1="550" clip-path="url(#clipPath15)" x2="791" y1="685"/>
            <rect x="550" y="649" clip-path="url(#clipPath16)" fill="none" width="240" rx="0" ry="0" height="99"/>
            <rect x="550" y="908" clip-path="url(#clipPath17)" fill="url(#linearGradient4)" width="241" height="100" stroke="none"/>
            <text x="627" xml:space="preserve" y="924" clip-path="url(#clipPath18)" stroke="none">«ReferenceData»</text>
            <text x="641" xml:space="preserve" y="940" clip-path="url(#clipPath19)" stroke="none">CostCentre</text>
            <text x="556" xml:space="preserve" y="959" clip-path="url(#clipPath20)" stroke="none">  responsibilityType: ResponsibilityType [1]</text>
            <line y2="944" fill="none" x1="550" clip-path="url(#clipPath21)" x2="791" y1="944"/>
            <rect x="550" y="908" clip-path="url(#clipPath22)" fill="none" width="240" rx="0" ry="0" height="99"/>
            <rect x="370" y="488" clip-path="url(#clipPath23)" fill="url(#linearGradient5)" width="240" height="100" stroke="none"/>
            <text x="444" y="504" clip-path="url(#clipPath24)" fill="rgb(169,169,169)" font-style="italic" stroke="none" xml:space="preserve">«ReferenceData»</text>
            <text x="444" y="520" clip-path="url(#clipPath25)" fill="rgb(169,169,169)" font-style="italic" stroke="none" xml:space="preserve">OrganisationUnit</text>
            <line y2="524" fill="none" x1="370" clip-path="url(#clipPath26)" x2="610" y1="524"/>
            <rect x="370" y="488" clip-path="url(#clipPath27)" fill="none" width="239" rx="0" ry="0" height="99"/>
            <rect x="190" y="170" clip-path="url(#clipPath28)" fill="url(#linearGradient6)" width="240" height="100" stroke="none"/>
            <text x="266" xml:space="preserve" y="186" clip-path="url(#clipPath29)" stroke="none">«ReferenceData»</text>
            <text x="262" xml:space="preserve" y="202" clip-path="url(#clipPath30)" stroke="none">ResponsibilityType</text>
            <line y2="206" fill="none" x1="190" clip-path="url(#clipPath31)" x2="430" y1="206"/>
            <rect x="190" y="170" clip-path="url(#clipPath32)" fill="none" width="239" rx="0" ry="0" height="99"/>
            <rect x="370" y="1070" clip-path="url(#clipPath33)" fill="url(#linearGradient7)" width="240" height="100" stroke="none"/>
            <text x="446" xml:space="preserve" y="1086" clip-path="url(#clipPath34)" stroke="none">«ReferenceData»</text>
            <text x="472" xml:space="preserve" y="1102" clip-path="url(#clipPath35)" stroke="none">Project</text>
            <line y2="1106" fill="none" x1="370" clip-path="url(#clipPath36)" x2="610" y1="1106"/>
            <rect x="370" y="1070" clip-path="url(#clipPath37)" fill="none" width="239" rx="0" ry="0" height="99"/>
            <line clip-path="url(#clipPath38)" fill="none" text-rendering="optimizeLegibility" x1="190" x2="130" y1="370" y2="370" stroke-dasharray="5,5,5,5,5,5,5,5,5,5"/>
            <line clip-path="url(#clipPath38)" fill="none" text-rendering="optimizeLegibility" x1="130" x2="130" y1="370" y2="110" stroke-dasharray="5,5,5,5,5,5,5,5,5,5"/>
        </g>
        <g stroke-linecap="butt" fill="white" text-rendering="optimizeLegibility" font-family="'Segoe UI'" stroke-dasharray="5,5,5,5,5,5,5,5,5,5" stroke="white" stroke-width="1.1">
            <polygon points=" 130 110 135 125 125 125" stroke="none" clip-path="url(#clipPath39)"/>
            <polygon fill="none" stroke-dasharray="none" clip-path="url(#clipPath39)" points=" 130 110 135 125 125 125" stroke="black"/>
            <line clip-path="url(#clipPath38)" fill="none" x1="550" x2="490" y1="689" y2="689" stroke-dasharray="none" stroke="black"/>
            <line clip-path="url(#clipPath38)" fill="none" x1="490" x2="490" y1="689" y2="588" stroke-dasharray="none" stroke="black"/>
            <polygon stroke-dasharray="none" clip-path="url(#clipPath40)" points=" 490 588 498 598 482 598" stroke="none"/>
            <polygon fill="none" stroke-dasharray="none" clip-path="url(#clipPath40)" points=" 490 588 498 598 482 598" stroke="black"/>
            <line clip-path="url(#clipPath38)" fill="none" x1="550" x2="490" y1="950" y2="950" stroke-dasharray="none" stroke="black"/>
            <line clip-path="url(#clipPath38)" fill="none" x1="490" x2="490" y1="950" y2="588" stroke-dasharray="none" stroke="black"/>
            <polygon stroke-dasharray="none" clip-path="url(#clipPath40)" points=" 490 588 498 598 482 598" stroke="none"/>
            <polygon fill="none" stroke-dasharray="none" clip-path="url(#clipPath40)" points=" 490 588 498 598 482 598" stroke="black"/>
            <line clip-path="url(#clipPath38)" fill="none" x1="370" x2="310" y1="530" y2="530" stroke-dasharray="none" stroke="black"/>
            <line clip-path="url(#clipPath38)" fill="none" x1="310" x2="310" y1="530" y2="430" stroke-dasharray="none" stroke="black"/>
            <polygon stroke-dasharray="none" clip-path="url(#clipPath41)" points=" 310 430 318 440 302 440" stroke="none"/>
            <polygon fill="none" stroke-dasharray="none" clip-path="url(#clipPath41)" points=" 310 430 318 440 302 440" stroke="black"/>
            <line clip-path="url(#clipPath38)" fill="none" x1="791" x2="910" y1="950" y2="950" stroke-dasharray="none" stroke="black"/>
            <line clip-path="url(#clipPath38)" fill="none" x1="910" x2="910" y1="950" y2="530" stroke-dasharray="none" stroke="black"/>
            <line clip-path="url(#clipPath38)" fill="none" x1="910" x2="610" y1="530" y2="530" stroke-dasharray="none" stroke="black"/>
            <text x="811" y="983" clip-path="url(#clipPath42)" fill="black" stroke-dasharray="none" stroke="none" xml:space="preserve"> *</text>
            <text x="630" y="563" clip-path="url(#clipPath43)" fill="black" stroke-dasharray="none" stroke="none" xml:space="preserve"> 1</text>
            <line clip-path="url(#clipPath38)" fill="none" x1="190" x2="130" y1="210" y2="210" stroke="black"/>
            <line clip-path="url(#clipPath38)" fill="none" x1="130" x2="130" y1="210" y2="110" stroke="black"/>
            <polygon points=" 130 110 135 125 125 125" clip-path="url(#clipPath39)" stroke="none"/>
            <polygon fill="none" stroke-dasharray="none" clip-path="url(#clipPath39)" points=" 130 110 135 125 125 125" stroke="black"/>
            <line clip-path="url(#clipPath38)" fill="none" x1="370" x2="310" y1="1110" y2="1110" stroke-dasharray="none" stroke="black"/>
            <line clip-path="url(#clipPath38)" fill="none" x1="310" x2="310" y1="1110" y2="430" stroke-dasharray="none" stroke="black"/>
            <polygon stroke-dasharray="none" clip-path="url(#clipPath41)" points=" 310 430 318 440 302 440" stroke="none"/>
            <polygon fill="none" stroke-dasharray="none" clip-path="url(#clipPath41)" points=" 310 430 318 440 302 440" stroke="black"/>
        </g>
    </g>
</svg>
