<?xml version="1.0" encoding="UTF-8"?><svg xmlns="http://www.w3.org/2000/svg" xmlns:xlink="http://www.w3.org/1999/xlink" stroke-dasharray="none" shape-rendering="auto" font-family="'Dialog'" width="1240" text-rendering="auto" fill-opacity="1" contentScriptType="text/ecmascript" color-interpolation="auto" color-rendering="auto" preserveAspectRatio="xMidYMid meet" font-size="12px" viewBox="0 0 1240 1080" fill="black" stroke="black" image-rendering="auto" stroke-miterlimit="10" zoomAndPan="magnify" version="1.0" stroke-linecap="square" stroke-linejoin="miter" contentStyleType="text/css" font-style="normal" height="1080" stroke-width="1" stroke-dashoffset="0" font-weight="normal" stroke-opacity="1">
    <!--Generated by the Batik Graphics2D SVG Generator-->
    <defs id="genericDefs"/>
    <g>
        <defs id="defs1">
            <linearGradient x1="190" x2="190" y1="330" gradientUnits="userSpaceOnUse" y2="430" xlink:type="simple" xlink:actuate="onLoad" id="linearGradient1" xlink:show="other" spreadMethod="pad">
                <stop stop-opacity="1" stop-color="white" offset="0%"/>
                <stop stop-opacity="1" stop-color="rgb(195,167,173)" offset="100%"/>
            </linearGradient>
            <linearGradient x1="10" x2="10" y1="10" gradientUnits="userSpaceOnUse" y2="110" xlink:type="simple" xlink:actuate="onLoad" id="linearGradient2" xlink:show="other" spreadMethod="pad">
                <stop stop-opacity="1" stop-color="white" offset="0%"/>
                <stop stop-opacity="1" stop-color="rgb(131,135,205)" offset="100%"/>
            </linearGradient>
            <linearGradient x1="190" x2="190" y1="170" gradientUnits="userSpaceOnUse" y2="270" xlink:type="simple" xlink:actuate="onLoad" id="linearGradient3" xlink:show="other" spreadMethod="pad">
                <stop stop-opacity="1" stop-color="white" offset="0%"/>
                <stop stop-opacity="1" stop-color="rgb(195,167,173)" offset="100%"/>
            </linearGradient>
            <linearGradient x1="370" x2="370" y1="490" gradientUnits="userSpaceOnUse" y2="590" xlink:type="simple" xlink:actuate="onLoad" id="linearGradient4" xlink:show="other" spreadMethod="pad">
                <stop stop-opacity="1" stop-color="white" offset="0%"/>
                <stop stop-opacity="1" stop-color="rgb(195,167,173)" offset="100%"/>
            </linearGradient>
            <linearGradient x1="550" x2="550" y1="650" gradientUnits="userSpaceOnUse" y2="750" xlink:type="simple" xlink:actuate="onLoad" id="linearGradient5" xlink:show="other" spreadMethod="pad">
                <stop stop-opacity="1" stop-color="white" offset="0%"/>
                <stop stop-opacity="1" stop-color="rgb(195,167,173)" offset="100%"/>
            </linearGradient>
            <linearGradient x1="550" x2="550" y1="810" gradientUnits="userSpaceOnUse" y2="910" xlink:type="simple" xlink:actuate="onLoad" id="linearGradient6" xlink:show="other" spreadMethod="pad">
                <stop stop-opacity="1" stop-color="white" offset="0%"/>
                <stop stop-opacity="1" stop-color="rgb(195,167,173)" offset="100%"/>
            </linearGradient>
            <linearGradient x1="990" x2="990" y1="490" gradientUnits="userSpaceOnUse" y2="590" xlink:type="simple" xlink:actuate="onLoad" id="linearGradient7" xlink:show="other" spreadMethod="pad">
                <stop stop-opacity="1" stop-color="white" offset="0%"/>
                <stop stop-opacity="1" stop-color="rgb(131,135,205)" offset="100%"/>
            </linearGradient>
            <linearGradient x1="370" x2="370" y1="970" gradientUnits="userSpaceOnUse" y2="1070" xlink:type="simple" xlink:actuate="onLoad" id="linearGradient8" xlink:show="other" spreadMethod="pad">
                <stop stop-opacity="1" stop-color="white" offset="0%"/>
                <stop stop-opacity="1" stop-color="rgb(195,167,173)" offset="100%"/>
            </linearGradient>
            <clipPath clipPathUnits="userSpaceOnUse" id="clipPath1">
                <path d="M190 330 L190 429 L430 429 L430 330 Z"/>
            </clipPath>
            <clipPath clipPathUnits="userSpaceOnUse" id="clipPath2">
                <path d="M263 332 L359 332 L359 349 L263 349 L263 332 Z"/>
            </clipPath>
            <clipPath clipPathUnits="userSpaceOnUse" id="clipPath3">
                <path d="M268 348 L354 348 L354 365 L268 365 L268 348 Z"/>
            </clipPath>
            <clipPath clipPathUnits="userSpaceOnUse" id="clipPath4">
                <path d="M195 367 L393 367 L393 384 L195 384 L195 367 Z"/>
            </clipPath>
            <clipPath clipPathUnits="userSpaceOnUse" id="clipPath5">
                <path d="M190 365 L432 365 L432 431 L190 431 L190 365 Z"/>
            </clipPath>
            <clipPath clipPathUnits="userSpaceOnUse" id="clipPath6">
                <path d="M189 329 L432 329 L432 431 L189 431 L189 329 Z"/>
            </clipPath>
            <clipPath clipPathUnits="userSpaceOnUse" id="clipPath7">
                <path d="M10 10 L10 109 L250 109 L250 10 Z"/>
            </clipPath>
            <clipPath clipPathUnits="userSpaceOnUse" id="clipPath8">
                <path d="M101 12 L162 12 L162 29 L101 29 L101 12 Z"/>
            </clipPath>
            <clipPath clipPathUnits="userSpaceOnUse" id="clipPath9">
                <path d="M72 28 L191 28 L191 45 L72 45 L72 28 Z"/>
            </clipPath>
            <clipPath clipPathUnits="userSpaceOnUse" id="clipPath10">
                <path d="M15 47 L214 47 L214 64 L15 64 L15 47 Z"/>
            </clipPath>
            <clipPath clipPathUnits="userSpaceOnUse" id="clipPath11">
                <path d="M10 45 L252 45 L252 111 L10 111 L10 45 Z"/>
            </clipPath>
            <clipPath clipPathUnits="userSpaceOnUse" id="clipPath12">
                <path d="M9 9 L252 9 L252 111 L9 111 L9 9 Z"/>
            </clipPath>
            <clipPath clipPathUnits="userSpaceOnUse" id="clipPath13">
                <path d="M190 170 L190 269 L430 269 L430 170 Z"/>
            </clipPath>
            <clipPath clipPathUnits="userSpaceOnUse" id="clipPath14">
                <path d="M266 172 L357 172 L357 189 L266 189 L266 172 Z"/>
            </clipPath>
            <clipPath clipPathUnits="userSpaceOnUse" id="clipPath15">
                <path d="M283 188 L340 188 L340 205 L283 205 L283 188 Z"/>
            </clipPath>
            <clipPath clipPathUnits="userSpaceOnUse" id="clipPath16">
                <path d="M190 205 L432 205 L432 271 L190 271 L190 205 Z"/>
            </clipPath>
            <clipPath clipPathUnits="userSpaceOnUse" id="clipPath17">
                <path d="M189 169 L432 169 L432 271 L189 271 L189 169 Z"/>
            </clipPath>
            <clipPath clipPathUnits="userSpaceOnUse" id="clipPath18">
                <path d="M370 490 L370 589 L610 589 L610 490 Z"/>
            </clipPath>
            <clipPath clipPathUnits="userSpaceOnUse" id="clipPath19">
                <path d="M443 492 L539 492 L539 509 L443 509 L443 492 Z"/>
            </clipPath>
            <clipPath clipPathUnits="userSpaceOnUse" id="clipPath20">
                <path d="M431 508 L552 508 L552 525 L431 525 L431 508 Z"/>
            </clipPath>
            <clipPath clipPathUnits="userSpaceOnUse" id="clipPath21">
                <path d="M370 525 L612 525 L612 591 L370 591 L370 525 Z"/>
            </clipPath>
            <clipPath clipPathUnits="userSpaceOnUse" id="clipPath22">
                <path d="M369 489 L612 489 L612 591 L369 591 L369 489 Z"/>
            </clipPath>
            <clipPath clipPathUnits="userSpaceOnUse" id="clipPath23">
                <path d="M550 650 L550 749 L790 749 L790 650 Z"/>
            </clipPath>
            <clipPath clipPathUnits="userSpaceOnUse" id="clipPath24">
                <path d="M626 652 L717 652 L717 669 L626 669 L626 652 Z"/>
            </clipPath>
            <clipPath clipPathUnits="userSpaceOnUse" id="clipPath25">
                <path d="M615 668 L727 668 L727 685 L615 685 L615 668 Z"/>
            </clipPath>
            <clipPath clipPathUnits="userSpaceOnUse" id="clipPath26">
                <path d="M555 687 L695 687 L695 704 L555 704 L555 687 Z"/>
            </clipPath>
            <clipPath clipPathUnits="userSpaceOnUse" id="clipPath27">
                <path d="M550 685 L792 685 L792 751 L550 751 L550 685 Z"/>
            </clipPath>
            <clipPath clipPathUnits="userSpaceOnUse" id="clipPath28">
                <path d="M549 649 L792 649 L792 751 L549 751 L549 649 Z"/>
            </clipPath>
            <clipPath clipPathUnits="userSpaceOnUse" id="clipPath29">
                <path d="M550 810 L550 909 L790 909 L790 810 Z"/>
            </clipPath>
            <clipPath clipPathUnits="userSpaceOnUse" id="clipPath30">
                <path d="M626 812 L717 812 L717 829 L626 829 L626 812 Z"/>
            </clipPath>
            <clipPath clipPathUnits="userSpaceOnUse" id="clipPath31">
                <path d="M594 828 L748 828 L748 845 L594 845 L594 828 Z"/>
            </clipPath>
            <clipPath clipPathUnits="userSpaceOnUse" id="clipPath32">
                <path d="M550 845 L792 845 L792 911 L550 911 L550 845 Z"/>
            </clipPath>
            <clipPath clipPathUnits="userSpaceOnUse" id="clipPath33">
                <path d="M549 809 L792 809 L792 911 L549 911 L549 809 Z"/>
            </clipPath>
            <clipPath clipPathUnits="userSpaceOnUse" id="clipPath34">
                <path d="M990 490 L990 589 L1229 589 L1229 490 Z"/>
            </clipPath>
            <clipPath clipPathUnits="userSpaceOnUse" id="clipPath35">
                <path d="M1080 492 L1141 492 L1141 509 L1080 509 L1080 492 Z"/>
            </clipPath>
            <clipPath clipPathUnits="userSpaceOnUse" id="clipPath36">
                <path d="M1079 508 L1142 508 L1142 525 L1079 525 L1079 508 Z"/>
            </clipPath>
            <clipPath clipPathUnits="userSpaceOnUse" id="clipPath37">
                <path d="M995 527 L1207 527 L1207 544 L995 544 L995 527 Z"/>
            </clipPath>
            <clipPath clipPathUnits="userSpaceOnUse" id="clipPath38">
                <path d="M990 525 L1231 525 L1231 591 L990 591 L990 525 Z"/>
            </clipPath>
            <clipPath clipPathUnits="userSpaceOnUse" id="clipPath39">
                <path d="M989 489 L1231 489 L1231 591 L989 591 L989 489 Z"/>
            </clipPath>
            <clipPath clipPathUnits="userSpaceOnUse" id="clipPath40">
                <path d="M370 970 L370 1069 L610 1069 L610 970 Z"/>
            </clipPath>
            <clipPath clipPathUnits="userSpaceOnUse" id="clipPath41">
                <path d="M446 972 L537 972 L537 989 L446 989 L446 972 Z"/>
            </clipPath>
            <clipPath clipPathUnits="userSpaceOnUse" id="clipPath42">
                <path d="M450 988 L533 988 L533 1005 L450 1005 L450 988 Z"/>
            </clipPath>
            <clipPath clipPathUnits="userSpaceOnUse" id="clipPath43">
                <path d="M370 1005 L612 1005 L612 1071 L370 1071 L370 1005 Z"/>
            </clipPath>
            <clipPath clipPathUnits="userSpaceOnUse" id="clipPath44">
                <path d="M369 969 L612 969 L612 1071 L369 1071 L369 969 Z"/>
            </clipPath>
            <clipPath clipPathUnits="userSpaceOnUse" id="clipPath45">
                <path d="M-1 -1 L1241 -1 L1241 1081 L-1 1081 L-1 -1 Z"/>
            </clipPath>
            <clipPath clipPathUnits="userSpaceOnUse" id="clipPath46">
                <path d="M124 109 L137 109 L137 127 L124 127 L124 109 Z"/>
            </clipPath>
            <clipPath clipPathUnits="userSpaceOnUse" id="clipPath47">
                <path d="M481 589 L500 589 L500 602 L481 602 L481 589 Z"/>
            </clipPath>
            <clipPath clipPathUnits="userSpaceOnUse" id="clipPath48">
                <path d="M301 429 L320 429 L320 442 L301 442 L301 429 Z"/>
            </clipPath>
            <clipPath clipPathUnits="userSpaceOnUse" id="clipPath49">
                <path d="M1104 589 L1117 589 L1117 607 L1104 607 L1104 589 Z"/>
            </clipPath>
            <clipPath clipPathUnits="userSpaceOnUse" id="clipPath50">
                <path d="M661 542 L673 542 L673 559 L661 559 L661 542 Z"/>
            </clipPath>
            <clipPath clipPathUnits="userSpaceOnUse" id="clipPath51">
                <path d="M922 502 L945 502 L945 519 L922 519 L922 502 Z"/>
            </clipPath>
        </defs>
        <g fill="url(#linearGradient1)" stroke-miterlimit="0" stroke-width="0" font-family="'Segoe UI'" stroke="url(#linearGradient1)" stroke-linejoin="round">
            <rect x="190" width="241" height="100" y="330" clip-path="url(#clipPath1)" stroke="none"/>
            <text x="264" y="346" clip-path="url(#clipPath2)" fill="rgb(169,169,169)" font-style="italic" stroke="none" xml:space="preserve">«ReferenceData»</text>
            <text x="269" y="362" clip-path="url(#clipPath3)" fill="rgb(169,169,169)" font-style="italic" stroke="none" xml:space="preserve">TaxonomyNode</text>
            <text fill="black" x="196" xml:space="preserve" y="381" clip-path="url(#clipPath4)" stroke="none">  attributes: DynamicAttributeType [*]</text>
        </g>
        <g stroke-linecap="butt" font-family="'Segoe UI'" stroke-width="1.1">
            <line y2="366" fill="none" x1="190" clip-path="url(#clipPath5)" x2="431" y1="366"/>
            <rect x="190" y="330" clip-path="url(#clipPath6)" fill="none" width="240" rx="0" ry="0" height="99"/>
            <rect x="10" y="10" clip-path="url(#clipPath7)" fill="url(#linearGradient2)" width="241" height="100" stroke="none"/>
            <text x="102" xml:space="preserve" y="26" clip-path="url(#clipPath8)" stroke="none">«Interface»</text>
            <text x="73" xml:space="preserve" y="42" clip-path="url(#clipPath9)" stroke="none">IControlledVocabulary</text>
            <text x="16" xml:space="preserve" y="61" clip-path="url(#clipPath10)" stroke="none">«ReferenceCode»   code: Identifier [1]</text>
            <line y2="46" fill="none" x1="10" clip-path="url(#clipPath11)" x2="251" y1="46"/>
            <rect x="10" y="10" clip-path="url(#clipPath12)" fill="none" width="240" rx="0" ry="0" height="99"/>
            <rect x="190" y="170" clip-path="url(#clipPath13)" fill="url(#linearGradient3)" width="241" height="100" stroke="none"/>
            <text x="267" xml:space="preserve" y="186" clip-path="url(#clipPath14)" stroke="none">«ReferenceData»</text>
            <text x="284" xml:space="preserve" y="202" clip-path="url(#clipPath15)" stroke="none">Taxonomy</text>
            <line y2="206" fill="none" x1="190" clip-path="url(#clipPath16)" x2="431" y1="206"/>
            <rect x="190" y="170" clip-path="url(#clipPath17)" fill="none" width="240" rx="0" ry="0" height="99"/>
            <rect x="370" y="490" clip-path="url(#clipPath18)" fill="url(#linearGradient4)" width="241" height="100" stroke="none"/>
            <text x="444" y="506" clip-path="url(#clipPath19)" fill="rgb(169,169,169)" font-style="italic" stroke="none" xml:space="preserve">«ReferenceData»</text>
            <text x="432" y="522" clip-path="url(#clipPath20)" fill="rgb(169,169,169)" font-style="italic" stroke="none" xml:space="preserve">TaxonomyParentNode</text>
            <line y2="526" fill="none" x1="370" clip-path="url(#clipPath21)" x2="611" y1="526"/>
            <rect x="370" y="490" clip-path="url(#clipPath22)" fill="none" width="240" rx="0" ry="0" height="99"/>
            <rect x="550" y="650" clip-path="url(#clipPath23)" fill="url(#linearGradient5)" width="241" height="100" stroke="none"/>
            <text x="627" xml:space="preserve" y="666" clip-path="url(#clipPath24)" stroke="none">«ReferenceData»</text>
            <text x="616" xml:space="preserve" y="682" clip-path="url(#clipPath25)" stroke="none">TaxonomyRootNode</text>
            <text x="556" xml:space="preserve" y="701" clip-path="url(#clipPath26)" stroke="none">  taxonomy: Taxonomy [1]</text>
            <line y2="686" fill="none" x1="550" clip-path="url(#clipPath27)" x2="791" y1="686"/>
            <rect x="550" y="650" clip-path="url(#clipPath28)" fill="none" width="240" rx="0" ry="0" height="99"/>
            <rect x="550" y="810" clip-path="url(#clipPath29)" fill="url(#linearGradient6)" width="241" height="100" stroke="none"/>
            <text x="627" xml:space="preserve" y="826" clip-path="url(#clipPath30)" stroke="none">«ReferenceData»</text>
            <text x="595" xml:space="preserve" y="842" clip-path="url(#clipPath31)" stroke="none">TaxonomyIntermediateNode</text>
            <line y2="846" fill="none" x1="550" clip-path="url(#clipPath32)" x2="791" y1="846"/>
            <rect x="550" y="810" clip-path="url(#clipPath33)" fill="none" width="240" rx="0" ry="0" height="99"/>
            <rect x="990" y="490" clip-path="url(#clipPath34)" fill="url(#linearGradient7)" width="240" height="100" stroke="none"/>
            <text x="1081" xml:space="preserve" y="506" clip-path="url(#clipPath35)" stroke="none">«Interface»</text>
            <text x="1080" xml:space="preserve" y="522" clip-path="url(#clipPath36)" stroke="none">IChildNode</text>
            <text x="996" xml:space="preserve" y="541" clip-path="url(#clipPath37)" stroke="none">  parentNode: TaxonomyParentNode [1]</text>
            <line y2="526" fill="none" x1="990" clip-path="url(#clipPath38)" x2="1230" y1="526"/>
            <rect x="990" y="490" clip-path="url(#clipPath39)" fill="none" width="239" rx="0" ry="0" height="99"/>
            <rect x="370" y="970" clip-path="url(#clipPath40)" fill="url(#linearGradient8)" width="241" height="100" stroke="none"/>
            <text x="447" xml:space="preserve" y="986" clip-path="url(#clipPath41)" stroke="none">«ReferenceData»</text>
            <text x="451" xml:space="preserve" y="1002" clip-path="url(#clipPath42)" stroke="none">TaxonomyTerm</text>
            <line y2="1006" fill="none" x1="370" clip-path="url(#clipPath43)" x2="611" y1="1006"/>
            <rect x="370" y="970" clip-path="url(#clipPath44)" fill="none" width="240" rx="0" ry="0" height="99"/>
            <line clip-path="url(#clipPath45)" fill="none" text-rendering="optimizeLegibility" x1="190" x2="130" y1="370" y2="370" stroke-dasharray="5,5,5,5,5,5,5,5,5,5"/>
            <line clip-path="url(#clipPath45)" fill="none" text-rendering="optimizeLegibility" x1="130" x2="130" y1="370" y2="110" stroke-dasharray="5,5,5,5,5,5,5,5,5,5"/>
        </g>
        <g stroke-linecap="butt" fill="white" text-rendering="optimizeLegibility" font-family="'Segoe UI'" stroke-dasharray="5,5,5,5,5,5,5,5,5,5" stroke="white" stroke-width="1.1">
            <polygon points=" 130 110 135 125 125 125" stroke="none" clip-path="url(#clipPath46)"/>
            <polygon fill="none" stroke-dasharray="none" clip-path="url(#clipPath46)" points=" 130 110 135 125 125 125" stroke="black"/>
            <line clip-path="url(#clipPath45)" fill="none" x1="190" x2="130" y1="210" y2="210" stroke="black"/>
            <line clip-path="url(#clipPath45)" fill="none" x1="130" x2="130" y1="210" y2="110" stroke="black"/>
            <polygon points=" 130 110 135 125 125 125" clip-path="url(#clipPath46)" stroke="none"/>
            <polygon fill="none" stroke-dasharray="none" clip-path="url(#clipPath46)" points=" 130 110 135 125 125 125" stroke="black"/>
            <line clip-path="url(#clipPath45)" fill="none" x1="550" x2="490" y1="690" y2="690" stroke-dasharray="none" stroke="black"/>
            <line clip-path="url(#clipPath45)" fill="none" x1="490" x2="490" y1="690" y2="590" stroke-dasharray="none" stroke="black"/>
            <polygon stroke-dasharray="none" clip-path="url(#clipPath47)" points=" 490 590 498 600 482 600" stroke="none"/>
            <polygon fill="none" stroke-dasharray="none" clip-path="url(#clipPath47)" points=" 490 590 498 600 482 600" stroke="black"/>
            <line clip-path="url(#clipPath45)" fill="none" x1="550" x2="490" y1="850" y2="850" stroke-dasharray="none" stroke="black"/>
            <line clip-path="url(#clipPath45)" fill="none" x1="490" x2="490" y1="850" y2="590" stroke-dasharray="none" stroke="black"/>
            <polygon stroke-dasharray="none" clip-path="url(#clipPath47)" points=" 490 590 498 600 482 600" stroke="none"/>
            <polygon fill="none" stroke-dasharray="none" clip-path="url(#clipPath47)" points=" 490 590 498 600 482 600" stroke="black"/>
            <line clip-path="url(#clipPath45)" fill="none" x1="370" x2="310" y1="530" y2="530" stroke-dasharray="none" stroke="black"/>
            <line clip-path="url(#clipPath45)" fill="none" x1="310" x2="310" y1="530" y2="430" stroke-dasharray="none" stroke="black"/>
            <polygon stroke-dasharray="none" clip-path="url(#clipPath48)" points=" 310 430 318 440 302 440" stroke="none"/>
            <polygon fill="none" stroke-dasharray="none" clip-path="url(#clipPath48)" points=" 310 430 318 440 302 440" stroke="black"/>
            <line clip-path="url(#clipPath45)" fill="none" x1="370" x2="310" y1="1010" y2="1010" stroke-dasharray="none" stroke="black"/>
            <line clip-path="url(#clipPath45)" fill="none" x1="310" x2="310" y1="1010" y2="430" stroke-dasharray="none" stroke="black"/>
            <polygon stroke-dasharray="none" clip-path="url(#clipPath48)" points=" 310 430 318 440 302 440" stroke="none"/>
            <polygon fill="none" stroke-dasharray="none" clip-path="url(#clipPath48)" points=" 310 430 318 440 302 440" stroke="black"/>
            <line clip-path="url(#clipPath45)" fill="none" x1="611" x2="1110" y1="1010" y2="1010" stroke="black"/>
            <line clip-path="url(#clipPath45)" fill="none" x1="1110" x2="1110" y1="1010" y2="590" stroke="black"/>
            <polygon points=" 1110 590 1115 605 1105 605" clip-path="url(#clipPath49)" stroke="none"/>
            <polygon fill="none" stroke-dasharray="none" clip-path="url(#clipPath49)" points=" 1110 590 1115 605 1105 605" stroke="black"/>
            <line clip-path="url(#clipPath45)" fill="none" x1="791" x2="1110" y1="850" y2="850" stroke="black"/>
            <line clip-path="url(#clipPath45)" fill="none" x1="1110" x2="1110" y1="850" y2="590" stroke="black"/>
            <polygon points=" 1110 590 1115 605 1105 605" clip-path="url(#clipPath49)" stroke="none"/>
            <polygon fill="none" stroke-dasharray="none" clip-path="url(#clipPath49)" points=" 1110 590 1115 605 1105 605" stroke="black"/>
            <line clip-path="url(#clipPath45)" fill="none" x1="611" x2="990" y1="530" y2="530" stroke-dasharray="none" stroke="black"/>
            <text x="662" y="556" clip-path="url(#clipPath50)" fill="black" stroke-dasharray="none" stroke="none" xml:space="preserve"> 1</text>
            <text x="923" y="516" clip-path="url(#clipPath51)" fill="black" stroke-dasharray="none" stroke="none" xml:space="preserve"> 1..*</text>
        </g>
    </g>
</svg>
