<?xml version="1.0" encoding="UTF-8"?><svg xmlns="http://www.w3.org/2000/svg" xmlns:xlink="http://www.w3.org/1999/xlink" stroke-dasharray="none" shape-rendering="auto" font-family="'Dialog'" width="2460" text-rendering="auto" fill-opacity="1" contentScriptType="text/ecmascript" color-interpolation="auto" color-rendering="auto" preserveAspectRatio="xMidYMid meet" font-size="12px" viewBox="0 0 2460 1080" fill="black" stroke="black" image-rendering="auto" stroke-miterlimit="10" zoomAndPan="magnify" version="1.0" stroke-linecap="square" stroke-linejoin="miter" contentStyleType="text/css" font-style="normal" height="1080" stroke-width="1" stroke-dashoffset="0" font-weight="normal" stroke-opacity="1">
    <!--Generated by the Batik Graphics2D SVG Generator-->
    <defs id="genericDefs"/>
    <g>
        <defs id="defs1">
            <linearGradient x1="390" x2="390" y1="450" gradientUnits="userSpaceOnUse" y2="550" xlink:type="simple" xlink:actuate="onLoad" id="linearGradient1" xlink:show="other" spreadMethod="pad">
                <stop stop-opacity="1" stop-color="white" offset="0%"/>
                <stop stop-opacity="1" stop-color="rgb(195,215,221)" offset="100%"/>
            </linearGradient>
            <linearGradient x1="1330" x2="1330" y1="90" gradientUnits="userSpaceOnUse" y2="190" xlink:type="simple" xlink:actuate="onLoad" id="linearGradient2" xlink:show="other" spreadMethod="pad">
                <stop stop-opacity="1" stop-color="white" offset="0%"/>
                <stop stop-opacity="1" stop-color="rgb(195,215,221)" offset="100%"/>
            </linearGradient>
            <linearGradient x1="950" x2="950" y1="230" gradientUnits="userSpaceOnUse" y2="344" xlink:type="simple" xlink:actuate="onLoad" id="linearGradient3" xlink:show="other" spreadMethod="pad">
                <stop stop-opacity="1" stop-color="white" offset="0%"/>
                <stop stop-opacity="1" stop-color="rgb(195,209,213)" offset="100%"/>
            </linearGradient>
            <linearGradient x1="170" x2="170" y1="650" gradientUnits="userSpaceOnUse" y2="750" xlink:type="simple" xlink:actuate="onLoad" id="linearGradient4" xlink:show="other" spreadMethod="pad">
                <stop stop-opacity="1" stop-color="white" offset="0%"/>
                <stop stop-opacity="1" stop-color="rgb(131,135,205)" offset="100%"/>
            </linearGradient>
            <linearGradient x1="350" x2="350" y1="810" gradientUnits="userSpaceOnUse" y2="910" xlink:type="simple" xlink:actuate="onLoad" id="linearGradient5" xlink:show="other" spreadMethod="pad">
                <stop stop-opacity="1" stop-color="white" offset="0%"/>
                <stop stop-opacity="1" stop-color="rgb(195,167,173)" offset="100%"/>
            </linearGradient>
            <linearGradient x1="350" x2="350" y1="970" gradientUnits="userSpaceOnUse" y2="1070" xlink:type="simple" xlink:actuate="onLoad" id="linearGradient6" xlink:show="other" spreadMethod="pad">
                <stop stop-opacity="1" stop-color="white" offset="0%"/>
                <stop stop-opacity="1" stop-color="rgb(195,167,173)" offset="100%"/>
            </linearGradient>
            <linearGradient x1="570" x2="570" y1="90" gradientUnits="userSpaceOnUse" y2="220" xlink:type="simple" xlink:actuate="onLoad" id="linearGradient7" xlink:show="other" spreadMethod="pad">
                <stop stop-opacity="1" stop-color="white" offset="0%"/>
                <stop stop-opacity="1" stop-color="rgb(195,215,221)" offset="100%"/>
            </linearGradient>
            <linearGradient x1="390" x2="390" y1="290" gradientUnits="userSpaceOnUse" y2="390" xlink:type="simple" xlink:actuate="onLoad" id="linearGradient8" xlink:show="other" spreadMethod="pad">
                <stop stop-opacity="1" stop-color="white" offset="0%"/>
                <stop stop-opacity="1" stop-color="rgb(195,215,221)" offset="100%"/>
            </linearGradient>
            <linearGradient x1="10" x2="10" y1="90" gradientUnits="userSpaceOnUse" y2="190" xlink:type="simple" xlink:actuate="onLoad" id="linearGradient9" xlink:show="other" spreadMethod="pad">
                <stop stop-opacity="1" stop-color="white" offset="0%"/>
                <stop stop-opacity="1" stop-color="rgb(195,167,173)" offset="100%"/>
            </linearGradient>
            <linearGradient x1="1850" x2="1850" y1="90" gradientUnits="userSpaceOnUse" y2="190" xlink:type="simple" xlink:actuate="onLoad" id="linearGradient10" xlink:show="other" spreadMethod="pad">
                <stop stop-opacity="1" stop-color="white" offset="0%"/>
                <stop stop-opacity="1" stop-color="rgb(179,215,189)" offset="100%"/>
            </linearGradient>
            <linearGradient x1="2030" x2="2030" y1="250" gradientUnits="userSpaceOnUse" y2="364" xlink:type="simple" xlink:actuate="onLoad" id="linearGradient11" xlink:show="other" spreadMethod="pad">
                <stop stop-opacity="1" stop-color="white" offset="0%"/>
                <stop stop-opacity="1" stop-color="rgb(163,199,173)" offset="100%"/>
            </linearGradient>
            <linearGradient x1="2030" x2="2030" y1="430" gradientUnits="userSpaceOnUse" y2="530" xlink:type="simple" xlink:actuate="onLoad" id="linearGradient12" xlink:show="other" spreadMethod="pad">
                <stop stop-opacity="1" stop-color="white" offset="0%"/>
                <stop stop-opacity="1" stop-color="rgb(179,215,189)" offset="100%"/>
            </linearGradient>
            <linearGradient x1="2210" x2="2210" y1="590" gradientUnits="userSpaceOnUse" y2="704" xlink:type="simple" xlink:actuate="onLoad" id="linearGradient13" xlink:show="other" spreadMethod="pad">
                <stop stop-opacity="1" stop-color="white" offset="0%"/>
                <stop stop-opacity="1" stop-color="rgb(163,199,173)" offset="100%"/>
            </linearGradient>
            <linearGradient x1="2210" x2="2210" y1="770" gradientUnits="userSpaceOnUse" y2="870" xlink:type="simple" xlink:actuate="onLoad" id="linearGradient14" xlink:show="other" spreadMethod="pad">
                <stop stop-opacity="1" stop-color="white" offset="0%"/>
                <stop stop-opacity="1" stop-color="rgb(163,199,173)" offset="100%"/>
            </linearGradient>
            <linearGradient x1="1330" x2="1330" y1="450" gradientUnits="userSpaceOnUse" y2="550" xlink:type="simple" xlink:actuate="onLoad" id="linearGradient15" xlink:show="other" spreadMethod="pad">
                <stop stop-opacity="1" stop-color="white" offset="0%"/>
                <stop stop-opacity="1" stop-color="rgb(195,215,221)" offset="100%"/>
            </linearGradient>
            <linearGradient x1="1850" x2="1850" y1="930" gradientUnits="userSpaceOnUse" y2="1030" xlink:type="simple" xlink:actuate="onLoad" id="linearGradient16" xlink:show="other" spreadMethod="pad">
                <stop stop-opacity="1" stop-color="white" offset="0%"/>
                <stop stop-opacity="1" stop-color="rgb(163,199,173)" offset="100%"/>
            </linearGradient>
            <clipPath clipPathUnits="userSpaceOnUse" id="clipPath1">
                <path d="M390 450 L390 549 L630 549 L630 450 Z"/>
            </clipPath>
            <clipPath clipPathUnits="userSpaceOnUse" id="clipPath2">
                <path d="M467 452 L556 452 L556 469 L467 469 L467 452 Z"/>
            </clipPath>
            <clipPath clipPathUnits="userSpaceOnUse" id="clipPath3">
                <path d="M390 469 L632 469 L632 551 L390 551 L390 469 Z"/>
            </clipPath>
            <clipPath clipPathUnits="userSpaceOnUse" id="clipPath4">
                <path d="M389 449 L632 449 L632 551 L389 551 L389 449 Z"/>
            </clipPath>
            <clipPath clipPathUnits="userSpaceOnUse" id="clipPath5">
                <path d="M1330 90 L1330 189 L1570 189 L1570 90 Z"/>
            </clipPath>
            <clipPath clipPathUnits="userSpaceOnUse" id="clipPath6">
                <path d="M1424 92 L1479 92 L1479 109 L1424 109 L1424 92 Z"/>
            </clipPath>
            <clipPath clipPathUnits="userSpaceOnUse" id="clipPath7">
                <path d="M1335 111 L1536 111 L1536 128 L1335 128 L1335 111 Z"/>
            </clipPath>
            <clipPath clipPathUnits="userSpaceOnUse" id="clipPath8">
                <path d="M1330 109 L1572 109 L1572 191 L1330 191 L1330 109 Z"/>
            </clipPath>
            <clipPath clipPathUnits="userSpaceOnUse" id="clipPath9">
                <path d="M1329 89 L1572 89 L1572 191 L1329 191 L1329 89 Z"/>
            </clipPath>
            <clipPath clipPathUnits="userSpaceOnUse" id="clipPath10">
                <path d="M950 230 L950 343 L1190 343 L1190 230 Z"/>
            </clipPath>
            <clipPath clipPathUnits="userSpaceOnUse" id="clipPath11">
                <path d="M1061 232 L1082 232 L1082 249 L1061 249 L1061 232 Z"/>
            </clipPath>
            <clipPath clipPathUnits="userSpaceOnUse" id="clipPath12">
                <path d="M955 251 L1036 251 L1036 268 L955 268 L955 251 Z"/>
            </clipPath>
            <clipPath clipPathUnits="userSpaceOnUse" id="clipPath13">
                <path d="M955 267 L1060 267 L1060 284 L955 284 L955 267 Z"/>
            </clipPath>
            <clipPath clipPathUnits="userSpaceOnUse" id="clipPath14">
                <path d="M955 283 L1101 283 L1101 300 L955 300 L955 283 Z"/>
            </clipPath>
            <clipPath clipPathUnits="userSpaceOnUse" id="clipPath15">
                <path d="M950 249 L1192 249 L1192 345 L950 345 L950 249 Z"/>
            </clipPath>
            <clipPath clipPathUnits="userSpaceOnUse" id="clipPath16">
                <path d="M949 229 L1192 229 L1192 345 L949 345 L949 229 Z"/>
            </clipPath>
            <clipPath clipPathUnits="userSpaceOnUse" id="clipPath17">
                <path d="M170 650 L170 749 L409 749 L409 650 Z"/>
            </clipPath>
            <clipPath clipPathUnits="userSpaceOnUse" id="clipPath18">
                <path d="M260 652 L321 652 L321 669 L260 669 L260 652 Z"/>
            </clipPath>
            <clipPath clipPathUnits="userSpaceOnUse" id="clipPath19">
                <path d="M231 668 L350 668 L350 685 L231 685 L231 668 Z"/>
            </clipPath>
            <clipPath clipPathUnits="userSpaceOnUse" id="clipPath20">
                <path d="M175 687 L374 687 L374 704 L175 704 L175 687 Z"/>
            </clipPath>
            <clipPath clipPathUnits="userSpaceOnUse" id="clipPath21">
                <path d="M170 685 L411 685 L411 751 L170 751 L170 685 Z"/>
            </clipPath>
            <clipPath clipPathUnits="userSpaceOnUse" id="clipPath22">
                <path d="M169 649 L411 649 L411 751 L169 751 L169 649 Z"/>
            </clipPath>
            <clipPath clipPathUnits="userSpaceOnUse" id="clipPath23">
                <path d="M350 810 L350 909 L589 909 L589 810 Z"/>
            </clipPath>
            <clipPath clipPathUnits="userSpaceOnUse" id="clipPath24">
                <path d="M425 812 L516 812 L516 829 L425 829 L425 812 Z"/>
            </clipPath>
            <clipPath clipPathUnits="userSpaceOnUse" id="clipPath25">
                <path d="M454 828 L488 828 L488 845 L454 845 L454 828 Z"/>
            </clipPath>
            <clipPath clipPathUnits="userSpaceOnUse" id="clipPath26">
                <path d="M350 845 L591 845 L591 911 L350 911 L350 845 Z"/>
            </clipPath>
            <clipPath clipPathUnits="userSpaceOnUse" id="clipPath27">
                <path d="M349 809 L591 809 L591 911 L349 911 L349 809 Z"/>
            </clipPath>
            <clipPath clipPathUnits="userSpaceOnUse" id="clipPath28">
                <path d="M350 970 L350 1069 L589 1069 L589 970 Z"/>
            </clipPath>
            <clipPath clipPathUnits="userSpaceOnUse" id="clipPath29">
                <path d="M425 972 L516 972 L516 989 L425 989 L425 972 Z"/>
            </clipPath>
            <clipPath clipPathUnits="userSpaceOnUse" id="clipPath30">
                <path d="M443 988 L498 988 L498 1005 L443 1005 L443 988 Z"/>
            </clipPath>
            <clipPath clipPathUnits="userSpaceOnUse" id="clipPath31">
                <path d="M350 1005 L591 1005 L591 1071 L350 1071 L350 1005 Z"/>
            </clipPath>
            <clipPath clipPathUnits="userSpaceOnUse" id="clipPath32">
                <path d="M349 969 L591 969 L591 1071 L349 1071 L349 969 Z"/>
            </clipPath>
            <clipPath clipPathUnits="userSpaceOnUse" id="clipPath33">
                <path d="M570 90 L570 219 L809 219 L809 90 Z"/>
            </clipPath>
            <clipPath clipPathUnits="userSpaceOnUse" id="clipPath34">
                <path d="M668 92 L713 92 L713 109 L668 109 L668 92 Z"/>
            </clipPath>
            <clipPath clipPathUnits="userSpaceOnUse" id="clipPath35">
                <path d="M575 111 L786 111 L786 128 L575 128 L575 111 Z"/>
            </clipPath>
            <clipPath clipPathUnits="userSpaceOnUse" id="clipPath36">
                <path d="M575 127 L667 127 L667 144 L575 144 L575 127 Z"/>
            </clipPath>
            <clipPath clipPathUnits="userSpaceOnUse" id="clipPath37">
                <path d="M575 143 L711 143 L711 160 L575 160 L575 143 Z"/>
            </clipPath>
            <clipPath clipPathUnits="userSpaceOnUse" id="clipPath38">
                <path d="M575 159 L657 159 L657 176 L575 176 L575 159 Z"/>
            </clipPath>
            <clipPath clipPathUnits="userSpaceOnUse" id="clipPath39">
                <path d="M570 109 L811 109 L811 221 L570 221 L570 109 Z"/>
            </clipPath>
            <clipPath clipPathUnits="userSpaceOnUse" id="clipPath40">
                <path d="M569 89 L811 89 L811 221 L569 221 L569 89 Z"/>
            </clipPath>
            <clipPath clipPathUnits="userSpaceOnUse" id="clipPath41">
                <path d="M390 290 L390 389 L629 389 L629 290 Z"/>
            </clipPath>
            <clipPath clipPathUnits="userSpaceOnUse" id="clipPath42">
                <path d="M470 292 L551 292 L551 309 L470 309 L470 292 Z"/>
            </clipPath>
            <clipPath clipPathUnits="userSpaceOnUse" id="clipPath43">
                <path d="M395 311 L560 311 L560 328 L395 328 L395 311 Z"/>
            </clipPath>
            <clipPath clipPathUnits="userSpaceOnUse" id="clipPath44">
                <path d="M390 309 L631 309 L631 391 L390 391 L390 309 Z"/>
            </clipPath>
            <clipPath clipPathUnits="userSpaceOnUse" id="clipPath45">
                <path d="M389 289 L631 289 L631 391 L389 391 L389 289 Z"/>
            </clipPath>
            <clipPath clipPathUnits="userSpaceOnUse" id="clipPath46">
                <path d="M10 90 L10 189 L249 189 L249 90 Z"/>
            </clipPath>
            <clipPath clipPathUnits="userSpaceOnUse" id="clipPath47">
                <path d="M85 92 L176 92 L176 109 L85 109 L85 92 Z"/>
            </clipPath>
            <clipPath clipPathUnits="userSpaceOnUse" id="clipPath48">
                <path d="M100 108 L162 108 L162 125 L100 125 L100 108 Z"/>
            </clipPath>
            <clipPath clipPathUnits="userSpaceOnUse" id="clipPath49">
                <path d="M15 127 L237 127 L237 144 L15 144 L15 127 Z"/>
            </clipPath>
            <clipPath clipPathUnits="userSpaceOnUse" id="clipPath50">
                <path d="M10 125 L251 125 L251 191 L10 191 L10 125 Z"/>
            </clipPath>
            <clipPath clipPathUnits="userSpaceOnUse" id="clipPath51">
                <path d="M9 89 L251 89 L251 191 L9 191 L9 89 Z"/>
            </clipPath>
            <clipPath clipPathUnits="userSpaceOnUse" id="clipPath52">
                <path d="M1850 90 L1850 189 L2089 189 L2089 90 Z"/>
            </clipPath>
            <clipPath clipPathUnits="userSpaceOnUse" id="clipPath53">
                <path d="M1936 92 L2006 92 L2006 109 L1936 109 L1936 92 Z"/>
            </clipPath>
            <clipPath clipPathUnits="userSpaceOnUse" id="clipPath54">
                <path d="M1929 108 L2013 108 L2013 125 L1929 125 L1929 108 Z"/>
            </clipPath>
            <clipPath clipPathUnits="userSpaceOnUse" id="clipPath55">
                <path d="M1855 127 L1979 127 L1979 144 L1855 144 L1855 127 Z"/>
            </clipPath>
            <clipPath clipPathUnits="userSpaceOnUse" id="clipPath56">
                <path d="M1855 143 L1966 143 L1966 160 L1855 160 L1855 143 Z"/>
            </clipPath>
            <clipPath clipPathUnits="userSpaceOnUse" id="clipPath57">
                <path d="M1850 125 L2091 125 L2091 191 L1850 191 L1850 125 Z"/>
            </clipPath>
            <clipPath clipPathUnits="userSpaceOnUse" id="clipPath58">
                <path d="M1849 89 L2091 89 L2091 191 L1849 191 L1849 89 Z"/>
            </clipPath>
            <clipPath clipPathUnits="userSpaceOnUse" id="clipPath59">
                <path d="M2030 250 L2030 363 L2269 363 L2269 250 Z"/>
            </clipPath>
            <clipPath clipPathUnits="userSpaceOnUse" id="clipPath60">
                <path d="M2119 252 L2182 252 L2182 269 L2119 269 L2119 252 Z"/>
            </clipPath>
            <clipPath clipPathUnits="userSpaceOnUse" id="clipPath61">
                <path d="M2109 268 L2193 268 L2193 285 L2109 285 L2109 268 Z"/>
            </clipPath>
            <clipPath clipPathUnits="userSpaceOnUse" id="clipPath62">
                <path d="M2035 287 L2117 287 L2117 304 L2035 304 L2035 287 Z"/>
            </clipPath>
            <clipPath clipPathUnits="userSpaceOnUse" id="clipPath63">
                <path d="M2035 303 L2176 303 L2176 320 L2035 320 L2035 303 Z"/>
            </clipPath>
            <clipPath clipPathUnits="userSpaceOnUse" id="clipPath64">
                <path d="M2035 319 L2198 319 L2198 336 L2035 336 L2035 319 Z"/>
            </clipPath>
            <clipPath clipPathUnits="userSpaceOnUse" id="clipPath65">
                <path d="M2030 285 L2271 285 L2271 365 L2030 365 L2030 285 Z"/>
            </clipPath>
            <clipPath clipPathUnits="userSpaceOnUse" id="clipPath66">
                <path d="M2029 249 L2271 249 L2271 365 L2029 365 L2029 249 Z"/>
            </clipPath>
            <clipPath clipPathUnits="userSpaceOnUse" id="clipPath67">
                <path d="M2030 430 L2030 529 L2269 529 L2269 430 Z"/>
            </clipPath>
            <clipPath clipPathUnits="userSpaceOnUse" id="clipPath68">
                <path d="M2116 432 L2186 432 L2186 449 L2116 449 L2116 432 Z"/>
            </clipPath>
            <clipPath clipPathUnits="userSpaceOnUse" id="clipPath69">
                <path d="M2093 448 L2209 448 L2209 465 L2093 465 L2093 448 Z"/>
            </clipPath>
            <clipPath clipPathUnits="userSpaceOnUse" id="clipPath70">
                <path d="M2030 465 L2271 465 L2271 531 L2030 531 L2030 465 Z"/>
            </clipPath>
            <clipPath clipPathUnits="userSpaceOnUse" id="clipPath71">
                <path d="M2029 429 L2271 429 L2271 531 L2029 531 L2029 429 Z"/>
            </clipPath>
            <clipPath clipPathUnits="userSpaceOnUse" id="clipPath72">
                <path d="M2210 590 L2210 703 L2449 703 L2449 590 Z"/>
            </clipPath>
            <clipPath clipPathUnits="userSpaceOnUse" id="clipPath73">
                <path d="M2299 592 L2362 592 L2362 609 L2299 609 L2299 592 Z"/>
            </clipPath>
            <clipPath clipPathUnits="userSpaceOnUse" id="clipPath74">
                <path d="M2297 608 L2365 608 L2365 625 L2297 625 L2297 608 Z"/>
            </clipPath>
            <clipPath clipPathUnits="userSpaceOnUse" id="clipPath75">
                <path d="M2215 627 L2368 627 L2368 644 L2215 644 L2215 627 Z"/>
            </clipPath>
            <clipPath clipPathUnits="userSpaceOnUse" id="clipPath76">
                <path d="M2215 643 L2358 643 L2358 660 L2215 660 L2215 643 Z"/>
            </clipPath>
            <clipPath clipPathUnits="userSpaceOnUse" id="clipPath77">
                <path d="M2215 659 L2375 659 L2375 676 L2215 676 L2215 659 Z"/>
            </clipPath>
            <clipPath clipPathUnits="userSpaceOnUse" id="clipPath78">
                <path d="M2210 625 L2451 625 L2451 705 L2210 705 L2210 625 Z"/>
            </clipPath>
            <clipPath clipPathUnits="userSpaceOnUse" id="clipPath79">
                <path d="M2209 589 L2451 589 L2451 705 L2209 705 L2209 589 Z"/>
            </clipPath>
            <clipPath clipPathUnits="userSpaceOnUse" id="clipPath80">
                <path d="M2210 770 L2210 869 L2449 869 L2449 770 Z"/>
            </clipPath>
            <clipPath clipPathUnits="userSpaceOnUse" id="clipPath81">
                <path d="M2299 772 L2362 772 L2362 789 L2299 789 L2299 772 Z"/>
            </clipPath>
            <clipPath clipPathUnits="userSpaceOnUse" id="clipPath82">
                <path d="M2273 788 L2389 788 L2389 805 L2273 805 L2273 788 Z"/>
            </clipPath>
            <clipPath clipPathUnits="userSpaceOnUse" id="clipPath83">
                <path d="M2215 807 L2366 807 L2366 824 L2215 824 L2215 807 Z"/>
            </clipPath>
            <clipPath clipPathUnits="userSpaceOnUse" id="clipPath84">
                <path d="M2210 805 L2451 805 L2451 871 L2210 871 L2210 805 Z"/>
            </clipPath>
            <clipPath clipPathUnits="userSpaceOnUse" id="clipPath85">
                <path d="M2209 769 L2451 769 L2451 871 L2209 871 L2209 769 Z"/>
            </clipPath>
            <clipPath clipPathUnits="userSpaceOnUse" id="clipPath86">
                <path d="M1330 450 L1330 549 L1569 549 L1569 450 Z"/>
            </clipPath>
            <clipPath clipPathUnits="userSpaceOnUse" id="clipPath87">
                <path d="M1416 452 L1486 452 L1486 469 L1416 469 L1416 452 Z"/>
            </clipPath>
            <clipPath clipPathUnits="userSpaceOnUse" id="clipPath88">
                <path d="M1335 471 L1459 471 L1459 488 L1335 488 L1335 471 Z"/>
            </clipPath>
            <clipPath clipPathUnits="userSpaceOnUse" id="clipPath89">
                <path d="M1335 487 L1446 487 L1446 504 L1335 504 L1335 487 Z"/>
            </clipPath>
            <clipPath clipPathUnits="userSpaceOnUse" id="clipPath90">
                <path d="M1330 469 L1571 469 L1571 551 L1330 551 L1330 469 Z"/>
            </clipPath>
            <clipPath clipPathUnits="userSpaceOnUse" id="clipPath91">
                <path d="M1329 449 L1571 449 L1571 551 L1329 551 L1329 449 Z"/>
            </clipPath>
            <clipPath clipPathUnits="userSpaceOnUse" id="clipPath92">
                <path d="M1850 930 L1850 1029 L2089 1029 L2089 930 Z"/>
            </clipPath>
            <clipPath clipPathUnits="userSpaceOnUse" id="clipPath93">
                <path d="M1939 932 L2002 932 L2002 949 L1939 949 L1939 932 Z"/>
            </clipPath>
            <clipPath clipPathUnits="userSpaceOnUse" id="clipPath94">
                <path d="M1938 948 L2003 948 L2003 965 L1938 965 L1938 948 Z"/>
            </clipPath>
            <clipPath clipPathUnits="userSpaceOnUse" id="clipPath95">
                <path d="M1855 967 L2002 967 L2002 984 L1855 984 L1855 967 Z"/>
            </clipPath>
            <clipPath clipPathUnits="userSpaceOnUse" id="clipPath96">
                <path d="M1855 983 L1994 983 L1994 1000 L1855 1000 L1855 983 Z"/>
            </clipPath>
            <clipPath clipPathUnits="userSpaceOnUse" id="clipPath97">
                <path d="M1850 965 L2091 965 L2091 1031 L1850 1031 L1850 965 Z"/>
            </clipPath>
            <clipPath clipPathUnits="userSpaceOnUse" id="clipPath98">
                <path d="M1849 929 L2091 929 L2091 1031 L1849 1031 L1849 929 Z"/>
            </clipPath>
            <clipPath clipPathUnits="userSpaceOnUse" id="clipPath99">
                <path d="M-1 -1 L2461 -1 L2461 1081 L-1 1081 L-1 -1 Z"/>
            </clipPath>
            <clipPath clipPathUnits="userSpaceOnUse" id="clipPath100">
                <path d="M681 219 L700 219 L700 232 L681 232 L681 219 Z"/>
            </clipPath>
            <clipPath clipPathUnits="userSpaceOnUse" id="clipPath101">
                <path d="M680 219 L699 219 L699 232 L680 232 L680 219 Z"/>
            </clipPath>
            <clipPath clipPathUnits="userSpaceOnUse" id="clipPath102">
                <path d="M369 469 L380 469 L380 486 L369 486 L369 469 Z"/>
            </clipPath>
            <clipPath clipPathUnits="userSpaceOnUse" id="clipPath103">
                <path d="M549 149 L561 149 L561 166 L549 166 L549 149 Z"/>
            </clipPath>
            <clipPath clipPathUnits="userSpaceOnUse" id="clipPath104">
                <path d="M369 109 L443 109 L443 126 L369 126 L369 109 Z"/>
            </clipPath>
            <clipPath clipPathUnits="userSpaceOnUse" id="clipPath105">
                <path d="M249 124 L267 124 L267 137 L249 137 L249 124 Z"/>
            </clipPath>
            <clipPath clipPathUnits="userSpaceOnUse" id="clipPath106">
                <path d="M284 749 L297 749 L297 767 L284 767 L284 749 Z"/>
            </clipPath>
            <clipPath clipPathUnits="userSpaceOnUse" id="clipPath107">
                <path d="M1961 189 L1980 189 L1980 202 L1961 202 L1961 189 Z"/>
            </clipPath>
            <clipPath clipPathUnits="userSpaceOnUse" id="clipPath108">
                <path d="M2141 529 L2160 529 L2160 542 L2141 542 L2141 529 Z"/>
            </clipPath>
            <clipPath clipPathUnits="userSpaceOnUse" id="clipPath109">
                <path d="M1429 204 L1441 204 L1441 221 L1429 221 L1429 204 Z"/>
            </clipPath>
            <clipPath clipPathUnits="userSpaceOnUse" id="clipPath110">
                <path d="M1469 409 L1492 409 L1492 426 L1469 426 L1469 409 Z"/>
            </clipPath>
        </defs>
        <g fill="url(#linearGradient1)" stroke-miterlimit="0" stroke-width="0" font-family="'Segoe UI'" stroke="url(#linearGradient1)" stroke-linejoin="round">
            <rect x="390" width="241" height="100" y="450" clip-path="url(#clipPath1)" stroke="none"/>
            <text fill="black" x="468" xml:space="preserve" y="466" clip-path="url(#clipPath2)" stroke="none">MangedPosition</text>
        </g>
        <g stroke-linecap="butt" font-family="'Segoe UI'" stroke-width="1.1">
            <line y2="470" fill="none" x1="390" clip-path="url(#clipPath3)" x2="631" y1="470"/>
            <rect x="390" y="450" clip-path="url(#clipPath4)" fill="none" width="240" rx="0" ry="0" height="99"/>
            <rect x="1330" y="90" clip-path="url(#clipPath5)" fill="url(#linearGradient2)" width="241" height="100" stroke="none"/>
            <text x="1425" xml:space="preserve" y="106" clip-path="url(#clipPath6)" stroke="none">Employee</text>
            <text x="1336" xml:space="preserve" y="125" clip-path="url(#clipPath7)" stroke="none">  employeeHistory: EmployeeEvent [*]</text>
            <line y2="110" fill="none" x1="1330" clip-path="url(#clipPath8)" x2="1571" y1="110"/>
            <rect x="1330" y="90" clip-path="url(#clipPath9)" fill="none" width="240" rx="0" ry="0" height="99"/>
            <rect x="950" y="230" clip-path="url(#clipPath10)" fill="url(#linearGradient3)" width="241" height="114" stroke="none"/>
            <text x="1062" xml:space="preserve" y="246" clip-path="url(#clipPath11)" stroke="none">Job</text>
            <text x="956" xml:space="preserve" y="265" clip-path="url(#clipPath12)" stroke="none">  from: Date [1]</text>
            <text x="956" xml:space="preserve" y="281" clip-path="url(#clipPath13)" stroke="none">  allocation: Real [1]</text>
            <text x="956" xml:space="preserve" y="297" clip-path="url(#clipPath14)" stroke="none">  funding: JobFunding [1..*]</text>
            <line y2="250" fill="none" x1="950" clip-path="url(#clipPath15)" x2="1191" y1="250"/>
            <rect x="950" y="230" clip-path="url(#clipPath16)" fill="none" width="240" rx="0" ry="0" height="113"/>
            <rect x="170" y="650" clip-path="url(#clipPath17)" fill="url(#linearGradient4)" width="240" height="100" stroke="none"/>
            <text x="261" xml:space="preserve" y="666" clip-path="url(#clipPath18)" stroke="none">«Interface»</text>
            <text x="232" xml:space="preserve" y="682" clip-path="url(#clipPath19)" stroke="none">IControlledVocabulary</text>
            <text x="176" xml:space="preserve" y="701" clip-path="url(#clipPath20)" stroke="none">«ReferenceCode»   code: Identifier [1]</text>
            <line y2="686" fill="none" x1="170" clip-path="url(#clipPath21)" x2="410" y1="686"/>
            <rect x="170" y="650" clip-path="url(#clipPath22)" fill="none" width="239" rx="0" ry="0" height="99"/>
            <rect x="350" y="810" clip-path="url(#clipPath23)" fill="url(#linearGradient5)" width="240" height="100" stroke="none"/>
            <text x="426" xml:space="preserve" y="826" clip-path="url(#clipPath24)" stroke="none">«ReferenceData»</text>
            <text x="455" xml:space="preserve" y="842" clip-path="url(#clipPath25)" stroke="none">Grade</text>
            <line y2="846" fill="none" x1="350" clip-path="url(#clipPath26)" x2="590" y1="846"/>
            <rect x="350" y="810" clip-path="url(#clipPath27)" fill="none" width="239" rx="0" ry="0" height="99"/>
            <rect x="350" y="970" clip-path="url(#clipPath28)" fill="url(#linearGradient6)" width="240" height="100" stroke="none"/>
            <text x="426" xml:space="preserve" y="986" clip-path="url(#clipPath29)" stroke="none">«ReferenceData»</text>
            <text x="444" xml:space="preserve" y="1002" clip-path="url(#clipPath30)" stroke="none">JobFamily</text>
            <line y2="1006" fill="none" x1="350" clip-path="url(#clipPath31)" x2="590" y1="1006"/>
            <rect x="350" y="970" clip-path="url(#clipPath32)" fill="none" width="239" rx="0" ry="0" height="99"/>
            <rect x="570" y="90" clip-path="url(#clipPath33)" fill="url(#linearGradient7)" width="240" height="130" stroke="none"/>
            <text x="669" y="106" clip-path="url(#clipPath34)" fill="rgb(169,169,169)" font-style="italic" stroke="none" xml:space="preserve">Position</text>
            <text x="576" xml:space="preserve" y="125" clip-path="url(#clipPath35)" stroke="none">  managedCostCentre: CostCentre [0..1]</text>
            <text x="576" xml:space="preserve" y="141" clip-path="url(#clipPath36)" stroke="none">  grade: Grade [1]</text>
            <text x="576" xml:space="preserve" y="157" clip-path="url(#clipPath37)" stroke="none">  jobFamily: JobFamily [1]</text>
            <text x="576" xml:space="preserve" y="173" clip-path="url(#clipPath38)" stroke="none">  title: String [1]</text>
            <line y2="110" fill="none" x1="570" clip-path="url(#clipPath39)" x2="810" y1="110"/>
            <rect x="570" y="90" clip-path="url(#clipPath40)" fill="none" width="239" rx="0" ry="0" height="129"/>
            <rect x="390" y="290" clip-path="url(#clipPath41)" fill="url(#linearGradient8)" width="240" height="100" stroke="none"/>
            <text x="471" xml:space="preserve" y="306" clip-path="url(#clipPath42)" stroke="none">ChiefExecutive</text>
            <text x="396" xml:space="preserve" y="325" clip-path="url(#clipPath43)" stroke="none">  organisation: Organisation [1]</text>
            <line y2="310" fill="none" x1="390" clip-path="url(#clipPath44)" x2="630" y1="310"/>
            <rect x="390" y="290" clip-path="url(#clipPath45)" fill="none" width="239" rx="0" ry="0" height="99"/>
            <rect x="10" y="90" clip-path="url(#clipPath46)" fill="url(#linearGradient9)" width="240" height="100" stroke="none"/>
            <text x="86" xml:space="preserve" y="106" clip-path="url(#clipPath47)" stroke="none">«ReferenceData»</text>
            <text x="101" xml:space="preserve" y="122" clip-path="url(#clipPath48)" stroke="none">CostCentre</text>
            <text x="16" xml:space="preserve" y="141" clip-path="url(#clipPath49)" stroke="none">  responsibilityType: ResponsibilityType [1]</text>
            <line y2="126" fill="none" x1="10" clip-path="url(#clipPath50)" x2="250" y1="126"/>
            <rect x="10" y="90" clip-path="url(#clipPath51)" fill="none" width="239" rx="0" ry="0" height="99"/>
            <rect x="1850" y="90" clip-path="url(#clipPath52)" fill="url(#linearGradient10)" width="240" height="100" stroke="none"/>
            <text x="1937" y="106" clip-path="url(#clipPath53)" fill="rgb(169,169,169)" font-style="italic" stroke="none" xml:space="preserve">«DataType»</text>
            <text x="1930" y="122" clip-path="url(#clipPath54)" fill="rgb(169,169,169)" font-style="italic" stroke="none" xml:space="preserve">EmployeeEvent</text>
            <text x="1856" xml:space="preserve" y="141" clip-path="url(#clipPath55)" stroke="none">  effectiveDate: Date [1]</text>
            <text x="1856" xml:space="preserve" y="157" clip-path="url(#clipPath56)" stroke="none">  endDate: Date [0..1]</text>
            <line y2="126" fill="none" x1="1850" clip-path="url(#clipPath57)" x2="2090" y1="126"/>
            <rect x="1850" y="90" clip-path="url(#clipPath58)" fill="none" width="239" rx="0" ry="0" height="99"/>
            <rect x="2030" y="250" clip-path="url(#clipPath59)" fill="url(#linearGradient11)" width="240" height="114" stroke="none"/>
            <text x="2120" xml:space="preserve" y="266" clip-path="url(#clipPath60)" stroke="none">«DataType»</text>
            <text x="2110" xml:space="preserve" y="282" clip-path="url(#clipPath61)" stroke="none">JobAssignment</text>
            <text x="2036" xml:space="preserve" y="301" clip-path="url(#clipPath62)" stroke="none">  title: String [1]</text>
            <text x="2036" xml:space="preserve" y="317" clip-path="url(#clipPath63)" stroke="none">  grade: ReferenceValue [1]</text>
            <text x="2036" xml:space="preserve" y="333" clip-path="url(#clipPath64)" stroke="none">  jobFamily: ReferenceValue [1]</text>
            <line y2="286" fill="none" x1="2030" clip-path="url(#clipPath65)" x2="2270" y1="286"/>
            <rect x="2030" y="250" clip-path="url(#clipPath66)" fill="none" width="239" rx="0" ry="0" height="113"/>
            <rect x="2030" y="430" clip-path="url(#clipPath67)" fill="url(#linearGradient12)" width="240" height="100" stroke="none"/>
            <text x="2117" y="446" clip-path="url(#clipPath68)" fill="rgb(169,169,169)" font-style="italic" stroke="none" xml:space="preserve">«DataType»</text>
            <text x="2094" y="462" clip-path="url(#clipPath69)" fill="rgb(169,169,169)" font-style="italic" stroke="none" xml:space="preserve">CompensationAward</text>
            <line y2="466" fill="none" x1="2030" clip-path="url(#clipPath70)" x2="2270" y1="466"/>
            <rect x="2030" y="430" clip-path="url(#clipPath71)" fill="none" width="239" rx="0" ry="0" height="99"/>
            <rect x="2210" y="590" clip-path="url(#clipPath72)" fill="url(#linearGradient13)" width="240" height="114" stroke="none"/>
            <text x="2300" xml:space="preserve" y="606" clip-path="url(#clipPath73)" stroke="none">«DataType»</text>
            <text x="2298" xml:space="preserve" y="622" clip-path="url(#clipPath74)" stroke="none">SalaryAward</text>
            <text x="2216" xml:space="preserve" y="641" clip-path="url(#clipPath75)" stroke="none">  salary: CurrencyAmount [1]</text>
            <text x="2216" xml:space="preserve" y="657" clip-path="url(#clipPath76)" stroke="none">  salaryPeriod: TimeUnit [1]</text>
            <text x="2216" xml:space="preserve" y="673" clip-path="url(#clipPath77)" stroke="none">  paymentPeriod: TimeUnit [1]</text>
            <line y2="626" fill="none" x1="2210" clip-path="url(#clipPath78)" x2="2450" y1="626"/>
            <rect x="2210" y="590" clip-path="url(#clipPath79)" fill="none" width="239" rx="0" ry="0" height="113"/>
            <rect x="2210" y="770" clip-path="url(#clipPath80)" fill="url(#linearGradient14)" width="240" height="100" stroke="none"/>
            <text x="2300" xml:space="preserve" y="786" clip-path="url(#clipPath81)" stroke="none">«DataType»</text>
            <text x="2274" xml:space="preserve" y="802" clip-path="url(#clipPath82)" stroke="none">SinglePaymentAward</text>
            <text x="2216" xml:space="preserve" y="821" clip-path="url(#clipPath83)" stroke="none">  value: CurrencyAmount [1]</text>
            <line y2="806" fill="none" x1="2210" clip-path="url(#clipPath84)" x2="2450" y1="806"/>
            <rect x="2210" y="770" clip-path="url(#clipPath85)" fill="none" width="239" rx="0" ry="0" height="99"/>
            <rect x="1330" y="450" clip-path="url(#clipPath86)" fill="url(#linearGradient15)" width="240" height="100" stroke="none"/>
            <text x="1417" xml:space="preserve" y="466" clip-path="url(#clipPath87)" stroke="none">Engagement</text>
            <text x="1336" xml:space="preserve" y="485" clip-path="url(#clipPath88)" stroke="none">  effectiveDate: Date [1]</text>
            <text x="1336" xml:space="preserve" y="501" clip-path="url(#clipPath89)" stroke="none">  endDate: Date [0..1]</text>
            <line y2="470" fill="none" x1="1330" clip-path="url(#clipPath90)" x2="1570" y1="470"/>
            <rect x="1330" y="450" clip-path="url(#clipPath91)" fill="none" width="239" rx="0" ry="0" height="99"/>
            <rect x="1850" y="930" clip-path="url(#clipPath92)" fill="url(#linearGradient16)" width="240" height="100" stroke="none"/>
            <text x="1940" xml:space="preserve" y="946" clip-path="url(#clipPath93)" stroke="none">«DataType»</text>
            <text x="1939" xml:space="preserve" y="962" clip-path="url(#clipPath94)" stroke="none">JobFunding</text>
            <text x="1856" xml:space="preserve" y="981" clip-path="url(#clipPath95)" stroke="none">  costObject: CostObject [1]</text>
            <text x="1856" xml:space="preserve" y="997" clip-path="url(#clipPath96)" stroke="none">  fundingAmount: Real [1]</text>
            <line y2="966" fill="none" x1="1850" clip-path="url(#clipPath97)" x2="2090" y1="966"/>
            <rect x="1850" y="930" clip-path="url(#clipPath98)" fill="none" width="239" rx="0" ry="0" height="99"/>
            <line clip-path="url(#clipPath99)" fill="none" text-rendering="optimizeLegibility" x1="810" x2="1006" y1="130" y2="130"/>
            <line clip-path="url(#clipPath99)" fill="none" text-rendering="optimizeLegibility" x1="1006" x2="1330" y1="130" y2="130"/>
            <line clip-path="url(#clipPath99)" fill="none" text-rendering="optimizeLegibility" x1="1070" x2="1070" y1="130" y2="230" stroke-dasharray="6.6,3.3"/>
            <line clip-path="url(#clipPath99)" fill="none" text-rendering="optimizeLegibility" x1="630" x2="690" y1="330" y2="330"/>
            <line clip-path="url(#clipPath99)" fill="none" text-rendering="optimizeLegibility" x1="690" x2="690" y1="330" y2="220"/>
            <polygon fill="white" text-rendering="optimizeLegibility" clip-path="url(#clipPath100)" points=" 690 220 698 230 682 230" stroke="none"/>
            <polygon fill="none" text-rendering="optimizeLegibility" clip-path="url(#clipPath100)" points=" 690 220 698 230 682 230"/>
            <line clip-path="url(#clipPath99)" fill="none" text-rendering="optimizeLegibility" x1="631" x2="689" y1="485" y2="485"/>
            <line clip-path="url(#clipPath99)" fill="none" text-rendering="optimizeLegibility" x1="689" x2="689" y1="485" y2="220"/>
            <polygon fill="white" text-rendering="optimizeLegibility" clip-path="url(#clipPath101)" points=" 689 220 697 230 681 230" stroke="none"/>
            <polygon fill="none" text-rendering="optimizeLegibility" clip-path="url(#clipPath101)" points=" 689 220 697 230 681 230"/>
            <line clip-path="url(#clipPath99)" fill="none" text-rendering="optimizeLegibility" x1="390" x2="330" y1="490" y2="490"/>
            <line clip-path="url(#clipPath99)" fill="none" text-rendering="optimizeLegibility" x1="330" x2="330" y1="490" y2="170"/>
            <line clip-path="url(#clipPath99)" fill="none" text-rendering="optimizeLegibility" x1="330" x2="570" y1="170" y2="170"/>
            <text text-rendering="optimizeLegibility" x="370" xml:space="preserve" y="483" clip-path="url(#clipPath102)" stroke="none"> *</text>
            <text text-rendering="optimizeLegibility" x="550" xml:space="preserve" y="163" clip-path="url(#clipPath103)" stroke="none"> 1</text>
            <line clip-path="url(#clipPath99)" fill="none" text-rendering="optimizeLegibility" x1="570" x2="250" y1="130" y2="130" stroke-dasharray="5,5,5,5,5,5,5,5,5,5"/>
            <text x="370" y="123" clip-path="url(#clipPath104)" text-rendering="optimizeLegibility" stroke-dasharray="5,5,5,5,5,5,5,5,5,5" stroke="none" xml:space="preserve">«abstraction»</text>
            <line clip-path="url(#clipPath105)" fill="none" text-rendering="optimizeLegibility" x1="265" x2="250" y1="125" y2="130"/>
            <line clip-path="url(#clipPath105)" fill="none" text-rendering="optimizeLegibility" x1="250" x2="265" y1="130" y2="135"/>
            <line clip-path="url(#clipPath99)" fill="none" text-rendering="optimizeLegibility" x1="350" x2="290" y1="850" y2="850" stroke-dasharray="5,5,5,5,5,5,5,5,5,5"/>
            <line clip-path="url(#clipPath99)" fill="none" text-rendering="optimizeLegibility" x1="290" x2="290" y1="850" y2="750" stroke-dasharray="5,5,5,5,5,5,5,5,5,5"/>
        </g>
        <g stroke-linecap="butt" fill="white" text-rendering="optimizeLegibility" font-family="'Segoe UI'" stroke-dasharray="5,5,5,5,5,5,5,5,5,5" stroke="white" stroke-width="1.1">
            <polygon points=" 290 750 295 765 285 765" stroke="none" clip-path="url(#clipPath106)"/>
            <polygon fill="none" stroke-dasharray="none" clip-path="url(#clipPath106)" points=" 290 750 295 765 285 765" stroke="black"/>
            <line clip-path="url(#clipPath99)" fill="none" x1="350" x2="290" y1="1010" y2="1010" stroke="black"/>
            <line clip-path="url(#clipPath99)" fill="none" x1="290" x2="290" y1="1010" y2="750" stroke="black"/>
            <polygon points=" 290 750 295 765 285 765" clip-path="url(#clipPath106)" stroke="none"/>
            <polygon fill="none" stroke-dasharray="none" clip-path="url(#clipPath106)" points=" 290 750 295 765 285 765" stroke="black"/>
            <line clip-path="url(#clipPath99)" fill="none" x1="2030" x2="1970" y1="290" y2="290" stroke-dasharray="none" stroke="black"/>
            <line clip-path="url(#clipPath99)" fill="none" x1="1970" x2="1970" y1="290" y2="190" stroke-dasharray="none" stroke="black"/>
            <polygon stroke-dasharray="none" clip-path="url(#clipPath107)" points=" 1970 190 1978 200 1962 200" stroke="none"/>
            <polygon fill="none" stroke-dasharray="none" clip-path="url(#clipPath107)" points=" 1970 190 1978 200 1962 200" stroke="black"/>
            <line clip-path="url(#clipPath99)" fill="none" x1="2030" x2="1970" y1="470" y2="470" stroke-dasharray="none" stroke="black"/>
            <line clip-path="url(#clipPath99)" fill="none" x1="1970" x2="1970" y1="470" y2="190" stroke-dasharray="none" stroke="black"/>
            <polygon stroke-dasharray="none" clip-path="url(#clipPath107)" points=" 1970 190 1978 200 1962 200" stroke="none"/>
            <polygon fill="none" stroke-dasharray="none" clip-path="url(#clipPath107)" points=" 1970 190 1978 200 1962 200" stroke="black"/>
            <line clip-path="url(#clipPath99)" fill="none" x1="2210" x2="2150" y1="630" y2="630" stroke-dasharray="none" stroke="black"/>
            <line clip-path="url(#clipPath99)" fill="none" x1="2150" x2="2150" y1="630" y2="530" stroke-dasharray="none" stroke="black"/>
            <polygon stroke-dasharray="none" clip-path="url(#clipPath108)" points=" 2150 530 2158 540 2142 540" stroke="none"/>
            <polygon fill="none" stroke-dasharray="none" clip-path="url(#clipPath108)" points=" 2150 530 2158 540 2142 540" stroke="black"/>
            <line clip-path="url(#clipPath99)" fill="none" x1="2210" x2="2150" y1="810" y2="810" stroke-dasharray="none" stroke="black"/>
            <line clip-path="url(#clipPath99)" fill="none" x1="2150" x2="2150" y1="810" y2="530" stroke-dasharray="none" stroke="black"/>
            <polygon stroke-dasharray="none" clip-path="url(#clipPath108)" points=" 2150 530 2158 540 2142 540" stroke="none"/>
            <polygon fill="none" stroke-dasharray="none" clip-path="url(#clipPath108)" points=" 2150 530 2158 540 2142 540" stroke="black"/>
            <line clip-path="url(#clipPath99)" fill="none" x1="1450" x2="1450" y1="190" y2="450" stroke-dasharray="none" stroke="black"/>
            <text x="1430" y="218" clip-path="url(#clipPath109)" fill="black" stroke-dasharray="none" stroke="none" xml:space="preserve"> 1</text>
            <text x="1470" y="423" clip-path="url(#clipPath110)" fill="black" stroke-dasharray="none" stroke="none" xml:space="preserve"> 1..*</text>
        </g>
    </g>
</svg>
