<?xml version="1.0" encoding="UTF-8"?><svg xmlns="http://www.w3.org/2000/svg" xmlns:xlink="http://www.w3.org/1999/xlink" stroke-dasharray="none" shape-rendering="auto" font-family="'Dialog'" width="441" text-rendering="auto" fill-opacity="1" contentScriptType="text/ecmascript" color-interpolation="auto" color-rendering="auto" preserveAspectRatio="xMidYMid meet" font-size="12px" viewBox="0 0 441 440" fill="black" stroke="black" image-rendering="auto" stroke-miterlimit="10" zoomAndPan="magnify" version="1.0" stroke-linecap="square" stroke-linejoin="miter" contentStyleType="text/css" font-style="normal" height="440" stroke-width="1" stroke-dashoffset="0" font-weight="normal" stroke-opacity="1">
    <!--Generated by the Batik Graphics2D SVG Generator-->
    <defs id="genericDefs"/>
    <g>
        <defs id="defs1">
            <linearGradient x1="190" x2="190" y1="170" gradientUnits="userSpaceOnUse" y2="270" xlink:type="simple" xlink:actuate="onLoad" id="linearGradient1" xlink:show="other" spreadMethod="pad">
                <stop stop-opacity="1" stop-color="white" offset="0%"/>
                <stop stop-opacity="1" stop-color="rgb(195,167,173)" offset="100%"/>
            </linearGradient>
            <linearGradient x1="10" x2="10" y1="10" gradientUnits="userSpaceOnUse" y2="110" xlink:type="simple" xlink:actuate="onLoad" id="linearGradient2" xlink:show="other" spreadMethod="pad">
                <stop stop-opacity="1" stop-color="white" offset="0%"/>
                <stop stop-opacity="1" stop-color="rgb(131,135,205)" offset="100%"/>
            </linearGradient>
            <linearGradient x1="10" x2="10" y1="330" gradientUnits="userSpaceOnUse" y2="430" xlink:type="simple" xlink:actuate="onLoad" id="linearGradient3" xlink:show="other" spreadMethod="pad">
                <stop stop-opacity="1" stop-color="white" offset="0%"/>
                <stop stop-opacity="1" stop-color="rgb(163,199,173)" offset="100%"/>
            </linearGradient>
            <clipPath clipPathUnits="userSpaceOnUse" id="clipPath1">
                <path d="M190 170 L190 269 L430 269 L430 170 Z"/>
            </clipPath>
            <clipPath clipPathUnits="userSpaceOnUse" id="clipPath2">
                <path d="M266 172 L357 172 L357 189 L266 189 L266 172 Z"/>
            </clipPath>
            <clipPath clipPathUnits="userSpaceOnUse" id="clipPath3">
                <path d="M285 188 L338 188 L338 205 L285 205 L285 188 Z"/>
            </clipPath>
            <clipPath clipPathUnits="userSpaceOnUse" id="clipPath4">
                <path d="M190 205 L432 205 L432 271 L190 271 L190 205 Z"/>
            </clipPath>
            <clipPath clipPathUnits="userSpaceOnUse" id="clipPath5">
                <path d="M189 169 L432 169 L432 271 L189 271 L189 169 Z"/>
            </clipPath>
            <clipPath clipPathUnits="userSpaceOnUse" id="clipPath6">
                <path d="M10 10 L10 109 L250 109 L250 10 Z"/>
            </clipPath>
            <clipPath clipPathUnits="userSpaceOnUse" id="clipPath7">
                <path d="M101 12 L162 12 L162 29 L101 29 L101 12 Z"/>
            </clipPath>
            <clipPath clipPathUnits="userSpaceOnUse" id="clipPath8">
                <path d="M72 28 L191 28 L191 45 L72 45 L72 28 Z"/>
            </clipPath>
            <clipPath clipPathUnits="userSpaceOnUse" id="clipPath9">
                <path d="M15 47 L214 47 L214 64 L15 64 L15 47 Z"/>
            </clipPath>
            <clipPath clipPathUnits="userSpaceOnUse" id="clipPath10">
                <path d="M10 45 L252 45 L252 111 L10 111 L10 45 Z"/>
            </clipPath>
            <clipPath clipPathUnits="userSpaceOnUse" id="clipPath11">
                <path d="M9 9 L252 9 L252 111 L9 111 L9 9 Z"/>
            </clipPath>
            <clipPath clipPathUnits="userSpaceOnUse" id="clipPath12">
                <path d="M10 330 L10 429 L250 429 L250 330 Z"/>
            </clipPath>
            <clipPath clipPathUnits="userSpaceOnUse" id="clipPath13">
                <path d="M100 332 L163 332 L163 349 L100 349 L100 332 Z"/>
            </clipPath>
            <clipPath clipPathUnits="userSpaceOnUse" id="clipPath14">
                <path d="M117 348 L146 348 L146 365 L117 365 L117 348 Z"/>
            </clipPath>
            <clipPath clipPathUnits="userSpaceOnUse" id="clipPath15">
                <path d="M15 367 L146 367 L146 384 L15 384 L15 367 Z"/>
            </clipPath>
            <clipPath clipPathUnits="userSpaceOnUse" id="clipPath16">
                <path d="M15 383 L180 383 L180 400 L15 400 L15 383 Z"/>
            </clipPath>
            <clipPath clipPathUnits="userSpaceOnUse" id="clipPath17">
                <path d="M10 365 L252 365 L252 431 L10 431 L10 365 Z"/>
            </clipPath>
            <clipPath clipPathUnits="userSpaceOnUse" id="clipPath18">
                <path d="M9 329 L252 329 L252 431 L9 431 L9 329 Z"/>
            </clipPath>
            <clipPath clipPathUnits="userSpaceOnUse" id="clipPath19">
                <path d="M-1 -1 L442 -1 L442 441 L-1 441 L-1 -1 Z"/>
            </clipPath>
            <clipPath clipPathUnits="userSpaceOnUse" id="clipPath20">
                <path d="M104 109 L117 109 L117 127 L104 127 L104 109 Z"/>
            </clipPath>
        </defs>
        <g fill="url(#linearGradient1)" stroke-miterlimit="0" stroke-width="0" font-family="'Segoe UI'" stroke="url(#linearGradient1)" stroke-linejoin="round">
            <rect x="190" width="241" height="100" y="170" clip-path="url(#clipPath1)" stroke="none"/>
            <text fill="black" x="267" xml:space="preserve" y="186" clip-path="url(#clipPath2)" stroke="none">«ReferenceData»</text>
            <text fill="black" x="286" xml:space="preserve" y="202" clip-path="url(#clipPath3)" stroke="none">PriceType</text>
        </g>
        <g stroke-linecap="butt" font-family="'Segoe UI'" stroke-width="1.1">
            <line y2="206" fill="none" x1="190" clip-path="url(#clipPath4)" x2="431" y1="206"/>
            <rect x="190" y="170" clip-path="url(#clipPath5)" fill="none" width="240" rx="0" ry="0" height="99"/>
            <rect x="10" y="10" clip-path="url(#clipPath6)" fill="url(#linearGradient2)" width="241" height="100" stroke="none"/>
            <text x="102" xml:space="preserve" y="26" clip-path="url(#clipPath7)" stroke="none">«Interface»</text>
            <text x="73" xml:space="preserve" y="42" clip-path="url(#clipPath8)" stroke="none">IControlledVocabulary</text>
            <text x="16" xml:space="preserve" y="61" clip-path="url(#clipPath9)" stroke="none">«ReferenceCode»   code: Identifier [1]</text>
            <line y2="46" fill="none" x1="10" clip-path="url(#clipPath10)" x2="251" y1="46"/>
            <rect x="10" y="10" clip-path="url(#clipPath11)" fill="none" width="240" rx="0" ry="0" height="99"/>
            <rect x="10" y="330" clip-path="url(#clipPath12)" fill="url(#linearGradient3)" width="241" height="100" stroke="none"/>
            <text x="101" xml:space="preserve" y="346" clip-path="url(#clipPath13)" stroke="none">«DataType»</text>
            <text x="118" xml:space="preserve" y="362" clip-path="url(#clipPath14)" stroke="none">Price</text>
            <text x="16" xml:space="preserve" y="381" clip-path="url(#clipPath15)" stroke="none">  priceType: PriceType [1]</text>
            <text x="16" xml:space="preserve" y="397" clip-path="url(#clipPath16)" stroke="none">  amount: CurrencyAmount [1]</text>
            <line y2="366" fill="none" x1="10" clip-path="url(#clipPath17)" x2="251" y1="366"/>
            <rect x="10" y="330" clip-path="url(#clipPath18)" fill="none" width="240" rx="0" ry="0" height="99"/>
            <line clip-path="url(#clipPath19)" fill="none" text-rendering="optimizeLegibility" x1="190" x2="110" y1="210" y2="210" stroke-dasharray="5,5,5,5,5,5,5,5,5,5"/>
            <line clip-path="url(#clipPath19)" fill="none" text-rendering="optimizeLegibility" x1="110" x2="110" y1="210" y2="110" stroke-dasharray="5,5,5,5,5,5,5,5,5,5"/>
        </g>
        <g stroke-linecap="butt" fill="white" text-rendering="optimizeLegibility" font-family="'Segoe UI'" stroke-dasharray="5,5,5,5,5,5,5,5,5,5" stroke="white" stroke-width="1.1">
            <polygon points=" 110 110 115 125 105 125" stroke="none" clip-path="url(#clipPath20)"/>
            <polygon fill="none" stroke-dasharray="none" clip-path="url(#clipPath20)" points=" 110 110 115 125 105 125" stroke="black"/>
        </g>
    </g>
</svg>
